<?xml version="1.0" encoding="utf-8"?>
<!-- Generator: Adobe Illustrator 21.0.2, SVG Export Plug-In . SVG Version: 6.00 Build 0)  -->
<svg version="1.1" id="Layer_1" xmlns="http://www.w3.org/2000/svg" xmlns:xlink="http://www.w3.org/1999/xlink" x="0px" y="0px"
	 viewBox="0 0 792 1224" style="enable-background:new 0 0 792 1224;" xml:space="preserve">
<style type="text/css">
	.st0{fill:#FFFFFF;}
	.st1{fill:#F8F8F8;}
	.st2{fill:#F4F3F3;}
	.st3{fill:#F0EFEF;}
	.st4{fill:#ECEBEC;}
	.st5{fill:#E8E8E8;}
	.st6{fill:#E4E4E5;}
	.st7{fill:#E0E0E1;}
	.st8{fill:#DCDDDE;}
	.st9{fill:#D8D9DA;}
	.st10{fill:#D4D6D7;}
	.st11{fill:#D1D2D4;}
	.st12{fill:#BCBEC0;}
	.st13{fill:url(#XMLID_4_);}
	.st14{fill:#F1F2F2;}
	.st15{fill:url(#XMLID_5_);}
	.st16{fill:url(#XMLID_6_);}
	.st17{fill:url(#XMLID_7_);}
	.st18{fill:url(#XMLID_8_);}
	.st19{fill:url(#XMLID_9_);}
	.st20{fill:#A7A9AC;}
	.st21{fill:url(#XMLID_10_);}
	.st22{fill:#636466;}
	.st23{fill:#48494A;}
	.st24{fill:#EDAE46;}
	.st25{fill:url(#XMLID_11_);}
	.st26{fill:#ED1C24;}
	.st27{fill:#F37B82;}
	.st28{fill:#A6A8AB;}
	.st29{fill:url(#XMLID_12_);}
	.st30{fill:#6D6E71;}
	.st31{fill:url(#XMLID_13_);}
	.st32{fill:#999B9E;}
	.st33{fill:url(#XMLID_14_);}
</style>
<g id="air_conditioning">
	<g id="XMLID_2648_">
		<path id="XMLID_2_" class="st0" d="M546.1,233.5l-342.6-41c-2.6-0.3-3-2.7-0.9-5.3l16.9-21c1.8-2.2,5.2-3.8,7.5-3.5L569.3,199
			c2.4,0.3,5.2,2.6,6.4,5.2C575.7,204.2,548.7,233.8,546.1,233.5z"/>
		<path class="st1" d="M545.5,232.1l-339.1-40.3c-2.6-0.3-2.8-2.9-0.9-5.5l15.3-19.2c1.7-2.2,4.9-3.8,7.3-3.5l339.1,35.9
			c2.4,0.3,4.9,2.7,6,5.2C573.3,204.7,548.1,232.4,545.5,232.1z"/>
		<path class="st2" d="M544.9,230.7l-335.7-39.6c-2.6-0.3-2.7-3.2-0.9-5.7l13.8-17.3c1.5-2.3,4.7-3.8,7-3.5l336,35.4
			c2.4,0.3,4.7,2.7,5.6,5.3C570.8,205.2,547.4,231,544.9,230.7z"/>
		<path class="st3" d="M544.2,229.3L212,190.5c-2.5-0.3-2.5-3.4-0.9-5.9l12.3-15.5c1.4-2.3,4.4-3.9,6.8-3.6l332.9,34.9
			c2.4,0.3,4.4,2.8,5.2,5.3C568.4,205.7,546.8,229.7,544.2,229.3z"/>
		<path class="st4" d="M543.6,228l-328.8-38.1c-2.5-0.3-2.3-3.6-0.9-6.1l10.8-13.7c1.3-2.3,4.2-3.9,6.6-3.6l329.9,34.4
			c2.4,0.3,4.1,2.8,4.8,5.4C565.9,206.2,546.1,228.3,543.6,228z"/>
		<path class="st5" d="M543,226.6l-325.3-37.3c-2.5-0.3-2.2-3.9-0.9-6.4l9.2-11.8c1.1-2.3,3.9-3.9,6.3-3.6l326.8,33.9
			c2.4,0.3,3.8,2.9,4.4,5.4C563.5,206.7,545.5,226.9,543,226.6z"/>
		<path class="st6" d="M542.4,225.2l-321.9-36.6c-2.5-0.3-2-4.1-0.9-6.6l7.7-10c1-2.3,3.7-3.9,6.1-3.7L557,201.8
			c2.4,0.3,3.6,2.9,4,5.4C561,207.2,544.8,225.5,542.4,225.2z"/>
		<path class="st7" d="M541.7,223.9L223.3,188c-2.5-0.3-1.9-4.3-0.9-6.8l6.2-8.2c0.8-2.3,3.5-4,5.8-3.7L555,202.3
			c2.4,0.3,3.3,3,3.5,5.5C558.6,207.7,544.2,224.2,541.7,223.9z"/>
		<path class="st8" d="M541.1,222.5l-315-35.1c-2.5-0.3-1.7-4.5-0.9-7l4.7-6.3c0.7-2.4,3.2-4,5.6-3.7L553,202.7
			c2.4,0.3,3,3.1,3.1,5.5C556.1,208.2,543.5,222.8,541.1,222.5z"/>
		<path class="st9" d="M540.5,221.1l-311.5-34.4c-2.4-0.3-1.6-4.8-0.9-7.2l3.2-4.5c0.6-2.4,3-4,5.4-3.7l314.4,31.9
			c2.4,0.3,2.7,3.1,2.7,5.5C553.6,208.7,542.9,221.4,540.5,221.1z"/>
		<path class="st10" d="M539.8,219.7l-308.1-33.6c-2.4-0.3-1.4-5-0.9-7.4l1.6-2.7c0.4-2.4,2.7-4.1,5.1-3.8l311.3,31.4
			c2.4,0.3,2.5,3.2,2.3,5.6C551.2,209.2,542.3,220,539.8,219.7z"/>
		<path id="XMLID_1_" class="st11" d="M539.2,218.4l-304.6-32.9c-2.4-0.3-1.2-5.2-0.9-7.6l0.1-0.8c0.3-2.4,2.5-4.1,4.9-3.8
			l308.2,30.9c2.4,0.3,2.2,3.2,1.9,5.6C548.7,209.7,541.6,218.7,539.2,218.4z"/>
	</g>
	<g id="XMLID_501_">
		<g id="XMLID_1875_">
			<path id="XMLID_2294_" class="st12" d="M534.7,163.7v37.1l6.2,15.7l14.6-9.8c0,0,0,0,0,0c1.6-1.1,2.6-3,2.6-5.2v-78.6l-1,0.8
				l-18.4,16.5C535.3,145.2,534.7,163.7,534.7,163.7z"/>
			
				<linearGradient id="XMLID_4_" gradientUnits="userSpaceOnUse" x1="-347.374" y1="217.332" x2="-347.374" y2="123.6465" gradientTransform="matrix(-1 0 0 1 198.0804 0)">
				<stop  offset="0" style="stop-color:#9E9E9E"/>
				<stop  offset="0.5958" style="stop-color:#DEDFE0"/>
			</linearGradient>
			<path id="XMLID_1883_" class="st13" d="M533.8,164.5v37.1l6.2,15.7l14.6-9.8c0,0,0,0,0,0c1.6-1.1,2.6-3,2.6-5.2v-78.6L537.8,141
				C534.3,146,533.8,164.5,533.8,164.5z"/>
			<path id="XMLID_2293_" class="st12" d="M220.4,106.8c0,0,10.3,7.5,12.3,7.7c0.7,0,3.7-0.5,7.1-1.2v53.8c0,0.2,0,0.4,0,0.6
				c0,0.5,0.1,0.9,0.3,1.4c0.9,3,3.6,5.5,6.8,5.9l280.5,30.2c0.7,3,1.5,6.7,2.3,10l4.2,0.4l6.2,0.7l-6.2-15.7v-37.1
				c0,0,0.6-18.5,4-23.6l20.3-17.1l-8.1-1L246.9,89.2l-2.6-0.2l-1.9,1.4l0,0L220.4,106.8z"/>
			<path id="XMLID_1879_" class="st14" d="M220.4,106.8c0,0,10.3,8.5,12.3,8.7c0.7,0,3.7-0.5,7.1-1.2v53.8c0,0.2,0,0.4,0,0.6
				c0,0.5,0.1,0.9,0.3,1.4c0.9,3,3.6,5.5,6.8,5.9l280.5,30.2c0.7,3,1.5,6.7,2.3,10l4.2,0.4l6.2,0.7l-6.2-15.7v-37.1
				c0,0,0.6-18.5,4-23.6l19.4-17.3l-7.1-0.8L246.9,90.2l-2.6-0.2l-1.9,1.4l0,0L220.4,106.8z"/>
		</g>
		<g id="XMLID_1868_">
			<path id="XMLID_1870_" class="st14" d="M217.9,130.4v35.9l23.4,2.5l294,32.8v-37.1c0,0,0.6-19.8,4-24.8l-317.4-32.9
				C218.4,111.9,217.9,130.4,217.9,130.4z"/>
			<polygon id="XMLID_1869_" class="st14" points="217.9,167.7 224,183.3 531,216.2 535.2,216.6 540,217.4 541.1,216.6 535.2,201.6 
				241.5,170.2 			"/>
		</g>
		<path id="XMLID_1864_" class="st0" d="M216.4,129v35.9l23.4,2.5l294,31.6v-35.9c0,0,0.5-15.7,3.2-22.1c0,0,0.7,0,0.8,0
			c0.4-0.4,1.1-0.9,1.4-1.3l-317-34.1c-0.4,0.3-1.2,0.9-1.8,1.3c0,0,0,0,0,0C217.4,113.2,216.4,129,216.4,129z"/>
		<g id="XMLID_1319_">
			
				<linearGradient id="XMLID_5_" gradientUnits="userSpaceOnUse" x1="-174.9376" y1="183.5535" x2="-181.2454" y2="123.5391" gradientTransform="matrix(-1 0 0 1 198.0804 0)">
				<stop  offset="5.376340e-03" style="stop-color:#CDCFD0"/>
				<stop  offset="0.6079" style="stop-color:#E3E3E4"/>
				<stop  offset="1" style="stop-color:#EBEBEB"/>
			</linearGradient>
			<path id="XMLID_1863_" class="st15" d="M216.4,130.4v35.9l23.4,2.5l294,31.6v-35.9c0,0,0.6-18.5,4-23.6l-317.4-34.1
				C217,111.9,216.4,130.4,216.4,130.4z"/>
			<g id="XMLID_1320_">
				<g id="XMLID_1335_">
					<g id="XMLID_1857_">
						
							<linearGradient id="XMLID_6_" gradientUnits="userSpaceOnUse" x1="-179.428" y1="104.5434" x2="-179.428" y2="101.7387" gradientTransform="matrix(-0.9938 -0.1069 0 1 196.793 15.4678)">
							<stop  offset="0" style="stop-color:#E0E0E0"/>
							<stop  offset="0.1443" style="stop-color:#D8D8D8"/>
							<stop  offset="0.3706" style="stop-color:#C2C2C2"/>
							<stop  offset="0.6507" style="stop-color:#9D9D9D"/>
							<stop  offset="0.9711" style="stop-color:#6B6B6B"/>
							<stop  offset="1" style="stop-color:#666666"/>
						</linearGradient>
						<path id="XMLID_1861_" class="st16" d="M243.9,125.1l262.5,28.2c5.3,0.6,14.1-1.3,14.1-1.3l-290.6-31.3
							C229.8,120.8,238.7,124.5,243.9,125.1z"/>
						
							<linearGradient id="XMLID_7_" gradientUnits="userSpaceOnUse" x1="-179.428" y1="110.7239" x2="-179.428" y2="107.9193" gradientTransform="matrix(-0.9938 -0.1069 0 1 196.793 15.4678)">
							<stop  offset="0" style="stop-color:#E0E0E0"/>
							<stop  offset="0.1443" style="stop-color:#D8D8D8"/>
							<stop  offset="0.3706" style="stop-color:#C2C2C2"/>
							<stop  offset="0.6507" style="stop-color:#9D9D9D"/>
							<stop  offset="0.9711" style="stop-color:#6B6B6B"/>
							<stop  offset="1" style="stop-color:#666666"/>
						</linearGradient>
						<path id="XMLID_1860_" class="st17" d="M243.9,131.3l262.5,28.2c5.3,0.6,14.1-1.3,14.1-1.3l-290.6-31.3
							C229.8,126.9,238.7,130.7,243.9,131.3z"/>
						
							<linearGradient id="XMLID_8_" gradientUnits="userSpaceOnUse" x1="-179.428" y1="116.9044" x2="-179.428" y2="114.0998" gradientTransform="matrix(-0.9938 -0.1069 0 1 196.793 15.4678)">
							<stop  offset="0" style="stop-color:#E0E0E0"/>
							<stop  offset="0.1443" style="stop-color:#D8D8D8"/>
							<stop  offset="0.3706" style="stop-color:#C2C2C2"/>
							<stop  offset="0.6507" style="stop-color:#9D9D9D"/>
							<stop  offset="0.9711" style="stop-color:#6B6B6B"/>
							<stop  offset="1" style="stop-color:#666666"/>
						</linearGradient>
						<path id="XMLID_1859_" class="st18" d="M243.9,137.4l262.5,28.2c5.3,0.6,14.1-1.3,14.1-1.3l-290.6-31.3
							C229.8,133.1,238.7,136.9,243.9,137.4z"/>
						
							<linearGradient id="XMLID_9_" gradientUnits="userSpaceOnUse" x1="-179.428" y1="123.085" x2="-179.428" y2="120.2803" gradientTransform="matrix(-0.9938 -0.1069 0 1 196.793 15.4678)">
							<stop  offset="0" style="stop-color:#E0E0E0"/>
							<stop  offset="0.1443" style="stop-color:#D8D8D8"/>
							<stop  offset="0.3706" style="stop-color:#C2C2C2"/>
							<stop  offset="0.6507" style="stop-color:#9D9D9D"/>
							<stop  offset="0.9711" style="stop-color:#6B6B6B"/>
							<stop  offset="1" style="stop-color:#666666"/>
						</linearGradient>
						<path id="XMLID_1858_" class="st19" d="M243.9,143.6l262.5,28.2c5.3,0.6,14.1-1.3,14.1-1.3l-290.6-31.3
							C229.8,139.3,238.7,143.1,243.9,143.6z"/>
					</g>
					<g id="XMLID_1336_">
						<g id="XMLID_1854_">
							<path id="XMLID_1856_" class="st20" d="M408.8,178.5c-1.1,2.1-3.8,3.6-6.1,3.3l-57.9-6.7c-2.3-0.3-4.2-2.3-4.3-4.5l-1.7-8.2
								c-0.1-2.2,1.6-3.8,3.9-3.6l68,7.9c2.3,0.3,3.2,2.2,2.1,4.3L408.8,178.5z"/>
							
								<linearGradient id="XMLID_10_" gradientUnits="userSpaceOnUse" x1="-452.7121" y1="143.604" x2="-452.7121" y2="127.5661" gradientTransform="matrix(0.9929 0.1149 -0.2205 0.9754 854.5574 89.1101)">
								<stop  offset="0" style="stop-color:#E0E0E0"/>
								<stop  offset="0.1845" style="stop-color:#D8D8D8"/>
								<stop  offset="0.4741" style="stop-color:#C2C2C2"/>
								<stop  offset="0.8305" style="stop-color:#9E9E9E"/>
								<stop  offset="1" style="stop-color:#8A8A8A"/>
							</linearGradient>
							<path id="XMLID_1855_" class="st21" d="M409.4,176.8c-1.2,2.3-3.8,4.1-5.8,3.9l-59.1-6.8c-1.9-0.2-3.7-2.5-3.8-5l-1.6-7.2
								c-0.1-2.5,1.3-4.4,3.3-4.2l69.2,8c1.9,0.2,2.5,2.3,1.3,4.7L409.4,176.8z"/>
						</g>
						<g id="XMLID_1337_">
							<g id="XMLID_1845_">
								<path id="XMLID_1853_" class="st22" d="M396.9,178l-46.2-5.3c-0.5-0.1-0.8-0.5-0.7-1l2.3-10.3c0.1-0.5,0.6-0.8,1.1-0.8
									l46.2,5.3c0.5,0.1,0.8,0.5,0.7,1l-2.3,10.3C397.9,177.7,397.4,178.1,396.9,178z"/>
								<path id="XMLID_1846_" class="st23" d="M396.8,178.7l-46.2-5.3c-0.8-0.1-1.4-0.9-1.2-1.7l2.3-10.3c0.2-0.8,1-1.4,1.9-1.3
									l46.2,5.3c0.8,0.1,1.4,0.9,1.2,1.7l-2.3,10.3C398.4,178.2,397.6,178.8,396.8,178.7z M353.3,161.3c-0.1,0-0.3,0.1-0.3,0.2
									l-2.3,10.3c0,0.1,0.1,0.3,0.2,0.3l46.2,5.3c0.1,0,0.3-0.1,0.3-0.2l2.3-10.3c0-0.1-0.1-0.3-0.2-0.3L353.3,161.3z"/>
							</g>
							<g id="XMLID_1338_">
								<g id="XMLID_1467_">
									<g id="XMLID_1839_">
										<polygon id="XMLID_1844_" class="st24" points="385.2,170.1 384.7,170.5 384.3,170 384.9,167.8 385.4,167.4 385.7,167.9 
																					"/>
										<polygon id="XMLID_1843_" class="st24" points="381.2,173 380.6,173.4 380.3,172.9 380.8,170.7 381.3,170.3 381.7,170.8 
																					"/>
										<polygon id="XMLID_1842_" class="st24" points="385,166.8 385.3,167.3 384.8,167.7 382.5,167.4 382.2,166.9 382.7,166.6 
																					"/>
										<polygon id="XMLID_1841_" class="st24" points="384.2,170.1 384.6,170.6 384.1,170.9 381.8,170.7 381.4,170.2 
											381.9,169.8 										"/>
										<polygon id="XMLID_1840_" class="st24" points="383.5,173.4 383.8,173.9 383.3,174.2 381,174 380.7,173.5 381.2,173.1 
																					"/>
									</g>
									<g id="XMLID_1828_">
										<polygon id="XMLID_1838_" class="st24" points="391.4,170.8 390.9,171.2 390.6,170.7 391.1,168.5 391.6,168.1 
											391.9,168.6 										"/>
										<polygon id="XMLID_1837_" class="st24" points="387.4,173.7 386.9,174.1 386.6,173.6 387.1,171.4 387.6,171 387.9,171.5 
																					"/>
										<polygon id="XMLID_1836_" class="st24" points="391.2,167.6 391.5,168 391,168.4 388.7,168.1 388.4,167.7 388.9,167.3 
																					"/>
										<polygon id="XMLID_1835_" class="st24" points="390.5,170.8 390.8,171.3 390.3,171.6 388,171.4 387.7,170.9 388.2,170.6 
																					"/>
										<polygon id="XMLID_1829_" class="st24" points="389.7,174.1 390.1,174.6 389.6,174.9 387.2,174.7 386.9,174.2 
											387.4,173.9 										"/>
									</g>
									<g id="XMLID_1468_">
										<path id="XMLID_1469_" class="st24" d="M395.1,170.8c-0.9-0.1-1.5-0.9-1.3-1.8c0.2-0.9,1.1-1.5,2-1.4
											c0.9,0.1,1.5,0.9,1.3,1.8C396.9,170.3,396,170.9,395.1,170.8z M395.7,168.2c-0.6-0.1-1.2,0.3-1.3,0.9
											c-0.1,0.6,0.2,1.1,0.8,1.2c0.6,0.1,1.2-0.3,1.3-0.9C396.7,168.8,396.3,168.2,395.7,168.2z"/>
									</g>
								</g>
								<g id="XMLID_1339_">
									<g id="XMLID_1433_">
										<g id="XMLID_1465_">
											<path id="XMLID_1466_" class="st24" d="M366.5,165.8c0,0-1-1.3-1.4-0.8c-0.3,0.5-0.5,1.5-2.2,2.4
												c-0.6,0.3-0.1,0.6-0.1,0.6S367.6,166.9,366.5,165.8z"/>
										</g>
										<g id="XMLID_1451_">
											<path id="XMLID_1464_" class="st24" d="M366.5,169.9c0,0,0.8-1.6,0.2-1.6c-0.6,0-1.5,0.5-3.1-0.5
												c-0.5-0.3-0.6,0.2-0.6,0.2S366,171.4,366.5,169.9z"/>
										</g>
										<g id="XMLID_1449_">
											<path id="XMLID_1450_" class="st24" d="M362.8,172.3c0,0,1.8-0.3,1.6-0.8c-0.2-0.5-1.1-1-0.9-2.8
												c0.1-0.6-0.4-0.3-0.4-0.3S361.2,172.7,362.8,172.3z"/>
										</g>
										<g id="XMLID_1447_">
											<path id="XMLID_1448_" class="st24" d="M359.1,170.5c0,0,1,1.3,1.4,0.8c0.3-0.5,0.5-1.5,2.2-2.4c0.6-0.3,0.1-0.6,0.1-0.6
												S358.1,169.5,359.1,170.5z"/>
										</g>
										<g id="XMLID_1445_">
											<path id="XMLID_1446_" class="st24" d="M359.2,166.4c0,0-0.8,1.6-0.2,1.6c0.6,0,1.5-0.5,3.1,0.5c0.5,0.3,0.6-0.2,0.6-0.2
												S359.7,164.9,359.2,166.4z"/>
										</g>
										<g id="XMLID_1434_">
											<path id="XMLID_1444_" class="st24" d="M362.9,164.1c0,0-1.8,0.3-1.6,0.8c0.2,0.5,1.1,1,0.9,2.8
												c-0.1,0.6,0.4,0.3,0.4,0.3S364.5,163.6,362.9,164.1z"/>
										</g>
									</g>
									<g id="XMLID_1399_">
										<path id="XMLID_1813_" class="st24" d="M364.1,168.3c-0.2,0.7-0.9,1.2-1.6,1.1s-1.2-0.7-1-1.4c0.2-0.7,0.9-1.2,1.6-1.1
											S364.3,167.6,364.1,168.3z"/>
									</g>
								</g>
							</g>
						</g>
					</g>
				</g>
				<g id="XMLID_1330_">
					
						<linearGradient id="XMLID_11_" gradientUnits="userSpaceOnUse" x1="-422.3194" y1="138.1602" x2="-422.3194" y2="133.5648" gradientTransform="matrix(0.9929 0.1149 -0.2205 0.9754 854.5574 89.1101)">
						<stop  offset="0" style="stop-color:#FFFFFF"/>
						<stop  offset="0.1617" style="stop-color:#EEEEEE"/>
						<stop  offset="0.4808" style="stop-color:#C3C3C3"/>
						<stop  offset="0.9231" style="stop-color:#7D7D7D"/>
						<stop  offset="1" style="stop-color:#707070"/>
					</linearGradient>
					<path id="XMLID_1334_" class="st25" d="M407.6,173.4c-0.3,1.2-1.5,2.1-2.8,2c-1.3-0.1-2.1-1.3-1.8-2.5c0.3-1.2,1.5-2.1,2.8-2
						C407,171,407.8,172.1,407.6,173.4z"/>
					<g id="XMLID_1331_">
						<path id="XMLID_1333_" class="st26" d="M406.8,173.3c-0.2,0.8-1,1.4-1.9,1.3s-1.4-0.8-1.2-1.7c0.2-0.8,1-1.4,1.9-1.3
							C406.5,171.7,407,172.5,406.8,173.3z"/>
						<path id="XMLID_1332_" class="st27" d="M405.9,173.2c-0.1,0.3-0.4,0.6-0.8,0.5c-0.3,0-0.6-0.3-0.5-0.7
							c0.1-0.3,0.4-0.6,0.8-0.5C405.8,172.5,406,172.8,405.9,173.2z"/>
					</g>
				</g>
				<g id="XMLID_1321_">
					<g id="XMLID_1323_">
						<polygon id="XMLID_1329_" class="st28" points="515.3,190.5 516.5,190.6 516.5,185.3 515.3,185.2 						"/>
						<polygon id="XMLID_1328_" class="st28" points="512.7,190.2 514.4,190.4 514.4,186.9 512.7,186.7 						"/>
						<polygon id="XMLID_1327_" class="st28" points="510.3,189.9 511.9,190.1 511.9,185.5 510.3,185.3 						"/>
						<polygon id="XMLID_1326_" class="st28" points="507.7,189.6 509.4,189.8 509.4,187.9 507.7,187.7 						"/>
						<polygon id="XMLID_1325_" class="st28" points="503.1,189.1 504.8,189.3 504.8,186.7 503.1,186.5 						"/>
						<polygon id="XMLID_1324_" class="st28" points="505.6,189.4 506.8,189.5 506.8,186.2 505.6,186.1 						"/>
					</g>
					<path id="XMLID_1322_" class="st28" d="M499.6,188c0,2.2,4.6,5.4,10.2,6.1c5.7,0.6,10.2-1.6,10.2-3.9c0,0,0-0.1,0-0.2
						c-0.2,2.1-4.7,3.4-10.2,2.8c-5.5-0.6-10-2.8-10.2-5C499.6,187.8,499.6,187.9,499.6,188z"/>
				</g>
			</g>
		</g>
		<g id="XMLID_1316_">
			<polygon id="XMLID_1318_" class="st0" points="216.4,165.4 216.4,166.8 240.1,169.3 533.8,200.9 533.8,199.5 239.8,167.9 			"/>
			<polygon id="XMLID_1317_" class="st20" points="216.4,166.2 216.4,167.5 240.1,170.1 533.8,201.6 533.8,200.3 239.8,168.7 			"/>
		</g>
		<g id="XMLID_1310_">
			
				<linearGradient id="XMLID_12_" gradientUnits="userSpaceOnUse" x1="-179.2867" y1="200.2419" x2="-180.9297" y2="184.6092" gradientTransform="matrix(-1 0 0 1 198.0804 0)">
				<stop  offset="0" style="stop-color:#8A8A8A"/>
				<stop  offset="1" style="stop-color:#DEDFE0"/>
			</linearGradient>
			<path id="XMLID_1315_" class="st29" d="M216.4,167.5l5.5,14.1c0.4,1.1,1.4,1.8,2.5,1.9l305.2,32.7l4.2,0.4l6.2,0.7l-6.2-15.7
				L216.4,167.5z"/>
			<g id="XMLID_1311_">
				<polygon id="XMLID_1313_" class="st30" points="227.7,171 229,174.5 230.6,178.8 231.9,182.5 528.1,214.3 526.6,210.5 
					524.8,206 523.3,202.3 				"/>
				
					<linearGradient id="XMLID_13_" gradientUnits="userSpaceOnUse" x1="-190.6493" y1="160.0849" x2="-190.6493" y2="155.8248" gradientTransform="matrix(-0.97 -0.1037 0 1 192.8553 14.7052)">
					<stop  offset="0" style="stop-color:#EBEBEB"/>
					<stop  offset="0.7052" style="stop-color:#757575"/>
					<stop  offset="1" style="stop-color:#424242"/>
				</linearGradient>
				<polygon id="XMLID_1312_" class="st31" points="229,174.5 230.6,178.8 526.6,210.5 524.8,206 				"/>
			</g>
		</g>
		<g id="XMLID_741_">
			<g id="XMLID_745_">
				<g id="XMLID_1307_">
					<polygon id="XMLID_1309_" class="st0" points="537.8,170.9 554.5,157.7 554.5,156.5 537.8,169.8 					"/>
					<polygon id="XMLID_1308_" class="st32" points="537.8,171.6 554.5,158.3 554.5,157.1 537.8,170.4 					"/>
				</g>
				<g id="XMLID_1301_">
					<polygon id="XMLID_1306_" class="st0" points="537.8,177.6 554.5,164.4 554.5,163.2 537.8,176.4 					"/>
					<polygon id="XMLID_1305_" class="st32" points="537.8,178.2 554.5,165 554.5,163.8 537.8,177 					"/>
				</g>
				<g id="XMLID_754_">
					<polygon id="XMLID_756_" class="st0" points="537.8,184.3 554.5,171 554.5,169.8 537.8,183.1 					"/>
					<polygon id="XMLID_755_" class="st32" points="537.8,184.9 554.5,171.6 554.5,170.5 537.8,183.7 					"/>
				</g>
				<g id="XMLID_746_">
					<polygon id="XMLID_751_" class="st0" points="537.8,190.9 554.5,177.7 554.5,176.5 537.8,189.7 					"/>
					<polygon id="XMLID_749_" class="st32" points="537.8,191.5 554.5,178.3 554.5,177.1 537.8,190.4 					"/>
				</g>
			</g>
			<g id="XMLID_742_">
				<path id="XMLID_744_" class="st32" d="M544.1,205c0,2.8,1.6,4.4,3.6,3.6c2-0.9,3.6-3.9,3.6-6.7s-1.6-4.4-3.6-3.6
					C545.7,199.2,544.1,202.2,544.1,205z"/>
				
					<linearGradient id="XMLID_14_" gradientUnits="userSpaceOnUse" x1="-351.3251" y1="206.9642" x2="-347.9014" y2="199.9445" gradientTransform="matrix(-1 0 0 1 198.0804 0)">
					<stop  offset="0" style="stop-color:#DEDFE0"/>
					<stop  offset="1" style="stop-color:#8A8A8A"/>
				</linearGradient>
				<path id="XMLID_743_" class="st33" d="M546.6,208.1c0.2,0,0.5-0.1,0.8-0.2c1.7-0.7,3.1-3.5,3.1-6.1c0-1.8-0.7-3.1-1.8-3.1
					c-0.2,0-0.5,0.1-0.8,0.2c-1.7,0.7-3.1,3.5-3.1,6.1C544.8,206.8,545.6,208.1,546.6,208.1z"/>
			</g>
		</g>
	</g>
</g>
</svg>
