<?xml version="1.0" encoding="utf-8"?>
<!-- Generator: Adobe Illustrator 21.0.2, SVG Export Plug-In . SVG Version: 6.00 Build 0)  -->
<svg version="1.1" id="Layer_1" xmlns="http://www.w3.org/2000/svg" xmlns:xlink="http://www.w3.org/1999/xlink" x="0px" y="0px"
	 viewBox="0 0 792 1224" style="enable-background:new 0 0 792 1224;" xml:space="preserve">
<style type="text/css">
	.st0{fill:url(#XMLID_11_);}
	.st1{fill:url(#XMLID_12_);}
	.st2{fill:#F1F2F2;}
	.st3{fill:url(#XMLID_13_);}
	.st4{fill:#A7A9AC;}
	.st5{fill:url(#XMLID_14_);}
	.st6{fill:#808285;}
	.st7{fill:#D3513F;}
	.st8{fill:#58595B;}
	.st9{fill:#EA8375;}
	.st10{fill:#5C362D;}
	.st11{fill:#5BCBF5;}
	.st12{fill:#C9EBFC;}
	.st13{fill:#2C7088;}
	.st14{fill:#666769;}
	.st15{fill:#696B6D;}
	.st16{fill:#6D6E71;}
	.st17{fill:#707274;}
	.st18{fill:#737577;}
	.st19{fill:#77787B;}
	.st20{fill:#7A7C7E;}
	.st21{fill:#7D7F81;}
	.st22{fill:#838588;}
	.st23{fill:#8A8C8E;}
	.st24{fill:#909294;}
	.st25{fill:#96989B;}
	.st26{fill:#9C9FA1;}
	.st27{fill:#A3A5A8;}
	.st28{fill:#AAACAE;}
	.st29{fill:#B0B2B5;}
	.st30{fill:#B7B9BB;}
	.st31{fill:#BEC0C2;}
	.st32{fill:#636466;}
	.st33{fill:#696A6C;}
	.st34{fill:#6C6D70;}
	.st35{fill:#6F7073;}
	.st36{fill:#717375;}
	.st37{fill:#747678;}
	.st38{fill:#77797B;}
	.st39{fill:#7A7B7E;}
	.st40{fill:#7D7E81;}
	.st41{fill:#8A8C8F;}
	.st42{fill:#919396;}
	.st43{fill:#989B9D;}
	.st44{fill:#A0A2A4;}
	.st45{fill:#AFB1B3;}
	.st46{fill:#B6B8BB;}
	.st47{fill:#6E6F72;}
	.st48{fill:#727476;}
	.st49{fill:#76787B;}
	.st50{fill:#7B7C7F;}
	.st51{fill:#7F8183;}
	.st52{fill:#87898C;}
	.st53{fill:#8B8D90;}
	.st54{fill:#959799;}
	.st55{fill:#9A9C9E;}
	.st56{fill:#9FA1A3;}
	.st57{fill:#A4A6A8;}
	.st58{fill:#A9ABAD;}
	.st59{fill:#AEB0B3;}
	.st60{fill:#B3B5B8;}
	.st61{fill:#B9BBBD;}
	.st62{fill:url(#XMLID_15_);}
	.st63{fill:url(#XMLID_16_);}
	.st64{fill:url(#XMLID_17_);}
	.st65{fill:url(#XMLID_18_);}
	.st66{fill:url(#XMLID_19_);}
	.st67{fill:url(#XMLID_20_);}
	.st68{fill:url(#XMLID_21_);}
	.st69{fill:url(#XMLID_22_);}
	.st70{fill:url(#XMLID_23_);}
	.st71{fill:url(#XMLID_24_);}
	.st72{fill:url(#XMLID_25_);}
	.st73{fill:url(#XMLID_26_);}
	.st74{fill:url(#XMLID_27_);}
	.st75{fill:url(#XMLID_28_);}
	.st76{fill:url(#XMLID_29_);}
	.st77{fill:url(#XMLID_30_);}
	.st78{fill:url(#XMLID_31_);}
	.st79{fill:url(#XMLID_32_);}
	.st80{fill:url(#XMLID_33_);}
	.st81{fill:url(#XMLID_34_);}
	.st82{fill:url(#XMLID_35_);}
	.st83{fill:url(#XMLID_36_);}
	.st84{fill:url(#XMLID_37_);}
	.st85{fill:url(#XMLID_38_);}
	.st86{fill:url(#XMLID_39_);}
	.st87{fill:url(#XMLID_40_);}
	.st88{fill:url(#XMLID_41_);}
	.st89{fill:url(#XMLID_42_);}
	.st90{fill:url(#XMLID_43_);}
	.st91{fill:url(#XMLID_44_);}
	.st92{fill:url(#XMLID_45_);}
	.st93{fill:url(#XMLID_46_);}
	.st94{fill:url(#XMLID_47_);}
	.st95{fill:url(#XMLID_48_);}
	.st96{fill:url(#XMLID_49_);}
	.st97{fill:url(#XMLID_50_);}
	.st98{fill:url(#XMLID_51_);}
	.st99{fill:url(#XMLID_52_);}
	.st100{fill:url(#XMLID_53_);}
	.st101{fill:url(#XMLID_54_);}
	.st102{fill:#FFFFFF;}
	.st103{fill:url(#XMLID_55_);}
	.st104{fill:url(#XMLID_56_);}
	.st105{fill:url(#XMLID_57_);}
	.st106{fill:url(#XMLID_58_);}
	.st107{fill:url(#XMLID_59_);}
</style>
<g id="fan">
	<g id="XMLID_1286_">
		<linearGradient id="XMLID_11_" gradientUnits="userSpaceOnUse" x1="185.5297" y1="577.4737" x2="262.3979" y2="577.4737">
			<stop  offset="0" style="stop-color:#ABABAB"/>
			<stop  offset="1.434223e-02" style="stop-color:#B1B1B1"/>
			<stop  offset="9.590098e-02" style="stop-color:#CDCDCD"/>
			<stop  offset="0.1835" style="stop-color:#E3E3E3"/>
			<stop  offset="0.279" style="stop-color:#F3F3F3"/>
			<stop  offset="0.3879" style="stop-color:#FCFCFC"/>
			<stop  offset="0.5404" style="stop-color:#FFFFFF"/>
			<stop  offset="0.7163" style="stop-color:#FDFDFD"/>
			<stop  offset="0.7949" style="stop-color:#F6F6F6"/>
			<stop  offset="0.8541" style="stop-color:#E9E9E9"/>
			<stop  offset="0.9036" style="stop-color:#D7D7D7"/>
			<stop  offset="0.947" style="stop-color:#BFBFBF"/>
			<stop  offset="0.9856" style="stop-color:#A3A3A3"/>
			<stop  offset="1" style="stop-color:#969696"/>
		</linearGradient>
		<polygon id="XMLID_1289_" class="st0" points="262.4,578.1 189.8,579.7 185.5,576.9 255.5,575.3 		"/>
		<linearGradient id="XMLID_12_" gradientUnits="userSpaceOnUse" x1="189.8124" y1="580.764" x2="262.3979" y2="580.764">
			<stop  offset="0" style="stop-color:#A3A3A3"/>
			<stop  offset="5.652054e-02" style="stop-color:#A7A7A7"/>
			<stop  offset="0.2994" style="stop-color:#B2B4B5"/>
			<stop  offset="0.5108" style="stop-color:#B6B8BA"/>
			<stop  offset="0.7035" style="stop-color:#AEAEAF"/>
			<stop  offset="0.9091" style="stop-color:#ABABAB"/>
			<stop  offset="0.9286" style="stop-color:#9C9C9C"/>
			<stop  offset="0.9739" style="stop-color:#808080"/>
			<stop  offset="1" style="stop-color:#757575"/>
		</linearGradient>
		<polygon id="XMLID_1591_" class="st1" points="262.4,581.8 189.8,583.5 189.8,579.7 262.4,578.1 		"/>
		<polygon id="XMLID_1592_" class="st2" points="262.4,578.8 189.8,580.4 189.8,579.7 262.4,578.1 		"/>
		<linearGradient id="XMLID_13_" gradientUnits="userSpaceOnUse" x1="185.5297" y1="580.17" x2="189.8124" y2="580.17">
			<stop  offset="0" style="stop-color:#707070"/>
			<stop  offset="1" style="stop-color:#757575"/>
		</linearGradient>
		<polygon id="XMLID_1593_" class="st3" points="185.5,580.7 189.8,583.5 189.8,579.7 185.5,576.9 		"/>
		<polygon id="XMLID_1285_" class="st2" points="185.5,577.6 189.8,580.4 189.8,579.7 185.5,576.9 		"/>
	</g>
	<g id="XMLID_1819_">
		<g id="XMLID_1584_">
			<path id="XMLID_1600_" class="st4" d="M213.6,578.6l-2.1-1.5c0,0,9.4-31.5,6.3-75.9l2.9,6.1c0,0,0.3,30.4,0.4,32.1
				c0.1,1.6-0.5,16.6-0.6,18.6c0,2-0.2,8.6-0.8,10.4c-0.6,1.8-0.5,2.3-1.2,4.3C217.7,574.6,213.6,578.6,213.6,578.6z"/>
			<g id="XMLID_1585_">
				<g id="XMLID_1589_">
					<linearGradient id="XMLID_14_" gradientUnits="userSpaceOnUse" x1="224.9127" y1="495.1737" x2="224.9127" y2="578.676">
						<stop  offset="0" style="stop-color:#707070"/>
						<stop  offset="3.821034e-02" style="stop-color:#8A8A8A"/>
						<stop  offset="8.809858e-02" style="stop-color:#A5A5A5"/>
						<stop  offset="0.1455" style="stop-color:#BBBBBB"/>
						<stop  offset="0.2124" style="stop-color:#CCCCCC"/>
						<stop  offset="0.2952" style="stop-color:#D8D8D8"/>
						<stop  offset="0.4114" style="stop-color:#DFDFDF"/>
						<stop  offset="0.734" style="stop-color:#E0E0E0"/>
						<stop  offset="0.8008" style="stop-color:#DADADA"/>
						<stop  offset="0.8951" style="stop-color:#C7C7C7"/>
						<stop  offset="1" style="stop-color:#ABABAB"/>
					</linearGradient>
					<path id="XMLID_1590_" class="st5" d="M236.3,578.7h-22.8c0,0,0,0,0-0.1c0.1-0.3,0.3-1.4,0.8-3.1c0.2-1,0.5-2.3,0.8-3.7
						c0.1-0.7,0.3-1.5,0.4-2.3c0.1-0.4,0.2-0.8,0.2-1.2c0.1-0.4,0.1-0.9,0.2-1.3c0.1-0.9,0.3-1.8,0.5-2.8c0.1-1,0.3-1.9,0.5-3
						c0.1-1,0.3-2.1,0.4-3.1c0.1-1.1,0.2-2.2,0.4-3.3c0.1-1.1,0.2-2.2,0.3-3.4c0.1-1.2,0.2-2.3,0.3-3.5c0.1-1.2,0.2-9.9,0.2-11.1
						c0.1-1.2,0.1-2.4,0.2-3.6c0-1.2,0.1-2.4,0.1-3.6c0-0.6,0-1.2,0-1.8c0-0.6,0-1.2,0-1.8c0-2.4,0-4.7,0-6.9
						c-0.1-2.2-0.1-4.4-0.2-6.5c-0.1-2.1-0.2-4-0.3-5.8c-0.1-1.8-0.3-3.4-0.4-4.9c-0.1-1.5-0.3-2.7-0.4-3.8
						c-0.2-1.6-0.3-2.6-0.4-3.1c0,0,0-0.1,0-0.1c0-0.1,0-0.1,0-0.1h15.6c0,0,0,0,0,0.1c-0.1,0.4-0.2,1.5-0.4,3.1
						c-0.1,1-0.2,2.3-0.4,3.8c-0.1,1.5-0.3,3.1-0.4,4.9c-0.1,1.8-0.3,3.7-0.3,5.8c-0.1,2.1-0.2,4.2-0.2,6.5c0,2.2-0.1,4.6,0,6.9
						c0,0.6,0,1.2,0,1.8c0,0.6,0,1.2,0,1.8c0,1.2,0.1,2.4,0.1,3.6c0,1.2,0.1,2.4,0.2,3.6c0.1,1.2,0.1,9.9,0.2,11.1
						c0.1,1.2,0.2,2.3,0.3,3.5c0.1,1.1,0.2,2.3,0.3,3.4c0.1,1.1,0.3,2.2,0.4,3.3c0.1,1.1,0.3,2.1,0.4,3.1c0.2,1,0.3,2,0.5,3
						c0.1,1,0.3,1.9,0.5,2.8c0.1,0.4,0.2,0.9,0.2,1.3c0.1,0.4,0.2,0.8,0.2,1.2c0.2,0.8,0.3,1.6,0.4,2.3c0.3,1.4,0.6,2.7,0.8,3.7
						C235.9,577.2,236.2,578.3,236.3,578.7C236.3,578.6,236.3,578.7,236.3,578.7z"/>
				</g>
				<g id="XMLID_1586_">
					<path id="XMLID_1588_" class="st6" d="M236.3,578.6c-0.1-0.3-0.4-1.4-0.8-3.1c-0.2-1-0.5-2.3-0.9-3.7c-0.1-0.7-0.3-1.5-0.5-2.3
						c-0.1-0.4-0.2-0.8-0.3-1.2c-0.1-0.4-0.2-0.9-0.2-1.3c-0.2-0.9-0.3-1.8-0.5-2.8c-0.2-1-0.3-1.9-0.5-3c-0.1-1-0.3-2.1-0.4-3.1
						c-0.1-1.1-0.3-2.2-0.4-3.3c-0.1-1.1-0.2-2.3-0.3-3.4c-0.1-1.2-0.2-2.3-0.3-3.5c-0.1-1.2-0.2-9.9-0.2-11.1
						c-0.1-1.2-0.1-2.4-0.2-3.6c0-1.2-0.1-2.4-0.1-3.6c0-0.6,0-1.2,0-1.8c0-0.6,0-1.2,0-1.8c0-2.4,0-4.7,0.1-6.9
						c0.1-2.2,0.1-4.4,0.3-6.5c0.1-2.1,0.2-4,0.4-5.8c0.3-3.6,0.6-6.5,0.9-8.6c0.2-1.7,0.4-2.8,0.4-3.1c-0.1,0.4-0.2,1.5-0.4,3.1
						c-0.1,1-0.2,2.3-0.4,3.8c-0.1,1.5-0.3,3.1-0.4,4.9c-0.1,1.8-0.3,3.7-0.3,5.8c-0.1,2.1-0.2,4.2-0.2,6.5c0,2.2-0.1,4.6,0,6.9
						c0,0.6,0,1.2,0,1.8c0,0.6,0,1.2,0,1.8c0,1.2,0.1,2.4,0.1,3.6c0,1.2,0.1,2.4,0.2,3.6c0.1,1.2,0.1,9.9,0.2,11.1
						c0.1,1.2,0.2,2.3,0.3,3.5c0.1,1.1,0.2,2.3,0.3,3.4c0.1,1.1,0.3,2.2,0.4,3.3c0.1,1.1,0.3,2.1,0.4,3.1c0.2,1,0.3,2,0.5,3
						c0.1,1,0.3,1.9,0.5,2.8c0.1,0.4,0.2,0.9,0.2,1.3c0.1,0.4,0.2,0.8,0.2,1.2c0.2,0.8,0.3,1.6,0.4,2.3c0.3,1.4,0.6,2.7,0.8,3.7
						C235.9,577.2,236.2,578.3,236.3,578.6z"/>
					<path id="XMLID_1587_" class="st6" d="M219.2,526.2c0,0.6,0,1.2,0,1.8c0,0.6,0,1.2,0,1.8c0,1.2-0.1,2.4-0.1,3.6
						c0,1.2-0.1,2.4-0.2,3.6c-0.1,1.2-0.2,9.9-0.2,11.1c-0.1,1.2-0.2,2.3-0.3,3.5c-0.1,1.1-0.2,2.3-0.3,3.4
						c-0.1,1.1-0.3,2.2-0.4,3.3c-0.1,1.1-0.3,2.1-0.4,3.1c-0.2,1-0.3,2-0.5,3c-0.1,1-0.3,1.9-0.5,2.8c-0.1,0.4-0.2,0.9-0.2,1.3
						c-0.1,0.4-0.2,0.8-0.3,1.2c-0.2,0.8-0.3,1.6-0.5,2.3c-0.3,1.4-0.6,2.7-0.9,3.7c-0.4,1.7-0.7,2.8-0.8,3.1
						c0.1-0.3,0.3-1.4,0.8-3.1c0.2-1,0.5-2.3,0.8-3.7c0.1-0.7,0.3-1.5,0.4-2.3c0.1-0.4,0.2-0.8,0.2-1.2c0.1-0.4,0.1-0.9,0.2-1.3
						c0.1-0.9,0.3-1.8,0.5-2.8c0.1-1,0.3-1.9,0.5-3c0.1-1,0.3-2.1,0.4-3.1c0.1-1.1,0.2-2.2,0.4-3.3c0.1-1.1,0.2-2.2,0.3-3.4
						c0.1-1.2,0.2-2.3,0.3-3.5c0.1-1.2,0.2-9.9,0.2-11.1c0.1-1.2,0.1-2.4,0.2-3.6c0-1.2,0.1-2.4,0.1-3.6c0-0.6,0-1.2,0-1.8
						c0-0.6,0-1.2,0-1.8c0-2.4,0-4.7,0-6.9c-0.1-2.2-0.1-4.4-0.2-6.5c-0.1-2.1-0.2-4-0.3-5.8c-0.1-1.8-0.3-3.4-0.4-4.9
						c-0.1-1.5-0.3-2.7-0.4-3.8c-0.2-1.7-0.3-2.8-0.4-3.1c0.1,0.4,0.2,1.4,0.4,3.1c0.3,2.1,0.6,5,0.9,8.6c0.1,1.8,0.3,3.7,0.4,5.8
						c0.1,2.1,0.2,4.2,0.3,6.5C219.1,521.5,219.2,523.9,219.2,526.2z"/>
				</g>
			</g>
		</g>
		<g id="XMLID_1778_">
			<g id="XMLID_1772_">
				<g id="XMLID_1372_">
					<g id="XMLID_1374_">
						<path id="XMLID_1380_" class="st7" d="M228.6,571.4c0,0.6-0.5,1.1-1.1,1.1h-6c-0.6,0-1.1-0.5-1.1-1.1v-1.9
							c0-0.6,0.5-1.1,1.1-1.1h6c0.6,0,1.1,0.5,1.1,1.1V571.4z"/>
						<g id="XMLID_1375_">
							<path id="XMLID_1376_" class="st8" d="M227.5,572.6h-6c-0.7,0-1.2-0.6-1.2-1.2v-1.9c0-0.7,0.6-1.2,1.2-1.2h6
								c0.7,0,1.2,0.6,1.2,1.2v1.9C228.8,572.1,228.2,572.6,227.5,572.6z M221.6,568.7c-0.5,0-0.9,0.4-0.9,0.9v1.9
								c0,0.5,0.4,0.9,0.9,0.9h6c0.5,0,0.9-0.4,0.9-0.9v-1.9c0-0.5-0.4-0.9-0.9-0.9H221.6z"/>
						</g>
					</g>
				</g>
				<path id="XMLID_1708_" class="st9" d="M226.8,571.1h-4.5c-0.5,0-1-0.4-1-1v-0.1c0-0.5,0.4-1,1-1h4.5c0.5,0,1,0.4,1,1v0.1
					C227.8,570.7,227.4,571.1,226.8,571.1z"/>
				<g id="XMLID_1601_">
					<g id="XMLID_1604_">
						<path id="XMLID_1607_" class="st10" d="M224.6,571.8c-0.6,0-1.1-0.5-1.1-1.1c0-0.4,0.2-0.8,0.6-1c0.1,0,0.2,0,0.3,0.1
							c0,0.1,0,0.2-0.1,0.3c-0.2,0.1-0.4,0.4-0.4,0.7c0,0.4,0.3,0.8,0.8,0.8s0.8-0.3,0.8-0.8c0-0.3-0.2-0.5-0.4-0.7
							c-0.1,0-0.1-0.2-0.1-0.3c0-0.1,0.2-0.1,0.3-0.1c0.4,0.2,0.6,0.6,0.6,1C225.7,571.3,225.2,571.8,224.6,571.8z"/>
					</g>
					<g id="XMLID_1602_">
						<path id="XMLID_1603_" class="st10" d="M224.6,570.3c-0.1,0-0.2-0.1-0.2-0.2v-0.7c0-0.1,0.1-0.2,0.2-0.2
							c0.1,0,0.2,0.1,0.2,0.2v0.7C224.7,570.3,224.7,570.3,224.6,570.3z"/>
					</g>
				</g>
			</g>
			<g id="XMLID_1300_">
				<g id="XMLID_1341_">
					<g id="XMLID_1350_">
						<path id="XMLID_1364_" class="st11" d="M228.6,557.9c0,0.6-0.5,1.1-1.1,1.1h-6c-0.6,0-1.1-0.5-1.1-1.1V556
							c0-0.6,0.5-1.1,1.1-1.1h6c0.6,0,1.1,0.5,1.1,1.1V557.9z"/>
						<g id="XMLID_1354_">
							<path id="XMLID_1361_" class="st8" d="M227.5,559.1h-6c-0.7,0-1.2-0.6-1.2-1.2V556c0-0.7,0.6-1.2,1.2-1.2h6
								c0.7,0,1.2,0.6,1.2,1.2v1.9C228.8,558.6,228.2,559.1,227.5,559.1z M221.6,555.2c-0.5,0-0.9,0.4-0.9,0.9v1.9
								c0,0.5,0.4,0.9,0.9,0.9h6c0.5,0,0.9-0.4,0.9-0.9V556c0-0.5-0.4-0.9-0.9-0.9H221.6z"/>
						</g>
					</g>
				</g>
				<path id="XMLID_1709_" class="st12" d="M226.8,557.7h-4.5c-0.5,0-1-0.4-1-1v-0.1c0-0.5,0.4-1,1-1h4.5c0.5,0,1,0.4,1,1v0.1
					C227.8,557.3,227.4,557.7,226.8,557.7z"/>
				<polygon id="XMLID_1707_" class="st13" points="224.6,556 225,556.8 225.4,557.6 224.6,557.6 223.7,557.6 224.1,556.8 				"/>
			</g>
			<g id="XMLID_1767_">
				<g id="XMLID_1365_">
					<g id="XMLID_1366_">
						<path id="XMLID_1371_" class="st11" d="M228.6,564.7c0,0.6-0.5,1.1-1.1,1.1h-6c-0.6,0-1.1-0.5-1.1-1.1v-1.9
							c0-0.6,0.5-1.1,1.1-1.1h6c0.6,0,1.1,0.5,1.1,1.1V564.7z"/>
						<g id="XMLID_1367_">
							<path id="XMLID_1368_" class="st8" d="M227.5,565.9h-6c-0.7,0-1.2-0.6-1.2-1.2v-1.9c0-0.7,0.6-1.2,1.2-1.2h6
								c0.7,0,1.2,0.6,1.2,1.2v1.9C228.8,565.3,228.2,565.9,227.5,565.9z M221.6,561.9c-0.5,0-0.9,0.4-0.9,0.9v1.9
								c0,0.5,0.4,0.9,0.9,0.9h6c0.5,0,0.9-0.4,0.9-0.9v-1.9c0-0.5-0.4-0.9-0.9-0.9H221.6z"/>
						</g>
					</g>
				</g>
				<path id="XMLID_1281_" class="st12" d="M226.8,564.4h-4.5c-0.5,0-1-0.4-1-1v-0.1c0-0.5,0.4-1,1-1h4.5c0.5,0,1,0.4,1,1v0.1
					C227.8,564,227.4,564.4,226.8,564.4z"/>
				<polygon id="XMLID_1711_" class="st13" points="224.6,564.3 224.1,563.5 223.7,562.8 224.6,562.8 225.4,562.8 225,563.5 				"/>
			</g>
		</g>
	</g>
	<g id="XMLID_1583_">
		<g id="XMLID_1783_">
			<g id="XMLID_1581_">
				<g id="XMLID_1612_">
					<path id="XMLID_9_" class="st14" d="M223,495.5c0,0-3.9,1.4-8.3,4.9c-4.4,3.5-9.2,9-11,17.2c0,0-4.7,9.2-14.1-1.4
						c-2.4-2.6-5-6.7-6.8-10.9c-1.8-4.3-2.8-8.8-1.8-12.6c0.9-3.7,3.8-6.6,9.6-7.6c2.9-0.5,6.6-0.5,11.1,0.1
						c4.5,0.6,10,1.9,16.4,3.9L223,495.5z"/>
					<path class="st15" d="M181.7,493.3c1-3.6,3.7-6.5,9.5-7.4c0.2,0,0.4-0.1,0.7-0.1c2.8-0.3,6.2-0.3,10.3,0.2
						c4.4,0.5,9.7,1.7,15.9,3.6l2.4,3.1c-0.1,0.1,2,3,1.9,3.1c-0.2,0.2-4,1.6-8.1,4.9c-2.2,1.8-4.5,4.1-6.4,7
						c-1.9,2.8-3.4,6-4.3,9.9c0,0.1-1.4,2.6-4,3.3c-2.3,0.6-5.5-0.2-9.6-4.8c-2.4-2.6-4.9-6.5-6.6-10.7
						C181.6,501.3,180.7,496.9,181.7,493.3z"/>
					<path class="st16" d="M182.4,494c1-3.5,3.7-6.4,9.5-7.2c0.2,0,0.4-0.1,0.7-0.1c2.8-0.3,6.1-0.4,10.1,0.1
						c4.3,0.5,9.3,1.5,15.3,3.3l2.3,3c-0.2,0.1,1.5,2.8,1.2,2.9c-0.5,0.3-4,1.8-7.9,5c-2.1,1.8-4.3,4-6.2,6.9
						c-1.8,2.7-3.3,5.9-4.1,9.8c-0.1,0.1-1.4,2.5-3.9,3.1c-2.2,0.5-5.3-0.3-9.1-4.7c-2.4-2.6-4.8-6.4-6.5-10.4
						C182.2,501.7,181.4,497.5,182.4,494z"/>
					<path class="st17" d="M183.1,494.6c1.1-3.5,3.7-6.2,9.4-6.9c0.2,0,0.4,0,0.7-0.1c2.8-0.3,6.1-0.4,10,0c4.1,0.4,9,1.3,14.7,3.1
						l2.3,3c-0.3,0.2,1,2.5,0.6,2.8c-0.7,0.5-4.1,2-7.7,5.1c-2.1,1.8-4.2,4-6,6.8c-1.7,2.7-3.2,5.8-4,9.6c-0.1,0.2-1.4,2.4-3.7,3
						c-2.1,0.4-5.1-0.5-8.7-4.6c-2.4-2.6-4.8-6.3-6.3-10.2C182.7,502.2,182,498.1,183.1,494.6z"/>
					<path class="st18" d="M183.8,495.3c1.1-3.4,3.6-6.1,9.3-6.7c0.2,0,0.4,0,0.6-0.1c2.8-0.2,6-0.4,9.8-0.1c4,0.3,8.7,1.1,14.2,2.8
						l2.3,3c-0.4,0.2,0.5,2.3,0,2.6c-0.9,0.6-4.1,2.2-7.5,5.1c-2,1.8-4,4-5.8,6.7c-1.7,2.6-3.1,5.7-3.9,9.4
						c-0.2,0.2-1.4,2.3-3.6,2.8c-2,0.4-4.9-0.7-8.3-4.5c-2.4-2.6-4.7-6.2-6.1-10S182.7,498.6,183.8,495.3z"/>
					<path class="st19" d="M184.5,495.9c1.1-3.3,3.6-6,9.2-6.5c0.2,0,0.4,0,0.6,0c2.8-0.2,5.9-0.4,9.7-0.2c3.9,0.2,8.4,0.9,13.6,2.5
						l2.2,2.9c-0.5,0.3,0,2.1-0.6,2.5c-1.1,0.8-4.2,2.4-7.3,5.2c-2,1.8-3.9,4-5.6,6.6c-1.6,2.6-3,5.6-3.8,9.2
						c-0.2,0.3-1.4,2.3-3.5,2.6c-2,0.3-4.7-0.8-7.9-4.4c-2.4-2.6-4.6-6.1-6-9.7C183.8,503,183.3,499.2,184.5,495.9z"/>
					<path class="st20" d="M185.2,496.6c1.2-3.2,3.6-5.9,9.1-6.3c0.2,0,0.4,0,0.6,0c2.8-0.1,5.9-0.4,9.5-0.3c3.7,0.1,8,0.7,13.1,2.2
						l2.2,2.9c-0.6,0.3-0.5,1.8-1.2,2.3c-1.4,0.9-4.2,2.6-7.1,5.3c-1.9,1.8-3.7,4-5.3,6.6c-1.6,2.6-2.9,5.5-3.6,9
						c-0.2,0.4-1.4,2.2-3.4,2.4c-1.9,0.2-4.5-1-7.5-4.4c-2.4-2.6-4.5-6-5.8-9.5S184,499.8,185.2,496.6z"/>
					<path class="st21" d="M185.9,497.2c1.2-3.1,3.5-5.7,9.1-6.1c0.2,0,0.4,0,0.6,0c2.7-0.1,5.8-0.4,9.3-0.4c3.6,0.1,7.7,0.5,12.5,2
						l2.2,2.9c-0.7,0.4-1,1.6-1.9,2.2c-1.6,1.1-4.3,2.8-6.9,5.3c-1.8,1.8-3.6,3.9-5.1,6.5c-1.5,2.5-2.7,5.4-3.5,8.8
						c-0.3,0.4-1.4,2.1-3.2,2.3c-1.8,0.1-4.3-1.1-7.1-4.3c-2.4-2.7-4.5-5.9-5.7-9.2C185,503.8,184.7,500.3,185.9,497.2z"/>
					<path class="st6" d="M186.6,497.9c1.3-3,3.5-5.6,9-5.9c0.2,0,0.4,0,0.6,0c2.7,0,5.7-0.4,9.2-0.5c3.5,0,7.4,0.3,12,1.7l2.1,2.8
						c-0.8,0.4-1.5,1.3-2.5,2c-1.8,1.2-4.3,3-6.7,5.4c-1.8,1.8-3.5,3.9-4.9,6.4c-1.4,2.5-2.6,5.3-3.4,8.6c-0.3,0.5-1.4,2-3.1,2.1
						c-1.7,0.1-4.1-1.3-6.7-4.2c-2.4-2.7-4.4-5.8-5.5-9C185.5,504.2,185.3,500.9,186.6,497.9z"/>
					<path id="XMLID_8_" class="st22" d="M198.8,520.5c-1.7,0-3.9-1.5-6.3-4.1c-2.4-2.7-4.3-5.7-5.4-8.7c-1-3.1-1.2-6.2,0.1-9.1
						c1.4-3,3.6-5.7,9.5-5.7c2.7,0,5.7-0.4,9-0.5c3.3-0.1,7.1,0.1,11.4,1.4l2.1,2.8c-2.6,1.4-6.3,3.7-9.6,7.3
						c-1.7,1.8-3.3,3.9-4.7,6.3c-1.4,2.4-2.5,5.2-3.3,8.4C201.4,519.2,200.3,520.5,198.8,520.5z"/>
					<path class="st23" d="M187.9,499.2c1.2-2.7,3.4-5.3,9.1-5.3c1,0,1.9-0.1,3-0.1c4.6-0.3,9.6-1.1,16.4,0.9
						c-0.1,0,1.8,2.6,1.7,2.6c-5,2.9-13.8,9.3-16.7,21.2c-0.3,0.5-1.3,1.7-2.7,1.7c-1.5,0-3.5-1.3-5.6-3.7
						C188.4,511.1,185.4,504.6,187.9,499.2z"/>
					<path class="st24" d="M188.5,499.8c1.1-2.4,3.3-4.9,8.7-5c0.9,0,1.8-0.1,2.8-0.1c4.4-0.3,9-1.1,15.5,0.8
						c-0.1,0.1,1.4,2.4,1.3,2.5c-4.9,2.9-13,9.2-15.8,20.4c-0.3,0.4-1.1,1.5-2.3,1.4c-1.3,0-3.1-1.2-5-3.3
						C189,511.1,186.2,504.8,188.5,499.8z"/>
					<path class="st25" d="M189,500.4c0.9-2.1,3.2-4.5,8.2-4.7c0.9,0,1.7-0.1,2.7-0.1c4.3-0.2,8.4-1.2,14.7,0.7
						c-0.2,0.1,1.1,2.2,0.9,2.3c-4.7,3-12.1,9-14.8,19.5c-0.3,0.3-1,1.2-2,1.2c-1.2,0-2.7-1.1-4.3-2.9
						C189.6,511.1,186.9,505.1,189,500.4z"/>
					<path class="st26" d="M189.6,501c0.8-1.8,3-4.1,7.8-4.4c0.8,0,1.6-0.1,2.5-0.1c4.1-0.2,7.7-1.2,13.8,0.5
						c-0.2,0.2,0.7,1.9,0.5,2.2c-4.5,3.1-11.3,8.9-13.9,18.7c-0.2,0.3-0.8,1-1.7,1c-1-0.1-2.3-0.9-3.6-2.5
						C190.3,511.1,187.7,505.3,189.6,501z"/>
					<path class="st27" d="M190.2,501.6c0.6-1.4,2.9-3.8,7.4-4.1c0.7-0.1,1.5-0.1,2.3-0.1c4-0.2,7.1-1.2,12.9,0.4
						c-0.3,0.2,0.4,1.7,0.1,2c-4.3,3.2-10.5,8.8-13,17.8c-0.2,0.2-0.7,0.8-1.4,0.8c-0.8-0.1-1.9-0.8-3-2
						C190.9,511.1,188.5,505.5,190.2,501.6z"/>
					<path class="st28" d="M190.8,502.2c0.5-1.1,2.7-3.4,6.9-3.7c0.7-0.1,1.4-0.1,2.2-0.1c3.8-0.1,6.5-1.2,12,0.3
						c-0.3,0.3,0,1.5-0.3,1.9c-4.2,3.3-9.6,8.7-12.1,17c-0.2,0.1-0.5,0.6-1.1,0.5c-0.6-0.1-1.5-0.7-2.3-1.6
						C191.5,511.1,189.2,505.7,190.8,502.2z"/>
					<path class="st29" d="M191.4,502.8c0.4-0.8,2.6-3,6.5-3.4c0.6-0.1,1.3-0.1,2-0.1c3.6-0.1,5.8-1.2,11.2,0.2
						c-0.4,0.3-0.3,1.3-0.7,1.7c-4,3.4-8.8,8.5-11.2,16.2c-0.1,0.1-0.4,0.3-0.8,0.3c-0.5-0.1-1.1-0.5-1.7-1.2
						C192.1,511.1,190,506,191.4,502.8z"/>
					<path class="st30" d="M192,503.4c0.2-0.5,2.4-2.6,6.1-3.1c0.6-0.1,1.2-0.1,1.9-0.1c3.5,0,5.2-1.2,10.3,0
						c-0.4,0.4-0.7,1.1-1.1,1.5c-3.8,3.5-8,8.4-10.3,15.3c-0.1,0-0.3,0.1-0.5,0.1c-0.3-0.1-0.6-0.4-1-0.8
						C192.7,511.1,190.7,506.2,192,503.4z"/>
					<path id="XMLID_7_" class="st31" d="M198.5,516.8c-0.2-0.2-0.3-0.4-0.5-0.6c-4.6-5.2-6.4-9.8-5.4-12.3c0.1-0.2,3.1-2.9,7.3-2.9
						c3.3,0,4.6-1.2,9.4-0.1C205.2,504.7,201,509.8,198.5,516.8z"/>
				</g>
			</g>
			<g id="XMLID_1657_">
				<g id="XMLID_1658_">
					<path id="XMLID_6_" class="st32" d="M218.9,483.1c0,0,0.7-4.1-0.1-9.6c-0.8-5.5-3.2-12.5-9.4-18.1c0,0-1.4-2.2-1.1-4.7
						c0.3-2.5,2.4-5.4,9.3-6.9c3.5-0.7,8.2-1,12.8-0.4c4.6,0.6,9,2,11.8,4.7s3.9,6.6,1.8,12.1c-1,2.8-2.9,5.9-5.7,9.6
						s-6.6,7.7-11.5,12.3L218.9,483.1z"/>
					<path class="st14" d="M208.4,450.6c0.4-2.2,2.2-4.7,7.6-6.1c0.5-0.1,1-0.3,1.5-0.4c3.4-0.7,8-1,12.4-0.4
						c4.5,0.6,8.7,2,11.4,4.7c2.7,2.7,3.8,6.5,1.6,12c-1.1,2.7-2.8,5.8-5.4,9.3c-2.7,3.6-6.3,7.6-11.1,12.1l-4,0.5
						c0-0.1-3.4,0.2-3.4,0.1c0-0.3,0.6-4.2-0.2-9.5c-0.1-0.3-0.1-0.6-0.2-1c-1-5.3-3.5-11.5-9.2-16.8c0,0-0.1-0.2-0.2-0.4
						C208.8,454.1,208.1,452.4,208.4,450.6z"/>
					<path class="st33" d="M208.5,450.5c0.4-2.1,2.3-4.4,7.5-5.8c0.5-0.1,1-0.2,1.5-0.3c3.4-0.7,7.8-0.9,12-0.4
						c4.3,0.6,8.4,2,10.9,4.7c2.6,2.7,3.7,6.4,1.4,11.9c-1.1,2.6-2.7,5.7-5.2,9.1c-2.5,3.5-5.9,7.5-10.6,11.8l-4,0.5
						c0-0.2-3-0.1-3-0.3c0-0.5,0.5-4.3-0.3-9.3c-0.1-0.3-0.1-0.6-0.2-0.9c-1.1-5.2-3.6-11.3-9.1-16.4c0,0-0.1-0.2-0.2-0.4
						C208.8,453.9,208.1,452.2,208.5,450.5z"/>
					<path class="st34" d="M208.6,450.4c0.5-2,2.4-4.2,7.4-5.5c0.5-0.1,0.9-0.2,1.5-0.3c3.3-0.7,7.6-0.9,11.6-0.3
						c4.1,0.6,8,2,10.5,4.7c2.5,2.7,3.6,6.4,1.3,11.8c-1.1,2.6-2.7,5.5-5,8.8c-2.4,3.5-5.6,7.3-10.1,11.5l-3.9,0.5
						c0-0.3-2.5-0.3-2.6-0.7c0-0.8,0.4-4.4-0.5-9.1c-0.1-0.3-0.1-0.6-0.2-0.9c-1.1-5.1-3.6-11-9-16.1c0,0-0.1-0.2-0.3-0.4
						C208.9,453.7,208.2,452,208.6,450.4z"/>
					<path class="st35" d="M208.7,450.2c0.5-1.9,2.6-3.9,7.2-5.1c0.5-0.1,0.9-0.2,1.4-0.3c3.3-0.6,7.4-0.8,11.2-0.3
						c4,0.6,7.7,2,10.1,4.7c2.4,2.7,3.5,6.3,1.1,11.6c-1.1,2.5-2.6,5.4-4.7,8.6c-2.3,3.4-5.3,7.2-9.7,11.3l-3.8,0.5
						c0-0.4-2.1-0.6-2.1-1.1c-0.1-1,0.2-4.5-0.6-8.9c-0.1-0.3-0.1-0.6-0.2-0.9c-1.2-5-3.7-10.8-8.9-15.7c0,0-0.1-0.2-0.3-0.4
						C208.9,453.5,208.2,451.9,208.7,450.2z"/>
					<path class="st36" d="M208.8,450.1c0.6-1.8,2.7-3.7,7.1-4.8c0.4-0.1,0.9-0.2,1.4-0.3c3.3-0.6,7.1-0.8,10.8-0.2
						c3.8,0.6,7.3,2,9.6,4.7c2.3,2.7,3.4,6.2,0.9,11.5c-1.2,2.4-2.5,5.2-4.5,8.3c-2.2,3.4-5,7.1-9.2,11l-3.8,0.5
						c0-0.5-1.7-0.9-1.7-1.6c-0.1-1.3,0.1-4.6-0.8-8.7c-0.1-0.3-0.1-0.6-0.2-0.9c-1.2-4.9-3.7-10.5-8.9-15.4
						c-0.1-0.1-0.2-0.2-0.3-0.3C208.9,453.3,208.2,451.7,208.8,450.1z"/>
					<path class="st37" d="M208.9,450c0.7-1.7,2.8-3.4,7-4.4c0.4-0.1,0.9-0.2,1.3-0.3c3.2-0.6,6.9-0.8,10.3-0.2c3.7,0.6,7,2,9.2,4.7
						c2.2,2.7,3.4,6.1,0.7,11.4c-1.2,2.4-2.5,5.1-4.3,8.1c-2,3.3-4.7,7-8.7,10.7l-3.7,0.5c0-0.6-1.3-1.2-1.3-2
						c-0.1-1.5,0-4.8-0.9-8.5c-0.1-0.3-0.1-0.6-0.2-0.9c-1.3-4.9-3.8-10.3-8.8-15c-0.1-0.1-0.2-0.2-0.3-0.3
						C209,453.1,208.3,451.5,208.9,450z"/>
					<path class="st38" d="M209,449.9c0.7-1.6,2.9-3.2,6.9-4.1c0.4-0.1,0.8-0.2,1.3-0.3c3.2-0.6,6.7-0.7,9.9-0.2
						c3.5,0.6,6.7,2.1,8.7,4.7c2.1,2.7,3.3,6.1,0.5,11.3c-1.2,2.3-2.4,4.9-4.1,7.8c-1.9,3.3-4.4,6.8-8.2,10.5l-3.6,0.5
						c0-0.7-0.8-1.5-0.9-2.4c-0.1-1.8-0.2-4.9-1-8.3c-0.1-0.3-0.1-0.6-0.2-0.9c-1.3-4.8-3.9-10.1-8.7-14.6c-0.1-0.1-0.2-0.2-0.3-0.3
						C209,453,208.3,451.3,209,449.9z"/>
					<path class="st39" d="M209.1,449.8c0.8-1.5,3.1-2.9,6.8-3.7c0.4-0.1,0.8-0.2,1.2-0.2c3.1-0.6,6.5-0.7,9.5-0.1
						c3.3,0.6,6.3,2.1,8.3,4.7c2,2.7,3.2,6,0.4,11.2c-1.2,2.2-2.3,4.8-3.8,7.6c-1.8,3.2-4.1,6.7-7.8,10.2l-3.5,0.5
						c0-0.8-0.4-1.7-0.5-2.8c-0.1-2.1-0.3-5-1.2-8.2c-0.1-0.3-0.1-0.6-0.2-0.8c-1.4-4.7-3.9-9.8-8.6-14.3c-0.1-0.1-0.2-0.2-0.3-0.3
						C209,452.8,208.4,451.2,209.1,449.8z"/>
					<path id="XMLID_5_" class="st40" d="M209.2,449.7c0.8-1.5,3.2-2.7,6.7-3.4c3.5-0.7,7.1-0.9,10.3-0.3s6,2.1,7.9,4.7
						c2,2.7,3.1,5.9,0.2,11.1c-2.7,4.7-4.3,11.1-10.9,17.3l-3.5,0.5c0.1-2.9-0.1-7.3-1.6-12c-1.4-4.7-4.1-9.8-8.8-14.2
						C209.1,452.6,208.4,451,209.2,449.7z"/>
					<path class="st22" d="M209.5,449.8c0.2-0.3,0.5-0.7,0.9-1c1.2-0.9,3.1-1.6,5.5-2.1c6.7-1.4,13.7-0.7,17.2,4.1
						c1.8,2.4,2.9,5.7,0,10.7c-2.6,4.5-4,10.4-10.2,16.3c0-0.1-3.1,0.3-3.1,0.2c0-5.7-1.1-16.5-10-24.9
						C209.5,452.5,208.9,451.1,209.5,449.8z"/>
					<path class="st41" d="M209.9,450c0.2-0.3,0.5-0.6,0.9-0.9c1.2-0.8,3-1.5,5.2-1.9c6.5-1.3,13.1-0.6,16.3,3.8
						c1.6,2.1,2.7,5.5-0.1,10.4c-2.5,4.3-3.6,9.6-9.5,15.3c0-0.1-2.8,0.1-2.8,0c-0.1-5.6-1.4-15.6-9.6-23.5
						C210,452.5,209.4,451.1,209.9,450z"/>
					<path class="st42" d="M210.3,450.2c0.2-0.3,0.5-0.5,0.9-0.8c1.2-0.8,2.9-1.3,4.9-1.7c6.3-1.2,12.5-0.5,15.4,3.6
						c1.3,1.8,2.4,5.3-0.2,10c-2.4,4.1-3.3,8.9-8.8,14.3c0-0.2-2.4-0.1-2.4-0.3c-0.3-5.4-1.6-14.7-9.2-22.1
						C210.5,452.5,209.9,451.2,210.3,450.2z"/>
					<path class="st43" d="M210.7,450.3c0.2-0.2,0.5-0.5,0.9-0.7c1.2-0.7,2.8-1.2,4.7-1.5c6.1-1.1,11.8-0.4,14.5,3.3
						c1.1,1.6,2.2,5.1-0.4,9.6c-2.2,3.9-2.9,8.2-8.1,13.2c-0.1-0.3-2-0.3-2.1-0.5c-0.4-5.3-1.9-13.8-8.8-20.8
						C211,452.4,210.4,451.3,210.7,450.3z"/>
					<path class="st44" d="M211,450.5c0.2-0.2,0.5-0.4,0.8-0.6c1.2-0.6,2.7-1,4.4-1.3c5.9-1,11.2-0.2,13.6,3c0.9,1.3,2,4.9-0.5,9.3
						c-2.1,3.7-2.6,7.5-7.4,12.2c-0.1-0.3-1.7-0.5-1.8-0.8c-0.6-5.1-2.2-12.9-8.4-19.4C211.5,452.4,210.9,451.4,211,450.5z"/>
					<path class="st4" d="M211.4,450.7c0.2-0.2,0.5-0.3,0.8-0.5c1.2-0.5,2.6-0.9,4.1-1.1c5.7-0.9,10.6-0.1,12.7,2.8
						c0.7,1,1.7,4.7-0.7,8.9c-2,3.5-2.2,6.8-6.7,11.2c-0.1-0.4-1.3-0.6-1.4-1c-0.7-5-2.4-12-7.9-18.1
						C211.9,452.3,211.5,451.5,211.4,450.7z"/>
					<path class="st45" d="M211.8,450.9c0.2-0.1,0.5-0.3,0.8-0.4c1.2-0.4,2.5-0.7,3.9-0.9c5.5-0.8,10,0,11.8,2.5
						c0.5,0.7,1.5,4.5-0.8,8.6c-1.9,3.3-1.9,6-6,10.2c-0.1-0.5-1-0.8-1.1-1.3c-0.8-4.8-2.7-11.2-7.5-16.7
						C212.4,452.3,212,451.5,211.8,450.9z"/>
					<path class="st46" d="M212.2,451c0.2-0.1,0.5-0.2,0.8-0.3c1.2-0.3,2.4-0.6,3.6-0.7c5.3-0.7,9.3,0.1,10.9,2.3
						c0.3,0.4,1.3,4.3-1,8.2c-1.8,3.1-1.5,5.3-5.3,9.2c-0.1-0.5-0.6-1-0.8-1.5c-1-4.6-2.9-10.3-7.1-15.3
						C212.9,452.3,212.5,451.6,212.2,451z"/>
					<path id="XMLID_4_" class="st31" d="M212.5,451.2c0.2-0.1,0.5-0.1,0.8-0.2c6.8-1.4,11.7-0.7,13.3,1.4c0.1,0.2,1,4.1-1.1,7.8
						c-1.6,2.9-1.2,4.6-4.6,8.2C219.8,463.1,217.4,456.9,212.5,451.2z"/>
				</g>
			</g>
			<g id="XMLID_1683_">
				<g id="XMLID_1684_">
					<path id="XMLID_3_" class="st15" d="M231.5,486c0,0,12.9,10.7,28.8,5.3c0,0,10.3-0.7,6,12.8c-4.2,13.5-25.2,41.8-37.9-10.7
						L231.5,486z"/>
					<path class="st47" d="M231.8,486.3c0.3,0.2,4.7,3.6,11.3,5.5c2.4,0.7,5.2,1.1,8.1,1.2c2.9,0,6-0.4,9.3-1.5
						c0.1,0,1.4-0.1,2.9,0.5c1.5,0.6,3,2,3.5,4.6c0.3,2,0,4.7-1.2,8.2c-1.7,5-5.8,11.9-10.9,15.6c-5.8,4.2-12.9,4.2-19.1-8.3
						c-2.2-4.4-3.1-10.5-6.2-17.7c-0.1-0.3,1.6-5.7,1.5-6.2L231.8,486.3z"/>
					<path class="st48" d="M232.1,486.6c0.6,0.3,4.9,3.6,11.3,5.4c2.4,0.7,5.2,1.1,8.1,1.1c2.9,0,6-0.4,9.2-1.5c0.1,0,1.6,0,2.9,0.7
						c1.4,0.7,2.8,2.2,3,5c0.2,2.2-0.3,4.9-1.6,8.3c-1.8,4.7-5.7,11-10.5,14.2c-5.5,3.7-12.1,3.6-17.9-8c-2.1-4.1-3.2-9.8-6.1-16.4
						c-0.3-0.7,1-5.8,0.7-6.7L232.1,486.6z"/>
					<path class="st49" d="M232.4,486.9c0.8,0.5,5.1,3.6,11.3,5.3c2.4,0.6,5.2,1.1,8.1,1.1c2.9,0,6-0.4,9.2-1.5c0.2,0,1.7,0,2.9,0.8
						c1.3,0.8,2.5,2.5,2.5,5.3c0,2.4-0.7,5.2-2.1,8.4c-1.9,4.3-5.5,10-10.1,12.8c-5.2,3.2-11.3,3.1-16.7-7.6c-2-3.9-3.2-9.1-6-15.1
						c-0.5-1,0.3-5.8,0-7.3L232.4,486.9z"/>
					<path class="st50" d="M232.8,487.2c1.1,0.7,5.3,3.6,11.3,5.1c2.4,0.6,5.1,1,8,1c2.9,0,5.9-0.4,9.1-1.5c0.3,0,1.8,0.1,3,0.9
						c1.2,0.9,2.2,2.8,2.1,5.7c-0.1,2.5-1,5.4-2.5,8.5c-1.9,4-5.4,9-9.8,11.5c-4.9,2.7-10.5,2.5-15.6-7.2c-1.9-3.6-3.2-8.4-5.8-13.8
						c-0.6-1.3-0.3-5.9-0.8-7.8L232.8,487.2z"/>
					<path class="st51" d="M233.1,487.5c1.4,0.8,5.5,3.6,11.3,5c2.4,0.6,5.1,1,8,1c2.9,0,5.9-0.5,9.1-1.5c0.4,0,1.9,0.1,3,1.1
						c1.2,1,1.9,3,1.6,6.1c-0.3,2.7-1.4,5.6-3,8.7c-2,3.7-5.3,8-9.4,10.1c-4.6,2.3-9.8,2-14.4-6.8c-1.8-3.4-3.2-7.6-5.7-12.6
						c-0.8-1.7-1-5.9-1.6-8.4L233.1,487.5z"/>
					<path class="st22" d="M233.4,487.8c1.7,1,5.8,3.5,11.3,4.9c2.4,0.6,5.1,1,8,0.9c2.8,0,5.9-0.5,9-1.5c0.4,0,2,0.1,3,1.2
						c1.1,1.1,1.6,3.3,1.1,6.4c-0.5,2.9-1.7,5.9-3.4,8.8c-2,3.4-5.1,7.1-9,8.7c-4.3,1.8-9,1.4-13.2-6.4c-1.7-3.1-3.2-6.9-5.5-11.3
						c-1-2-1.6-6-2.3-8.9L233.4,487.8z"/>
					<path class="st52" d="M233.7,488c2,1.2,6,3.5,11.3,4.8c2.4,0.6,5.1,0.9,7.9,0.9c2.8,0,5.8-0.5,9-1.5c0.5,0,2.1,0.2,3.1,1.3
						c1,1.2,1.3,3.6,0.6,6.8c-0.7,3.1-2,6.1-3.9,8.9c-2.1,3.1-5,6.1-8.7,7.3c-3.9,1.3-8.2,0.9-12.1-6c-1.6-2.9-3.3-6.2-5.4-10
						c-1.2-2.3-2.2-6-3.1-9.4L233.7,488z"/>
					<path class="st53" d="M234,488.3c2.2,1.4,6.2,3.5,11.2,4.6c2.4,0.5,5.1,0.9,7.9,0.8c2.8-0.1,5.8-0.5,8.9-1.5
						c0.6,0,2.3,0.2,3.1,1.4c0.9,1.3,1,3.8,0.2,7.1c-0.9,3.2-2.3,6.4-4.3,9c-2.1,2.8-4.9,5.1-8.3,5.9c-3.6,0.8-7.5,0.4-10.9-5.7
						c-1.5-2.6-3.3-5.4-5.2-8.7c-1.5-2.6-2.9-6.1-3.8-10L234,488.3z"/>
					<path id="XMLID_2_" class="st24" d="M265.4,494c0.9,1.4,0.7,4.1-0.3,7.5c-1.1,3.4-2.6,6.6-4.8,9.1c-2.1,2.5-4.7,4.2-7.9,4.6
						c-3.3,0.4-6.7-0.2-9.7-5.3c-1.4-2.3-3.3-4.6-5.1-7.5c-1.8-2.8-3.5-6.1-4.6-10.5l1.3-3.2c2.5,1.5,6.4,3.5,11.2,4.5
						c2.4,0.5,5,0.8,7.8,0.8s5.8-0.5,8.9-1.5C262.9,492.5,264.6,492.7,265.4,494z"/>
					<path class="st54" d="M235.3,489.3c2.5,1.4,6.3,3.2,11,4.2c2.3,0.5,4.8,0.8,7.5,0.7c0.1,0,0.2,0,0.2,0c2.6-0.1,5.4-0.5,8.3-1.4
						c0.3,0,0.8,0.1,1.3,0.4c0.5,0.2,1.1,0.6,1.4,1.2c0.7,1.4,0.6,3.9-0.4,7c-1,3.2-2.5,6.2-4.4,8.5c-2,2.4-4.5,4.1-7.5,4.4
						c-3,0.3-6.4-0.3-9.4-5.2c-1.3-2.2-3.1-4.4-4.8-7c-1.7-2.6-3.3-5.7-4.3-9.8C234.2,492.3,235.3,489.4,235.3,489.3z"/>
					<path class="st55" d="M236.3,490c2.6,1.4,6.2,3,10.7,3.9c2.2,0.4,4.6,0.7,7.2,0.6c0.1,0,0.2,0,0.2,0c2.5-0.1,5.2-0.5,7.9-1.3
						c0.2,0.1,0.7,0.2,1.1,0.4c0.5,0.2,0.9,0.6,1.2,1.2c0.6,1.4,0.4,3.7-0.6,6.6c-1,2.9-2.3,5.7-4.1,7.8c-1.9,2.3-4.3,3.9-7.1,4.2
						c-2.6,0.3-6.1-0.4-9-5.2c-1.3-2.1-2.9-4.1-4.5-6.5c-1.6-2.4-3-5.2-4-9C235.3,492.7,236.3,490.1,236.3,490z"/>
					<path class="st56" d="M237.3,490.7c2.6,1.3,6.2,2.8,10.4,3.6c2.1,0.4,4.4,0.6,6.8,0.6c0.1,0,0.2,0,0.2,0
						c2.4-0.1,4.9-0.5,7.5-1.2c0.2,0.1,0.6,0.2,0.9,0.4c0.4,0.3,0.8,0.6,1,1.2c0.4,1.4,0.2,3.5-0.7,6.1c-0.9,2.7-2.2,5.2-3.8,7.2
						c-1.9,2.3-4.1,3.8-6.6,4.1c-2.3,0.3-5.8-0.5-8.6-5.1c-1.2-2-2.8-3.8-4.2-6.1c-1.4-2.2-2.8-4.7-3.7-8.2
						C236.5,493.2,237.3,490.9,237.3,490.7z"/>
					<path class="st57" d="M238.3,491.4c2.6,1.2,6.1,2.6,10.2,3.3c2,0.4,4.2,0.5,6.5,0.5c0.1,0,0.1,0,0.2,0c2.3-0.1,4.7-0.4,7.2-1.1
						c0.2,0.1,0.5,0.2,0.8,0.5c0.3,0.3,0.6,0.6,0.8,1.1c0.3,1.4,0,3.4-0.8,5.7c-0.9,2.5-2.1,4.8-3.5,6.5c-1.8,2.2-3.9,3.6-6.2,3.9
						c-1.9,0.2-5.5-0.6-8.2-5.1c-1.2-1.9-2.6-3.6-3.9-5.6c-1.3-1.9-2.6-4.3-3.4-7.4C237.7,493.6,238.3,491.6,238.3,491.4z"/>
					<path class="st58" d="M239.3,492.1c2.6,1.1,6,2.4,9.9,3c1.9,0.3,4,0.5,6.2,0.4c0.1,0,0.1,0,0.2,0c2.2-0.1,4.4-0.4,6.8-1
						c0.1,0.1,0.3,0.3,0.6,0.5c0.2,0.3,0.4,0.6,0.5,1.1c0.1,1.3-0.2,3.2-0.9,5.2c-0.8,2.2-1.9,4.3-3.2,5.9c-1.7,2.1-3.7,3.5-5.8,3.7
						c-1.6,0.2-5.2-0.7-7.8-5c-1.1-1.8-2.4-3.3-3.7-5.2c-1.2-1.7-2.3-3.8-3.1-6.6C238.9,494,239.4,492.4,239.3,492.1z"/>
					<path class="st59" d="M240.3,492.8c2.6,1.1,5.9,2.2,9.6,2.7c1.8,0.3,3.8,0.4,5.8,0.3c0.1,0,0.1,0,0.2,0
						c2.1-0.1,4.2-0.4,6.4-0.9c0.1,0.2,0.2,0.3,0.4,0.6c0.1,0.3,0.3,0.6,0.3,1.1c0,1.3-0.3,3-1,4.8c-0.8,2-1.7,3.8-2.9,5.3
						c-1.6,2.1-3.4,3.3-5.4,3.6c-1.2,0.1-5-0.8-7.4-5c-1-1.7-2.2-3-3.4-4.7c-1.1-1.5-2.1-3.3-2.8-5.9
						C240,494.5,240.4,493.1,240.3,492.8z"/>
					<path class="st60" d="M241.3,493.5c2.6,1,5.8,1.9,9.4,2.4c1.7,0.2,3.6,0.3,5.5,0.2c0.1,0,0.1,0,0.2,0c2-0.1,4-0.4,6.1-0.8
						c0,0.2,0.1,0.4,0.2,0.6c0.1,0.3,0.1,0.6,0.1,1c-0.1,1.3-0.5,2.8-1.2,4.4c-0.7,1.8-1.6,3.4-2.6,4.6c-1.5,2-3.2,3.2-4.9,3.4
						c-0.9,0.1-4.7-0.9-7.1-4.9c-1-1.6-2.1-2.8-3.1-4.2c-0.9-1.3-1.8-2.8-2.5-5.1C241.2,494.9,241.4,493.9,241.3,493.5z"/>
					<path class="st61" d="M242.3,494.3c2.6,0.9,5.7,1.7,9.1,2.1c1.7,0.2,3.4,0.2,5.2,0.2c0.1,0,0.1,0,0.2,0
						c1.8-0.1,3.7-0.3,5.7-0.8c0,0.2,0,0.4,0,0.7c0,0.3-0.1,0.7-0.1,1c-0.3,1.3-0.7,2.6-1.3,3.9c-0.7,1.5-1.4,2.9-2.3,4
						c-1.5,1.9-3,3.1-4.5,3.2c-0.6,0.1-4.4-1-6.7-4.9c-0.9-1.5-1.9-2.5-2.8-3.8c-0.8-1.1-1.6-2.4-2.3-4.3
						C242.4,495.3,242.4,494.6,242.3,494.3z"/>
					<path id="XMLID_1_" class="st31" d="M262.4,496.2c-0.1,0.2-0.1,0.5-0.2,0.7c-0.5,1.6-1.1,3.1-1.7,4.4c-0.6,1.3-1.3,2.4-2,3.4
						c-1.4,1.9-2.8,2.9-4.1,3.1c-0.2,0-4.1-1.1-6.3-4.8c-0.8-1.4-1.7-2.2-2.5-3.3c-0.8-1.1-1.6-2.3-2.4-4.7c2.6,0.8,5.6,1.5,8.8,1.8
						c1.6,0.1,3.3,0.2,5,0.1S260.6,496.5,262.4,496.2z"/>
				</g>
			</g>
		</g>
		<g id="XMLID_1387_">
			<g id="XMLID_1406_">
				<g id="XMLID_1573_">
					<g id="XMLID_1576_">
						
							<linearGradient id="XMLID_15_" gradientUnits="userSpaceOnUse" x1="215.5258" y1="445.1479" x2="216.2487" y2="445.1479" gradientTransform="matrix(0.9877 0.1564 -0.1564 0.9877 84.7983 -9.6368)">
							<stop  offset="0" style="stop-color:#525252"/>
							<stop  offset="0.1062" style="stop-color:#606061"/>
							<stop  offset="1" style="stop-color:#D5D7D8"/>
						</linearGradient>
						<polygon id="XMLID_1577_" class="st62" points="224.9,488.2 224.2,488.1 231.9,439.4 232.6,439.5 						"/>
					</g>
				</g>
				<g id="XMLID_1570_">
					<g id="XMLID_1571_">
						
							<linearGradient id="XMLID_16_" gradientUnits="userSpaceOnUse" x1="204.1997" y1="427.802" x2="204.9229" y2="427.802" gradientTransform="matrix(0.9511 0.309 -0.309 0.9511 169.7997 -5.3892)">
							<stop  offset="0" style="stop-color:#525252"/>
							<stop  offset="0.1062" style="stop-color:#606061"/>
							<stop  offset="1" style="stop-color:#D5D7D8"/>
						</linearGradient>
						<polygon id="XMLID_1572_" class="st63" points="224.9,488.2 224.2,488 239.4,441.2 240.1,441.4 						"/>
					</g>
				</g>
				<g id="XMLID_1567_">
					<g id="XMLID_1568_">
						
							<linearGradient id="XMLID_17_" gradientUnits="userSpaceOnUse" x1="191.1613" y1="412.6718" x2="191.8835" y2="412.6718" gradientTransform="matrix(0.891 0.454 -0.454 0.891 252.4444 11.54)">
							<stop  offset="0" style="stop-color:#525252"/>
							<stop  offset="0.1062" style="stop-color:#606061"/>
							<stop  offset="1" style="stop-color:#D5D7D8"/>
						</linearGradient>
						<polygon id="XMLID_1569_" class="st64" points="224.9,488.3 224.2,488 246.6,444.1 247.2,444.4 						"/>
					</g>
				</g>
				<g id="XMLID_1563_">
					<g id="XMLID_1565_">
						
							<linearGradient id="XMLID_18_" gradientUnits="userSpaceOnUse" x1="175.4106" y1="399.838" x2="176.1335" y2="399.838" gradientTransform="matrix(0.809 0.5878 -0.5878 0.809 331.8583 41.4135)">
							<stop  offset="0" style="stop-color:#525252"/>
							<stop  offset="0.1062" style="stop-color:#606061"/>
							<stop  offset="1" style="stop-color:#D5D7D8"/>
						</linearGradient>
						<polygon id="XMLID_1566_" class="st65" points="224.8,488.3 224.3,487.9 253.2,448.1 253.8,448.5 						"/>
					</g>
				</g>
				<g id="XMLID_1536_">
					<g id="XMLID_1537_">
						
							<linearGradient id="XMLID_19_" gradientUnits="userSpaceOnUse" x1="157.6058" y1="389.9084" x2="158.3279" y2="389.9084" gradientTransform="matrix(0.7071 0.7071 -0.7071 0.7071 405.9778 83.3088)">
							<stop  offset="0" style="stop-color:#525252"/>
							<stop  offset="0.1062" style="stop-color:#606061"/>
							<stop  offset="1" style="stop-color:#D5D7D8"/>
						</linearGradient>
						<polygon id="XMLID_1538_" class="st66" points="224.8,488.4 224.3,487.9 259.1,453 259.6,453.6 						"/>
					</g>
				</g>
				<g id="XMLID_1533_">
					<g id="XMLID_1534_">
						
							<linearGradient id="XMLID_20_" gradientUnits="userSpaceOnUse" x1="138.3602" y1="382.7941" x2="139.0829" y2="382.7941" gradientTransform="matrix(0.5878 0.809 -0.809 0.5878 472.6222 136.4181)">
							<stop  offset="0" style="stop-color:#525252"/>
							<stop  offset="0.1062" style="stop-color:#606061"/>
							<stop  offset="1" style="stop-color:#D5D7D8"/>
						</linearGradient>
						<polygon id="XMLID_1535_" class="st67" points="224.8,488.4 224.3,487.8 264.2,458.9 264.6,459.5 						"/>
					</g>
				</g>
				<g id="XMLID_1530_">
					<g id="XMLID_1531_">
						
							<linearGradient id="XMLID_21_" gradientUnits="userSpaceOnUse" x1="118.4805" y1="378.4974" x2="119.2026" y2="378.4974" gradientTransform="matrix(0.454 0.891 -0.891 0.454 529.7886 199.22)">
							<stop  offset="0" style="stop-color:#525252"/>
							<stop  offset="0.1062" style="stop-color:#606061"/>
							<stop  offset="1" style="stop-color:#D5D7D8"/>
						</linearGradient>
						<polygon id="XMLID_1532_" class="st68" points="224.7,488.4 224.4,487.8 268.3,465.4 268.6,466.1 						"/>
					</g>
				</g>
				<g id="XMLID_1527_">
					<g id="XMLID_1528_">
						
							<linearGradient id="XMLID_22_" gradientUnits="userSpaceOnUse" x1="98.1654" y1="376.8593" x2="98.8884" y2="376.8593" gradientTransform="matrix(0.309 0.9511 -0.9511 0.309 575.9667 270.3579)">
							<stop  offset="0" style="stop-color:#525252"/>
							<stop  offset="0.1062" style="stop-color:#606061"/>
							<stop  offset="1" style="stop-color:#D5D7D8"/>
						</linearGradient>
						<polygon id="XMLID_1529_" class="st69" points="224.7,488.5 224.4,487.8 271.3,472.6 271.5,473.2 						"/>
					</g>
				</g>
				<g id="XMLID_1524_">
					<g id="XMLID_1525_">
						
							<linearGradient id="XMLID_23_" gradientUnits="userSpaceOnUse" x1="78.199" y1="379.2292" x2="78.9228" y2="379.2292" gradientTransform="matrix(0.1564 0.9877 -0.9877 0.1564 611.1606 347.3683)">
							<stop  offset="0" style="stop-color:#525252"/>
							<stop  offset="0.1062" style="stop-color:#606061"/>
							<stop  offset="1" style="stop-color:#D5D7D8"/>
						</linearGradient>
						<polygon id="XMLID_1526_" class="st70" points="224.6,488.5 224.5,487.8 273.2,480.1 273.3,480.8 						"/>
					</g>
				</g>
				<g id="XMLID_1521_">
					<g id="XMLID_1522_">
						
							<linearGradient id="XMLID_24_" gradientUnits="userSpaceOnUse" x1="58.3007" y1="384.882" x2="59.0226" y2="384.882" gradientTransform="matrix(0 1 -1 0 634.068 429.4658)">
							<stop  offset="0" style="stop-color:#525252"/>
							<stop  offset="0.1062" style="stop-color:#606061"/>
							<stop  offset="1" style="stop-color:#D5D7D8"/>
						</linearGradient>
						<rect id="XMLID_1523_" x="224.6" y="487.8" class="st71" width="49.3" height="0.7"/>
					</g>
				</g>
				<g id="XMLID_1518_">
					<g id="XMLID_1519_">
						
							<linearGradient id="XMLID_25_" gradientUnits="userSpaceOnUse" x1="39.3784" y1="393.4459" x2="40.1019" y2="393.4459" gradientTransform="matrix(-0.1564 0.9877 -0.9877 -0.1564 643.7048 514.264)">
							<stop  offset="0" style="stop-color:#525252"/>
							<stop  offset="0.1062" style="stop-color:#606061"/>
							<stop  offset="1" style="stop-color:#D5D7D8"/>
						</linearGradient>
						<polygon id="XMLID_1520_" class="st72" points="273.2,496.2 224.5,488.5 224.6,487.8 273.3,495.5 						"/>
					</g>
				</g>
				<g id="XMLID_1515_">
					<g id="XMLID_1516_">
						
							<linearGradient id="XMLID_26_" gradientUnits="userSpaceOnUse" x1="22.1386" y1="404.2939" x2="22.8616" y2="404.2939" gradientTransform="matrix(-0.309 0.9511 -0.9511 -0.309 639.4572 599.2655)">
							<stop  offset="0" style="stop-color:#525252"/>
							<stop  offset="0.1062" style="stop-color:#606061"/>
							<stop  offset="1" style="stop-color:#D5D7D8"/>
						</linearGradient>
						<polygon id="XMLID_1517_" class="st73" points="271.3,503.7 224.4,488.5 224.7,487.8 271.5,503 						"/>
					</g>
				</g>
				<g id="XMLID_1512_">
					<g id="XMLID_1513_">
						
							<linearGradient id="XMLID_27_" gradientUnits="userSpaceOnUse" x1="7.6575" y1="417.9417" x2="8.3797" y2="417.9417" gradientTransform="matrix(-0.454 0.891 -0.891 -0.454 622.528 681.9102)">
							<stop  offset="0" style="stop-color:#525252"/>
							<stop  offset="0.1062" style="stop-color:#606061"/>
							<stop  offset="1" style="stop-color:#D5D7D8"/>
						</linearGradient>
						<polygon id="XMLID_1514_" class="st74" points="268.3,510.8 224.4,488.4 224.7,487.8 268.6,510.2 						"/>
					</g>
				</g>
				<g id="XMLID_1509_">
					<g id="XMLID_1510_">
						
							<linearGradient id="XMLID_28_" gradientUnits="userSpaceOnUse" x1="-5.01" y1="433.751" x2="-4.287" y2="433.751" gradientTransform="matrix(-0.5878 0.809 -0.809 -0.5878 592.6545 761.324)">
							<stop  offset="0" style="stop-color:#525252"/>
							<stop  offset="0.1062" style="stop-color:#606061"/>
							<stop  offset="1" style="stop-color:#D5D7D8"/>
						</linearGradient>
						<polygon id="XMLID_1511_" class="st75" points="264.2,517.4 224.3,488.4 224.8,487.8 264.6,516.8 						"/>
					</g>
				</g>
				<g id="XMLID_1506_">
					<g id="XMLID_1507_">
						
							<linearGradient id="XMLID_29_" gradientUnits="userSpaceOnUse" x1="-15.2903" y1="451.6245" x2="-14.5681" y2="451.6245" gradientTransform="matrix(-0.7071 0.7071 -0.7071 -0.7071 550.7592 835.4436)">
							<stop  offset="0" style="stop-color:#525252"/>
							<stop  offset="0.1062" style="stop-color:#606061"/>
							<stop  offset="1" style="stop-color:#D5D7D8"/>
						</linearGradient>
						<polygon id="XMLID_1508_" class="st76" points="259.1,523.2 224.3,488.4 224.8,487.9 259.6,522.7 						"/>
					</g>
				</g>
				<g id="XMLID_1503_">
					<g id="XMLID_1504_">
						
							<linearGradient id="XMLID_30_" gradientUnits="userSpaceOnUse" x1="-22.7541" y1="470.7936" x2="-22.0314" y2="470.7936" gradientTransform="matrix(-0.809 0.5878 -0.5878 -0.809 497.6499 902.088)">
							<stop  offset="0" style="stop-color:#525252"/>
							<stop  offset="0.1062" style="stop-color:#606061"/>
							<stop  offset="1" style="stop-color:#D5D7D8"/>
						</linearGradient>
						<polygon id="XMLID_1505_" class="st77" points="253.2,528.2 224.3,488.3 224.8,487.9 253.8,527.8 						"/>
					</g>
				</g>
				<g id="XMLID_1500_">
					<g id="XMLID_1501_">
						
							<linearGradient id="XMLID_31_" gradientUnits="userSpaceOnUse" x1="-26.8823" y1="490.6183" x2="-26.1603" y2="490.6183" gradientTransform="matrix(-0.891 0.454 -0.454 -0.891 434.8481 959.2544)">
							<stop  offset="0" style="stop-color:#525252"/>
							<stop  offset="0.1062" style="stop-color:#606061"/>
							<stop  offset="1" style="stop-color:#D5D7D8"/>
						</linearGradient>
						<polygon id="XMLID_1502_" class="st78" points="246.6,532.2 224.2,488.3 224.9,488 247.2,531.9 						"/>
					</g>
				</g>
				<g id="XMLID_1497_">
					<g id="XMLID_1498_">
						
							<linearGradient id="XMLID_32_" gradientUnits="userSpaceOnUse" x1="-27.8582" y1="510.3397" x2="-27.1349" y2="510.3397" gradientTransform="matrix(-0.9511 0.309 -0.309 -0.9511 363.7101 1005.4324)">
							<stop  offset="0" style="stop-color:#525252"/>
							<stop  offset="0.1062" style="stop-color:#606061"/>
							<stop  offset="1" style="stop-color:#D5D7D8"/>
						</linearGradient>
						<polygon id="XMLID_1499_" class="st79" points="239.4,535.1 224.2,488.2 224.9,488 240.1,534.9 						"/>
					</g>
				</g>
				<g id="XMLID_1494_">
					<g id="XMLID_1495_">
						
							<linearGradient id="XMLID_33_" gradientUnits="userSpaceOnUse" x1="-25.3936" y1="530.7858" x2="-24.6706" y2="530.7858" gradientTransform="matrix(-0.9877 0.1564 -0.1564 -0.9877 286.6997 1040.6263)">
							<stop  offset="0" style="stop-color:#525252"/>
							<stop  offset="0.1062" style="stop-color:#606061"/>
							<stop  offset="1" style="stop-color:#D5D7D8"/>
						</linearGradient>
						<polygon id="XMLID_1496_" class="st80" points="231.9,536.8 224.2,488.2 224.9,488.1 232.6,536.7 						"/>
					</g>
				</g>
				<g id="XMLID_1491_">
					<g id="XMLID_1492_">
						
							<linearGradient id="XMLID_34_" gradientUnits="userSpaceOnUse" x1="-20.3145" y1="550.7764" x2="-19.5932" y2="550.7764" gradientTransform="matrix(-1 0 0 -1 204.6022 1063.5338)">
							<stop  offset="0" style="stop-color:#525252"/>
							<stop  offset="0.1062" style="stop-color:#606061"/>
							<stop  offset="1" style="stop-color:#D5D7D8"/>
						</linearGradient>
						<rect id="XMLID_1493_" x="224.2" y="488.1" class="st81" width="0.7" height="49.3"/>
					</g>
				</g>
				<g id="XMLID_1488_">
					<g id="XMLID_1489_">
						
							<linearGradient id="XMLID_35_" gradientUnits="userSpaceOnUse" x1="-12.3233" y1="569.5931" x2="-11.6004" y2="569.5931" gradientTransform="matrix(-0.9877 -0.1564 0.1564 -0.9877 119.804 1073.1705)">
							<stop  offset="0" style="stop-color:#525252"/>
							<stop  offset="0.1062" style="stop-color:#606061"/>
							<stop  offset="1" style="stop-color:#D5D7D8"/>
						</linearGradient>
						<polygon id="XMLID_1490_" class="st82" points="217.2,536.8 216.5,536.7 224.2,488.1 224.9,488.2 						"/>
					</g>
				</g>
				<g id="XMLID_1485_">
					<g id="XMLID_1486_">
						
							<linearGradient id="XMLID_36_" gradientUnits="userSpaceOnUse" x1="-1.3696" y1="586.3552" x2="-0.6463" y2="586.3552" gradientTransform="matrix(-0.9511 -0.309 0.309 -0.9511 34.8025 1068.9229)">
							<stop  offset="0" style="stop-color:#525252"/>
							<stop  offset="0.1062" style="stop-color:#606061"/>
							<stop  offset="1" style="stop-color:#D5D7D8"/>
						</linearGradient>
						<polygon id="XMLID_1487_" class="st83" points="209.7,535.1 209,534.9 224.2,488 224.9,488.2 						"/>
					</g>
				</g>
				<g id="XMLID_1482_">
					<g id="XMLID_1483_">
						
							<linearGradient id="XMLID_37_" gradientUnits="userSpaceOnUse" x1="12.9273" y1="601.4456" x2="13.6494" y2="601.4456" gradientTransform="matrix(-0.891 -0.454 0.454 -0.891 -47.8422 1051.9938)">
							<stop  offset="0" style="stop-color:#525252"/>
							<stop  offset="0.1062" style="stop-color:#606061"/>
							<stop  offset="1" style="stop-color:#D5D7D8"/>
						</linearGradient>
						<polygon id="XMLID_1484_" class="st84" points="202.5,532.2 201.9,531.9 224.2,488 224.9,488.3 						"/>
					</g>
				</g>
				<g id="XMLID_1479_">
					<g id="XMLID_1480_">
						
							<linearGradient id="XMLID_38_" gradientUnits="userSpaceOnUse" x1="28.9037" y1="614.1717" x2="29.6262" y2="614.1717" gradientTransform="matrix(-0.809 -0.5878 0.5878 -0.809 -127.256 1022.1203)">
							<stop  offset="0" style="stop-color:#525252"/>
							<stop  offset="0.1062" style="stop-color:#606061"/>
							<stop  offset="1" style="stop-color:#D5D7D8"/>
						</linearGradient>
						<polygon id="XMLID_1481_" class="st85" points="195.9,528.2 195.3,527.8 224.3,487.9 224.8,488.3 						"/>
					</g>
				</g>
				<g id="XMLID_1476_">
					<g id="XMLID_1477_">
						
							<linearGradient id="XMLID_39_" gradientUnits="userSpaceOnUse" x1="46.4258" y1="624.5206" x2="47.1477" y2="624.5206" gradientTransform="matrix(-0.7071 -0.7071 0.7071 -0.7071 -201.3756 980.2249)">
							<stop  offset="0" style="stop-color:#525252"/>
							<stop  offset="0.1062" style="stop-color:#606061"/>
							<stop  offset="1" style="stop-color:#D5D7D8"/>
						</linearGradient>
						<polygon id="XMLID_1478_" class="st86" points="190,523.2 189.5,522.7 224.3,487.9 224.8,488.4 						"/>
					</g>
				</g>
				<g id="XMLID_1473_">
					<g id="XMLID_1474_">
						
							<linearGradient id="XMLID_40_" gradientUnits="userSpaceOnUse" x1="65.2452" y1="631.9078" x2="65.968" y2="631.9078" gradientTransform="matrix(-0.5878 -0.809 0.809 -0.5878 -268.02 927.1157)">
							<stop  offset="0" style="stop-color:#525252"/>
							<stop  offset="0.1062" style="stop-color:#606061"/>
							<stop  offset="1" style="stop-color:#D5D7D8"/>
						</linearGradient>
						<polygon id="XMLID_1475_" class="st87" points="184.9,517.4 184.5,516.8 224.3,487.8 224.8,488.4 						"/>
					</g>
				</g>
				<g id="XMLID_1462_">
					<g id="XMLID_1463_">
						
							<linearGradient id="XMLID_41_" gradientUnits="userSpaceOnUse" x1="85.2384" y1="635.981" x2="85.9607" y2="635.981" gradientTransform="matrix(-0.454 -0.891 0.891 -0.454 -325.1864 864.3138)">
							<stop  offset="0" style="stop-color:#525252"/>
							<stop  offset="0.1062" style="stop-color:#606061"/>
							<stop  offset="1" style="stop-color:#D5D7D8"/>
						</linearGradient>
						<polygon id="XMLID_1472_" class="st88" points="180.8,510.8 180.5,510.2 224.4,487.8 224.7,488.4 						"/>
					</g>
				</g>
				<g id="XMLID_1459_">
					<g id="XMLID_1460_">
						
							<linearGradient id="XMLID_42_" gradientUnits="userSpaceOnUse" x1="105.6222" y1="636.3631" x2="106.3454" y2="636.3631" gradientTransform="matrix(-0.309 -0.9511 0.9511 -0.309 -371.3644 793.1759)">
							<stop  offset="0" style="stop-color:#525252"/>
							<stop  offset="0.1062" style="stop-color:#606061"/>
							<stop  offset="1" style="stop-color:#D5D7D8"/>
						</linearGradient>
						<polygon id="XMLID_1461_" class="st89" points="177.8,503.7 177.6,503 224.4,487.8 224.7,488.5 						"/>
					</g>
				</g>
				<g id="XMLID_1456_">
					<g id="XMLID_1457_">
						
							<linearGradient id="XMLID_43_" gradientUnits="userSpaceOnUse" x1="126.1628" y1="634.3788" x2="126.8863" y2="634.3788" gradientTransform="matrix(-0.1564 -0.9877 0.9877 -0.1564 -406.5584 716.1655)">
							<stop  offset="0" style="stop-color:#525252"/>
							<stop  offset="0.1062" style="stop-color:#606061"/>
							<stop  offset="1" style="stop-color:#D5D7D8"/>
						</linearGradient>
						<polygon id="XMLID_1458_" class="st90" points="176,496.2 175.8,495.5 224.5,487.8 224.6,488.5 						"/>
					</g>
				</g>
				<g id="XMLID_1453_">
					<g id="XMLID_1454_">
						
							<linearGradient id="XMLID_44_" gradientUnits="userSpaceOnUse" x1="145.5796" y1="629.3918" x2="146.3015" y2="629.3918" gradientTransform="matrix(0 -1 1 0 -429.4658 634.068)">
							<stop  offset="0" style="stop-color:#525252"/>
							<stop  offset="0.1062" style="stop-color:#606061"/>
							<stop  offset="1" style="stop-color:#D5D7D8"/>
						</linearGradient>
						<rect id="XMLID_1455_" x="175.3" y="487.8" class="st91" width="49.3" height="0.7"/>
					</g>
				</g>
				<g id="XMLID_1442_">
					<g id="XMLID_1443_">
						
							<linearGradient id="XMLID_45_" gradientUnits="userSpaceOnUse" x1="163.8235" y1="621.295" x2="164.5473" y2="621.295" gradientTransform="matrix(0.1564 -0.9877 0.9877 0.1564 -439.1025 549.2697)">
							<stop  offset="0" style="stop-color:#525252"/>
							<stop  offset="0.1062" style="stop-color:#606061"/>
							<stop  offset="1" style="stop-color:#D5D7D8"/>
						</linearGradient>
						<polygon id="XMLID_1452_" class="st92" points="224.5,488.5 175.8,480.8 176,480.1 224.6,487.8 						"/>
					</g>
				</g>
				<g id="XMLID_1439_">
					<g id="XMLID_1440_">
						
							<linearGradient id="XMLID_46_" gradientUnits="userSpaceOnUse" x1="180.6917" y1="609.8633" x2="181.4148" y2="609.8633" gradientTransform="matrix(0.309 -0.9511 0.9511 0.309 -434.8549 464.2683)">
							<stop  offset="0" style="stop-color:#525252"/>
							<stop  offset="0.1062" style="stop-color:#606061"/>
							<stop  offset="1" style="stop-color:#D5D7D8"/>
						</linearGradient>
						<polygon id="XMLID_1441_" class="st93" points="224.4,488.5 177.6,473.2 177.8,472.6 224.7,487.8 						"/>
					</g>
				</g>
				<g id="XMLID_1436_">
					<g id="XMLID_1437_">
						
							<linearGradient id="XMLID_47_" gradientUnits="userSpaceOnUse" x1="196.431" y1="596.1758" x2="197.1533" y2="596.1758" gradientTransform="matrix(0.454 -0.891 0.891 0.454 -417.9258 381.6236)">
							<stop  offset="0" style="stop-color:#525252"/>
							<stop  offset="0.1062" style="stop-color:#606061"/>
							<stop  offset="1" style="stop-color:#D5D7D8"/>
						</linearGradient>
						<polygon id="XMLID_1438_" class="st94" points="224.4,488.4 180.5,466.1 180.8,465.4 224.7,487.8 						"/>
					</g>
				</g>
				<g id="XMLID_1425_">
					<g id="XMLID_1426_">
						
							<linearGradient id="XMLID_48_" gradientUnits="userSpaceOnUse" x1="209.3241" y1="580.2585" x2="210.0466" y2="580.2585" gradientTransform="matrix(0.5878 -0.809 0.809 0.5878 -388.0523 302.2097)">
							<stop  offset="0" style="stop-color:#525252"/>
							<stop  offset="0.1062" style="stop-color:#606061"/>
							<stop  offset="1" style="stop-color:#D5D7D8"/>
						</linearGradient>
						<polygon id="XMLID_1435_" class="st95" points="224.3,488.4 184.5,459.5 184.9,458.9 224.8,487.8 						"/>
					</g>
				</g>
				<g id="XMLID_1422_">
					<g id="XMLID_1423_">
						
							<linearGradient id="XMLID_49_" gradientUnits="userSpaceOnUse" x1="219.3221" y1="562.8044" x2="220.044" y2="562.8044" gradientTransform="matrix(0.7071 -0.7071 0.7071 0.7071 -346.1569 228.0902)">
							<stop  offset="0" style="stop-color:#525252"/>
							<stop  offset="0.1062" style="stop-color:#606061"/>
							<stop  offset="1" style="stop-color:#D5D7D8"/>
						</linearGradient>
						<polygon id="XMLID_1424_" class="st96" points="224.3,488.4 189.5,453.6 190,453 224.8,487.9 						"/>
					</g>
				</g>
				<g id="XMLID_1419_">
					<g id="XMLID_1420_">
						
							<linearGradient id="XMLID_50_" gradientUnits="userSpaceOnUse" x1="226.3594" y1="543.9084" x2="227.0822" y2="543.9084" gradientTransform="matrix(0.809 -0.5878 0.5878 0.809 -293.0477 161.4458)">
							<stop  offset="0" style="stop-color:#525252"/>
							<stop  offset="0.1062" style="stop-color:#606061"/>
							<stop  offset="1" style="stop-color:#D5D7D8"/>
						</linearGradient>
						<polygon id="XMLID_1421_" class="st97" points="224.3,488.3 195.3,448.5 195.9,448.1 224.8,487.9 						"/>
					</g>
				</g>
				<g id="XMLID_1416_">
					<g id="XMLID_1417_">
						
							<linearGradient id="XMLID_51_" gradientUnits="userSpaceOnUse" x1="230.6013" y1="523.8601" x2="231.3235" y2="523.8601" gradientTransform="matrix(0.891 -0.454 0.454 0.891 -230.2458 104.2794)">
							<stop  offset="0" style="stop-color:#525252"/>
							<stop  offset="0.1062" style="stop-color:#606061"/>
							<stop  offset="1" style="stop-color:#D5D7D8"/>
						</linearGradient>
						<polygon id="XMLID_1418_" class="st98" points="224.2,488.3 201.9,444.4 202.5,444.1 224.9,488 						"/>
					</g>
				</g>
				<g id="XMLID_1413_">
					<g id="XMLID_1414_">
						
							<linearGradient id="XMLID_52_" gradientUnits="userSpaceOnUse" x1="231.6457" y1="502.8826" x2="232.3689" y2="502.8826" gradientTransform="matrix(0.9511 -0.309 0.309 0.9511 -159.1079 58.1013)">
							<stop  offset="0" style="stop-color:#525252"/>
							<stop  offset="0.1062" style="stop-color:#606061"/>
							<stop  offset="1" style="stop-color:#D5D7D8"/>
						</linearGradient>
						<polygon id="XMLID_1415_" class="st99" points="224.2,488.2 209,441.4 209.7,441.2 224.9,488 						"/>
					</g>
				</g>
				<g id="XMLID_1410_">
					<g id="XMLID_1411_">
						
							<linearGradient id="XMLID_53_" gradientUnits="userSpaceOnUse" x1="229.7562" y1="482.8222" x2="230.4791" y2="482.8222" gradientTransform="matrix(0.9877 -0.1564 0.1564 0.9877 -82.0975 22.9074)">
							<stop  offset="0" style="stop-color:#525252"/>
							<stop  offset="0.1062" style="stop-color:#606061"/>
							<stop  offset="1" style="stop-color:#D5D7D8"/>
						</linearGradient>
						<polygon id="XMLID_1412_" class="st100" points="224.2,488.2 216.5,439.5 217.2,439.4 224.9,488.1 						"/>
					</g>
				</g>
				<g id="XMLID_1407_">
					<g id="XMLID_1408_">
						<linearGradient id="XMLID_54_" gradientUnits="userSpaceOnUse" x1="224.1954" y1="463.4974" x2="224.9167" y2="463.4974">
							<stop  offset="0" style="stop-color:#525252"/>
							<stop  offset="0.1062" style="stop-color:#606061"/>
							<stop  offset="1" style="stop-color:#D5D7D8"/>
						</linearGradient>
						<rect id="XMLID_1409_" x="224.2" y="438.9" class="st101" width="0.7" height="49.3"/>
					</g>
				</g>
			</g>
			<g id="XMLID_1710_">
				<g id="XMLID_1726_">
					<path id="XMLID_1727_" class="st102" d="M224.6,537.5c-27.5,0-49.8-22.3-49.8-49.8c0-27.5,22.3-49.8,49.8-49.8
						c27.5,0,49.8,22.3,49.8,49.8C274.4,515.1,252,537.5,224.6,537.5z M224.6,438.9c-26.9,0-48.7,21.9-48.7,48.7
						c0,26.9,21.9,48.7,48.7,48.7c26.9,0,48.7-21.9,48.7-48.7C273.3,460.8,251.4,438.9,224.6,438.9z"/>
				</g>
				<g id="XMLID_1716_">
					<path id="XMLID_1717_" class="st102" d="M224.6,527.9c-22.2,0-40.2-18-40.2-40.2c0-22.2,18-40.2,40.2-40.2
						c22.2,0,40.2,18,40.2,40.2C264.8,509.9,246.7,527.9,224.6,527.9z M224.6,448.5c-21.6,0-39.2,17.6-39.2,39.2
						c0,21.6,17.6,39.2,39.2,39.2c21.6,0,39.2-17.6,39.2-39.2C263.7,466.1,246.1,448.5,224.6,448.5z"/>
				</g>
				<g id="XMLID_1712_">
					<path id="XMLID_1713_" class="st102" d="M224.6,517.3c-16.3,0-29.6-13.3-29.6-29.6c0-16.3,13.3-29.6,29.6-29.6
						c16.3,0,29.6,13.3,29.6,29.6C254.1,504,240.9,517.3,224.6,517.3z M224.6,459.2c-15.7,0-28.5,12.8-28.5,28.5
						c0,15.7,12.8,28.5,28.5,28.5c15.7,0,28.5-12.8,28.5-28.5C253.1,471.9,240.3,459.2,224.6,459.2z"/>
				</g>
			</g>
			<g id="XMLID_1388_">
				<g id="XMLID_1402_">
					<linearGradient id="XMLID_55_" gradientUnits="userSpaceOnUse" x1="230.6257" y1="537.5609" x2="218.4864" y2="438.6939">
						<stop  offset="0" style="stop-color:#525252"/>
						<stop  offset="7.654158e-02" style="stop-color:#575757"/>
						<stop  offset="0.1671" style="stop-color:#656565"/>
						<stop  offset="0.2647" style="stop-color:#7C7D7D"/>
						<stop  offset="0.3674" style="stop-color:#9D9E9E"/>
						<stop  offset="0.4729" style="stop-color:#C6C8C9"/>
						<stop  offset="0.5025" style="stop-color:#D3D5D6"/>
						<stop  offset="0.7132" style="stop-color:#AEB0B2"/>
						<stop  offset="0.899" style="stop-color:#939598"/>
						<stop  offset="1" style="stop-color:#8A8C8E"/>
					</linearGradient>
					<path id="XMLID_1403_" class="st103" d="M224.6,537.9c-27.5,0-49.8-22.3-49.8-49.8c0-27.5,22.3-49.8,49.8-49.8
						c27.5,0,49.8,22.3,49.8,49.8C274.4,515.6,252,537.9,224.6,537.9z M224.6,439.4c-26.9,0-48.7,21.9-48.7,48.7
						s21.9,48.7,48.7,48.7c26.9,0,48.7-21.9,48.7-48.7S251.4,439.4,224.6,439.4z"/>
				</g>
				<g id="XMLID_1393_">
					<linearGradient id="XMLID_56_" gradientUnits="userSpaceOnUse" x1="229.4598" y1="528.0656" x2="219.6522" y2="448.189">
						<stop  offset="0" style="stop-color:#525252"/>
						<stop  offset="7.654158e-02" style="stop-color:#575757"/>
						<stop  offset="0.1671" style="stop-color:#656565"/>
						<stop  offset="0.2647" style="stop-color:#7C7D7D"/>
						<stop  offset="0.3674" style="stop-color:#9D9E9E"/>
						<stop  offset="0.4729" style="stop-color:#C6C8C9"/>
						<stop  offset="0.5025" style="stop-color:#D3D5D6"/>
						<stop  offset="0.7132" style="stop-color:#AEB0B2"/>
						<stop  offset="0.899" style="stop-color:#939598"/>
						<stop  offset="1" style="stop-color:#8A8C8E"/>
					</linearGradient>
					<path id="XMLID_1394_" class="st104" d="M224.6,528.4c-22.2,0-40.2-18-40.2-40.2c0-22.2,18-40.2,40.2-40.2
						c22.2,0,40.2,18,40.2,40.2C264.8,510.3,246.7,528.4,224.6,528.4z M224.6,449c-21.6,0-39.2,17.6-39.2,39.2
						c0,21.6,17.6,39.2,39.2,39.2c21.6,0,39.2-17.6,39.2-39.2C263.7,466.5,246.1,449,224.6,449z"/>
				</g>
				<g id="XMLID_1389_">
					<linearGradient id="XMLID_57_" gradientUnits="userSpaceOnUse" x1="228.1626" y1="517.5004" x2="220.9495" y2="458.7542">
						<stop  offset="0" style="stop-color:#525252"/>
						<stop  offset="7.654158e-02" style="stop-color:#575757"/>
						<stop  offset="0.1671" style="stop-color:#656565"/>
						<stop  offset="0.2647" style="stop-color:#7C7D7D"/>
						<stop  offset="0.3674" style="stop-color:#9D9E9E"/>
						<stop  offset="0.4729" style="stop-color:#C6C8C9"/>
						<stop  offset="0.5025" style="stop-color:#D3D5D6"/>
						<stop  offset="0.7132" style="stop-color:#AEB0B2"/>
						<stop  offset="0.899" style="stop-color:#939598"/>
						<stop  offset="1" style="stop-color:#8A8C8E"/>
					</linearGradient>
					<path id="XMLID_1390_" class="st105" d="M224.6,517.7c-16.3,0-29.6-13.3-29.6-29.6c0-16.3,13.3-29.6,29.6-29.6
						c16.3,0,29.6,13.3,29.6,29.6C254.1,504.4,240.9,517.7,224.6,517.7z M224.6,459.6c-15.7,0-28.5,12.8-28.5,28.5
						c0,15.7,12.8,28.5,28.5,28.5c15.7,0,28.5-12.8,28.5-28.5C253.1,472.4,240.3,459.6,224.6,459.6z"/>
				</g>
			</g>
		</g>
		<g id="XMLID_1381_">
			<linearGradient id="XMLID_58_" gradientUnits="userSpaceOnUse" x1="225.0677" y1="503.3602" x2="225.0677" y2="472.8945">
				<stop  offset="0" style="stop-color:#4D4D4D"/>
				<stop  offset="8.404738e-02" style="stop-color:#6A6A6A"/>
				<stop  offset="0.2086" style="stop-color:#8E8E8E"/>
				<stop  offset="0.3399" style="stop-color:#ACACAC"/>
				<stop  offset="0.4778" style="stop-color:#C3C3C3"/>
				<stop  offset="0.6251" style="stop-color:#D4D4D4"/>
				<stop  offset="0.7886" style="stop-color:#DDDDDD"/>
				<stop  offset="1" style="stop-color:#E0E0E0"/>
			</linearGradient>
			<circle id="XMLID_1386_" class="st106" cx="225.1" cy="488.1" r="15.2"/>
			<linearGradient id="XMLID_59_" gradientUnits="userSpaceOnUse" x1="225.0677" y1="499.3839" x2="225.0677" y2="476.8709">
				<stop  offset="0" style="stop-color:#E0E0E0"/>
				<stop  offset="0.2114" style="stop-color:#DDDDDD"/>
				<stop  offset="0.3749" style="stop-color:#D4D4D4"/>
				<stop  offset="0.5222" style="stop-color:#C3C3C3"/>
				<stop  offset="0.6601" style="stop-color:#ACACAC"/>
				<stop  offset="0.7914" style="stop-color:#8E8E8E"/>
				<stop  offset="0.916" style="stop-color:#6A6A6A"/>
				<stop  offset="1" style="stop-color:#4D4D4D"/>
			</linearGradient>
			<circle id="XMLID_1579_" class="st107" cx="225.1" cy="488.1" r="11.3"/>
			<g id="XMLID_1382_">
				<path id="XMLID_1383_" class="st102" d="M225.1,499.8c-6.4,0-11.7-5.2-11.7-11.7c0-6.4,5.2-11.7,11.7-11.7
					c6.4,0,11.7,5.2,11.7,11.7C236.8,494.6,231.5,499.8,225.1,499.8z M225.1,476.9c-6.2,0-11.3,5-11.3,11.3
					c0,6.2,5.1,11.3,11.3,11.3c6.2,0,11.3-5,11.3-11.3C236.3,481.9,231.3,476.9,225.1,476.9z"/>
			</g>
		</g>
	</g>
</g>
</svg>
