<?xml version="1.0" encoding="utf-8"?>
<!-- Generator: Adobe Illustrator 21.0.2, SVG Export Plug-In . SVG Version: 6.00 Build 0)  -->
<svg version="1.1" id="Layer_1" xmlns="http://www.w3.org/2000/svg" xmlns:xlink="http://www.w3.org/1999/xlink" x="0px" y="0px"
	 viewBox="0 0 792 1224" style="enable-background:new 0 0 792 1224;" xml:space="preserve">
<style type="text/css">
	.st0{fill:#FFFFFF;}
	.st1{fill:#F8F8F8;}
	.st2{fill:#F4F3F3;}
	.st3{fill:#F0EFEF;}
	.st4{fill:#ECEBEC;}
	.st5{fill:#E8E8E8;}
	.st6{fill:#E4E4E5;}
	.st7{fill:#E0E0E1;}
	.st8{fill:#DCDDDE;}
	.st9{fill:#D8D9DA;}
	.st10{fill:#D4D6D7;}
	.st11{fill:#D1D2D4;}
	.st12{fill:#8E8F91;}
	.st13{fill:url(#XMLID_8_);}
	.st14{fill:url(#XMLID_9_);}
	.st15{filter:url(#Adobe_OpacityMaskFilter);}
	.st16{filter:url(#Adobe_OpacityMaskFilter_1_);}
	.st17{mask:url(#XMLID_10_);fill:url(#XMLID_11_);}
	.st18{fill:url(#XMLID_12_);}
	.st19{fill:url(#XMLID_13_);}
	.st20{filter:url(#Adobe_OpacityMaskFilter_2_);}
	.st21{filter:url(#Adobe_OpacityMaskFilter_3_);}
	.st22{mask:url(#XMLID_14_);fill:url(#XMLID_15_);}
	.st23{fill:url(#XMLID_16_);}
	.st24{fill:#808285;}
	.st25{fill:#6D6E71;}
	.st26{fill:#58595B;}
	.st27{fill:#414042;}
	.st28{fill:#B6B8BA;}
	.st29{fill:#646464;}
	.st30{fill:#E7E8E7;}
	.st31{fill:#7B7A7D;}
	.st32{fill:#939598;}
	.st33{fill:#69696C;}
	.st34{fill:url(#XMLID_17_);}
	.st35{fill:#85878A;}
	.st36{fill:url(#XMLID_18_);}
	.st37{fill:#E6E7E8;}
	.st38{fill:url(#XMLID_19_);}
	.st39{fill:#929496;}
	.st40{fill:url(#XMLID_20_);}
	.st41{fill:url(#XMLID_21_);}
	.st42{fill:url(#XMLID_22_);}
	.st43{fill:url(#XMLID_23_);}
	.st44{fill:url(#XMLID_24_);}
	.st45{fill:#60B6E3;}
	.st46{fill:#A4A3A8;}
	.st47{opacity:0;fill:#808285;}
	.st48{opacity:9.090909e-02;fill:#848688;}
	.st49{opacity:0.1818;fill:#87898C;}
	.st50{opacity:0.2727;fill:#8B8D8F;}
	.st51{opacity:0.3636;fill:#8E9093;}
	.st52{opacity:0.4545;fill:#919496;}
	.st53{opacity:0.5455;fill:#95979A;}
	.st54{opacity:0.6364;fill:#999B9D;}
	.st55{opacity:0.7273;fill:#9C9EA1;}
	.st56{opacity:0.8182;fill:#A0A2A4;}
	.st57{opacity:0.9091;fill:#A3A6A8;}
	.st58{fill:#A7A9AC;}
	.st59{opacity:0;fill:#A7A9AC;}
	.st60{opacity:9.090909e-02;fill:#A7A9AC;}
	.st61{opacity:0.1818;fill:#A7A9AC;}
	.st62{opacity:0.2727;fill:#A7A9AC;}
	.st63{opacity:0.3636;fill:#A7A9AC;}
	.st64{opacity:0.4545;fill:#A7A9AC;}
	.st65{opacity:0.5455;fill:#A7A9AC;}
	.st66{opacity:0.6364;fill:#A7A9AC;}
	.st67{opacity:0.7273;fill:#A7A9AC;}
	.st68{opacity:0.8182;fill:#A7A9AC;}
	.st69{opacity:0.9091;fill:#A7A9AC;}
	.st70{fill:#464648;}
	.st71{fill:#4E4E4F;}
	.st72{fill:url(#XMLID_25_);}
	.st73{fill:#444345;}
	.st74{fill:url(#XMLID_26_);}
	.st75{fill:#1B1B1C;}
	.st76{fill:url(#XMLID_27_);}
	.st77{fill:url(#XMLID_28_);}
	.st78{opacity:0.45;fill:#939598;}
	.st79{fill:url(#XMLID_29_);}
	.st80{fill:#777778;}
	.st81{fill:url(#XMLID_30_);}
	.st82{fill:url(#XMLID_31_);}
	.st83{fill:url(#XMLID_32_);}
	.st84{fill:#FBFEFF;}
</style>
<g id="refrigerator_2">
	<g id="XMLID_3070_">
		<path id="XMLID_6_" class="st0" d="M440.9,576.3l-251.6-32c-2.8-0.3-3.1-2.9-0.9-5.6l28.3-20.4c1.9-2.4,76.2-32.7,78.7-32.4
			l213,21.3c2.5,0.3,5.5,2.8,6.8,5.5C515.1,512.8,443.6,576.6,440.9,576.3z"/>
		<path class="st1" d="M294.2,486.8l212.3,21.4c2.5,0.3,5.3,2.7,6.4,5.4c0,0-0.6,0.6-1.7,1.6c-10,9.1-67.7,60.3-70.2,60l-244.9-30.7
			c-0.1,0-5.4-0.9-5.3-1.1c-2.3-0.6-2.5-3.1-0.5-5.6c0-0.1,26.6-18.9,27.6-19.5C221.9,515.7,291.7,486.5,294.2,486.8z"/>
		<path class="st2" d="M292.9,487.7l211.5,21.5c2.4,0.3,5,2.7,6,5.4c0,0.1-0.5,0.7-1.5,1.6c-8.9,8.3-65.4,58.4-68,58.1L197,544.1
			c-0.2,0-4.9-1.1-4.6-1.5c-1.9-0.8-1.8-3.4,0-5.6c0-0.2,24.9-17.5,26.8-18.7C224.8,515,290.6,487.4,292.9,487.7z"/>
		<path class="st3" d="M291.7,488.6l210.8,21.6c2.4,0.3,4.7,2.7,5.6,5.3c0,0.1-0.5,0.8-1.4,1.6c-7.8,7.5-63.2,56.5-65.7,56.1
			l-243.2-29.7c-0.4,0-4.3-1.2-3.9-1.9c-1.5-1-1.1-3.6,0.5-5.6c0-0.3,23.1-16.1,26.1-17.8C227.7,514.3,289.4,488.3,291.7,488.6z"/>
		<path class="st4" d="M290.5,489.5l210.1,21.6c2.4,0.3,4.4,2.7,5.2,5.3c0,0.2-0.4,0.8-1.2,1.6c-6.7,6.7-60.9,54.6-63.5,54.2
			l-242.4-29.2c-0.5-0.1-3.8-1.4-3.2-2.3c-1.1-1.2-0.5-3.9,1-5.6c0-0.4,21.3-14.8,25.3-16.9C230.7,513.5,288.3,489.2,290.5,489.5z"
			/>
		<path class="st5" d="M289.3,490.4l209.4,21.7c2.4,0.3,4.6,2.6,4.8,5.2c0,0.2-0.3,0.9-1.1,1.6c-5.7,5.9-58.6,52.6-61.2,52.3
			l-241.6-28.6c-0.6-0.1-3.3-1.6-2.5-2.7c-0.7-1.4,0.2-4.1,1.4-5.6c0.1-0.4,19.5-13.5,24.6-16.1
			C233.6,512.8,287.2,490.1,289.3,490.4z"/>
		<path class="st6" d="M288.1,491.3L496.8,513c2.3,0.3,4.2,2.6,4.4,5.1c0,0.3-0.3,0.9-0.9,1.6c-4.6,5-56.4,50.7-59,50.4l-240.8-28.1
			c-0.7-0.1-2.8-1.7-1.9-3.1c-0.2-1.7,0.9-4.4,1.9-5.6c0.1-0.5,17.7-12.1,23.8-15.2C236.5,512,286,491,288.1,491.3z"/>
		<path class="st7" d="M286.9,492.1l208,21.9c2.3,0.3,3.9,2.6,4,5.1c0,0.3-0.2,1-0.8,1.6c-3.5,4.1-54.1,48.8-56.7,48.5l-240-27.6
			c-0.8-0.1-2.2-1.9-1.2-3.4c0.2-1.9,1.6-4.6,2.4-5.6c0.1-0.6,15.9-10.8,23.1-14.4C239.5,511.3,284.9,491.9,286.9,492.1z"/>
		<path class="st8" d="M285.7,493L493,515c2.3,0.3,3.5,2.6,3.6,5c0,0.4-0.1,1-0.6,1.6c-2.5,3.2-51.8,46.9-54.5,46.6l-239.2-27.1
			c-0.9-0.1-1.4-1.9-0.5-3.8c0.9-2,2.2-4.9,2.8-5.6c0.1-0.7,14.2-9.5,22.3-13.5C242.4,510.5,283.7,492.8,285.7,493z"/>
		<path class="st9" d="M284.5,493.9l206.6,22c2.3,0.3,3.2,2.6,3.1,4.9c0,0.4-0.2,1-0.5,1.6c-2,1.8-49.6,45-52.3,44.7l-238.3-26.6
			c-1.1-0.1-1-2.1,0.2-4.2c1.2-2.2,2.9-5.1,3.3-5.6c0.1-0.8,12.4-8.1,21.5-12.6C245.4,509.8,282.6,493.7,284.5,493.9z"/>
		<path class="st10" d="M283.3,494.8l205.9,22.1c2.2,0.3,2.8,2.5,2.7,4.9c0,0.5-0.2,1.1-0.3,1.6c-1,0.9-47.3,43.1-50,42.8
			l-237.5-26.1c-1.2-0.1-0.5-2.3,0.9-4.6c1.5-2.5,3.6-5.4,3.8-5.6c0.1-0.9,10.6-6.8,20.8-11.8C248.3,509,281.4,494.6,283.3,494.8z"
			/>
		<path id="XMLID_5_" class="st11" d="M441.6,565.2l-236.7-25.5c-2.8-0.3,5.8-10.6,5.8-10.6c0.3-2.8,68.6-33.7,71.4-33.4l205.2,22.2
			c2.8,0.3,2.5,3.7,2.2,6.4C489.4,524.3,444.4,565.5,441.6,565.2z"/>
	</g>
	<g id="XMLID_1398_">
		<polygon id="XMLID_811_" class="st12" points="487.1,519.2 431.1,564.4 431.1,552.8 487.1,508.7 		"/>
		
			<linearGradient id="XMLID_8_" gradientUnits="userSpaceOnUse" x1="845.3599" y1="303.3066" x2="905.0228" y2="303.3066" gradientTransform="matrix(-1 0 0 1 1340.718 0)">
			<stop  offset="0" style="stop-color:#C4C6C8"/>
			<stop  offset="0.266" style="stop-color:#C1C3C5"/>
			<stop  offset="0.548" style="stop-color:#B6B8BB"/>
			<stop  offset="0.8364" style="stop-color:#A5A7AA"/>
			<stop  offset="1" style="stop-color:#999B9E"/>
		</linearGradient>
		<polygon id="XMLID_805_" class="st13" points="495.4,506.5 435.7,553.3 435.7,53.3 495.4,89 		"/>
		<g id="XMLID_1397_">
			<g id="XMLID_1430_">
				
					<linearGradient id="XMLID_9_" gradientUnits="userSpaceOnUse" x1="892.2657" y1="305.1694" x2="773.5818" y2="305.1694" gradientTransform="matrix(-1 0 0 1 1100.6113 0)">
					<stop  offset="0" style="stop-color:#A6A6A6"/>
					<stop  offset="4.115058e-02" style="stop-color:#AEAEAE"/>
					<stop  offset="0.2022" style="stop-color:#CBCBCB"/>
					<stop  offset="0.363" style="stop-color:#DFDFDF"/>
					<stop  offset="0.522" style="stop-color:#ECECEC"/>
					<stop  offset="0.6774" style="stop-color:#F0F0F0"/>
					<stop  offset="0.7728" style="stop-color:#E7E7E7"/>
					<stop  offset="0.9253" style="stop-color:#D0D0D0"/>
					<stop  offset="1" style="stop-color:#C2C2C2"/>
				</linearGradient>
				<polygon id="XMLID_1401_" class="st14" points="208.3,94.8 208.3,524.1 327,537.2 327,73.1 				"/>
				<defs>
					<filter id="Adobe_OpacityMaskFilter" filterUnits="userSpaceOnUse" x="208.3" y="73.1" width="118.7" height="464.1">
						<feFlood  style="flood-color:white;flood-opacity:1" result="back"/>
						<feBlend  in="SourceGraphic" in2="back" mode="normal"/>
					</filter>
				</defs>
				<mask maskUnits="userSpaceOnUse" x="208.3" y="73.1" width="118.7" height="464.1" id="XMLID_10_">
					<g id="XMLID_172_" class="st15">
						<defs>
							<filter id="Adobe_OpacityMaskFilter_1_" filterUnits="userSpaceOnUse" x="208.3" y="73.1" width="118.7" height="464.1">
								<feFlood  style="flood-color:white;flood-opacity:1" result="back"/>
								<feBlend  in="SourceGraphic" in2="back" mode="normal"/>
							</filter>
						</defs>
						<mask maskUnits="userSpaceOnUse" x="208.3" y="73.1" width="118.7" height="464.1" id="XMLID_10_">
							<g id="XMLID_203_" class="st16">
							</g>
						</mask>
						
							<linearGradient id="XMLID_11_" gradientUnits="userSpaceOnUse" x1="832.9238" y1="537.2547" x2="832.9238" y2="73.1301" gradientTransform="matrix(-1 0 0 1 1100.6113 0)">
							<stop  offset="0" style="stop-color:#FFFFFF"/>
							<stop  offset="0.4247" style="stop-color:#000000"/>
							<stop  offset="0.4962" style="stop-color:#040404"/>
							<stop  offset="0.5683" style="stop-color:#101010"/>
							<stop  offset="0.6408" style="stop-color:#242424"/>
							<stop  offset="0.7135" style="stop-color:#414141"/>
							<stop  offset="0.7865" style="stop-color:#656565"/>
							<stop  offset="0.8597" style="stop-color:#929292"/>
							<stop  offset="0.9316" style="stop-color:#C6C6C6"/>
							<stop  offset="1" style="stop-color:#FFFFFF"/>
						</linearGradient>
						<polygon id="XMLID_173_" class="st17" points="208.3,94.8 208.3,524.1 327,537.3 327,73.1 						"/>
					</g>
				</mask>
				
					<linearGradient id="XMLID_12_" gradientUnits="userSpaceOnUse" x1="832.9238" y1="537.2547" x2="832.9238" y2="73.1301" gradientTransform="matrix(-1 0 0 1 1100.6113 0)">
					<stop  offset="0" style="stop-color:#A6A6A6"/>
					<stop  offset="0.4247" style="stop-color:#D9D9D9"/>
					<stop  offset="0.6647" style="stop-color:#D5D5D5"/>
					<stop  offset="0.9062" style="stop-color:#C9C9C9"/>
					<stop  offset="1" style="stop-color:#C2C2C2"/>
				</linearGradient>
				<polygon id="XMLID_759_" class="st18" points="208.3,94.8 208.3,524.1 327,537.3 327,73.1 				"/>
			</g>
			<g id="XMLID_1429_">
				
					<linearGradient id="XMLID_13_" gradientUnits="userSpaceOnUse" x1="768.6927" y1="301.283" x2="664.9161" y2="301.283" gradientTransform="matrix(-1 0 0 1 1100.6113 0)">
					<stop  offset="0" style="stop-color:#A6A6A6"/>
					<stop  offset="4.115058e-02" style="stop-color:#AEAEAE"/>
					<stop  offset="0.2022" style="stop-color:#CBCBCB"/>
					<stop  offset="0.363" style="stop-color:#DFDFDF"/>
					<stop  offset="0.522" style="stop-color:#ECECEC"/>
					<stop  offset="0.6774" style="stop-color:#F0F0F0"/>
					<stop  offset="0.7728" style="stop-color:#E7E7E7"/>
					<stop  offset="0.9253" style="stop-color:#D0D0D0"/>
					<stop  offset="1" style="stop-color:#C2C2C2"/>
				</linearGradient>
				<polygon id="XMLID_1427_" class="st19" points="331.9,537.8 435.7,549.2 435.7,53.3 331.9,72.2 				"/>
				<defs>
					<filter id="Adobe_OpacityMaskFilter_2_" filterUnits="userSpaceOnUse" x="331.9" y="53.3" width="103.8" height="495.9">
						<feFlood  style="flood-color:white;flood-opacity:1" result="back"/>
						<feBlend  in="SourceGraphic" in2="back" mode="normal"/>
					</filter>
				</defs>
				<mask maskUnits="userSpaceOnUse" x="331.9" y="53.3" width="103.8" height="495.9" id="XMLID_14_">
					<g id="XMLID_164_" class="st20">
						<defs>
							<filter id="Adobe_OpacityMaskFilter_3_" filterUnits="userSpaceOnUse" x="331.9" y="53.3" width="103.8" height="495.9">
								<feFlood  style="flood-color:white;flood-opacity:1" result="back"/>
								<feBlend  in="SourceGraphic" in2="back" mode="normal"/>
							</filter>
						</defs>
						<mask maskUnits="userSpaceOnUse" x="331.9" y="53.3" width="103.8" height="495.9" id="XMLID_14_">
							<g id="XMLID_199_" class="st21">
							</g>
						</mask>
						
							<linearGradient id="XMLID_15_" gradientUnits="userSpaceOnUse" x1="716.8044" y1="549.2409" x2="716.8044" y2="53.3251" gradientTransform="matrix(-1 0 0 1 1100.6113 0)">
							<stop  offset="0" style="stop-color:#FFFFFF"/>
							<stop  offset="0.4247" style="stop-color:#000000"/>
							<stop  offset="0.4962" style="stop-color:#040404"/>
							<stop  offset="0.5683" style="stop-color:#101010"/>
							<stop  offset="0.6408" style="stop-color:#242424"/>
							<stop  offset="0.7135" style="stop-color:#414141"/>
							<stop  offset="0.7865" style="stop-color:#656565"/>
							<stop  offset="0.8597" style="stop-color:#929292"/>
							<stop  offset="0.9316" style="stop-color:#C6C6C6"/>
							<stop  offset="1" style="stop-color:#FFFFFF"/>
						</linearGradient>
						<polygon id="XMLID_165_" class="st22" points="331.9,537.8 435.7,549.2 435.7,53.3 331.9,72.2 						"/>
					</g>
				</mask>
				
					<linearGradient id="XMLID_16_" gradientUnits="userSpaceOnUse" x1="716.8044" y1="549.2409" x2="716.8044" y2="53.3251" gradientTransform="matrix(-1 0 0 1 1100.6113 0)">
					<stop  offset="0" style="stop-color:#A6A6A6"/>
					<stop  offset="0.4247" style="stop-color:#D9D9D9"/>
					<stop  offset="0.6647" style="stop-color:#D5D5D5"/>
					<stop  offset="0.9062" style="stop-color:#C9C9C9"/>
					<stop  offset="1" style="stop-color:#C2C2C2"/>
				</linearGradient>
				<polygon id="XMLID_758_" class="st23" points="331.9,537.8 435.7,549.2 435.7,53.3 331.9,72.2 				"/>
			</g>
		</g>
		<g id="XMLID_1314_">
			<polygon id="XMLID_697_" class="st24" points="331.9,537.8 327,537.3 327,76.8 331.9,75.9 			"/>
			<polygon id="XMLID_1302_" class="st25" points="327.7,536.6 327.7,77.4 331.2,76.7 331.2,536.9 			"/>
			<polygon id="XMLID_1303_" class="st26" points="328.5,535.9 328.5,78 330.5,77.6 330.5,536.1 			"/>
			<polygon id="XMLID_1304_" class="st27" points="329.2,535.3 329.2,78.6 329.8,78.5 329.8,535.3 			"/>
		</g>
		<g id="XMLID_1297_">
			<polygon id="XMLID_698_" class="st28" points="211.8,538.1 431.1,564.4 431.1,552.8 211.8,528 			"/>
			<g id="XMLID_693_">
				<polygon id="XMLID_1295_" class="st29" points="217.5,536.9 423.7,561.2 423.7,560.2 217.5,535.9 				"/>
				<polygon id="XMLID_1299_" class="st30" points="217.5,531.8 423.7,555.8 423.7,554.7 217.5,530.8 				"/>
				<polygon id="XMLID_1298_" class="st30" points="217.5,536.3 423.7,560.7 423.7,559.6 217.5,535.4 				"/>
				<polygon id="XMLID_695_" class="st29" points="217.5,532.3 423.7,556.3 423.7,555.2 217.5,531.4 				"/>
				<polygon id="XMLID_694_" class="st29" points="217.5,536.9 423.7,561.2 423.7,560.2 217.5,535.9 				"/>
			</g>
		</g>
		<polygon id="XMLID_663_" class="st31" points="435.7,553.3 208.3,527.7 208.3,524.2 435.7,549.2 		"/>
		<g id="XMLID_1431_">
			<polygon id="XMLID_593_" class="st32" points="331.9,75.9 435.7,57.2 435.7,53.3 331.9,72.2 			"/>
			<polygon id="XMLID_612_" class="st32" points="208.3,98.1 331.9,75.9 331.9,72.2 208.3,94.8 			"/>
		</g>
		<g id="XMLID_1349_">
			<g id="XMLID_685_">
				<polygon id="XMLID_643_" class="st33" points="417.7,288.2 417.7,212 352.5,217.8 352.5,291.1 				"/>
				
					<linearGradient id="XMLID_17_" gradientUnits="userSpaceOnUse" x1="685.0809" y1="264.4268" x2="746.0787" y2="264.4268" gradientTransform="matrix(-1 0 0 1 1100.6113 0)">
					<stop  offset="0" style="stop-color:#828487"/>
					<stop  offset="0.1357" style="stop-color:#8E9093"/>
					<stop  offset="0.2926" style="stop-color:#96989B"/>
					<stop  offset="0.4677" style="stop-color:#999B9E"/>
					<stop  offset="0.5364" style="stop-color:#939598"/>
					<stop  offset="0.6447" style="stop-color:#828486"/>
					<stop  offset="0.7742" style="stop-color:#67686B"/>
				</linearGradient>
				<polygon id="XMLID_691_" class="st34" points="415.5,286.1 415.5,240 354.5,244.5 354.5,288.9 				"/>
				<polygon id="XMLID_628_" class="st35" points="354.5,245.5 415.5,241.1 415.5,215.4 354.5,220.8 				"/>
				
					<linearGradient id="XMLID_18_" gradientUnits="userSpaceOnUse" x1="685.0809" y1="229.4387" x2="746.0787" y2="229.4387" gradientTransform="matrix(-1 0 0 1 1100.6113 0)">
					<stop  offset="0" style="stop-color:#999B9E"/>
					<stop  offset="2.622433e-02" style="stop-color:#B0B2B4"/>
					<stop  offset="6.297600e-02" style="stop-color:#CBCCCE"/>
					<stop  offset="0.1009" style="stop-color:#E0E1E2"/>
					<stop  offset="0.1398" style="stop-color:#F0F0F1"/>
					<stop  offset="0.1805" style="stop-color:#FAFAFA"/>
					<stop  offset="0.2258" style="stop-color:#FFFFFF"/>
					<stop  offset="0.3656" style="stop-color:#EFEFF0"/>
					<stop  offset="0.4392" style="stop-color:#EAEBEC"/>
					<stop  offset="0.5315" style="stop-color:#DDDFE0"/>
					<stop  offset="0.6333" style="stop-color:#C8CACC"/>
					<stop  offset="0.6398" style="stop-color:#C7C9CB"/>
					<stop  offset="0.7966" style="stop-color:#F4F4F5"/>
					<stop  offset="0.8226" style="stop-color:#FFFFFF"/>
					<stop  offset="1" style="stop-color:#999B9E"/>
				</linearGradient>
				<polygon id="XMLID_687_" class="st36" points="354.5,244.5 415.5,240 415.5,214.4 354.5,219.8 				"/>
				<g id="XMLID_686_">
					<polygon id="XMLID_2270_" class="st37" points="412,236.8 412,218.2 357.8,222.9 357.8,240.8 					"/>
					<path id="XMLID_2271_" class="st29" d="M357.6,241.1v-18.4l0.2,0l54.5-4.7v19L357.6,241.1z M358,223.1v17.4l53.7-4v-18
						L358,223.1z"/>
				</g>
			</g>
			<g id="XMLID_1343_">
				<g id="XMLID_627_">
					<g id="XMLID_613_">
						
							<linearGradient id="XMLID_19_" gradientUnits="userSpaceOnUse" x1="698.7538" y1="225.2914" x2="698.7538" y2="222.7462" gradientTransform="matrix(-1 0 0 1 1100.6113 0)">
							<stop  offset="0" style="stop-color:#8A8C8E"/>
							<stop  offset="0.1548" style="stop-color:#95979A"/>
							<stop  offset="0.4762" style="stop-color:#A9ABAD"/>
							<stop  offset="0.7675" style="stop-color:#B5B7BA"/>
							<stop  offset="1" style="stop-color:#BABCBE"/>
						</linearGradient>
						<polygon id="XMLID_2151_" class="st38" points="400.2,225.3 403.5,225 403.5,222.7 400.2,223 						"/>
						<path id="XMLID_2267_" class="st29" d="M400.1,225.4v-2.5l3.5-0.3v2.5L400.1,225.4z M400.4,223.1v2l3-0.2v-2L400.4,223.1z"/>
					</g>
					<g id="XMLID_615_">
						<polygon id="XMLID_614_" class="st39" points="405.2,223.1 410.1,222.7 410.1,222.3 405.2,222.7 						"/>
						<polygon id="XMLID_616_" class="st39" points="407.4,224 410.1,223.8 410.1,223.5 407.4,223.7 						"/>
					</g>
					<g id="XMLID_621_">
						
							<linearGradient id="XMLID_20_" gradientUnits="userSpaceOnUse" x1="698.7538" y1="229.5811" x2="698.7538" y2="227.0444" gradientTransform="matrix(-1 0 0 1 1100.6113 0)">
							<stop  offset="0" style="stop-color:#8A8C8E"/>
							<stop  offset="0.1548" style="stop-color:#95979A"/>
							<stop  offset="0.4762" style="stop-color:#A9ABAD"/>
							<stop  offset="0.7675" style="stop-color:#B5B7BA"/>
							<stop  offset="1" style="stop-color:#BABCBE"/>
						</linearGradient>
						<polygon id="XMLID_1912_" class="st40" points="400.2,229.6 403.5,229.3 403.5,227 400.2,227.3 						"/>
						<path id="XMLID_1915_" class="st29" d="M400.1,229.7v-2.5l3.5-0.3v2.5L400.1,229.7z M400.4,227.4v2l3-0.2v-2L400.4,227.4z"/>
					</g>
					<g id="XMLID_625_">
						<polygon id="XMLID_619_" class="st39" points="408.3,227.1 410.1,227 410.1,226.7 408.3,226.8 						"/>
						<polygon id="XMLID_617_" class="st39" points="405.9,228.5 410.1,228.1 410.1,227.8 405.9,228.1 						"/>
					</g>
					<g id="XMLID_624_">
						
							<linearGradient id="XMLID_21_" gradientUnits="userSpaceOnUse" x1="698.7538" y1="233.8708" x2="698.7538" y2="231.3425" gradientTransform="matrix(-1 0 0 1 1100.6113 0)">
							<stop  offset="0" style="stop-color:#8A8C8E"/>
							<stop  offset="0.1548" style="stop-color:#95979A"/>
							<stop  offset="0.4762" style="stop-color:#A9ABAD"/>
							<stop  offset="0.7675" style="stop-color:#B5B7BA"/>
							<stop  offset="1" style="stop-color:#BABCBE"/>
						</linearGradient>
						<polygon id="XMLID_1849_" class="st41" points="400.2,233.9 403.5,233.6 403.5,231.3 400.2,231.6 						"/>
						<path id="XMLID_1850_" class="st29" d="M400.1,234v-2.5l3.5-0.3v2.5L400.1,234z M400.4,231.7v2l3-0.2v-2L400.4,231.7z"/>
					</g>
					<g id="XMLID_626_">
						<polygon id="XMLID_623_" class="st39" points="406.8,231.6 410.1,231.3 410.1,231 406.8,231.2 						"/>
						<polygon id="XMLID_622_" class="st39" points="407.4,232.6 410.1,232.4 410.1,232.1 407.4,232.3 						"/>
					</g>
				</g>
				<g id="XMLID_629_">
					<g id="XMLID_641_">
						
							<linearGradient id="XMLID_22_" gradientUnits="userSpaceOnUse" x1="513.9452" y1="228.0889" x2="513.9452" y2="225.6012" gradientTransform="matrix(1 0 0 1 -145.9931 0)">
							<stop  offset="0" style="stop-color:#8A8C8E"/>
							<stop  offset="0.1548" style="stop-color:#95979A"/>
							<stop  offset="0.4762" style="stop-color:#A9ABAD"/>
							<stop  offset="0.7675" style="stop-color:#B5B7BA"/>
							<stop  offset="1" style="stop-color:#BABCBE"/>
						</linearGradient>
						<polygon id="XMLID_1830_" class="st42" points="369.5,227.8 366.4,228.1 366.4,225.9 369.5,225.6 						"/>
						<path id="XMLID_1831_" class="st29" d="M366.3,228.2v-2.5l3.4-0.3v2.5L366.3,228.2z M366.5,226v2l2.9-0.2v-2L366.5,226z"/>
					</g>
					<g id="XMLID_638_">
						<polygon id="XMLID_640_" class="st39" points="360.2,226.9 364.7,226.5 364.7,226.1 360.2,226.5 						"/>
						<polygon id="XMLID_639_" class="st39" points="361.1,227.9 364.7,227.6 364.7,227.2 361.1,227.5 						"/>
					</g>
					<g id="XMLID_637_">
						
							<linearGradient id="XMLID_23_" gradientUnits="userSpaceOnUse" x1="513.9452" y1="232.291" x2="513.9452" y2="229.8114" gradientTransform="matrix(1 0 0 1 -145.9931 0)">
							<stop  offset="0" style="stop-color:#8A8C8E"/>
							<stop  offset="0.1548" style="stop-color:#95979A"/>
							<stop  offset="0.4762" style="stop-color:#A9ABAD"/>
							<stop  offset="0.7675" style="stop-color:#B5B7BA"/>
							<stop  offset="1" style="stop-color:#BABCBE"/>
						</linearGradient>
						<polygon id="XMLID_1814_" class="st43" points="369.5,232 366.4,232.3 366.4,230.1 369.5,229.8 						"/>
						<path id="XMLID_1816_" class="st29" d="M366.3,232.4V230l3.4-0.3v2.5L366.3,232.4z M366.5,230.2v2l2.9-0.2v-2L366.5,230.2z"/>
					</g>
					<g id="XMLID_634_">
						<polygon id="XMLID_636_" class="st39" points="362,230.9 364.7,230.7 364.7,230.3 362,230.6 						"/>
						<polygon id="XMLID_635_" class="st39" points="362.5,231.9 364.7,231.8 364.7,231.4 362.5,231.6 						"/>
					</g>
					<g id="XMLID_633_">
						
							<linearGradient id="XMLID_24_" gradientUnits="userSpaceOnUse" x1="513.9452" y1="236.4931" x2="513.9452" y2="234.0216" gradientTransform="matrix(1 0 0 1 -145.9931 0)">
							<stop  offset="0" style="stop-color:#8A8C8E"/>
							<stop  offset="0.1548" style="stop-color:#95979A"/>
							<stop  offset="0.4762" style="stop-color:#A9ABAD"/>
							<stop  offset="0.7675" style="stop-color:#B5B7BA"/>
							<stop  offset="1" style="stop-color:#BABCBE"/>
						</linearGradient>
						<polygon id="XMLID_1797_" class="st44" points="369.5,236.3 366.4,236.5 366.4,234.3 369.5,234 						"/>
						<path id="XMLID_1798_" class="st29" d="M366.3,236.6v-2.5l3.4-0.3v2.5L366.3,236.6z M366.5,234.4v2l2.9-0.2v-2L366.5,234.4z"
							/>
					</g>
					<g id="XMLID_630_">
						<polygon id="XMLID_632_" class="st39" points="363.7,234.9 364.7,234.9 364.7,234.5 363.7,234.6 						"/>
						<polygon id="XMLID_631_" class="st39" points="360.4,236.3 364.7,236 364.7,235.6 360.4,236 						"/>
					</g>
				</g>
				<g id="XMLID_1342_">
					<g id="XMLID_611_">
						<polygon id="XMLID_1786_" class="st45" points="371.9,236.2 397.2,234.3 397.2,223.1 371.9,225.2 						"/>
						<path id="XMLID_1787_" class="st29" d="M371.4,236.8v-12l26.3-2.2v12.1L371.4,236.8z M372.4,225.7v10l24.4-1.9v-10.2
							L372.4,225.7z"/>
					</g>
					<path id="XMLID_666_" class="st0" d="M386.1,231.9c0,0-0.1,0.1,0,0.2l2.6-1.8c0,0,0,0,0,0l0.8-0.6l0,0l0,0l0,0l0,0l-0.8,0.6
						c0,0,0,0,0,0l-2.6,1.8c0,0.1,0.1,0.1,0.1,0l0.8-0.5l-0.3,0.7c0,0,0,0.1,0,0.1c0,0,0.1,0,0.1,0l0.3-0.9c0,0,0,0,0,0l0.3-0.2
						l-0.4,1.1c0,0,0,0.1,0.1,0.1c0,0,0.1,0,0.1-0.1l0.5-1.3c0,0,0,0,0,0l0.3-0.2l-0.3,0.7c0,0,0,0.1,0,0.1c0,0,0.1,0,0.1,0l0.3-0.9
						c0,0,0,0,0,0l0.4-0.2l-0.4,1.1c0,0,0,0.1,0.1,0.1c0,0,0.1,0,0.1-0.1l0.5-1.3c0,0,0,0,0-0.1l0.6-0.4l-0.5,0.9c0,0,0,0.1,0,0.1
						c0,0,0,0,0,0c0,0,0,0,0,0c0,0,0.1,0,0.1,0l0.5-0.9v0.7c0,0,0,0,0,0l-0.8,1.1c0,0,0,0.1,0,0.1c0,0,0.1,0,0.1,0l0.7-1v0.4
						c0,0,0,0,0,0l-0.5,0.8c0,0,0,0.1,0,0.1c0,0,0.1,0,0.1,0l0.4-0.6v0.4c0,0,0,0,0,0l-0.8,1.1c0,0,0,0.1,0,0.1c0,0,0.1,0,0.1,0
						l0.7-1v0.4c0,0,0,0,0,0l-0.5,0.8c0,0,0,0.1,0,0.1c0,0,0.1,0,0.1,0l0.4-0.6v1c0,0.1,0.1,0.1,0.1,0.1v-3.1c0,0,0,0,0,0v-1v0l0,0
						l0,0v0v1c0,0,0,0,0,0v3.1c0.1,0,0.1-0.1,0.1-0.1v-1l0.4,0.6c0,0,0.1,0,0.1,0c0,0,0-0.1,0-0.1l-0.5-0.7c0,0,0,0,0,0v-0.4
						l0.7,0.9c0,0,0.1,0,0.1,0c0,0,0-0.1,0-0.1l-0.8-1c0,0,0,0,0,0v-0.4l0.4,0.6c0,0,0.1,0,0.1,0c0,0,0-0.1,0-0.1l-0.5-0.7
						c0,0,0,0,0,0V231l0.7,0.9c0,0,0.1,0,0.1,0c0,0,0-0.1,0-0.1l-0.8-1c0,0,0,0,0,0V230l0.5,0.8c0,0,0.1,0,0.1,0c0,0,0,0,0,0
						c0,0,0,0,0,0c0,0,0.1-0.1,0-0.1l-0.5-0.8l0.6,0.3c0,0,0,0,0,0.1l0.5,1.2c0,0,0.1,0.1,0.1,0c0,0,0.1-0.1,0.1-0.1l-0.4-1.1
						l0.4,0.2c0,0,0,0,0,0l0.3,0.8c0,0,0,0,0.1,0c0,0,0-0.1,0-0.1l-0.3-0.7l0.3,0.2c0,0,0,0,0,0l0.5,1.2c0,0,0.1,0.1,0.1,0
						c0,0,0.1-0.1,0.1-0.1l-0.4-1l0.3,0.2c0,0,0,0,0,0l0.3,0.8c0,0,0,0,0.1,0c0,0,0-0.1,0-0.1l-0.3-0.7l0.8,0.4c0,0,0.1,0,0.1-0.1
						l-2.7-1.4c0,0,0,0,0,0l-0.8-0.4l0,0l0,0l0,0l0,0l0.8,0.4c0,0,0,0,0,0l2.7,1.4c0-0.1,0-0.1,0-0.1l-0.8-0.4l0.7-0.2
						c0,0,0.1,0,0-0.1c0,0,0-0.1-0.1,0l-0.9,0.2c0,0,0,0,0,0l-0.3-0.2l1.1-0.3c0,0,0.1-0.1,0.1-0.1c0-0.1-0.1-0.1-0.1-0.1l-1.3,0.3
						c0,0,0,0,0,0l-0.3-0.2l0.7-0.2c0,0,0.1,0,0-0.1c0,0,0-0.1-0.1,0l-0.9,0.2c0,0,0,0,0,0l-0.4-0.2l1.1-0.3c0,0,0.1-0.1,0.1-0.1
						c0-0.1,0-0.1-0.1-0.1l-1.3,0.3c0,0,0,0,0,0l-0.6-0.3l0.9-0.1c0,0,0.1,0,0.1-0.1c0,0,0,0,0,0c0,0,0,0,0,0c0,0,0-0.1-0.1-0.1
						l-0.9,0.1l0.6-0.4c0,0,0,0,0,0l1.3,0.1c0,0,0.1,0,0.1-0.1c0-0.1,0-0.1-0.1-0.1l-1.1-0.1l0.4-0.2c0,0,0,0,0,0l0.9,0.1
						c0,0,0.1,0,0.1-0.1c0,0,0-0.1,0-0.1l-0.7,0l0.3-0.2c0,0,0,0,0,0l1.3,0.1c0,0,0.1,0,0.1-0.1c0-0.1,0-0.1-0.1-0.1l-1.1-0.1
						l0.3-0.2c0,0,0,0,0,0l0.9,0.1c0,0,0.1,0,0.1-0.1c0,0,0-0.1,0-0.1l-0.7,0l0.8-0.6c0,0,0.1-0.1,0-0.2l-2.7,1.8c0,0,0,0,0,0
						l-0.8,0.6l0,0l0,0l0,0l0,0l0.8-0.6c0,0,0,0,0,0l2.7-1.8c0-0.1-0.1-0.1-0.1,0l-0.8,0.6l0.3-0.7c0,0,0-0.1,0-0.1c0,0-0.1,0-0.1,0
						l-0.3,0.9c0,0,0,0,0,0l-0.3,0.2l0.4-1.1c0,0,0-0.1-0.1-0.1c0,0-0.1,0-0.1,0.1l-0.5,1.3c0,0,0,0,0,0l-0.3,0.2l0.3-0.7
						c0,0,0-0.1,0-0.1c0,0-0.1,0-0.1,0l-0.3,0.9c0,0,0,0,0,0l-0.4,0.2l0.4-1.1c0,0,0-0.1-0.1-0.1c0,0-0.1,0-0.1,0.1l-0.5,1.3
						c0,0,0,0,0,0.1l-0.6,0.4l0.5-0.9c0,0,0-0.1,0-0.1c0,0,0,0,0,0c0,0,0,0,0,0c0,0-0.1,0-0.1,0l-0.5,0.9v-0.7c0,0,0,0,0,0l0.8-1.1
						c0,0,0-0.1,0-0.1c0,0-0.1,0-0.1,0l-0.7,1v-0.4c0,0,0,0,0,0l0.5-0.8c0,0,0-0.1,0-0.1c0,0-0.1,0-0.1,0l-0.4,0.6v-0.4c0,0,0,0,0,0
						l0.8-1.1c0,0,0-0.1,0-0.1c0,0-0.1,0-0.1,0l-0.7,1v-0.4c0,0,0,0,0,0l0.5-0.8c0,0,0-0.1,0-0.1c0,0-0.1,0-0.1,0l-0.4,0.6v-1
						c0-0.1-0.1-0.1-0.1-0.1v3.1c0,0,0,0,0,0v1v0l0,0l0,0v0v-1c0,0,0,0,0,0v-3.1c-0.1,0-0.1,0.1-0.1,0.1v1l-0.4-0.6c0,0-0.1,0-0.1,0
						c0,0,0,0.1,0,0.1l0.5,0.7c0,0,0,0,0,0v0.4L389,226c0,0-0.1,0-0.1,0c0,0,0,0.1,0,0.1l0.8,1c0,0,0,0,0,0v0.4l-0.4-0.6
						c0,0-0.1,0-0.1,0c0,0,0,0.1,0,0.1l0.5,0.7c0,0,0,0,0,0v0.4l-0.7-0.9c0,0-0.1,0-0.1,0c0,0,0,0.1,0,0.1l0.8,1c0,0,0,0,0,0v0.7
						l-0.5-0.8c0,0-0.1,0-0.1,0c0,0,0,0,0,0c0,0,0,0,0,0c0,0-0.1,0.1,0,0.1l0.5,0.8l-0.6-0.3c0,0,0,0,0-0.1l-0.5-1.2
						c0,0-0.1-0.1-0.1,0c0,0-0.1,0.1-0.1,0.1l0.4,1.1l-0.4-0.2c0,0,0,0,0,0l-0.3-0.8c0,0,0,0-0.1,0c0,0,0,0.1,0,0.1l0.3,0.7
						l-0.3-0.2c0,0,0,0,0,0l-0.5-1.2c0,0-0.1-0.1-0.1,0c0,0-0.1,0.1-0.1,0.1l0.4,1l-0.3-0.2c0,0,0,0,0,0l-0.3-0.8c0,0,0,0-0.1,0
						c0,0,0,0.1,0,0.1l0.3,0.7l-0.8-0.4c0,0-0.1,0-0.1,0.1l2.6,1.4c0,0,0,0,0,0l0.8,0.4l0,0l0,0l0,0l0,0l-0.8-0.4c0,0,0,0,0,0
						l-2.6-1.4c0,0.1,0,0.1,0,0.1l0.8,0.4l-0.7,0.2c0,0-0.1,0,0,0.1c0,0,0,0.1,0.1,0l0.9-0.2c0,0,0,0,0,0l0.3,0.2l-1.1,0.3
						c0,0-0.1,0.1-0.1,0.1c0,0.1,0,0.1,0.1,0.1l1.3-0.3c0,0,0,0,0,0l0.3,0.2l-0.7,0.2c0,0-0.1,0,0,0.1c0,0,0,0.1,0.1,0l0.9-0.2
						c0,0,0,0,0,0l0.4,0.2l-1.1,0.3c0,0-0.1,0.1-0.1,0.1c0,0,0.1,0.1,0.1,0.1l1.3-0.3c0,0,0,0,0,0l0.6,0.3l-0.9,0.1
						c0,0-0.1,0-0.1,0.1c0,0,0,0,0,0c0,0,0,0,0,0c0,0,0,0.1,0.1,0.1l0.9-0.1l-0.6,0.4c0,0,0,0,0,0l-1.3-0.1c0,0-0.1,0-0.1,0.1
						c0,0.1,0,0.1,0.1,0.1l1.1,0.1l-0.4,0.2c0,0,0,0,0,0l-0.9-0.1c0,0-0.1,0-0.1,0.1c0,0,0,0.1,0,0.1l0.7,0l-0.3,0.2c0,0,0,0,0,0
						l-1.3-0.1c0,0-0.1,0-0.1,0.1c0,0.1,0,0.1,0.1,0.1l1.1,0.1l-0.3,0.2c0,0,0,0,0,0l-0.9-0.1c0,0-0.1,0-0.1,0.1c0,0,0,0.1,0,0.1
						l0.7,0L386.1,231.9z M389.8,229.6L389.8,229.6L389.8,229.6C389.8,229.6,389.8,229.6,389.8,229.6L389.8,229.6L389.8,229.6
						C389.8,229.6,389.8,229.6,389.8,229.6L389.8,229.6L389.8,229.6C389.8,229.6,389.8,229.6,389.8,229.6L389.8,229.6L389.8,229.6
						C389.8,229.6,389.8,229.6,389.8,229.6L389.8,229.6L389.8,229.6C389.8,229.6,389.8,229.6,389.8,229.6L389.8,229.6L389.8,229.6
						C389.8,229.6,389.8,229.6,389.8,229.6L389.8,229.6L389.8,229.6C389.8,229.6,389.8,229.6,389.8,229.6L389.8,229.6L389.8,229.6
						C389.8,229.6,389.9,229.6,389.8,229.6L389.8,229.6L389.8,229.6C389.9,229.6,389.8,229.6,389.8,229.6L389.8,229.6L389.8,229.6
						C389.8,229.6,389.8,229.6,389.8,229.6L389.8,229.6L389.8,229.6C389.8,229.6,389.8,229.6,389.8,229.6L389.8,229.6L389.8,229.6
						C389.8,229.6,389.8,229.6,389.8,229.6z"/>
					<g id="XMLID_1340_">
						<polygon id="XMLID_642_" class="st0" points="373.8,227.8 380.7,227.3 380.7,226.5 373.8,227 						"/>
						<polygon id="XMLID_645_" class="st0" points="376.9,230.3 380.7,230 380.7,229.2 376.9,229.5 						"/>
						<polygon id="XMLID_649_" class="st0" points="375.5,233.1 380.7,232.7 380.7,231.9 375.5,232.3 						"/>
					</g>
				</g>
			</g>
			<g id="XMLID_503_">
				<path id="XMLID_804_" class="st33" d="M352.5,291.1c0,0,31.4,10.2,65.2-2.9L352.5,291.1z"/>
				<path id="XMLID_802_" class="st46" d="M364.6,290.6c0,0,19.8,6.4,41-1.8L364.6,290.6z"/>
			</g>
			<g id="XMLID_502_">
				<g id="XMLID_1345_">
					<g id="XMLID_673_">
						<polygon id="XMLID_4_" class="st47" points="387.3,287.4 410.4,286.3 410.4,241.4 387.3,243.1 						"/>
						<polygon class="st48" points="388.1,287.3 409.5,286.4 409.5,241.5 388.1,243.1 						"/>
						<polygon class="st49" points="389,287.3 408.7,286.4 408.7,241.6 389,243 						"/>
						<polygon class="st50" points="389.8,287.2 407.8,286.4 407.8,241.6 389.8,242.9 						"/>
						<polygon class="st51" points="390.7,287.2 406.9,286.5 406.9,241.7 390.7,242.9 						"/>
						<polygon class="st52" points="391.5,287.2 406.1,286.5 406.1,241.8 391.5,242.8 						"/>
						<polygon class="st53" points="392.4,287.1 405.2,286.5 405.2,241.8 392.4,242.8 						"/>
						<polygon class="st54" points="393.3,287.1 404.3,286.6 404.3,241.9 393.3,242.7 						"/>
						<polygon class="st55" points="394.1,287.1 403.4,286.6 403.4,242 394.1,242.6 						"/>
						<polygon class="st56" points="395,287 402.6,286.7 402.6,242 395,242.6 						"/>
						<polygon class="st57" points="395.8,287 401.7,286.7 401.7,242.1 395.8,242.5 						"/>
						<polygon id="XMLID_3_" class="st58" points="396.7,286.9 400.8,286.7 400.8,242.1 396.7,242.4 						"/>
					</g>
					<g id="XMLID_796_">
						<polygon id="XMLID_2_" class="st59" points="360.4,288.6 384.9,287.5 384.9,243.7 360.4,245.5 						"/>
						<polygon class="st60" points="361.1,288.6 383.7,287.5 383.7,243.8 361.1,245.4 						"/>
						<polygon class="st61" points="361.8,288.5 382.4,287.6 382.4,243.9 361.8,245.4 						"/>
						<polygon class="st62" points="362.5,288.5 381.1,287.7 381.1,244 362.5,245.3 						"/>
						<polygon class="st63" points="363.2,288.5 379.8,287.7 379.8,244.1 363.2,245.3 						"/>
						<polygon class="st64" points="364,288.4 378.5,287.8 378.5,244.2 364,245.2 						"/>
						<polygon class="st65" points="364.7,288.4 377.2,287.9 377.2,244.3 364.7,245.2 						"/>
						<polygon class="st66" points="365.4,288.4 375.9,287.9 375.9,244.4 365.4,245.1 						"/>
						<polygon class="st67" points="366.1,288.3 374.7,288 374.7,244.5 366.1,245.1 						"/>
						<polygon class="st68" points="366.8,288.3 373.4,288 373.4,244.6 366.8,245 						"/>
						<polygon class="st69" points="367.5,288.3 372.1,288.1 372.1,244.6 367.5,245 						"/>
						<polygon id="XMLID_1_" class="st58" points="368.3,288.2 370.8,288.2 370.8,244.7 368.3,244.9 						"/>
					</g>
				</g>
				<g id="XMLID_504_">
					<polygon id="XMLID_511_" class="st70" points="415.5,247.1 360.7,251.1 354.5,245.5 415.5,241.1 					"/>
					<polygon id="XMLID_699_" class="st71" points="354.5,288.9 360.7,288.6 360.7,251.1 354.5,245.5 					"/>
				</g>
				<g id="XMLID_1344_">
					<g id="XMLID_809_">
						<linearGradient id="XMLID_25_" gradientUnits="userSpaceOnUse" x1="367.6776" y1="253.3374" x2="379.9529" y2="253.3374">
							<stop  offset="0" style="stop-color:#4A4B4C"/>
							<stop  offset="0.4946" style="stop-color:#757679"/>
							<stop  offset="0.7038" style="stop-color:#5B5C5E"/>
							<stop  offset="0.8822" style="stop-color:#48484A"/>
							<stop  offset="1" style="stop-color:#414042"/>
						</linearGradient>
						<rect id="XMLID_806_" x="367.7" y="248.4" class="st72" width="12.3" height="10"/>
						<ellipse id="XMLID_807_" class="st73" cx="373.8" cy="258.3" rx="6.1" ry="1.2"/>
						<linearGradient id="XMLID_26_" gradientUnits="userSpaceOnUse" x1="367.6776" y1="248.3612" x2="379.9529" y2="248.3612">
							<stop  offset="0" style="stop-color:#4A4B4C"/>
							<stop  offset="0.4946" style="stop-color:#757679"/>
							<stop  offset="0.7038" style="stop-color:#5B5C5E"/>
							<stop  offset="0.8822" style="stop-color:#48484A"/>
							<stop  offset="1" style="stop-color:#414042"/>
						</linearGradient>
						<ellipse id="XMLID_810_" class="st74" cx="373.8" cy="248.4" rx="6.1" ry="1.2"/>
						<ellipse id="XMLID_808_" class="st75" cx="373.8" cy="258.3" rx="4.9" ry="0.6"/>
					</g>
					<g id="XMLID_812_">
						<linearGradient id="XMLID_27_" gradientUnits="userSpaceOnUse" x1="397.3438" y1="251.076" x2="409.6189" y2="251.076">
							<stop  offset="0" style="stop-color:#4A4B4C"/>
							<stop  offset="0.4946" style="stop-color:#757679"/>
							<stop  offset="0.7038" style="stop-color:#5B5C5E"/>
							<stop  offset="0.8822" style="stop-color:#48484A"/>
							<stop  offset="1" style="stop-color:#414042"/>
						</linearGradient>
						<rect id="XMLID_1294_" x="397.3" y="246.1" class="st76" width="12.3" height="10"/>
						<ellipse id="XMLID_1293_" class="st73" cx="403.5" cy="256.1" rx="6.1" ry="1.2"/>
						<linearGradient id="XMLID_28_" gradientUnits="userSpaceOnUse" x1="397.3438" y1="246.0998" x2="409.6189" y2="246.0998">
							<stop  offset="0" style="stop-color:#4A4B4C"/>
							<stop  offset="0.4946" style="stop-color:#757679"/>
							<stop  offset="0.7038" style="stop-color:#5B5C5E"/>
							<stop  offset="0.8822" style="stop-color:#48484A"/>
							<stop  offset="1" style="stop-color:#414042"/>
						</linearGradient>
						<ellipse id="XMLID_1292_" class="st77" cx="403.5" cy="246.1" rx="6.1" ry="1.2"/>
						<ellipse id="XMLID_1291_" class="st75" cx="403.5" cy="256.1" rx="4.9" ry="0.6"/>
					</g>
				</g>
			</g>
		</g>
		<g id="XMLID_1428_">
			<g id="XMLID_1352_">
				<path id="XMLID_1353_" class="st78" d="M313.3,243.1c0,47.1,1.4,86.2,3.9,107.7l0,0c-4.6-23.2-10.8-60.8-10.8-107.9
					c0-47.1,4.4-87.6,9-110.8l1.6,1.3C314.4,157.7,313.3,195.9,313.3,243.1z"/>
				<linearGradient id="XMLID_29_" gradientUnits="userSpaceOnUse" x1="309.6123" y1="353.1026" x2="309.6123" y2="129.7883">
					<stop  offset="0" style="stop-color:#474747"/>
					<stop  offset="3.368726e-02" style="stop-color:#555656"/>
					<stop  offset="0.1641" style="stop-color:#898A8A"/>
					<stop  offset="0.2774" style="stop-color:#AEAFB0"/>
					<stop  offset="0.3681" style="stop-color:#C5C7C7"/>
					<stop  offset="0.4247" style="stop-color:#CDCFD0"/>
					<stop  offset="0.5155" style="stop-color:#C1C3C4"/>
					<stop  offset="0.679" style="stop-color:#A3A4A5"/>
					<stop  offset="0.8948" style="stop-color:#727272"/>
					<stop  offset="1" style="stop-color:#575757"/>
				</linearGradient>
				<path id="XMLID_757_" class="st79" d="M310,241.5c0,47.1,2.6,86.1,7.2,109.3l-3.9,2.3c-4.6-23.2-11.2-64.5-11.2-111.6
					c0-47.1,6.6-88.5,11.2-111.7l3.7,3.5C312.4,156.5,310,194.3,310,241.5z"/>
				<path id="XMLID_1351_" class="st80" d="M307.1,241.5c0,47.1,2.9,87.7,7.4,110.9l-1.3,0.8c-4.6-23.2-14.1-64.5-14.1-111.6
					c0-47.1,9.5-88.5,14.1-111.7l1.2,1.2C309.9,154.2,307.1,194.3,307.1,241.5z"/>
				<linearGradient id="XMLID_30_" gradientUnits="userSpaceOnUse" x1="305.507" y1="353.1026" x2="305.507" y2="129.7883">
					<stop  offset="0" style="stop-color:#ABABAB"/>
					<stop  offset="0.2078" style="stop-color:#C7C7C7"/>
					<stop  offset="0.4731" style="stop-color:#E6E7E8"/>
					<stop  offset="0.547" style="stop-color:#F0F0F1"/>
					<stop  offset="0.672" style="stop-color:#FFFFFF"/>
					<stop  offset="0.7288" style="stop-color:#F7F7F8"/>
					<stop  offset="0.8059" style="stop-color:#E8E9EA"/>
					<stop  offset="0.8548" style="stop-color:#DCDDDE"/>
					<stop  offset="0.9292" style="stop-color:#BDBEBE"/>
					<stop  offset="1" style="stop-color:#9C9C9C"/>
				</linearGradient>
				<path id="XMLID_1356_" class="st81" d="M305.7,241.5c0,47.1,3,88.5,7.6,111.6l-8.1-0.7c-4.6-23.2-7.5-63.9-7.5-111
					c0-47.1,2.8-87.3,7.4-110.5l8.2-1.2C308.7,153,305.7,194.3,305.7,241.5z"/>
			</g>
			<g id="XMLID_1355_">
				<path id="XMLID_1360_" class="st78" d="M346,238.2c0,47.1,2.6,92.2,5.1,113.7l0,0c-4.6-23.2-12-66.8-12-113.9
					c0-47.1,4.4-87.6,9-110.8l1.6,1.3C347.1,152.8,346,191.1,346,238.2z"/>
				<linearGradient id="XMLID_31_" gradientUnits="userSpaceOnUse" x1="342.9439" y1="354.2641" x2="342.9439" y2="124.9551">
					<stop  offset="0" style="stop-color:#474747"/>
					<stop  offset="3.368726e-02" style="stop-color:#555656"/>
					<stop  offset="0.1641" style="stop-color:#898A8A"/>
					<stop  offset="0.2774" style="stop-color:#AEAFB0"/>
					<stop  offset="0.3681" style="stop-color:#C5C7C7"/>
					<stop  offset="0.4247" style="stop-color:#CDCFD0"/>
					<stop  offset="0.5155" style="stop-color:#C1C3C4"/>
					<stop  offset="0.679" style="stop-color:#A3A4A5"/>
					<stop  offset="0.8948" style="stop-color:#727272"/>
					<stop  offset="1" style="stop-color:#575757"/>
				</linearGradient>
				<path id="XMLID_1359_" class="st82" d="M342.7,236.6c0,47.1,3.8,92.1,8.4,115.3l-3.9,2.3c-4.6-23.2-12.4-70.5-12.4-117.6
					c0-47.1,6.6-88.5,11.2-111.7l3.7,3.5C345.1,151.7,342.7,189.5,342.7,236.6z"/>
				<path id="XMLID_1358_" class="st80" d="M339.8,236.6c0,47.1,4.1,93.7,8.6,116.9l-1.3,0.8c-4.6-23.2-15.3-70.5-15.3-117.6
					c0-47.1,9.5-88.5,14.1-111.7l1.2,1.2C342.7,149.3,339.8,189.5,339.8,236.6z"/>
				<linearGradient id="XMLID_32_" gradientUnits="userSpaceOnUse" x1="338.8386" y1="354.2641" x2="338.8386" y2="124.9551">
					<stop  offset="0" style="stop-color:#ABABAB"/>
					<stop  offset="0.2078" style="stop-color:#C7C7C7"/>
					<stop  offset="0.4731" style="stop-color:#E6E7E8"/>
					<stop  offset="0.547" style="stop-color:#F0F0F1"/>
					<stop  offset="0.672" style="stop-color:#FFFFFF"/>
					<stop  offset="0.7288" style="stop-color:#F7F7F8"/>
					<stop  offset="0.8059" style="stop-color:#E8E9EA"/>
					<stop  offset="0.8548" style="stop-color:#DCDDDE"/>
					<stop  offset="0.9292" style="stop-color:#BDBEBE"/>
					<stop  offset="1" style="stop-color:#9C9C9C"/>
				</linearGradient>
				<path id="XMLID_1357_" class="st83" d="M338.4,236.6c0,47.1,4.2,94.5,8.8,117.6l-8.1-0.7c-4.6-23.2-8.7-69.9-8.7-117
					c0-47.1,2.8-87.3,7.4-110.5l8.2-1.2C341.4,148.2,338.4,189.5,338.4,236.6z"/>
			</g>
		</g>
		<polygon id="XMLID_620_" class="st84" points="325.7,537.1 327,537.3 327,76.8 325.2,77.1 		"/>
	</g>
</g>
</svg>
