<?xml version="1.0" encoding="utf-8"?>
<!-- Generator: Adobe Illustrator 21.0.2, SVG Export Plug-In . SVG Version: 6.00 Build 0)  -->
<svg version="1.1" id="Layer_1" xmlns="http://www.w3.org/2000/svg" xmlns:xlink="http://www.w3.org/1999/xlink" x="0px" y="0px"
	 viewBox="0 0 792 1224" style="enable-background:new 0 0 792 1224;" xml:space="preserve">
<style type="text/css">
	.st0{opacity:0;fill:#FFFFFF;}
	.st1{opacity:9.090909e-02;fill:#F8F8F8;}
	.st2{opacity:0.1818;fill:#F4F3F3;}
	.st3{opacity:0.2727;fill:#F0EFEF;}
	.st4{opacity:0.3636;fill:#ECEBEC;}
	.st5{opacity:0.4545;fill:#E8E8E8;}
	.st6{opacity:0.5455;fill:#E4E4E5;}
	.st7{opacity:0.6364;fill:#E0E0E1;}
	.st8{opacity:0.7273;fill:#DCDDDE;}
	.st9{opacity:0.8182;fill:#D8D9DA;}
	.st10{opacity:0.9091;fill:#D4D6D7;}
	.st11{fill:#D1D2D4;}
	.st12{fill:url(#XMLID_25_);}
	.st13{fill:#58595B;}
	.st14{fill:#6D6E71;}
	.st15{opacity:0;fill:#F1F2F2;}
	.st16{opacity:9.090909e-02;fill:#F1F2F2;}
	.st17{opacity:0.1818;fill:#F1F2F2;}
	.st18{opacity:0.2727;fill:#F1F2F2;}
	.st19{opacity:0.3636;fill:#F1F2F2;}
	.st20{opacity:0.4545;fill:#F1F2F2;}
	.st21{opacity:0.5455;fill:#F1F2F2;}
	.st22{opacity:0.6364;fill:#F1F2F2;}
	.st23{opacity:0.7273;fill:#F1F2F2;}
	.st24{opacity:0.8182;fill:#F1F2F2;}
	.st25{opacity:0.9091;fill:#F1F2F2;}
	.st26{fill:#F1F2F2;}
	.st27{fill:url(#XMLID_26_);}
	.st28{fill:#939598;}
	.st29{fill:#89BDD9;}
	.st30{opacity:0;}
	.st31{fill:#808285;}
	.st32{opacity:9.090909e-02;}
	.st33{opacity:0.1818;}
	.st34{opacity:0.2727;}
	.st35{opacity:0.3636;}
	.st36{opacity:0.4545;}
	.st37{opacity:0.5455;}
	.st38{opacity:0.6364;}
	.st39{opacity:0.7273;}
	.st40{opacity:0.8182;}
	.st41{opacity:0.9091;}
	.st42{fill:url(#XMLID_27_);}
	.st43{fill:url(#XMLID_28_);}
	.st44{fill:url(#XMLID_29_);}
	.st45{fill:url(#XMLID_30_);}
	.st46{fill:url(#XMLID_31_);}
	.st47{fill:url(#XMLID_32_);}
	.st48{fill:url(#XMLID_33_);}
	.st49{fill:url(#XMLID_34_);}
	.st50{fill:url(#XMLID_36_);}
	.st51{fill:#FFFFFF;}
	.st52{fill:url(#XMLID_37_);}
	.st53{fill:url(#XMLID_38_);}
	.st54{fill:url(#XMLID_39_);}
	.st55{fill:url(#XMLID_40_);}
	.st56{fill:url(#XMLID_41_);}
	.st57{fill:url(#XMLID_42_);}
	.st58{fill:url(#XMLID_43_);}
	.st59{fill:url(#XMLID_44_);}
	.st60{fill:url(#XMLID_45_);}
</style>
<g id="refrigerator_1">
	<g id="XMLID_3124_">
		<path id="XMLID_20_" class="st0" d="M314.2,559.8L519,532.6c2.9-0.3-25.3-18.4-25.3-18.4c-2-2.5-80.3-46.6-82.9-46.4l-160.7,23.7
			c-2.6,0.2-10.8,2.7-12.2,5.4C238,496.9,311.4,560.1,314.2,559.8z"/>
		<path class="st1" d="M315.3,558.8l202.6-26.6c2.9-0.3-24.4-18.3-24.4-18.3c-1.8-2.5-79.7-44.5-82.3-44.3L252,491.9
			c-2.6,0.2-10.2,2.8-11.4,5.6C240.6,497.5,312.4,559.1,315.3,558.8z"/>
		<path class="st2" d="M316.3,557.9l200.4-26.1c2.9-0.3-23.5-18.1-23.5-18.1c-1.7-2.5-79.1-42.4-81.8-42.2l-157.5,20.8
			c-2.6,0.2-9.7,2.9-10.7,5.7C243.2,498,313.4,558.1,316.3,557.9z"/>
		<path class="st3" d="M317.3,556.9l198.2-25.5c2.9-0.3-22.6-17.9-22.6-17.9c-1.5-2.6-78.6-40.3-81.2-40.1l-156,19.3
			c-2.7,0.2-9.1,3.1-10,5.9C245.8,498.6,314.5,557.1,317.3,556.9z"/>
		<path class="st4" d="M318.3,555.9l196.1-24.9c2.9-0.3-21.7-17.7-21.7-17.7c-1.4-2.6-78-38.2-80.7-38l-154.4,17.9
			c-2.7,0.2-8.5,3.2-9.2,6C248.4,499.2,315.5,556.1,318.3,555.9z"/>
		<path class="st5" d="M319.4,554.9l193.9-24.3c2.9-0.3-20.8-17.5-20.8-17.5c-1.2-2.6-77.4-36.1-80.1-35.9l-152.8,16.4
			c-2.7,0.2-7.9,3.4-8.5,6.2C251.1,499.7,316.5,555.1,319.4,554.9z"/>
		<path class="st6" d="M320.4,553.9l191.7-23.8c2.9-0.3-19.9-17.3-19.9-17.3c-1.1-2.7-76.8-34-79.6-33.7l-151.3,15
			c-2.7,0.2-7.3,3.5-7.7,6.3C253.7,500.3,317.5,554.1,320.4,553.9z"/>
		<path class="st7" d="M321.4,552.9l189.5-23.2c2.9-0.3-18.9-17.1-18.9-17.1c-0.9-2.7-76.3-31.9-79-31.6l-149.7,13.5
			c-2.8,0.2-6.7,3.6-7,6.4C256.3,500.9,318.6,553.1,321.4,552.9z"/>
		<path class="st8" d="M322.5,551.9l187.3-22.6c2.9-0.3-18-17-18-17c-0.8-2.7-75.7-29.8-78.5-29.5l-148.1,12.1
			c-2.8,0.2-6.2,3.8-6.3,6.6C258.9,501.4,319.6,552.1,322.5,551.9z"/>
		<path class="st9" d="M323.5,550.9l185.2-22c2.9-0.3-17.1-16.8-17.1-16.8c-0.6-2.8-75.1-27.7-77.9-27.4l-146.6,10.6
			c-2.8,0.2-5.6,3.9-5.5,6.7C261.5,502,320.6,551.1,323.5,550.9z"/>
		<path class="st10" d="M324.5,549.9l183-21.5c2.9-0.3-16.2-16.6-16.2-16.6c-0.5-2.8-74.5-25.6-77.4-25.3l-145,9.1
			c-2.8,0.3-5,4.1-4.8,6.9C264.1,502.6,321.7,550.2,324.5,549.9z"/>
		<path id="XMLID_18_" class="st11" d="M325.5,548.9L506.3,528c2.9-0.3-15.3-16.4-15.3-16.4c-0.4-2.8-73.9-23.5-76.8-23.2
			l-143.4,7.7c-2.9,0.3-4.4,4.2-4.1,7C266.7,503.1,322.7,549.2,325.5,548.9z"/>
	</g>
	<g id="XMLID_2_">
		
			<linearGradient id="XMLID_25_" gradientUnits="userSpaceOnUse" x1="325.2859" y1="308.4267" x2="502.2142" y2="308.4267" gradientTransform="matrix(1 5.520000e-02 0 1 -1.000000e-04 -15.8829)">
			<stop  offset="0" style="stop-color:#ADAFB2"/>
			<stop  offset="0.1171" style="stop-color:#C2C4C6"/>
			<stop  offset="0.2472" style="stop-color:#D4D5D7"/>
			<stop  offset="0.3746" style="stop-color:#DFE0E1"/>
			<stop  offset="0.4946" style="stop-color:#E2E3E4"/>
			<stop  offset="0.6093" style="stop-color:#DEDFE0"/>
			<stop  offset="0.753" style="stop-color:#D1D2D4"/>
			<stop  offset="0.9115" style="stop-color:#BCBEC0"/>
			<stop  offset="1" style="stop-color:#ADAFB2"/>
		</linearGradient>
		<path id="XMLID_158_" class="st12" d="M502.2,100.8l0,418.1c0,3.6-2.6,6.2-5.7,6.6l-164.7,17.9c-3.7,0.4-6.5-0.8-6.5-4.6V84.4
			c0-0.5,0.1-1.1,0.2-1.5c0.7-3,3.4-5,6.5-4.7L496.5,94c2.7,0.3,4.9,2.6,5.5,5.4C502.1,99.9,502.2,100.3,502.2,100.8z"/>
		<polygon id="XMLID_124_" class="st13" points="502.2,336.9 325.3,340.9 325.3,339.3 502.2,335.5 		"/>
		<path id="XMLID_153_" class="st14" d="M502.2,100.8L325.3,84.4c0-0.5,0.1-1.1,0.2-1.5L502,99.4
			C502.1,99.9,502.2,100.3,502.2,100.8z"/>
		<polygon id="XMLID_122_" class="st13" points="502.2,514.8 325.3,534.2 325.3,532.6 502.2,513.3 		"/>
		<g id="XMLID_470_">
			<g id="XMLID_21_">
				<polygon id="XMLID_17_" class="st15" points="463.2,332 369.6,333.9 369.6,88.5 463.2,97.2 				"/>
				<polygon class="st16" points="459.8,332.1 373.2,333.8 373.2,88.8 459.8,96.9 				"/>
				<polygon class="st17" points="456.4,332.1 376.8,333.7 376.8,89.2 456.4,96.6 				"/>
				<polygon class="st18" points="453,332.2 380.3,333.7 380.3,89.5 453,96.3 				"/>
				<polygon class="st19" points="449.6,332.3 383.9,333.6 383.9,89.8 449.6,95.9 				"/>
				<polygon class="st20" points="446.2,332.3 387.5,333.5 387.5,90.2 446.2,95.6 				"/>
				<polygon class="st21" points="442.8,332.4 391.1,333.4 391.1,90.5 442.8,95.3 				"/>
				<polygon class="st22" points="439.4,332.5 394.7,333.4 394.7,90.8 439.4,95 				"/>
				<polygon class="st23" points="436,332.5 398.3,333.3 398.3,91.2 436,94.7 				"/>
				<polygon class="st24" points="432.6,332.6 401.8,333.2 401.8,91.5 432.6,94.4 				"/>
				<polygon class="st25" points="429.2,332.7 405.4,333.2 405.4,91.8 429.2,94 				"/>
				<polygon id="XMLID_16_" class="st26" points="425.8,332.7 409,333.1 409,92.2 425.8,93.7 				"/>
			</g>
			<g id="XMLID_167_">
				<polygon id="XMLID_15_" class="st15" points="463.2,513.3 369.6,523.3 369.6,344.5 463.2,342.2 				"/>
				<polygon class="st16" points="459.8,513.6 373.2,522.9 373.2,344.4 459.8,342.3 				"/>
				<polygon class="st17" points="456.4,514 376.8,522.5 376.8,344.3 456.4,342.3 				"/>
				<polygon class="st18" points="453,514.4 380.3,522.1 380.3,344.3 453,342.4 				"/>
				<polygon class="st19" points="449.6,514.7 383.9,521.8 383.9,344.2 449.6,342.5 				"/>
				<polygon class="st20" points="446.2,515.1 387.5,521.4 387.5,344.1 446.2,342.6 				"/>
				<polygon class="st21" points="442.8,515.5 391.1,521 391.1,344 442.8,342.7 				"/>
				<polygon class="st22" points="439.4,515.8 394.7,520.6 394.7,343.9 439.4,342.8 				"/>
				<polygon class="st23" points="436,516.2 398.3,520.2 398.3,343.8 436,342.9 				"/>
				<polygon class="st24" points="432.6,516.5 401.8,519.8 401.8,343.7 432.6,342.9 				"/>
				<polygon class="st25" points="429.2,516.9 405.4,519.5 405.4,343.6 429.2,343 				"/>
				<polygon id="XMLID_14_" class="st26" points="425.8,517.3 409,519.1 409,343.5 425.8,343.1 				"/>
			</g>
		</g>
		<polygon id="XMLID_111_" class="st14" points="325.3,85.8 325.3,77.9 502.2,94.9 502.2,102.1 		"/>
		
			<linearGradient id="XMLID_26_" gradientUnits="userSpaceOnUse" x1="325.2656" y1="68.9728" x2="502.2128" y2="68.9728" gradientTransform="matrix(1 0.1622 0 1 0 -47.0653)">
			<stop  offset="0" style="stop-color:#999B9E"/>
			<stop  offset="5.681169e-02" style="stop-color:#C5C7C9"/>
			<stop  offset="0.129" style="stop-color:#FFFFFF"/>
			<stop  offset="0.1477" style="stop-color:#F3F3F4"/>
			<stop  offset="0.255" style="stop-color:#C2C4C6"/>
			<stop  offset="0.3065" style="stop-color:#AFB1B4"/>
			<stop  offset="0.3182" style="stop-color:#B7B9BB"/>
			<stop  offset="0.3639" style="stop-color:#CFD1D2"/>
			<stop  offset="0.4091" style="stop-color:#E1E2E3"/>
			<stop  offset="0.4531" style="stop-color:#EBECED"/>
			<stop  offset="0.4946" style="stop-color:#EFEFF0"/>
			<stop  offset="0.5394" style="stop-color:#EAEBEC"/>
			<stop  offset="0.5955" style="stop-color:#DDDFE0"/>
			<stop  offset="0.6573" style="stop-color:#C8CACC"/>
			<stop  offset="0.6613" style="stop-color:#C7C9CB"/>
			<stop  offset="0.7997" style="stop-color:#F4F4F5"/>
			<stop  offset="0.8226" style="stop-color:#FFFFFF"/>
			<stop  offset="1" style="stop-color:#999B9E"/>
		</linearGradient>
		<polygon id="XMLID_120_" class="st27" points="325.3,84.4 325.3,76.5 502.2,93.6 502.2,100.8 		"/>
		<g id="XMLID_106_">
			<g id="XMLID_107_">
				<path id="XMLID_110_" class="st28" d="M489.8,95.8c0,1-0.7,1.8-1.7,1.7c-0.9-0.1-1.7-1-1.7-2.1c0-1,0.7-1.8,1.7-1.7
					C489.1,93.8,489.8,94.7,489.8,95.8z"/>
				<path id="XMLID_408_" class="st29" d="M488.1,96.6c-0.5,0-0.9-0.5-0.9-1.1c0-0.5,0.4-1,0.9-0.9c0.5,0,0.9,0.5,0.9,1.1
					C489,96.2,488.6,96.6,488.1,96.6z"/>
				<path id="XMLID_109_" class="st28" d="M485.4,95.3c0,1-0.8,1.8-1.7,1.7c-0.9-0.1-1.7-1-1.7-2.1c0-1.1,0.8-1.8,1.7-1.7
					C484.6,93.4,485.4,94.3,485.4,95.3z"/>
				<path id="XMLID_210_" class="st29" d="M483.7,96.2c-0.5,0-0.9-0.5-0.9-1.1c0-0.5,0.4-1,0.9-0.9c0.5,0,0.9,0.5,0.9,1.1
					C484.6,95.8,484.2,96.2,483.7,96.2z"/>
				<path id="XMLID_108_" class="st28" d="M480.9,94.9c0,1.1-0.7,1.8-1.7,1.7c-0.9-0.1-1.7-1-1.7-2.1c0-1.1,0.8-1.8,1.7-1.7
					C480.2,93,480.9,93.9,480.9,94.9z"/>
				<path id="XMLID_207_" class="st29" d="M479.2,95.8c-0.5,0-0.9-0.5-0.9-1.1c0-0.5,0.4-1,0.9-0.9c0.5,0,0.9,0.5,0.9,1.1
					C480.1,95.4,479.7,95.8,479.2,95.8z"/>
			</g>
		</g>
		<g id="XMLID_149_">
			<g id="XMLID_35_">
				<g id="XMLID_48_">
					<g id="XMLID_56_">
						<g id="XMLID_11_" class="st30">
							<g id="XMLID_12_">
								<path id="XMLID_13_" class="st31" d="M336.6,333.3c-3.4,0.1-3.5-4.2-3.5-4.2v-79.2c-0.1-1.3,0.7-4.3,4.1-4.2
									c3.4,0.1,8.1,2.1,8.1,4.4l0,78.7C345.2,331.3,339.9,333.3,336.6,333.3z"/>
							</g>
						</g>
						<g class="st32">
							<path class="st31" d="M336.8,333.3c-3.2,0.1-3.4-4-3.4-4.2V250c-0.1-1.4,0.8-4.3,3.9-4.2c3.2,0.1,7.5,2.1,7.5,4.4l0,78.7
								C344.8,331.2,339.9,333.2,336.8,333.3z"/>
						</g>
						<g class="st33">
							<path class="st31" d="M337,333.2c-3,0.1-3.3-3.8-3.3-4.2v-79c-0.1-1.5,0.8-4.2,3.8-4.2c3,0.1,7,2,7,4.4l0,78.6
								C344.4,331.2,339.9,333.1,337,333.2z"/>
						</g>
						<g class="st34">
							<path class="st31" d="M337.2,333.1c-2.8,0.1-3.3-3.5-3.3-4.2v-78.9c-0.1-1.6,0.9-4.2,3.7-4.2c2.8,0.1,6.4,2,6.4,4.4l0,78.5
								C344,331.1,340,333.1,337.2,333.1z"/>
						</g>
						<g class="st35">
							<path class="st31" d="M337.3,333.1c-2.6,0.1-3.2-3.3-3.2-4.2v-78.8c-0.1-1.7,1-4.2,3.6-4.2c2.6,0.1,5.9,2,5.9,4.3l0,78.4
								C343.6,331.1,340,333,337.3,333.1z"/>
						</g>
						<g class="st36">
							<path class="st31" d="M337.5,333c-2.4,0-3.1-3.1-3.1-4.1v-78.7c-0.1-1.8,1.1-4.2,3.5-4.1c2.4,0,5.3,1.9,5.3,4.3l0,78.3
								C343.2,331,340,332.9,337.5,333z"/>
						</g>
						<g class="st37">
							<path class="st31" d="M337.7,332.9c-2.2,0-3.1-2.8-3.1-4.1v-78.6c0-1.9,1.1-4.2,3.4-4.1c2.2,0,4.7,1.9,4.7,4.3l0,78.3
								C342.8,331,340,332.9,337.7,332.9z"/>
						</g>
						<g class="st38">
							<path class="st31" d="M337.9,332.8c-2.1,0-3-2.6-3-4.1v-78.5c0-2,1.2-4.1,3.3-4.1c2.1,0,4.2,1.9,4.2,4.2l0,78.2
								C342.4,331,340,332.8,337.9,332.8z"/>
						</g>
						<g class="st39">
							<path class="st31" d="M338.1,332.8c-1.9,0-3-2.4-3-4.1v-78.3c0-2.1,1.3-4.1,3.2-4.1c1.9,0,3.6,1.9,3.6,4.2l0,78.1
								C341.9,330.9,340,332.7,338.1,332.8z"/>
						</g>
						<g class="st40">
							<path class="st31" d="M338.3,332.7c-1.7,0-2.9-2.1-2.9-4.1v-78.2c0-2.2,1.3-4.1,3-4.1c1.7,0,3.1,1.8,3.1,4.2l0,78
								C341.5,330.9,340,332.7,338.3,332.7z"/>
						</g>
						<g class="st41">
							<path class="st31" d="M338.5,332.6c-1.5,0-2.8-1.9-2.8-4v-78.1c0-2.2,1.4-4.1,2.9-4.1c1.5,0,2.5,1.8,2.5,4.2l0,77.9
								C341.1,330.8,340,332.6,338.5,332.6z"/>
						</g>
						<path id="XMLID_10_" class="st31" d="M338.7,332.6c-1.3,0-2.8-1.7-2.8-4v-78c0-2.3,1.5-4.1,2.8-4c1.3,0,2,1.8,2,4.1l0,77.9
							C340.7,330.8,340,332.5,338.7,332.6z"/>
					</g>
				</g>
			</g>
			<g id="XMLID_117_">
				<g id="XMLID_118_">
					
						<linearGradient id="XMLID_27_" gradientUnits="userSpaceOnUse" x1="333.0993" y1="286.7921" x2="341.2094" y2="286.7921" gradientTransform="matrix(1 5.520000e-02 0 1 -1.000000e-04 -15.8829)">
						<stop  offset="0" style="stop-color:#6E6E6E"/>
						<stop  offset="7.611839e-02" style="stop-color:#878888"/>
						<stop  offset="0.2058" style="stop-color:#ADADAE"/>
						<stop  offset="0.3257" style="stop-color:#C8C9C9"/>
						<stop  offset="0.4311" style="stop-color:#D8D9DA"/>
						<stop  offset="0.5108" style="stop-color:#DEDFE0"/>
						<stop  offset="0.5999" style="stop-color:#DADBDC"/>
						<stop  offset="0.6923" style="stop-color:#CECFCF"/>
						<stop  offset="0.7862" style="stop-color:#B9BABB"/>
						<stop  offset="0.8811" style="stop-color:#9D9D9E"/>
						<stop  offset="0.976" style="stop-color:#787979"/>
						<stop  offset="1" style="stop-color:#6E6E6E"/>
					</linearGradient>
					<path id="XMLID_119_" class="st42" d="M337.2,333.3c-2.2,0-4.1-1.8-4.1-4.2v-79.2c0-2.4,1.8-4.3,4.1-4.2c2.2,0,4,2,4,4.4V329
						C341.2,331.3,339.4,333.3,337.2,333.3z"/>
				</g>
			</g>
			<path id="XMLID_69_" class="st26" d="M337.2,330.3L337.2,330.3c-0.6,0-1.2-0.5-1.2-1.2v-79.2c0-0.7,0.5-1.2,1.2-1.2l0,0
				c0.6,0,1.2,0.6,1.2,1.3l0,79.2C338.3,329.8,337.8,330.3,337.2,330.3z"/>
		</g>
		<g id="XMLID_150_">
			<g id="XMLID_57_">
				<g id="XMLID_58_">
					<g id="XMLID_127_">
						<g id="XMLID_7_" class="st30">
							<g id="XMLID_8_">
								<path id="XMLID_9_" class="st31" d="M336.6,435.2c-3.4,0.2-3.5-4.1-3.5-4.1V352c-0.1-1.3,0.7-4.3,4.1-4.4
									c3.4-0.1,8.1,1.7,8.1,4.1v78.7C345.2,432.8,339.9,435,336.6,435.2z"/>
							</g>
						</g>
						<g class="st32">
							<path class="st31" d="M336.8,435.2c-3.2,0.2-3.4-3.8-3.4-4.1l0-79.1c-0.1-1.4,0.8-4.3,3.9-4.4c3.2-0.1,7.5,1.7,7.5,4.1v78.7
								C344.8,432.7,339.9,435,336.8,435.2z"/>
						</g>
						<g class="st33">
							<path class="st31" d="M337,435.1c-3,0.2-3.3-3.6-3.3-4l0-79c-0.1-1.5,0.8-4.3,3.8-4.4c3-0.1,7,1.7,7,4.1v78.6
								C344.4,432.7,339.9,434.9,337,435.1z"/>
						</g>
						<g class="st34">
							<path class="st31" d="M337.2,435c-2.8,0.2-3.3-3.4-3.3-4l0-78.9c-0.1-1.6,0.9-4.3,3.7-4.3c2.8-0.1,6.4,1.7,6.4,4.1v78.5
								C344,432.7,340,434.8,337.2,435z"/>
						</g>
						<g class="st35">
							<path class="st31" d="M337.3,434.9c-2.6,0.2-3.2-3.2-3.2-4l0-78.8c-0.1-1.7,1-4.3,3.6-4.3c2.6-0.1,5.9,1.7,5.9,4.1v78.4
								C343.6,432.7,340,434.7,337.3,434.9z"/>
						</g>
						<g class="st36">
							<path class="st31" d="M337.5,434.8c-2.4,0.2-3.1-2.9-3.1-4l0-78.7c-0.1-1.8,1.1-4.2,3.5-4.3c2.4-0.1,5.3,1.7,5.3,4.1v78.3
								C343.2,432.6,340,434.7,337.5,434.8z"/>
						</g>
						<g class="st37">
							<path class="st31" d="M337.7,434.8c-2.2,0.1-3.1-2.7-3.1-4l0-78.6c0-1.9,1.1-4.2,3.4-4.3c2.2-0.1,4.7,1.7,4.7,4v78.3
								C342.8,432.6,340,434.6,337.7,434.8z"/>
						</g>
						<g class="st38">
							<path class="st31" d="M337.9,434.7c-2.1,0.1-3-2.5-3-4l0-78.5c0-2,1.2-4.2,3.3-4.3c2.1-0.1,4.2,1.7,4.2,4v78.2
								C342.4,432.6,340,434.5,337.9,434.7z"/>
						</g>
						<g class="st39">
							<path class="st31" d="M338.1,434.6c-1.9,0.1-3-2.2-3-3.9l0-78.3c0-2.1,1.3-4.2,3.2-4.2c1.9,0,3.6,1.7,3.6,4v78.1
								C341.9,432.6,340,434.5,338.1,434.6z"/>
						</g>
						<g class="st40">
							<path class="st31" d="M338.3,434.5c-1.7,0.1-2.9-2-2.9-3.9l0-78.2c0-2.1,1.3-4.2,3-4.2c1.7,0,3.1,1.7,3.1,4v78
								C341.5,432.5,340,434.4,338.3,434.5z"/>
						</g>
						<g class="st41">
							<path class="st31" d="M338.5,434.4c-1.5,0.1-2.8-1.8-2.8-3.9l0-78.1c0-2.2,1.4-4.1,2.9-4.2c1.5,0,2.5,1.7,2.5,4v77.9
								C341.1,432.5,340,434.3,338.5,434.4z"/>
						</g>
						<path id="XMLID_1_" class="st31" d="M338.7,434.4c-1.3,0.1-2.8-1.6-2.8-3.9l0-78c0-2.3,1.5-4.1,2.8-4.2c1.3,0,2,1.7,2,4v77.9
							C340.7,432.5,340,434.3,338.7,434.4z"/>
					</g>
				</g>
			</g>
			<g id="XMLID_128_">
				<g id="XMLID_129_">
					
						<linearGradient id="XMLID_28_" gradientUnits="userSpaceOnUse" x1="333.0993" y1="388.6689" x2="341.2094" y2="388.6689" gradientTransform="matrix(1 5.520000e-02 0 1 -1.000000e-04 -15.8829)">
						<stop  offset="0" style="stop-color:#6E6E6E"/>
						<stop  offset="7.611839e-02" style="stop-color:#878888"/>
						<stop  offset="0.2058" style="stop-color:#ADADAE"/>
						<stop  offset="0.3257" style="stop-color:#C8C9C9"/>
						<stop  offset="0.4311" style="stop-color:#D8D9DA"/>
						<stop  offset="0.5108" style="stop-color:#DEDFE0"/>
						<stop  offset="0.5999" style="stop-color:#DADBDC"/>
						<stop  offset="0.6923" style="stop-color:#CECFCF"/>
						<stop  offset="0.7862" style="stop-color:#B9BABB"/>
						<stop  offset="0.8811" style="stop-color:#9D9D9E"/>
						<stop  offset="0.976" style="stop-color:#787979"/>
						<stop  offset="1" style="stop-color:#6E6E6E"/>
					</linearGradient>
					<path id="XMLID_130_" class="st43" d="M337.2,435.2c-2.2,0.1-4.1-1.7-4.1-4l0-79.2c0-2.4,1.8-4.3,4.1-4.4c2.2-0.1,4,1.8,4,4.2
						v78.9C341.2,433,339.4,435.1,337.2,435.2z"/>
				</g>
			</g>
			<path id="XMLID_131_" class="st26" d="M337.2,432.2L337.2,432.2c-0.6,0-1.2-0.5-1.2-1.2v-79.2c0-0.7,0.5-1.2,1.2-1.3l0,0
				c0.6,0,1.2,0.5,1.2,1.2v79.2C338.3,431.6,337.8,432.2,337.2,432.2z"/>
		</g>
		<polygon id="XMLID_144_" class="st14" points="502.2,334.6 325.3,338.4 325.3,334.7 502.2,331.2 		"/>
		
			<linearGradient id="XMLID_29_" gradientUnits="userSpaceOnUse" x1="325.2871" y1="328.7796" x2="502.215" y2="328.7796" gradientTransform="matrix(1 5.520000e-02 0 1 -1.000000e-04 -15.8829)">
			<stop  offset="0" style="stop-color:#999B9E"/>
			<stop  offset="2.622433e-02" style="stop-color:#B0B2B4"/>
			<stop  offset="6.297600e-02" style="stop-color:#CBCCCE"/>
			<stop  offset="0.1009" style="stop-color:#E0E1E2"/>
			<stop  offset="0.1398" style="stop-color:#F0F0F1"/>
			<stop  offset="0.1805" style="stop-color:#FAFAFA"/>
			<stop  offset="0.2258" style="stop-color:#FFFFFF"/>
			<stop  offset="0.3656" style="stop-color:#EFEFF0"/>
			<stop  offset="0.4392" style="stop-color:#EAEBEC"/>
			<stop  offset="0.5315" style="stop-color:#DDDFE0"/>
			<stop  offset="0.6333" style="stop-color:#C8CACC"/>
			<stop  offset="0.6398" style="stop-color:#C7C9CB"/>
			<stop  offset="0.7966" style="stop-color:#F4F4F5"/>
			<stop  offset="0.8226" style="stop-color:#FFFFFF"/>
			<stop  offset="1" style="stop-color:#999B9E"/>
		</linearGradient>
		<polygon id="XMLID_3_" class="st44" points="502.2,335.5 325.3,339.3 325.3,335.7 502.2,332.1 		"/>
		<polygon id="XMLID_147_" class="st14" points="502.2,341.1 325.3,345.5 325.3,341.9 502.2,337.8 		"/>
		
			<linearGradient id="XMLID_30_" gradientUnits="userSpaceOnUse" x1="325.2871" y1="333.7571" x2="502.215" y2="333.7571" gradientTransform="matrix(1 5.520000e-02 0 1 -1.000000e-04 -15.8829)">
			<stop  offset="0" style="stop-color:#999B9E"/>
			<stop  offset="2.622433e-02" style="stop-color:#B0B2B4"/>
			<stop  offset="6.297600e-02" style="stop-color:#CBCCCE"/>
			<stop  offset="0.1009" style="stop-color:#E0E1E2"/>
			<stop  offset="0.1398" style="stop-color:#F0F0F1"/>
			<stop  offset="0.1805" style="stop-color:#FAFAFA"/>
			<stop  offset="0.2258" style="stop-color:#FFFFFF"/>
			<stop  offset="0.3656" style="stop-color:#EFEFF0"/>
			<stop  offset="0.4392" style="stop-color:#EAEBEC"/>
			<stop  offset="0.5315" style="stop-color:#DDDFE0"/>
			<stop  offset="0.6333" style="stop-color:#C8CACC"/>
			<stop  offset="0.6398" style="stop-color:#C7C9CB"/>
			<stop  offset="0.7966" style="stop-color:#F4F4F5"/>
			<stop  offset="0.8226" style="stop-color:#FFFFFF"/>
			<stop  offset="1" style="stop-color:#999B9E"/>
		</linearGradient>
		<polygon id="XMLID_145_" class="st45" points="502.2,340.2 325.3,344.5 325.3,340.9 502.2,336.9 		"/>
		<polygon id="XMLID_132_" class="st14" points="502.2,512.4 325.3,531.6 325.3,528 502.2,509.1 		"/>
		
			<linearGradient id="XMLID_31_" gradientUnits="userSpaceOnUse" x1="325.2871" y1="514.3511" x2="502.2155" y2="514.3511" gradientTransform="matrix(1 5.520000e-02 0 1 -1.000000e-04 -15.8829)">
			<stop  offset="0" style="stop-color:#999B9E"/>
			<stop  offset="2.622433e-02" style="stop-color:#B0B2B4"/>
			<stop  offset="6.297600e-02" style="stop-color:#CBCCCE"/>
			<stop  offset="0.1009" style="stop-color:#E0E1E2"/>
			<stop  offset="0.1398" style="stop-color:#F0F0F1"/>
			<stop  offset="0.1805" style="stop-color:#FAFAFA"/>
			<stop  offset="0.2258" style="stop-color:#FFFFFF"/>
			<stop  offset="0.3656" style="stop-color:#EFEFF0"/>
			<stop  offset="0.4392" style="stop-color:#EAEBEC"/>
			<stop  offset="0.5315" style="stop-color:#DDDFE0"/>
			<stop  offset="0.6333" style="stop-color:#C8CACC"/>
			<stop  offset="0.6398" style="stop-color:#C7C9CB"/>
			<stop  offset="0.7966" style="stop-color:#F4F4F5"/>
			<stop  offset="0.8226" style="stop-color:#FFFFFF"/>
			<stop  offset="1" style="stop-color:#999B9E"/>
		</linearGradient>
		<polygon id="XMLID_146_" class="st46" points="502.2,513.3 325.3,532.6 325.3,529 502.2,510 		"/>
		<g id="XMLID_133_">
			<polygon id="XMLID_134_" class="st28" points="436.6,93.6 397.9,90 397.9,84.8 436.6,88.5 			"/>
			<polygon id="XMLID_148_" class="st29" points="435.3,92.6 399.3,89.2 399.3,85.9 435.3,89.3 			"/>
		</g>
	</g>
	<linearGradient id="XMLID_32_" gradientUnits="userSpaceOnUse" x1="325.8086" y1="524.7706" x2="501.6956" y2="534.474">
		<stop  offset="0" style="stop-color:#999B9E"/>
		<stop  offset="6.688499e-02" style="stop-color:#AAACAF"/>
		<stop  offset="0.1777" style="stop-color:#C2C4C6"/>
		<stop  offset="0.2872" style="stop-color:#D4D5D7"/>
		<stop  offset="0.394" style="stop-color:#DFE0E1"/>
		<stop  offset="0.4946" style="stop-color:#E2E3E4"/>
		<stop  offset="0.5883" style="stop-color:#DEDFE0"/>
		<stop  offset="0.7057" style="stop-color:#D1D2D4"/>
		<stop  offset="0.8358" style="stop-color:#BCBDC0"/>
		<stop  offset="0.9741" style="stop-color:#9FA1A4"/>
		<stop  offset="1" style="stop-color:#999B9E"/>
	</linearGradient>
	<polygon id="XMLID_135_" class="st47" points="502.2,525.1 325.3,544.5 325.3,534.2 502.2,514.8 	"/>
	<g id="XMLID_170_">
		<linearGradient id="XMLID_33_" gradientUnits="userSpaceOnUse" x1="267.067" y1="315.1379" x2="325.2888" y2="315.1379">
			<stop  offset="0" style="stop-color:#C4C6C8"/>
			<stop  offset="0.266" style="stop-color:#C1C3C5"/>
			<stop  offset="0.548" style="stop-color:#B6B8BB"/>
			<stop  offset="0.8364" style="stop-color:#A5A7AA"/>
			<stop  offset="1" style="stop-color:#999B9E"/>
		</linearGradient>
		<polygon id="XMLID_137_" class="st48" points="267.1,498.8 325.3,544.5 325.3,85.8 267.1,120.6 		"/>
		<g id="XMLID_168_">
			<linearGradient id="XMLID_34_" gradientUnits="userSpaceOnUse" x1="320.5502" y1="315.1379" x2="325.2888" y2="315.1379">
				<stop  offset="0" style="stop-color:#C4C6C8"/>
				<stop  offset="0.266" style="stop-color:#C1C3C5"/>
				<stop  offset="0.548" style="stop-color:#B6B8BB"/>
				<stop  offset="0.8364" style="stop-color:#A5A7AA"/>
				<stop  offset="1" style="stop-color:#999B9E"/>
			</linearGradient>
			<polygon id="XMLID_139_" class="st49" points="320.6,540.8 325.3,544.5 325.3,85.8 320.6,88.6 			"/>
			<linearGradient id="XMLID_36_" gradientUnits="userSpaceOnUse" x1="323.859" y1="544.482" x2="323.859" y2="85.7939">
				<stop  offset="0" style="stop-color:#C2C4C6"/>
				<stop  offset="5.859628e-02" style="stop-color:#CBCDCE"/>
				<stop  offset="0.209" style="stop-color:#DCDEDF"/>
				<stop  offset="0.356" style="stop-color:#E7E8E9"/>
				<stop  offset="0.4946" style="stop-color:#EBEBEC"/>
				<stop  offset="0.6257" style="stop-color:#E6E7E8"/>
				<stop  offset="0.7899" style="stop-color:#D9DBDC"/>
				<stop  offset="0.9711" style="stop-color:#C4C6C8"/>
				<stop  offset="1" style="stop-color:#C0C2C4"/>
			</linearGradient>
			<polygon id="XMLID_140_" class="st50" points="322.4,542.2 325.3,544.5 325.3,85.8 322.4,87.5 			"/>
			<polygon id="XMLID_142_" class="st51" points="324.4,543.8 325.3,544.5 325.3,85.8 324.4,86.3 			"/>
			<polygon id="XMLID_141_" class="st14" points="321.6,541.6 322.4,542.2 322.4,87.5 321.6,88 			"/>
		</g>
	</g>
	<g id="XMLID_136_">
		<g id="XMLID_138_">
			<g id="XMLID_143_">
				<linearGradient id="XMLID_37_" gradientUnits="userSpaceOnUse" x1="329.6409" y1="256.8299" x2="333.0992" y2="256.8299">
					<stop  offset="0" style="stop-color:#E2E3E4"/>
					<stop  offset="0.2269" style="stop-color:#DEDFE0"/>
					<stop  offset="0.5105" style="stop-color:#D1D2D4"/>
					<stop  offset="0.5753" style="stop-color:#CDCFD0"/>
					<stop  offset="0.6876" style="stop-color:#BCBEC0"/>
					<stop  offset="0.9181" style="stop-color:#919396"/>
					<stop  offset="1" style="stop-color:#828487"/>
				</linearGradient>
				<rect id="XMLID_169_" x="329.6" y="255.4" class="st52" width="3.5" height="2.9"/>
				<linearGradient id="XMLID_38_" gradientUnits="userSpaceOnUse" x1="329.6409" y1="258.7146" x2="333.0992" y2="258.7146">
					<stop  offset="0" style="stop-color:#A5A7AA"/>
					<stop  offset="0.1793" style="stop-color:#A1A3A6"/>
					<stop  offset="0.404" style="stop-color:#95979A"/>
					<stop  offset="0.6529" style="stop-color:#828486"/>
					<stop  offset="0.9175" style="stop-color:#67686A"/>
					<stop  offset="1" style="stop-color:#5C5D60"/>
				</linearGradient>
				<polygon id="XMLID_171_" class="st53" points="330.5,259.2 333.1,259.2 333.1,258.3 329.6,258.3 				"/>
			</g>
			<g id="XMLID_172_">
				<linearGradient id="XMLID_39_" gradientUnits="userSpaceOnUse" x1="329.6409" y1="321.268" x2="333.0992" y2="321.268">
					<stop  offset="0" style="stop-color:#E2E3E4"/>
					<stop  offset="0.2269" style="stop-color:#DEDFE0"/>
					<stop  offset="0.5105" style="stop-color:#D1D2D4"/>
					<stop  offset="0.5753" style="stop-color:#CDCFD0"/>
					<stop  offset="0.6876" style="stop-color:#BCBEC0"/>
					<stop  offset="0.9181" style="stop-color:#919396"/>
					<stop  offset="1" style="stop-color:#828487"/>
				</linearGradient>
				<rect id="XMLID_189_" x="329.6" y="319.8" class="st54" width="3.5" height="2.9"/>
				<linearGradient id="XMLID_40_" gradientUnits="userSpaceOnUse" x1="329.6409" y1="323.1527" x2="333.0992" y2="323.1527">
					<stop  offset="0" style="stop-color:#A5A7AA"/>
					<stop  offset="0.1793" style="stop-color:#A1A3A6"/>
					<stop  offset="0.404" style="stop-color:#95979A"/>
					<stop  offset="0.6529" style="stop-color:#828486"/>
					<stop  offset="0.9175" style="stop-color:#67686A"/>
					<stop  offset="1" style="stop-color:#5C5D60"/>
				</linearGradient>
				<polygon id="XMLID_204_" class="st55" points="330.5,323.6 333.1,323.6 333.1,322.7 329.6,322.7 				"/>
			</g>
		</g>
		<g id="XMLID_205_">
			<g id="XMLID_206_">
				<linearGradient id="XMLID_41_" gradientUnits="userSpaceOnUse" x1="329.6409" y1="358.7416" x2="333.0992" y2="358.7416">
					<stop  offset="0" style="stop-color:#E2E3E4"/>
					<stop  offset="0.2269" style="stop-color:#DEDFE0"/>
					<stop  offset="0.5105" style="stop-color:#D1D2D4"/>
					<stop  offset="0.5753" style="stop-color:#CDCFD0"/>
					<stop  offset="0.6876" style="stop-color:#BCBEC0"/>
					<stop  offset="0.9181" style="stop-color:#919396"/>
					<stop  offset="1" style="stop-color:#828487"/>
				</linearGradient>
				<rect id="XMLID_208_" x="329.6" y="357.3" class="st56" width="3.5" height="2.9"/>
				<linearGradient id="XMLID_42_" gradientUnits="userSpaceOnUse" x1="329.6409" y1="360.6263" x2="333.0992" y2="360.6263">
					<stop  offset="0" style="stop-color:#A5A7AA"/>
					<stop  offset="0.1793" style="stop-color:#A1A3A6"/>
					<stop  offset="0.404" style="stop-color:#95979A"/>
					<stop  offset="0.6529" style="stop-color:#828486"/>
					<stop  offset="0.9175" style="stop-color:#67686A"/>
					<stop  offset="1" style="stop-color:#5C5D60"/>
				</linearGradient>
				<polygon id="XMLID_209_" class="st57" points="330.5,361.1 333.1,361.1 333.1,360.2 329.6,360.2 				"/>
			</g>
			<g id="XMLID_211_">
				<linearGradient id="XMLID_43_" gradientUnits="userSpaceOnUse" x1="329.6409" y1="423.1797" x2="333.0992" y2="423.1797">
					<stop  offset="0" style="stop-color:#E2E3E4"/>
					<stop  offset="0.2269" style="stop-color:#DEDFE0"/>
					<stop  offset="0.5105" style="stop-color:#D1D2D4"/>
					<stop  offset="0.5753" style="stop-color:#CDCFD0"/>
					<stop  offset="0.6876" style="stop-color:#BCBEC0"/>
					<stop  offset="0.9181" style="stop-color:#919396"/>
					<stop  offset="1" style="stop-color:#828487"/>
				</linearGradient>
				<rect id="XMLID_212_" x="329.6" y="421.7" class="st58" width="3.5" height="2.9"/>
				<linearGradient id="XMLID_44_" gradientUnits="userSpaceOnUse" x1="329.6409" y1="425.0645" x2="333.0992" y2="425.0645">
					<stop  offset="0" style="stop-color:#A5A7AA"/>
					<stop  offset="0.1793" style="stop-color:#A1A3A6"/>
					<stop  offset="0.404" style="stop-color:#95979A"/>
					<stop  offset="0.6529" style="stop-color:#828486"/>
					<stop  offset="0.9175" style="stop-color:#67686A"/>
					<stop  offset="1" style="stop-color:#5C5D60"/>
				</linearGradient>
				<polygon id="XMLID_213_" class="st59" points="330.5,425.5 333.1,425.5 333.1,424.6 329.6,424.6 				"/>
			</g>
		</g>
	</g>
	<g id="XMLID_214_">
		<linearGradient id="XMLID_45_" gradientUnits="userSpaceOnUse" x1="322.4293" y1="82.0097" x2="325.2858" y2="82.0097">
			<stop  offset="0" style="stop-color:#ADAFB2"/>
			<stop  offset="0.663" style="stop-color:#D3D5D6"/>
			<stop  offset="1" style="stop-color:#E2E3E4"/>
		</linearGradient>
		<polygon id="XMLID_215_" class="st60" points="322.4,87.5 325.3,85.8 325.3,76.5 322.4,78.2 		"/>
		<polygon id="XMLID_216_" class="st51" points="324.4,77 325.3,76.5 325.3,85.8 324.4,86.3 		"/>
	</g>
</g>
</svg>
