<?xml version="1.0" encoding="utf-8"?>
<!-- Generator: Adobe Illustrator 21.0.2, SVG Export Plug-In . SVG Version: 6.00 Build 0)  -->
<svg version="1.1" id="Layer_1" xmlns="http://www.w3.org/2000/svg" xmlns:xlink="http://www.w3.org/1999/xlink" x="0px" y="0px"
	 viewBox="0 0 792 1224" style="enable-background:new 0 0 792 1224;" xml:space="preserve">
<style type="text/css">
	.st0{fill:#FFFFFF;}
	.st1{fill:#F8F8F8;}
	.st2{fill:#F4F3F3;}
	.st3{fill:#F0EFEF;}
	.st4{fill:#ECEBEC;}
	.st5{fill:#E8E8E8;}
	.st6{fill:#E4E4E5;}
	.st7{fill:#E0E0E1;}
	.st8{fill:#DCDDDE;}
	.st9{fill:#D8D9DA;}
	.st10{fill:#D4D6D7;}
	.st11{fill:#D1D2D4;}
	.st12{fill:#C2C4C6;}
	.st13{fill:url(#XMLID_6_);}
	.st14{fill:#F1F2F2;}
	.st15{fill:#6D6E71;}
	.st16{fill:#BCBEC0;}
	.st17{fill:#E6E7E8;}
	.st18{fill:#939598;}
	.st19{opacity:0;fill:#FFFFFF;}
	.st20{opacity:0.1111;fill:#FFFFFF;}
	.st21{opacity:0.2222;fill:#FFFFFF;}
	.st22{opacity:0.3333;fill:#FFFFFF;}
	.st23{opacity:0.4444;fill:#FFFFFF;}
	.st24{opacity:0.5556;fill:#FFFFFF;}
	.st25{opacity:0.6667;fill:#FFFFFF;}
	.st26{opacity:0.7778;fill:#FFFFFF;}
	.st27{opacity:0.8889;fill:#FFFFFF;}
	.st28{fill:#58595B;}
	.st29{fill:url(#XMLID_7_);}
	.st30{fill:url(#XMLID_8_);}
	.st31{fill:#ED4C52;}
	.st32{fill:url(#XMLID_9_);}
	.st33{fill:url(#XMLID_10_);}
	.st34{fill:#F7A4A9;}
	.st35{fill:#9D9FA2;}
</style>
<g id="Heater">
	<g id="XMLID_2953_">
		<ellipse id="XMLID_4_" class="st0" cx="396" cy="214.6" rx="60.2" ry="10.2"/>
		<ellipse class="st1" cx="396" cy="214.6" rx="56.9" ry="9.5"/>
		<ellipse class="st2" cx="396" cy="214.6" rx="53.7" ry="8.7"/>
		<ellipse class="st3" cx="396" cy="214.6" rx="50.5" ry="8"/>
		<ellipse class="st4" cx="396" cy="214.6" rx="47.3" ry="7.2"/>
		<ellipse class="st5" cx="396" cy="214.6" rx="44.1" ry="6.5"/>
		<ellipse class="st6" cx="396" cy="214.6" rx="40.9" ry="5.8"/>
		<ellipse class="st7" cx="396" cy="214.6" rx="37.7" ry="5"/>
		<ellipse class="st8" cx="396" cy="214.6" rx="34.4" ry="4.3"/>
		<ellipse class="st9" cx="396" cy="214.6" rx="31.2" ry="3.5"/>
		<ellipse class="st10" cx="396" cy="214.6" rx="28" ry="2.8"/>
		<ellipse id="XMLID_3_" class="st11" cx="396" cy="214.6" rx="24.8" ry="2.1"/>
	</g>
	<g id="XMLID_2545_">
		<path id="XMLID_2547_" class="st12" d="M399.2,68c-31.5,0-57,32.8-57,73.3c0,73.3,25.5,73.3,57,73.3c31.5,0,57,0,57-73.3
			C456.2,100.8,430.7,68,399.2,68z"/>
		<linearGradient id="XMLID_6_" gradientUnits="userSpaceOnUse" x1="399.1791" y1="215.8862" x2="399.1791" y2="69.2981">
			<stop  offset="0" style="stop-color:#C1C5C8"/>
			<stop  offset="0.1182" style="stop-color:#D4D8DA"/>
			<stop  offset="0.5796" style="stop-color:#E3E4E5"/>
			<stop  offset="1" style="stop-color:#EBEBEB"/>
		</linearGradient>
		<path id="XMLID_2546_" class="st13" d="M456.2,142.6c0,73.3-25.5,73.3-57,73.3c-31.5,0-57,0-57-73.3c0-12.6,2.5-24.5,6.9-34.9
			c0.1-0.2,0.1-0.4,0.2-0.5c0,0,0,0,0-0.1c0.1-0.2,0.2-0.4,0.2-0.5c9.8-22.2,28.3-37.2,49.6-37.2c21.1,0,39.6,14.8,49.4,36.8
			c0.1,0.2,0.2,0.4,0.2,0.5c0,0,0,0,0,0.1c0.1,0.2,0.2,0.4,0.2,0.5C453.6,117.7,456.2,129.8,456.2,142.6z"/>
	</g>
	<g id="XMLID_2508_">
		<path id="XMLID_2544_" class="st14" d="M442.1,164.9c0,0.6,0,1.1,0,1.7c0,0.4,0,0.9-0.1,1.3c-0.1,1.2-0.2,2.4-0.4,3.6
			c-0.1,0.4-0.1,0.9-0.2,1.3c-0.2,1.2-0.5,2.5-0.8,3.6c-0.1,0.4-0.3,0.9-0.4,1.3c-0.4,1.2-0.8,2.5-1.3,3.6c-0.2,0.4-0.4,0.9-0.6,1.3
			c-0.6,1.2-1.2,2.5-1.9,3.6c-0.3,0.4-0.5,0.9-0.8,1.3c-0.1,0.2-0.2,0.4-0.4,0.5c-0.4,0.6-0.9,1.3-1.3,1.9c-0.3,0.4-0.6,0.8-0.9,1.2
			c-0.4,0.4-0.7,0.9-1.1,1.3c-1.1,1.3-2.3,2.5-3.5,3.6c-0.5,0.5-1,0.9-1.5,1.3c-1.1,0.9-2.2,1.8-3.4,2.6c-0.4,0.3-0.9,0.6-1.3,0.9
			c-0.1,0.1-0.2,0.1-0.2,0.2c-0.7,0.5-1.5,0.9-2.3,1.3c-2.5,1.3-5.1,2.5-7.9,3.3c-0.4,0.1-0.9,0.3-1.3,0.4
			c-3.3,0.9-6.8,1.4-10.4,1.5c-0.3,0-0.5,0-0.8,0c-0.2,0-0.4,0-0.6,0c-3.6,0-7.1-0.5-10.4-1.4c-0.4-0.1-0.9-0.2-1.3-0.4
			c-2.8-0.8-5.5-2-8.1-3.3c-0.8-0.4-1.5-0.9-2.3-1.3c0,0,0,0,0,0c-0.4-0.3-0.9-0.6-1.3-0.9c-1.3-0.9-2.5-1.8-3.6-2.8
			c-0.5-0.4-1-0.9-1.5-1.3c-1.2-1.1-2.4-2.4-3.5-3.6c-0.4-0.4-0.7-0.9-1.1-1.3c-0.2-0.3-0.5-0.6-0.7-0.9c-0.5-0.6-0.9-1.2-1.3-1.9
			c-0.2-0.3-0.4-0.6-0.6-0.9c-0.3-0.4-0.6-0.9-0.8-1.3c-0.7-1.2-1.3-2.4-1.9-3.6c-0.2-0.4-0.4-0.9-0.6-1.3c-0.5-1.2-0.9-2.4-1.3-3.6
			c-0.1-0.4-0.3-0.9-0.4-1.3c-0.3-1.2-0.6-2.4-0.8-3.6c-0.1-0.4-0.2-0.9-0.2-1.3c-0.2-1.2-0.3-2.4-0.4-3.6c0-0.4-0.1-0.9-0.1-1.3
			c0-0.6,0-1.1,0-1.7c0-0.7,0-1.3,0-2c0-0.4,0-0.9,0.1-1.3c0.1-1.2,0.2-2.4,0.4-3.6c0.1-0.4,0.1-0.9,0.2-1.3
			c0.2-1.2,0.5-2.4,0.9-3.6c0.1-0.4,0.3-0.9,0.4-1.3c0.4-1.2,0.9-2.5,1.4-3.6c0.2-0.4,0.4-0.9,0.6-1.3c0.6-1.3,1.2-2.5,1.9-3.6
			c0.3-0.4,0.5-0.9,0.8-1.3c0.1-0.2,0.3-0.4,0.4-0.6c0.4-0.6,0.9-1.3,1.3-1.9c0.3-0.4,0.6-0.8,0.9-1.2c0.4-0.4,0.7-0.9,1.1-1.3
			c1.1-1.3,2.3-2.5,3.6-3.6c0.5-0.4,1-0.9,1.5-1.3c1.1-0.9,2.2-1.7,3.3-2.5c0.4-0.3,0.9-0.6,1.3-0.9c0.2-0.1,0.3-0.2,0.5-0.3
			c0.8-0.5,1.5-0.9,2.3-1.3c2.4-1.3,4.9-2.3,7.6-3.1c0.4-0.1,0.9-0.3,1.3-0.4c3.3-0.9,6.8-1.4,10.4-1.4h0.6c0.3,0,0.5,0,0.8,0
			c3.6,0.1,7.1,0.6,10.4,1.5c0.4,0.1,0.9,0.2,1.3,0.4c2.6,0.8,5,1.8,7.3,3c0.8,0.4,1.6,0.9,2.3,1.3c0.2,0.2,0.5,0.3,0.7,0.5
			c0.5,0.3,0.9,0.6,1.3,0.9c1.1,0.7,2.1,1.5,3.1,2.3c0.5,0.4,1,0.9,1.5,1.3c1.3,1.1,2.5,2.4,3.6,3.6c0.4,0.4,0.7,0.9,1.1,1.3
			c0.4,0.5,0.8,1,1.1,1.5c0.5,0.6,0.9,1.3,1.3,1.9c0.1,0.1,0.1,0.2,0.2,0.3c0.3,0.4,0.6,0.9,0.8,1.3c0.7,1.2,1.3,2.4,1.9,3.6
			c0.2,0.4,0.4,0.9,0.6,1.3c0.5,1.2,1,2.4,1.4,3.6c0.2,0.4,0.3,0.9,0.4,1.3c0.3,1.2,0.6,2.4,0.9,3.6c0.1,0.4,0.2,0.9,0.2,1.3
			c0.2,1.2,0.3,2.4,0.4,3.6c0,0.4,0.1,0.9,0.1,1.3C442.1,163.6,442.1,164.3,442.1,164.9z"/>
		<circle id="XMLID_2543_" class="st15" cx="399.2" cy="164.9" r="40.1"/>
		<g id="XMLID_2512_">
			<g id="XMLID_2521_">
				<path id="XMLID_2542_" class="st16" d="M422,127.2h-45.6c0.8-0.5,1.6-0.9,2.4-1.4h40.8C420.4,126.2,421.2,126.7,422,127.2z"/>
				<path id="XMLID_2541_" class="st16" d="M428.8,132.3h-59.3c0.5-0.5,1-0.9,1.6-1.4h56.2C427.8,131.3,428.3,131.8,428.8,132.3z"/>
				<path id="XMLID_2540_" class="st16" d="M433.6,137.4h-68.9c0.4-0.5,0.7-0.9,1.1-1.4h66.7C432.9,136.5,433.3,136.9,433.6,137.4z"
					/>
				<path id="XMLID_2539_" class="st16" d="M437.2,142.5h-76c0.3-0.5,0.5-0.9,0.8-1.4h74.3C436.6,141.6,436.9,142,437.2,142.5z"/>
				<path id="XMLID_2538_" class="st16" d="M439.8,147.6h-81.2c0.2-0.5,0.4-0.9,0.6-1.4h80C439.4,146.7,439.6,147.1,439.8,147.6z"/>
				<path id="XMLID_2537_" class="st16" d="M441.6,152.7h-84.8c0.1-0.5,0.3-0.9,0.4-1.4h84C441.3,151.8,441.5,152.2,441.6,152.7z"/>
				<path id="XMLID_2536_" class="st16" d="M442.7,157.8h-87.1c0.1-0.5,0.2-0.9,0.2-1.4h86.6C442.6,156.9,442.7,157.3,442.7,157.8z"
					/>
				<path id="XMLID_2535_" class="st16" d="M443.3,162.9h-88.2c0-0.5,0-0.9,0.1-1.4h88C443.2,162,443.2,162.5,443.3,162.9z"/>
				<path id="XMLID_2529_" class="st16" d="M443.3,166.7c0,0.5,0,0.9-0.1,1.4h-88.1c0-0.5-0.1-0.9-0.1-1.4H443.3z"/>
				<path id="XMLID_2528_" class="st16" d="M442.8,171.8c-0.1,0.5-0.1,0.9-0.2,1.4h-86.7c-0.1-0.5-0.2-0.9-0.2-1.4H442.8z"/>
				<path id="XMLID_2527_" class="st16" d="M441.7,176.9c-0.1,0.5-0.3,0.9-0.4,1.4h-84.2c-0.1-0.5-0.3-0.9-0.4-1.4H441.7z"/>
				<path id="XMLID_2526_" class="st16" d="M439.9,182c-0.2,0.5-0.4,0.9-0.6,1.4h-80.2c-0.2-0.5-0.4-0.9-0.6-1.4H439.9z"/>
				<path id="XMLID_2525_" class="st16" d="M437.3,187.1c-0.3,0.5-0.5,0.9-0.8,1.4h-74.7c-0.3-0.4-0.6-0.9-0.8-1.4H437.3z"/>
				<path id="XMLID_2524_" class="st16" d="M433.9,192.2c-0.4,0.5-0.7,0.9-1.1,1.4h-67.2c-0.4-0.4-0.8-0.9-1.1-1.4H433.9z"/>
				<path id="XMLID_2523_" class="st16" d="M429.2,197.3c-0.5,0.5-1,0.9-1.5,1.4h-56.9c-0.5-0.4-1-0.9-1.5-1.4H429.2z"/>
				<path id="XMLID_2522_" class="st16" d="M422.5,202.4c-0.8,0.5-1.5,0.9-2.3,1.4h-41.9c-0.8-0.4-1.6-0.9-2.3-1.4H422.5z"/>
			</g>
			<g id="XMLID_2513_">
				<path id="XMLID_2520_" class="st17" d="M363.8,138.6v52.7c-0.5-0.6-0.9-1.3-1.4-1.9v-48.8C362.8,139.9,363.3,139.2,363.8,138.6z
					"/>
				<path id="XMLID_2519_" class="st17" d="M375.8,127.5v74.9c-0.5-0.3-0.9-0.6-1.4-0.9v-73.1C374.9,128.1,375.4,127.8,375.8,127.5z
					"/>
				<path id="XMLID_2518_" class="st17" d="M387.9,122.3v85.3c-0.5-0.1-0.9-0.2-1.4-0.4v-84.6C387,122.5,387.4,122.4,387.9,122.3z"
					/>
				<path id="XMLID_2517_" class="st17" d="M400,120.8v88.2c-0.3,0-0.5,0-0.8,0c-0.2,0-0.4,0-0.6,0v-88.2c0.2,0,0.4,0,0.6,0
					C399.4,120.8,399.7,120.8,400,120.8z"/>
				<path id="XMLID_2516_" class="st17" d="M412,122.7v84.4c-0.5,0.1-0.9,0.3-1.4,0.4v-85.2C411.1,122.4,411.6,122.6,412,122.7z"/>
				<path id="XMLID_2515_" class="st17" d="M424.1,128.5v72.8c-0.5,0.3-0.9,0.6-1.4,0.9v-74.6C423.2,127.9,423.6,128.2,424.1,128.5z
					"/>
				<path id="XMLID_2514_" class="st17" d="M436.2,140.9V189c-0.4,0.7-0.9,1.3-1.4,2v-52.1C435.3,139.5,435.7,140.2,436.2,140.9z"/>
			</g>
		</g>
		<path id="XMLID_2509_" class="st18" d="M443.3,162.9c0-0.5,0-0.9-0.1-1.4c-0.1-1.3-0.2-2.5-0.5-3.7c-0.1-0.5-0.2-0.9-0.2-1.4
			c-0.2-1.3-0.6-2.5-0.9-3.7c-0.1-0.5-0.3-0.9-0.4-1.4c-0.4-1.3-0.9-2.5-1.4-3.7c-0.2-0.5-0.4-0.9-0.6-1.4c-0.6-1.3-1.3-2.5-2-3.7
			c-0.3-0.5-0.6-0.9-0.8-1.4c-0.1-0.1-0.1-0.2-0.2-0.3c-0.4-0.7-0.9-1.3-1.4-2c-0.4-0.5-0.8-1-1.2-1.5c-0.4-0.5-0.7-0.9-1.1-1.4
			c-1.1-1.3-2.4-2.6-3.7-3.7c-0.5-0.5-1-0.9-1.6-1.4c-1-0.8-2.1-1.6-3.2-2.4c-0.4-0.3-0.9-0.6-1.4-0.9c-0.2-0.2-0.5-0.3-0.7-0.5
			c-0.8-0.5-1.6-0.9-2.4-1.4c-2.4-1.2-4.9-2.3-7.5-3.1c-0.4-0.1-0.9-0.3-1.4-0.4c-3.4-0.9-7-1.4-10.7-1.5c-0.3,0-0.5,0-0.8,0
			c-0.2,0-0.4,0-0.6,0c-3.7,0-7.3,0.5-10.7,1.4c-0.5,0.1-0.9,0.2-1.4,0.4c-2.7,0.8-5.3,1.9-7.8,3.1c-0.8,0.4-1.6,0.9-2.4,1.4
			c-0.2,0.1-0.3,0.2-0.5,0.3c-0.5,0.3-0.9,0.6-1.4,0.9c-1.2,0.8-2.3,1.6-3.4,2.5c-0.5,0.4-1.1,0.9-1.6,1.4c-1.3,1.2-2.5,2.4-3.7,3.7
			c-0.4,0.4-0.8,0.9-1.1,1.4c-0.3,0.4-0.6,0.8-0.9,1.2c-0.5,0.6-0.9,1.3-1.4,1.9c-0.1,0.2-0.3,0.4-0.4,0.6c-0.3,0.5-0.6,0.9-0.8,1.4
			c-0.7,1.2-1.4,2.5-2,3.7c-0.2,0.5-0.4,0.9-0.6,1.4c-0.5,1.2-1,2.5-1.4,3.7c-0.2,0.4-0.3,0.9-0.4,1.4c-0.3,1.2-0.7,2.5-0.9,3.7
			c-0.1,0.4-0.2,0.9-0.2,1.4c-0.2,1.2-0.3,2.5-0.5,3.7c0,0.4-0.1,0.9-0.1,1.4c0,0.7,0,1.3,0,2c0,0.6,0,1.2,0,1.7
			c0,0.5,0,0.9,0.1,1.4c0.1,1.3,0.2,2.5,0.4,3.7c0.1,0.5,0.1,0.9,0.2,1.4c0.2,1.3,0.5,2.5,0.9,3.7c0.1,0.5,0.3,0.9,0.4,1.4
			c0.4,1.3,0.9,2.5,1.4,3.7c0.2,0.5,0.4,0.9,0.6,1.4c0.6,1.3,1.2,2.5,1.9,3.7c0.3,0.5,0.5,0.9,0.8,1.4c0.2,0.3,0.4,0.6,0.6,0.9
			c0.4,0.7,0.9,1.3,1.4,1.9c0.2,0.3,0.5,0.6,0.7,0.9c0.4,0.5,0.7,0.9,1.1,1.4c1.1,1.3,2.3,2.6,3.6,3.7c0.5,0.5,1,0.9,1.5,1.4
			c1.2,1,2.5,2,3.8,2.9c0.5,0.3,0.9,0.6,1.4,0.9c0,0,0,0,0,0c0.8,0.5,1.5,0.9,2.3,1.4c2.6,1.4,5.4,2.6,8.3,3.5
			c0.4,0.1,0.9,0.3,1.4,0.4c3.4,0.9,7,1.4,10.7,1.4c0.2,0,0.4,0,0.6,0c0.3,0,0.5,0,0.8,0c3.7-0.1,7.3-0.6,10.7-1.5
			c0.5-0.1,0.9-0.2,1.4-0.4c2.8-0.8,5.5-2,8.1-3.4c0.8-0.4,1.6-0.9,2.3-1.4c0.1-0.1,0.2-0.1,0.3-0.2c0.5-0.3,0.9-0.6,1.4-0.9
			c1.2-0.8,2.4-1.7,3.5-2.7c0.5-0.4,1-0.9,1.5-1.4c1.3-1.2,2.5-2.4,3.6-3.7c0.4-0.4,0.8-0.9,1.1-1.4c0.3-0.4,0.6-0.8,0.9-1.2
			c0.5-0.6,0.9-1.3,1.4-2c0.1-0.2,0.2-0.4,0.4-0.6c0.3-0.4,0.6-0.9,0.8-1.4c0.7-1.2,1.4-2.5,2-3.7c0.2-0.5,0.4-0.9,0.6-1.4
			c0.5-1.2,1-2.5,1.4-3.7c0.1-0.5,0.3-0.9,0.4-1.4c0.3-1.2,0.6-2.5,0.9-3.7c0.1-0.5,0.2-0.9,0.2-1.4c0.2-1.2,0.3-2.5,0.4-3.7
			c0-0.5,0.1-0.9,0.1-1.4c0-0.6,0-1.1,0-1.7C443.3,164.3,443.3,163.6,443.3,162.9z M442,166.6c0,0.4,0,0.9-0.1,1.3
			c-0.1,1.2-0.2,2.4-0.4,3.6c-0.1,0.4-0.1,0.9-0.2,1.3c-0.2,1.2-0.5,2.5-0.8,3.6c-0.1,0.4-0.3,0.9-0.4,1.3c-0.4,1.2-0.8,2.5-1.3,3.6
			c-0.2,0.4-0.4,0.9-0.6,1.3c-0.6,1.2-1.2,2.5-1.9,3.6c-0.3,0.4-0.5,0.9-0.8,1.3c-0.1,0.2-0.2,0.4-0.4,0.5c-0.4,0.6-0.9,1.3-1.3,1.9
			c-0.3,0.4-0.6,0.8-0.9,1.2c-0.4,0.4-0.7,0.9-1.1,1.3c-1.1,1.3-2.3,2.5-3.5,3.6c-0.5,0.5-1,0.9-1.5,1.3c-1.1,0.9-2.2,1.8-3.4,2.6
			c-0.4,0.3-0.9,0.6-1.3,0.9c-0.1,0.1-0.2,0.1-0.2,0.2c-0.7,0.5-1.5,0.9-2.3,1.3c-2.5,1.3-5.1,2.5-7.9,3.3c-0.4,0.1-0.9,0.3-1.3,0.4
			c-3.3,0.9-6.8,1.4-10.4,1.5c-0.3,0-0.5,0-0.8,0c-0.2,0-0.4,0-0.6,0c-3.6,0-7.1-0.5-10.4-1.4c-0.4-0.1-0.9-0.2-1.3-0.4
			c-2.8-0.8-5.5-2-8.1-3.3c-0.8-0.4-1.5-0.9-2.3-1.3c0,0,0,0,0,0c-0.4-0.3-0.9-0.6-1.3-0.9c-1.3-0.9-2.5-1.8-3.6-2.8
			c-0.5-0.4-1-0.9-1.5-1.3c-1.2-1.1-2.4-2.4-3.5-3.6c-0.4-0.4-0.7-0.9-1.1-1.3c-0.2-0.3-0.5-0.6-0.7-0.9c-0.5-0.6-0.9-1.2-1.3-1.9
			c-0.2-0.3-0.4-0.6-0.6-0.9c-0.3-0.4-0.6-0.9-0.8-1.3c-0.7-1.2-1.3-2.4-1.9-3.6c-0.2-0.4-0.4-0.9-0.6-1.3c-0.5-1.2-0.9-2.4-1.3-3.6
			c-0.1-0.4-0.3-0.9-0.4-1.3c-0.3-1.2-0.6-2.4-0.8-3.6c-0.1-0.4-0.2-0.9-0.2-1.3c-0.2-1.2-0.3-2.4-0.4-3.6c0-0.4-0.1-0.9-0.1-1.3
			c0-0.6,0-1.1,0-1.7c0-0.7,0-1.3,0-2c0-0.4,0-0.9,0.1-1.3c0.1-1.2,0.2-2.4,0.4-3.6c0.1-0.4,0.1-0.9,0.2-1.3
			c0.2-1.2,0.5-2.4,0.9-3.6c0.1-0.4,0.3-0.9,0.4-1.3c0.4-1.2,0.9-2.5,1.4-3.6c0.2-0.4,0.4-0.9,0.6-1.3c0.6-1.3,1.2-2.5,1.9-3.6
			c0.3-0.4,0.5-0.9,0.8-1.3c0.1-0.2,0.3-0.4,0.4-0.6c0.4-0.6,0.9-1.3,1.3-1.9c0.3-0.4,0.6-0.8,0.9-1.2c0.4-0.4,0.7-0.9,1.1-1.3
			c1.1-1.3,2.3-2.5,3.6-3.6c0.5-0.4,1-0.9,1.5-1.3c1.1-0.9,2.2-1.7,3.3-2.5c0.4-0.3,0.9-0.6,1.3-0.9c0.2-0.1,0.3-0.2,0.5-0.3
			c0.8-0.5,1.5-0.9,2.3-1.3c2.4-1.3,4.9-2.3,7.6-3.1c0.4-0.1,0.9-0.3,1.3-0.4c3.3-0.9,6.8-1.4,10.4-1.4h0.6c0.3,0,0.5,0,0.8,0
			c3.6,0.1,7.1,0.6,10.4,1.5c0.4,0.1,0.9,0.2,1.3,0.4c2.6,0.8,5,1.8,7.3,3c0.8,0.4,1.6,0.9,2.3,1.3c0.2,0.2,0.5,0.3,0.7,0.5
			c0.5,0.3,0.9,0.6,1.3,0.9c1.1,0.7,2.1,1.5,3.1,2.3c0.5,0.4,1,0.9,1.5,1.3c1.3,1.1,2.5,2.4,3.6,3.6c0.4,0.4,0.7,0.9,1.1,1.3
			c0.4,0.5,0.8,1,1.1,1.5c0.5,0.6,0.9,1.3,1.3,1.9c0.1,0.1,0.1,0.2,0.2,0.3c0.3,0.4,0.6,0.9,0.8,1.3c0.7,1.2,1.3,2.4,1.9,3.6
			c0.2,0.4,0.4,0.9,0.6,1.3c0.5,1.2,1,2.4,1.4,3.6c0.2,0.4,0.3,0.9,0.4,1.3c0.3,1.2,0.6,2.4,0.9,3.6c0.1,0.4,0.2,0.9,0.2,1.3
			c0.2,1.2,0.3,2.4,0.4,3.6c0,0.4,0.1,0.9,0.1,1.3c0,0.7,0,1.3,0,2C442.1,165.5,442.1,166.1,442,166.6z"/>
	</g>
	<g id="XMLID_1746_">
		<path id="XMLID_2_" class="st19" d="M443.5,101.7c5.5,16,20.2,31.7-44.3,30.6c-74.3-1.3-45.8-20.1-45-30
			c0.7-8.8,23.2-31.2,45-31.2C421,71,438.1,85.9,443.5,101.7z"/>
		<path class="st20" d="M440.5,99.9c4.9,14.7,17,29.2-41.3,28.1c-67.1-1.2-42.7-18.3-42-27.6c0.6-8.4,21.5-28.7,42-28.7
			C419.7,71.7,435.7,85.3,440.5,99.9z"/>
		<path class="st21" d="M437.6,98.2c4.2,13.5,13.9,26.6-38.4,25.7c-60-1-39.6-16.5-39-25.2c0.5-7.9,19.8-26.2,39-26.2
			C418.4,72.4,433.4,84.8,437.6,98.2z"/>
		<path class="st22" d="M434.7,96.4c3.6,12.2,10.8,24-35.5,23.2c-52.8-0.9-36.5-14.7-36-22.9c0.5-7.5,18.1-23.7,36-23.7
			C417,73.1,431.1,84.3,434.7,96.4z"/>
		<path class="st23" d="M431.7,94.7c3,11,7.7,21.4-32.5,20.8c-45.7-0.7-33.4-12.9-33-20.5c0.4-7,16.4-21.1,33-21.1
			C415.7,73.8,428.7,83.8,431.7,94.7z"/>
		<path class="st24" d="M428.8,92.9c2.4,9.7,4.5,18.9-29.6,18.3c-38.5-0.6-30.3-11.1-29.9-18.1c0.3-6.5,14.8-18.6,29.9-18.6
			C414.4,74.5,426.4,83.2,428.8,92.9z"/>
		<path class="st25" d="M425.8,91.1c1.8,8.5,1.4,16.3-26.7,15.9c-31.3-0.4-27.2-9.3-26.9-15.7c0.2-6.1,13.1-16.1,26.9-16.1
			C413,75.2,424,82.7,425.8,91.1z"/>
		<path class="st26" d="M422.9,89.4c1.2,7.2-1.7,13.7-23.7,13.4c-24.2-0.3-24.1-7.4-23.9-13.3c0.2-5.6,11.4-13.6,23.9-13.6
			C411.7,75.9,421.7,82.2,422.9,89.4z"/>
		<path class="st27" d="M420,87.6c0.6,6-4.9,11.1-20.8,11c-17-0.1-21-5.6-20.9-10.9c0.1-5.2,9.7-11.1,20.9-11.1
			C410.4,76.6,419.4,81.7,420,87.6z"/>
		<ellipse id="XMLID_1_" class="st0" cx="399.2" cy="85.9" rx="17.9" ry="8.6"/>
	</g>
	<g id="XMLID_2478_">
		<g id="XMLID_2498_">
			<g id="XMLID_2503_">
				<circle id="XMLID_2507_" class="st28" cx="376.2" cy="104.6" r="8.2"/>
				<g id="XMLID_2504_">
					<linearGradient id="XMLID_7_" gradientUnits="userSpaceOnUse" x1="368.5861" y1="104.605" x2="383.8235" y2="104.605">
						<stop  offset="0" style="stop-color:#D1D3D4"/>
						<stop  offset="0.2519" style="stop-color:#CDCED0"/>
						<stop  offset="0.5675" style="stop-color:#C0C2C4"/>
						<stop  offset="0.9157" style="stop-color:#ABADB0"/>
						<stop  offset="1" style="stop-color:#A5A7AA"/>
					</linearGradient>
					<path id="XMLID_2506_" class="st29" d="M383.8,104.6c0,3.6-2.5,6.6-5.8,7.4c-0.6,0.2-1.2,0.2-1.8,0.2c-0.6,0-1.3-0.1-1.8-0.2
						c-3.3-0.8-5.8-3.8-5.8-7.4c0-3.6,2.5-6.6,5.8-7.4c0.6-0.2,1.2-0.2,1.8-0.2c0.6,0,1.2,0.1,1.8,0.2
						C381.4,98,383.8,101,383.8,104.6z"/>
					
						<linearGradient id="XMLID_8_" gradientUnits="userSpaceOnUse" x1="1117.5035" y1="697.1242" x2="1121.1757" y2="697.1242" gradientTransform="matrix(0 -1 1 0 -320.9198 1223.9446)">
						<stop  offset="0" style="stop-color:#4D4D4D"/>
						<stop  offset="3.374890e-02" style="stop-color:#5D5D5D"/>
						<stop  offset="0.1484" style="stop-color:#8D8D8D"/>
						<stop  offset="0.2571" style="stop-color:#B3B3B4"/>
						<stop  offset="0.3569" style="stop-color:#CECFCF"/>
						<stop  offset="0.4446" style="stop-color:#DEDFE0"/>
						<stop  offset="0.5108" style="stop-color:#E4E5E6"/>
						<stop  offset="0.5874" style="stop-color:#E0E1E2"/>
						<stop  offset="0.6668" style="stop-color:#D4D4D5"/>
						<stop  offset="0.7476" style="stop-color:#BFC0C1"/>
						<stop  offset="0.8292" style="stop-color:#A2A3A4"/>
						<stop  offset="0.9115" style="stop-color:#7E7E7E"/>
						<stop  offset="0.9934" style="stop-color:#515151"/>
						<stop  offset="1" style="stop-color:#4D4D4D"/>
					</linearGradient>
					<path id="XMLID_2505_" class="st30" d="M368.8,102.8h14.8c0.2,0.6,0.2,1.2,0.2,1.8c0,0.6-0.1,1.3-0.2,1.8h-14.8
						c-0.2-0.6-0.2-1.2-0.2-1.8C368.6,104,368.7,103.4,368.8,102.8z"/>
				</g>
			</g>
			<g id="XMLID_2499_">
				<rect id="XMLID_2502_" x="375.6" y="91.8" class="st28" width="1.3" height="3.4"/>
				<rect id="XMLID_2501_" x="386" y="104" class="st28" width="3.4" height="1.3"/>
				<rect id="XMLID_2500_" x="363.4" y="104" class="st28" width="3.4" height="1.3"/>
			</g>
		</g>
		<g id="XMLID_2484_">
			<g id="XMLID_2490_">
				<circle id="XMLID_2497_" class="st31" cx="407.8" cy="104.9" r="1.1"/>
				<circle id="XMLID_2496_" class="st31" cx="409.5" cy="99.5" r="1.1"/>
				<circle id="XMLID_2495_" class="st31" cx="413.5" cy="95.7" r="1.1"/>
				<circle id="XMLID_2494_" class="st31" cx="425.9" cy="95.7" r="1.1"/>
				<circle id="XMLID_2493_" class="st31" cx="429.4" cy="99.5" r="1.1"/>
				<circle id="XMLID_2492_" class="st31" cx="430.9" cy="104.9" r="1.1"/>
				<circle id="XMLID_2491_" class="st31" cx="419.4" cy="93.6" r="1.1"/>
			</g>
			<g id="XMLID_2485_">
				<circle id="XMLID_2489_" class="st28" cx="419.4" cy="104.6" r="8.2"/>
				<g id="XMLID_2486_">
					<linearGradient id="XMLID_9_" gradientUnits="userSpaceOnUse" x1="411.8196" y1="104.605" x2="427.0572" y2="104.605">
						<stop  offset="0" style="stop-color:#D1D3D4"/>
						<stop  offset="0.2519" style="stop-color:#CDCED0"/>
						<stop  offset="0.5675" style="stop-color:#C0C2C4"/>
						<stop  offset="0.9157" style="stop-color:#ABADB0"/>
						<stop  offset="1" style="stop-color:#A5A7AA"/>
					</linearGradient>
					<path id="XMLID_2488_" class="st32" d="M427.1,104.6c0,3.6-2.5,6.6-5.8,7.4c-0.6,0.2-1.2,0.2-1.8,0.2c-0.6,0-1.3-0.1-1.8-0.2
						c-3.3-0.8-5.8-3.8-5.8-7.4c0-3.6,2.5-6.6,5.8-7.4c0.6-0.2,1.2-0.2,1.8-0.2c0.6,0,1.2,0.1,1.8,0.2
						C424.6,98,427.1,101,427.1,104.6z"/>
					
						<linearGradient id="XMLID_10_" gradientUnits="userSpaceOnUse" x1="1117.5035" y1="740.3578" x2="1121.1757" y2="740.3578" gradientTransform="matrix(0 -1 1 0 -320.9198 1223.9446)">
						<stop  offset="0" style="stop-color:#4D4D4D"/>
						<stop  offset="3.374890e-02" style="stop-color:#5D5D5D"/>
						<stop  offset="0.1484" style="stop-color:#8D8D8D"/>
						<stop  offset="0.2571" style="stop-color:#B3B3B4"/>
						<stop  offset="0.3569" style="stop-color:#CECFCF"/>
						<stop  offset="0.4446" style="stop-color:#DEDFE0"/>
						<stop  offset="0.5108" style="stop-color:#E4E5E6"/>
						<stop  offset="0.5874" style="stop-color:#E0E1E2"/>
						<stop  offset="0.6668" style="stop-color:#D4D4D5"/>
						<stop  offset="0.7476" style="stop-color:#BFC0C1"/>
						<stop  offset="0.8292" style="stop-color:#A2A3A4"/>
						<stop  offset="0.9115" style="stop-color:#7E7E7E"/>
						<stop  offset="0.9934" style="stop-color:#515151"/>
						<stop  offset="1" style="stop-color:#4D4D4D"/>
					</linearGradient>
					<path id="XMLID_2487_" class="st33" d="M412,102.8h14.8c0.2,0.6,0.2,1.2,0.2,1.8c0,0.6-0.1,1.3-0.2,1.8H412
						c-0.2-0.6-0.2-1.2-0.2-1.8C411.8,104,411.9,103.4,412,102.8z"/>
				</g>
			</g>
		</g>
		<g id="XMLID_2479_">
			<ellipse id="XMLID_2483_" class="st31" cx="398.6" cy="81.7" rx="3.9" ry="2"/>
			<path id="XMLID_2480_" class="st15" d="M398.6,83.9c-2.3,0-4.1-1-4.1-2.2c0-1.2,1.8-2.2,4.1-2.2c2.3,0,4.1,1,4.1,2.2
				C402.7,82.9,400.9,83.9,398.6,83.9z M398.6,79.9c-2,0-3.7,0.8-3.7,1.8c0,1,1.7,1.8,3.7,1.8c2,0,3.7-0.8,3.7-1.8
				C402.3,80.8,400.6,79.9,398.6,79.9z"/>
			<ellipse id="XMLID_2613_" class="st34" cx="398.6" cy="81.3" rx="2.7" ry="1"/>
		</g>
	</g>
	<g id="XMLID_2471_">
		<g id="XMLID_2475_">
			<path id="XMLID_2476_" class="st35" d="M448.8,106.6c-0.1-0.2-0.2-0.4-0.2-0.5c-13.9,7.2-31.2,11.5-50,11.5
				c-18.3,0-35.3-4.1-49-11.1c-0.1,0.2-0.2,0.4-0.2,0.5c0,0,0,0,0,0.1c13.8,7,30.9,11.1,49.3,11.1
				C417.4,118.3,434.8,113.9,448.8,106.6C448.8,106.6,448.8,106.6,448.8,106.6z"/>
		</g>
		<g id="XMLID_2472_">
			<path id="XMLID_2473_" class="st0" d="M448.8,106.6c-14,7.3-31.4,11.7-50.2,11.7c-18.4,0-35.5-4.2-49.3-11.2
				c-0.1,0.2-0.2,0.4-0.3,0.6c13.9,7.1,31,11.3,49.5,11.3c18.9,0,36.4-4.4,50.5-11.7C449,107,448.9,106.8,448.8,106.6z"/>
		</g>
	</g>
</g>
</svg>
