<?xml version="1.0" encoding="utf-8"?>
<!-- Generator: Adobe Illustrator 21.0.2, SVG Export Plug-In . SVG Version: 6.00 Build 0)  -->
<svg version="1.1" id="Layer_1" xmlns="http://www.w3.org/2000/svg" xmlns:xlink="http://www.w3.org/1999/xlink" x="0px" y="0px"
	 viewBox="0 0 792 1224" style="enable-background:new 0 0 792 1224;" xml:space="preserve">
<style type="text/css">
	.st0{opacity:0;fill:#FFFFFF;}
	.st1{opacity:9.090909e-02;fill:#F8F8F8;}
	.st2{opacity:0.1818;fill:#F4F3F3;}
	.st3{opacity:0.2727;fill:#F0EFEF;}
	.st4{opacity:0.3636;fill:#ECEBEC;}
	.st5{opacity:0.4545;fill:#E8E8E8;}
	.st6{opacity:0.5455;fill:#E4E4E5;}
	.st7{opacity:0.6364;fill:#E0E0E1;}
	.st8{opacity:0.7273;fill:#DCDDDE;}
	.st9{opacity:0.8182;fill:#D8D9DA;}
	.st10{opacity:0.9091;fill:#D4D6D7;}
	.st11{fill:#D1D2D4;}
	.st12{fill:#E6E7E8;}
	.st13{fill:#B0B1B5;}
	.st14{fill:#AAAAAE;}
	.st15{fill:#FFFFFF;}
	.st16{fill:#7D7D80;}
	.st17{fill:#626164;}
	.st18{fill:url(#XMLID_10_);}
	.st19{fill:#58595B;}
	.st20{fill:url(#XMLID_11_);}
	.st21{fill:url(#XMLID_12_);}
	.st22{fill:url(#XMLID_13_);}
	.st23{opacity:0.75;fill:#F1F2F2;}
	.st24{fill:url(#XMLID_14_);}
	.st25{fill:url(#XMLID_15_);}
	.st26{fill:url(#XMLID_16_);}
	.st27{fill:url(#XMLID_17_);}
	.st28{fill:url(#XMLID_18_);}
	.st29{fill:url(#XMLID_19_);}
	.st30{fill:url(#XMLID_20_);}
	.st31{fill:url(#XMLID_21_);}
	.st32{fill:url(#XMLID_22_);}
	.st33{fill:url(#XMLID_23_);}
	.st34{fill:url(#XMLID_24_);}
	.st35{fill:url(#XMLID_25_);}
	.st36{fill:url(#XMLID_26_);}
	.st37{fill:url(#XMLID_27_);}
	.st38{fill:#939598;}
	.st39{fill:#C8CACE;}
	.st40{fill:#BCBEC0;}
	.st41{fill:#A7A9AC;}
	.st42{fill:#808285;}
	.st43{fill:#6D6E71;}
	.st44{fill:#E1E2E3;}
	.st45{fill:#F6F7F8;}
	.st46{fill:#9D9FA2;}
	.st47{fill:#F1F2F2;}
	.st48{fill:#EEEFEF;}
	.st49{fill:#EBECED;}
	.st50{fill:#E8E9EA;}
	.st51{fill:#E5E6E7;}
	.st52{fill:#E2E3E4;}
	.st53{fill:#E0E1E2;}
	.st54{fill:#DDDEDF;}
	.st55{fill:#DADBDC;}
	.st56{fill:#D7D8DA;}
	.st57{fill:#D4D5D7;}
	.st58{fill:#D1D3D4;}
	.st59{fill:#7B7A7D;}
	.st60{fill:#EF4136;}
	.st61{fill:#EF9792;}
	.st62{fill:#80939B;}
	.st63{fill:#ACC6D1;}
	.st64{fill:#636466;}
	.st65{fill:#595A5C;}
	.st66{fill:#EDAE46;}
	.st67{fill:#282829;}
	.st68{fill:url(#XMLID_28_);}
	.st69{fill:#151515;}
	.st70{filter:url(#Adobe_OpacityMaskFilter);}
	.st71{fill:url(#XMLID_30_);}
	.st72{mask:url(#XMLID_29_);fill:#FFFFFF;}
	.st73{opacity:0;fill:#805A24;}
	.st74{opacity:9.090909e-02;fill:#875F25;}
	.st75{opacity:0.1818;fill:#8E6427;}
	.st76{opacity:0.2727;fill:#956928;}
	.st77{opacity:0.3636;fill:#9D6E2A;}
	.st78{opacity:0.4545;fill:#A4732B;}
	.st79{opacity:0.5455;fill:#AC792D;}
	.st80{opacity:0.6364;fill:#B47E2E;}
	.st81{opacity:0.7273;fill:#BD8430;}
	.st82{opacity:0.8182;fill:#C58A32;}
	.st83{opacity:0.9091;fill:#CE9033;}
	.st84{fill:#D89835;}
	.st85{fill:#414042;}
	.st86{fill:url(#XMLID_31_);}
	.st87{fill:url(#XMLID_32_);}
	.st88{fill:url(#XMLID_33_);}
	.st89{fill:#949296;}
</style>
<g id="microwave">
	<g id="XMLID_2557_">
		<path id="XMLID_8_" class="st0" d="M444.1,129.1L303,123.5c-1.9-0.1,18.5-3.8,18.5-3.8c1.1-0.3,48.2-1.7,50-1.7l108.6,4.5
			c1.7,0.1,8,0.1,9.1,0.5C489.1,123.2,446,129.2,444.1,129.1z"/>
		<path class="st1" d="M443.6,128.9l-138.8-5.5c-1.9-0.1,17.5-3.5,17.5-3.5c1-0.3,46.7-1.9,48.5-1.8l107.6,4.5
			c1.7,0.1,7.7,0.2,8.7,0.6C487.1,123.2,445.5,129,443.6,128.9z"/>
		<path class="st2" d="M443,128.6l-136.5-5.4c-1.9-0.1,16.5-3.3,16.5-3.3c0.9-0.4,45.2-2,47-1.9l106.6,4.5c1.8,0.1,7.5,0.3,8.4,0.7
			C485,123.2,444.9,128.7,443,128.6z"/>
		<path class="st3" d="M442.5,128.4L308.3,123c-1.9-0.1,15.5-3.1,15.5-3.1c0.8-0.4,43.7-2.1,45.5-2l105.7,4.5c1.8,0.1,7.3,0.4,8,0.8
			C483,123.2,444.4,128.5,442.5,128.4z"/>
		<path class="st4" d="M442,128.1l-131.9-5.3c-1.9-0.1,14.5-2.8,14.5-2.8c0.7-0.4,42.2-2.2,44-2.1l104.7,4.5c1.8,0.1,7,0.5,7.7,0.9
			C481,123.3,443.9,128.2,442,128.1z"/>
		<path class="st5" d="M441.4,127.9l-129.6-5.2c-1.9-0.1,13.5-2.6,13.5-2.6c0.6-0.4,40.7-2.4,42.5-2.3l103.7,4.5
			c1.8,0.1,6.8,0.6,7.4,1C478.9,123.3,443.3,128,441.4,127.9z"/>
		<path class="st6" d="M440.9,127.6l-127.3-5.1c-1.9-0.1,12.5-2.3,12.5-2.3c0.5-0.4,39.2-2.5,41.1-2.4l102.7,4.5
			c1.8,0.1,6.6,0.7,7,1.1C476.9,123.3,442.8,127.7,440.9,127.6z"/>
		<path class="st7" d="M440.4,127.4l-125-5c-1.9-0.1,11.5-2.1,11.5-2.1c0.4-0.4,37.7-2.6,39.6-2.5l101.8,4.5
			c1.8,0.1,6.3,0.8,6.7,1.2C474.9,123.4,442.3,127.5,440.4,127.4z"/>
		<path class="st8" d="M439.8,127.1l-122.8-4.9c-1.9-0.1,10.5-1.9,10.5-1.9c0.3-0.4,36.2-2.7,38.1-2.6l100.8,4.4
			c1.9,0.1,6.1,0.8,6.4,1.3C472.8,123.4,441.7,127.2,439.8,127.1z"/>
		<path class="st9" d="M439.3,126.9L318.8,122c-1.9-0.1,9.5-1.6,9.5-1.6c0.2-0.4,34.7-2.8,36.6-2.8l99.8,4.4c1.9,0.1,5.9,0.9,6,1.4
			C470.8,123.4,441.2,127,439.3,126.9z"/>
		<path class="st10" d="M438.8,126.6l-118.2-4.8c-1.9-0.1,8.5-1.4,8.5-1.4c0.1-0.4,33.2-3,35.1-2.9l98.8,4.4c1.9,0.1,5.6,1,5.7,1.5
			C468.8,123.5,440.7,126.7,438.8,126.6z"/>
		<path id="XMLID_7_" class="st11" d="M438.2,126.4l-115.9-4.7c-1.9-0.1,7.5-1.1,7.5-1.1c0-0.4,31.8-3.1,33.7-3l97.9,4.4
			c1.9,0.1,5.4,1.1,5.4,1.6C466.7,123.5,440.2,126.5,438.2,126.4z"/>
	</g>
	<g id="XMLID_2950_">
		<g id="XMLID_1743_">
			<g id="XMLID_1732_">
				<polygon id="XMLID_1736_" class="st12" points="424.8,121.6 322.5,117.8 322.5,47.1 424.8,50.9 				"/>
				<path id="XMLID_1733_" class="st13" d="M424.9,121.7l-102.6-3.8v-71l102.6,3.8V121.7z M322.6,117.6l102,3.8V51.1l-102-3.8V117.6
					z"/>
			</g>
			<g id="XMLID_1722_">
				<polygon id="XMLID_1731_" class="st12" points="448.1,122.5 424.8,121.6 424.8,50.9 448.1,51.8 				"/>
				<path id="XMLID_1723_" class="st13" d="M448.2,122.6l-23.6-0.9v-71l23.6,0.9V122.6z M424.9,121.5l23,0.9V51.9l-23-0.9V121.5z"/>
			</g>
			<polygon id="XMLID_1652_" class="st14" points="424.4,121.4 425.2,121.5 425.2,51.1 424.4,51.1 			"/>
			<polygon id="XMLID_2023_" class="st15" points="423.9,121.4 424.4,121.4 424.4,51.1 423.9,51 			"/>
			<polygon id="XMLID_1973_" class="st16" points="424.5,121.4 425.1,121.5 425.1,51.1 424.5,51.1 			"/>
			<polygon id="XMLID_2021_" class="st17" points="424.7,121.4 424.9,121.5 424.9,51.1 424.7,51.1 			"/>
			<g id="XMLID_1742_">
				<g id="XMLID_740_">
					<g id="XMLID_1940_">
						<g id="XMLID_1960_">
							<g id="XMLID_2096_">
								
									<linearGradient id="XMLID_10_" gradientUnits="userSpaceOnUse" x1="429.9761" y1="67.8134" x2="432.2935" y2="67.8134" gradientTransform="matrix(1.0033 3.760000e-02 0 1 -1.3106 -10.3491)">
									<stop  offset="0" style="stop-color:#BABCBE"/>
									<stop  offset="0.2325" style="stop-color:#B5B7BA"/>
									<stop  offset="0.5238" style="stop-color:#A9ABAD"/>
									<stop  offset="0.8452" style="stop-color:#95979A"/>
									<stop  offset="1" style="stop-color:#8A8C8E"/>
								</linearGradient>
								<path id="XMLID_2120_" class="st18" d="M431.2,74.8c-0.6,0-1.2-0.6-1.2-1.2c0-0.6,0.5-1.1,1.2-1.1c0.6,0,1.2,0.6,1.2,1.2
									S431.9,74.9,431.2,74.8z"/>
								<path id="XMLID_2117_" class="st19" d="M431.2,72.6c0.6,0,1.1,0.5,1.1,1.1c0,0.6-0.5,1.1-1.1,1c-0.6,0-1.1-0.5-1.1-1.1
									C430.2,73,430.7,72.6,431.2,72.6L431.2,72.6z M431.2,72.4c-0.7,0-1.2,0.5-1.2,1.2c0,0.7,0.6,1.3,1.2,1.3
									c0.7,0,1.2-0.5,1.2-1.2C432.5,73,431.9,72.5,431.2,72.4L431.2,72.4z"/>
							</g>
						</g>
						<g id="XMLID_1954_">
							<g id="XMLID_2091_">
								
									<linearGradient id="XMLID_11_" gradientUnits="userSpaceOnUse" x1="435.1564" y1="67.8135" x2="437.4738" y2="67.8135" gradientTransform="matrix(1.0033 3.760000e-02 0 1 -1.3106 -10.3491)">
									<stop  offset="0" style="stop-color:#BABCBE"/>
									<stop  offset="0.2325" style="stop-color:#B5B7BA"/>
									<stop  offset="0.5238" style="stop-color:#A9ABAD"/>
									<stop  offset="0.8452" style="stop-color:#95979A"/>
									<stop  offset="1" style="stop-color:#8A8C8E"/>
								</linearGradient>
								<path id="XMLID_2114_" class="st20" d="M436.4,75c-0.6,0-1.2-0.6-1.2-1.2s0.5-1.1,1.2-1.1c0.6,0,1.2,0.6,1.2,1.2
									C437.6,74.6,437.1,75.1,436.4,75z"/>
								<path id="XMLID_2110_" class="st19" d="M436.4,72.8c0.6,0,1.1,0.5,1.1,1.1c0,0.6-0.5,1.1-1.1,1c-0.6,0-1.1-0.5-1.1-1.1
									S435.8,72.8,436.4,72.8L436.4,72.8z M436.4,72.6c-0.7,0-1.2,0.5-1.2,1.2c0,0.7,0.6,1.3,1.2,1.3c0.7,0,1.2-0.5,1.2-1.2
									C437.7,73.2,437.1,72.7,436.4,72.6L436.4,72.6z"/>
							</g>
						</g>
						<g id="XMLID_1948_">
							<g id="XMLID_2086_">
								
									<linearGradient id="XMLID_12_" gradientUnits="userSpaceOnUse" x1="440.338" y1="67.8134" x2="442.6554" y2="67.8134" gradientTransform="matrix(1.0033 3.760000e-02 0 1 -1.3106 -10.3491)">
									<stop  offset="0" style="stop-color:#BABCBE"/>
									<stop  offset="0.2325" style="stop-color:#B5B7BA"/>
									<stop  offset="0.5238" style="stop-color:#A9ABAD"/>
									<stop  offset="0.8452" style="stop-color:#95979A"/>
									<stop  offset="1" style="stop-color:#8A8C8E"/>
								</linearGradient>
								<path id="XMLID_2106_" class="st21" d="M441.6,75.2c-0.6,0-1.2-0.6-1.2-1.2c0-0.6,0.5-1.1,1.2-1.1c0.6,0,1.2,0.6,1.2,1.2
									S442.3,75.2,441.6,75.2z"/>
								<path id="XMLID_2102_" class="st19" d="M441.6,73c0.6,0,1.1,0.5,1.1,1.1c0,0.6-0.5,1.1-1.1,1s-1.1-0.5-1.1-1.1
									C440.6,73.4,441,73,441.6,73L441.6,73z M441.6,72.8c-0.7,0-1.2,0.5-1.2,1.2s0.6,1.3,1.2,1.3c0.7,0,1.2-0.5,1.2-1.2
									C442.9,73.4,442.3,72.8,441.6,72.8L441.6,72.8z"/>
							</g>
						</g>
						<g id="XMLID_1942_">
							<g id="XMLID_2077_">
								
									<linearGradient id="XMLID_13_" gradientUnits="userSpaceOnUse" x1="429.9761" y1="67.8134" x2="432.2935" y2="67.8134" gradientTransform="matrix(1.0033 3.760000e-02 0 1 -1.3106 -10.3491)">
									<stop  offset="0" style="stop-color:#BABCBE"/>
									<stop  offset="0.2325" style="stop-color:#B5B7BA"/>
									<stop  offset="0.5238" style="stop-color:#A9ABAD"/>
									<stop  offset="0.8452" style="stop-color:#95979A"/>
									<stop  offset="1" style="stop-color:#8A8C8E"/>
								</linearGradient>
								<path id="XMLID_2100_" class="st22" d="M431.2,74.8c-0.6,0-1.2-0.6-1.2-1.2c0-0.6,0.5-1.1,1.2-1.1c0.6,0,1.2,0.6,1.2,1.2
									S431.9,74.9,431.2,74.8z"/>
								<path id="XMLID_2097_" class="st19" d="M431.2,72.6c0.6,0,1.1,0.5,1.1,1.1c0,0.6-0.5,1.1-1.1,1c-0.6,0-1.1-0.5-1.1-1.1
									C430.2,73,430.7,72.6,431.2,72.6L431.2,72.6z M431.2,72.4c-0.7,0-1.2,0.5-1.2,1.2c0,0.7,0.6,1.3,1.2,1.3
									c0.7,0,1.2-0.5,1.2-1.2C432.5,73,431.9,72.5,431.2,72.4L431.2,72.4z"/>
							</g>
						</g>
						<path id="XMLID_1941_" class="st23" d="M431.9,73.3c0,0.3-0.3,0.5-0.7,0.4c-0.4,0-0.7-0.2-0.7-0.5c0-0.3,0.3-0.5,0.7-0.4
							C431.6,72.8,431.9,73.1,431.9,73.3z"/>
					</g>
					<g id="XMLID_1932_">
						<g id="XMLID_1934_">
							<g id="XMLID_2072_">
								
									<linearGradient id="XMLID_14_" gradientUnits="userSpaceOnUse" x1="435.1564" y1="67.8135" x2="437.4738" y2="67.8135" gradientTransform="matrix(1.0033 3.760000e-02 0 1 -1.3106 -10.3491)">
									<stop  offset="0" style="stop-color:#BABCBE"/>
									<stop  offset="0.2325" style="stop-color:#B5B7BA"/>
									<stop  offset="0.5238" style="stop-color:#A9ABAD"/>
									<stop  offset="0.8452" style="stop-color:#95979A"/>
									<stop  offset="1" style="stop-color:#8A8C8E"/>
								</linearGradient>
								<path id="XMLID_2095_" class="st24" d="M436.4,75c-0.6,0-1.2-0.6-1.2-1.2s0.5-1.1,1.2-1.1c0.6,0,1.2,0.6,1.2,1.2
									C437.6,74.6,437.1,75.1,436.4,75z"/>
								<path id="XMLID_2092_" class="st19" d="M436.4,72.8c0.6,0,1.1,0.5,1.1,1.1c0,0.6-0.5,1.1-1.1,1c-0.6,0-1.1-0.5-1.1-1.1
									S435.8,72.8,436.4,72.8L436.4,72.8z M436.4,72.6c-0.7,0-1.2,0.5-1.2,1.2c0,0.7,0.6,1.3,1.2,1.3c0.7,0,1.2-0.5,1.2-1.2
									C437.7,73.2,437.1,72.7,436.4,72.6L436.4,72.6z"/>
							</g>
						</g>
						<path id="XMLID_1933_" class="st23" d="M437.1,73.5c0,0.3-0.3,0.5-0.7,0.4s-0.7-0.2-0.7-0.5c0-0.3,0.3-0.5,0.7-0.4
							C436.8,73,437.1,73.3,437.1,73.5z"/>
					</g>
					<g id="XMLID_1737_">
						<g id="XMLID_1926_">
							<g id="XMLID_2067_">
								
									<linearGradient id="XMLID_15_" gradientUnits="userSpaceOnUse" x1="440.338" y1="67.8134" x2="442.6554" y2="67.8134" gradientTransform="matrix(1.0033 3.760000e-02 0 1 -1.3106 -10.3491)">
									<stop  offset="0" style="stop-color:#BABCBE"/>
									<stop  offset="0.2325" style="stop-color:#B5B7BA"/>
									<stop  offset="0.5238" style="stop-color:#A9ABAD"/>
									<stop  offset="0.8452" style="stop-color:#95979A"/>
									<stop  offset="1" style="stop-color:#8A8C8E"/>
								</linearGradient>
								<path id="XMLID_2090_" class="st25" d="M441.6,75.2c-0.6,0-1.2-0.6-1.2-1.2c0-0.6,0.5-1.1,1.2-1.1c0.6,0,1.2,0.6,1.2,1.2
									S442.3,75.2,441.6,75.2z"/>
								<path id="XMLID_2087_" class="st19" d="M441.6,73c0.6,0,1.1,0.5,1.1,1.1c0,0.6-0.5,1.1-1.1,1s-1.1-0.5-1.1-1.1
									C440.6,73.4,441,73,441.6,73L441.6,73z M441.6,72.8c-0.7,0-1.2,0.5-1.2,1.2s0.6,1.3,1.2,1.3c0.7,0,1.2-0.5,1.2-1.2
									C442.9,73.4,442.3,72.8,441.6,72.8L441.6,72.8z"/>
							</g>
						</g>
						<path id="XMLID_1925_" class="st23" d="M442.3,73.7c0,0.3-0.3,0.5-0.7,0.4c-0.4,0-0.7-0.2-0.7-0.5c0-0.3,0.3-0.5,0.7-0.4
							C442,73.2,442.3,73.5,442.3,73.7z"/>
					</g>
				</g>
				<g id="XMLID_2108_">
					<g id="XMLID_1768_">
						<g id="XMLID_1789_">
							<g id="XMLID_1848_">
								<g id="XMLID_2062_">
									
										<linearGradient id="XMLID_16_" gradientUnits="userSpaceOnUse" x1="429.9761" y1="93.8116" x2="432.2935" y2="93.8116" gradientTransform="matrix(1.0033 3.760000e-02 0 1 -1.3106 -10.3491)">
										<stop  offset="0" style="stop-color:#BABCBE"/>
										<stop  offset="0.2325" style="stop-color:#B5B7BA"/>
										<stop  offset="0.5238" style="stop-color:#A9ABAD"/>
										<stop  offset="0.8452" style="stop-color:#95979A"/>
										<stop  offset="1" style="stop-color:#8A8C8E"/>
									</linearGradient>
									<path id="XMLID_2085_" class="st26" d="M431.2,100.8c-0.6,0-1.2-0.6-1.2-1.2c0-0.6,0.5-1.1,1.2-1.1c0.6,0,1.2,0.6,1.2,1.2
										S431.9,100.9,431.2,100.8z"/>
									<path id="XMLID_2078_" class="st19" d="M431.2,98.6c0.6,0,1.1,0.5,1.1,1.1c0,0.6-0.5,1.1-1.1,1c-0.6,0-1.1-0.5-1.1-1.1
										C430.2,99,430.7,98.6,431.2,98.6L431.2,98.6z M431.2,98.4c-0.7,0-1.2,0.5-1.2,1.2c0,0.7,0.6,1.3,1.2,1.3
										c0.7,0,1.2-0.5,1.2-1.2C432.5,99,431.9,98.5,431.2,98.4L431.2,98.4z"/>
								</g>
							</g>
							<g id="XMLID_1833_">
								<g id="XMLID_2057_">
									
										<linearGradient id="XMLID_17_" gradientUnits="userSpaceOnUse" x1="435.1564" y1="93.8116" x2="437.4738" y2="93.8116" gradientTransform="matrix(1.0033 3.760000e-02 0 1 -1.3106 -10.3491)">
										<stop  offset="0" style="stop-color:#BABCBE"/>
										<stop  offset="0.2325" style="stop-color:#B5B7BA"/>
										<stop  offset="0.5238" style="stop-color:#A9ABAD"/>
										<stop  offset="0.8452" style="stop-color:#95979A"/>
										<stop  offset="1" style="stop-color:#8A8C8E"/>
									</linearGradient>
									<path id="XMLID_2076_" class="st27" d="M436.4,101c-0.6,0-1.2-0.6-1.2-1.2c0-0.6,0.5-1.1,1.2-1.1c0.6,0,1.2,0.6,1.2,1.2
										C437.6,100.6,437.1,101.1,436.4,101z"/>
									<path id="XMLID_2073_" class="st19" d="M436.4,98.8c0.6,0,1.1,0.5,1.1,1.1c0,0.6-0.5,1.1-1.1,1c-0.6,0-1.1-0.5-1.1-1.1
										S435.8,98.8,436.4,98.8L436.4,98.8z M436.4,98.6c-0.7,0-1.2,0.5-1.2,1.2c0,0.7,0.6,1.3,1.2,1.3c0.7,0,1.2-0.5,1.2-1.2
										C437.7,99.2,437.1,98.7,436.4,98.6L436.4,98.6z"/>
								</g>
							</g>
							<g id="XMLID_1827_">
								<g id="XMLID_2051_">
									
										<linearGradient id="XMLID_18_" gradientUnits="userSpaceOnUse" x1="440.338" y1="93.8116" x2="442.6554" y2="93.8116" gradientTransform="matrix(1.0033 3.760000e-02 0 1 -1.3106 -10.3491)">
										<stop  offset="0" style="stop-color:#BABCBE"/>
										<stop  offset="0.2325" style="stop-color:#B5B7BA"/>
										<stop  offset="0.5238" style="stop-color:#A9ABAD"/>
										<stop  offset="0.8452" style="stop-color:#95979A"/>
										<stop  offset="1" style="stop-color:#8A8C8E"/>
									</linearGradient>
									<path id="XMLID_2071_" class="st28" d="M441.6,101.2c-0.6,0-1.2-0.6-1.2-1.2c0-0.6,0.5-1.1,1.2-1.1c0.6,0,1.2,0.6,1.2,1.2
										C442.8,100.7,442.3,101.2,441.6,101.2z"/>
									<path id="XMLID_2068_" class="st19" d="M441.6,99c0.6,0,1.1,0.5,1.1,1.1c0,0.6-0.5,1.1-1.1,1c-0.6,0-1.1-0.5-1.1-1.1
										C440.6,99.4,441,99,441.6,99L441.6,99z M441.6,98.8c-0.7,0-1.2,0.5-1.2,1.2c0,0.7,0.6,1.3,1.2,1.3c0.7,0,1.2-0.5,1.2-1.2
										C442.9,99.4,442.3,98.8,441.6,98.8L441.6,98.8z"/>
								</g>
							</g>
							<g id="XMLID_1793_">
								<g id="XMLID_2046_">
									
										<linearGradient id="XMLID_19_" gradientUnits="userSpaceOnUse" x1="429.9761" y1="93.8116" x2="432.2935" y2="93.8116" gradientTransform="matrix(1.0033 3.760000e-02 0 1 -1.3106 -10.3491)">
										<stop  offset="0" style="stop-color:#BABCBE"/>
										<stop  offset="0.2325" style="stop-color:#B5B7BA"/>
										<stop  offset="0.5238" style="stop-color:#A9ABAD"/>
										<stop  offset="0.8452" style="stop-color:#95979A"/>
										<stop  offset="1" style="stop-color:#8A8C8E"/>
									</linearGradient>
									<path id="XMLID_2066_" class="st29" d="M431.2,100.8c-0.6,0-1.2-0.6-1.2-1.2c0-0.6,0.5-1.1,1.2-1.1c0.6,0,1.2,0.6,1.2,1.2
										S431.9,100.9,431.2,100.8z"/>
									<path id="XMLID_2063_" class="st19" d="M431.2,98.6c0.6,0,1.1,0.5,1.1,1.1c0,0.6-0.5,1.1-1.1,1c-0.6,0-1.1-0.5-1.1-1.1
										C430.2,99,430.7,98.6,431.2,98.6L431.2,98.6z M431.2,98.4c-0.7,0-1.2,0.5-1.2,1.2c0,0.7,0.6,1.3,1.2,1.3
										c0.7,0,1.2-0.5,1.2-1.2C432.5,99,431.9,98.5,431.2,98.4L431.2,98.4z"/>
								</g>
							</g>
							<path id="XMLID_1790_" class="st23" d="M431.9,99.3c0,0.3-0.3,0.5-0.7,0.4c-0.4,0-0.7-0.2-0.7-0.5c0-0.3,0.3-0.5,0.7-0.4
								C431.6,98.8,431.9,99.1,431.9,99.3z"/>
						</g>
						<g id="XMLID_1779_">
							<g id="XMLID_1782_">
								<g id="XMLID_2040_">
									
										<linearGradient id="XMLID_20_" gradientUnits="userSpaceOnUse" x1="435.1564" y1="93.8116" x2="437.4738" y2="93.8116" gradientTransform="matrix(1.0033 3.760000e-02 0 1 -1.3106 -10.3491)">
										<stop  offset="0" style="stop-color:#BABCBE"/>
										<stop  offset="0.2325" style="stop-color:#B5B7BA"/>
										<stop  offset="0.5238" style="stop-color:#A9ABAD"/>
										<stop  offset="0.8452" style="stop-color:#95979A"/>
										<stop  offset="1" style="stop-color:#8A8C8E"/>
									</linearGradient>
									<path id="XMLID_2061_" class="st30" d="M436.4,101c-0.6,0-1.2-0.6-1.2-1.2c0-0.6,0.5-1.1,1.2-1.1c0.6,0,1.2,0.6,1.2,1.2
										C437.6,100.6,437.1,101.1,436.4,101z"/>
									<path id="XMLID_2058_" class="st19" d="M436.4,98.8c0.6,0,1.1,0.5,1.1,1.1c0,0.6-0.5,1.1-1.1,1c-0.6,0-1.1-0.5-1.1-1.1
										S435.8,98.8,436.4,98.8L436.4,98.8z M436.4,98.6c-0.7,0-1.2,0.5-1.2,1.2c0,0.7,0.6,1.3,1.2,1.3c0.7,0,1.2-0.5,1.2-1.2
										C437.7,99.2,437.1,98.7,436.4,98.6L436.4,98.6z"/>
								</g>
							</g>
							<path id="XMLID_1780_" class="st23" d="M437.1,99.5c0,0.3-0.3,0.5-0.7,0.4c-0.4,0-0.7-0.2-0.7-0.5c0-0.3,0.3-0.5,0.7-0.4
								C436.8,99,437.1,99.3,437.1,99.5z"/>
						</g>
						<g id="XMLID_1769_">
							<g id="XMLID_1771_">
								<g id="XMLID_2035_">
									
										<linearGradient id="XMLID_21_" gradientUnits="userSpaceOnUse" x1="440.338" y1="93.8116" x2="442.6554" y2="93.8116" gradientTransform="matrix(1.0033 3.760000e-02 0 1 -1.3106 -10.3491)">
										<stop  offset="0" style="stop-color:#BABCBE"/>
										<stop  offset="0.2325" style="stop-color:#B5B7BA"/>
										<stop  offset="0.5238" style="stop-color:#A9ABAD"/>
										<stop  offset="0.8452" style="stop-color:#95979A"/>
										<stop  offset="1" style="stop-color:#8A8C8E"/>
									</linearGradient>
									<path id="XMLID_2056_" class="st31" d="M441.6,101.2c-0.6,0-1.2-0.6-1.2-1.2c0-0.6,0.5-1.1,1.2-1.1c0.6,0,1.2,0.6,1.2,1.2
										C442.8,100.7,442.3,101.2,441.6,101.2z"/>
									<path id="XMLID_2053_" class="st19" d="M441.6,99c0.6,0,1.1,0.5,1.1,1.1c0,0.6-0.5,1.1-1.1,1c-0.6,0-1.1-0.5-1.1-1.1
										C440.6,99.4,441,99,441.6,99L441.6,99z M441.6,98.8c-0.7,0-1.2,0.5-1.2,1.2c0,0.7,0.6,1.3,1.2,1.3c0.7,0,1.2-0.5,1.2-1.2
										C442.9,99.4,442.3,98.8,441.6,98.8L441.6,98.8z"/>
								</g>
							</g>
							<path id="XMLID_1770_" class="st23" d="M442.3,99.7c0,0.3-0.3,0.5-0.7,0.4c-0.4,0-0.7-0.2-0.7-0.5c0-0.3,0.3-0.5,0.7-0.4
								C442,99.2,442.3,99.5,442.3,99.7z"/>
						</g>
					</g>
					<g id="XMLID_1738_">
						<g id="XMLID_1760_">
							<g id="XMLID_1762_">
								<g id="XMLID_2017_">
									
										<linearGradient id="XMLID_22_" gradientUnits="userSpaceOnUse" x1="429.9772" y1="98.184" x2="432.2946" y2="98.184" gradientTransform="matrix(1.0033 3.760000e-02 0 1 -1.3106 -10.3491)">
										<stop  offset="0" style="stop-color:#BABCBE"/>
										<stop  offset="0.2325" style="stop-color:#B5B7BA"/>
										<stop  offset="0.5238" style="stop-color:#A9ABAD"/>
										<stop  offset="0.8452" style="stop-color:#95979A"/>
										<stop  offset="1" style="stop-color:#8A8C8E"/>
									</linearGradient>
									<path id="XMLID_2050_" class="st32" d="M431.2,105.2c-0.6,0-1.2-0.6-1.2-1.2c0-0.6,0.5-1.1,1.2-1.1c0.6,0,1.2,0.6,1.2,1.2
										C432.4,104.7,431.9,105.2,431.2,105.2z"/>
									<path id="XMLID_2047_" class="st19" d="M431.2,103c0.6,0,1.1,0.5,1.1,1.1c0,0.6-0.5,1.1-1.1,1c-0.6,0-1.1-0.5-1.1-1.1
										C430.2,103.4,430.7,102.9,431.2,103L431.2,103z M431.2,102.8c-0.7,0-1.2,0.5-1.2,1.2s0.6,1.3,1.2,1.3
										c0.7,0,1.2-0.5,1.2-1.2C432.5,103.4,431.9,102.8,431.2,102.8L431.2,102.8z"/>
								</g>
							</g>
							<path id="XMLID_1761_" class="st23" d="M431.9,103.7c0,0.3-0.3,0.5-0.7,0.4c-0.4,0-0.7-0.2-0.7-0.5c0-0.3,0.3-0.5,0.7-0.4
								C431.6,103.2,431.9,103.4,431.9,103.7z"/>
						</g>
						<g id="XMLID_1752_">
							<g id="XMLID_1754_">
								<g id="XMLID_2009_">
									
										<linearGradient id="XMLID_23_" gradientUnits="userSpaceOnUse" x1="435.1564" y1="98.184" x2="437.4738" y2="98.184" gradientTransform="matrix(1.0033 3.760000e-02 0 1 -1.3106 -10.3491)">
										<stop  offset="0" style="stop-color:#BABCBE"/>
										<stop  offset="0.2325" style="stop-color:#B5B7BA"/>
										<stop  offset="0.5238" style="stop-color:#A9ABAD"/>
										<stop  offset="0.8452" style="stop-color:#95979A"/>
										<stop  offset="1" style="stop-color:#8A8C8E"/>
									</linearGradient>
									<path id="XMLID_2045_" class="st33" d="M436.4,105.4c-0.6,0-1.2-0.6-1.2-1.2c0-0.6,0.5-1.1,1.2-1.1c0.6,0,1.2,0.6,1.2,1.2
										S437.1,105.4,436.4,105.4z"/>
									<path id="XMLID_2042_" class="st19" d="M436.4,103.2c0.6,0,1.1,0.5,1.1,1.1c0,0.6-0.5,1.1-1.1,1c-0.6,0-1.1-0.5-1.1-1.1
										C435.4,103.6,435.8,103.1,436.4,103.2L436.4,103.2z M436.4,103c-0.7,0-1.2,0.5-1.2,1.2s0.6,1.3,1.2,1.3
										c0.7,0,1.2-0.5,1.2-1.2S437.1,103,436.4,103L436.4,103z"/>
								</g>
							</g>
							<path id="XMLID_1753_" class="st23" d="M437.1,103.9c0,0.3-0.3,0.5-0.7,0.4s-0.7-0.2-0.7-0.5c0-0.3,0.3-0.5,0.7-0.4
								C436.8,103.4,437.1,103.6,437.1,103.9z"/>
						</g>
						<g id="XMLID_1739_">
							<g id="XMLID_1741_">
								<g id="XMLID_2001_">
									
										<linearGradient id="XMLID_24_" gradientUnits="userSpaceOnUse" x1="440.338" y1="98.184" x2="442.6554" y2="98.184" gradientTransform="matrix(1.0033 3.760000e-02 0 1 -1.3106 -10.3491)">
										<stop  offset="0" style="stop-color:#BABCBE"/>
										<stop  offset="0.2325" style="stop-color:#B5B7BA"/>
										<stop  offset="0.5238" style="stop-color:#A9ABAD"/>
										<stop  offset="0.8452" style="stop-color:#95979A"/>
										<stop  offset="1" style="stop-color:#8A8C8E"/>
									</linearGradient>
									<path id="XMLID_2039_" class="st34" d="M441.6,105.6c-0.6,0-1.2-0.6-1.2-1.2c0-0.6,0.5-1.1,1.2-1.1c0.6,0,1.2,0.6,1.2,1.2
										C442.8,105.1,442.3,105.6,441.6,105.6z"/>
									<path id="XMLID_2036_" class="st19" d="M441.6,103.4c0.6,0,1.1,0.5,1.1,1.1c0,0.6-0.5,1.1-1.1,1c-0.6,0-1.1-0.5-1.1-1.1
										S441,103.3,441.6,103.4L441.6,103.4z M441.6,103.2c-0.7,0-1.2,0.5-1.2,1.2c0,0.7,0.6,1.3,1.2,1.3c0.7,0,1.2-0.5,1.2-1.2
										C442.9,103.8,442.3,103.2,441.6,103.2L441.6,103.2z"/>
								</g>
							</g>
							<path id="XMLID_1740_" class="st23" d="M442.3,104.1c0,0.3-0.3,0.5-0.7,0.4c-0.4,0-0.7-0.2-0.7-0.5c0-0.3,0.3-0.5,0.7-0.4
								C442,103.6,442.3,103.8,442.3,104.1z"/>
						</g>
					</g>
					<g id="XMLID_1974_">
						<g id="XMLID_2013_">
							<g id="XMLID_2015_">
								<g id="XMLID_1963_">
									
										<linearGradient id="XMLID_25_" gradientUnits="userSpaceOnUse" x1="429.9772" y1="102.5564" x2="432.2946" y2="102.5564" gradientTransform="matrix(1.0033 3.760000e-02 0 1 -1.3106 -10.3491)">
										<stop  offset="0" style="stop-color:#BABCBE"/>
										<stop  offset="0.2325" style="stop-color:#B5B7BA"/>
										<stop  offset="0.5238" style="stop-color:#A9ABAD"/>
										<stop  offset="0.8452" style="stop-color:#95979A"/>
										<stop  offset="1" style="stop-color:#8A8C8E"/>
									</linearGradient>
									<path id="XMLID_2033_" class="st35" d="M431.2,109.6c-0.6,0-1.2-0.6-1.2-1.2s0.5-1.1,1.2-1.1c0.6,0,1.2,0.6,1.2,1.2
										C432.4,109.1,431.9,109.6,431.2,109.6z"/>
									<path id="XMLID_2018_" class="st19" d="M431.2,107.3c0.6,0,1.1,0.5,1.1,1.1c0,0.6-0.5,1.1-1.1,1c-0.6,0-1.1-0.5-1.1-1.1
										C430.2,107.8,430.7,107.3,431.2,107.3L431.2,107.3z M431.2,107.2c-0.7,0-1.2,0.5-1.2,1.2c0,0.7,0.6,1.3,1.2,1.3
										c0.7,0,1.2-0.5,1.2-1.2S431.9,107.2,431.2,107.2L431.2,107.2z"/>
								</g>
							</g>
							<path id="XMLID_2014_" class="st23" d="M431.9,108.1c0,0.3-0.3,0.5-0.7,0.4c-0.4,0-0.7-0.2-0.7-0.5s0.3-0.5,0.7-0.4
								C431.6,107.6,431.9,107.8,431.9,108.1z"/>
						</g>
						<g id="XMLID_2005_">
							<g id="XMLID_2007_">
								<g id="XMLID_1957_">
									
										<linearGradient id="XMLID_26_" gradientUnits="userSpaceOnUse" x1="435.1564" y1="102.5564" x2="437.4738" y2="102.5564" gradientTransform="matrix(1.0033 3.760000e-02 0 1 -1.3106 -10.3491)">
										<stop  offset="0" style="stop-color:#BABCBE"/>
										<stop  offset="0.2325" style="stop-color:#B5B7BA"/>
										<stop  offset="0.5238" style="stop-color:#A9ABAD"/>
										<stop  offset="0.8452" style="stop-color:#95979A"/>
										<stop  offset="1" style="stop-color:#8A8C8E"/>
									</linearGradient>
									<path id="XMLID_2016_" class="st36" d="M436.4,109.8c-0.6,0-1.2-0.6-1.2-1.2c0-0.6,0.5-1.1,1.2-1.1c0.6,0,1.2,0.6,1.2,1.2
										C437.6,109.3,437.1,109.8,436.4,109.8z"/>
									<path id="XMLID_2010_" class="st19" d="M436.4,107.5c0.6,0,1.1,0.5,1.1,1.1c0,0.6-0.5,1.1-1.1,1c-0.6,0-1.1-0.5-1.1-1.1
										C435.4,108,435.8,107.5,436.4,107.5L436.4,107.5z M436.4,107.4c-0.7,0-1.2,0.5-1.2,1.2c0,0.7,0.6,1.3,1.2,1.3
										c0.7,0,1.2-0.5,1.2-1.2C437.7,108,437.1,107.4,436.4,107.4L436.4,107.4z"/>
								</g>
							</g>
							<path id="XMLID_2006_" class="st23" d="M437.1,108.3c0,0.3-0.3,0.5-0.7,0.4c-0.4,0-0.7-0.2-0.7-0.5c0-0.3,0.3-0.5,0.7-0.4
								S437.1,108,437.1,108.3z"/>
						</g>
						<g id="XMLID_1976_">
							<g id="XMLID_1999_">
								<g id="XMLID_1930_">
									
										<linearGradient id="XMLID_27_" gradientUnits="userSpaceOnUse" x1="440.338" y1="102.5564" x2="442.6554" y2="102.5564" gradientTransform="matrix(1.0033 3.760000e-02 0 1 -1.3106 -10.3491)">
										<stop  offset="0" style="stop-color:#BABCBE"/>
										<stop  offset="0.2325" style="stop-color:#B5B7BA"/>
										<stop  offset="0.5238" style="stop-color:#A9ABAD"/>
										<stop  offset="0.8452" style="stop-color:#95979A"/>
										<stop  offset="1" style="stop-color:#8A8C8E"/>
									</linearGradient>
									<path id="XMLID_2008_" class="st37" d="M441.6,110c-0.6,0-1.2-0.6-1.2-1.2c0-0.6,0.5-1.1,1.2-1.1c0.6,0,1.2,0.6,1.2,1.2
										S442.3,110,441.6,110z"/>
									<path id="XMLID_2002_" class="st19" d="M441.6,107.7c0.6,0,1.1,0.5,1.1,1.1c0,0.6-0.5,1.1-1.1,1c-0.6,0-1.1-0.5-1.1-1.1
										C440.6,108.2,441,107.7,441.6,107.7L441.6,107.7z M441.6,107.6c-0.7,0-1.2,0.5-1.2,1.2c0,0.7,0.6,1.3,1.2,1.3
										c0.7,0,1.2-0.5,1.2-1.2C442.9,108.2,442.3,107.6,441.6,107.6L441.6,107.6z"/>
								</g>
							</g>
							<path id="XMLID_1998_" class="st23" d="M442.3,108.5c0,0.3-0.3,0.5-0.7,0.4c-0.4,0-0.7-0.2-0.7-0.5c0-0.3,0.3-0.5,0.7-0.4
								C442,108,442.3,108.2,442.3,108.5z"/>
						</g>
					</g>
				</g>
				<g id="XMLID_725_">
					<g id="XMLID_1873_">
						<path id="XMLID_1905_" class="st38" d="M436.4,79.6c-0.3,0-0.6-0.3-0.6-0.6c0-0.3,0.3-0.6,0.6-0.5c0.3,0,0.6,0.3,0.6,0.6
							C437,79.4,436.8,79.6,436.4,79.6z"/>
						<path id="XMLID_1904_" class="st39" d="M436.8,79c0,0.2-0.2,0.3-0.3,0.3c-0.2,0-0.3-0.2-0.3-0.4s0.2-0.3,0.3-0.3
							C436.6,78.7,436.8,78.9,436.8,79z"/>
						<path id="XMLID_1903_" class="st38" d="M431.9,81.1c-0.2,0-0.3-0.1-0.4-0.2c-0.1-0.1-0.1-0.3-0.1-0.4c0-0.1,0.1-0.3,0.2-0.4
							c0.1-0.1,0.2-0.1,0.4-0.1c0.2,0,0.3,0.1,0.4,0.2c0.2,0.2,0.2,0.6-0.1,0.8C432.2,81,432.1,81.1,431.9,81.1z"/>
						
							<ellipse id="XMLID_1902_" transform="matrix(0.7814 -0.6241 0.6241 0.7814 44.1907 287.1533)" class="st39" cx="431.9" cy="80.5" rx="0.3" ry="0.4"/>
						<path id="XMLID_1901_" class="st38" d="M429.5,85.1C429.5,85.1,429.4,85.1,429.5,85.1c-0.2,0-0.4-0.1-0.5-0.3
							c-0.1-0.1-0.1-0.3-0.1-0.4c0-0.3,0.3-0.5,0.6-0.4c0,0,0.1,0,0.1,0c0.1,0,0.3,0.1,0.4,0.2c0.1,0.1,0.1,0.3,0.1,0.4
							C430,85,429.8,85.1,429.5,85.1z"/>
						<path id="XMLID_1900_" class="st39" d="M429.6,84.2c0.2,0,0.3,0.2,0.3,0.4c0,0.2-0.2,0.3-0.4,0.3c-0.2,0-0.3-0.2-0.3-0.4
							C429.2,84.3,429.4,84.2,429.6,84.2z"/>
						<path id="XMLID_1899_" class="st38" d="M430.3,89.9c-0.2,0-0.4-0.1-0.5-0.3c-0.2-0.3-0.1-0.6,0.2-0.8c0.1,0,0.2-0.1,0.3-0.1
							c0.2,0,0.4,0.1,0.5,0.3c0.2,0.3,0.1,0.6-0.2,0.8C430.5,89.9,430.4,89.9,430.3,89.9z"/>
						<path id="XMLID_1898_" class="st39" d="M430.2,89c0.2-0.1,0.4,0,0.5,0.1c0.1,0.2,0,0.4-0.1,0.5c-0.2,0.1-0.4,0-0.5-0.1
							C429.9,89.3,430,89.1,430.2,89z"/>
						<path id="XMLID_1897_" class="st38" d="M434,93.1c-0.1,0-0.1,0-0.2,0c-0.3-0.1-0.4-0.4-0.3-0.7c0.1-0.2,0.3-0.4,0.5-0.4
							c0.1,0,0.1,0,0.2,0c0.3,0.1,0.4,0.4,0.3,0.7C434.5,93,434.3,93.1,434,93.1z"/>
						<path id="XMLID_1896_" class="st39" d="M433.7,92.4c0.1-0.2,0.3-0.3,0.4-0.2s0.3,0.3,0.2,0.5c-0.1,0.2-0.3,0.3-0.4,0.2
							C433.7,92.8,433.6,92.6,433.7,92.4z"/>
						<path id="XMLID_1895_" class="st38" d="M438.9,93.3c-0.2,0-0.4-0.2-0.5-0.4c-0.1-0.3,0-0.6,0.3-0.7c0.1,0,0.1,0,0.2,0
							c0.2,0,0.4,0.2,0.5,0.4c0.1,0.3,0,0.6-0.3,0.7C439,93.3,438.9,93.3,438.9,93.3z"/>
						<path id="XMLID_1894_" class="st39" d="M438.5,92.8c-0.1-0.2,0-0.4,0.2-0.4c0.2-0.1,0.4,0,0.4,0.2c0.1,0.2,0,0.4-0.2,0.4
							C438.8,93.1,438.6,93,438.5,92.8z"/>
						<path id="XMLID_1893_" class="st38" d="M442.5,90.4c-0.1,0-0.2,0-0.3-0.1c-0.3-0.2-0.4-0.5-0.2-0.8c0.1-0.2,0.3-0.3,0.5-0.3
							c0.1,0,0.2,0,0.3,0.1c0.1,0.1,0.2,0.2,0.3,0.4c0,0.1,0,0.3-0.1,0.4C442.9,90.3,442.7,90.4,442.5,90.4z"/>
						
							<ellipse id="XMLID_1887_" transform="matrix(0.5095 -0.8605 0.8605 0.5095 139.8006 424.8346)" class="st39" cx="442.5" cy="89.8" rx="0.3" ry="0.4"/>
						<path id="XMLID_1882_" class="st38" d="M443.4,85.7c-0.3,0-0.5-0.2-0.6-0.5c0-0.1,0-0.3,0.1-0.4c0.1-0.1,0.2-0.2,0.4-0.2
							c0,0,0.1,0,0.1,0c0.3,0,0.5,0.2,0.6,0.5c0,0.1,0,0.3-0.1,0.4C443.8,85.6,443.6,85.6,443.4,85.7
							C443.4,85.7,443.4,85.7,443.4,85.7z"/>
						<path id="XMLID_1881_" class="st39" d="M443.4,85.4c-0.2,0-0.4-0.1-0.4-0.3c0-0.2,0.1-0.4,0.3-0.4c0.2,0,0.4,0.1,0.4,0.3
							C443.8,85.2,443.6,85.4,443.4,85.4z"/>
						<path id="XMLID_1880_" class="st38" d="M441,81.4c-0.1,0-0.3-0.1-0.4-0.1c-0.1-0.1-0.2-0.2-0.2-0.4c0-0.2,0-0.3,0.1-0.4
							c0.1-0.1,0.3-0.2,0.4-0.2c0.1,0,0.3,0.1,0.4,0.1c0.2,0.2,0.3,0.6,0.1,0.8C441.3,81.3,441.1,81.4,441,81.4z"/>
						
							<ellipse id="XMLID_1877_" transform="matrix(0.6579 -0.7531 0.7531 0.6579 89.9526 359.734)" class="st39" cx="441" cy="80.8" rx="0.3" ry="0.4"/>
					</g>
					<g id="XMLID_727_">
						<g id="XMLID_1379_">
							<g id="XMLID_1810_">
								<path id="XMLID_1865_" class="st40" d="M436.4,91.6c-3.1-0.1-5.6-2.7-5.6-5.8c0-3.1,2.5-5.5,5.6-5.4
									c3.1,0.1,5.6,2.7,5.6,5.8C442,89.4,439.5,91.8,436.4,91.6z"/>
								<path id="XMLID_1826_" class="st41" d="M436.4,91.6c-3-0.1-5.5-2.7-5.5-5.7c0-3,2.5-5.4,5.5-5.3c3,0.1,5.5,2.7,5.5,5.7
									C442,89.3,439.5,91.7,436.4,91.6z"/>
								<path id="XMLID_1825_" class="st38" d="M436.4,91.5c-3-0.1-5.5-2.6-5.5-5.6s2.4-5.3,5.5-5.2c3,0.1,5.5,2.6,5.5,5.6
									S439.5,91.6,436.4,91.5z"/>
								<path id="XMLID_1821_" class="st42" d="M436.4,91.4c-3-0.1-5.4-2.6-5.4-5.6c0-3,2.4-5.3,5.4-5.2c3,0.1,5.4,2.6,5.4,5.6
									C441.8,89.2,439.4,91.5,436.4,91.4z"/>
								<path id="XMLID_1811_" class="st43" d="M436.4,91.4c-2.9-0.1-5.3-2.6-5.3-5.5c0-2.9,2.4-5.2,5.3-5.1
									c2.9,0.1,5.3,2.6,5.3,5.5C441.8,89.2,439.4,91.5,436.4,91.4z"/>
							</g>
							<path id="XMLID_1802_" class="st44" d="M441.7,86.3c0,2.9-2.3,5.1-5.2,5c-2.9-0.1-5.2-2.5-5.2-5.4c0-2.9,2.3-5.1,5.2-5
								C439.3,81,441.7,83.4,441.7,86.3z"/>
						</g>
						<g id="XMLID_739_">
							<g id="XMLID_1373_">
								<path id="XMLID_2746_" class="st45" d="M437.4,90.1l-1.9-0.1c-0.3,0-0.5-0.2-0.5-0.5v-7c0-0.3,0.2-0.5,0.5-0.5l1.9,0.1
									c0.3,0,0.5,0.2,0.5,0.5v7C437.9,89.9,437.7,90.1,437.4,90.1z"/>
								<path id="XMLID_2747_" class="st46" d="M437.4,90.2l-1.9-0.1c-0.3,0-0.6-0.3-0.6-0.6v-7c0-0.3,0.3-0.6,0.6-0.6l1.9,0.1
									c0.3,0,0.6,0.3,0.6,0.6v7C438,90,437.7,90.2,437.4,90.2z M435.5,82.1c-0.2,0-0.4,0.2-0.4,0.4v7c0,0.2,0.2,0.4,0.4,0.4
									l1.9,0.1c0.2,0,0.4-0.2,0.4-0.4v-7c0-0.2-0.2-0.4-0.4-0.4L435.5,82.1z"/>
							</g>
							<g id="XMLID_771_">
								<path id="XMLID_6_" class="st47" d="M437.3,89.6l-1.7-0.1c-0.3,0-0.5-0.2-0.5-0.5v-3c0-0.3,0.2-0.5,0.5-0.5l1.7,0.1
									c0.3,0,0.5,0.2,0.5,0.5v3C437.8,89.4,437.6,89.6,437.3,89.6z"/>
								<path class="st48" d="M437.3,89.5l-1.6-0.1c-0.3,0-0.5-0.2-0.5-0.5v-2.8c0-0.3,0.2-0.5,0.5-0.5l1.6,0.1
									c0.3,0,0.5,0.2,0.5,0.5v2.8C437.8,89.3,437.5,89.5,437.3,89.5z"/>
								<path class="st49" d="M437.2,89.4l-1.6-0.1c-0.3,0-0.5-0.2-0.5-0.5v-2.6c0-0.3,0.2-0.5,0.5-0.5l1.6,0.1
									c0.3,0,0.5,0.2,0.5,0.5V89C437.7,89.2,437.5,89.5,437.2,89.4z"/>
								<path class="st50" d="M437.2,89.4l-1.5-0.1c-0.3,0-0.5-0.2-0.5-0.5v-2.4c0-0.3,0.2-0.5,0.5-0.5l1.5,0.1
									c0.3,0,0.5,0.2,0.5,0.5v2.4C437.7,89.1,437.5,89.4,437.2,89.4z"/>
								<path class="st51" d="M437.2,89.3l-1.4-0.1c-0.3,0-0.5-0.2-0.5-0.5v-2.2c0-0.3,0.2-0.5,0.5-0.5l1.4,0.1
									c0.3,0,0.5,0.2,0.5,0.5v2.2C437.7,89.1,437.4,89.3,437.2,89.3z"/>
								<path class="st52" d="M437.1,89.2l-1.4-0.1c-0.3,0-0.5-0.2-0.5-0.5v-2c0-0.3,0.2-0.5,0.5-0.5l1.4,0.1c0.3,0,0.5,0.2,0.5,0.5
									v2C437.6,89,437.4,89.2,437.1,89.2z"/>
								<path class="st53" d="M437.1,89.1l-1.3,0c-0.3,0-0.5-0.2-0.5-0.5v-1.8c0-0.3,0.2-0.5,0.5-0.5l1.3,0c0.3,0,0.5,0.2,0.5,0.5
									v1.8C437.6,88.9,437.4,89.1,437.1,89.1z"/>
								<path class="st54" d="M437.1,89l-1.2,0c-0.3,0-0.5-0.2-0.5-0.5v-1.6c0-0.3,0.2-0.5,0.5-0.5l1.2,0c0.3,0,0.5,0.2,0.5,0.5v1.6
									C437.6,88.8,437.3,89,437.1,89z"/>
								<path class="st55" d="M437,88.9l-1.2,0c-0.3,0-0.5-0.2-0.5-0.5v-1.4c0-0.3,0.2-0.5,0.5-0.5l1.2,0c0.3,0,0.5,0.2,0.5,0.5v1.4
									C437.5,88.7,437.3,88.9,437,88.9z"/>
								<path class="st56" d="M437,88.8l-1.1,0c-0.3,0-0.5-0.2-0.5-0.5V87c0-0.3,0.2-0.5,0.5-0.5l1.1,0c0.3,0,0.5,0.2,0.5,0.5v1.2
									C437.5,88.6,437.3,88.8,437,88.8z"/>
								<path class="st57" d="M437,88.7l-1,0c-0.3,0-0.5-0.2-0.5-0.5v-1c0-0.3,0.2-0.5,0.5-0.5l1,0c0.3,0,0.5,0.2,0.5,0.5v1
									C437.5,88.5,437.2,88.7,437,88.7z"/>
								<path id="XMLID_5_" class="st58" d="M436.9,88.6l-1,0c-0.3,0-0.5-0.2-0.5-0.5v-0.8c0-0.3,0.2-0.5,0.5-0.5l1,0
									c0.3,0,0.5,0.2,0.5,0.5v0.8C437.4,88.4,437.2,88.6,436.9,88.6z"/>
							</g>
							<polygon id="XMLID_772_" class="st38" points="436.8,83.8 436.1,83.8 436.1,82.3 436.8,82.3 							"/>
						</g>
					</g>
				</g>
				<g id="XMLID_773_">
					<g id="XMLID_774_">
						<g id="XMLID_775_">
							<path id="XMLID_776_" class="st59" d="M431.8,55.3c-0.4,0-0.7-0.3-0.7-0.7v-0.4c0-0.4,0.3-0.7,0.7-0.7l2.6,0.1
								c0.4,0,0.7,0.3,0.7,0.7v0.4c0,0.4-0.3,0.7-0.7,0.7L431.8,55.3z"/>
							<path id="XMLID_777_" class="st60" d="M434.9,54.8c0,0.3-0.2,0.5-0.5,0.5l-2.6-0.1c-0.3,0-0.5-0.3-0.5-0.5v-0.4
								c0-0.3,0.2-0.5,0.5-0.5l2.6,0.1c0.3,0,0.5,0.3,0.5,0.5V54.8z"/>
						</g>
						<path id="XMLID_778_" class="st61" d="M434.3,54.5l-2.4-0.1c-0.1,0-0.2-0.1-0.2-0.2v-0.1c0-0.1,0.1-0.2,0.2-0.2l2.4,0.1
							c0.1,0,0.2,0.1,0.2,0.2v0.1C434.5,54.4,434.4,54.5,434.3,54.5z"/>
					</g>
					<g id="XMLID_779_">
						<g id="XMLID_780_">
							<path id="XMLID_781_" class="st59" d="M438.5,55.6c-0.4,0-0.7-0.3-0.7-0.7v-0.4c0-0.4,0.3-0.7,0.7-0.7l2.6,0.1
								c0.4,0,0.7,0.3,0.7,0.7V55c0,0.4-0.3,0.7-0.7,0.7L438.5,55.6z"/>
							<path id="XMLID_782_" class="st62" d="M441.7,55c0,0.3-0.2,0.5-0.5,0.5l-2.6-0.1c-0.3,0-0.5-0.3-0.5-0.5v-0.4
								c0-0.3,0.2-0.5,0.5-0.5l2.6,0.1c0.3,0,0.5,0.3,0.5,0.5V55z"/>
						</g>
						<path id="XMLID_783_" class="st63" d="M441,54.8l-2.4-0.1c-0.1,0-0.2-0.1-0.2-0.2v-0.1c0-0.1,0.1-0.2,0.2-0.2l2.4,0.1
							c0.1,0,0.2,0.1,0.2,0.2v0.1C441.3,54.7,441.2,54.8,441,54.8z"/>
					</g>
				</g>
				<g id="XMLID_2107_">
					<g id="XMLID_1649_">
						<path id="XMLID_1651_" d="M428.5,65.9c-1.3,0-2.3-0.9-2.3-1.9v-3.9c0-1,1-1.7,2.3-1.7l16,0.6c1.3,0,2.3,0.9,2.3,1.9v3.9
							c0,1-1,1.7-2.3,1.7L428.5,65.9z"/>
						<path id="XMLID_1650_" class="st64" d="M446.2,64.8c0,0.7-0.8,1.2-1.7,1.2l-16-0.6c-1,0-1.7-0.6-1.7-1.3v-3.9
							c0-0.7,0.8-1.2,1.7-1.2l16,0.6c1,0,1.7,0.6,1.7,1.3V64.8z"/>
					</g>
					<g id="XMLID_1987_">
						<polygon id="XMLID_1994_" class="st65" points="430.9,61.9 430.6,62.2 430.3,61.9 430.3,60.3 430.6,60 430.9,60.3 						"/>
						<polygon id="XMLID_1993_" class="st65" points="430.9,64.3 430.6,64.6 430.3,64.3 430.3,62.7 430.6,62.4 430.9,62.7 						"/>
						<polygon id="XMLID_1992_" class="st65" points="428.5,61.9 428.2,62.1 427.9,61.8 427.9,60.2 428.2,59.9 428.5,60.2 						"/>
						<polygon id="XMLID_1991_" class="st65" points="428.5,64.2 428.2,64.5 427.9,64.2 427.9,62.6 428.2,62.3 428.5,62.6 						"/>
						<polygon id="XMLID_1990_" class="st65" points="430.3,59.6 430.5,59.9 430.3,60.2 428.6,60.2 428.3,59.8 428.6,59.6 						"/>
						<polygon id="XMLID_1989_" class="st65" points="430.3,62 430.5,62.3 430.3,62.6 428.6,62.5 428.3,62.2 428.6,61.9 						"/>
						<polygon id="XMLID_1988_" class="st65" points="430.3,64.4 430.5,64.7 430.3,65 428.6,64.9 428.3,64.6 428.6,64.3 						"/>
					</g>
					<g id="XMLID_1966_">
						<g id="XMLID_1983_">
							<polygon id="XMLID_1986_" class="st66" points="434.5,62.1 434.2,62.4 433.9,62.1 433.9,60.4 434.2,60.1 434.5,60.4 							
								"/>
							<polygon id="XMLID_1985_" class="st66" points="432.1,64.4 431.8,64.6 431.5,64.3 431.5,62.7 431.8,62.4 432.1,62.7 							
								"/>
							<polygon id="XMLID_1984_" class="st66" points="433.8,59.8 434.1,60.1 433.8,60.4 432.2,60.3 431.9,60 432.2,59.7 							"/>
							<polygon id="XMLID_1995_" class="st66" points="433.8,62.1 434.1,62.4 433.8,62.7 432.2,62.7 431.9,62.3 432.2,62.1 							
								"/>
							<polygon id="XMLID_1996_" class="st66" points="433.8,64.5 434.1,64.8 433.8,65.1 432.2,65 431.9,64.7 432.2,64.4 							"/>
						</g>
						<g id="XMLID_1970_">
							<g id="XMLID_1978_">
								<polygon id="XMLID_1981_" class="st66" points="441.2,62.3 440.9,62.6 440.6,62.3 440.6,60.7 440.9,60.4 441.2,60.7 
																	"/>
								<polygon id="XMLID_1980_" class="st66" points="441.2,64.7 440.9,65 440.6,64.7 440.6,63 440.9,62.8 441.2,63.1 								"/>
								<polygon id="XMLID_1979_" class="st66" points="440.5,62.4 440.8,62.7 440.5,63 438.9,62.9 438.6,62.6 438.9,62.3 								
									"/>
								<polygon id="XMLID_1982_" class="st66" points="440.5,64.8 440.8,65.1 440.5,65.4 438.9,65.3 438.6,65 438.9,64.7 								
									"/>
								<polygon id="XMLID_1997_" class="st66" points="440.5,60 440.8,60.3 440.5,60.6 438.9,60.5 438.6,60.2 438.9,59.9 								
									"/>
							</g>
							<g id="XMLID_1971_">
								<polygon id="XMLID_1977_" class="st66" points="445,62.5 444.7,62.8 444.4,62.5 444.4,60.8 444.7,60.5 445,60.8 								"/>
								<polygon id="XMLID_1975_" class="st66" points="445,64.8 444.7,65.1 444.4,64.8 444.4,63.2 444.7,62.9 445,63.2 								"/>
							</g>
						</g>
						<g id="XMLID_1967_">
							<path id="XMLID_1969_" class="st66" d="M437.1,61.4c0,0.3-0.3,0.6-0.6,0.5c-0.3,0-0.6-0.3-0.6-0.6s0.3-0.6,0.6-0.5
								C436.8,60.8,437.1,61.1,437.1,61.4z"/>
							<path id="XMLID_1968_" class="st66" d="M437.1,63.7c0,0.3-0.3,0.6-0.6,0.5c-0.3,0-0.6-0.3-0.6-0.6s0.3-0.6,0.6-0.5
								C436.8,63.2,437.1,63.4,437.1,63.7z"/>
						</g>
					</g>
				</g>
			</g>
			<g id="XMLID_2052_">
				<g id="XMLID_1719_">
					<path id="XMLID_1721_" class="st67" d="M419.4,86.1c0,14.2-2.4,25.4-5.5,26c-0.4,0.2-0.8,0.2-1.3,0.2l-77.9-2.9
						c-0.5,0-0.9-0.1-1.3-0.3c-3.1-0.8-5.5-12.2-5.5-26.4c0-14.6,2.6-26.1,5.8-26.1c0.3-0.1,0.7-0.1,1-0.1l77.9,2.9
						c0.4,0,0.7,0.1,1,0.2C416.9,59.8,419.4,71.5,419.4,86.1z"/>
					<g id="XMLID_2034_">
						<g id="XMLID_1928_">
							
								<linearGradient id="XMLID_28_" gradientUnits="userSpaceOnUse" x1="373.7234" y1="103.4382" x2="373.7234" y2="57.8496" gradientTransform="matrix(1.0033 3.760000e-02 0 1 -1.3106 -10.3491)">
								<stop  offset="0" style="stop-color:#2E2E30"/>
								<stop  offset="0.1398" style="stop-color:#463C31"/>
								<stop  offset="0.9677" style="stop-color:#966C23"/>
							</linearGradient>
							<path id="XMLID_1962_" class="st68" d="M334.8,105.7l-0.1-0.3c-1.3-2.3-3.2-10.2-3.2-22.7c0-12.3,1.9-20.2,3.1-22.4l0.1-0.3
								l77.7,2.9l0.1,0.3c1.3,2.3,3.1,10.3,3.1,22.7c0,12.5-1.9,20.3-3.2,22.4l-0.1,0.2L334.8,105.7z"/>
							<path id="XMLID_1958_" class="st69" d="M412.2,63.5c1.2,2.3,3.1,10.1,3.1,22.4c0,12.4-1.9,20.1-3.1,22.2l-77.1-2.9
								c-1.2-2.1-3.1-10-3.1-22.4c0-12.3,1.9-20,3.1-22.2L412.2,63.5L412.2,63.5z M412.8,62.5l-0.6,0l-77.2-2.9l-0.6,0l-0.3,0.5
								c-1.3,2.3-3.2,10.2-3.2,22.7c0,12.6,1.9,20.6,3.2,22.9l0.3,0.5l0.6,0l77.1,2.9l0.6,0l0.3-0.5c1.3-2.2,3.2-10.1,3.2-22.7
								c0-12.4-1.9-20.5-3.2-22.9L412.8,62.5L412.8,62.5z"/>
						</g>
					</g>
				</g>
				<defs>
					<filter id="Adobe_OpacityMaskFilter" filterUnits="userSpaceOnUse" x="327.9" y="56.4" width="73.8" height="54">
						<feFlood  style="flood-color:white;flood-opacity:1" result="back"/>
						<feBlend  in="SourceGraphic" in2="back" mode="normal"/>
					</filter>
				</defs>
				<mask maskUnits="userSpaceOnUse" x="327.9" y="56.4" width="73.8" height="54" id="XMLID_29_">
					<g id="XMLID_436_" class="st70">
						
							<linearGradient id="XMLID_30_" gradientUnits="userSpaceOnUse" x1="297.865" y1="35.3287" x2="381.8183" y2="94.1714" gradientTransform="matrix(1.0033 3.760000e-02 0 1 -1.3106 -10.3491)">
							<stop  offset="0" style="stop-color:#8F9194"/>
							<stop  offset="0.1577" style="stop-color:#7B7C7F"/>
							<stop  offset="0.4105" style="stop-color:#5C5D60"/>
							<stop  offset="0.6436" style="stop-color:#434345"/>
							<stop  offset="0.8475" style="stop-color:#252425"/>
							<stop  offset="1" style="stop-color:#141414"/>
						</linearGradient>
						<polygon id="XMLID_437_" class="st71" points="318,112 404.8,115.2 404.8,54.4 318,51.2 						"/>
					</g>
				</mask>
				<path id="XMLID_824_" class="st72" d="M401.7,58.9c-15.3,14.7-34.4,35.7-38.1,51.5l-28.9-1.1c-0.5,0-0.9-0.1-1.3-0.3
					c-3.1-0.8-5.5-12.2-5.5-26.4c0-14.6,2.6-26.1,5.8-26.1c0.3-0.1,0.7-0.1,1-0.1L401.7,58.9z"/>
				<g id="XMLID_2084_">
					<g id="XMLID_4393_">
						<path id="XMLID_4_" class="st73" d="M373.6,62c0,21.1-8.6,37.8-19.1,37.4c-10.6-0.4-19.1-17.8-19.1-38.9L373.6,62z"/>
						<path class="st74" d="M373,62c0,19.4-8.3,34.8-18.5,34.4S335.9,80,335.9,60.6L373,62z"/>
						<path class="st75" d="M372.4,62c0,17.7-8,31.8-18,31.4c-9.9-0.4-18-15.1-18-32.8L372.4,62z"/>
						<path class="st76" d="M371.8,62c0,16.1-7.8,28.8-17.4,28.4c-9.6-0.4-17.4-13.7-17.4-29.7L371.8,62z"/>
						<path class="st77" d="M371.2,62c0,14.4-7.5,25.8-16.8,25.4c-9.3-0.3-16.8-12.3-16.8-26.7L371.2,62z"/>
						<path class="st78" d="M370.6,61.9c0,12.7-7.2,22.8-16.2,22.4c-8.9-0.3-16.2-10.9-16.2-23.6L370.6,61.9z"/>
						<path class="st79" d="M370,61.9c0,11.1-7,19.8-15.6,19.4c-8.6-0.3-15.6-9.5-15.6-20.6L370,61.9z"/>
						<path class="st80" d="M369.4,61.9c0,9.4-6.7,16.7-15,16.4c-8.3-0.3-15-8.2-15-17.6L369.4,61.9z"/>
						<path class="st81" d="M368.9,61.9c0,7.7-6.4,13.7-14.4,13.4c-8-0.3-14.4-6.8-14.4-14.5L368.9,61.9z"/>
						<path class="st82" d="M368.3,61.8c0,6-6.2,10.7-13.8,10.4c-7.6-0.3-13.8-5.4-13.8-11.5L368.3,61.8z"/>
						<path class="st83" d="M367.7,61.8c0,4.4-5.9,7.7-13.2,7.4c-7.3-0.3-13.2-4-13.2-8.4L367.7,61.8z"/>
						<path id="XMLID_3_" class="st84" d="M367.1,61.8c0,2.7-5.7,4.7-12.6,4.4c-7-0.3-12.6-2.7-12.6-5.4L367.1,61.8z"/>
					</g>
					<g id="XMLID_4410_">
						<path id="XMLID_2_" class="st73" d="M412.2,63.5c0,21.1-8.7,37.8-19.3,37.4c-10.7-0.4-19.3-17.8-19.3-38.9L412.2,63.5z"/>
						<path class="st74" d="M411.6,63.5c0,19.4-8.4,34.8-18.7,34.4c-10.3-0.4-18.7-16.4-18.7-35.8L411.6,63.5z"/>
						<path class="st75" d="M411,63.4c0,17.7-8.1,31.8-18.1,31.4c-10-0.4-18.1-15.1-18.1-32.8L411,63.4z"/>
						<path class="st76" d="M410.4,63.4c0,16.1-7.9,28.8-17.5,28.4c-9.7-0.4-17.5-13.7-17.5-29.7L410.4,63.4z"/>
						<path class="st77" d="M409.9,63.4c0,14.4-7.6,25.8-16.9,25.4c-9.4-0.4-16.9-12.3-16.9-26.7L409.9,63.4z"/>
						<path class="st78" d="M409.3,63.4c0,12.7-7.3,22.8-16.3,22.4c-9-0.3-16.3-10.9-16.3-23.7L409.3,63.4z"/>
						<path class="st79" d="M408.7,63.4c0,11.1-7,19.8-15.7,19.4c-8.7-0.3-15.7-9.6-15.7-20.6L408.7,63.4z"/>
						<path class="st80" d="M408.1,63.3c0,9.4-6.8,16.7-15.1,16.4c-8.4-0.3-15.2-8.2-15.2-17.6L408.1,63.3z"/>
						<path class="st81" d="M407.5,63.3c0,7.7-6.5,13.7-14.6,13.4c-8-0.3-14.6-6.8-14.6-14.5L407.5,63.3z"/>
						<path class="st82" d="M406.9,63.3c0,6-6.2,10.7-14,10.4c-7.7-0.3-14-5.4-14-11.5L406.9,63.3z"/>
						<path class="st83" d="M406.3,63.3c0,4.4-6,7.7-13.4,7.4s-13.4-4-13.4-8.4L406.3,63.3z"/>
						<path id="XMLID_1_" class="st84" d="M405.7,63.2c0,2.7-5.7,4.7-12.8,4.4s-12.8-2.7-12.8-5.4L405.7,63.2z"/>
					</g>
				</g>
				<g id="XMLID_6997_">
					<g id="XMLID_4227_">
						<path id="XMLID_5782_" class="st85" d="M414.3,97.1c0-0.3,0.2-0.6,0.4-0.7c0.1-1.1,0.2-2.3,0.3-3.6c-0.4,0-0.7-0.4-0.7-0.8
							c0-0.4,0.4-0.8,0.8-0.8c0,0,0,0,0,0c0.1-1.1,0.1-2.3,0.1-3.6c0,0-0.1,0-0.1,0c-0.4,0-0.8-0.4-0.8-0.8c0-0.4,0.4-0.8,0.8-0.8
							c0.1,0,0.1,0,0.2,0c0-0.1,0-0.1,0-0.2c0-1.2,0-2.3,0-3.4c0,0-0.1,0-0.1,0c-0.4,0-0.8-0.4-0.8-0.8c0-0.4,0.4-0.8,0.8-0.8
							c0,0,0,0,0,0c-0.1-1.2-0.1-2.4-0.2-3.6c-0.4-0.1-0.6-0.4-0.6-0.8c0-0.3,0.2-0.6,0.5-0.7c-0.2-2.5-0.5-4.6-0.9-6.4
							c-0.1,0.1-0.3,0.2-0.5,0.2c-0.4,0-0.8-0.4-0.8-0.8c0-0.4,0.4-0.8,0.8-0.8c0.1,0,0.2,0,0.3,0.1c-0.5-2.3-1-3.9-1.5-4.7
							l-1.5-0.1c0,0.1,0.1,0.2,0.1,0.3c0,0.4-0.4,0.8-0.8,0.8c-0.4,0-0.8-0.4-0.8-0.8c0-0.1,0-0.2,0.1-0.3l-2-0.1
							c0,0.1,0.1,0.2,0.1,0.3c0,0.4-0.4,0.8-0.8,0.8c-0.4,0-0.8-0.4-0.8-0.8c0-0.1,0-0.2,0.1-0.3l-2-0.1c0,0.1,0.1,0.2,0.1,0.3
							c0,0.4-0.4,0.8-0.8,0.8c-0.4,0-0.8-0.4-0.8-0.8c0-0.1,0-0.2,0.1-0.3l-2-0.1c0,0.1,0.1,0.2,0.1,0.3c0,0.4-0.4,0.8-0.8,0.8
							c-0.4,0-0.8-0.4-0.8-0.8c0-0.1,0-0.2,0.1-0.3l-2.2-0.1c0,0.1,0.1,0.2,0.1,0.3c0,0.4-0.4,0.8-0.8,0.8c-0.4,0-0.8-0.4-0.8-0.8
							c0-0.1,0-0.2,0.1-0.3l-2-0.1c0,0.1,0.1,0.2,0.1,0.3c0,0.4-0.4,0.8-0.8,0.8c-0.4,0-0.8-0.4-0.8-0.8c0-0.1,0-0.2,0.1-0.3l-2-0.1
							c0,0.1,0.1,0.2,0.1,0.3c0,0.4-0.4,0.8-0.8,0.8c-0.4,0-0.8-0.4-0.8-0.8c0-0.1,0-0.2,0.1-0.3l-2-0.1c0,0.1,0.1,0.2,0.1,0.3
							c0,0.4-0.4,0.8-0.8,0.8c-0.4,0-0.8-0.4-0.8-0.8c0-0.1,0-0.2,0.1-0.3l-2-0.1c0,0.1,0.1,0.2,0.1,0.3c0,0.4-0.4,0.8-0.8,0.8
							c-0.4,0-0.8-0.4-0.8-0.8c0-0.1,0-0.2,0.1-0.3l-2-0.1c0,0.1,0.1,0.2,0.1,0.3c0,0.4-0.4,0.8-0.8,0.8c-0.4,0-0.8-0.4-0.8-0.8
							c0-0.1,0-0.2,0.1-0.3l-2-0.1c0,0.1,0.1,0.2,0.1,0.3c0,0.4-0.4,0.8-0.8,0.8c-0.4,0-0.8-0.4-0.8-0.8c0-0.1,0-0.2,0.1-0.3l-2-0.1
							c0,0.1,0.1,0.2,0.1,0.3c0,0.4-0.4,0.8-0.8,0.8c-0.4,0-0.8-0.4-0.8-0.8c0-0.1,0-0.2,0.1-0.3l-2-0.1c0,0.1,0.1,0.2,0.1,0.3
							c0,0.4-0.4,0.8-0.8,0.8c-0.4,0-0.8-0.4-0.8-0.8c0-0.1,0-0.2,0.1-0.3l-2-0.1c0,0.1,0.1,0.2,0.1,0.3c0,0.4-0.4,0.8-0.8,0.8
							c-0.4,0-0.8-0.4-0.8-0.8c0-0.1,0-0.2,0.1-0.3l-2-0.1c0,0.1,0.1,0.2,0.1,0.3c0,0.4-0.4,0.8-0.8,0.8c-0.4,0-0.8-0.4-0.8-0.8
							c0-0.1,0-0.2,0.1-0.3l-2-0.1c0,0.1,0.1,0.2,0.1,0.3c0,0.4-0.4,0.8-0.8,0.8c-0.4,0-0.8-0.4-0.8-0.8c0-0.1,0-0.2,0.1-0.3l-2-0.1
							c0,0.1,0.1,0.2,0.1,0.3c0,0.4-0.4,0.8-0.8,0.8c-0.4,0-0.8-0.4-0.8-0.8c0-0.1,0-0.2,0.1-0.3l-2-0.1c0,0.1,0.1,0.2,0.1,0.3
							c0,0.4-0.4,0.8-0.8,0.8c-0.4,0-0.8-0.4-0.8-0.8c0-0.1,0-0.2,0.1-0.3l-2-0.1c0,0.1,0.1,0.2,0.1,0.3c0,0.4-0.4,0.8-0.8,0.8
							c-0.4,0-0.8-0.4-0.8-0.8c0-0.1,0-0.2,0.1-0.3l-2-0.1c0,0.1,0.1,0.2,0.1,0.3c0,0.4-0.4,0.8-0.8,0.8c-0.4,0-0.8-0.4-0.8-0.8
							c0-0.1,0-0.2,0.1-0.3l-2-0.1c0,0.1,0.1,0.2,0.1,0.3c0,0.4-0.4,0.8-0.8,0.8c-0.4,0-0.8-0.4-0.8-0.8c0-0.1,0-0.2,0.1-0.3l-2-0.1
							c0,0.1,0.1,0.2,0.1,0.3c0,0.4-0.4,0.8-0.8,0.8c-0.4,0-0.8-0.4-0.8-0.8c0-0.1,0-0.2,0.1-0.3l-1.7-0.1c-0.4,0.8-1,2.4-1.5,4.7
							c0.1-0.1,0.3-0.1,0.4-0.1c0.4,0,0.8,0.4,0.8,0.8c0,0.4-0.4,0.8-0.8,0.8c-0.3,0-0.5-0.2-0.6-0.4c-0.1,0.6-0.2,1.2-0.3,1.9
							c0,0.1,0,0.1,0,0.2c0,0.2-0.1,0.3-0.1,0.4c-0.2,1.2-0.3,2.5-0.5,3.9c0.3,0.1,0.6,0.4,0.6,0.8c0,0.4-0.3,0.7-0.7,0.8
							c-0.1,1.1-0.2,2.3-0.2,3.6c0.1,0,0.1,0,0.2,0c0.4,0,0.8,0.4,0.8,0.8c0,0.4-0.4,0.8-0.8,0.8c-0.1,0-0.2,0-0.2,0
							c0,1.1,0,2.2,0,3.4c0,0.1,0,0.2,0,0.2c0.1,0,0.2,0,0.3,0c0.4,0,0.8,0.4,0.8,0.8c0,0.4-0.4,0.8-0.8,0.8c-0.1,0-0.2,0-0.3-0.1
							c0,1.3,0.1,2.5,0.1,3.6c0,0,0.1,0,0.1,0c0.4,0,0.8,0.4,0.8,0.8c0,0.4-0.4,0.8-0.8,0.8c0,0,0,0-0.1,0c0.1,1.3,0.2,2.5,0.3,3.6
							c0.3,0.1,0.6,0.4,0.6,0.8c0,0.3-0.2,0.5-0.4,0.7c0.3,2.6,0.7,4.7,1.1,6.4c0.1,0,0.2,0,0.3,0c0.4,0,0.8,0.4,0.8,0.8
							c0,0.4-0.3,0.7-0.7,0.7c0.3,1.2,0.7,2.1,1,2.6l0.5,0c-0.4-0.1-0.7-0.4-0.7-0.8c0-0.4,0.4-0.8,0.8-0.8c0.4,0,0.8,0.4,0.8,0.8
							c0,0.4-0.3,0.7-0.7,0.7l3.2,0.1c-0.4-0.1-0.7-0.4-0.7-0.8c0-0.4,0.4-0.8,0.8-0.8c0.4,0,0.8,0.4,0.8,0.8c0,0.4-0.3,0.7-0.7,0.7
							l3.2,0.1c-0.4-0.1-0.7-0.4-0.7-0.8c0-0.4,0.4-0.8,0.8-0.8c0.4,0,0.8,0.4,0.8,0.8c0,0.4-0.3,0.7-0.7,0.7l3.2,0.1
							c-0.4-0.1-0.7-0.4-0.7-0.8c0-0.4,0.4-0.8,0.8-0.8c0.4,0,0.8,0.4,0.8,0.8c0,0.4-0.3,0.7-0.7,0.7l3.2,0.1
							c-0.4-0.1-0.7-0.4-0.7-0.8c0-0.4,0.4-0.8,0.8-0.8c0.4,0,0.8,0.4,0.8,0.8c0,0.4-0.3,0.7-0.7,0.7l3.2,0.1
							c-0.4-0.1-0.7-0.4-0.7-0.8c0-0.4,0.4-0.8,0.8-0.8c0.4,0,0.8,0.4,0.8,0.8c0,0.4-0.3,0.7-0.7,0.7l3.2,0.1
							c-0.4-0.1-0.7-0.4-0.7-0.8c0-0.4,0.4-0.8,0.8-0.8c0.4,0,0.8,0.4,0.8,0.8c0,0.4-0.3,0.7-0.7,0.7l3.2,0.1
							c-0.4-0.1-0.7-0.4-0.7-0.8c0-0.4,0.4-0.8,0.8-0.8c0.4,0,0.8,0.4,0.8,0.8c0,0.4-0.3,0.7-0.7,0.7l3.2,0.1
							c-0.4-0.1-0.7-0.4-0.7-0.8c0-0.4,0.4-0.8,0.8-0.8c0.4,0,0.8,0.4,0.8,0.8c0,0.4-0.3,0.7-0.7,0.7l3.2,0.1
							c-0.4-0.1-0.7-0.4-0.7-0.8c0-0.4,0.4-0.8,0.8-0.8c0.4,0,0.8,0.4,0.8,0.8c0,0.4-0.3,0.7-0.7,0.7l3.2,0.1
							c-0.4-0.1-0.7-0.4-0.7-0.8c0-0.4,0.4-0.8,0.8-0.8c0.4,0,0.8,0.4,0.8,0.8c0,0.4-0.3,0.7-0.7,0.7l3.2,0.1
							c-0.4-0.1-0.7-0.4-0.7-0.8c0-0.4,0.4-0.8,0.8-0.8c0.4,0,0.8,0.4,0.8,0.8c0,0.4-0.3,0.7-0.7,0.7l3.2,0.1
							c-0.4-0.1-0.7-0.4-0.7-0.8c0-0.4,0.4-0.8,0.8-0.8c0.4,0,0.8,0.4,0.8,0.8c0,0.4-0.3,0.7-0.7,0.7l3.2,0.1
							c-0.4-0.1-0.7-0.4-0.7-0.8c0-0.4,0.4-0.8,0.8-0.8c0.4,0,0.8,0.4,0.8,0.8c0,0.4-0.3,0.7-0.7,0.7l3.2,0.1
							c-0.4-0.1-0.7-0.4-0.7-0.8c0-0.4,0.4-0.8,0.8-0.8c0.4,0,0.8,0.4,0.8,0.8c0,0.4-0.3,0.7-0.7,0.7l3.2,0.1
							c-0.4-0.1-0.7-0.4-0.7-0.8c0-0.4,0.4-0.8,0.8-0.8c0.4,0,0.8,0.4,0.8,0.8c0,0.4-0.3,0.7-0.7,0.7l3.2,0.1
							c-0.4-0.1-0.7-0.4-0.7-0.8c0-0.4,0.4-0.8,0.8-0.8c0.4,0,0.8,0.4,0.8,0.8c0,0.4-0.3,0.7-0.7,0.7l3.2,0.1
							c-0.4-0.1-0.7-0.4-0.7-0.8c0-0.4,0.4-0.8,0.8-0.8c0.4,0,0.8,0.4,0.8,0.8c0,0.4-0.3,0.7-0.7,0.7l3.2,0.1
							c-0.4-0.1-0.7-0.4-0.7-0.8c0-0.4,0.4-0.8,0.8-0.8c0.4,0,0.8,0.4,0.8,0.8c0,0.4-0.3,0.7-0.7,0.7l3.4,0.1
							c-0.4-0.1-0.7-0.4-0.7-0.8c0-0.4,0.4-0.8,0.8-0.8c0.4,0,0.8,0.4,0.8,0.8c0,0.4-0.3,0.7-0.7,0.7l3.2,0.1
							c-0.4-0.1-0.7-0.4-0.7-0.8c0-0.4,0.4-0.8,0.8-0.8c0.4,0,0.8,0.4,0.8,0.8c0,0.4-0.3,0.7-0.7,0.7l3.2,0.1
							c-0.4-0.1-0.7-0.4-0.7-0.8c0-0.4,0.4-0.8,0.8-0.8c0.4,0,0.8,0.4,0.8,0.8c0,0.4-0.3,0.7-0.7,0.7l3.2,0.1
							c-0.4-0.1-0.7-0.4-0.7-0.8c0-0.4,0.4-0.8,0.8-0.8c0.4,0,0.8,0.4,0.8,0.8c0,0.4-0.3,0.7-0.7,0.7l0.4,0c0.3-0.5,0.6-1.4,1-2.6
							c-0.3-0.1-0.5-0.4-0.5-0.8c0-0.4,0.4-0.8,0.8-0.8c0.1,0,0.1,0,0.1,0c0.4-1.7,0.8-3.8,1.1-6.4
							C414.5,97.5,414.3,97.3,414.3,97.1z M334,97.4c-0.4,0-0.8-0.4-0.8-0.8c0-0.4,0.4-0.8,0.8-0.8c0.4,0,0.8,0.4,0.8,0.8
							C334.8,97.1,334.4,97.4,334,97.4z M334,92.3c-0.4,0-0.8-0.4-0.8-0.8c0-0.4,0.4-0.8,0.8-0.8c0.4,0,0.8,0.4,0.8,0.8
							C334.8,92,334.4,92.3,334,92.3z M334,87.2c-0.4,0-0.8-0.4-0.8-0.8c0-0.4,0.4-0.8,0.8-0.8c0.4,0,0.8,0.4,0.8,0.8
							C334.8,86.8,334.4,87.2,334,87.2z M334,82.1c-0.4,0-0.8-0.4-0.8-0.8c0-0.4,0.4-0.8,0.8-0.8c0.4,0,0.8,0.4,0.8,0.8
							C334.8,81.7,334.4,82.1,334,82.1z M334,76.9c-0.4,0-0.8-0.4-0.8-0.8c0-0.4,0.4-0.8,0.8-0.8c0.4,0,0.8,0.4,0.8,0.8
							C334.8,76.6,334.4,77,334,76.9z M334,71.8c-0.4,0-0.8-0.4-0.8-0.8c0-0.4,0.4-0.8,0.8-0.8c0.4,0,0.8,0.4,0.8,0.8
							C334.8,71.5,334.4,71.9,334,71.8z M335.7,100c-0.4,0-0.8-0.4-0.8-0.8c0-0.4,0.4-0.8,0.8-0.8c0.4,0,0.8,0.4,0.8,0.8
							C336.5,99.7,336.2,100,335.7,100z M335.7,94.9c-0.4,0-0.8-0.4-0.8-0.8c0-0.4,0.4-0.8,0.8-0.8c0.4,0,0.8,0.4,0.8,0.8
							C336.5,94.6,336.2,94.9,335.7,94.9z M335.7,89.8c-0.4,0-0.8-0.4-0.8-0.8c0-0.4,0.4-0.8,0.8-0.8c0.4,0,0.8,0.4,0.8,0.8
							C336.5,89.5,336.2,89.8,335.7,89.8z M335.7,84.7c-0.4,0-0.8-0.4-0.8-0.8c0-0.4,0.4-0.8,0.8-0.8c0.4,0,0.8,0.4,0.8,0.8
							C336.5,84.4,336.2,84.7,335.7,84.7z M335.7,79.6c-0.4,0-0.8-0.4-0.8-0.8c0-0.4,0.4-0.8,0.8-0.8c0.4,0,0.8,0.4,0.8,0.8
							C336.5,79.3,336.2,79.6,335.7,79.6z M335.7,74.5c-0.4,0-0.8-0.4-0.8-0.8c0-0.4,0.4-0.8,0.8-0.8c0.4,0,0.8,0.4,0.8,0.8
							C336.5,74.1,336.2,74.5,335.7,74.5z M335.7,69.4c-0.4,0-0.8-0.4-0.8-0.8c0-0.4,0.4-0.8,0.8-0.8c0.4,0,0.8,0.4,0.8,0.8
							C336.5,69,336.2,69.4,335.7,69.4z M335.7,64.2c-0.4,0-0.8-0.4-0.8-0.8c0-0.4,0.4-0.8,0.8-0.8c0.4,0,0.8,0.4,0.8,0.8
							C336.5,63.9,336.2,64.3,335.7,64.2z M337.5,102.7c-0.4,0-0.8-0.4-0.8-0.8c0-0.4,0.4-0.8,0.8-0.8c0.4,0,0.8,0.4,0.8,0.8
							C338.2,102.4,337.9,102.8,337.5,102.7z M337.5,97.5c-0.4,0-0.8-0.4-0.8-0.8c0-0.4,0.4-0.8,0.8-0.8c0.4,0,0.8,0.4,0.8,0.8
							C338.2,97.2,337.9,97.5,337.5,97.5z M337.5,92.4c-0.4,0-0.8-0.4-0.8-0.8c0-0.4,0.4-0.8,0.8-0.8c0.4,0,0.8,0.4,0.8,0.8
							C338.2,92.1,337.9,92.4,337.5,92.4z M337.5,87.3c-0.4,0-0.8-0.4-0.8-0.8c0-0.4,0.4-0.8,0.8-0.8c0.4,0,0.8,0.4,0.8,0.8
							C338.2,87,337.9,87.3,337.5,87.3z M337.5,82.2c-0.4,0-0.8-0.4-0.8-0.8c0-0.4,0.4-0.8,0.8-0.8c0.4,0,0.8,0.4,0.8,0.8
							C338.2,81.9,337.9,82.2,337.5,82.2z M337.5,77.1c-0.4,0-0.8-0.4-0.8-0.8c0-0.4,0.4-0.8,0.8-0.8c0.4,0,0.8,0.4,0.8,0.8
							C338.2,76.8,337.9,77.1,337.5,77.1z M337.5,72c-0.4,0-0.8-0.4-0.8-0.8c0-0.4,0.4-0.8,0.8-0.8c0.4,0,0.8,0.4,0.8,0.8
							C338.2,71.6,337.9,72,337.5,72z M337.5,66.9c-0.4,0-0.8-0.4-0.8-0.8c0-0.4,0.4-0.8,0.8-0.8c0.4,0,0.8,0.4,0.8,0.8
							C338.2,66.5,337.9,66.9,337.5,66.9z M339.2,100.1c-0.4,0-0.8-0.4-0.8-0.8c0-0.4,0.4-0.8,0.8-0.8c0.4,0,0.8,0.4,0.8,0.8
							C340,99.8,339.6,100.2,339.2,100.1z M339.2,95c-0.4,0-0.8-0.4-0.8-0.8c0-0.4,0.4-0.8,0.8-0.8c0.4,0,0.8,0.4,0.8,0.8
							C340,94.7,339.6,95.1,339.2,95z M339.2,89.9c-0.4,0-0.8-0.4-0.8-0.8c0-0.4,0.4-0.8,0.8-0.8c0.4,0,0.8,0.4,0.8,0.8
							C340,89.6,339.6,89.9,339.2,89.9z M339.2,84.8c-0.4,0-0.8-0.4-0.8-0.8c0-0.4,0.4-0.8,0.8-0.8c0.4,0,0.8,0.4,0.8,0.8
							C340,84.5,339.6,84.8,339.2,84.8z M339.2,79.7c-0.4,0-0.8-0.4-0.8-0.8c0-0.4,0.4-0.8,0.8-0.8c0.4,0,0.8,0.4,0.8,0.8
							C340,79.4,339.6,79.7,339.2,79.7z M339.2,74.6c-0.4,0-0.8-0.4-0.8-0.8c0-0.4,0.4-0.8,0.8-0.8c0.4,0,0.8,0.4,0.8,0.8
							C340,74.3,339.6,74.6,339.2,74.6z M339.2,69.5c-0.4,0-0.8-0.4-0.8-0.8c0-0.4,0.4-0.8,0.8-0.8c0.4,0,0.8,0.4,0.8,0.8
							C340,69.2,339.6,69.5,339.2,69.5z M339.2,64.4c-0.4,0-0.8-0.4-0.8-0.8s0.4-0.8,0.8-0.8c0.4,0,0.8,0.4,0.8,0.8
							S339.6,64.4,339.2,64.4z M340.9,102.9c-0.4,0-0.8-0.4-0.8-0.8c0-0.4,0.4-0.8,0.8-0.8c0.4,0,0.8,0.4,0.8,0.8
							C341.7,102.5,341.3,102.9,340.9,102.9z M340.9,97.6c-0.4,0-0.8-0.4-0.8-0.8c0-0.4,0.4-0.8,0.8-0.8c0.4,0,0.8,0.4,0.8,0.8
							C341.7,97.3,341.3,97.7,340.9,97.6z M340.9,92.5c-0.4,0-0.8-0.4-0.8-0.8c0-0.4,0.4-0.8,0.8-0.8c0.4,0,0.8,0.4,0.8,0.8
							C341.7,92.2,341.3,92.5,340.9,92.5z M340.9,87.4c-0.4,0-0.8-0.4-0.8-0.8c0-0.4,0.4-0.8,0.8-0.8c0.4,0,0.8,0.4,0.8,0.8
							C341.7,87.1,341.3,87.4,340.9,87.4z M340.9,82.3c-0.4,0-0.8-0.4-0.8-0.8c0-0.4,0.4-0.8,0.8-0.8c0.4,0,0.8,0.4,0.8,0.8
							C341.7,82,341.3,82.3,340.9,82.3z M340.9,77.2c-0.4,0-0.8-0.4-0.8-0.8c0-0.4,0.4-0.8,0.8-0.8c0.4,0,0.8,0.4,0.8,0.8
							C341.7,76.9,341.3,77.2,340.9,77.2z M340.9,72.1c-0.4,0-0.8-0.4-0.8-0.8c0-0.4,0.4-0.8,0.8-0.8c0.4,0,0.8,0.4,0.8,0.8
							C341.7,71.8,341.3,72.1,340.9,72.1z M340.9,67c-0.4,0-0.8-0.4-0.8-0.8c0-0.4,0.4-0.8,0.8-0.8c0.4,0,0.8,0.4,0.8,0.8
							C341.7,66.7,341.3,67,340.9,67z M342.6,100.3c-0.4,0-0.8-0.4-0.8-0.8c0-0.4,0.4-0.8,0.8-0.8c0.4,0,0.8,0.4,0.8,0.8
							C343.4,100,343,100.3,342.6,100.3z M342.6,95.2c-0.4,0-0.8-0.4-0.8-0.8c0-0.4,0.4-0.8,0.8-0.8c0.4,0,0.8,0.4,0.8,0.8
							C343.4,94.8,343,95.2,342.6,95.2z M342.6,90.1c-0.4,0-0.8-0.4-0.8-0.8c0-0.4,0.4-0.8,0.8-0.8c0.4,0,0.8,0.4,0.8,0.8
							C343.4,89.7,343,90.1,342.6,90.1z M342.6,84.9c-0.4,0-0.8-0.4-0.8-0.8c0-0.4,0.4-0.8,0.8-0.8c0.4,0,0.8,0.4,0.8,0.8
							C343.4,84.6,343,85,342.6,84.9z M342.6,79.8c-0.4,0-0.8-0.4-0.8-0.8c0-0.4,0.4-0.8,0.8-0.8c0.4,0,0.8,0.4,0.8,0.8
							C343.4,79.5,343,79.8,342.6,79.8z M342.6,74.7c-0.4,0-0.8-0.4-0.8-0.8c0-0.4,0.4-0.8,0.8-0.8c0.4,0,0.8,0.4,0.8,0.8
							C343.4,74.4,343,74.7,342.6,74.7z M342.6,69.6c-0.4,0-0.8-0.4-0.8-0.8c0-0.4,0.4-0.8,0.8-0.8c0.4,0,0.8,0.4,0.8,0.8
							C343.4,69.3,343,69.6,342.6,69.6z M342.6,64.5c-0.4,0-0.8-0.4-0.8-0.8s0.4-0.8,0.8-0.8c0.4,0,0.8,0.4,0.8,0.8
							C343.4,64.2,343,64.5,342.6,64.5z M344.3,103c-0.4,0-0.8-0.4-0.8-0.8c0-0.4,0.4-0.8,0.8-0.8c0.4,0,0.8,0.4,0.8,0.8
							C345.1,102.7,344.8,103,344.3,103z M344.3,97.8c-0.4,0-0.8-0.4-0.8-0.8c0-0.4,0.4-0.8,0.8-0.8c0.4,0,0.8,0.4,0.8,0.8
							C345.1,97.5,344.8,97.8,344.3,97.8z M344.3,92.7c-0.4,0-0.8-0.4-0.8-0.8c0-0.4,0.4-0.8,0.8-0.8c0.4,0,0.8,0.4,0.8,0.8
							C345.1,92.3,344.8,92.7,344.3,92.7z M344.3,87.6c-0.4,0-0.8-0.4-0.8-0.8c0-0.4,0.4-0.8,0.8-0.8c0.4,0,0.8,0.4,0.8,0.8
							C345.1,87.2,344.8,87.6,344.3,87.6z M344.3,82.4c-0.4,0-0.8-0.4-0.8-0.8c0-0.4,0.4-0.8,0.8-0.8c0.4,0,0.8,0.4,0.8,0.8
							C345.1,82.1,344.8,82.5,344.3,82.4z M344.3,77.3c-0.4,0-0.8-0.4-0.8-0.8c0-0.4,0.4-0.8,0.8-0.8c0.4,0,0.8,0.4,0.8,0.8
							C345.1,77,344.8,77.3,344.3,77.3z M344.3,72.2c-0.4,0-0.8-0.4-0.8-0.8c0-0.4,0.4-0.8,0.8-0.8c0.4,0,0.8,0.4,0.8,0.8
							C345.1,71.9,344.8,72.2,344.3,72.2z M344.3,67.1c-0.4,0-0.8-0.4-0.8-0.8c0-0.4,0.4-0.8,0.8-0.8c0.4,0,0.8,0.4,0.8,0.8
							C345.1,66.8,344.8,67.1,344.3,67.1z M346.1,100.4c-0.4,0-0.8-0.4-0.8-0.8c0-0.4,0.4-0.8,0.8-0.8c0.4,0,0.8,0.4,0.8,0.8
							C346.8,100.1,346.5,100.4,346.1,100.4z M346.1,95.3c-0.4,0-0.8-0.4-0.8-0.8c0-0.4,0.4-0.8,0.8-0.8c0.4,0,0.8,0.4,0.8,0.8
							C346.8,95,346.5,95.3,346.1,95.3z M346.1,90.2c-0.4,0-0.8-0.4-0.8-0.8c0-0.4,0.4-0.8,0.8-0.8c0.4,0,0.8,0.4,0.8,0.8
							C346.8,89.9,346.5,90.2,346.1,90.2z M346.1,85.1c-0.4,0-0.8-0.4-0.8-0.8c0-0.4,0.4-0.8,0.8-0.8c0.4,0,0.8,0.4,0.8,0.8
							C346.8,84.8,346.5,85.1,346.1,85.1z M346.1,80c-0.4,0-0.8-0.4-0.8-0.8c0-0.4,0.4-0.8,0.8-0.8c0.4,0,0.8,0.4,0.8,0.8
							C346.8,79.6,346.5,80,346.1,80z M346.1,74.9c-0.4,0-0.8-0.4-0.8-0.8c0-0.4,0.4-0.8,0.8-0.8c0.4,0,0.8,0.4,0.8,0.8
							C346.8,74.5,346.5,74.9,346.1,74.9z M346.1,69.7c-0.4,0-0.8-0.4-0.8-0.8c0-0.4,0.4-0.8,0.8-0.8c0.4,0,0.8,0.4,0.8,0.8
							C346.8,69.4,346.5,69.8,346.1,69.7z M346.1,64.6c-0.4,0-0.8-0.4-0.8-0.8c0-0.4,0.4-0.8,0.8-0.8c0.4,0,0.8,0.4,0.8,0.8
							C346.8,64.3,346.5,64.6,346.1,64.6z M347.8,103.1c-0.4,0-0.8-0.4-0.8-0.8c0-0.4,0.4-0.8,0.8-0.8c0.4,0,0.8,0.4,0.8,0.8
							C348.6,102.8,348.2,103.1,347.8,103.1z M347.8,97.9c-0.4,0-0.8-0.4-0.8-0.8c0-0.4,0.4-0.8,0.8-0.8c0.4,0,0.8,0.4,0.8,0.8
							C348.6,97.6,348.2,97.9,347.8,97.9z M347.8,92.8c-0.4,0-0.8-0.4-0.8-0.8c0-0.4,0.4-0.8,0.8-0.8c0.4,0,0.8,0.4,0.8,0.8
							C348.6,92.5,348.2,92.8,347.8,92.8z M347.8,87.7c-0.4,0-0.8-0.4-0.8-0.8c0-0.4,0.4-0.8,0.8-0.8c0.4,0,0.8,0.4,0.8,0.8
							C348.6,87.4,348.2,87.7,347.8,87.7z M347.8,82.6c-0.4,0-0.8-0.4-0.8-0.8c0-0.4,0.4-0.8,0.8-0.8c0.4,0,0.8,0.4,0.8,0.8
							C348.6,82.2,348.2,82.6,347.8,82.6z M347.8,77.5c-0.4,0-0.8-0.4-0.8-0.8c0-0.4,0.4-0.8,0.8-0.8c0.4,0,0.8,0.4,0.8,0.8
							C348.6,77.1,348.2,77.5,347.8,77.5z M347.8,72.4c-0.4,0-0.8-0.4-0.8-0.8c0-0.4,0.4-0.8,0.8-0.8c0.4,0,0.8,0.4,0.8,0.8
							C348.6,72,348.2,72.4,347.8,72.4z M347.8,67.2c-0.4,0-0.8-0.4-0.8-0.8c0-0.4,0.4-0.8,0.8-0.8c0.4,0,0.8,0.4,0.8,0.8
							C348.6,66.9,348.2,67.3,347.8,67.2z M349.5,100.5c-0.4,0-0.8-0.4-0.8-0.8c0-0.4,0.4-0.8,0.8-0.8c0.4,0,0.8,0.4,0.8,0.8
							C350.3,100.2,349.9,100.5,349.5,100.5z M349.5,95.4c-0.4,0-0.8-0.4-0.8-0.8c0-0.4,0.4-0.8,0.8-0.8c0.4,0,0.8,0.4,0.8,0.8
							C350.3,95.1,349.9,95.4,349.5,95.4z M349.5,90.3c-0.4,0-0.8-0.4-0.8-0.8c0-0.4,0.4-0.8,0.8-0.8c0.4,0,0.8,0.4,0.8,0.8
							C350.3,90,349.9,90.3,349.5,90.3z M349.5,85.2c-0.4,0-0.8-0.4-0.8-0.8c0-0.4,0.4-0.8,0.8-0.8c0.4,0,0.8,0.4,0.8,0.8
							C350.3,84.9,349.9,85.2,349.5,85.2z M349.5,80.1c-0.4,0-0.8-0.4-0.8-0.8c0-0.4,0.4-0.8,0.8-0.8c0.4,0,0.8,0.4,0.8,0.8
							C350.3,79.8,349.9,80.1,349.5,80.1z M349.5,75c-0.4,0-0.8-0.4-0.8-0.8c0-0.4,0.4-0.8,0.8-0.8c0.4,0,0.8,0.4,0.8,0.8
							C350.3,74.7,349.9,75,349.5,75z M349.5,69.9c-0.4,0-0.8-0.4-0.8-0.8c0-0.4,0.4-0.8,0.8-0.8c0.4,0,0.8,0.4,0.8,0.8
							C350.3,69.5,349.9,69.9,349.5,69.9z M349.5,64.8c-0.4,0-0.8-0.4-0.8-0.8c0-0.4,0.4-0.8,0.8-0.8c0.4,0,0.8,0.4,0.8,0.8
							C350.3,64.4,349.9,64.8,349.5,64.8z M351.2,103.3c-0.4,0-0.8-0.4-0.8-0.8c0-0.4,0.4-0.8,0.8-0.8c0.4,0,0.8,0.4,0.8,0.8
							C352,102.9,351.7,103.3,351.2,103.3z M351.2,98c-0.4,0-0.8-0.4-0.8-0.8c0-0.4,0.4-0.8,0.8-0.8c0.4,0,0.8,0.4,0.8,0.8
							C352,97.7,351.7,98,351.2,98z M351.2,92.9c-0.4,0-0.8-0.4-0.8-0.8c0-0.4,0.4-0.8,0.8-0.8c0.4,0,0.8,0.4,0.8,0.8
							C352,92.6,351.7,92.9,351.2,92.9z M351.2,87.8c-0.4,0-0.8-0.4-0.8-0.8c0-0.4,0.4-0.8,0.8-0.8c0.4,0,0.8,0.4,0.8,0.8
							C352,87.5,351.7,87.8,351.2,87.8z M351.2,82.7c-0.4,0-0.8-0.4-0.8-0.8c0-0.4,0.4-0.8,0.8-0.8c0.4,0,0.8,0.4,0.8,0.8
							C352,82.4,351.7,82.7,351.2,82.7z M351.2,77.6c-0.4,0-0.8-0.4-0.8-0.8c0-0.4,0.4-0.8,0.8-0.8c0.4,0,0.8,0.4,0.8,0.8
							C352,77.3,351.7,77.6,351.2,77.6z M351.2,72.5c-0.4,0-0.8-0.4-0.8-0.8c0-0.4,0.4-0.8,0.8-0.8c0.4,0,0.8,0.4,0.8,0.8
							C352,72.2,351.7,72.5,351.2,72.5z M351.2,67.4c-0.4,0-0.8-0.4-0.8-0.8c0-0.4,0.4-0.8,0.8-0.8c0.4,0,0.8,0.4,0.8,0.8
							C352,67,351.7,67.4,351.2,67.4z M352.9,100.7c-0.4,0-0.8-0.4-0.8-0.8c0-0.4,0.4-0.8,0.8-0.8c0.4,0,0.8,0.4,0.8,0.8
							C353.7,100.3,353.4,100.7,352.9,100.7z M352.9,95.5c-0.4,0-0.8-0.4-0.8-0.8c0-0.4,0.4-0.8,0.8-0.8c0.4,0,0.8,0.4,0.8,0.8
							C353.7,95.2,353.4,95.6,352.9,95.5z M352.9,90.4c-0.4,0-0.8-0.4-0.8-0.8c0-0.4,0.4-0.8,0.8-0.8c0.4,0,0.8,0.4,0.8,0.8
							C353.7,90.1,353.4,90.5,352.9,90.4z M352.9,85.3c-0.4,0-0.8-0.4-0.8-0.8c0-0.4,0.4-0.8,0.8-0.8c0.4,0,0.8,0.4,0.8,0.8
							C353.7,85,353.4,85.3,352.9,85.3z M352.9,80.2c-0.4,0-0.8-0.4-0.8-0.8c0-0.4,0.4-0.8,0.8-0.8c0.4,0,0.8,0.4,0.8,0.8
							C353.7,79.9,353.4,80.2,352.9,80.2z M352.9,75.1c-0.4,0-0.8-0.4-0.8-0.8c0-0.4,0.4-0.8,0.8-0.8c0.4,0,0.8,0.4,0.8,0.8
							C353.7,74.8,353.4,75.1,352.9,75.1z M352.9,70c-0.4,0-0.8-0.4-0.8-0.8c0-0.4,0.4-0.8,0.8-0.8c0.4,0,0.8,0.4,0.8,0.8
							C353.7,69.7,353.4,70,352.9,70z M352.9,64.9c-0.4,0-0.8-0.4-0.8-0.8c0-0.4,0.4-0.8,0.8-0.8c0.4,0,0.8,0.4,0.8,0.8
							C353.7,64.6,353.4,64.9,352.9,64.9z M354.7,103.4c-0.4,0-0.8-0.4-0.8-0.8c0-0.4,0.4-0.8,0.8-0.8c0.4,0,0.8,0.4,0.8,0.8
							C355.5,103.1,355.1,103.4,354.7,103.4z M354.7,98.2c-0.4,0-0.8-0.4-0.8-0.8c0-0.4,0.4-0.8,0.8-0.8c0.4,0,0.8,0.4,0.8,0.8
							C355.5,97.8,355.1,98.2,354.7,98.2z M354.7,93c-0.4,0-0.8-0.4-0.8-0.8c0-0.4,0.4-0.8,0.8-0.8c0.4,0,0.8,0.4,0.8,0.8
							C355.5,92.7,355.1,93.1,354.7,93z M354.7,87.9c-0.4,0-0.8-0.4-0.8-0.8c0-0.4,0.4-0.8,0.8-0.8c0.4,0,0.8,0.4,0.8,0.8
							C355.5,87.6,355.1,88,354.7,87.9z M354.7,82.8c-0.4,0-0.8-0.4-0.8-0.8c0-0.4,0.4-0.8,0.8-0.8c0.4,0,0.8,0.4,0.8,0.8
							C355.5,82.5,355.1,82.8,354.7,82.8z M354.7,77.7c-0.4,0-0.8-0.4-0.8-0.8c0-0.4,0.4-0.8,0.8-0.8c0.4,0,0.8,0.4,0.8,0.8
							C355.5,77.4,355.1,77.7,354.7,77.7z M354.7,72.6c-0.4,0-0.8-0.4-0.8-0.8c0-0.4,0.4-0.8,0.8-0.8c0.4,0,0.8,0.4,0.8,0.8
							C355.5,72.3,355.1,72.6,354.7,72.6z M354.7,67.5c-0.4,0-0.8-0.4-0.8-0.8c0-0.4,0.4-0.8,0.8-0.8c0.4,0,0.8,0.4,0.8,0.8
							C355.5,67.2,355.1,67.5,354.7,67.5z M356.4,100.8c-0.4,0-0.8-0.4-0.8-0.8c0-0.4,0.4-0.8,0.8-0.8c0.4,0,0.8,0.4,0.8,0.8
							C357.2,100.5,356.8,100.8,356.4,100.8z M356.4,95.7c-0.4,0-0.8-0.4-0.8-0.8c0-0.4,0.4-0.8,0.8-0.8c0.4,0,0.8,0.4,0.8,0.8
							C357.2,95.4,356.8,95.7,356.4,95.7z M356.4,90.6c-0.4,0-0.8-0.4-0.8-0.8c0-0.4,0.4-0.8,0.8-0.8c0.4,0,0.8,0.4,0.8,0.8
							C357.2,90.2,356.8,90.6,356.4,90.6z M356.4,85.5c-0.4,0-0.8-0.4-0.8-0.8c0-0.4,0.4-0.8,0.8-0.8c0.4,0,0.8,0.4,0.8,0.8
							C357.2,85.1,356.8,85.5,356.4,85.5z M356.4,80.3c-0.4,0-0.8-0.4-0.8-0.8c0-0.4,0.4-0.8,0.8-0.8c0.4,0,0.8,0.4,0.8,0.8
							C357.2,80,356.8,80.4,356.4,80.3z M356.4,75.2c-0.4,0-0.8-0.4-0.8-0.8c0-0.4,0.4-0.8,0.8-0.8c0.4,0,0.8,0.4,0.8,0.8
							C357.2,74.9,356.8,75.3,356.4,75.2z M356.4,70.1c-0.4,0-0.8-0.4-0.8-0.8c0-0.4,0.4-0.8,0.8-0.8c0.4,0,0.8,0.4,0.8,0.8
							C357.2,69.8,356.8,70.1,356.4,70.1z M356.4,65c-0.4,0-0.8-0.4-0.8-0.8c0-0.4,0.4-0.8,0.8-0.8c0.4,0,0.8,0.4,0.8,0.8
							C357.2,64.7,356.8,65,356.4,65z M358.1,103.5c-0.4,0-0.8-0.4-0.8-0.8c0-0.4,0.4-0.8,0.8-0.8c0.4,0,0.8,0.4,0.8,0.8
							C358.9,103.2,358.5,103.5,358.1,103.5z M358.1,98.3c-0.4,0-0.8-0.4-0.8-0.8c0-0.4,0.4-0.8,0.8-0.8c0.4,0,0.8,0.4,0.8,0.8
							C358.9,98,358.5,98.3,358.1,98.3z M358.1,93.2c-0.4,0-0.8-0.4-0.8-0.8c0-0.4,0.4-0.8,0.8-0.8c0.4,0,0.8,0.4,0.8,0.8
							C358.9,92.9,358.5,93.2,358.1,93.2z M358.1,88.1c-0.4,0-0.8-0.4-0.8-0.8c0-0.4,0.4-0.8,0.8-0.8c0.4,0,0.8,0.4,0.8,0.8
							C358.9,87.7,358.5,88.1,358.1,88.1z M358.1,83c-0.4,0-0.8-0.4-0.8-0.8c0-0.4,0.4-0.8,0.8-0.8c0.4,0,0.8,0.4,0.8,0.8
							C358.9,82.6,358.5,83,358.1,83z M358.1,77.8c-0.4,0-0.8-0.4-0.8-0.8c0-0.4,0.4-0.8,0.8-0.8c0.4,0,0.8,0.4,0.8,0.8
							C358.9,77.5,358.5,77.9,358.1,77.8z M358.1,72.7c-0.4,0-0.8-0.4-0.8-0.8c0-0.4,0.4-0.8,0.8-0.8c0.4,0,0.8,0.4,0.8,0.8
							C358.9,72.4,358.5,72.8,358.1,72.7z M358.1,67.6c-0.4,0-0.8-0.4-0.8-0.8c0-0.4,0.4-0.8,0.8-0.8c0.4,0,0.8,0.4,0.8,0.8
							C358.9,67.3,358.5,67.6,358.1,67.6z M359.8,100.9c-0.4,0-0.8-0.4-0.8-0.8c0-0.4,0.4-0.8,0.8-0.8c0.4,0,0.8,0.4,0.8,0.8
							C360.6,100.6,360.3,100.9,359.8,100.9z M359.8,95.8c-0.4,0-0.8-0.4-0.8-0.8c0-0.4,0.4-0.8,0.8-0.8c0.4,0,0.8,0.4,0.8,0.8
							C360.6,95.5,360.3,95.8,359.8,95.8z M359.8,90.7c-0.4,0-0.8-0.4-0.8-0.8c0-0.4,0.4-0.8,0.8-0.8c0.4,0,0.8,0.4,0.8,0.8
							C360.6,90.4,360.3,90.7,359.8,90.7z M359.8,85.6c-0.4,0-0.8-0.4-0.8-0.8c0-0.4,0.4-0.8,0.8-0.8c0.4,0,0.8,0.4,0.8,0.8
							C360.6,85.3,360.3,85.6,359.8,85.6z M359.8,80.5c-0.4,0-0.8-0.4-0.8-0.8c0-0.4,0.4-0.8,0.8-0.8c0.4,0,0.8,0.4,0.8,0.8
							C360.6,80.2,360.3,80.5,359.8,80.5z M359.8,75.4c-0.4,0-0.8-0.4-0.8-0.8c0-0.4,0.4-0.8,0.8-0.8c0.4,0,0.8,0.4,0.8,0.8
							C360.6,75,360.3,75.4,359.8,75.4z M359.8,70.3c-0.4,0-0.8-0.4-0.8-0.8c0-0.4,0.4-0.8,0.8-0.8c0.4,0,0.8,0.4,0.8,0.8
							C360.6,69.9,360.3,70.3,359.8,70.3z M359.8,65.1c-0.4,0-0.8-0.4-0.8-0.8c0-0.4,0.4-0.8,0.8-0.8c0.4,0,0.8,0.4,0.8,0.8
							C360.6,64.8,360.3,65.2,359.8,65.1z M361.6,103.6c-0.4,0-0.8-0.4-0.8-0.8c0-0.4,0.4-0.8,0.8-0.8c0.4,0,0.8,0.4,0.8,0.8
							C362.3,103.3,362,103.7,361.6,103.6z M361.6,98.4c-0.4,0-0.8-0.4-0.8-0.8c0-0.4,0.4-0.8,0.8-0.8c0.4,0,0.8,0.4,0.8,0.8
							C362.3,98.1,362,98.4,361.6,98.4z M361.6,93.3c-0.4,0-0.8-0.4-0.8-0.8c0-0.4,0.4-0.8,0.8-0.8c0.4,0,0.8,0.4,0.8,0.8
							C362.3,93,362,93.3,361.6,93.3z M361.6,88.2c-0.4,0-0.8-0.4-0.8-0.8c0-0.4,0.4-0.8,0.8-0.8c0.4,0,0.8,0.4,0.8,0.8
							C362.3,87.9,362,88.2,361.6,88.2z M361.6,83.1c-0.4,0-0.8-0.4-0.8-0.8c0-0.4,0.4-0.8,0.8-0.8c0.4,0,0.8,0.4,0.8,0.8
							C362.3,82.8,362,83.1,361.6,83.1z M361.6,78c-0.4,0-0.8-0.4-0.8-0.8c0-0.4,0.4-0.8,0.8-0.8c0.4,0,0.8,0.4,0.8,0.8
							C362.3,77.7,362,78,361.6,78z M361.6,72.9c-0.4,0-0.8-0.4-0.8-0.8c0-0.4,0.4-0.8,0.8-0.8c0.4,0,0.8,0.4,0.8,0.8
							C362.3,72.5,362,72.9,361.6,72.9z M361.6,67.8c-0.4,0-0.8-0.4-0.8-0.8c0-0.4,0.4-0.8,0.8-0.8c0.4,0,0.8,0.4,0.8,0.8
							S362,67.8,361.6,67.8z M363.3,101c-0.4,0-0.8-0.4-0.8-0.8c0-0.4,0.4-0.8,0.8-0.8c0.4,0,0.8,0.4,0.8,0.8
							C364.1,100.7,363.7,101.1,363.3,101z M363.3,95.9c-0.4,0-0.8-0.4-0.8-0.8c0-0.4,0.4-0.8,0.8-0.8c0.4,0,0.8,0.4,0.8,0.8
							C364.1,95.6,363.7,96,363.3,95.9z M363.3,90.8c-0.4,0-0.8-0.4-0.8-0.8c0-0.4,0.4-0.8,0.8-0.8c0.4,0,0.8,0.4,0.8,0.8
							C364.1,90.5,363.7,90.8,363.3,90.8z M363.3,85.7c-0.4,0-0.8-0.4-0.8-0.8c0-0.4,0.4-0.8,0.8-0.8c0.4,0,0.8,0.4,0.8,0.8
							C364.1,85.4,363.7,85.7,363.3,85.7z M363.3,80.6c-0.4,0-0.8-0.4-0.8-0.8c0-0.4,0.4-0.8,0.8-0.8c0.4,0,0.8,0.4,0.8,0.8
							C364.1,80.3,363.7,80.6,363.3,80.6z M363.3,75.5c-0.4,0-0.8-0.4-0.8-0.8c0-0.4,0.4-0.8,0.8-0.8c0.4,0,0.8,0.4,0.8,0.8
							C364.1,75.2,363.7,75.5,363.3,75.5z M363.3,70.4c-0.4,0-0.8-0.4-0.8-0.8c0-0.4,0.4-0.8,0.8-0.8c0.4,0,0.8,0.4,0.8,0.8
							C364.1,70.1,363.7,70.4,363.3,70.4z M363.3,65.3c-0.4,0-0.8-0.4-0.8-0.8c0-0.4,0.4-0.8,0.8-0.8c0.4,0,0.8,0.4,0.8,0.8
							C364.1,65,363.7,65.3,363.3,65.3z M365,103.8c-0.4,0-0.8-0.4-0.8-0.8c0-0.4,0.4-0.8,0.8-0.8c0.4,0,0.8,0.4,0.8,0.8
							C365.8,103.5,365.4,103.8,365,103.8z M365,98.5c-0.4,0-0.8-0.4-0.8-0.8c0-0.4,0.4-0.8,0.8-0.8c0.4,0,0.8,0.4,0.8,0.8
							C365.8,98.2,365.4,98.6,365,98.5z M365,93.4c-0.4,0-0.8-0.4-0.8-0.8c0-0.4,0.4-0.8,0.8-0.8c0.4,0,0.8,0.4,0.8,0.8
							C365.8,93.1,365.4,93.5,365,93.4z M365,88.3c-0.4,0-0.8-0.4-0.8-0.8c0-0.4,0.4-0.8,0.8-0.8c0.4,0,0.8,0.4,0.8,0.8
							C365.8,88,365.4,88.3,365,88.3z M365,83.2c-0.4,0-0.8-0.4-0.8-0.8c0-0.4,0.4-0.8,0.8-0.8c0.4,0,0.8,0.4,0.8,0.8
							C365.8,82.9,365.4,83.2,365,83.2z M365,78.1c-0.4,0-0.8-0.4-0.8-0.8c0-0.4,0.4-0.8,0.8-0.8c0.4,0,0.8,0.4,0.8,0.8
							C365.8,77.8,365.4,78.1,365,78.1z M365,73c-0.4,0-0.8-0.4-0.8-0.8c0-0.4,0.4-0.8,0.8-0.8c0.4,0,0.8,0.4,0.8,0.8
							C365.8,72.7,365.4,73,365,73z M365,67.9c-0.4,0-0.8-0.4-0.8-0.8c0-0.4,0.4-0.8,0.8-0.8c0.4,0,0.8,0.4,0.8,0.8
							C365.8,67.6,365.4,67.9,365,67.9z M366.7,101.2c-0.4,0-0.8-0.4-0.8-0.8c0-0.4,0.4-0.8,0.8-0.8c0.4,0,0.8,0.4,0.8,0.8
							C367.5,100.9,367.1,101.2,366.7,101.2z M366.7,96.1c-0.4,0-0.8-0.4-0.8-0.8c0-0.4,0.4-0.8,0.8-0.8c0.4,0,0.8,0.4,0.8,0.8
							C367.5,95.7,367.1,96.1,366.7,96.1z M366.7,91c-0.4,0-0.8-0.4-0.8-0.8c0-0.4,0.4-0.8,0.8-0.8c0.4,0,0.8,0.4,0.8,0.8
							C367.5,90.6,367.1,91,366.7,91z M366.7,85.8c-0.4,0-0.8-0.4-0.8-0.8c0-0.4,0.4-0.8,0.8-0.8c0.4,0,0.8,0.4,0.8,0.8
							C367.5,85.5,367.1,85.9,366.7,85.8z M366.7,80.7c-0.4,0-0.8-0.4-0.8-0.8c0-0.4,0.4-0.8,0.8-0.8c0.4,0,0.8,0.4,0.8,0.8
							C367.5,80.4,367.1,80.8,366.7,80.7z M366.7,75.6c-0.4,0-0.8-0.4-0.8-0.8c0-0.4,0.4-0.8,0.8-0.8c0.4,0,0.8,0.4,0.8,0.8
							C367.5,75.3,367.1,75.6,366.7,75.6z M366.7,70.5c-0.4,0-0.8-0.4-0.8-0.8c0-0.4,0.4-0.8,0.8-0.8c0.4,0,0.8,0.4,0.8,0.8
							C367.5,70.2,367.1,70.5,366.7,70.5z M366.7,65.4c-0.4,0-0.8-0.4-0.8-0.8c0-0.4,0.4-0.8,0.8-0.8c0.4,0,0.8,0.4,0.8,0.8
							C367.5,65.1,367.1,65.4,366.7,65.4z M368.4,103.9c-0.4,0-0.8-0.4-0.8-0.8c0-0.4,0.4-0.8,0.8-0.8c0.4,0,0.8,0.4,0.8,0.8
							C369.2,103.6,368.9,103.9,368.4,103.9z M368.4,98.7c-0.4,0-0.8-0.4-0.8-0.8c0-0.4,0.4-0.8,0.8-0.8c0.4,0,0.8,0.4,0.8,0.8
							C369.2,98.4,368.9,98.7,368.4,98.7z M368.4,93.6c-0.4,0-0.8-0.4-0.8-0.8c0-0.4,0.4-0.8,0.8-0.8c0.4,0,0.8,0.4,0.8,0.8
							C369.2,93.2,368.9,93.6,368.4,93.6z M368.4,88.5c-0.4,0-0.8-0.4-0.8-0.8c0-0.4,0.4-0.8,0.8-0.8c0.4,0,0.8,0.4,0.8,0.8
							C369.2,88.1,368.9,88.5,368.4,88.5z M368.4,83.3c-0.4,0-0.8-0.4-0.8-0.8c0-0.4,0.4-0.8,0.8-0.8c0.4,0,0.8,0.4,0.8,0.8
							C369.2,83,368.9,83.4,368.4,83.3z M368.4,78.2c-0.4,0-0.8-0.4-0.8-0.8c0-0.4,0.4-0.8,0.8-0.8c0.4,0,0.8,0.4,0.8,0.8
							C369.2,77.9,368.9,78.3,368.4,78.2z M368.4,73.1c-0.4,0-0.8-0.4-0.8-0.8c0-0.4,0.4-0.8,0.8-0.8c0.4,0,0.8,0.4,0.8,0.8
							C369.2,72.8,368.9,73.1,368.4,73.1z M368.4,68c-0.4,0-0.8-0.4-0.8-0.8c0-0.4,0.4-0.8,0.8-0.8c0.4,0,0.8,0.4,0.8,0.8
							C369.2,67.7,368.9,68,368.4,68z M370.2,101.3c-0.4,0-0.8-0.4-0.8-0.8c0-0.4,0.4-0.8,0.8-0.8c0.4,0,0.8,0.4,0.8,0.8
							C370.9,101,370.6,101.3,370.2,101.3z M370.2,96.2c-0.4,0-0.8-0.4-0.8-0.8c0-0.4,0.4-0.8,0.8-0.8c0.4,0,0.8,0.4,0.8,0.8
							C370.9,95.9,370.6,96.2,370.2,96.2z M370.2,91.1c-0.4,0-0.8-0.4-0.8-0.8c0-0.4,0.4-0.8,0.8-0.8c0.4,0,0.8,0.4,0.8,0.8
							C370.9,90.8,370.6,91.1,370.2,91.1z M370.2,86c-0.4,0-0.8-0.4-0.8-0.8c0-0.4,0.4-0.8,0.8-0.8c0.4,0,0.8,0.4,0.8,0.8
							C370.9,85.7,370.6,86,370.2,86z M370.2,80.9c-0.4,0-0.8-0.4-0.8-0.8c0-0.4,0.4-0.8,0.8-0.8c0.4,0,0.8,0.4,0.8,0.8
							C370.9,80.5,370.6,80.9,370.2,80.9z M370.2,75.8c-0.4,0-0.8-0.4-0.8-0.8c0-0.4,0.4-0.8,0.8-0.8c0.4,0,0.8,0.4,0.8,0.8
							C370.9,75.4,370.6,75.8,370.2,75.8z M370.2,70.6c-0.4,0-0.8-0.4-0.8-0.8c0-0.4,0.4-0.8,0.8-0.8c0.4,0,0.8,0.4,0.8,0.8
							C370.9,70.3,370.6,70.7,370.2,70.6z M370.2,65.5c-0.4,0-0.8-0.4-0.8-0.8c0-0.4,0.4-0.8,0.8-0.8c0.4,0,0.8,0.4,0.8,0.8
							C370.9,65.2,370.6,65.6,370.2,65.5z M371.9,104c-0.4,0-0.8-0.4-0.8-0.8c0-0.4,0.4-0.8,0.8-0.8c0.4,0,0.8,0.4,0.8,0.8
							C372.7,103.7,372.3,104,371.9,104z M371.9,98.8c-0.4,0-0.8-0.4-0.8-0.8c0-0.4,0.4-0.8,0.8-0.8c0.4,0,0.8,0.4,0.8,0.8
							C372.7,98.5,372.3,98.8,371.9,98.8z M371.9,93.7c-0.4,0-0.8-0.4-0.8-0.8c0-0.4,0.4-0.8,0.8-0.8c0.4,0,0.8,0.4,0.8,0.8
							C372.7,93.4,372.3,93.7,371.9,93.7z M371.9,88.6c-0.4,0-0.8-0.4-0.8-0.8c0-0.4,0.4-0.8,0.8-0.8c0.4,0,0.8,0.4,0.8,0.8
							C372.7,88.3,372.3,88.6,371.9,88.6z M371.9,83.5c-0.4,0-0.8-0.4-0.8-0.8c0-0.4,0.4-0.8,0.8-0.8c0.4,0,0.8,0.4,0.8,0.8
							C372.7,83.2,372.3,83.5,371.9,83.5z M371.9,78.4c-0.4,0-0.8-0.4-0.8-0.8c0-0.4,0.4-0.8,0.8-0.8c0.4,0,0.8,0.4,0.8,0.8
							C372.7,78,372.3,78.4,371.9,78.4z M371.9,73.3c-0.4,0-0.8-0.4-0.8-0.8c0-0.4,0.4-0.8,0.8-0.8c0.4,0,0.8,0.4,0.8,0.8
							C372.7,72.9,372.3,73.3,371.9,73.3z M371.9,68.1c-0.4,0-0.8-0.4-0.8-0.8c0-0.4,0.4-0.8,0.8-0.8c0.4,0,0.8,0.4,0.8,0.8
							C372.7,67.8,372.3,68.2,371.9,68.1z M373.6,101.4c-0.4,0-0.8-0.4-0.8-0.8c0-0.4,0.4-0.8,0.8-0.8c0.4,0,0.8,0.4,0.8,0.8
							C374.4,101.1,374,101.5,373.6,101.4z M373.6,96.3c-0.4,0-0.8-0.4-0.8-0.8c0-0.4,0.4-0.8,0.8-0.8c0.4,0,0.8,0.4,0.8,0.8
							C374.4,96,374,96.3,373.6,96.3z M373.6,91.2c-0.4,0-0.8-0.4-0.8-0.8c0-0.4,0.4-0.8,0.8-0.8c0.4,0,0.8,0.4,0.8,0.8
							C374.4,90.9,374,91.2,373.6,91.2z M373.6,86.1c-0.4,0-0.8-0.4-0.8-0.8c0-0.4,0.4-0.8,0.8-0.8c0.4,0,0.8,0.4,0.8,0.8
							C374.4,85.8,374,86.1,373.6,86.1z M373.6,81c-0.4,0-0.8-0.4-0.8-0.8c0-0.4,0.4-0.8,0.8-0.8c0.4,0,0.8,0.4,0.8,0.8
							C374.4,80.7,374,81,373.6,81z M373.6,75.9c-0.4,0-0.8-0.4-0.8-0.8c0-0.4,0.4-0.8,0.8-0.8c0.4,0,0.8,0.4,0.8,0.8
							C374.4,75.6,374,75.9,373.6,75.9z M373.6,70.8c-0.4,0-0.8-0.4-0.8-0.8c0-0.4,0.4-0.8,0.8-0.8c0.4,0,0.8,0.4,0.8,0.8
							C374.4,70.5,374,70.8,373.6,70.8z M373.6,65.7c-0.4,0-0.8-0.4-0.8-0.8c0-0.4,0.4-0.8,0.8-0.8c0.4,0,0.8,0.4,0.8,0.8
							C374.4,65.3,374,65.7,373.6,65.7z M375.3,104.2c-0.4,0-0.8-0.4-0.8-0.8c0-0.4,0.4-0.8,0.8-0.8c0.4,0,0.8,0.4,0.8,0.8
							C376.1,103.8,375.8,104.2,375.3,104.2z M375.3,98.9c-0.4,0-0.8-0.4-0.8-0.8c0-0.4,0.4-0.8,0.8-0.8c0.4,0,0.8,0.4,0.8,0.8
							C376.1,98.6,375.8,98.9,375.3,98.9z M375.3,93.8c-0.4,0-0.8-0.4-0.8-0.8c0-0.4,0.4-0.8,0.8-0.8c0.4,0,0.8,0.4,0.8,0.8
							C376.1,93.5,375.8,93.8,375.3,93.8z M375.3,88.7c-0.4,0-0.8-0.4-0.8-0.8c0-0.4,0.4-0.8,0.8-0.8c0.4,0,0.8,0.4,0.8,0.8
							C376.1,88.4,375.8,88.7,375.3,88.7z M375.3,83.6c-0.4,0-0.8-0.4-0.8-0.8c0-0.4,0.4-0.8,0.8-0.8c0.4,0,0.8,0.4,0.8,0.8
							C376.1,83.3,375.8,83.6,375.3,83.6z M375.3,78.5c-0.4,0-0.8-0.4-0.8-0.8c0-0.4,0.4-0.8,0.8-0.8c0.4,0,0.8,0.4,0.8,0.8
							C376.1,78.2,375.8,78.5,375.3,78.5z M375.3,73.4c-0.4,0-0.8-0.4-0.8-0.8c0-0.4,0.4-0.8,0.8-0.8c0.4,0,0.8,0.4,0.8,0.8
							C376.1,73.1,375.8,73.4,375.3,73.4z M375.3,68.3c-0.4,0-0.8-0.4-0.8-0.8c0-0.4,0.4-0.8,0.8-0.8c0.4,0,0.8,0.4,0.8,0.8
							C376.1,68,375.8,68.3,375.3,68.3z M377,101.6c-0.4,0-0.8-0.4-0.8-0.8c0-0.4,0.4-0.8,0.8-0.8c0.4,0,0.8,0.4,0.8,0.8
							C377.8,101.2,377.5,101.6,377,101.6z M377,96.5c-0.4,0-0.8-0.4-0.8-0.8c0-0.4,0.4-0.8,0.8-0.8c0.4,0,0.8,0.4,0.8,0.8
							C377.8,96.1,377.5,96.5,377,96.5z M377,91.3c-0.4,0-0.8-0.4-0.8-0.8c0-0.4,0.4-0.8,0.8-0.8c0.4,0,0.8,0.4,0.8,0.8
							C377.8,91,377.5,91.4,377,91.3z M377,86.2c-0.4,0-0.8-0.4-0.8-0.8c0-0.4,0.4-0.8,0.8-0.8c0.4,0,0.8,0.4,0.8,0.8
							C377.8,85.9,377.5,86.2,377,86.2z M377,81.1c-0.4,0-0.8-0.4-0.8-0.8c0-0.4,0.4-0.8,0.8-0.8c0.4,0,0.8,0.4,0.8,0.8
							C377.8,80.8,377.5,81.1,377,81.1z M377,76c-0.4,0-0.8-0.4-0.8-0.8c0-0.4,0.4-0.8,0.8-0.8c0.4,0,0.8,0.4,0.8,0.8
							C377.8,75.7,377.5,76,377,76z M377,70.9c-0.4,0-0.8-0.4-0.8-0.8c0-0.4,0.4-0.8,0.8-0.8c0.4,0,0.8,0.4,0.8,0.8
							C377.8,70.6,377.5,70.9,377,70.9z M377,65.8c-0.4,0-0.8-0.4-0.8-0.8c0-0.4,0.4-0.8,0.8-0.8c0.4,0,0.8,0.4,0.8,0.8
							C377.8,65.5,377.5,65.8,377,65.8z M378.8,104.3c-0.4,0-0.8-0.4-0.8-0.8c0-0.4,0.4-0.8,0.8-0.8c0.4,0,0.8,0.4,0.8,0.8
							C379.6,104,379.2,104.3,378.8,104.3z M378.8,99.1c-0.4,0-0.8-0.4-0.8-0.8c0-0.4,0.4-0.8,0.8-0.8c0.4,0,0.8,0.4,0.8,0.8
							C379.6,98.7,379.2,99.1,378.8,99.1z M378.8,94c-0.4,0-0.8-0.4-0.8-0.8c0-0.4,0.4-0.8,0.8-0.8c0.4,0,0.8,0.4,0.8,0.8
							C379.6,93.6,379.2,94,378.8,94z M378.8,88.8c-0.4,0-0.8-0.4-0.8-0.8c0-0.4,0.4-0.8,0.8-0.8c0.4,0,0.8,0.4,0.8,0.8
							C379.6,88.5,379.2,88.9,378.8,88.8z M378.8,83.7c-0.4,0-0.8-0.4-0.8-0.8c0-0.4,0.4-0.8,0.8-0.8c0.4,0,0.8,0.4,0.8,0.8
							C379.6,83.4,379.2,83.7,378.8,83.7z M378.8,78.6c-0.4,0-0.8-0.4-0.8-0.8c0-0.4,0.4-0.8,0.8-0.8c0.4,0,0.8,0.4,0.8,0.8
							C379.6,78.3,379.2,78.6,378.8,78.6z M378.8,73.5c-0.4,0-0.8-0.4-0.8-0.8c0-0.4,0.4-0.8,0.8-0.8c0.4,0,0.8,0.4,0.8,0.8
							C379.6,73.2,379.2,73.5,378.8,73.5z M378.8,68.4c-0.4,0-0.8-0.4-0.8-0.8c0-0.4,0.4-0.8,0.8-0.8c0.4,0,0.8,0.4,0.8,0.8
							C379.6,68.1,379.2,68.4,378.8,68.4z M380.5,101.7c-0.4,0-0.8-0.4-0.8-0.8c0-0.4,0.4-0.8,0.8-0.8c0.4,0,0.8,0.4,0.8,0.8
							C381.3,101.4,380.9,101.7,380.5,101.7z M380.5,96.6c-0.4,0-0.8-0.4-0.8-0.8c0-0.4,0.4-0.8,0.8-0.8c0.4,0,0.8,0.4,0.8,0.8
							C381.3,96.3,380.9,96.6,380.5,96.6z M380.5,91.5c-0.4,0-0.8-0.4-0.8-0.8c0-0.4,0.4-0.8,0.8-0.8c0.4,0,0.8,0.4,0.8,0.8
							C381.3,91.2,380.9,91.5,380.5,91.5z M380.5,86.4c-0.4,0-0.8-0.4-0.8-0.8c0-0.4,0.4-0.8,0.8-0.8c0.4,0,0.8,0.4,0.8,0.8
							C381.3,86,380.9,86.4,380.5,86.4z M380.5,81.3c-0.4,0-0.8-0.4-0.8-0.8c0-0.4,0.4-0.8,0.8-0.8c0.4,0,0.8,0.4,0.8,0.8
							C381.3,80.9,380.9,81.3,380.5,81.3z M380.5,76.1c-0.4,0-0.8-0.4-0.8-0.8c0-0.4,0.4-0.8,0.8-0.8c0.4,0,0.8,0.4,0.8,0.8
							C381.3,75.8,380.9,76.2,380.5,76.1z M380.5,71c-0.4,0-0.8-0.4-0.8-0.8c0-0.4,0.4-0.8,0.8-0.8c0.4,0,0.8,0.4,0.8,0.8
							C381.3,70.7,380.9,71,380.5,71z M380.5,65.9c-0.4,0-0.8-0.4-0.8-0.8c0-0.4,0.4-0.8,0.8-0.8c0.4,0,0.8,0.4,0.8,0.8
							C381.3,65.6,380.9,65.9,380.5,65.9z M382.2,104.4c-0.4,0-0.8-0.4-0.8-0.8c0-0.4,0.4-0.8,0.8-0.8c0.4,0,0.8,0.4,0.8,0.8
							C383,104.1,382.6,104.4,382.2,104.4z M382.2,99.2c-0.4,0-0.8-0.4-0.8-0.8c0-0.4,0.4-0.8,0.8-0.8c0.4,0,0.8,0.4,0.8,0.8
							C383,98.9,382.6,99.2,382.2,99.2z M382.2,94.1c-0.4,0-0.8-0.4-0.8-0.8c0-0.4,0.4-0.8,0.8-0.8c0.4,0,0.8,0.4,0.8,0.8
							C383,93.8,382.6,94.1,382.2,94.1z M382.2,89c-0.4,0-0.8-0.4-0.8-0.8c0-0.4,0.4-0.8,0.8-0.8c0.4,0,0.8,0.4,0.8,0.8
							C383,88.7,382.6,89,382.2,89z M382.2,83.9c-0.4,0-0.8-0.4-0.8-0.8c0-0.4,0.4-0.8,0.8-0.8c0.4,0,0.8,0.4,0.8,0.8
							C383,83.5,382.6,83.9,382.2,83.9z M382.2,78.8c-0.4,0-0.8-0.4-0.8-0.8c0-0.4,0.4-0.8,0.8-0.8c0.4,0,0.8,0.4,0.8,0.8
							C383,78.4,382.6,78.8,382.2,78.8z M382.2,73.6c-0.4,0-0.8-0.4-0.8-0.8c0-0.4,0.4-0.8,0.8-0.8c0.4,0,0.8,0.4,0.8,0.8
							C383,73.3,382.6,73.7,382.2,73.6z M382.2,68.5c-0.4,0-0.8-0.4-0.8-0.8c0-0.4,0.4-0.8,0.8-0.8c0.4,0,0.8,0.4,0.8,0.8
							C383,68.2,382.6,68.5,382.2,68.5z M383.9,101.8c-0.4,0-0.8-0.4-0.8-0.8c0-0.4,0.4-0.8,0.8-0.8c0.4,0,0.8,0.4,0.8,0.8
							C384.7,101.5,384.4,101.8,383.9,101.8z M383.9,96.7c-0.4,0-0.8-0.4-0.8-0.8c0-0.4,0.4-0.8,0.8-0.8c0.4,0,0.8,0.4,0.8,0.8
							C384.7,96.4,384.4,96.7,383.9,96.7z M383.9,91.6c-0.4,0-0.8-0.4-0.8-0.8c0-0.4,0.4-0.8,0.8-0.8c0.4,0,0.8,0.4,0.8,0.8
							C384.7,91.3,384.4,91.6,383.9,91.6z M383.9,86.5c-0.4,0-0.8-0.4-0.8-0.8c0-0.4,0.4-0.8,0.8-0.8c0.4,0,0.8,0.4,0.8,0.8
							C384.7,86.2,384.4,86.5,383.9,86.5z M383.9,81.4c-0.4,0-0.8-0.4-0.8-0.8c0-0.4,0.4-0.8,0.8-0.8c0.4,0,0.8,0.4,0.8,0.8
							C384.7,81.1,384.4,81.4,383.9,81.4z M383.9,76.3c-0.4,0-0.8-0.4-0.8-0.8c0-0.4,0.4-0.8,0.8-0.8c0.4,0,0.8,0.4,0.8,0.8
							C384.7,75.9,384.4,76.3,383.9,76.3z M383.9,71.2c-0.4,0-0.8-0.4-0.8-0.8c0-0.4,0.4-0.8,0.8-0.8c0.4,0,0.8,0.4,0.8,0.8
							C384.7,70.8,384.4,71.2,383.9,71.2z M383.9,66.1c-0.4,0-0.8-0.4-0.8-0.8c0-0.4,0.4-0.8,0.8-0.8c0.4,0,0.8,0.4,0.8,0.8
							C384.7,65.7,384.4,66.1,383.9,66.1z M385.7,104.5c-0.4,0-0.8-0.4-0.8-0.8c0-0.4,0.4-0.8,0.8-0.8c0.4,0,0.8,0.4,0.8,0.8
							C386.4,104.2,386.1,104.6,385.7,104.5z M385.7,99.3c-0.4,0-0.8-0.4-0.8-0.8c0-0.4,0.4-0.8,0.8-0.8c0.4,0,0.8,0.4,0.8,0.8
							C386.4,99,386.1,99.3,385.7,99.3z M385.7,94.2c-0.4,0-0.8-0.4-0.8-0.8c0-0.4,0.4-0.8,0.8-0.8c0.4,0,0.8,0.4,0.8,0.8
							C386.4,93.9,386.1,94.2,385.7,94.2z M385.7,89.1c-0.4,0-0.8-0.4-0.8-0.8c0-0.4,0.4-0.8,0.8-0.8c0.4,0,0.8,0.4,0.8,0.8
							C386.4,88.8,386.1,89.1,385.7,89.1z M385.7,84c-0.4,0-0.8-0.4-0.8-0.8c0-0.4,0.4-0.8,0.8-0.8c0.4,0,0.8,0.4,0.8,0.8
							C386.4,83.7,386.1,84,385.7,84z M385.7,78.9c-0.4,0-0.8-0.4-0.8-0.8c0-0.4,0.4-0.8,0.8-0.8c0.4,0,0.8,0.4,0.8,0.8
							C386.4,78.6,386.1,78.9,385.7,78.9z M385.7,73.8c-0.4,0-0.8-0.4-0.8-0.8c0-0.4,0.4-0.8,0.8-0.8c0.4,0,0.8,0.4,0.8,0.8
							C386.4,73.4,386.1,73.8,385.7,73.8z M385.7,68.7c-0.4,0-0.8-0.4-0.8-0.8c0-0.4,0.4-0.8,0.8-0.8c0.4,0,0.8,0.4,0.8,0.8
							C386.4,68.3,386.1,68.7,385.7,68.7z M387.4,101.9c-0.4,0-0.8-0.4-0.8-0.8c0-0.4,0.4-0.8,0.8-0.8c0.4,0,0.8,0.4,0.8,0.8
							C388.2,101.6,387.8,102,387.4,101.9z M387.4,96.8c-0.4,0-0.8-0.4-0.8-0.8c0-0.4,0.4-0.8,0.8-0.8c0.4,0,0.8,0.4,0.8,0.8
							C388.2,96.5,387.8,96.9,387.4,96.8z M387.4,91.7c-0.4,0-0.8-0.4-0.8-0.8c0-0.4,0.4-0.8,0.8-0.8c0.4,0,0.8,0.4,0.8,0.8
							C388.2,91.4,387.8,91.7,387.4,91.7z M387.4,86.6c-0.4,0-0.8-0.4-0.8-0.8c0-0.4,0.4-0.8,0.8-0.8c0.4,0,0.8,0.4,0.8,0.8
							C388.2,86.3,387.8,86.6,387.4,86.6z M387.4,81.5c-0.4,0-0.8-0.4-0.8-0.8c0-0.4,0.4-0.8,0.8-0.8c0.4,0,0.8,0.4,0.8,0.8
							C388.2,81.2,387.8,81.5,387.4,81.5z M387.4,76.4c-0.4,0-0.8-0.4-0.8-0.8c0-0.4,0.4-0.8,0.8-0.8c0.4,0,0.8,0.4,0.8,0.8
							C388.2,76.1,387.8,76.4,387.4,76.4z M387.4,71.3c-0.4,0-0.8-0.4-0.8-0.8c0-0.4,0.4-0.8,0.8-0.8c0.4,0,0.8,0.4,0.8,0.8
							C388.2,71,387.8,71.3,387.4,71.3z M387.4,66.2c-0.4,0-0.8-0.4-0.8-0.8c0-0.4,0.4-0.8,0.8-0.8c0.4,0,0.8,0.4,0.8,0.8
							C388.2,65.9,387.8,66.2,387.4,66.2z M389.1,104.7c-0.4,0-0.8-0.4-0.8-0.8c0-0.4,0.4-0.8,0.8-0.8c0.4,0,0.8,0.4,0.8,0.8
							C389.9,104.4,389.5,104.7,389.1,104.7z M389.1,99.4c-0.4,0-0.8-0.4-0.8-0.8c0-0.4,0.4-0.8,0.8-0.8c0.4,0,0.8,0.4,0.8,0.8
							C389.9,99.1,389.5,99.5,389.1,99.4z M389.1,94.3c-0.4,0-0.8-0.4-0.8-0.8c0-0.4,0.4-0.8,0.8-0.8c0.4,0,0.8,0.4,0.8,0.8
							C389.9,94,389.5,94.4,389.1,94.3z M389.1,89.2c-0.4,0-0.8-0.4-0.8-0.8c0-0.4,0.4-0.8,0.8-0.8c0.4,0,0.8,0.4,0.8,0.8
							C389.9,88.9,389.5,89.2,389.1,89.2z M389.1,84.1c-0.4,0-0.8-0.4-0.8-0.8c0-0.4,0.4-0.8,0.8-0.8c0.4,0,0.8,0.4,0.8,0.8
							C389.9,83.8,389.5,84.1,389.1,84.1z M389.1,79c-0.4,0-0.8-0.4-0.8-0.8c0-0.4,0.4-0.8,0.8-0.8c0.4,0,0.8,0.4,0.8,0.8
							C389.9,78.7,389.5,79,389.1,79z M389.1,73.9c-0.4,0-0.8-0.4-0.8-0.8c0-0.4,0.4-0.8,0.8-0.8c0.4,0,0.8,0.4,0.8,0.8
							C389.9,73.6,389.5,73.9,389.1,73.9z M389.1,68.8c-0.4,0-0.8-0.4-0.8-0.8c0-0.4,0.4-0.8,0.8-0.8c0.4,0,0.8,0.4,0.8,0.8
							C389.9,68.5,389.5,68.8,389.1,68.8z M390.8,102.1c-0.4,0-0.8-0.4-0.8-0.8c0-0.4,0.4-0.8,0.8-0.8c0.4,0,0.8,0.4,0.8,0.8
							C391.6,101.8,391.3,102.1,390.8,102.1z M390.8,97c-0.4,0-0.8-0.4-0.8-0.8c0-0.4,0.4-0.8,0.8-0.8c0.4,0,0.8,0.4,0.8,0.8
							C391.6,96.6,391.3,97,390.8,97z M390.8,91.9c-0.4,0-0.8-0.4-0.8-0.8c0-0.4,0.4-0.8,0.8-0.8c0.4,0,0.8,0.4,0.8,0.8
							C391.6,91.5,391.3,91.9,390.8,91.9z M390.8,86.7c-0.4,0-0.8-0.4-0.8-0.8c0-0.4,0.4-0.8,0.8-0.8c0.4,0,0.8,0.4,0.8,0.8
							C391.6,86.4,391.3,86.8,390.8,86.7z M390.8,81.6c-0.4,0-0.8-0.4-0.8-0.8c0-0.4,0.4-0.8,0.8-0.8c0.4,0,0.8,0.4,0.8,0.8
							C391.6,81.3,391.3,81.7,390.8,81.6z M390.8,76.5c-0.4,0-0.8-0.4-0.8-0.8c0-0.4,0.4-0.8,0.8-0.8c0.4,0,0.8,0.4,0.8,0.8
							C391.6,76.2,391.3,76.5,390.8,76.5z M390.8,71.4c-0.4,0-0.8-0.4-0.8-0.8c0-0.4,0.4-0.8,0.8-0.8c0.4,0,0.8,0.4,0.8,0.8
							C391.6,71.1,391.3,71.4,390.8,71.4z M390.8,66.3c-0.4,0-0.8-0.4-0.8-0.8c0-0.4,0.4-0.8,0.8-0.8c0.4,0,0.8,0.4,0.8,0.8
							C391.6,66,391.3,66.3,390.8,66.3z M392.5,104.8c-0.4,0-0.8-0.4-0.8-0.8c0-0.4,0.4-0.8,0.8-0.8c0.4,0,0.8,0.4,0.8,0.8
							C393.3,104.5,393,104.8,392.5,104.8z M392.5,99.6c-0.4,0-0.8-0.4-0.8-0.8c0-0.4,0.4-0.8,0.8-0.8c0.4,0,0.8,0.4,0.8,0.8
							C393.3,99.3,393,99.6,392.5,99.6z M392.5,94.5c-0.4,0-0.8-0.4-0.8-0.8c0-0.4,0.4-0.8,0.8-0.8c0.4,0,0.8,0.4,0.8,0.8
							C393.3,94.1,393,94.5,392.5,94.5z M392.5,89.4c-0.4,0-0.8-0.4-0.8-0.8c0-0.4,0.4-0.8,0.8-0.8c0.4,0,0.8,0.4,0.8,0.8
							C393.3,89,393,89.4,392.5,89.4z M392.5,84.2c-0.4,0-0.8-0.4-0.8-0.8c0-0.4,0.4-0.8,0.8-0.8c0.4,0,0.8,0.4,0.8,0.8
							C393.3,83.9,393,84.3,392.5,84.2z M392.5,79.1c-0.4,0-0.8-0.4-0.8-0.8c0-0.4,0.4-0.8,0.8-0.8c0.4,0,0.8,0.4,0.8,0.8
							C393.3,78.8,393,79.2,392.5,79.1z M392.5,74c-0.4,0-0.8-0.4-0.8-0.8c0-0.4,0.4-0.8,0.8-0.8c0.4,0,0.8,0.4,0.8,0.8
							C393.3,73.7,393,74,392.5,74z M392.5,68.9c-0.4,0-0.8-0.4-0.8-0.8c0-0.4,0.4-0.8,0.8-0.8c0.4,0,0.8,0.4,0.8,0.8
							C393.3,68.6,393,68.9,392.5,68.9z M394.3,102.2c-0.4,0-0.8-0.4-0.8-0.8c0-0.4,0.4-0.8,0.8-0.8c0.4,0,0.8,0.4,0.8,0.8
							C395,101.9,394.7,102.2,394.3,102.2z M394.3,97.1c-0.4,0-0.8-0.4-0.8-0.8c0-0.4,0.4-0.8,0.8-0.8c0.4,0,0.8,0.4,0.8,0.8
							C395,96.8,394.7,97.1,394.3,97.1z M394.3,92c-0.4,0-0.8-0.4-0.8-0.8c0-0.4,0.4-0.8,0.8-0.8c0.4,0,0.8,0.4,0.8,0.8
							C395,91.7,394.7,92,394.3,92z M394.3,86.9c-0.4,0-0.8-0.4-0.8-0.8c0-0.4,0.4-0.8,0.8-0.8c0.4,0,0.8,0.4,0.8,0.8
							C395,86.6,394.7,86.9,394.3,86.9z M394.3,81.8c-0.4,0-0.8-0.4-0.8-0.8c0-0.4,0.4-0.8,0.8-0.8c0.4,0,0.8,0.4,0.8,0.8
							C395,81.4,394.7,81.8,394.3,81.8z M394.3,76.7c-0.4,0-0.8-0.4-0.8-0.8c0-0.4,0.4-0.8,0.8-0.8c0.4,0,0.8,0.4,0.8,0.8
							C395,76.3,394.7,76.7,394.3,76.7z M394.3,71.5c-0.4,0-0.8-0.4-0.8-0.8c0-0.4,0.4-0.8,0.8-0.8c0.4,0,0.8,0.4,0.8,0.8
							C395,71.2,394.7,71.6,394.3,71.5z M394.3,66.4c-0.4,0-0.8-0.4-0.8-0.8c0-0.4,0.4-0.8,0.8-0.8c0.4,0,0.8,0.4,0.8,0.8
							C395,66.1,394.7,66.5,394.3,66.4z M396,104.9c-0.4,0-0.8-0.4-0.8-0.8c0-0.4,0.4-0.8,0.8-0.8c0.4,0,0.8,0.4,0.8,0.8
							C396.8,104.6,396.4,105,396,104.9z M396,99.7c-0.4,0-0.8-0.4-0.8-0.8c0-0.4,0.4-0.8,0.8-0.8c0.4,0,0.8,0.4,0.8,0.8
							C396.8,99.4,396.4,99.7,396,99.7z M396,94.6c-0.4,0-0.8-0.4-0.8-0.8c0-0.4,0.4-0.8,0.8-0.8c0.4,0,0.8,0.4,0.8,0.8
							C396.8,94.3,396.4,94.6,396,94.6z M396,89.5c-0.4,0-0.8-0.4-0.8-0.8c0-0.4,0.4-0.8,0.8-0.8c0.4,0,0.8,0.4,0.8,0.8
							C396.8,89.2,396.4,89.5,396,89.5z M396,84.4c-0.4,0-0.8-0.4-0.8-0.8c0-0.4,0.4-0.8,0.8-0.8c0.4,0,0.8,0.4,0.8,0.8
							C396.8,84.1,396.4,84.4,396,84.4z M396,79.3c-0.4,0-0.8-0.4-0.8-0.8c0-0.4,0.4-0.8,0.8-0.8c0.4,0,0.8,0.4,0.8,0.8
							C396.8,78.9,396.4,79.3,396,79.3z M396,74.2c-0.4,0-0.8-0.4-0.8-0.8c0-0.4,0.4-0.8,0.8-0.8c0.4,0,0.8,0.4,0.8,0.8
							C396.8,73.8,396.4,74.2,396,74.2z M396,69c-0.4,0-0.8-0.4-0.8-0.8c0-0.4,0.4-0.8,0.8-0.8c0.4,0,0.8,0.4,0.8,0.8
							C396.8,68.7,396.4,69.1,396,69z M397.7,102.3c-0.4,0-0.8-0.4-0.8-0.8c0-0.4,0.4-0.8,0.8-0.8c0.4,0,0.8,0.4,0.8,0.8
							C398.5,102,398.1,102.4,397.7,102.3z M397.7,97.2c-0.4,0-0.8-0.4-0.8-0.8c0-0.4,0.4-0.8,0.8-0.8c0.4,0,0.8,0.4,0.8,0.8
							C398.5,96.9,398.1,97.2,397.7,97.2z M397.7,92.1c-0.4,0-0.8-0.4-0.8-0.8c0-0.4,0.4-0.8,0.8-0.8c0.4,0,0.8,0.4,0.8,0.8
							C398.5,91.8,398.1,92.1,397.7,92.1z M397.7,87c-0.4,0-0.8-0.4-0.8-0.8c0-0.4,0.4-0.8,0.8-0.8c0.4,0,0.8,0.4,0.8,0.8
							C398.5,86.7,398.1,87,397.7,87z M397.7,81.9c-0.4,0-0.8-0.4-0.8-0.8c0-0.4,0.4-0.8,0.8-0.8c0.4,0,0.8,0.4,0.8,0.8
							C398.5,81.6,398.1,81.9,397.7,81.9z M397.7,76.8c-0.4,0-0.8-0.4-0.8-0.8c0-0.4,0.4-0.8,0.8-0.8c0.4,0,0.8,0.4,0.8,0.8
							C398.5,76.5,398.1,76.8,397.7,76.8z M397.7,71.7c-0.4,0-0.8-0.4-0.8-0.8c0-0.4,0.4-0.8,0.8-0.8c0.4,0,0.8,0.4,0.8,0.8
							C398.5,71.4,398.1,71.7,397.7,71.7z M397.7,66.6c-0.4,0-0.8-0.4-0.8-0.8c0-0.4,0.4-0.8,0.8-0.8c0.4,0,0.8,0.4,0.8,0.8
							C398.5,66.2,398.1,66.6,397.7,66.6z M399.6,105.1c-0.4,0-0.8-0.4-0.8-0.8c0-0.4,0.4-0.8,0.8-0.8c0.4,0,0.8,0.4,0.8,0.8
							C400.4,104.8,400.1,105.1,399.6,105.1z M399.6,99.8c-0.4,0-0.8-0.4-0.8-0.8c0-0.4,0.4-0.8,0.8-0.8c0.4,0,0.8,0.4,0.8,0.8
							C400.4,99.5,400.1,99.9,399.6,99.8z M399.6,94.7c-0.4,0-0.8-0.4-0.8-0.8c0-0.4,0.4-0.8,0.8-0.8c0.4,0,0.8,0.4,0.8,0.8
							C400.4,94.4,400.1,94.8,399.6,94.7z M399.6,89.6c-0.4,0-0.8-0.4-0.8-0.8c0-0.4,0.4-0.8,0.8-0.8c0.4,0,0.8,0.4,0.8,0.8
							C400.4,89.3,400.1,89.6,399.6,89.6z M399.6,84.5c-0.4,0-0.8-0.4-0.8-0.8c0-0.4,0.4-0.8,0.8-0.8c0.4,0,0.8,0.4,0.8,0.8
							C400.4,84.2,400.1,84.5,399.6,84.5z M399.6,79.4c-0.4,0-0.8-0.4-0.8-0.8c0-0.4,0.4-0.8,0.8-0.8c0.4,0,0.8,0.4,0.8,0.8
							C400.4,79.1,400.1,79.4,399.6,79.4z M399.6,74.3c-0.4,0-0.8-0.4-0.8-0.8c0-0.4,0.4-0.8,0.8-0.8c0.4,0,0.8,0.4,0.8,0.8
							C400.4,74,400.1,74.3,399.6,74.3z M399.6,69.2c-0.4,0-0.8-0.4-0.8-0.8c0-0.4,0.4-0.8,0.8-0.8c0.4,0,0.8,0.4,0.8,0.8
							C400.4,68.9,400.1,69.2,399.6,69.2z M401.4,102.5c-0.4,0-0.8-0.4-0.8-0.8c0-0.4,0.4-0.8,0.8-0.8c0.4,0,0.8,0.4,0.8,0.8
							C402.1,102.2,401.8,102.5,401.4,102.5z M401.4,97.4c-0.4,0-0.8-0.4-0.8-0.8c0-0.4,0.4-0.8,0.8-0.8c0.4,0,0.8,0.4,0.8,0.8
							C402.1,97,401.8,97.4,401.4,97.4z M401.4,92.3c-0.4,0-0.8-0.4-0.8-0.8c0-0.4,0.4-0.8,0.8-0.8c0.4,0,0.8,0.4,0.8,0.8
							C402.1,91.9,401.8,92.3,401.4,92.3z M401.4,87.1c-0.4,0-0.8-0.4-0.8-0.8c0-0.4,0.4-0.8,0.8-0.8c0.4,0,0.8,0.4,0.8,0.8
							C402.1,86.8,401.8,87.2,401.4,87.1z M401.4,82c-0.4,0-0.8-0.4-0.8-0.8c0-0.4,0.4-0.8,0.8-0.8c0.4,0,0.8,0.4,0.8,0.8
							C402.1,81.7,401.8,82.1,401.4,82z M401.4,76.9c-0.4,0-0.8-0.4-0.8-0.8c0-0.4,0.4-0.8,0.8-0.8c0.4,0,0.8,0.4,0.8,0.8
							C402.1,76.6,401.8,76.9,401.4,76.9z M401.4,71.8c-0.4,0-0.8-0.4-0.8-0.8c0-0.4,0.4-0.8,0.8-0.8c0.4,0,0.8,0.4,0.8,0.8
							C402.1,71.5,401.8,71.8,401.4,71.8z M401.4,66.7c-0.4,0-0.8-0.4-0.8-0.8c0-0.4,0.4-0.8,0.8-0.8c0.4,0,0.8,0.4,0.8,0.8
							C402.1,66.4,401.8,66.7,401.4,66.7z M403.1,105.2c-0.4,0-0.8-0.4-0.8-0.8c0-0.4,0.4-0.8,0.8-0.8c0.4,0,0.8,0.4,0.8,0.8
							C403.9,104.9,403.5,105.2,403.1,105.2z M403.1,100c-0.4,0-0.8-0.4-0.8-0.8c0-0.4,0.4-0.8,0.8-0.8c0.4,0,0.8,0.4,0.8,0.8
							C403.9,99.7,403.5,100,403.1,100z M403.1,94.9c-0.4,0-0.8-0.4-0.8-0.8c0-0.4,0.4-0.8,0.8-0.8c0.4,0,0.8,0.4,0.8,0.8
							C403.9,94.5,403.5,94.9,403.1,94.9z M403.1,89.8c-0.4,0-0.8-0.4-0.8-0.8c0-0.4,0.4-0.8,0.8-0.8c0.4,0,0.8,0.4,0.8,0.8
							C403.9,89.4,403.5,89.8,403.1,89.8z M403.1,84.6c-0.4,0-0.8-0.4-0.8-0.8c0-0.4,0.4-0.8,0.8-0.8c0.4,0,0.8,0.4,0.8,0.8
							C403.9,84.3,403.5,84.7,403.1,84.6z M403.1,79.5c-0.4,0-0.8-0.4-0.8-0.8c0-0.4,0.4-0.8,0.8-0.8c0.4,0,0.8,0.4,0.8,0.8
							C403.9,79.2,403.5,79.6,403.1,79.5z M403.1,74.4c-0.4,0-0.8-0.4-0.8-0.8c0-0.4,0.4-0.8,0.8-0.8c0.4,0,0.8,0.4,0.8,0.8
							C403.9,74.1,403.5,74.4,403.1,74.4z M403.1,69.3c-0.4,0-0.8-0.4-0.8-0.8s0.4-0.8,0.8-0.8c0.4,0,0.8,0.4,0.8,0.8
							C403.9,69,403.5,69.3,403.1,69.3z M404.8,102.6c-0.4,0-0.8-0.4-0.8-0.8c0-0.4,0.4-0.8,0.8-0.8c0.4,0,0.8,0.4,0.8,0.8
							C405.6,102.3,405.2,102.6,404.8,102.6z M404.8,97.5c-0.4,0-0.8-0.4-0.8-0.8c0-0.4,0.4-0.8,0.8-0.8c0.4,0,0.8,0.4,0.8,0.8
							C405.6,97.2,405.2,97.5,404.8,97.5z M404.8,92.4c-0.4,0-0.8-0.4-0.8-0.8c0-0.4,0.4-0.8,0.8-0.8c0.4,0,0.8,0.4,0.8,0.8
							C405.6,92.1,405.2,92.4,404.8,92.4z M404.8,87.3c-0.4,0-0.8-0.4-0.8-0.8c0-0.4,0.4-0.8,0.8-0.8c0.4,0,0.8,0.4,0.8,0.8
							C405.6,87,405.2,87.3,404.8,87.3z M404.8,82.2c-0.4,0-0.8-0.4-0.8-0.8c0-0.4,0.4-0.8,0.8-0.8c0.4,0,0.8,0.4,0.8,0.8
							C405.6,81.8,405.2,82.2,404.8,82.2z M404.8,77.1c-0.4,0-0.8-0.4-0.8-0.8c0-0.4,0.4-0.8,0.8-0.8c0.4,0,0.8,0.4,0.8,0.8
							C405.6,76.7,405.2,77.1,404.8,77.1z M404.8,71.9c-0.4,0-0.8-0.4-0.8-0.8c0-0.4,0.4-0.8,0.8-0.8c0.4,0,0.8,0.4,0.8,0.8
							C405.6,71.6,405.2,72,404.8,71.9z M404.8,66.8c-0.4,0-0.8-0.4-0.8-0.8c0-0.4,0.4-0.8,0.8-0.8c0.4,0,0.8,0.4,0.8,0.8
							C405.6,66.5,405.2,66.8,404.8,66.8z M406.5,105.3c-0.4,0-0.8-0.4-0.8-0.8c0-0.4,0.4-0.8,0.8-0.8c0.4,0,0.8,0.4,0.8,0.8
							C407.3,105,407,105.3,406.5,105.3z M406.5,100.1c-0.4,0-0.8-0.4-0.8-0.8c0-0.4,0.4-0.8,0.8-0.8c0.4,0,0.8,0.4,0.8,0.8
							C407.3,99.8,407,100.1,406.5,100.1z M406.5,95c-0.4,0-0.8-0.4-0.8-0.8c0-0.4,0.4-0.8,0.8-0.8c0.4,0,0.8,0.4,0.8,0.8
							C407.3,94.7,407,95,406.5,95z M406.5,89.9c-0.4,0-0.8-0.4-0.8-0.8c0-0.4,0.4-0.8,0.8-0.8c0.4,0,0.8,0.4,0.8,0.8
							S407,89.9,406.5,89.9z M406.5,84.8c-0.4,0-0.8-0.4-0.8-0.8c0-0.4,0.4-0.8,0.8-0.8c0.4,0,0.8,0.4,0.8,0.8
							C407.3,84.5,407,84.8,406.5,84.8z M406.5,79.7c-0.4,0-0.8-0.4-0.8-0.8c0-0.4,0.4-0.8,0.8-0.8c0.4,0,0.8,0.4,0.8,0.8
							C407.3,79.3,407,79.7,406.5,79.7z M406.5,74.6c-0.4,0-0.8-0.4-0.8-0.8c0-0.4,0.4-0.8,0.8-0.8c0.4,0,0.8,0.4,0.8,0.8
							C407.3,74.2,407,74.6,406.5,74.6z M406.5,69.4c-0.4,0-0.8-0.4-0.8-0.8c0-0.4,0.4-0.8,0.8-0.8c0.4,0,0.8,0.4,0.8,0.8
							C407.3,69.1,407,69.5,406.5,69.4z M408.2,102.7c-0.4,0-0.8-0.4-0.8-0.8c0-0.4,0.4-0.8,0.8-0.8c0.4,0,0.8,0.4,0.8,0.8
							C409,102.4,408.7,102.7,408.2,102.7z M408.2,97.6c-0.4,0-0.8-0.4-0.8-0.8c0-0.4,0.4-0.8,0.8-0.8c0.4,0,0.8,0.4,0.8,0.8
							C409,97.3,408.7,97.6,408.2,97.6z M408.2,92.5c-0.4,0-0.8-0.4-0.8-0.8c0-0.4,0.4-0.8,0.8-0.8c0.4,0,0.8,0.4,0.8,0.8
							C409,92.2,408.7,92.5,408.2,92.5z M408.2,87.4c-0.4,0-0.8-0.4-0.8-0.8c0-0.4,0.4-0.8,0.8-0.8c0.4,0,0.8,0.4,0.8,0.8
							C409,87.1,408.7,87.4,408.2,87.4z M408.2,82.3c-0.4,0-0.8-0.4-0.8-0.8c0-0.4,0.4-0.8,0.8-0.8c0.4,0,0.8,0.4,0.8,0.8
							C409,82,408.7,82.3,408.2,82.3z M408.2,77.2c-0.4,0-0.8-0.4-0.8-0.8c0-0.4,0.4-0.8,0.8-0.8c0.4,0,0.8,0.4,0.8,0.8
							C409,76.9,408.7,77.2,408.2,77.2z M408.2,72.1c-0.4,0-0.8-0.4-0.8-0.8c0-0.4,0.4-0.8,0.8-0.8c0.4,0,0.8,0.4,0.8,0.8
							C409,71.8,408.7,72.1,408.2,72.1z M408.2,67c-0.4,0-0.8-0.4-0.8-0.8c0-0.4,0.4-0.8,0.8-0.8c0.4,0,0.8,0.4,0.8,0.8
							C409,66.6,408.7,67,408.2,67z M410,105.5c-0.4,0-0.8-0.4-0.8-0.8c0-0.4,0.4-0.8,0.8-0.8c0.4,0,0.8,0.4,0.8,0.8
							C410.8,105.1,410.4,105.5,410,105.5z M410,100.2c-0.4,0-0.8-0.4-0.8-0.8c0-0.4,0.4-0.8,0.8-0.8c0.4,0,0.8,0.4,0.8,0.8
							C410.8,99.9,410.4,100.2,410,100.2z M410,95.1c-0.4,0-0.8-0.4-0.8-0.8c0-0.4,0.4-0.8,0.8-0.8c0.4,0,0.8,0.4,0.8,0.8
							C410.8,94.8,410.4,95.1,410,95.1z M410,90c-0.4,0-0.8-0.4-0.8-0.8c0-0.4,0.4-0.8,0.8-0.8c0.4,0,0.8,0.4,0.8,0.8
							C410.8,89.7,410.4,90,410,90z M410,84.9c-0.4,0-0.8-0.4-0.8-0.8c0-0.4,0.4-0.8,0.8-0.8c0.4,0,0.8,0.4,0.8,0.8
							C410.8,84.6,410.4,84.9,410,84.9z M410,79.8c-0.4,0-0.8-0.4-0.8-0.8c0-0.4,0.4-0.8,0.8-0.8c0.4,0,0.8,0.4,0.8,0.8
							C410.8,79.5,410.4,79.8,410,79.8z M410,74.7c-0.4,0-0.8-0.4-0.8-0.8c0-0.4,0.4-0.8,0.8-0.8c0.4,0,0.8,0.4,0.8,0.8
							C410.8,74.4,410.4,74.7,410,74.7z M410,69.6c-0.4,0-0.8-0.4-0.8-0.8c0-0.4,0.4-0.8,0.8-0.8c0.4,0,0.8,0.4,0.8,0.8
							C410.8,69.3,410.4,69.6,410,69.6z M411.7,102.9c-0.4,0-0.8-0.4-0.8-0.8c0-0.4,0.4-0.8,0.8-0.8c0.4,0,0.8,0.4,0.8,0.8
							C412.5,102.5,412.1,102.9,411.7,102.9z M411.7,97.8c-0.4,0-0.8-0.4-0.8-0.8c0-0.4,0.4-0.8,0.8-0.8c0.4,0,0.8,0.4,0.8,0.8
							C412.5,97.4,412.1,97.8,411.7,97.8z M411.7,92.6c-0.4,0-0.8-0.4-0.8-0.8c0-0.4,0.4-0.8,0.8-0.8c0.4,0,0.8,0.4,0.8,0.8
							C412.5,92.3,412.1,92.7,411.7,92.6z M411.7,87.5c-0.4,0-0.8-0.4-0.8-0.8c0-0.4,0.4-0.8,0.8-0.8c0.4,0,0.8,0.4,0.8,0.8
							C412.5,87.2,412.1,87.5,411.7,87.5z M411.7,82.4c-0.4,0-0.8-0.4-0.8-0.8c0-0.4,0.4-0.8,0.8-0.8c0.4,0,0.8,0.4,0.8,0.8
							C412.5,82.1,412.1,82.4,411.7,82.4z M411.7,77.3c-0.4,0-0.8-0.4-0.8-0.8s0.4-0.8,0.8-0.8c0.4,0,0.8,0.4,0.8,0.8
							C412.5,77,412.1,77.3,411.7,77.3z M411.7,72.2c-0.4,0-0.8-0.4-0.8-0.8c0-0.4,0.4-0.8,0.8-0.8c0.4,0,0.8,0.4,0.8,0.8
							C412.5,71.9,412.1,72.2,411.7,72.2z M411.7,67.1c-0.4,0-0.8-0.4-0.8-0.8c0-0.4,0.4-0.8,0.8-0.8c0.4,0,0.8,0.4,0.8,0.8
							C412.5,66.8,412.1,67.1,411.7,67.1z M413.4,100.4c-0.4,0-0.8-0.4-0.8-0.8c0-0.4,0.4-0.8,0.8-0.8c0.4,0,0.8,0.4,0.8,0.8
							C414.2,100,413.8,100.4,413.4,100.4z M413.4,95.3c-0.4,0-0.8-0.4-0.8-0.8c0-0.4,0.4-0.8,0.8-0.8c0.4,0,0.8,0.4,0.8,0.8
							C414.2,94.9,413.8,95.3,413.4,95.3z M413.4,90.1c-0.4,0-0.8-0.4-0.8-0.8c0-0.4,0.4-0.8,0.8-0.8c0.4,0,0.8,0.4,0.8,0.8
							C414.2,89.8,413.8,90.2,413.4,90.1z M413.4,85c-0.4,0-0.8-0.4-0.8-0.8c0-0.4,0.4-0.8,0.8-0.8c0.4,0,0.8,0.4,0.8,0.8
							C414.2,84.7,413.8,85,413.4,85z M413.4,79.9c-0.4,0-0.8-0.4-0.8-0.8c0-0.4,0.4-0.8,0.8-0.8c0.4,0,0.8,0.4,0.8,0.8
							C414.2,79.6,413.8,79.9,413.4,79.9z M413.4,74.8c-0.4,0-0.8-0.4-0.8-0.8c0-0.4,0.4-0.8,0.8-0.8c0.4,0,0.8,0.4,0.8,0.8
							C414.2,74.5,413.8,74.8,413.4,74.8z"/>
					</g>
				</g>
			</g>
			<g id="XMLID_2024_">
				
					<linearGradient id="XMLID_31_" gradientUnits="userSpaceOnUse" x1="337.5308" y1="117.2439" x2="348.5176" y2="117.2439" gradientTransform="matrix(1.0033 3.760000e-02 0 1 -1.3106 -10.3491)">
					<stop  offset="3.225810e-02" style="stop-color:#5A585A"/>
					<stop  offset="1" style="stop-color:#3C3B3D"/>
				</linearGradient>
				<path id="XMLID_1720_" class="st86" d="M347.3,121.1l-8.9-0.3c-0.6,0-1.1-0.5-1.1-1.1v-1.2l11,0.4v1.2
					C348.4,120.6,347.9,121.1,347.3,121.1z"/>
				
					<linearGradient id="XMLID_32_" gradientUnits="userSpaceOnUse" x1="422.7967" y1="117.2437" x2="433.7836" y2="117.2437" gradientTransform="matrix(1.0033 3.760000e-02 0 1 -1.3106 -10.3491)">
					<stop  offset="3.225810e-02" style="stop-color:#5A585A"/>
					<stop  offset="1" style="stop-color:#3C3B3D"/>
				</linearGradient>
				<path id="XMLID_2025_" class="st87" d="M432.8,124.3l-8.9-0.3c-0.6,0-1.1-0.5-1.1-1.1v-1.2l11,0.4v1.2
					C433.9,123.9,433.4,124.3,432.8,124.3z"/>
				
					<linearGradient id="XMLID_33_" gradientUnits="userSpaceOnUse" x1="449.6363" y1="114.0494" x2="460.6231" y2="114.0494" gradientTransform="matrix(1.0033 3.760000e-02 0 1 -1.3106 -10.3491)">
					<stop  offset="3.225810e-02" style="stop-color:#5A585A"/>
					<stop  offset="1" style="stop-color:#3C3B3D"/>
				</linearGradient>
				<path id="XMLID_2470_" class="st88" d="M459.8,122.1l-8.9-0.3c-0.6,0-1.1-0.5-1.1-1.1v-1.2l11,0.4v1.2
					C460.8,121.7,460.4,122.1,459.8,122.1z"/>
			</g>
			<g id="XMLID_825_">
				<g id="XMLID_2026_">
					<polygon id="XMLID_2022_" class="st89" points="413.5,56 412.8,56 412.8,53 413.5,53 					"/>
					<polygon id="XMLID_2027_" class="st89" points="414.9,56 414,56 414,54 414.9,54.1 					"/>
					<polygon id="XMLID_2028_" class="st89" points="416.3,56.1 415.4,56.1 415.4,53.5 416.3,53.5 					"/>
					<polygon id="XMLID_2029_" class="st89" points="417.7,56.1 416.8,56.1 416.8,55 417.7,55.1 					"/>
					<polygon id="XMLID_2031_" class="st89" points="420.4,56.2 419.4,56.2 419.4,54.7 420.4,54.8 					"/>
					<polygon id="XMLID_2030_" class="st89" points="418.9,56.2 418.3,56.2 418.3,54.3 418.9,54.3 					"/>
				</g>
				<path id="XMLID_2041_" class="st89" d="M422.4,55.9c0,1.2-2.6,2.7-5.8,2.6c-3.2-0.1-5.8-1.8-5.8-3c0,0,0-0.1,0-0.1
					c0.1,1.2,2.7,2.3,5.8,2.4C419.7,57.9,422.2,57,422.4,55.9C422.4,55.8,422.4,55.8,422.4,55.9z"/>
			</g>
		</g>
		<g id="XMLID_2949_">
			<polygon id="XMLID_2467_" class="st58" points="467.1,119.5 448.2,122.6 448.2,51.7 466.9,50.1 			"/>
			<g id="XMLID_2403_">
				<polygon id="XMLID_1823_" class="st41" points="322.3,46.9 342.7,44.4 466.9,49.5 466.9,50.1 448.1,51.8 				"/>
				<polygon id="XMLID_2468_" class="st47" points="322.2,46.9 342.7,45 466.9,50.1 448.2,51.7 				"/>
			</g>
		</g>
	</g>
</g>
</svg>
