<?xml version="1.0" encoding="utf-8"?>
<!-- Generator: Adobe Illustrator 21.0.2, SVG Export Plug-In . SVG Version: 6.00 Build 0)  -->
<svg version="1.1" id="Layer_1" xmlns="http://www.w3.org/2000/svg" xmlns:xlink="http://www.w3.org/1999/xlink" x="0px" y="0px"
	 viewBox="0 0 792 1224" style="enable-background:new 0 0 792 1224;" xml:space="preserve">
<style type="text/css">
	.st0{fill:#FFFFFF;}
	.st1{fill:#F8F8F8;}
	.st2{fill:#F4F3F3;}
	.st3{fill:#F0EFEF;}
	.st4{fill:#ECEBEC;}
	.st5{fill:#E8E8E8;}
	.st6{fill:#E4E4E5;}
	.st7{fill:#E0E0E1;}
	.st8{fill:#DCDDDE;}
	.st9{fill:#D8D9DA;}
	.st10{fill:#D4D6D7;}
	.st11{fill:#D1D2D4;}
	.st12{fill:url(#XMLID_20_);}
	.st13{fill:url(#XMLID_21_);}
	.st14{opacity:0;fill:#F1F2F2;}
	.st15{opacity:9.090909e-02;fill:#F1F2F2;}
	.st16{opacity:0.1818;fill:#F1F2F2;}
	.st17{opacity:0.2727;fill:#F1F2F2;}
	.st18{opacity:0.3636;fill:#F1F2F2;}
	.st19{opacity:0.4545;fill:#F1F2F2;}
	.st20{opacity:0.5455;fill:#F1F2F2;}
	.st21{opacity:0.6364;fill:#F1F2F2;}
	.st22{opacity:0.7273;fill:#F1F2F2;}
	.st23{opacity:0.8182;fill:#F1F2F2;}
	.st24{opacity:0.9091;fill:#F1F2F2;}
	.st25{fill:#F1F2F2;}
	.st26{fill:#282829;}
	.st27{fill:#383839;}
	.st28{fill:url(#XMLID_22_);}
	.st29{fill:url(#XMLID_23_);}
	.st30{filter:url(#Adobe_OpacityMaskFilter);}
	.st31{fill:url(#XMLID_25_);}
	.st32{mask:url(#XMLID_24_);fill:#FFFFFF;}
	.st33{fill:#969799;}
	.st34{fill:#A6A6A8;}
	.st35{fill:#B3B4B5;}
	.st36{fill:#C1C2C4;}
	.st37{fill:#CCCDCE;}
	.st38{fill:#D8D9DB;}
	.st39{fill:#E5E6E8;}
	.st40{fill:#F9FDFE;}
	.st41{fill:#6D6E71;}
	.st42{fill:url(#XMLID_26_);}
	.st43{fill:#58595B;}
	.st44{fill:url(#XMLID_27_);}
	.st45{fill:url(#XMLID_28_);}
	.st46{fill:url(#XMLID_29_);}
	.st47{opacity:0.5;fill:#F1F2F2;}
	.st48{fill:url(#XMLID_30_);}
	.st49{fill:url(#XMLID_31_);}
	.st50{fill:url(#XMLID_32_);}
	.st51{fill:url(#XMLID_33_);}
	.st52{fill:url(#XMLID_34_);}
	.st53{fill:#636466;}
	.st54{fill:#595A5C;}
	.st55{fill:#EDAE46;}
	.st56{fill:#ADAFB2;}
	.st57{fill:#9B9DA0;}
	.st58{fill:#8D9092;}
	.st59{fill:#808285;}
	.st60{fill:#CDCFD0;}
	.st61{fill:#D1D3D4;}
	.st62{fill:#A7A9AC;}
	.st63{fill:#ED595E;}
	.st64{fill:#F58E93;}
	.st65{fill:#FAFAFA;}
	.st66{fill:#F7F7F7;}
	.st67{fill:#F4F4F5;}
	.st68{fill:#EEEFF0;}
	.st69{fill:#ECECED;}
	.st70{fill:#E9EAEB;}
	.st71{fill:#E6E7E8;}
	.st72{fill:#E4E5E6;}
	.st73{fill:#E1E2E3;}
	.st74{fill:#DEDFE1;}
	.st75{fill:#D9DADC;}
	.st76{fill:#D6D8D9;}
	.st77{fill:#D4D5D7;}
	.st78{fill:#B1B3B6;}
	.st79{fill:#A3A5A8;}
	.st80{fill:#939598;}
	.st81{fill:url(#XMLID_35_);}
	.st82{fill:#414042;}
	.st83{fill:#681C00;}
	.st84{fill:url(#XMLID_36_);}
</style>
<g id="electric_stove">
	<g id="XMLID_3107_">
		<path id="XMLID_18_" class="st0" d="M322.5,340.8l135.3-16.9c2.9-0.3-33.8-16.7-33.8-16.7c-2-2.5-12.6-36.6-15.2-36.3l-149.4,16.7
			c-2.6,0.2-10.8,2.7-12.2,5.4C247.3,293.1,319.7,341.1,322.5,340.8z"/>
		<path class="st1" d="M322.5,340l135.3-16.6c2.9-0.3-33-16-33-16c-1.8-2.5-13.1-36.7-15.7-36.4l-148.7,16.8
			c-2.6,0.2-10.2,2.8-11.4,5.6C248.9,293.3,319.7,340.2,322.5,340z"/>
		<path class="st2" d="M322.5,339.1l135.3-16.2c2.9-0.3-32.2-15.4-32.2-15.4c-1.7-2.5-13.7-36.8-16.3-36.6l-148,16.9
			c-2.6,0.2-9.7,2.9-10.7,5.7C250.6,293.6,319.6,339.4,322.5,339.1z"/>
		<path class="st3" d="M322.5,338.3l135.3-15.9c2.9-0.3-31.4-14.7-31.4-14.7c-1.5-2.6-14.3-36.9-16.9-36.7l-147.2,17
			c-2.7,0.2-9.1,3.1-10,5.9C252.3,293.8,319.6,338.5,322.5,338.3z"/>
		<path class="st4" d="M322.5,337.4l135.3-15.6c2.9-0.3-30.5-14.1-30.5-14.1c-1.4-2.6-14.8-37-17.5-36.8l-146.5,17.1
			c-2.7,0.2-8.5,3.2-9.2,6C254,294.1,319.6,337.7,322.5,337.4z"/>
		<path class="st5" d="M322.5,336.6l135.2-15.3c2.9-0.3-29.7-13.4-29.7-13.4c-1.2-2.6-15.4-37.1-18.1-36.9l-145.8,17.2
			c-2.7,0.2-7.9,3.4-8.5,6.2C255.6,294.4,319.6,336.8,322.5,336.6z"/>
		<path class="st6" d="M322.5,335.7l135.2-15c2.9-0.3-28.9-12.8-28.9-12.8c-1.1-2.7-16-37.3-18.7-37l-145,17.3
			c-2.7,0.2-7.3,3.5-7.7,6.3C257.3,294.6,319.6,336,322.5,335.7z"/>
		<path class="st7" d="M322.4,334.9l135.2-14.6c2.9-0.3-28.1-12.1-28.1-12.1c-0.9-2.7-16.5-37.4-19.3-37.1L266,288.4
			c-2.8,0.2-6.7,3.6-7,6.4C259,294.9,319.6,335.1,322.4,334.9z"/>
		<path class="st8" d="M322.4,334l135.2-14.3c2.9-0.3-27.3-11.5-27.3-11.5c-0.8-2.7-17.1-37.5-19.9-37.3l-143.6,17.6
			c-2.8,0.2-6.2,3.8-6.3,6.6C260.6,295.1,319.6,334.3,322.4,334z"/>
		<path class="st9" d="M322.4,333.2l135.2-14c2.9-0.3-26.4-10.8-26.4-10.8c-0.6-2.8-17.6-37.6-20.5-37.4l-142.8,17.7
			c-2.8,0.2-5.6,3.9-5.5,6.7C262.3,295.4,319.6,333.5,322.4,333.2z"/>
		<path class="st10" d="M322.4,332.4l135.1-13.7c2.9-0.3-25.6-10.2-25.6-10.2c-0.5-2.8-18.2-37.7-21-37.5l-142.1,17.8
			c-2.8,0.3-5,4.1-4.8,6.9C264,295.7,319.6,332.6,322.4,332.4z"/>
		<path id="XMLID_17_" class="st11" d="M322.4,331.5l135.1-13.3c2.9-0.3-24.8-9.5-24.8-9.5c-0.4-2.8-18.8-37.9-21.6-37.6
			l-141.4,17.9c-2.9,0.3-4.4,4.2-4.1,7C265.7,295.9,319.5,331.8,322.4,331.5z"/>
	</g>
	<g id="XMLID_584_">
		<g id="XMLID_1892_">
			<linearGradient id="XMLID_20_" gradientUnits="userSpaceOnUse" x1="320.7089" y1="210.1942" x2="480.0113" y2="210.1942">
				<stop  offset="0" style="stop-color:#ADAFB2"/>
				<stop  offset="0.1171" style="stop-color:#C2C4C6"/>
				<stop  offset="0.2472" style="stop-color:#D4D5D7"/>
				<stop  offset="0.3746" style="stop-color:#DFE0E1"/>
				<stop  offset="0.4946" style="stop-color:#E2E3E4"/>
				<stop  offset="0.6093" style="stop-color:#DEDFE0"/>
				<stop  offset="0.753" style="stop-color:#D1D2D4"/>
				<stop  offset="0.9115" style="stop-color:#BCBEC0"/>
				<stop  offset="1" style="stop-color:#ADAFB2"/>
			</linearGradient>
			<polygon id="XMLID_648_" class="st12" points="480,312.2 320.7,327.7 320.7,98.2 480,92.7 			"/>
			<linearGradient id="XMLID_21_" gradientUnits="userSpaceOnUse" x1="400.7885" y1="320.7435" x2="399.9305" y2="310.9354">
				<stop  offset="0" style="stop-color:#5F6062"/>
				<stop  offset="5.726200e-02" style="stop-color:#696A6D"/>
				<stop  offset="0.2362" style="stop-color:#838487"/>
				<stop  offset="0.419" style="stop-color:#96999B"/>
				<stop  offset="0.6049" style="stop-color:#A5A7AA"/>
				<stop  offset="0.796" style="stop-color:#AEB0B3"/>
				<stop  offset="1" style="stop-color:#B1B3B6"/>
			</linearGradient>
			<polygon id="XMLID_368_" class="st13" points="480,312.2 320.7,327.7 320.7,319.1 480,303.9 			"/>
		</g>
		<g id="XMLID_579_">
			<g id="XMLID_1890_">
				<g id="XMLID_765_">
					<polygon id="XMLID_16_" class="st14" points="387.7,312.9 336.6,317.8 336.6,273.8 387.7,269.6 					"/>
					<polygon class="st15" points="386.2,313.1 339.1,317.6 339.1,273.6 386.2,269.7 					"/>
					<polygon class="st16" points="384.7,313.2 341.6,317.3 341.6,273.4 384.7,269.8 					"/>
					<polygon class="st17" points="383.2,313.3 344.1,317.1 344.1,273.2 383.2,269.9 					"/>
					<polygon class="st18" points="381.7,313.5 346.6,316.8 346.6,273 381.7,270.1 					"/>
					<polygon class="st19" points="380.2,313.6 349.1,316.6 349.1,272.8 380.2,270.2 					"/>
					<polygon class="st20" points="378.7,313.8 351.6,316.4 351.6,272.6 378.7,270.3 					"/>
					<polygon class="st21" points="377.2,313.9 354.1,316.1 354.1,272.4 377.2,270.4 					"/>
					<polygon class="st22" points="375.7,314.1 356.6,315.9 356.6,272.2 375.7,270.6 					"/>
					<polygon class="st23" points="374.2,314.2 359,315.7 359,272 374.2,270.7 					"/>
					<polygon class="st24" points="372.8,314.3 361.5,315.4 361.5,271.7 372.8,270.8 					"/>
					<polygon id="XMLID_15_" class="st25" points="371.3,314.5 364,315.2 364,271.5 371.3,270.9 					"/>
				</g>
				<g id="XMLID_786_">
					<polygon id="XMLID_14_" class="st14" points="457.6,306.2 403.4,311.4 403.4,268.3 457.6,263.8 					"/>
					<polygon class="st15" points="455.6,306.4 405.4,311.2 405.4,268.1 455.6,263.9 					"/>
					<polygon class="st16" points="453.6,306.6 407.5,311 407.5,267.9 453.6,264.1 					"/>
					<polygon class="st17" points="451.6,306.8 409.5,310.8 409.5,267.8 451.6,264.3 					"/>
					<polygon class="st18" points="449.6,307 411.6,310.6 411.6,267.6 449.6,264.4 					"/>
					<polygon class="st19" points="447.6,307.2 413.6,310.4 413.6,267.4 447.6,264.6 					"/>
					<polygon class="st20" points="445.6,307.4 415.6,310.3 415.6,267.3 445.6,264.8 					"/>
					<polygon class="st21" points="443.6,307.6 417.7,310.1 417.7,267.1 443.6,264.9 					"/>
					<polygon class="st22" points="441.6,307.8 419.7,309.9 419.7,266.9 441.6,265.1 					"/>
					<polygon class="st23" points="439.6,308 421.8,309.7 421.8,266.8 439.6,265.3 					"/>
					<polygon class="st24" points="437.6,308.2 423.8,309.5 423.8,266.6 437.6,265.4 					"/>
					<polygon id="XMLID_13_" class="st25" points="435.6,308.3 425.9,309.3 425.9,266.4 435.6,265.6 					"/>
				</g>
			</g>
			<g id="XMLID_1891_">
				<g id="XMLID_1574_">
					<polygon id="XMLID_12_" class="st14" points="387.7,156.3 336.6,158.9 336.6,99.1 387.7,97.3 					"/>
					<polygon class="st15" points="386.2,156.4 339.1,158.8 339.1,99 386.2,97.3 					"/>
					<polygon class="st16" points="384.7,156.5 341.6,158.6 341.6,98.9 384.7,97.4 					"/>
					<polygon class="st17" points="383.2,156.6 344.1,158.5 344.1,98.8 383.2,97.4 					"/>
					<polygon class="st18" points="381.7,156.6 346.6,158.4 346.6,98.7 381.7,97.5 					"/>
					<polygon class="st19" points="380.2,156.7 349.1,158.3 349.1,98.6 380.2,97.5 					"/>
					<polygon class="st20" points="378.7,156.8 351.6,158.1 351.6,98.5 378.7,97.6 					"/>
					<polygon class="st21" points="377.2,156.9 354.1,158 354.1,98.4 377.2,97.6 					"/>
					<polygon class="st22" points="375.7,156.9 356.6,157.9 356.6,98.4 375.7,97.7 					"/>
					<polygon class="st23" points="374.2,157 359,157.8 359,98.3 374.2,97.7 					"/>
					<polygon class="st24" points="372.8,157.1 361.5,157.6 361.5,98.2 372.8,97.8 					"/>
					<polygon id="XMLID_11_" class="st25" points="371.3,157.2 364,157.5 364,98.1 371.3,97.8 					"/>
				</g>
				<g id="XMLID_803_">
					<polygon id="XMLID_10_" class="st14" points="457.6,152.3 403.4,155 403.4,96.7 457.6,94.8 					"/>
					<polygon class="st15" points="455.6,152.4 405.4,154.9 405.4,96.6 455.6,94.9 					"/>
					<polygon class="st16" points="453.6,152.5 407.5,154.8 407.5,96.6 453.6,95 					"/>
					<polygon class="st17" points="451.6,152.6 409.5,154.7 409.5,96.5 451.6,95 					"/>
					<polygon class="st18" points="449.6,152.7 411.6,154.6 411.6,96.4 449.6,95.1 					"/>
					<polygon class="st19" points="447.6,152.8 413.6,154.5 413.6,96.4 447.6,95.2 					"/>
					<polygon class="st20" points="445.6,152.9 415.6,154.4 415.6,96.3 445.6,95.2 					"/>
					<polygon class="st21" points="443.6,153 417.7,154.3 417.7,96.2 443.6,95.3 					"/>
					<polygon class="st22" points="441.6,153.1 419.7,154.2 419.7,96.1 441.6,95.4 					"/>
					<polygon class="st23" points="439.6,153.2 421.8,154.1 421.8,96.1 439.6,95.4 					"/>
					<polygon class="st24" points="437.6,153.3 423.8,154 423.8,96 437.6,95.5 					"/>
					<polygon id="XMLID_9_" class="st25" points="435.6,153.4 425.9,153.9 425.9,95.9 435.6,95.6 					"/>
				</g>
			</g>
		</g>
		<g id="XMLID_578_">
			<g id="XMLID_497_">
				<polygon id="XMLID_647_" class="st26" points="472.6,261.7 328.8,273.6 328.8,159.3 472.6,152.1 				"/>
				<polygon id="XMLID_646_" class="st27" points="338.8,262.4 338.8,169.1 463.4,162.5 463.4,252.5 				"/>
				<g id="XMLID_1862_">
					<linearGradient id="XMLID_22_" gradientUnits="userSpaceOnUse" x1="338.7685" y1="250.5837" x2="463.0232" y2="250.5837">
						<stop  offset="0" style="stop-color:#3D3D3E"/>
						<stop  offset="0.596" style="stop-color:#434345"/>
						<stop  offset="1" style="stop-color:#4A4B4C"/>
					</linearGradient>
					<polygon id="XMLID_486_" class="st28" points="444.7,238.7 338.8,246.8 338.8,262.4 463,252.5 					"/>
					<linearGradient id="XMLID_23_" gradientUnits="userSpaceOnUse" x1="444.7466" y1="206.7753" x2="463.0526" y2="206.7753">
						<stop  offset="0" style="stop-color:#3D3D3E"/>
						<stop  offset="0.596" style="stop-color:#434345"/>
						<stop  offset="1" style="stop-color:#4A4B4C"/>
					</linearGradient>
					<polygon id="XMLID_1622_" class="st29" points="444.7,161 462.9,167.1 463.1,252.5 444.7,238.7 					"/>
				</g>
				<defs>
					<filter id="Adobe_OpacityMaskFilter" filterUnits="userSpaceOnUse" x="328.8" y="153.9" width="106.8" height="119.6">
						<feFlood  style="flood-color:white;flood-opacity:1" result="back"/>
						<feBlend  in="SourceGraphic" in2="back" mode="normal"/>
					</filter>
				</defs>
				<mask maskUnits="userSpaceOnUse" x="328.8" y="153.9" width="106.8" height="119.6" id="XMLID_24_">
					<g id="XMLID_427_" class="st30">
						<linearGradient id="XMLID_25_" gradientUnits="userSpaceOnUse" x1="302.5733" y1="155.2078" x2="444.0104" y2="269.7413">
							<stop  offset="0" style="stop-color:#B8BABC"/>
							<stop  offset="3.657609e-03" style="stop-color:#B5B7B9"/>
							<stop  offset="4.699831e-02" style="stop-color:#97999B"/>
							<stop  offset="9.409451e-02" style="stop-color:#7E8082"/>
							<stop  offset="0.1466" style="stop-color:#68696C"/>
							<stop  offset="0.205" style="stop-color:#555557"/>
							<stop  offset="0.272" style="stop-color:#444446"/>
							<stop  offset="0.3526" style="stop-color:#313132"/>
							<stop  offset="0.461" style="stop-color:#212122"/>
							<stop  offset="0.7151" style="stop-color:#1C1B1C"/>
						</linearGradient>
						<polygon id="XMLID_428_" class="st31" points="446.9,273 308.8,284.8 308.8,154.2 446.9,147.6 						"/>
					</g>
				</mask>
				<polygon id="XMLID_500_" class="st32" points="435.6,153.9 360.4,270.9 328.8,273.6 328.8,159.3 				"/>
			</g>
			<g id="XMLID_487_">
				<path id="XMLID_488_" class="st33" d="M476,166.4l-147.5,8c-1.9,0.1-3.4-1.4-3.4-3.4c0-2,1.5-3.6,3.4-3.7l147.5-7.7
					c1.7-0.1,3.1,1.4,3.1,3.2C479.1,164.7,477.7,166.3,476,166.4z"/>
				<path id="XMLID_1866_" class="st34" d="M328.5,174.1c-1.7,0.1-3.1-1.3-3.1-3s1.4-3.3,3.1-3.4L476,160c1.6-0.1,2.8,1.2,2.8,2.9
					c0,1.7-1.3,3.1-2.8,3.2L328.5,174.1z"/>
				<path id="XMLID_1867_" class="st35" d="M328.5,173.8c-1.5,0.1-2.7-1.1-2.7-2.7s1.2-2.9,2.7-3l147.5-7.8c1.4-0.1,2.5,1.1,2.5,2.6
					c0,1.5-1.1,2.8-2.5,2.9L328.5,173.8z"/>
				<path id="XMLID_1871_" class="st36" d="M328.5,173.4c-1.3,0.1-2.4-1-2.4-2.4c0-1.4,1.1-2.5,2.4-2.6l147.5-7.8
					c1.2-0.1,2.2,1,2.2,2.3c0,1.3-1,2.4-2.2,2.5L328.5,173.4z"/>
				<path id="XMLID_1872_" class="st37" d="M328.5,173.1c-1.1,0.1-2.1-0.8-2.1-2c0-1.2,0.9-2.2,2.1-2.2L476,161
					c1-0.1,1.9,0.8,1.9,1.9c0,1.1-0.8,2.1-1.9,2.1L328.5,173.1z"/>
				<path id="XMLID_1874_" class="st38" d="M328.5,172.7c-0.9,0.1-1.7-0.7-1.7-1.7c0-1,0.8-1.8,1.7-1.9l147.5-7.8
					c0.9,0,1.6,0.7,1.6,1.6c0,0.9-0.7,1.7-1.6,1.8L328.5,172.7z"/>
				<path id="XMLID_1876_" class="st39" d="M328.5,172.3c-0.8,0-1.4-0.6-1.4-1.3s0.6-1.5,1.4-1.5l147.5-7.8c0.7,0,1.3,0.5,1.3,1.3
					c0,0.7-0.6,1.4-1.3,1.4L328.5,172.3z"/>
				<path id="XMLID_1878_" class="st40" d="M328.5,172c-0.6,0-1-0.4-1-1c0-0.6,0.5-1.1,1-1.1L476,162c0.5,0,0.9,0.4,0.9,1
					c0,0.6-0.4,1-0.9,1.1L328.5,172z"/>
			</g>
		</g>
		<g id="XMLID_377_">
			<polygon id="XMLID_496_" class="st41" points="480,145.6 320.7,153.4 320.7,151.9 480,144.2 			"/>
			<g id="XMLID_286_">
				<polygon id="XMLID_495_" class="st41" points="480,101.5 320.7,107.1 320.7,106.2 480,100.6 				"/>
			</g>
			<polygon id="XMLID_494_" class="st41" points="480,268.6 320.7,282.1 320.7,280.6 480,267.2 			"/>
		</g>
		<g id="XMLID_1889_">
			<g id="XMLID_173_">
				<g id="XMLID_174_">
					<g id="XMLID_238_">
						<g id="XMLID_379_">
							<g id="XMLID_871_">
								<linearGradient id="XMLID_26_" gradientUnits="userSpaceOnUse" x1="391.3984" y1="133.8253" x2="395.3541" y2="133.8253">
									<stop  offset="0" style="stop-color:#BABCBE"/>
									<stop  offset="0.2325" style="stop-color:#B5B7BA"/>
									<stop  offset="0.5238" style="stop-color:#A9ABAD"/>
									<stop  offset="0.8452" style="stop-color:#95979A"/>
									<stop  offset="1" style="stop-color:#8A8C8E"/>
								</linearGradient>
								<path id="XMLID_2572_" class="st42" d="M393.4,135.9c-1.1,0-2-0.9-2-2c0-1.2,0.9-2.1,2-2.2c1.1,0,2,0.9,2,2
									S394.5,135.9,393.4,135.9z"/>
								<path id="XMLID_2568_" class="st43" d="M393.4,131.9c1,0,1.8,0.8,1.8,1.9c0,1.1-0.8,2-1.8,2c-1,0-1.8-0.8-1.8-1.9
									C391.5,132.8,392.4,131.9,393.4,131.9L393.4,131.9z M393.4,131.6c-1.2,0.1-2.1,1.1-2.1,2.3c0,1.2,1,2.2,2.1,2.1
									c1.2-0.1,2.1-1.1,2.1-2.3C395.5,132.5,394.5,131.5,393.4,131.6L393.4,131.6z"/>
							</g>
						</g>
						<g id="XMLID_378_">
							<g id="XMLID_861_">
								<linearGradient id="XMLID_27_" gradientUnits="userSpaceOnUse" x1="400.2293" y1="133.4391" x2="404.1648" y2="133.4391">
									<stop  offset="0" style="stop-color:#BABCBE"/>
									<stop  offset="0.2325" style="stop-color:#B5B7BA"/>
									<stop  offset="0.5238" style="stop-color:#A9ABAD"/>
									<stop  offset="0.8452" style="stop-color:#95979A"/>
									<stop  offset="1" style="stop-color:#8A8C8E"/>
								</linearGradient>
								<path id="XMLID_2566_" class="st44" d="M402.2,135.5c-1.1,0-2-0.8-2-2s0.9-2.1,2-2.2c1.1,0,2,0.8,2,2
									S403.3,135.5,402.2,135.5z"/>
								<path id="XMLID_2563_" class="st43" d="M402.2,131.5c1,0,1.8,0.8,1.8,1.9c0,1.1-0.8,2-1.8,2c-1,0-1.8-0.8-1.8-1.9
									C400.4,132.4,401.2,131.5,402.2,131.5L402.2,131.5z M402.2,131.2c-1.2,0.1-2.1,1.1-2.1,2.3c0,1.2,0.9,2.2,2.1,2.1
									c1.2-0.1,2.1-1.1,2.1-2.3S403.4,131.2,402.2,131.2L402.2,131.2z"/>
							</g>
						</g>
						<g id="XMLID_252_">
							<g id="XMLID_856_">
								<linearGradient id="XMLID_28_" gradientUnits="userSpaceOnUse" x1="409.0175" y1="133.0549" x2="412.9329" y2="133.0549">
									<stop  offset="0" style="stop-color:#BABCBE"/>
									<stop  offset="0.2325" style="stop-color:#B5B7BA"/>
									<stop  offset="0.5238" style="stop-color:#A9ABAD"/>
									<stop  offset="0.8452" style="stop-color:#95979A"/>
									<stop  offset="1" style="stop-color:#8A8C8E"/>
								</linearGradient>
								<path id="XMLID_2561_" class="st45" d="M411,135.1c-1.1,0-2-0.8-2-2c0-1.1,0.9-2.1,2-2.2c1.1,0,2,0.8,2,2
									C412.9,134.1,412.1,135.1,411,135.1z"/>
								<path id="XMLID_879_" class="st43" d="M411,131.1c1,0,1.8,0.8,1.8,1.9c0,1.1-0.8,2-1.8,2c-1,0-1.8-0.8-1.8-1.9
									C409.2,132.1,410,131.2,411,131.1L411,131.1z M411,130.8c-1.2,0-2.1,1.1-2.1,2.3c0,1.2,0.9,2.2,2.1,2.1
									c1.2-0.1,2.1-1.1,2.1-2.3C413.1,131.7,412.1,130.8,411,130.8L411,130.8z"/>
							</g>
						</g>
						<g id="XMLID_367_">
							<g id="XMLID_851_">
								<linearGradient id="XMLID_29_" gradientUnits="userSpaceOnUse" x1="391.3984" y1="133.8253" x2="395.3541" y2="133.8253">
									<stop  offset="0" style="stop-color:#BABCBE"/>
									<stop  offset="0.2325" style="stop-color:#B5B7BA"/>
									<stop  offset="0.5238" style="stop-color:#A9ABAD"/>
									<stop  offset="0.8452" style="stop-color:#95979A"/>
									<stop  offset="1" style="stop-color:#8A8C8E"/>
								</linearGradient>
								<path id="XMLID_876_" class="st46" d="M393.4,135.9c-1.1,0-2-0.9-2-2c0-1.2,0.9-2.1,2-2.2c1.1,0,2,0.9,2,2
									S394.5,135.9,393.4,135.9z"/>
								<path id="XMLID_873_" class="st43" d="M393.4,131.9c1,0,1.8,0.8,1.8,1.9c0,1.1-0.8,2-1.8,2c-1,0-1.8-0.8-1.8-1.9
									C391.5,132.8,392.4,131.9,393.4,131.9L393.4,131.9z M393.4,131.6c-1.2,0.1-2.1,1.1-2.1,2.3c0,1.2,1,2.2,2.1,2.1
									c1.2-0.1,2.1-1.1,2.1-2.3C395.5,132.5,394.5,131.5,393.4,131.6L393.4,131.6z"/>
							</g>
						</g>
						<path id="XMLID_655_" class="st47" d="M394.5,133.1c0,0.5-0.5,0.9-1.2,0.9c-0.6,0-1.2-0.3-1.2-0.8c0-0.5,0.5-0.9,1.2-0.9
							C394,132.3,394.5,132.6,394.5,133.1z"/>
					</g>
					<g id="XMLID_240_">
						<g id="XMLID_241_">
							<g id="XMLID_845_">
								<linearGradient id="XMLID_30_" gradientUnits="userSpaceOnUse" x1="400.2293" y1="133.4391" x2="404.1648" y2="133.4391">
									<stop  offset="0" style="stop-color:#BABCBE"/>
									<stop  offset="0.2325" style="stop-color:#B5B7BA"/>
									<stop  offset="0.5238" style="stop-color:#A9ABAD"/>
									<stop  offset="0.8452" style="stop-color:#95979A"/>
									<stop  offset="1" style="stop-color:#8A8C8E"/>
								</linearGradient>
								<path id="XMLID_870_" class="st48" d="M402.2,135.5c-1.1,0-2-0.8-2-2s0.9-2.1,2-2.2c1.1,0,2,0.8,2,2
									S403.3,135.5,402.2,135.5z"/>
								<path id="XMLID_862_" class="st43" d="M402.2,131.5c1,0,1.8,0.8,1.8,1.9c0,1.1-0.8,2-1.8,2c-1,0-1.8-0.8-1.8-1.9
									C400.4,132.4,401.2,131.5,402.2,131.5L402.2,131.5z M402.2,131.2c-1.2,0.1-2.1,1.1-2.1,2.3c0,1.2,0.9,2.2,2.1,2.1
									c1.2-0.1,2.1-1.1,2.1-2.3S403.4,131.2,402.2,131.2L402.2,131.2z"/>
							</g>
						</g>
						<path id="XMLID_242_" class="st47" d="M403.4,132.7c0,0.5-0.5,0.9-1.2,0.9c-0.6,0-1.2-0.3-1.2-0.8s0.5-0.9,1.2-0.9
							C402.8,131.9,403.4,132.2,403.4,132.7z"/>
					</g>
					<g id="XMLID_244_">
						<g id="XMLID_246_">
							<g id="XMLID_840_">
								<linearGradient id="XMLID_31_" gradientUnits="userSpaceOnUse" x1="409.0175" y1="133.0549" x2="412.9329" y2="133.0549">
									<stop  offset="0" style="stop-color:#BABCBE"/>
									<stop  offset="0.2325" style="stop-color:#B5B7BA"/>
									<stop  offset="0.5238" style="stop-color:#A9ABAD"/>
									<stop  offset="0.8452" style="stop-color:#95979A"/>
									<stop  offset="1" style="stop-color:#8A8C8E"/>
								</linearGradient>
								<path id="XMLID_860_" class="st49" d="M411,135.1c-1.1,0-2-0.8-2-2c0-1.1,0.9-2.1,2-2.2c1.1,0,2,0.8,2,2
									C412.9,134.1,412.1,135.1,411,135.1z"/>
								<path id="XMLID_857_" class="st43" d="M411,131.1c1,0,1.8,0.8,1.8,1.9c0,1.1-0.8,2-1.8,2c-1,0-1.8-0.8-1.8-1.9
									C409.2,132.1,410,131.2,411,131.1L411,131.1z M411,130.8c-1.2,0-2.1,1.1-2.1,2.3c0,1.2,0.9,2.2,2.1,2.1
									c1.2-0.1,2.1-1.1,2.1-2.3C413.1,131.7,412.1,130.8,411,130.8L411,130.8z"/>
							</g>
						</g>
						<path id="XMLID_245_" class="st47" d="M412.1,132.3c0,0.5-0.5,0.9-1.2,0.9c-0.6,0-1.2-0.3-1.2-0.8c0-0.5,0.5-0.9,1.2-0.9
							C411.6,131.5,412.1,131.9,412.1,132.3z"/>
					</g>
				</g>
				<g id="XMLID_257_">
					<g id="XMLID_274_">
						<g id="XMLID_276_">
							<g id="XMLID_839_">
								<linearGradient id="XMLID_32_" gradientUnits="userSpaceOnUse" x1="391.4001" y1="141.7144" x2="395.3558" y2="141.7144">
									<stop  offset="0" style="stop-color:#BABCBE"/>
									<stop  offset="0.2325" style="stop-color:#B5B7BA"/>
									<stop  offset="0.5238" style="stop-color:#A9ABAD"/>
									<stop  offset="0.8452" style="stop-color:#95979A"/>
									<stop  offset="1" style="stop-color:#8A8C8E"/>
								</linearGradient>
								<path id="XMLID_855_" class="st50" d="M393.4,143.8c-1.1,0.1-2-0.8-2-2c0-1.2,0.9-2.1,2-2.2c1.1,0,2,0.8,2,2
									C395.4,142.8,394.5,143.8,393.4,143.8z"/>
								<path id="XMLID_852_" class="st43" d="M393.4,139.8c1,0,1.8,0.8,1.8,1.9c0,1.1-0.8,2-1.8,2c-1,0-1.8-0.8-1.8-1.9
									C391.5,140.7,392.4,139.8,393.4,139.8L393.4,139.8z M393.4,139.5c-1.2,0.1-2.1,1.1-2.1,2.3s1,2.2,2.1,2.1
									c1.2-0.1,2.1-1.1,2.1-2.3C395.5,140.4,394.5,139.4,393.4,139.5L393.4,139.5z"/>
							</g>
						</g>
						<path id="XMLID_275_" class="st47" d="M394.5,141c0,0.5-0.5,0.9-1.2,0.9c-0.6,0-1.2-0.3-1.2-0.8c0-0.5,0.5-0.9,1.2-0.9
							C394,140.2,394.5,140.5,394.5,141z"/>
					</g>
					<g id="XMLID_266_">
						<g id="XMLID_268_">
							<g id="XMLID_838_">
								<linearGradient id="XMLID_33_" gradientUnits="userSpaceOnUse" x1="400.2293" y1="141.3082" x2="404.1648" y2="141.3082">
									<stop  offset="0" style="stop-color:#BABCBE"/>
									<stop  offset="0.2325" style="stop-color:#B5B7BA"/>
									<stop  offset="0.5238" style="stop-color:#A9ABAD"/>
									<stop  offset="0.8452" style="stop-color:#95979A"/>
									<stop  offset="1" style="stop-color:#8A8C8E"/>
								</linearGradient>
								<path id="XMLID_850_" class="st51" d="M402.2,143.4c-1.1,0.1-2-0.8-2-2c0-1.2,0.9-2.1,2-2.2c1.1,0,2,0.8,2,2
									S403.3,143.3,402.2,143.4z"/>
								<path id="XMLID_846_" class="st43" d="M402.2,139.4c1,0,1.8,0.8,1.8,1.9s-0.8,2-1.8,2c-1,0-1.8-0.8-1.8-1.9
									S401.2,139.4,402.2,139.4L402.2,139.4z M402.2,139.1c-1.2,0.1-2.1,1.1-2.1,2.3c0,1.2,0.9,2.2,2.1,2.1
									c1.2-0.1,2.1-1.1,2.1-2.3C404.3,140,403.4,139,402.2,139.1L402.2,139.1z"/>
							</g>
						</g>
						<path id="XMLID_267_" class="st47" d="M403.4,140.6c0,0.5-0.5,0.9-1.2,0.9c-0.6,0-1.2-0.3-1.2-0.8c0-0.5,0.5-0.9,1.2-0.9
							C402.8,139.8,403.4,140.1,403.4,140.6z"/>
					</g>
					<g id="XMLID_258_">
						<g id="XMLID_260_">
							<g id="XMLID_837_">
								<linearGradient id="XMLID_34_" gradientUnits="userSpaceOnUse" x1="409.0175" y1="140.9039" x2="412.9329" y2="140.9039">
									<stop  offset="0" style="stop-color:#BABCBE"/>
									<stop  offset="0.2325" style="stop-color:#B5B7BA"/>
									<stop  offset="0.5238" style="stop-color:#A9ABAD"/>
									<stop  offset="0.8452" style="stop-color:#95979A"/>
									<stop  offset="1" style="stop-color:#8A8C8E"/>
								</linearGradient>
								<path id="XMLID_844_" class="st52" d="M411,143c-1.1,0.1-2-0.8-2-2c0-1.1,0.9-2.1,2-2.2c1.1,0,2,0.8,2,2
									C412.9,142,412.1,142.9,411,143z"/>
								<path id="XMLID_841_" class="st43" d="M411,139c1,0,1.8,0.8,1.8,1.8c0,1.1-0.8,2-1.8,2c-1,0-1.8-0.8-1.8-1.8
									S410,139,411,139L411,139z M411,138.7c-1.2,0.1-2.1,1.1-2.1,2.3s0.9,2.2,2.1,2.1c1.2-0.1,2.1-1.1,2.1-2.3
									C413.1,139.6,412.1,138.6,411,138.7L411,138.7z"/>
							</g>
						</g>
						<path id="XMLID_259_" class="st47" d="M412.1,140.2c0,0.5-0.5,0.9-1.2,0.9c-0.6,0-1.2-0.3-1.2-0.8c0-0.5,0.5-0.9,1.2-0.9
							C411.6,139.4,412.1,139.7,412.1,140.2z"/>
					</g>
				</g>
			</g>
			<g id="XMLID_1888_">
				<g id="XMLID_489_">
					<polygon id="XMLID_493_" class="st53" points="386.9,125.7 386.9,109.7 417.4,108.6 417.4,124.4 					"/>
					<path id="XMLID_490_" d="M416.9,109.1V124l-29.5,1.2v-15L416.9,109.1L416.9,109.1z M417.8,108.1l-31.3,1.1v16.9l31.3-1.3V108.1
						L417.8,108.1z"/>
				</g>
				<g id="XMLID_311_">
					<polygon id="XMLID_362_" class="st54" points="394.1,117 393.6,117.5 393.2,117.1 393.2,114.4 393.6,113.9 394.1,114.4 					
						"/>
					<polygon id="XMLID_361_" class="st54" points="394.1,120.9 393.6,121.4 393.2,120.9 393.2,118.2 393.6,117.8 394.1,118.2 					
						"/>
					<polygon id="XMLID_360_" class="st54" points="390.5,117.2 390,117.7 389.6,117.2 389.6,114.5 390,114 390.5,114.5 					"/>
					<polygon id="XMLID_359_" class="st54" points="390.5,121 390,121.5 389.6,121.1 389.6,118.4 390,117.9 390.5,118.4 					"/>
					<polygon id="XMLID_358_" class="st54" points="393.1,113.3 393.5,113.8 393.1,114.3 390.6,114.4 390.1,113.9 390.6,113.4 					
						"/>
					<polygon id="XMLID_357_" class="st54" points="393.1,117.2 393.5,117.6 393.1,118.1 390.6,118.2 390.1,117.8 390.6,117.3 					
						"/>
					<polygon id="XMLID_312_" class="st54" points="393.1,121 393.5,121.5 393.1,122 390.6,122.1 390.1,121.6 390.6,121.1 					"/>
				</g>
				<g id="XMLID_247_">
					<g id="XMLID_304_">
						<polygon id="XMLID_307_" class="st55" points="399.6,116.8 399.1,117.3 398.7,116.8 398.7,114.2 399.1,113.7 399.6,114.2 
													"/>
						<polygon id="XMLID_306_" class="st55" points="399.6,120.7 399.1,121.1 398.7,120.7 398.7,118 399.1,117.5 399.6,118 						
							"/>
						<polygon id="XMLID_305_" class="st55" points="398.6,113.1 399,113.6 398.6,114.1 396.1,114.2 395.6,113.7 396.1,113.2 						
							"/>
						<polygon id="XMLID_363_" class="st55" points="398.6,117 399,117.4 398.6,117.9 396.1,118 395.6,117.6 396.1,117.1 						"/>
						<polygon id="XMLID_364_" class="st55" points="398.6,120.8 399,121.3 398.6,121.8 396.1,121.9 395.6,121.4 396.1,120.9 						
							"/>
					</g>
					<g id="XMLID_248_">
						<g id="XMLID_299_">
							<polygon id="XMLID_302_" class="st55" points="409.8,116.4 409.3,116.9 408.9,116.4 408.9,113.8 409.3,113.3 409.8,113.8 
															"/>
							<polygon id="XMLID_303_" class="st55" points="406.2,120.4 405.8,120.9 405.3,120.4 405.3,117.8 405.8,117.3 406.2,117.7 
															"/>
							<polygon id="XMLID_300_" class="st55" points="408.8,116.6 409.2,117 408.8,117.5 406.3,117.6 405.8,117.2 406.3,116.7 
															"/>
							<polygon id="XMLID_365_" class="st55" points="408.8,112.7 409.2,113.2 408.8,113.7 406.3,113.8 405.8,113.3 406.3,112.8 
															"/>
							<polygon id="XMLID_366_" class="st55" points="408.8,120.4 409.2,120.9 408.8,121.4 406.3,121.5 405.8,121 406.3,120.5 
															"/>
						</g>
						<g id="XMLID_254_">
							<polygon id="XMLID_298_" class="st55" points="412,116.3 411.6,116.8 411.1,116.4 411.1,113.7 411.6,113.2 412,113.7 							
								"/>
							<polygon id="XMLID_301_" class="st55" points="415.6,116.2 415.1,116.7 414.7,116.2 414.7,113.6 415.1,113.1 415.6,113.5 
															"/>
							<polygon id="XMLID_292_" class="st55" points="415.6,120 415.1,120.5 414.7,120.1 414.7,117.4 415.1,116.9 415.6,117.4 
															"/>
							<polygon id="XMLID_282_" class="st55" points="414.6,116.3 415,116.8 414.6,117.3 412.1,117.4 411.6,116.9 412.1,116.4 
															"/>
						</g>
					</g>
					<g id="XMLID_256_">
						<path id="XMLID_261_" class="st55" d="M403.5,115.3c0,0.5-0.4,0.9-0.9,1c-0.5,0-0.9-0.4-0.9-0.9c0-0.5,0.4-0.9,0.9-1
							C403.1,114.4,403.5,114.8,403.5,115.3z"/>
						<path id="XMLID_262_" class="st55" d="M403.5,119.2c0,0.5-0.4,0.9-0.9,1c-0.5,0-0.9-0.4-0.9-0.9c0-0.5,0.4-0.9,0.9-1
							C403.1,118.3,403.5,118.7,403.5,119.2z"/>
					</g>
				</g>
			</g>
			<g id="XMLID_243_">
				<g id="XMLID_374_">
					<g id="XMLID_404_">
						<path id="XMLID_1626_" class="st56" d="M344.2,132c0,3.3-2.5,6.6-5.9,7.4c-0.6,0.2-1.2,0.3-1.9,0.3c-0.6,0-1.3,0-1.9-0.1
							c-3.4-0.6-5.9-3.7-5.9-7c0-3.3,2.5-6.2,5.9-7c0.6-0.2,1.2-0.3,1.9-0.3c0.6,0,1.3,0,1.9,0.1C341.7,126,344.2,128.7,344.2,132z"
							/>
						<path id="XMLID_1625_" class="st57" d="M344.2,131.2c0,3.3-2.5,6.6-5.9,7.5c-0.6,0.2-1.2,0.3-1.9,0.3c-0.6,0-1.3,0-1.9-0.1
							c-3.4-0.6-5.9-3.7-5.9-7c0-3.3,2.5-6.2,5.9-7c0.6-0.2,1.2-0.2,1.9-0.3c0.6,0,1.3,0,1.9,0.1
							C341.7,125.3,344.2,127.9,344.2,131.2z"/>
						<path id="XMLID_1629_" class="st58" d="M344.2,130.7c0,3.3-2.5,6.4-5.9,7.3c-0.6,0.2-1.2,0.3-1.9,0.3c-0.6,0-1.3,0-1.9-0.1
							c-3.4-0.6-5.9-3.6-5.9-6.9c0-3.3,2.5-6.2,5.9-7c0.6-0.2,1.2-0.2,1.9-0.3c0.6,0,1.3,0,1.9,0.1
							C341.7,124.7,344.2,127.4,344.2,130.7z"/>
						<path id="XMLID_390_" class="st59" d="M335.4,122.8c-3.7,0.1-6.8,3.4-6.8,7.3c0,3.9,3.3,6.6,7.5,7c3.7,0.3,6.7-5.3,6.7-9.2
							C342.8,124.1,339.1,122.7,335.4,122.8z M336.9,136.2c-0.5,0.1-1,0.2-1.5,0.3s1-13.1,1.5-13c2.7,0.6,4.8,3.1,4.8,6.2
							C341.7,132.7,339.7,135.4,336.9,136.2z"/>
						<path id="XMLID_409_" class="st60" d="M335.7,122.8c-3.7,0.1-6.8,3.4-6.8,7.3c0,3.9,3.3,6.6,7.5,7c3.7,0.3,6.7-5.3,6.7-9.2
							C343.1,124.1,339.5,122.7,335.7,122.8z M337.3,136.2c-0.5,0.1-1,0.2-1.5,0.3c-0.5,0,1-13.1,1.5-13c2.7,0.6,4.8,3.1,4.8,6.2
							C342.1,132.7,340,135.4,337.3,136.2z"/>
						<path id="XMLID_1628_" class="st61" d="M343.7,129.8c0,3.1-2,5.8-4.8,6.6c-0.5,0.1-1,0.2-1.5,0.3c-0.5,0-1,0-1.5-0.1
							c-2.8-0.6-4.8-3.1-4.8-6.2c0-3.1,2-5.8,4.8-6.6c0.5-0.1,1-0.2,1.5-0.3c0.5,0,1,0,1.5,0.1C341.7,124.3,343.7,126.8,343.7,129.8
							z"/>
						<path id="XMLID_394_" class="st62" d="M339.3,123.6v12.8c-0.6,0.2-1.2,0.2-1.9,0.3c-0.6,0-1.3,0-1.9-0.1v-12.8
							c0.6-0.2,1.2-0.2,1.9-0.3C338,123.5,338.7,123.5,339.3,123.6z"/>
						<path id="XMLID_484_" class="st0" d="M338.9,123.7v12.8c-0.5,0.2-1,0.2-1.5,0.3c-0.5,0-1,0-1.5-0.1v-12.8
							c0.5-0.2,1-0.2,1.5-0.3C337.9,123.5,338.4,123.6,338.9,123.7z"/>
						<g id="XMLID_405_">
							<polygon id="XMLID_478_" class="st41" points="337.9,122 336.9,122 336.9,119.1 337.9,119.1 							"/>
							<polygon id="XMLID_407_" class="st41" points="344,130.3 344,129.2 346.8,129.1 346.8,130.2 							"/>
							<polygon id="XMLID_406_" class="st41" points="325,131.1 325,130 327.8,129.9 327.8,131 							"/>
						</g>
						<path id="XMLID_1634_" class="st59" d="M337.4,123.1c-3.7,0.1-6.8,3.4-6.8,7.3c0,3.9,3,6.9,6.8,6.8c3.7-0.2,6.8-3.4,6.8-7.3
							C344.1,125.9,341.1,122.9,337.4,123.1z M338.9,136.4c-0.5,0.1-1,0.2-1.5,0.3c-0.5,0-1,0-1.5-0.1c-2.8-0.6-4.8-3.1-4.8-6.2
							c0-3.1,2-5.8,4.8-6.6c0.5-0.1,1-0.2,1.5-0.3c0.5,0,1,0,1.5,0.1c2.7,0.6,4.8,3.1,4.8,6.2C343.7,132.9,341.7,135.6,338.9,136.4z
							"/>
					</g>
					<g id="XMLID_375_">
						<path id="XMLID_1624_" class="st41" d="M339,115.1c0,0.9-0.7,1.7-1.6,1.7c-0.9,0-1.6-0.7-1.6-1.6c0-0.9,0.7-1.7,1.6-1.7
							C338.3,113.4,339,114.1,339,115.1z"/>
						<path id="XMLID_395_" class="st63" d="M338.8,115.1c0,0.8-0.6,1.5-1.4,1.5c-0.8,0-1.4-0.6-1.4-1.4c0-0.8,0.6-1.5,1.4-1.5
							C338.2,113.7,338.8,114.3,338.8,115.1z"/>
						<path id="XMLID_1623_" class="st64" d="M338.3,114.4c0,0.3-0.4,0.6-0.9,0.6c-0.5,0-0.9-0.2-0.9-0.5c0-0.3,0.4-0.6,0.9-0.6
							C337.9,113.9,338.3,114.1,338.3,114.4z"/>
					</g>
					<g id="XMLID_1631_">
						<path id="XMLID_8_" class="st0" d="M336.4,129.8l2-0.1c0.2,0,0.4,0.2,0.4,0.4v5.6c0,0.2-0.2,0.4-0.4,0.4l-2,0.1
							c-0.2,0-0.4-0.2-0.4-0.4v-5.7C336,129.9,336.2,129.8,336.4,129.8z"/>
						<path class="st65" d="M336.4,130l2-0.1c0.2,0,0.4,0.1,0.4,0.3v5.3c0,0.2-0.2,0.4-0.4,0.4l-2,0.1c-0.2,0-0.4-0.1-0.4-0.3v-5.3
							C336.1,130.2,336.2,130,336.4,130z"/>
						<path class="st66" d="M336.4,130.2l2-0.1c0.2,0,0.3,0.1,0.3,0.3v5c0,0.2-0.2,0.4-0.3,0.4l-2,0.1c-0.2,0-0.3-0.1-0.3-0.3v-5
							C336.1,130.4,336.2,130.2,336.4,130.2z"/>
						<path class="st67" d="M336.4,130.5l1.9-0.1c0.2,0,0.3,0.1,0.3,0.3v4.7c0,0.2-0.1,0.4-0.3,0.4l-1.9,0.1c-0.2,0-0.3-0.1-0.3-0.3
							v-4.7C336.1,130.6,336.2,130.5,336.4,130.5z"/>
						<path class="st25" d="M336.4,130.7l1.9-0.1c0.2,0,0.3,0.1,0.3,0.3v4.4c0,0.2-0.1,0.3-0.3,0.3l-1.9,0.1c-0.2,0-0.3-0.1-0.3-0.3
							V131C336.1,130.8,336.3,130.7,336.4,130.7z"/>
						<path class="st68" d="M336.4,130.9l1.9-0.1c0.2,0,0.3,0.1,0.3,0.3v4c0,0.2-0.1,0.3-0.3,0.3l-1.9,0.1c-0.2,0-0.3-0.1-0.3-0.3
							v-4C336.1,131.1,336.3,130.9,336.4,130.9z"/>
						<path class="st69" d="M336.5,131.1l1.9-0.1c0.2,0,0.3,0.1,0.3,0.3v3.7c0,0.2-0.1,0.3-0.3,0.3l-1.9,0.1c-0.2,0-0.3-0.1-0.3-0.3
							v-3.7C336.1,131.3,336.3,131.1,336.5,131.1z"/>
						<path class="st70" d="M336.5,131.4l1.9-0.1c0.2,0,0.3,0.1,0.3,0.3v3.4c0,0.2-0.1,0.3-0.3,0.3l-1.9,0.1c-0.2,0-0.3-0.1-0.3-0.3
							v-3.4C336.2,131.5,336.3,131.4,336.5,131.4z"/>
						<path class="st71" d="M336.5,131.6l1.8-0.1c0.2,0,0.3,0.1,0.3,0.3v3.1c0,0.2-0.1,0.3-0.3,0.3l-1.8,0.1c-0.2,0-0.3-0.1-0.3-0.3
							v-3.1C336.2,131.7,336.3,131.6,336.5,131.6z"/>
						<path class="st72" d="M336.5,131.8l1.8-0.1c0.2,0,0.3,0.1,0.3,0.3v2.7c0,0.2-0.1,0.3-0.3,0.3l-1.8,0.1c-0.2,0-0.3-0.1-0.3-0.3
							v-2.7C336.2,132,336.3,131.8,336.5,131.8z"/>
						<path class="st73" d="M336.5,132.1l1.8-0.1c0.1,0,0.3,0.1,0.3,0.3v2.4c0,0.2-0.1,0.3-0.3,0.3l-1.8,0.1c-0.1,0-0.3-0.1-0.3-0.3
							v-2.4C336.2,132.2,336.3,132.1,336.5,132.1z"/>
						<path class="st74" d="M336.5,132.3l1.8-0.1c0.1,0,0.3,0.1,0.3,0.3v2.1c0,0.1-0.1,0.3-0.3,0.3l-1.8,0.1c-0.1,0-0.3-0.1-0.3-0.3
							v-2.1C336.2,132.4,336.4,132.3,336.5,132.3z"/>
						<path class="st8" d="M336.5,132.5l1.8-0.1c0.1,0,0.2,0.1,0.2,0.2v1.8c0,0.1-0.1,0.3-0.2,0.3l-1.8,0.1c-0.1,0-0.2-0.1-0.2-0.2
							v-1.8C336.3,132.6,336.4,132.5,336.5,132.5z"/>
						<path class="st75" d="M336.5,132.7l1.7-0.1c0.1,0,0.2,0.1,0.2,0.2v1.4c0,0.1-0.1,0.3-0.2,0.3l-1.7,0.1c-0.1,0-0.2-0.1-0.2-0.2
							V133C336.3,132.9,336.4,132.7,336.5,132.7z"/>
						<path class="st76" d="M336.5,133l1.7-0.1c0.1,0,0.2,0.1,0.2,0.2v1.1c0,0.1-0.1,0.2-0.2,0.2l-1.7,0.1c-0.1,0-0.2-0.1-0.2-0.2
							v-1.1C336.3,133.1,336.4,133,336.5,133z"/>
						<path class="st77" d="M336.5,133.2l1.7-0.1c0.1,0,0.2,0.1,0.2,0.2v0.8c0,0.1-0.1,0.2-0.2,0.2l-1.7,0.1c-0.1,0-0.2-0.1-0.2-0.2
							v-0.8C336.3,133.3,336.4,133.2,336.5,133.2z"/>
						<path id="XMLID_7_" class="st61" d="M336.5,133.4l1.7-0.1c0.1,0,0.2,0.1,0.2,0.2v0.5c0,0.1-0.1,0.2-0.2,0.2l-1.7,0.1
							c-0.1,0-0.2-0.1-0.2-0.2v-0.5C336.3,133.5,336.4,133.4,336.5,133.4z"/>
					</g>
				</g>
				<g id="XMLID_415_">
					<g id="XMLID_442_">
						<path id="XMLID_463_" class="st60" d="M375.2,130.6c0,3.3-2.5,6.6-5.9,7.4c-0.6,0.2-1.2,0.3-1.9,0.3c-0.6,0-1.3,0-1.9-0.1
							c-3.4-0.6-5.9-3.7-5.9-7c0-3.3,2.5-6.2,5.9-7c0.6-0.2,1.2-0.3,1.9-0.3c0.6,0,1.3,0,1.9,0.1
							C372.7,124.6,375.2,127.3,375.2,130.6z"/>
						<path id="XMLID_462_" class="st78" d="M375.2,129.8c0,3.3-2.5,6.6-5.9,7.5c-0.6,0.2-1.2,0.3-1.9,0.3c-0.6,0-1.3,0-1.9-0.1
							c-3.4-0.6-5.9-3.7-5.9-7c0-3.3,2.5-6.2,5.9-7c0.6-0.2,1.2-0.2,1.9-0.3c0.6,0,1.3,0,1.9,0.1
							C372.7,123.9,375.2,126.5,375.2,129.8z"/>
						<path id="XMLID_461_" class="st79" d="M375.2,129.3c0,3.3-2.5,6.4-5.9,7.3c-0.6,0.2-1.2,0.3-1.9,0.3c-0.6,0-1.3,0-1.9-0.1
							c-3.4-0.6-5.9-3.6-5.9-6.9c0-3.3,2.5-6.2,5.9-7c0.6-0.2,1.2-0.2,1.9-0.3c0.6,0,1.3,0,1.9,0.1
							C372.7,123.3,375.2,126,375.2,129.3z"/>
						<path id="XMLID_456_" class="st59" d="M366.4,121.5c-3.7,0.1-6.8,3.4-6.8,7.3c0,3.9,3.3,6.6,7.5,7c3.7,0.3,6.7-5.3,6.7-9.2
							C373.8,122.7,370.1,121.3,366.4,121.5z M367.9,134.8c-0.5,0.1-1,0.2-1.5,0.3c-0.5,0,1-13.1,1.5-13c2.7,0.6,4.8,3.1,4.8,6.2
							C372.7,131.3,370.7,134,367.9,134.8z"/>
						<path id="XMLID_453_" class="st60" d="M366.7,121.5c-3.7,0.1-6.8,3.4-6.8,7.3c0,3.9,3.3,6.6,7.5,7c3.7,0.3,6.7-5.3,6.7-9.2
							C374.1,122.7,370.5,121.3,366.7,121.5z M368.2,134.8c-0.5,0.1-1,0.2-1.5,0.3c-0.5,0,1-13.1,1.5-13c2.7,0.6,4.8,3.1,4.8,6.2
							C373,131.3,371,134,368.2,134.8z"/>
						<path id="XMLID_452_" class="st61" d="M374.7,128.5c0,3.1-2,5.8-4.8,6.6c-0.5,0.1-1,0.2-1.5,0.3c-0.5,0-1,0-1.5-0.1
							c-2.8-0.6-4.8-3.1-4.8-6.2c0-3.1,2-5.8,4.8-6.6c0.5-0.1,1-0.2,1.5-0.3c0.5,0,1,0,1.5,0.1C372.6,122.9,374.7,125.4,374.7,128.5
							z"/>
						<path id="XMLID_451_" class="st62" d="M370.2,122.3V135c-0.6,0.2-1.2,0.2-1.9,0.3c-0.6,0-1.3,0-1.9-0.1v-12.8
							c0.6-0.2,1.2-0.2,1.9-0.3C369,122.1,369.7,122.2,370.2,122.3z"/>
						<path id="XMLID_450_" class="st0" d="M369.9,122.3V135c-0.5,0.2-1,0.2-1.5,0.3c-0.5,0-1,0-1.5-0.1v-12.8
							c0.5-0.2,1-0.2,1.5-0.3C368.9,122.1,369.4,122.2,369.9,122.3z"/>
						<g id="XMLID_446_">
							<polygon id="XMLID_449_" class="st41" points="368.9,120.6 367.8,120.6 367.8,117.7 368.9,117.7 							"/>
							<polygon id="XMLID_448_" class="st41" points="375,128.9 375,127.8 377.7,127.7 377.7,128.8 							"/>
							<polygon id="XMLID_447_" class="st41" points="356,129.7 356,128.6 358.8,128.5 358.8,129.6 							"/>
						</g>
						<path id="XMLID_443_" class="st59" d="M368.4,121.7c-3.7,0.1-6.8,3.4-6.8,7.3c0,3.9,3,6.9,6.8,6.8c3.7-0.2,6.8-3.4,6.8-7.3
							C375.1,124.6,372.1,121.5,368.4,121.7z M369.9,135c-0.5,0.1-1,0.2-1.5,0.3c-0.5,0-1,0-1.5-0.1c-2.8-0.6-4.8-3.1-4.8-6.2
							c0-3.1,2-5.8,4.8-6.6c0.5-0.1,1-0.2,1.5-0.3c0.5,0,1,0,1.5,0.1c2.7,0.6,4.8,3.1,4.8,6.2C374.7,131.5,372.6,134.2,369.9,135z"
							/>
					</g>
					<g id="XMLID_438_">
						<path id="XMLID_441_" class="st41" d="M370,113.7c0,0.9-0.7,1.7-1.6,1.7c-0.9,0-1.6-0.7-1.6-1.6c0-0.9,0.7-1.7,1.6-1.7
							C369.2,112,370,112.8,370,113.7z"/>
						<path id="XMLID_440_" class="st63" d="M369.8,113.7c0,0.8-0.6,1.5-1.4,1.5c-0.8,0-1.4-0.6-1.4-1.4c0-0.8,0.6-1.5,1.4-1.5
							C369.1,112.3,369.8,112.9,369.8,113.7z"/>
						<path id="XMLID_439_" class="st64" d="M369.3,113c0,0.3-0.4,0.6-0.9,0.6c-0.5,0-0.9-0.2-0.9-0.5c0-0.3,0.4-0.6,0.9-0.6
							C368.9,112.5,369.3,112.7,369.3,113z"/>
					</g>
					<g id="XMLID_416_">
						<path id="XMLID_6_" class="st0" d="M367.4,128.4l2-0.1c0.2,0,0.4,0.2,0.4,0.4v5.6c0,0.2-0.2,0.4-0.4,0.4l-2,0.1
							c-0.2,0-0.4-0.2-0.4-0.4v-5.7C367,128.6,367.2,128.4,367.4,128.4z"/>
						<path class="st65" d="M367.4,128.6l2-0.1c0.2,0,0.4,0.1,0.4,0.3v5.3c0,0.2-0.2,0.4-0.4,0.4l-2,0.1c-0.2,0-0.4-0.1-0.4-0.3V129
							C367,128.8,367.2,128.6,367.4,128.6z"/>
						<path class="st66" d="M367.4,128.8l2-0.1c0.2,0,0.3,0.1,0.3,0.3v5c0,0.2-0.2,0.4-0.3,0.4l-2,0.1c-0.2,0-0.3-0.1-0.3-0.3v-5
							C367.1,129,367.2,128.8,367.4,128.8z"/>
						<path class="st67" d="M367.4,129.1l1.9-0.1c0.2,0,0.3,0.1,0.3,0.3v4.7c0,0.2-0.1,0.4-0.3,0.4l-1.9,0.1c-0.2,0-0.3-0.1-0.3-0.3
							v-4.7C367.1,129.2,367.2,129.1,367.4,129.1z"/>
						<path class="st25" d="M367.4,129.3l1.9-0.1c0.2,0,0.3,0.1,0.3,0.3v4.4c0,0.2-0.1,0.3-0.3,0.3l-1.9,0.1c-0.2,0-0.3-0.1-0.3-0.3
							v-4.4C367.1,129.5,367.2,129.3,367.4,129.3z"/>
						<path class="st68" d="M367.4,129.5l1.9-0.1c0.2,0,0.3,0.1,0.3,0.3v4c0,0.2-0.1,0.3-0.3,0.3l-1.9,0.1c-0.2,0-0.3-0.1-0.3-0.3
							v-4C367.1,129.7,367.3,129.5,367.4,129.5z"/>
						<path class="st69" d="M367.4,129.7l1.9-0.1c0.2,0,0.3,0.1,0.3,0.3v3.7c0,0.2-0.1,0.3-0.3,0.3l-1.9,0.1c-0.2,0-0.3-0.1-0.3-0.3
							v-3.7C367.1,129.9,367.3,129.8,367.4,129.7z"/>
						<path class="st70" d="M367.4,130l1.9-0.1c0.2,0,0.3,0.1,0.3,0.3v3.4c0,0.2-0.1,0.3-0.3,0.3l-1.9,0.1c-0.2,0-0.3-0.1-0.3-0.3
							v-3.4C367.2,130.1,367.3,130,367.4,130z"/>
						<path class="st71" d="M367.5,130.2l1.8-0.1c0.2,0,0.3,0.1,0.3,0.3v3.1c0,0.2-0.1,0.3-0.3,0.3l-1.8,0.1c-0.2,0-0.3-0.1-0.3-0.3
							v-3.1C367.2,130.3,367.3,130.2,367.5,130.2z"/>
						<path class="st72" d="M367.5,130.4l1.8-0.1c0.2,0,0.3,0.1,0.3,0.3v2.7c0,0.2-0.1,0.3-0.3,0.3l-1.8,0.1c-0.2,0-0.3-0.1-0.3-0.3
							v-2.7C367.2,130.6,367.3,130.4,367.5,130.4z"/>
						<path class="st73" d="M367.5,130.7l1.8-0.1c0.1,0,0.3,0.1,0.3,0.3v2.4c0,0.2-0.1,0.3-0.3,0.3l-1.8,0.1c-0.1,0-0.3-0.1-0.3-0.3
							V131C367.2,130.8,367.3,130.7,367.5,130.7z"/>
						<path class="st74" d="M367.5,130.9l1.8-0.1c0.1,0,0.3,0.1,0.3,0.3v2.1c0,0.1-0.1,0.3-0.3,0.3l-1.8,0.1c-0.1,0-0.3-0.1-0.3-0.3
							v-2.1C367.2,131,367.3,130.9,367.5,130.9z"/>
						<path class="st8" d="M367.5,131.1l1.8-0.1c0.1,0,0.2,0.1,0.2,0.2v1.8c0,0.1-0.1,0.3-0.2,0.3l-1.8,0.1c-0.1,0-0.2-0.1-0.2-0.2
							v-1.8C367.2,131.2,367.4,131.1,367.5,131.1z"/>
						<path class="st75" d="M367.5,131.3l1.7-0.1c0.1,0,0.2,0.1,0.2,0.2v1.4c0,0.1-0.1,0.3-0.2,0.3l-1.7,0.1c-0.1,0-0.2-0.1-0.2-0.2
							v-1.4C367.3,131.5,367.4,131.4,367.5,131.3z"/>
						<path class="st76" d="M367.5,131.6l1.7-0.1c0.1,0,0.2,0.1,0.2,0.2v1.1c0,0.1-0.1,0.2-0.2,0.2l-1.7,0.1c-0.1,0-0.2-0.1-0.2-0.2
							v-1.1C367.3,131.7,367.4,131.6,367.5,131.6z"/>
						<path class="st77" d="M367.5,131.8l1.7-0.1c0.1,0,0.2,0.1,0.2,0.2v0.8c0,0.1-0.1,0.2-0.2,0.2l-1.7,0.1c-0.1,0-0.2-0.1-0.2-0.2
							V132C367.3,131.9,367.4,131.8,367.5,131.8z"/>
						<path id="XMLID_5_" class="st61" d="M367.5,132l1.7-0.1c0.1,0,0.2,0.1,0.2,0.2v0.5c0,0.1-0.1,0.2-0.2,0.2l-1.7,0.1
							c-0.1,0-0.2-0.1-0.2-0.2v-0.5C367.3,132.1,367.4,132,367.5,132z"/>
					</g>
				</g>
				<g id="XMLID_464_">
					<g id="XMLID_518_">
						<path id="XMLID_537_" class="st60" d="M444.3,128c0,3.3-2.5,6.6-5.9,7.4c-0.6,0.2-1.2,0.3-1.9,0.3c-0.6,0-1.3,0-1.9-0.1
							c-3.4-0.6-5.9-3.7-5.9-7c0-3.3,2.5-6.2,5.9-7c0.6-0.2,1.2-0.3,1.9-0.3c0.6,0,1.3,0,1.9,0.1C441.8,122,444.3,124.7,444.3,128z"
							/>
						<path id="XMLID_536_" class="st78" d="M444.3,127.2c0,3.3-2.5,6.6-5.9,7.5c-0.6,0.2-1.2,0.3-1.9,0.3c-0.6,0-1.3,0-1.9-0.1
							c-3.4-0.6-5.9-3.7-5.9-7c0-3.3,2.5-6.2,5.9-7c0.6-0.2,1.2-0.2,1.9-0.3c0.6,0,1.3,0,1.9,0.1
							C441.8,121.3,444.3,123.9,444.3,127.2z"/>
						<path id="XMLID_535_" class="st79" d="M444.3,126.6c0,3.3-2.5,6.4-5.9,7.3c-0.6,0.2-1.2,0.3-1.9,0.3c-0.6,0-1.3,0-1.9-0.1
							c-3.4-0.6-5.9-3.6-5.9-6.9c0-3.3,2.5-6.2,5.9-7c0.6-0.2,1.2-0.2,1.9-0.3c0.6,0,1.3,0,1.9,0.1
							C441.8,120.7,444.3,123.4,444.3,126.6z"/>
						<path id="XMLID_532_" class="st59" d="M435.4,118.8c-3.7,0.1-6.8,3.4-6.8,7.3c0,3.9,3.3,6.6,7.5,7c3.7,0.3,6.7-5.3,6.7-9.2
							C442.8,120.1,439.2,118.7,435.4,118.8z M437,132.2c-0.5,0.1-1,0.2-1.5,0.3c-0.5,0,1-13.1,1.5-13c2.7,0.6,4.8,3.1,4.8,6.2
							C441.8,128.7,439.7,131.3,437,132.2z"/>
						<path id="XMLID_529_" class="st60" d="M435.8,118.8c-3.7,0.1-6.8,3.4-6.8,7.3c0,3.9,3.3,6.6,7.5,7c3.7,0.3,6.7-5.3,6.7-9.2
							C443.1,120.1,439.5,118.7,435.8,118.8z M437.3,132.2c-0.5,0.1-1,0.2-1.5,0.3c-0.5,0,1-13.1,1.5-13c2.7,0.6,4.8,3.1,4.8,6.2
							C442.1,128.7,440,131.3,437.3,132.2z"/>
						<path id="XMLID_528_" class="st61" d="M443.7,125.8c0,3.1-2,5.8-4.8,6.6c-0.5,0.1-1,0.2-1.5,0.3c-0.5,0-1,0-1.5-0.1
							c-2.8-0.6-4.8-3.1-4.8-6.2c0-3.1,2-5.8,4.8-6.6c0.5-0.1,1-0.2,1.5-0.3c0.5,0,1,0,1.5,0.1C441.7,120.2,443.7,122.7,443.7,125.8
							z"/>
						<path id="XMLID_527_" class="st62" d="M439.3,119.6v12.8c-0.6,0.2-1.2,0.2-1.9,0.3c-0.6,0-1.3,0-1.9-0.1v-12.8
							c0.6-0.2,1.2-0.2,1.9-0.3C438.1,119.5,438.7,119.5,439.3,119.6z"/>
						<path id="XMLID_526_" class="st0" d="M438.9,119.6v12.8c-0.5,0.2-1,0.2-1.5,0.3c-0.5,0-1,0-1.5-0.1v-12.8
							c0.5-0.2,1-0.2,1.5-0.3C437.9,119.5,438.5,119.5,438.9,119.6z"/>
						<g id="XMLID_522_">
							<polygon id="XMLID_525_" class="st41" points="438,117.9 436.9,118 436.9,115.1 438,115 							"/>
							<polygon id="XMLID_524_" class="st41" points="444,126.3 444,125.2 446.8,125.1 446.8,126.2 							"/>
							<polygon id="XMLID_523_" class="st41" points="425,127.1 425,126 427.8,125.9 427.8,127 							"/>
						</g>
						<path id="XMLID_519_" class="st59" d="M437.4,119c-3.7,0.1-6.8,3.4-6.8,7.3c0,3.9,3,6.9,6.8,6.8c3.7-0.2,6.8-3.4,6.8-7.3
							C444.2,121.9,441.2,118.9,437.4,119z M438.9,132.4c-0.5,0.1-1,0.2-1.5,0.3c-0.5,0-1,0-1.5-0.1c-2.8-0.6-4.8-3.1-4.8-6.2
							c0-3.1,2-5.8,4.8-6.6c0.5-0.1,1-0.2,1.5-0.3c0.5,0,1,0,1.5,0.1c2.7,0.6,4.8,3.1,4.8,6.2C443.7,128.9,441.7,131.6,438.9,132.4z
							"/>
					</g>
					<g id="XMLID_508_">
						<path id="XMLID_517_" class="st41" d="M439,111c0,0.9-0.7,1.7-1.6,1.7c-0.9,0-1.6-0.7-1.6-1.6c0-0.9,0.7-1.7,1.6-1.7
							C438.3,109.4,439,110.1,439,111z"/>
						<path id="XMLID_510_" class="st63" d="M438.8,111c0,0.8-0.6,1.5-1.4,1.5c-0.8,0-1.4-0.6-1.4-1.4c0-0.8,0.6-1.5,1.4-1.5
							C438.2,109.6,438.8,110.2,438.8,111z"/>
						<path id="XMLID_509_" class="st64" d="M438.3,110.4c0,0.3-0.4,0.6-0.9,0.6c-0.5,0-0.9-0.2-0.9-0.5s0.4-0.6,0.9-0.6
							C437.9,109.8,438.3,110.1,438.3,110.4z"/>
					</g>
					<g id="XMLID_465_">
						<path id="XMLID_4_" class="st0" d="M436.4,125.7l2-0.1c0.2,0,0.4,0.2,0.4,0.4v5.6c0,0.2-0.2,0.4-0.4,0.4l-2,0.1
							c-0.2,0-0.4-0.2-0.4-0.4v-5.7C436.1,125.9,436.2,125.7,436.4,125.7z"/>
						<path class="st65" d="M436.4,126l2-0.1c0.2,0,0.4,0.1,0.4,0.4v5.3c0,0.2-0.2,0.4-0.4,0.4l-2,0.1c-0.2,0-0.4-0.1-0.4-0.3v-5.3
							C436.1,126.1,436.2,126,436.4,126z"/>
						<path class="st66" d="M436.4,126.2l2-0.1c0.2,0,0.3,0.1,0.3,0.3v5c0,0.2-0.2,0.4-0.3,0.4l-2,0.1c-0.2,0-0.3-0.1-0.3-0.3v-5
							C436.1,126.4,436.3,126.2,436.4,126.2z"/>
						<path class="st67" d="M436.5,126.4l1.9-0.1c0.2,0,0.3,0.1,0.3,0.3v4.7c0,0.2-0.1,0.4-0.3,0.4l-1.9,0.1c-0.2,0-0.3-0.1-0.3-0.3
							v-4.7C436.1,126.6,436.3,126.4,436.5,126.4z"/>
						<path class="st25" d="M436.5,126.7l1.9-0.1c0.2,0,0.3,0.1,0.3,0.3v4.4c0,0.2-0.1,0.3-0.3,0.3l-1.9,0.1c-0.2,0-0.3-0.1-0.3-0.3
							V127C436.1,126.8,436.3,126.7,436.5,126.7z"/>
						<path class="st68" d="M436.5,126.9l1.9-0.1c0.2,0,0.3,0.1,0.3,0.3v4c0,0.2-0.1,0.3-0.3,0.3l-1.9,0.1c-0.2,0-0.3-0.1-0.3-0.3
							v-4C436.2,127,436.3,126.9,436.5,126.9z"/>
						<path class="st69" d="M436.5,127.1l1.9-0.1c0.2,0,0.3,0.1,0.3,0.3v3.7c0,0.2-0.1,0.3-0.3,0.3l-1.9,0.1c-0.2,0-0.3-0.1-0.3-0.3
							v-3.7C436.2,127.3,436.3,127.1,436.5,127.1z"/>
						<path class="st70" d="M436.5,127.3l1.9-0.1c0.2,0,0.3,0.1,0.3,0.3v3.4c0,0.2-0.1,0.3-0.3,0.3l-1.9,0.1c-0.2,0-0.3-0.1-0.3-0.3
							v-3.4C436.2,127.5,436.3,127.3,436.5,127.3z"/>
						<path class="st71" d="M436.5,127.6l1.8-0.1c0.2,0,0.3,0.1,0.3,0.3v3.1c0,0.2-0.1,0.3-0.3,0.3l-1.8,0.1c-0.2,0-0.3-0.1-0.3-0.3
							v-3.1C436.2,127.7,436.3,127.6,436.5,127.6z"/>
						<path class="st72" d="M436.5,127.8l1.8-0.1c0.2,0,0.3,0.1,0.3,0.3v2.7c0,0.2-0.1,0.3-0.3,0.3l-1.8,0.1c-0.2,0-0.3-0.1-0.3-0.3
							v-2.7C436.2,127.9,436.4,127.8,436.5,127.8z"/>
						<path class="st73" d="M436.5,128l1.8-0.1c0.1,0,0.3,0.1,0.3,0.3v2.4c0,0.2-0.1,0.3-0.3,0.3l-1.8,0.1c-0.1,0-0.3-0.1-0.3-0.3
							v-2.4C436.3,128.2,436.4,128,436.5,128z"/>
						<path class="st74" d="M436.5,128.3l1.8-0.1c0.1,0,0.3,0.1,0.3,0.3v2.1c0,0.1-0.1,0.3-0.3,0.3l-1.8,0.1c-0.1,0-0.3-0.1-0.3-0.3
							v-2.1C436.3,128.4,436.4,128.3,436.5,128.3z"/>
						<path class="st8" d="M436.5,128.5l1.8-0.1c0.1,0,0.2,0.1,0.2,0.2v1.8c0,0.1-0.1,0.3-0.2,0.3l-1.8,0.1c-0.1,0-0.2-0.1-0.2-0.2
							v-1.8C436.3,128.6,436.4,128.5,436.5,128.5z"/>
						<path class="st75" d="M436.6,128.7l1.7-0.1c0.1,0,0.2,0.1,0.2,0.2v1.4c0,0.1-0.1,0.3-0.2,0.3l-1.7,0.1c-0.1,0-0.2-0.1-0.2-0.2
							V129C436.3,128.8,436.4,128.7,436.6,128.7z"/>
						<path class="st76" d="M436.6,128.9l1.7-0.1c0.1,0,0.2,0.1,0.2,0.2v1.1c0,0.1-0.1,0.2-0.2,0.2l-1.7,0.1c-0.1,0-0.2-0.1-0.2-0.2
							v-1.1C436.3,129.1,436.4,128.9,436.6,128.9z"/>
						<path class="st77" d="M436.6,129.2l1.7-0.1c0.1,0,0.2,0.1,0.2,0.2v0.8c0,0.1-0.1,0.2-0.2,0.2l-1.7,0.1c-0.1,0-0.2-0.1-0.2-0.2
							v-0.8C436.4,129.3,436.4,129.2,436.6,129.2z"/>
						<path id="XMLID_3_" class="st61" d="M436.6,129.4l1.7-0.1c0.1,0,0.2,0.1,0.2,0.2v0.5c0,0.1-0.1,0.2-0.2,0.2l-1.7,0.1
							c-0.1,0-0.2-0.1-0.2-0.2v-0.5C436.4,129.5,436.5,129.4,436.6,129.4z"/>
					</g>
				</g>
				<g id="XMLID_538_">
					<g id="XMLID_565_">
						<path id="XMLID_592_" class="st56" d="M472.1,126.6c0,3.3-2.5,6.6-5.9,7.4c-0.6,0.2-1.2,0.3-1.9,0.3c-0.6,0-1.3,0-1.9-0.1
							c-3.4-0.6-5.9-3.7-5.9-7c0-3.3,2.5-6.2,5.9-7c0.6-0.2,1.2-0.3,1.9-0.3c0.6,0,1.3,0,1.9,0.1
							C469.6,120.7,472.1,123.3,472.1,126.6z"/>
						<path id="XMLID_591_" class="st57" d="M472.1,125.9c0,3.3-2.5,6.6-5.9,7.5c-0.6,0.2-1.2,0.3-1.9,0.3c-0.6,0-1.3,0-1.9-0.1
							c-3.4-0.6-5.9-3.7-5.9-7c0-3.3,2.5-6.2,5.9-7c0.6-0.2,1.2-0.2,1.9-0.3c0.6,0,1.3,0,1.9,0.1
							C469.6,119.9,472.1,122.6,472.1,125.9z"/>
						<path id="XMLID_589_" class="st58" d="M472.1,125.3c0,3.3-2.5,6.4-5.9,7.3c-0.6,0.2-1.2,0.3-1.9,0.3c-0.6,0-1.3,0-1.9-0.1
							c-3.4-0.6-5.9-3.6-5.9-6.9c0-3.3,2.5-6.2,5.9-7c0.6-0.2,1.2-0.2,1.9-0.3c0.6,0,1.3,0,1.9,0.1
							C469.6,119.4,472.1,122,472.1,125.3z"/>
						<path id="XMLID_586_" class="st59" d="M463.3,117.5c-3.7,0.1-6.8,3.4-6.8,7.3c0,3.9,3.3,6.6,7.5,7c3.7,0.3,6.7-5.3,6.7-9.2
							C470.6,118.7,467,117.3,463.3,117.5z M464.8,130.8c-0.5,0.1-1,0.2-1.5,0.3c-0.5,0,1-13.1,1.5-13c2.7,0.6,4.8,3.1,4.8,6.2
							C469.6,127.3,467.6,130,464.8,130.8z"/>
						<path id="XMLID_576_" class="st60" d="M463.6,117.5c-3.7,0.1-6.8,3.4-6.8,7.3c0,3.9,3.3,6.6,7.5,7c3.7,0.3,6.7-5.3,6.7-9.2
							C471,118.7,467.3,117.3,463.6,117.5z M465.1,130.8c-0.5,0.1-1,0.2-1.5,0.3c-0.5,0,1-13.1,1.5-13c2.7,0.6,4.8,3.1,4.8,6.2
							C469.9,127.3,467.9,130,465.1,130.8z"/>
						<path id="XMLID_575_" class="st61" d="M471.6,124.5c0,3.1-2,5.8-4.8,6.6c-0.5,0.1-1,0.2-1.5,0.3c-0.5,0-1,0-1.5-0.1
							c-2.8-0.6-4.8-3.1-4.8-6.2c0-3.1,2-5.8,4.8-6.6c0.5-0.1,1-0.2,1.5-0.3c0.5,0,1,0,1.5,0.1C469.5,118.9,471.6,121.4,471.6,124.5
							z"/>
						<path id="XMLID_574_" class="st62" d="M467.1,118.3V131c-0.6,0.2-1.2,0.2-1.9,0.3c-0.6,0-1.3,0-1.9-0.1v-12.8
							c0.6-0.2,1.2-0.2,1.9-0.3C465.9,118.1,466.5,118.2,467.1,118.3z"/>
						<path id="XMLID_573_" class="st0" d="M466.8,118.3v12.8c-0.5,0.2-1,0.2-1.5,0.3c-0.5,0-1,0-1.5-0.1v-12.8
							c0.5-0.2,1-0.2,1.5-0.3C465.8,118.2,466.3,118.2,466.8,118.3z"/>
						<g id="XMLID_569_">
							<polygon id="XMLID_572_" class="st41" points="465.8,116.6 464.7,116.6 464.7,113.7 465.8,113.7 							"/>
							<polygon id="XMLID_571_" class="st41" points="471.9,125 471.9,123.9 474.6,123.7 474.6,124.8 							"/>
							<polygon id="XMLID_570_" class="st41" points="452.8,125.7 452.8,124.6 455.7,124.5 455.7,125.6 							"/>
						</g>
						<path id="XMLID_566_" class="st59" d="M465.3,117.7c-3.7,0.1-6.8,3.4-6.8,7.3c0,3.9,3,6.9,6.8,6.8c3.7-0.2,6.8-3.4,6.8-7.3
							C472,120.6,469,117.6,465.3,117.7z M466.8,131.1c-0.5,0.1-1,0.2-1.5,0.3c-0.5,0-1,0-1.5-0.1c-2.8-0.6-4.8-3.1-4.8-6.2
							c0-3.1,2-5.8,4.8-6.6c0.5-0.1,1-0.2,1.5-0.3c0.5,0,1,0,1.5,0.1c2.7,0.6,4.8,3.1,4.8,6.2C471.6,127.6,469.5,130.2,466.8,131.1z
							"/>
					</g>
					<g id="XMLID_561_">
						<path id="XMLID_564_" class="st41" d="M466.8,109.7c0,0.9-0.7,1.7-1.6,1.7c-0.9,0-1.6-0.7-1.6-1.6c0-0.9,0.7-1.7,1.6-1.7
							C466.1,108.1,466.8,108.8,466.8,109.7z"/>
						<path id="XMLID_563_" class="st63" d="M466.6,109.7c0,0.8-0.6,1.5-1.4,1.5c-0.8,0-1.4-0.6-1.4-1.4c0-0.8,0.6-1.5,1.4-1.5
							C466,108.3,466.6,108.9,466.6,109.7z"/>
						<path id="XMLID_562_" class="st64" d="M466.2,109c0,0.3-0.4,0.6-0.9,0.6c-0.5,0-0.9-0.2-0.9-0.5s0.4-0.6,0.9-0.6
							C465.8,108.5,466.2,108.7,466.2,109z"/>
					</g>
					<g id="XMLID_539_">
						<path id="XMLID_2_" class="st0" d="M464.3,124.4l2-0.1c0.2,0,0.4,0.2,0.4,0.4v5.6c0,0.2-0.2,0.4-0.4,0.4l-2,0.1
							c-0.2,0-0.4-0.2-0.4-0.4v-5.7C463.9,124.6,464.1,124.4,464.3,124.4z"/>
						<path class="st65" d="M464.3,124.6l2-0.1c0.2,0,0.4,0.1,0.4,0.3v5.3c0,0.2-0.2,0.4-0.4,0.4l-2,0.1c-0.2,0-0.4-0.1-0.4-0.3V125
							C463.9,124.8,464.1,124.6,464.3,124.6z"/>
						<path class="st66" d="M464.3,124.9l2-0.1c0.2,0,0.3,0.1,0.3,0.3v5c0,0.2-0.2,0.4-0.3,0.4l-2,0.1c-0.2,0-0.3-0.1-0.3-0.3v-5
							C464,125,464.1,124.9,464.3,124.9z"/>
						<path class="st67" d="M464.3,125.1l1.9-0.1c0.2,0,0.3,0.1,0.3,0.3v4.7c0,0.2-0.1,0.4-0.3,0.4l-1.9,0.1c-0.2,0-0.3-0.1-0.3-0.3
							v-4.7C464,125.3,464.1,125.1,464.3,125.1z"/>
						<path class="st25" d="M464.3,125.3l1.9-0.1c0.2,0,0.3,0.1,0.3,0.3v4.4c0,0.2-0.1,0.3-0.3,0.3l-1.9,0.1c-0.2,0-0.3-0.1-0.3-0.3
							v-4.4C464,125.5,464.1,125.3,464.3,125.3z"/>
						<path class="st68" d="M464.3,125.6l1.9-0.1c0.2,0,0.3,0.1,0.3,0.3v4c0,0.2-0.1,0.3-0.3,0.3l-1.9,0.1c-0.2,0-0.3-0.1-0.3-0.3
							v-4C464,125.7,464.1,125.6,464.3,125.6z"/>
						<path class="st69" d="M464.3,125.8l1.9-0.1c0.2,0,0.3,0.1,0.3,0.3v3.7c0,0.2-0.1,0.3-0.3,0.3l-1.9,0.1c-0.2,0-0.3-0.1-0.3-0.3
							v-3.7C464,125.9,464.2,125.8,464.3,125.8z"/>
						<path class="st70" d="M464.3,126l1.9-0.1c0.2,0,0.3,0.1,0.3,0.3v3.4c0,0.2-0.1,0.3-0.3,0.3l-1.9,0.1c-0.2,0-0.3-0.1-0.3-0.3
							v-3.4C464,126.2,464.2,126,464.3,126z"/>
						<path class="st71" d="M464.4,126.2l1.8-0.1c0.2,0,0.3,0.1,0.3,0.3v3.1c0,0.2-0.1,0.3-0.3,0.3l-1.8,0.1c-0.2,0-0.3-0.1-0.3-0.3
							v-3.1C464.1,126.4,464.2,126.2,464.4,126.2z"/>
						<path class="st72" d="M464.4,126.5l1.8-0.1c0.2,0,0.3,0.1,0.3,0.3v2.7c0,0.2-0.1,0.3-0.3,0.3l-1.8,0.1c-0.2,0-0.3-0.1-0.3-0.3
							v-2.7C464.1,126.6,464.2,126.5,464.4,126.5z"/>
						<path class="st73" d="M464.4,126.7l1.8-0.1c0.1,0,0.3,0.1,0.3,0.3v2.4c0,0.2-0.1,0.3-0.3,0.3l-1.8,0.1c-0.1,0-0.3-0.1-0.3-0.3
							V127C464.1,126.8,464.2,126.7,464.4,126.7z"/>
						<path class="st74" d="M464.4,126.9l1.8-0.1c0.1,0,0.3,0.1,0.3,0.3v2.1c0,0.1-0.1,0.3-0.3,0.3l-1.8,0.1c-0.1,0-0.3-0.1-0.3-0.3
							v-2.1C464.1,127.1,464.2,126.9,464.4,126.9z"/>
						<path class="st8" d="M464.4,127.2l1.8-0.1c0.1,0,0.2,0.1,0.2,0.2v1.8c0,0.1-0.1,0.3-0.2,0.3l-1.8,0.1c-0.1,0-0.2-0.1-0.2-0.2
							v-1.8C464.1,127.3,464.3,127.2,464.4,127.2z"/>
						<path class="st75" d="M464.4,127.4l1.7-0.1c0.1,0,0.2,0.1,0.2,0.2v1.4c0,0.1-0.1,0.3-0.2,0.3l-1.7,0.1c-0.1,0-0.2-0.1-0.2-0.2
							v-1.4C464.2,127.5,464.3,127.4,464.4,127.4z"/>
						<path class="st76" d="M464.4,127.6l1.7-0.1c0.1,0,0.2,0.1,0.2,0.2v1.1c0,0.1-0.1,0.2-0.2,0.2l-1.7,0.1c-0.1,0-0.2-0.1-0.2-0.2
							v-1.1C464.2,127.7,464.3,127.6,464.4,127.6z"/>
						<path class="st77" d="M464.4,127.8l1.7-0.1c0.1,0,0.2,0.1,0.2,0.2v0.8c0,0.1-0.1,0.2-0.2,0.2l-1.7,0.1c-0.1,0-0.2-0.1-0.2-0.2
							v-0.8C464.2,128,464.3,127.8,464.4,127.8z"/>
						<path id="XMLID_1_" class="st61" d="M464.4,128.1l1.7-0.1c0.1,0,0.2,0.1,0.2,0.2v0.5c0,0.1-0.1,0.2-0.2,0.2l-1.7,0.1
							c-0.1,0-0.2-0.1-0.2-0.2v-0.5C464.2,128.2,464.3,128.1,464.4,128.1z"/>
					</g>
				</g>
			</g>
			<g id="XMLID_580_">
				<path id="XMLID_1621_" class="st80" d="M338.1,125.3c0,0.4-0.3,0.7-0.7,0.7c-0.4,0-0.7-0.3-0.7-0.7s0.3-0.7,0.7-0.7
					C337.8,124.6,338.1,124.9,338.1,125.3z"/>
				<path id="XMLID_581_" class="st80" d="M369,124.1c0,0.4-0.3,0.7-0.7,0.7c-0.4,0-0.7-0.3-0.7-0.7c0-0.4,0.3-0.7,0.7-0.7
					C368.7,123.4,369,123.7,369,124.1z"/>
				<path id="XMLID_582_" class="st80" d="M438.1,121.3c0,0.4-0.3,0.7-0.6,0.7c-0.4,0-0.6-0.3-0.6-0.7s0.3-0.7,0.6-0.7
					C437.8,120.6,438.1,120.9,438.1,121.3z"/>
				<path id="XMLID_583_" class="st80" d="M465.9,120.2c0,0.4-0.3,0.7-0.6,0.7c-0.3,0-0.6-0.3-0.6-0.7c0-0.4,0.3-0.7,0.6-0.7
					C465.6,119.5,465.9,119.8,465.9,120.2z"/>
			</g>
		</g>
	</g>
	<g id="XMLID_2465_">
		<linearGradient id="XMLID_35_" gradientUnits="userSpaceOnUse" x1="264.0733" y1="207.9546" x2="327.1251" y2="211.4331">
			<stop  offset="0.1774" style="stop-color:#565759"/>
			<stop  offset="0.2027" style="stop-color:#5B5C5F"/>
			<stop  offset="0.3679" style="stop-color:#797B7E"/>
			<stop  offset="0.5324" style="stop-color:#8F9194"/>
			<stop  offset="0.694" style="stop-color:#A0A2A4"/>
			<stop  offset="0.8515" style="stop-color:#AAACAE"/>
			<stop  offset="1" style="stop-color:#ADAFB2"/>
		</linearGradient>
		<polygon id="XMLID_385_" class="st81" points="270.5,91.7 320.7,98.2 320.7,327.7 270.5,297.5 		"/>
		<g id="XMLID_191_">
			<polygon id="XMLID_386_" class="st61" points="318.3,326.3 320.7,327.7 320.7,98.2 318.3,97.9 			"/>
			<polygon id="XMLID_190_" class="st61" points="270.5,93 320.7,99.6 320.7,98.2 270.5,91.7 			"/>
		</g>
		<g id="XMLID_188_">
			<polygon id="XMLID_384_" class="st43" points="270.5,91.7 429.8,86.1 480,92.7 320.7,98.2 			"/>
			<g id="XMLID_187_">
				<g id="XMLID_389_">
					<ellipse id="XMLID_387_" class="st82" cx="343.7" cy="93.8" rx="20.8" ry="1.8"/>
					<ellipse id="XMLID_388_" class="st83" cx="343.7" cy="93.8" rx="4.8" ry="0.6"/>
				</g>
				<g id="XMLID_391_">
					<ellipse id="XMLID_393_" class="st82" cx="431.7" cy="90.7" rx="20.8" ry="1.8"/>
					<ellipse id="XMLID_392_" class="st83" cx="431.7" cy="90.7" rx="4.8" ry="0.6"/>
				</g>
			</g>
		</g>
		<linearGradient id="XMLID_36_" gradientUnits="userSpaceOnUse" x1="320.7144" y1="96.1331" x2="480.0113" y2="96.1331">
			<stop  offset="0" style="stop-color:#DCDDDE"/>
			<stop  offset="0.4946" style="stop-color:#FFFFFF"/>
			<stop  offset="0.6504" style="stop-color:#F8F8F8"/>
			<stop  offset="0.8452" style="stop-color:#EAEBEC"/>
			<stop  offset="1" style="stop-color:#DCDDDE"/>
		</linearGradient>
		<polygon id="XMLID_217_" class="st84" points="480,94 320.7,99.6 320.7,98.2 480,92.7 		"/>
	</g>
</g>
</svg>
