<svg xmlns="http://www.w3.org/2000/svg" width="224" height="360" xmlns:xlink="http://www.w3.org/1999/xlink" version="1">
  <defs>
    <linearGradient id="a">
      <stop offset="0" stop-color="#454242"/>
      <stop offset="1" stop-color="#454242" stop-opacity="0"/>
    </linearGradient>
    <filter id="d" width="1.2" height="1.3" x="-.1" y="-.2">
      <feGaussianBlur stdDeviation=".7"/>
    </filter>
    <filter id="f" width="2.7" height="1.4" x="-.8" y="-.2">
      <feGaussianBlur stdDeviation="1.6"/>
    </filter>
    <filter id="h" width="3.4" height="1.8" x="-1.2" y="-.4">
      <feGaussianBlur stdDeviation="2.4"/>
    </filter>
    <filter id="b" width="2.4" height="1.7" x="-.7" y="-.3">
      <feGaussianBlur stdDeviation="2.7"/>
    </filter>
    <filter id="c" width="1.2" height="1.2" x="-.1" y="-.1">
      <feGaussianBlur stdDeviation=".6"/>
    </filter>
    <filter id="g" width="1.2" height="1.5" x="-.1" y="-.3">
      <feGaussianBlur stdDeviation=".4"/>
    </filter>
    <radialGradient id="e" cx="-31" cy="159.8" r="1.7" xlink:href="#a" gradientUnits="userSpaceOnUse" gradientTransform="matrix(2 6.1 -5.7 1.9 1054.2 52.2)" fx="-31" fy="159.8"/>
  </defs>
  <g transform="translate(2.7 -11.3)">
    <rect width="199.2" height="309.1" x="12" y="28.3" stroke="#000" stroke-width="2.2" ry="6" opacity=".5"/>
    <rect width="177.3" height="291.9" x="21.2" y="37.7" stroke="#000" stroke-width="2.2" ry="0" opacity=".5"/>
    <path stroke="#000" stroke-width="1.9" d="M31.41 28.60L31.18 28.82 14.73 28.82 20.70 36.01 22.84 36.01 22.79 36.07 199.17 36.45 207.73 28.99 194.04 28.93 193.76 28.60 89.90 28.71 31.41 28.60zM31.74 338.26L31.52 338.04 16.37 335.90 21.04 330.85 23.18 330.85 23.12 330.80 199.50 330.41 208.06 337.88 194.37 337.93 194.09 338.26 90.23 338.15 31.74 338.26z" opacity=".6"/>
    <path stroke="#000" stroke-width="1.2" d="M 92.28 119.47 A 6.05 6.05 0 1 1 80.17,119.47 A 6.05 6.05 0 1 1 92.28 119.47 z" transform="matrix(1.6 0 0 1.4 -30.5 -65.3)" opacity=".6"/>
    <path stroke="#000" stroke-width="1.2" d="M 92.28 119.47 A 6.05 6.05 0 1 1 80.17,119.47 A 6.05 6.05 0 1 1 92.28 119.47 z" transform="matrix(1.6 0 0 1.4 -31 100.2)" opacity=".6"/>
    <rect width="29.3" height="69.5" x="93.6" y="146.1" fill="#0d0d0d" stroke="#0e0b0b" stroke-width="2.2"/>
    <path fill="#030000" stroke-width="1.2" d="M 90.34,164.04 L 89.62,178.09 L 81.87,178.09 L 81.14,159.68 L 90.34,164.04 z" transform="matrix(1.8 0 0 -1.8 -29.1 503)" opacity=".5" filter="url(#b)"/>
    <rect width="20.5" height="16.7" x="95.4" y="-231.9" fill="#746a6a" stroke="#746a6a" stroke-width="2.2" ry=".4" transform="scale(1 -1)"/>
    <path fill="#ccc" stroke-width="1.2" d="M 95.84,174.03 L 121.61,174.03 L 120.31,167.59 L 98.00,167.16 L 95.84,174.03 z" opacity=".8"/>
    <rect width="13.6" height="10.7" x="70" y="174.7" fill="#746a6a" stroke="#746a6a" stroke-width="1.2" ry=".2" transform="matrix(1.8 0 0 -1.8 -29.1 503)" filter="url(#c)" opacity=".6"/>
    <path fill="#746a6a" stroke="#746a6a" stroke-width="2.2" d="M 115.71,213.68 C 117.42,206.99 118.12,196.83 120.52,194.82 L 97.37,195.25 L 95.62,213.25 L 115.71,213.68 z" opacity=".6"/>
    <path fill="#060000" stroke-width="1.2" d="M 82.83,173.49 L 70.00,173.73 L 69.51,163.31 L 79.93,163.56 L 82.83,173.49 z" transform="matrix(1.8 0 0 -1.8 -29.1 503)" opacity=".6" filter="url(#d)"/>
    <path fill="#746a6a" stroke="#746a6a" stroke-width="2.2" d="M 122.05,195.89 L 115.93,213.04 L 116.80,231.90 L 121.17,216.04 L 122.05,195.89 z" opacity=".6"/>
    <text x="127.8" y="146" fill="#ccc" transform="scale(.8 1.3)" font-size="81.1" font-family="Bitstream Vera Sans">
      <tspan x="126.8" y="144" font-size="10.1">OFF</tspan>
    </text>
    <path fill="url(#e)" stroke-width="1.2" d="M 84.04,173.97 L 80.65,164.28 L 81.14,153.62 L 83.56,162.59 L 84.04,173.97 z" transform="matrix(1.8 0 0 -1.8 -29.1 503)" filter="url(#f)"/>
    <path fill="#746a6a" stroke="#746a6a" stroke-width="1.2" d="M 82.59,186.56 L 82.35,188.99 L 70.96,188.99 L 70.72,186.81 L 82.59,186.56 z" transform="matrix(1.8 0 0 -1.8 -29.1 503)" opacity=".9" filter="url(#g)"/>
    <path fill="#030000" stroke-width="1.2" d="M 87.19,174.70 L 82.35,177.12 L 82.35,162.59 L 87.19,164.77 L 87.19,174.70 z" transform="matrix(1.8 0 0 -1.8 -29.1 503)" opacity=".5" filter="url(#h)"/>
  </g>
</svg>
