<?xml version="1.0" encoding="utf-8"?>
<!-- Generator: Adobe Illustrator 21.0.2, SVG Export Plug-In . SVG Version: 6.00 Build 0)  -->
<svg version="1.1" id="Layer_1" xmlns="http://www.w3.org/2000/svg" xmlns:xlink="http://www.w3.org/1999/xlink" x="0px" y="0px"
	 viewBox="0 0 792 1224" style="enable-background:new 0 0 792 1224;" xml:space="preserve">
<style type="text/css">
	.st0{fill:#FFFFFF;}
	.st1{fill:#F8F8F8;}
	.st2{fill:#F4F3F3;}
	.st3{fill:#F0EFEF;}
	.st4{fill:#ECEBEC;}
	.st5{fill:#E8E8E8;}
	.st6{fill:#E4E4E5;}
	.st7{fill:#E0E0E1;}
	.st8{fill:#DCDDDE;}
	.st9{fill:#D8D9DA;}
	.st10{fill:#D4D6D7;}
	.st11{fill:#D1D2D4;}
	.st12{fill:#E6E7E8;}
	.st13{fill:#A7A9AC;}
	.st14{fill:#BCBEC0;}
	.st15{fill:url(#XMLID_8_);}
	.st16{fill:#ABADB0;}
	.st17{fill:url(#XMLID_9_);}
	.st18{fill:url(#XMLID_10_);}
	.st19{fill:url(#XMLID_11_);}
	.st20{fill:url(#XMLID_12_);}
	.st21{fill:url(#XMLID_13_);}
	.st22{fill:#69696C;}
	.st23{filter:url(#Adobe_OpacityMaskFilter);}
	.st24{filter:url(#Adobe_OpacityMaskFilter_1_);}
	.st25{mask:url(#XMLID_14_);fill:url(#XMLID_15_);}
	.st26{fill:url(#XMLID_16_);}
	.st27{fill:url(#XMLID_17_);}
	.st28{fill:#747578;}
	.st29{fill:#636566;}
	.st30{opacity:0.79;}
	.st31{opacity:0;fill:#FEFFFF;}
	.st32{opacity:9.090909e-02;fill:#FEFFFF;}
	.st33{opacity:0.1818;fill:#FEFFFF;}
	.st34{opacity:0.2727;fill:#FEFFFF;}
	.st35{opacity:0.3636;fill:#FEFFFF;}
	.st36{opacity:0.4545;fill:#FEFFFF;}
	.st37{opacity:0.5455;fill:#FEFFFF;}
	.st38{opacity:0.6364;fill:#FEFFFF;}
	.st39{opacity:0.7273;fill:#FEFFFF;}
	.st40{opacity:0.8182;fill:#FEFFFF;}
	.st41{opacity:0.9091;fill:#FEFFFF;}
	.st42{fill:#FEFFFF;}
	.st43{fill:#7B7A7D;}
	.st44{fill:url(#XMLID_18_);}
	.st45{fill:#6D6E71;}
	.st46{fill:url(#XMLID_19_);}
	.st47{fill:url(#XMLID_20_);}
	.st48{fill:url(#XMLID_21_);}
	.st49{fill:url(#XMLID_22_);}
	.st50{fill:url(#XMLID_23_);}
	.st51{fill:url(#XMLID_24_);}
	.st52{fill:#008BC0;}
	.st53{fill:#00AEEF;}
	.st54{fill:#D1D3D4;}
	.st55{fill:#F1F2F2;}
	.st56{fill:#939598;}
	.st57{fill:#C8CACE;}
	.st58{fill:#808285;}
	.st59{fill:#E1E2E3;}
	.st60{fill:#F6F7F8;}
	.st61{fill:#9D9FA2;}
	.st62{fill:#EEEFEF;}
	.st63{fill:#EBECED;}
	.st64{fill:#E8E9EA;}
	.st65{fill:#E5E6E7;}
	.st66{fill:#E2E3E4;}
	.st67{fill:#E0E1E2;}
	.st68{fill:#DDDEDF;}
	.st69{fill:#DADBDC;}
	.st70{fill:#D7D8DA;}
	.st71{fill:#D4D5D7;}
	.st72{fill:#82D4F7;}
	.st73{fill:#80939B;}
	.st74{fill:#ACC6D1;}
	.st75{fill:#F2F2F2;}
	.st76{fill:#969FA8;}
	.st77{fill:#636466;}
	.st78{fill:#49484A;}
	.st79{fill:#595A5C;}
	.st80{fill:#EDAE46;}
	.st81{fill:#B2B5B8;}
	.st82{fill:#DFE0E0;}
	.st83{fill:url(#XMLID_25_);}
</style>
<g id="washing_machine">
	<g id="XMLID_3087_">
		<path id="XMLID_6_" class="st0" d="M433.7,365.5l-107.2-15c-2.8-0.4,18.5-58.5,21.1-58.2l147.6,21.8c2.6,0.3,6.1,1.6,7.5,4.4
			C502.6,318.6,436.5,365.8,433.7,365.5z"/>
		<path class="st1" d="M347.3,292.4l146.8,21.9c2.6,0.3,6,1.8,7.1,4.7c0,0-64.9,46.1-67.7,45.7l-106.5-14.7c-1.2-0.2,0.7-9.6,4-19.3
			C336.4,314.9,345.7,292.1,347.3,292.4z"/>
		<path class="st2" d="M347.1,292.4l146.1,22c2.6,0.3,5.8,2.1,6.8,4.9c0,0-63.7,44.9-66.6,44.5l-105.8-14.5
			c-1.4-0.2-0.1-10.4,2.9-19.1C335.5,315.8,345.4,292.1,347.1,292.4z"/>
		<path class="st3" d="M347,292.4l145.4,22.1c2.6,0.3,5.7,2.3,6.5,5.2c0,0-62.6,43.7-65.4,43.3l-105.1-14.2
			c-1.6-0.2-0.8-11.2,1.8-18.9C334.5,316.7,345,292.1,347,292.4z"/>
		<path class="st4" d="M346.8,292.4l144.7,22.2c2.7,0.3,5.5,2.6,6.2,5.4c0,0-61.4,42.5-64.2,42.1l-104.4-14
			c-1.7-0.2-1.5-11.9,0.7-18.7C333.6,317.5,344.7,292.1,346.8,292.4z"/>
		<path class="st5" d="M346.6,292.4l143.9,22.2c2.7,0.3,5.3,2.8,5.9,5.7c0,0-60.2,41.3-63.1,40.9l-103.7-13.8
			c-1.9-0.2-2.3-12.7-0.4-18.5C332.7,318.4,344.4,292.1,346.6,292.4z"/>
		<path class="st6" d="M346.4,292.4l143.2,22.3c2.7,0.3,5.2,3.1,5.6,5.9c0,0-59.1,40.1-61.9,39.8l-103-13.5c-2-0.3-3-13.5-1.5-18.3
			C331.8,319.3,344.1,292.1,346.4,292.4z"/>
		<path class="st7" d="M346.2,292.4l142.5,22.4c2.7,0.3,5,3.4,5.3,6.2c0,0-57.9,38.9-60.7,38.6l-102.3-13.3
			c-2.2-0.3-3.8-14.3-2.5-18.2C330.8,320.1,343.8,292.1,346.2,292.4z"/>
		<path class="st8" d="M346,292.4l141.8,22.5c2.7,0.3,4.8,3.6,4.9,6.4c0,0-56.8,37.7-59.6,37.4l-101.6-13.1c-2.3-0.3-4.5-15-3.6-18
			C329.9,321,343.5,292,346,292.4z"/>
		<path class="st9" d="M345.8,292.4l141,22.6c2.8,0.3,4.7,3.9,4.6,6.7c0,0-55.6,36.5-58.4,36.2L332.1,345
			c-2.5-0.3-5.3-15.8-4.7-17.8C329,321.9,343.2,292,345.8,292.4z"/>
		<path class="st10" d="M345.6,292.4L485.9,315c2.8,0.3,4.5,4.1,4.3,6.9c0,0-54.4,35.4-57.3,35l-100.2-12.6
			c-2.7-0.3-6.1-16.6-5.8-17.6C328,322.7,342.8,292,345.6,292.4z"/>
		<path id="XMLID_5_" class="st11" d="M432.9,356.1l-99.5-12.4c-2.8-0.4-6.9-17.4-6.9-17.4c0.4-2.8,16-34.3,18.9-34L485,315.1
			c2.8,0.4,4.4,4.4,4,7.2C489,322.3,435.7,356.5,432.9,356.1z"/>
	</g>
	<g id="XMLID_2464_">
		<g id="XMLID_1190_">
			<path id="XMLID_332_" class="st12" d="M427.8,109.9c-0.2,0-0.3-0.1-0.5-0.1c0.1,0,0.3,0,0.4,0.1
				C427.8,109.8,427.8,109.8,427.8,109.9z"/>
			<path id="XMLID_333_" class="st12" d="M432.2,115.3v45.6l-43.3-2.5c-3.5-2.4-7.5-4.5-12-6.2c-7.3-2.8-15.7-4.6-24.7-5.1
				c-8.9-0.5-17.1,0.4-24.2,2.4c-4.3,1.2-8.1,2.8-11.4,4.7l-39.1-2.3l0-42.4c0,0,0-0.1,0-0.1l0-0.1L432.2,115.3l0-0.2
				C432.2,115.1,432.2,115.2,432.2,115.3z"/>
			<g id="XMLID_1792_">
				<path id="XMLID_321_" class="st12" d="M277.6,108.5c0,0.2-0.1,0.5-0.1,0.7c0-0.1,0-0.3,0-0.4
					C277.5,108.7,277.5,108.6,277.6,108.5z"/>
				<path id="XMLID_323_" class="st12" d="M432.2,110.2v244.6l-154.6-21.4l-0.1-228.9c0-0.1,0-0.1,0-0.2l154.7,5.7
					C432.2,110.1,432.2,110.2,432.2,110.2z"/>
				<g id="XMLID_1791_">
					<g id="XMLID_1211_">
						<g id="XMLID_970_">
							<path id="XMLID_318_" class="st13" d="M423.1,348.5c-0.2,0-0.3,0-0.5,0l-23.8-3.2c-1.8-0.2-3.3-2-3.3-3.9l0-11.9
								c0-1.8,1.3-3.1,3-3.1c0.1,0,0.3,0,0.4,0l23.8,3c1.9,0.2,3.4,2,3.4,3.9v12.1C426.2,347.1,424.9,348.5,423.1,348.5z"/>
							<path id="XMLID_319_" class="st14" d="M422.9,348.3c-0.2,0-0.3,0-0.5,0l-23.8-3.2c-1.8-0.2-3.3-2-3.3-3.9l0-11.9
								c0-1.8,1.3-3.1,3-3.1c0.1,0,0.3,0,0.4,0l23.8,3c1.9,0.2,3.4,2,3.4,3.9v12.1C425.9,346.9,424.6,348.3,422.9,348.3z"/>
							<path id="XMLID_974_" class="st12" d="M425.3,345c0,1.7-1.4,2.9-3,2.7l-23.8-3.2c-1.6-0.2-2.9-1.8-2.9-3.4l0-11.9
								c0-1.7,1.3-2.9,2.9-2.6l23.8,3c1.7,0.2,3,1.8,3,3.5L425.3,345z"/>
							<g id="XMLID_969_">
								<linearGradient id="XMLID_8_" gradientUnits="userSpaceOnUse" x1="410.2568" y1="334.522" x2="410.5379" y2="330.5027">
									<stop  offset="0" style="stop-color:#EBEBEC"/>
									<stop  offset="0.2621" style="stop-color:#E8E9EA"/>
									<stop  offset="0.4518" style="stop-color:#E0E1E3"/>
									<stop  offset="0.6189" style="stop-color:#D3D5D6"/>
									<stop  offset="0.7727" style="stop-color:#C1C3C5"/>
									<stop  offset="0.9161" style="stop-color:#A9ABAE"/>
									<stop  offset="1" style="stop-color:#999B9E"/>
								</linearGradient>
								<polygon id="XMLID_2823_" class="st15" points="418,335.1 402.8,333.1 402.8,330 418,331.9 								"/>
								<path id="XMLID_2824_" class="st16" d="M418.2,335.3l-15.7-2l0-3.5l15.7,2L418.2,335.3z M402.9,332.9l14.9,1.9l0-2.7
									l-14.9-1.9L402.9,332.9z"/>
							</g>
						</g>
					</g>
					<g id="XMLID_1207_">
						<g id="XMLID_885_">
							<path id="XMLID_316_" class="st13" d="M413.9,220.9c0,34.6-27.2,59.6-59.8,56c-31.7-3.6-56.8-33-56.8-65.9
								c0-32.9,25-58.1,56.7-56.2C386.7,156.6,413.9,186.3,413.9,220.9z"/>
							<path id="XMLID_900_" class="st14" d="M412.8,220.1c0,34.6-27.2,59.6-59.8,56c-31.7-3.6-56.8-33-56.8-65.9
								c0-32.9,25-58.1,56.7-56.2C385.6,155.8,412.8,185.5,412.8,220.1z"/>
							<g id="XMLID_886_">
								<linearGradient id="XMLID_9_" gradientUnits="userSpaceOnUse" x1="353.6376" y1="274.4089" x2="353.6376" y2="154.5278">
									<stop  offset="0" style="stop-color:#CCCDCF"/>
									<stop  offset="0.4785" style="stop-color:#F3F3F3"/>
									<stop  offset="1" style="stop-color:#FFFFFF"/>
								</linearGradient>
								<path id="XMLID_897_" class="st17" d="M352.2,154.6c-31-1.8-55.6,22.9-55.5,55c0,32.2,24.5,61,55.6,64.4
									c31.9,3.6,58.5-20.9,58.5-54.7C410.7,185.5,384.1,156.5,352.2,154.6z M352.2,254.6c-21-2.2-37.7-21.6-37.7-43.4
									c0-21.8,16.7-38.4,37.7-37c21.4,1.4,39,20.9,39,43.5C391.2,240.3,373.6,256.8,352.2,254.6z"/>
								<path id="XMLID_232_" class="st12" d="M352.2,156.4c-30.1-1.8-54,22.2-54,53.4c0,31.2,23.9,59.2,54,62.6
									c31,3.4,56.7-20.3,56.7-53.2C408.9,186.3,383.1,158.2,352.2,156.4z M352.2,253.4c-20.4-2.1-36.6-20.9-36.6-42.1
									c0-21.2,16.2-37.3,36.6-35.9c20.8,1.4,37.9,20.3,37.9,42.3C390.1,239.5,372.9,255.5,352.2,253.4z"/>
								<linearGradient id="XMLID_10_" gradientUnits="userSpaceOnUse" x1="306.1212" y1="221.038" x2="306.1212" y2="199.9861">
									<stop  offset="0" style="stop-color:#999B9E"/>
									<stop  offset="3.005776e-02" style="stop-color:#A3A6A8"/>
									<stop  offset="0.128" style="stop-color:#C3C4C6"/>
									<stop  offset="0.2253" style="stop-color:#DBDDDE"/>
									<stop  offset="0.3208" style="stop-color:#EDEEEF"/>
									<stop  offset="0.4134" style="stop-color:#F9F9F9"/>
									<stop  offset="0.5" style="stop-color:#FFFFFF"/>
									<stop  offset="0.6065" style="stop-color:#FAFAFA"/>
									<stop  offset="0.6961" style="stop-color:#F0F1F1"/>
									<stop  offset="0.7795" style="stop-color:#E2E3E4"/>
									<stop  offset="0.8592" style="stop-color:#CDCFD1"/>
									<stop  offset="0.9355" style="stop-color:#B3B5B8"/>
									<stop  offset="1" style="stop-color:#999B9E"/>
								</linearGradient>
								<path id="XMLID_896_" class="st18" d="M314.5,211.1c0,3.4,0.4,6.7,1.2,9.9l-18.2-1.6c-0.5-3.2-0.8-6.5-0.8-9.8
									c0-3.3,0.3-6.5,0.7-9.6l18.2,1.5C314.9,204.5,314.5,207.8,314.5,211.1z"/>
								<g id="XMLID_891_">
									<linearGradient id="XMLID_11_" gradientUnits="userSpaceOnUse" x1="352.9319" y1="257.5441" x2="352.9319" y2="171.282">
										<stop  offset="0" style="stop-color:#B5B6B9"/>
										<stop  offset="0.4785" style="stop-color:#F3F3F3"/>
										<stop  offset="1" style="stop-color:#FFFFFF"/>
									</linearGradient>
									<path id="XMLID_1185_" class="st19" d="M394,217.9c0,24.2-18.9,41.8-41.8,39.4c-22.4-2.3-40.3-23.1-40.3-46.4
										c0-23.3,17.8-41,40.3-39.6C375,172.9,394,193.7,394,217.9z"/>
									<linearGradient id="XMLID_12_" gradientUnits="userSpaceOnUse" x1="322.972" y1="186.5389" x2="382.7397" y2="242.2733">
										<stop  offset="0" style="stop-color:#767A7F"/>
										<stop  offset="8.306379e-02" style="stop-color:#797E83"/>
										<stop  offset="0.1871" style="stop-color:#848A8E"/>
										<stop  offset="0.3024" style="stop-color:#969DA2"/>
										<stop  offset="0.425" style="stop-color:#B1B8BE"/>
										<stop  offset="0.4516" style="stop-color:#B7BFC5"/>
										<stop  offset="0.495" style="stop-color:#CAD2D8"/>
										<stop  offset="0.5519" style="stop-color:#DDE6EB"/>
										<stop  offset="0.6036" style="stop-color:#E9F2F7"/>
										<stop  offset="0.6452" style="stop-color:#EFF9FE"/>
										<stop  offset="0.6962" style="stop-color:#E8F2F7"/>
										<stop  offset="0.7612" style="stop-color:#DBE5EB"/>
										<stop  offset="0.8336" style="stop-color:#C7D1D6"/>
										<stop  offset="0.871" style="stop-color:#BAC4CA"/>
										<stop  offset="1" style="stop-color:#697075"/>
									</linearGradient>
									<path id="XMLID_895_" class="st20" d="M391.2,217.7c0,22.6-17.6,39.1-39,36.9c-21-2.2-37.7-21.6-37.7-43.4
										c0-21.8,16.7-38.4,37.7-37C373.6,175.6,391.2,195.1,391.2,217.7z"/>
									
										<radialGradient id="XMLID_13_" cx="361.4839" cy="-535.5638" r="31.2354" gradientTransform="matrix(1 0 0 1.1062 0 804.8898)" gradientUnits="userSpaceOnUse">
										<stop  offset="7.526880e-02" style="stop-color:#EFF9FE"/>
										<stop  offset="0.4585" style="stop-color:#B4BDC3"/>
										<stop  offset="0.8387" style="stop-color:#7C8388"/>
										<stop  offset="1" style="stop-color:#4F5458"/>
									</radialGradient>
									<path id="XMLID_331_" class="st21" d="M391.5,217.7c0,6.1-1.3,11.7-3.5,16.7c-0.4,0.3-0.8,0.7-1.2,1
										c-5.8,4.9-13.4,7.4-21.6,6.6c-17.5-1.7-31.4-17.9-31.4-36c0-15.8,10.6-28.3,24.8-30.5c0.5-0.1,1.1-0.1,1.6-0.2
										C377.9,180.3,391.5,197.9,391.5,217.7z"/>
									<path id="XMLID_892_" class="st22" d="M390.3,207.7c0-0.1-0.1-0.3-0.1-0.4c-0.1-0.6-0.3-1.3-0.5-1.9c0-0.2-0.1-0.3-0.1-0.5
										c-0.6-2-1.4-4-2.3-5.9c-0.1-0.1-0.1-0.2-0.2-0.3c-0.3-0.7-0.6-1.3-1-2c-0.1-0.1-0.1-0.3-0.2-0.4c-1.1-2-2.3-3.9-3.7-5.7
										c0,0,0,0,0-0.1c-0.3-0.4-0.6-0.8-1-1.2c-0.1-0.2-0.3-0.3-0.4-0.5c-5.4-6.4-12.6-11.3-20.6-13.6c-2.6-0.7-5.3-1.2-8-1.4
										c-21.1-1.4-38,15.3-38,37.3c0,22,16.9,41.6,38,43.7c15.8,1.6,29.5-6.9,35.8-20.5c2.3-5,3.5-10.6,3.5-16.7
										C391.5,214.3,391.1,210.9,390.3,207.7z M386.8,235.4c-6.4,12.6-19.6,20.4-34.6,18.9c-20.8-2.1-37.4-21.4-37.4-43.1
										c0-21.6,16.6-38.1,37.4-36.7c2.2,0.1,4.3,0.5,6.4,1c8.6,2.1,16.2,7.1,21.9,13.9c0.5,0.6,1.1,1.3,1.5,1.9
										c3,4.1,5.4,8.7,6.9,13.6c0,0.1,0.1,0.3,0.1,0.4c0.2,0.7,0.4,1.4,0.5,2.1c0,0.2,0.1,0.3,0.1,0.5c0.7,3.2,1.1,6.4,1.1,9.7
										C390.9,224.2,389.4,230.2,386.8,235.4z"/>
									<defs>
										<filter id="Adobe_OpacityMaskFilter" filterUnits="userSpaceOnUse" x="314.5" y="174.1" width="76.7" height="80.7">
											<feFlood  style="flood-color:white;flood-opacity:1" result="back"/>
											<feBlend  in="SourceGraphic" in2="back" mode="normal"/>
										</filter>
									</defs>
									<mask maskUnits="userSpaceOnUse" x="314.5" y="174.1" width="76.7" height="80.7" id="XMLID_14_">
										<g id="XMLID_439_" class="st23">
											<defs>
												<filter id="Adobe_OpacityMaskFilter_1_" filterUnits="userSpaceOnUse" x="314.5" y="174.1" width="76.7" height="80.7">
													<feFlood  style="flood-color:white;flood-opacity:1" result="back"/>
													<feBlend  in="SourceGraphic" in2="back" mode="normal"/>
												</filter>
											</defs>
											<mask maskUnits="userSpaceOnUse" x="314.5" y="174.1" width="76.7" height="80.7" id="XMLID_14_">
												<g id="XMLID_492_" class="st24">
												</g>
											</mask>
											<linearGradient id="XMLID_15_" gradientUnits="userSpaceOnUse" x1="352.837" y1="254.7481" x2="352.837" y2="174.063">
												<stop  offset="0" style="stop-color:#000000"/>
												<stop  offset="0.1223" style="stop-color:#050505"/>
												<stop  offset="0.2757" style="stop-color:#151515"/>
												<stop  offset="0.4456" style="stop-color:#2E2E2E"/>
												<stop  offset="0.6275" style="stop-color:#525252"/>
												<stop  offset="0.8167" style="stop-color:#7F7F7F"/>
												<stop  offset="1" style="stop-color:#B3B3B3"/>
											</linearGradient>
											<path id="XMLID_440_" class="st25" d="M391.2,217.7c0,22.6-17.6,39.1-39,36.9c-21-2.2-37.7-21.6-37.7-43.4
												c0-21.8,16.7-38.4,37.7-37C373.6,175.6,391.2,195.1,391.2,217.7z"/>
										</g>
									</mask>
									<linearGradient id="XMLID_16_" gradientUnits="userSpaceOnUse" x1="352.837" y1="254.7481" x2="352.837" y2="174.063">
										<stop  offset="0" style="stop-color:#C3C9CE"/>
										<stop  offset="0.1995" style="stop-color:#BEC5CA"/>
										<stop  offset="0.4493" style="stop-color:#B1B8BD"/>
										<stop  offset="0.7249" style="stop-color:#9BA3A9"/>
										<stop  offset="1" style="stop-color:#828A90"/>
									</linearGradient>
									<path id="XMLID_1157_" class="st26" d="M391.2,217.7c0,22.6-17.6,39.1-39,36.9c-21-2.2-37.7-21.6-37.7-43.4
										c0-21.8,16.7-38.4,37.7-37C373.6,175.6,391.2,195.1,391.2,217.7z"/>
								</g>
								<linearGradient id="XMLID_17_" gradientUnits="userSpaceOnUse" x1="312.0193" y1="221.038" x2="312.0193" y2="200.9535">
									<stop  offset="0" style="stop-color:#86888A"/>
									<stop  offset="2.206784e-02" style="stop-color:#8D8F92"/>
									<stop  offset="0.111" style="stop-color:#A7A9AB"/>
									<stop  offset="0.2024" style="stop-color:#BCBEC0"/>
									<stop  offset="0.296" style="stop-color:#CBCDCF"/>
									<stop  offset="0.3933" style="stop-color:#D5D6D7"/>
									<stop  offset="0.5" style="stop-color:#D8D9DA"/>
									<stop  offset="0.6142" style="stop-color:#D5D6D8"/>
									<stop  offset="0.7102" style="stop-color:#CCCED0"/>
									<stop  offset="0.7996" style="stop-color:#BEBFC2"/>
									<stop  offset="0.885" style="stop-color:#A9ACAE"/>
									<stop  offset="0.9668" style="stop-color:#919396"/>
									<stop  offset="1" style="stop-color:#86888A"/>
								</linearGradient>
								<path id="XMLID_890_" class="st27" d="M314.5,211.1c0,3.4,0.4,6.7,1.2,9.9l-6.2-0.6c-0.6-3.2-1-6.5-1-9.8
									c0-3.4,0.3-6.6,1-9.7l6.2,0.5C314.9,204.5,314.5,207.8,314.5,211.1z"/>
								<path id="XMLID_889_" class="st28" d="M309.4,201l-0.6,0c-0.6,3.1-1,6.3-1,9.7c0,3.3,0.3,6.6,1,9.8l0.6,0.1
									c-0.6-3.2-1-6.5-1-9.8C308.4,207.3,308.7,204,309.4,201z"/>
							</g>
						</g>
						<g id="XMLID_1206_">
							<g id="XMLID_991_">
								<g id="XMLID_1138_">
									<path id="XMLID_1156_" class="st29" d="M366.1,189.4c0,0.5-0.4,0.9-0.9,0.9c-0.5,0-0.9-0.5-0.9-1.1c0-0.5,0.4-0.9,0.9-0.9
										C365.7,188.4,366.1,188.8,366.1,189.4z"/>
									<path id="XMLID_1155_" class="st29" d="M359.6,189.7c0.2,0.5-0.1,1.1-0.6,1.2c-0.5,0.1-1-0.2-1.2-0.7
										c-0.2-0.5,0.1-1.1,0.6-1.2C358.9,188.9,359.4,189.2,359.6,189.7z"/>
									<path id="XMLID_1154_" class="st29" d="M353.8,192.4c0.3,0.4,0.3,1-0.1,1.4c-0.4,0.3-1,0.2-1.3-0.2c-0.3-0.4-0.3-1,0.1-1.4
										C352.9,191.9,353.5,192,353.8,192.4z"/>
									<path id="XMLID_1153_" class="st29" d="M349.4,197.1c0.4,0.3,0.6,0.9,0.3,1.4c-0.3,0.4-0.8,0.6-1.3,0.3
										c-0.4-0.3-0.6-0.9-0.3-1.4C348.4,196.9,349,196.8,349.4,197.1z"/>
									<path id="XMLID_1152_" class="st29" d="M346.9,203.1c0.5,0.1,0.8,0.7,0.7,1.2c-0.1,0.5-0.6,0.8-1.1,0.7
										c-0.5-0.1-0.8-0.7-0.7-1.2C345.9,203.3,346.4,203,346.9,203.1z"/>
									<path id="XMLID_1151_" class="st29" d="M346.6,209.9c0.5,0,1,0.3,1.1,0.9c0.1,0.5-0.2,1-0.7,1.1c-0.5,0-1-0.3-1.1-0.9
										C345.8,210.4,346.1,209.9,346.6,209.9z"/>
									
										<ellipse id="XMLID_1150_" transform="matrix(0.8866 -0.4625 0.4625 0.8866 -61.0043 186.031)" class="st29" cx="349" cy="217.5" rx="0.9" ry="1"/>
									<path id="XMLID_1149_" class="st29" d="M352.4,222.4c0.3-0.4,0.9-0.4,1.3,0c0.4,0.4,0.4,1,0.1,1.4c-0.3,0.4-0.9,0.4-1.3,0
										C352.1,223.4,352.1,222.7,352.4,222.4z"/>
									<path id="XMLID_1148_" class="st29" d="M357.9,226.6c0.2-0.5,0.7-0.7,1.2-0.5c0.5,0.2,0.7,0.8,0.6,1.3
										c-0.2,0.5-0.7,0.7-1.2,0.5C357.9,227.6,357.7,227.1,357.9,226.6z"/>
									<path id="XMLID_1147_" class="st29" d="M364.2,228.7c0-0.5,0.4-0.9,0.9-0.9c0.5,0,0.9,0.5,0.9,1.1c0,0.5-0.4,0.9-0.9,0.9
										C364.6,229.7,364.2,229.2,364.2,228.7z"/>
									<path id="XMLID_1146_" class="st29" d="M370.7,228.4c-0.2-0.5,0.1-1.1,0.6-1.2c0.5-0.1,1,0.2,1.2,0.7
										c0.2,0.5-0.1,1.1-0.6,1.2C371.4,229.3,370.9,229,370.7,228.4z"/>
									<path id="XMLID_1145_" class="st29" d="M376.6,225.8c-0.3-0.4-0.3-1.1,0.1-1.4c0.4-0.3,1-0.2,1.3,0.2
										c0.3,0.4,0.3,1.1-0.1,1.4S376.9,226.3,376.6,225.8z"/>
									<path id="XMLID_1144_" class="st29" d="M381.1,221.2c-0.5-0.3-0.6-0.9-0.3-1.4c0.3-0.4,0.8-0.6,1.3-0.2
										c0.5,0.3,0.6,0.9,0.3,1.4C382.1,221.4,381.6,221.5,381.1,221.2z"/>
									<path id="XMLID_1143_" class="st29" d="M383.7,215c-0.5-0.1-0.9-0.7-0.8-1.2c0.1-0.5,0.6-0.8,1.1-0.7
										c0.5,0.1,0.9,0.7,0.8,1.2C384.7,214.9,384.2,215.2,383.7,215z"/>
									<path id="XMLID_1142_" class="st29" d="M384,208.2c-0.5,0.1-1-0.3-1.1-0.9c-0.1-0.5,0.3-1,0.8-1.1c0.5-0.1,1,0.3,1.1,0.9
										C384.9,207.6,384.5,208.1,384,208.2z"/>
									<path id="XMLID_1141_" class="st29" d="M382,201.4c-0.5,0.2-1,0-1.3-0.5c-0.3-0.5-0.1-1.1,0.3-1.3c0.5-0.2,1,0,1.3,0.5
										C382.7,200.6,382.5,201.2,382,201.4z"/>
									<path id="XMLID_1140_" class="st29" d="M378,195.6c-0.3,0.4-0.9,0.4-1.3,0c-0.4-0.4-0.5-1-0.1-1.4c0.3-0.4,0.9-0.4,1.3,0
										C378.3,194.5,378.4,195.2,378,195.6z"/>
									<path id="XMLID_1139_" class="st29" d="M372.5,191.4c-0.2,0.5-0.7,0.7-1.2,0.5c-0.5-0.2-0.7-0.8-0.6-1.3
										c0.2-0.5,0.7-0.7,1.2-0.5C372.4,190.3,372.7,190.9,372.5,191.4z"/>
								</g>
								<g id="XMLID_1119_">
									<path id="XMLID_1137_" class="st29" d="M366.4,183.4c0,0.7-0.5,1.2-1.2,1.2c-0.7,0-1.2-0.7-1.2-1.4c0-0.7,0.5-1.2,1.2-1.2
										C365.8,182.1,366.4,182.7,366.4,183.4z"/>
									<path id="XMLID_1136_" class="st29" d="M357.9,183.9c0.2,0.7-0.1,1.4-0.7,1.6c-0.6,0.2-1.3-0.2-1.5-0.9
										c-0.2-0.7,0.1-1.4,0.7-1.6C357,182.9,357.7,183.3,357.9,183.9z"/>
									<path id="XMLID_1135_" class="st29" d="M350.4,187.4c0.4,0.6,0.4,1.4-0.1,1.8c-0.5,0.4-1.3,0.3-1.7-0.3
										c-0.4-0.6-0.4-1.4,0.1-1.8C349.2,186.7,350,186.9,350.4,187.4z"/>
									<path id="XMLID_1134_" class="st29" d="M344.7,193.5c0.6,0.4,0.8,1.2,0.4,1.8c-0.3,0.6-1.1,0.7-1.6,0.3
										c-0.6-0.4-0.8-1.2-0.4-1.8C343.4,193.2,344.2,193.1,344.7,193.5z"/>
									<path id="XMLID_1133_" class="st29" d="M341.5,201.4c0.6,0.2,1.1,0.9,1,1.5c-0.1,0.7-0.7,1.1-1.4,0.9
										c-0.6-0.2-1.1-0.9-1-1.5C340.2,201.6,340.8,201.2,341.5,201.4z"/>
									<path id="XMLID_1132_" class="st29" d="M341.1,210.2c0.6-0.1,1.3,0.4,1.4,1.1c0.1,0.7-0.3,1.3-1,1.4
										c-0.6,0.1-1.3-0.4-1.4-1.1C340,210.8,340.4,210.2,341.1,210.2z"/>
									
										<ellipse id="XMLID_1131_" transform="matrix(0.8872 -0.4615 0.4615 0.8872 -62.6724 183.6307)" class="st29" cx="344.1" cy="220" rx="1.2" ry="1.3"/>
									<path id="XMLID_1130_" class="st29" d="M348.6,226.3c0.4-0.5,1.2-0.5,1.7,0c0.5,0.5,0.6,1.3,0.1,1.8
										c-0.4,0.5-1.2,0.5-1.7,0C348.2,227.6,348.2,226.8,348.6,226.3z"/>
									<path id="XMLID_1129_" class="st29" d="M355.7,231.8c0.2-0.6,0.9-0.9,1.5-0.6c0.6,0.3,0.9,1.1,0.7,1.7
										c-0.2,0.6-0.9,0.9-1.5,0.6C355.8,233.2,355.4,232.5,355.7,231.8z"/>
									<path id="XMLID_1128_" class="st29" d="M363.9,234.6c0-0.7,0.5-1.2,1.2-1.2c0.7,0.1,1.2,0.7,1.2,1.4c0,0.7-0.5,1.2-1.2,1.2
										C364.5,235.9,363.9,235.3,363.9,234.6z"/>
									<path id="XMLID_1127_" class="st29" d="M372.4,234.3c-0.2-0.7,0.1-1.4,0.7-1.6c0.6-0.2,1.3,0.2,1.6,0.9
										c0.2,0.7-0.1,1.4-0.7,1.6C373.3,235.4,372.6,235,372.4,234.3z"/>
									<path id="XMLID_1126_" class="st29" d="M380.1,230.9c-0.4-0.6-0.4-1.4,0.2-1.8c0.5-0.4,1.3-0.3,1.7,0.3
										c0.4,0.6,0.4,1.4-0.2,1.8C381.3,231.7,380.5,231.5,380.1,230.9z"/>
									<path id="XMLID_1125_" class="st29" d="M386,224.9c-0.6-0.4-0.8-1.2-0.5-1.8c0.3-0.6,1.1-0.7,1.7-0.3
										c0.6,0.4,0.8,1.2,0.5,1.8C387.3,225.1,386.5,225.3,386,224.9z"/>
									<path id="XMLID_1124_" class="st29" d="M389.3,216.9c-0.7-0.2-1.1-0.9-1-1.6c0.1-0.7,0.8-1.1,1.4-0.9
										c0.7,0.2,1.1,0.9,1,1.6C390.6,216.6,390,217.1,389.3,216.9z"/>
									<path id="XMLID_339_" class="st29" d="M390.3,207.7c-0.1,0.1-0.3,0.2-0.5,0.2c0,0,0,0,0,0c-0.7,0.1-1.3-0.5-1.4-1.2
										c0-0.2,0-0.3,0-0.4c0.1-0.4,0.4-0.8,0.8-0.9c0.1,0,0.1,0,0.2,0c0.1,0,0.3,0,0.4,0c0.2,0.6,0.4,1.3,0.5,1.9
										C390.3,207.4,390.3,207.5,390.3,207.7z"/>
									<path id="XMLID_334_" class="st29" d="M387.3,199c0,0-0.1,0.1-0.1,0.1c-0.6,0.3-1.3,0-1.7-0.6c-0.2-0.3-0.2-0.6-0.1-0.9
										c0.1-0.3,0.3-0.7,0.6-0.8c0.1,0,0.1-0.1,0.2-0.1c0.3,0.6,0.7,1.3,1,2C387.2,198.7,387.2,198.9,387.3,199z"/>
									<path id="XMLID_336_" class="st29" d="M382.2,190.6c0,0.3,0,0.5-0.2,0.7c0,0.1-0.1,0.1-0.1,0.2c-0.4,0.5-1.2,0.5-1.7,0
										c-0.4-0.3-0.5-0.8-0.4-1.3c0-0.2,0.1-0.4,0.3-0.5c0.1-0.1,0.3-0.3,0.4-0.3c0.2-0.1,0.5-0.1,0.7,0
										C381.6,189.7,381.9,190.1,382.2,190.6C382.2,190.6,382.2,190.6,382.2,190.6z"/>
									<path id="XMLID_1120_" class="st29" d="M374.7,186.1c-0.2,0.6-0.9,0.9-1.6,0.6c-0.6-0.3-1-1-0.7-1.7
										c0.2-0.6,0.9-0.9,1.6-0.6C374.6,184.6,374.9,185.4,374.7,186.1z"/>
								</g>
								<g id="XMLID_1100_">
									<path id="XMLID_1118_" class="st29" d="M366.1,198.6c0,0.5-0.4,0.9-0.9,0.9c-0.5,0-0.9-0.5-0.9-1.1c0-0.5,0.4-0.9,0.9-0.9
										C365.7,197.6,366.1,198.1,366.1,198.6z"/>
									<path id="XMLID_1117_" class="st29" d="M362.6,198.7c0.2,0.5-0.1,1.1-0.6,1.2c-0.5,0.1-1-0.2-1.2-0.7
										c-0.2-0.5,0.1-1.1,0.6-1.2C361.9,197.8,362.4,198.1,362.6,198.7z"/>
									<path id="XMLID_1116_" class="st29" d="M359.5,199.9c0.3,0.4,0.3,1.1-0.1,1.4c-0.4,0.3-1,0.2-1.3-0.2
										c-0.3-0.4-0.3-1.1,0.1-1.4C358.5,199.4,359.1,199.5,359.5,199.9z"/>
									<path id="XMLID_1115_" class="st29" d="M357,202.3c0.4,0.3,0.6,0.9,0.3,1.4c-0.3,0.4-0.8,0.6-1.3,0.3
										c-0.4-0.3-0.6-0.9-0.3-1.4C356,202.1,356.6,202,357,202.3z"/>
									<path id="XMLID_1114_" class="st29" d="M355.5,205.4c0.5,0.1,0.8,0.7,0.8,1.2c-0.1,0.5-0.6,0.8-1.1,0.7
										c-0.5-0.1-0.8-0.7-0.8-1.2C354.5,205.6,355,205.3,355.5,205.4z"/>
									<path id="XMLID_1113_" class="st29" d="M355.2,209c0.5-0.1,1,0.3,1.1,0.9c0.1,0.5-0.2,1-0.8,1.1c-0.5,0-1-0.3-1.1-0.9
										C354.4,209.6,354.7,209.1,355.2,209z"/>
									
										<ellipse id="XMLID_1112_" transform="matrix(0.8858 -0.464 0.464 0.8858 -58.3677 189.8135)" class="st29" cx="356.5" cy="213.5" rx="0.9" ry="1"/>
									<path id="XMLID_1111_" class="st29" d="M358,215.8c0.3-0.4,0.9-0.4,1.3,0c0.4,0.4,0.4,1,0.1,1.4c-0.3,0.4-0.9,0.4-1.3,0
										C357.8,216.8,357.7,216.2,358,215.8z"/>
									<path id="XMLID_1110_" class="st29" d="M360.9,218.2c0.2-0.5,0.7-0.7,1.2-0.5c0.5,0.2,0.7,0.8,0.6,1.3
										c-0.2,0.5-0.7,0.7-1.2,0.5C360.9,219.2,360.7,218.6,360.9,218.2z"/>
									<path id="XMLID_1109_" class="st29" d="M364.2,219.4c0-0.5,0.4-0.9,0.9-0.9c0.5,0,0.9,0.5,0.9,1.1c0,0.5-0.4,0.9-0.9,0.9
										C364.6,220.4,364.2,220,364.2,219.4z"/>
									<path id="XMLID_1108_" class="st29" d="M367.7,219.4c-0.2-0.5,0.1-1.1,0.6-1.2c0.5-0.1,1,0.2,1.2,0.7
										c0.2,0.5-0.1,1.1-0.6,1.2C368.4,220.3,367.9,220,367.7,219.4z"/>
									<path id="XMLID_1107_" class="st29" d="M370.9,218.2c-0.3-0.4-0.3-1.1,0.1-1.4c0.4-0.3,1-0.2,1.3,0.2
										c0.3,0.4,0.3,1.1-0.1,1.4C371.8,218.7,371.2,218.6,370.9,218.2z"/>
									<path id="XMLID_1106_" class="st29" d="M373.4,215.8c-0.4-0.3-0.6-0.9-0.3-1.4c0.3-0.4,0.8-0.6,1.3-0.2
										c0.5,0.3,0.6,0.9,0.3,1.4C374.4,216,373.8,216.2,373.4,215.8z"/>
									<path id="XMLID_1105_" class="st29" d="M374.9,212.7c-0.5-0.1-0.9-0.7-0.8-1.2c0.1-0.5,0.6-0.8,1.1-0.7
										c0.5,0.1,0.9,0.7,0.8,1.2C375.9,212.5,375.4,212.8,374.9,212.7z"/>
									<path id="XMLID_1104_" class="st29" d="M375.2,209c-0.5,0.1-1-0.3-1.1-0.9c-0.1-0.5,0.3-1,0.8-1.1c0.5-0.1,1,0.3,1.1,0.9
										C376,208.5,375.7,209,375.2,209z"/>
									<path id="XMLID_1103_" class="st29" d="M374.3,205.4c-0.5,0.2-1,0-1.3-0.5c-0.3-0.5-0.1-1.1,0.3-1.3c0.5-0.2,1,0,1.3,0.5
										C374.9,204.6,374.8,205.2,374.3,205.4z"/>
									<path id="XMLID_1102_" class="st29" d="M372.3,202.2c-0.3,0.4-0.9,0.4-1.3,0c-0.4-0.4-0.4-1-0.1-1.4c0.3-0.4,0.9-0.4,1.3,0
										C372.6,201.2,372.6,201.8,372.3,202.2z"/>
									<path id="XMLID_1101_" class="st29" d="M369.4,199.9c-0.2,0.5-0.7,0.7-1.2,0.5c-0.5-0.2-0.7-0.8-0.6-1.3
										c0.2-0.5,0.7-0.7,1.2-0.5C369.4,198.8,369.6,199.4,369.4,199.9z"/>
								</g>
								<g id="XMLID_1075_">
									<path id="XMLID_1099_" class="st29" d="M366.1,193.6c0,0.5-0.4,0.9-0.9,0.9c-0.5,0-0.9-0.5-0.9-1.1c0-0.5,0.4-0.9,0.9-0.9
										C365.7,192.6,366.1,193.1,366.1,193.6z"/>
									<path id="XMLID_1098_" class="st29" d="M362.2,193.6c0.1,0.5-0.2,1-0.7,1.1c-0.5,0.1-1-0.2-1.1-0.8c-0.1-0.5,0.2-1,0.7-1.1
										C361.6,192.7,362.1,193.1,362.2,193.6z"/>
									
										<ellipse id="XMLID_1097_" transform="matrix(0.8843 -0.467 0.467 0.8843 -49.6822 189.6684)" class="st29" cx="357.8" cy="195.1" rx="0.9" ry="1"/>
									<path id="XMLID_1096_" class="st29" d="M355.4,196.6c0.4,0.4,0.4,1,0,1.4c-0.4,0.4-0.9,0.3-1.3-0.1c-0.4-0.4-0.4-1,0-1.4
										C354.5,196.2,355.1,196.2,355.4,196.6z"/>
									<path id="XMLID_1095_" class="st29" d="M352.9,199.5c0.4,0.3,0.6,0.9,0.3,1.4c-0.3,0.4-0.8,0.6-1.3,0.3
										c-0.4-0.3-0.6-0.9-0.3-1.4C351.9,199.3,352.5,199.2,352.9,199.5z"/>
									<path id="XMLID_1094_" class="st29" d="M351.2,202.9c0.5,0.2,0.8,0.7,0.7,1.2c-0.1,0.5-0.6,0.8-1.1,0.6
										c-0.5-0.2-0.8-0.7-0.7-1.2C350.2,203,350.7,202.8,351.2,202.9z"/>
									<path id="XMLID_1093_" class="st29" d="M350.5,206.8c0.5,0,0.9,0.5,0.9,1.1c0,0.5-0.4,0.9-0.9,0.9c-0.5,0-0.9-0.5-0.9-1.1
										C349.6,207.2,350,206.8,350.5,206.8z"/>
									<path id="XMLID_1092_" class="st29" d="M350.8,210.8c0.5-0.1,1,0.3,1.1,0.8c0.1,0.5-0.2,1-0.7,1.1c-0.5,0.1-1-0.3-1.1-0.8
										C350,211.5,350.3,210.9,350.8,210.8z"/>
									
										<ellipse id="XMLID_1091_" transform="matrix(0.8863 -0.4632 0.4632 0.8863 -59.7953 187.7764)" class="st29" cx="352.4" cy="215.6" rx="0.9" ry="1"/>
									<path id="XMLID_1090_" class="st29" d="M354.1,218.3c0.4-0.3,0.9-0.3,1.3,0.1s0.4,1,0,1.4c-0.4,0.3-0.9,0.3-1.3-0.1
										C353.8,219.3,353.8,218.6,354.1,218.3z"/>
									<path id="XMLID_1089_" class="st29" d="M357,221.2c0.3-0.4,0.8-0.6,1.3-0.2c0.4,0.3,0.6,0.9,0.3,1.4
										c-0.3,0.4-0.8,0.6-1.3,0.2C356.9,222.2,356.7,221.6,357,221.2z"/>
									<path id="XMLID_1088_" class="st29" d="M360.4,223.3c0.1-0.5,0.6-0.8,1.1-0.6c0.5,0.2,0.8,0.7,0.7,1.3
										c-0.1,0.5-0.6,0.8-1.1,0.6C360.6,224.4,360.3,223.8,360.4,223.3z"/>
									<path id="XMLID_1087_" class="st29" d="M364.2,224.4c0-0.5,0.4-0.9,0.9-0.9c0.5,0,0.9,0.5,0.9,1.1c0,0.5-0.4,0.9-0.9,0.9
										C364.6,225.4,364.2,225,364.2,224.4z"/>
									<path id="XMLID_1086_" class="st29" d="M368.1,224.5c-0.1-0.5,0.2-1,0.7-1.1c0.5-0.1,1,0.3,1.1,0.8c0.1,0.5-0.2,1-0.7,1.1
										C368.7,225.4,368.2,225,368.1,224.5z"/>
									<path id="XMLID_1085_" class="st29" d="M371.7,223.5c-0.3-0.5-0.1-1.1,0.3-1.3c0.4-0.2,1,0,1.3,0.5
										c0.3,0.5,0.1,1.1-0.3,1.3C372.6,224.2,372,224,371.7,223.5z"/>
									<path id="XMLID_1084_" class="st29" d="M375,221.6c-0.4-0.4-0.4-1,0-1.4c0.4-0.4,1-0.3,1.3,0.1c0.4,0.4,0.4,1,0,1.4
										C375.9,222,375.3,222,375,221.6z"/>
									<path id="XMLID_1083_" class="st29" d="M377.5,218.7c-0.5-0.3-0.6-0.9-0.3-1.4c0.3-0.4,0.8-0.6,1.3-0.2
										c0.5,0.3,0.6,0.9,0.3,1.4C378.6,218.9,378,219,377.5,218.7z"/>
									<path id="XMLID_1082_" class="st29" d="M379.2,215.2c-0.5-0.2-0.8-0.8-0.7-1.3c0.1-0.5,0.7-0.8,1.2-0.6
										c0.5,0.2,0.8,0.8,0.7,1.3C380.3,215.1,379.8,215.4,379.2,215.2z"/>
									<path id="XMLID_1081_" class="st29" d="M380,211.3c-0.5,0-0.9-0.5-0.9-1.1c0-0.5,0.4-0.9,0.9-0.9c0.5,0,0.9,0.5,0.9,1.1
										C380.9,210.9,380.5,211.3,380,211.3z"/>
									<path id="XMLID_1080_" class="st29" d="M379.7,207.2c-0.5,0.1-1-0.3-1.2-0.8c-0.1-0.5,0.2-1.1,0.7-1.2
										c0.5-0.1,1,0.3,1.2,0.8S380.2,207.1,379.7,207.2z"/>
									<path id="XMLID_1079_" class="st29" d="M378.5,203.2c-0.5,0.2-1,0-1.3-0.5c-0.3-0.5-0.1-1.1,0.3-1.3c0.5-0.2,1,0,1.3,0.5
										C379.1,202.4,378.9,203,378.5,203.2z"/>
									<path id="XMLID_1078_" class="st29" d="M376.3,199.7c-0.4,0.4-1,0.3-1.3-0.1c-0.4-0.4-0.4-1,0-1.4c0.4-0.4,1-0.3,1.3,0.1
										C376.7,198.7,376.7,199.3,376.3,199.7z"/>
									<path id="XMLID_1077_" class="st29" d="M373.4,196.8c-0.3,0.4-0.8,0.6-1.3,0.3c-0.4-0.3-0.6-0.9-0.3-1.4
										c0.3-0.4,0.8-0.6,1.3-0.3C373.5,195.7,373.6,196.3,373.4,196.8z"/>
									<path id="XMLID_1076_" class="st29" d="M369.9,194.7c-0.1,0.5-0.6,0.8-1.1,0.6c-0.5-0.2-0.8-0.7-0.7-1.3
										c0.1-0.5,0.6-0.8,1.1-0.6C369.7,193.7,370,194.2,369.9,194.7z"/>
								</g>
							</g>
							<g id="XMLID_992_">
								<g id="XMLID_1056_">
									<path id="XMLID_1074_" class="st12" d="M366.1,188.9c0,0.5-0.4,0.9-0.9,0.9c-0.5,0-0.9-0.5-0.9-1.1c0-0.5,0.4-0.9,0.9-0.9
										C365.7,187.9,366.1,188.4,366.1,188.9z"/>
									<path id="XMLID_1073_" class="st12" d="M359.6,189.3c0.2,0.5-0.1,1.1-0.6,1.2c-0.5,0.1-1-0.2-1.2-0.7
										c-0.2-0.5,0.1-1.1,0.6-1.2C358.9,188.5,359.4,188.8,359.6,189.3z"/>
									<path id="XMLID_1072_" class="st12" d="M353.8,192c0.3,0.4,0.3,1-0.1,1.4c-0.4,0.3-1,0.2-1.3-0.2c-0.3-0.4-0.3-1,0.1-1.4
										C352.9,191.4,353.5,191.5,353.8,192z"/>
									<path id="XMLID_1071_" class="st12" d="M349.4,196.6c0.4,0.3,0.6,0.9,0.3,1.4c-0.3,0.4-0.8,0.6-1.3,0.3
										c-0.4-0.3-0.6-0.9-0.3-1.4C348.4,196.4,349,196.3,349.4,196.6z"/>
									<path id="XMLID_1070_" class="st12" d="M346.9,202.7c0.5,0.1,0.8,0.7,0.7,1.2c-0.1,0.5-0.6,0.8-1.1,0.7
										c-0.5-0.1-0.8-0.7-0.7-1.2C345.9,202.9,346.4,202.5,346.9,202.7z"/>
									<path id="XMLID_1069_" class="st12" d="M346.6,209.5c0.5-0.1,1,0.3,1.1,0.9c0.1,0.5-0.2,1-0.7,1.1c-0.5,0-1-0.3-1.1-0.9
										C345.8,210,346.1,209.5,346.6,209.5z"/>
									
										<ellipse id="XMLID_1068_" transform="matrix(0.8866 -0.4625 0.4625 0.8866 -60.7988 185.9993)" class="st12" cx="349" cy="217" rx="0.9" ry="1"/>
									<path id="XMLID_1067_" class="st12" d="M352.4,221.9c0.3-0.4,0.9-0.4,1.3,0c0.4,0.4,0.4,1,0.1,1.4s-0.9,0.4-1.3,0
										C352.1,222.9,352.1,222.3,352.4,221.9z"/>
									<path id="XMLID_1066_" class="st12" d="M357.9,226.1c0.2-0.5,0.7-0.7,1.2-0.5c0.5,0.2,0.7,0.8,0.6,1.3
										c-0.2,0.5-0.7,0.7-1.2,0.5C357.9,227.2,357.7,226.6,357.9,226.1z"/>
									<path id="XMLID_1065_" class="st12" d="M364.2,228.2c0-0.5,0.4-0.9,0.9-0.9c0.5,0,0.9,0.5,0.9,1.1c0,0.5-0.4,0.9-0.9,0.9
										C364.6,229.2,364.2,228.8,364.2,228.2z"/>
									<path id="XMLID_1064_" class="st12" d="M370.7,228c-0.2-0.5,0.1-1.1,0.6-1.2c0.5-0.1,1,0.2,1.2,0.7
										c0.2,0.5-0.1,1.1-0.6,1.2C371.4,228.8,370.9,228.5,370.7,228z"/>
									<path id="XMLID_1063_" class="st12" d="M376.6,225.4c-0.3-0.4-0.3-1.1,0.1-1.4c0.4-0.3,1-0.2,1.3,0.2
										c0.3,0.4,0.3,1.1-0.1,1.4C377.5,225.9,376.9,225.8,376.6,225.4z"/>
									<path id="XMLID_1062_" class="st12" d="M381.1,220.7c-0.5-0.3-0.6-0.9-0.3-1.4c0.3-0.4,0.8-0.6,1.3-0.2
										c0.5,0.3,0.6,0.9,0.3,1.4C382.1,220.9,381.6,221,381.1,220.7z"/>
									<path id="XMLID_1061_" class="st12" d="M383.7,214.6c-0.5-0.1-0.9-0.7-0.8-1.2c0.1-0.5,0.6-0.8,1.1-0.7
										c0.5,0.1,0.9,0.7,0.8,1.2C384.7,214.4,384.2,214.7,383.7,214.6z"/>
									<path id="XMLID_1060_" class="st12" d="M384,207.7c-0.5,0.1-1-0.3-1.1-0.9c-0.1-0.5,0.3-1,0.8-1.1c0.5-0.1,1,0.3,1.1,0.9
										C384.9,207.2,384.5,207.7,384,207.7z"/>
									<path id="XMLID_1059_" class="st12" d="M382,200.9c-0.5,0.2-1,0-1.3-0.5c-0.3-0.5-0.1-1.1,0.3-1.3c0.5-0.2,1,0,1.3,0.5
										C382.7,200.1,382.5,200.7,382,200.9z"/>
									<path id="XMLID_1058_" class="st12" d="M378,195.1c-0.3,0.4-0.9,0.4-1.3,0c-0.4-0.4-0.5-1-0.1-1.4c0.3-0.4,0.9-0.4,1.3,0
										C378.3,194.1,378.4,194.7,378,195.1z"/>
									<path id="XMLID_1057_" class="st12" d="M372.5,190.9c-0.2,0.5-0.7,0.7-1.2,0.5c-0.5-0.2-0.7-0.8-0.6-1.3
										c0.2-0.5,0.7-0.7,1.2-0.5C372.4,189.9,372.7,190.4,372.5,190.9z"/>
								</g>
								<g id="XMLID_1037_">
									<path id="XMLID_1055_" class="st12" d="M366.4,183c0,0.7-0.5,1.2-1.2,1.2c-0.7,0-1.2-0.7-1.2-1.4c0-0.7,0.5-1.2,1.2-1.2
										C365.8,181.7,366.4,182.3,366.4,183z"/>
									<path id="XMLID_1054_" class="st12" d="M357.9,183.5c0.2,0.7-0.1,1.4-0.7,1.6c-0.6,0.2-1.3-0.2-1.5-0.9
										c-0.2-0.7,0.1-1.4,0.7-1.6C357,182.4,357.7,182.8,357.9,183.5z"/>
									<path id="XMLID_1053_" class="st12" d="M350.4,187c0.4,0.6,0.4,1.4-0.1,1.8c-0.5,0.4-1.3,0.3-1.7-0.3
										c-0.4-0.6-0.4-1.4,0.1-1.8C349.2,186.3,350,186.4,350.4,187z"/>
									<path id="XMLID_1052_" class="st12" d="M344.7,193c0.6,0.4,0.8,1.2,0.4,1.8c-0.3,0.6-1.1,0.7-1.6,0.3
										c-0.6-0.4-0.8-1.2-0.4-1.8C343.4,192.8,344.2,192.6,344.7,193z"/>
									<path id="XMLID_1051_" class="st12" d="M341.5,200.9c0.6,0.2,1.1,0.9,1,1.5c-0.1,0.7-0.7,1.1-1.4,0.9
										c-0.6-0.2-1.1-0.9-1-1.5C340.2,201.2,340.8,200.7,341.5,200.9z"/>
									<path id="XMLID_1050_" class="st12" d="M341.1,209.7c0.6-0.1,1.3,0.4,1.4,1.1c0.1,0.7-0.3,1.3-1,1.4
										c-0.6,0.1-1.3-0.4-1.4-1.1C340,210.4,340.4,209.8,341.1,209.7z"/>
									
										<ellipse id="XMLID_1049_" transform="matrix(0.8871 -0.4615 0.4615 0.8871 -62.4676 183.5947)" class="st12" cx="344.1" cy="219.5" rx="1.2" ry="1.3"/>
									<path id="XMLID_1048_" class="st12" d="M348.6,225.9c0.4-0.5,1.2-0.5,1.7,0c0.5,0.5,0.6,1.3,0.1,1.8
										c-0.4,0.5-1.2,0.5-1.7,0C348.2,227.2,348.2,226.4,348.6,225.9z"/>
									<path id="XMLID_1047_" class="st12" d="M355.7,231.4c0.2-0.6,0.9-0.9,1.5-0.6c0.6,0.3,0.9,1.1,0.7,1.7
										c-0.2,0.6-0.9,0.9-1.5,0.6C355.8,232.8,355.4,232,355.7,231.4z"/>
									<path id="XMLID_1046_" class="st12" d="M363.9,234.1c0-0.7,0.5-1.2,1.2-1.2c0.7,0.1,1.2,0.7,1.2,1.4c0,0.7-0.5,1.2-1.2,1.2
										C364.5,235.5,363.9,234.8,363.9,234.1z"/>
									<path id="XMLID_1045_" class="st12" d="M372.4,233.8c-0.2-0.7,0.1-1.4,0.7-1.6c0.6-0.2,1.3,0.2,1.6,0.9
										c0.2,0.7-0.1,1.4-0.7,1.6C373.3,234.9,372.6,234.5,372.4,233.8z"/>
									<path id="XMLID_1044_" class="st12" d="M380.1,230.5c-0.4-0.6-0.4-1.4,0.2-1.8c0.5-0.4,1.3-0.3,1.7,0.3
										c0.4,0.6,0.4,1.4-0.2,1.8C381.3,231.2,380.5,231.1,380.1,230.5z"/>
									<path id="XMLID_1043_" class="st12" d="M386,224.4c-0.6-0.4-0.8-1.2-0.5-1.8c0.3-0.6,1.1-0.7,1.7-0.3
										c0.6,0.4,0.8,1.2,0.5,1.8C387.3,224.7,386.5,224.8,386,224.4z"/>
									<path id="XMLID_1042_" class="st12" d="M389.3,216.4c-0.7-0.2-1.1-0.9-1-1.6c0.1-0.7,0.8-1.1,1.4-0.9
										c0.7,0.2,1.1,0.9,1,1.6C390.6,216.2,390,216.6,389.3,216.4z"/>
									<path id="XMLID_338_" class="st12" d="M390.2,207.3c-0.1,0.1-0.3,0.1-0.5,0.2h-0.1c-0.6,0-1.2-0.5-1.4-1.2
										c-0.1-0.6,0.2-1.1,0.7-1.3c0.1,0,0.2-0.1,0.3-0.1c0.1,0,0.2,0,0.2,0c0,0.2,0.1,0.3,0.1,0.5
										C389.9,206,390.1,206.6,390.2,207.3z"/>
									<path id="XMLID_330_" class="st12" d="M387.1,198.6c-0.6,0.3-1.3,0-1.6-0.6c-0.1-0.1-0.1-0.3-0.1-0.4
										c-0.1-0.5,0.1-1.1,0.6-1.3c0.1,0.1,0.1,0.2,0.2,0.4C386.5,197.3,386.8,198,387.1,198.6z"/>
									<path id="XMLID_335_" class="st12" d="M382.2,190.5c0,0.2-0.1,0.3-0.2,0.5c-0.4,0.5-1.2,0.5-1.7,0
										c-0.2-0.2-0.4-0.5-0.4-0.8c-0.1-0.4,0-0.7,0.3-1c0.2-0.2,0.5-0.4,0.8-0.4c0.1,0.2,0.3,0.3,0.4,0.5
										C381.6,189.7,381.9,190.1,382.2,190.5z"/>
									<path id="XMLID_1038_" class="st12" d="M374.7,185.6c-0.2,0.6-0.9,0.9-1.6,0.6c-0.6-0.3-1-1-0.7-1.7
										c0.2-0.6,0.9-0.9,1.6-0.6C374.6,184.2,374.9,185,374.7,185.6z"/>
								</g>
								<g id="XMLID_1018_">
									<path id="XMLID_1036_" class="st12" d="M366.1,198.2c0,0.5-0.4,0.9-0.9,0.9c-0.5,0-0.9-0.5-0.9-1.1c0-0.5,0.4-0.9,0.9-0.9
										C365.7,197.2,366.1,197.7,366.1,198.2z"/>
									<path id="XMLID_1035_" class="st12" d="M362.6,198.2c0.2,0.5-0.1,1.1-0.6,1.2c-0.5,0.1-1-0.2-1.2-0.7s0.1-1.1,0.6-1.2
										C361.9,197.4,362.4,197.7,362.6,198.2z"/>
									<path id="XMLID_1034_" class="st12" d="M359.5,199.5c0.3,0.4,0.3,1.1-0.1,1.4c-0.4,0.3-1,0.2-1.3-0.2
										c-0.3-0.4-0.3-1.1,0.1-1.4C358.5,198.9,359.1,199,359.5,199.5z"/>
									<path id="XMLID_1033_" class="st12" d="M357,201.8c0.4,0.3,0.6,0.9,0.3,1.4c-0.3,0.4-0.8,0.6-1.3,0.3
										c-0.4-0.3-0.6-0.9-0.3-1.4C356,201.6,356.6,201.5,357,201.8z"/>
									<path id="XMLID_1032_" class="st12" d="M355.5,205c0.5,0.1,0.8,0.7,0.8,1.2c-0.1,0.5-0.6,0.8-1.1,0.7
										c-0.5-0.1-0.8-0.7-0.8-1.2C354.5,205.2,355,204.9,355.5,205z"/>
									<path id="XMLID_1031_" class="st12" d="M355.2,208.6c0.5-0.1,1,0.3,1.1,0.9c0.1,0.5-0.2,1-0.8,1.1c-0.5,0.1-1-0.3-1.1-0.9
										C354.4,209.1,354.7,208.6,355.2,208.6z"/>
									
										<ellipse id="XMLID_1030_" transform="matrix(0.8858 -0.4641 0.4641 0.8858 -58.1604 189.7814)" class="st12" cx="356.5" cy="213.1" rx="0.9" ry="1"/>
									<path id="XMLID_1029_" class="st12" d="M358,215.3c0.3-0.4,0.9-0.4,1.3,0c0.4,0.4,0.4,1,0.1,1.4c-0.3,0.4-0.9,0.4-1.3,0
										C357.8,216.3,357.7,215.7,358,215.3z"/>
									<path id="XMLID_1028_" class="st12" d="M360.9,217.7c0.2-0.5,0.7-0.7,1.2-0.5c0.5,0.2,0.7,0.8,0.6,1.3
										c-0.2,0.5-0.7,0.7-1.2,0.5C360.9,218.8,360.7,218.2,360.9,217.7z"/>
									<path id="XMLID_1027_" class="st12" d="M364.2,219c0-0.5,0.4-0.9,0.9-0.9c0.5,0,0.9,0.5,0.9,1.1c0,0.5-0.4,0.9-0.9,0.9
										C364.6,220,364.2,219.5,364.2,219z"/>
									<path id="XMLID_1026_" class="st12" d="M367.7,219c-0.2-0.5,0.1-1.1,0.6-1.2c0.5-0.1,1,0.2,1.2,0.7
										c0.2,0.5-0.1,1.1-0.6,1.2C368.4,219.8,367.9,219.5,367.7,219z"/>
									<path id="XMLID_1025_" class="st12" d="M370.9,217.7c-0.3-0.4-0.3-1.1,0.1-1.4c0.4-0.3,1-0.2,1.3,0.2
										c0.3,0.4,0.3,1.1-0.1,1.4C371.8,218.3,371.2,218.2,370.9,217.7z"/>
									<path id="XMLID_1024_" class="st12" d="M373.4,215.4c-0.5-0.3-0.6-0.9-0.3-1.4c0.3-0.4,0.8-0.6,1.3-0.2
										c0.5,0.3,0.6,0.9,0.3,1.4S373.8,215.7,373.4,215.4z"/>
									<path id="XMLID_1023_" class="st12" d="M374.9,212.2c-0.5-0.1-0.9-0.7-0.8-1.2c0.1-0.5,0.6-0.8,1.1-0.7
										c0.5,0.1,0.9,0.7,0.8,1.2S375.4,212.3,374.9,212.2z"/>
									<path id="XMLID_1022_" class="st12" d="M375.2,208.6c-0.5,0.1-1-0.3-1.1-0.9c-0.1-0.5,0.3-1,0.8-1.1c0.5-0.1,1,0.3,1.1,0.9
										C376,208,375.7,208.5,375.2,208.6z"/>
									<path id="XMLID_1021_" class="st12" d="M374.3,205c-0.5,0.2-1,0-1.3-0.5c-0.3-0.5-0.1-1.1,0.3-1.3c0.4-0.2,1,0,1.3,0.5
										C374.9,204.1,374.8,204.7,374.3,205z"/>
									<path id="XMLID_1020_" class="st12" d="M372.3,201.8c-0.3,0.4-0.9,0.4-1.3,0c-0.4-0.4-0.4-1-0.1-1.4c0.3-0.4,0.9-0.4,1.3,0
										C372.6,200.8,372.6,201.4,372.3,201.8z"/>
									<path id="XMLID_1019_" class="st12" d="M369.4,199.4c-0.2,0.5-0.7,0.7-1.2,0.5c-0.5-0.2-0.7-0.8-0.6-1.3
										c0.2-0.5,0.7-0.7,1.2-0.5C369.4,198.4,369.6,198.9,369.4,199.4z"/>
								</g>
								<g id="XMLID_993_">
									<path id="XMLID_1017_" class="st12" d="M366.1,193.2c0,0.5-0.4,0.9-0.9,0.9c-0.5,0-0.9-0.5-0.9-1.1c0-0.5,0.4-0.9,0.9-0.9
										C365.7,192.2,366.1,192.7,366.1,193.2z"/>
									<path id="XMLID_1016_" class="st12" d="M362.2,193.2c0.1,0.5-0.2,1-0.7,1.1c-0.5,0.1-1-0.2-1.1-0.8c-0.1-0.5,0.2-1,0.7-1.1
										C361.6,192.3,362.1,192.6,362.2,193.2z"/>
									
										<ellipse id="XMLID_1015_" transform="matrix(0.8842 -0.4671 0.4671 0.8842 -49.4731 189.6758)" class="st12" cx="357.8" cy="194.6" rx="0.9" ry="1"/>
									<path id="XMLID_1014_" class="st12" d="M355.4,196.2c0.4,0.4,0.4,1,0,1.4c-0.4,0.4-0.9,0.3-1.3-0.1c-0.4-0.4-0.4-1,0-1.4
										C354.5,195.7,355.1,195.8,355.4,196.2z"/>
									<path id="XMLID_1013_" class="st12" d="M352.9,199c0.4,0.3,0.6,0.9,0.3,1.4c-0.3,0.4-0.8,0.6-1.3,0.3
										c-0.4-0.3-0.6-0.9-0.3-1.4C351.9,198.8,352.5,198.7,352.9,199z"/>
									<path id="XMLID_1012_" class="st12" d="M351.2,202.5c0.5,0.2,0.8,0.7,0.7,1.2c-0.1,0.5-0.6,0.8-1.1,0.6
										c-0.5-0.2-0.8-0.7-0.7-1.2C350.2,202.6,350.7,202.3,351.2,202.5z"/>
									<path id="XMLID_1011_" class="st12" d="M350.5,206.4c0.5,0,0.9,0.5,0.9,1.1c0,0.5-0.4,0.9-0.9,0.9c-0.5,0-0.9-0.5-0.9-1.1
										C349.6,206.7,350,206.3,350.5,206.4z"/>
									<path id="XMLID_1010_" class="st12" d="M350.8,210.4c0.5-0.1,1,0.3,1.1,0.8c0.1,0.5-0.2,1-0.7,1.1c-0.5,0.1-1-0.3-1.1-0.8
										C350,211,350.3,210.5,350.8,210.4z"/>
									
										<ellipse id="XMLID_1009_" transform="matrix(0.8862 -0.4632 0.4632 0.8862 -59.5883 187.7349)" class="st12" cx="352.4" cy="215.2" rx="0.9" ry="1"/>
									<path id="XMLID_1008_" class="st12" d="M354.1,217.8c0.4-0.3,0.9-0.3,1.3,0.1s0.4,1,0,1.4c-0.4,0.3-0.9,0.3-1.3-0.1
										C353.8,218.8,353.8,218.2,354.1,217.8z"/>
									<path id="XMLID_1007_" class="st12" d="M357,220.7c0.3-0.4,0.8-0.6,1.3-0.2c0.4,0.3,0.6,0.9,0.3,1.4
										c-0.3,0.4-0.8,0.6-1.3,0.2C356.9,221.8,356.7,221.2,357,220.7z"/>
									<path id="XMLID_1006_" class="st12" d="M360.4,222.8c0.1-0.5,0.6-0.8,1.1-0.6c0.5,0.2,0.8,0.7,0.7,1.3
										c-0.1,0.5-0.6,0.8-1.1,0.6C360.6,223.9,360.3,223.3,360.4,222.8z"/>
									<path id="XMLID_1005_" class="st12" d="M364.2,224c0-0.5,0.4-0.9,0.9-0.9c0.5,0,0.9,0.5,0.9,1.1c0,0.5-0.4,0.9-0.9,0.9
										C364.6,225,364.2,224.5,364.2,224z"/>
									<path id="XMLID_1004_" class="st12" d="M368.1,224c-0.1-0.5,0.2-1,0.7-1.1c0.5-0.1,1,0.3,1.1,0.8c0.1,0.5-0.2,1-0.7,1.1
										C368.7,224.9,368.2,224.6,368.1,224z"/>
									<path id="XMLID_1003_" class="st12" d="M371.7,223.1c-0.3-0.5-0.1-1.1,0.3-1.3c0.4-0.2,1,0,1.3,0.5
										c0.3,0.5,0.1,1.1-0.3,1.3C372.6,223.8,372,223.6,371.7,223.1z"/>
									<path id="XMLID_1002_" class="st12" d="M375,221.1c-0.4-0.4-0.4-1,0-1.4c0.4-0.4,1-0.3,1.3,0.1c0.4,0.4,0.4,1,0,1.4
										C375.9,221.6,375.3,221.5,375,221.1z"/>
									<path id="XMLID_1001_" class="st12" d="M377.5,218.3c-0.5-0.3-0.6-0.9-0.3-1.4c0.3-0.4,0.8-0.6,1.3-0.2
										c0.5,0.3,0.6,0.9,0.3,1.4C378.6,218.5,378,218.6,377.5,218.3z"/>
									<path id="XMLID_1000_" class="st12" d="M379.2,214.8c-0.5-0.2-0.8-0.8-0.7-1.3s0.7-0.8,1.2-0.6c0.5,0.2,0.8,0.8,0.7,1.3
										C380.3,214.7,379.8,214.9,379.2,214.8z"/>
									<path id="XMLID_999_" class="st12" d="M380,210.8c-0.5,0-0.9-0.5-0.9-1.1c0-0.5,0.4-0.9,0.9-0.9c0.5,0,0.9,0.5,0.9,1.1
										C380.9,210.5,380.5,210.9,380,210.8z"/>
									<path id="XMLID_998_" class="st12" d="M379.7,206.7c-0.5,0.1-1-0.3-1.2-0.8c-0.1-0.5,0.2-1.1,0.7-1.2
										c0.5-0.1,1,0.3,1.2,0.8C380.5,206.1,380.2,206.6,379.7,206.7z"/>
									<path id="XMLID_997_" class="st12" d="M378.5,202.8c-0.5,0.2-1,0-1.3-0.5c-0.3-0.5-0.1-1.1,0.3-1.3c0.5-0.2,1,0,1.3,0.5
										C379.1,202,378.9,202.6,378.5,202.8z"/>
									<path id="XMLID_996_" class="st12" d="M376.3,199.2c-0.4,0.4-1,0.3-1.3-0.1c-0.4-0.4-0.4-1,0-1.4c0.4-0.4,1-0.3,1.3,0.1
										C376.7,198.3,376.7,198.9,376.3,199.2z"/>
									<path id="XMLID_995_" class="st12" d="M373.4,196.3c-0.3,0.4-0.8,0.6-1.3,0.3c-0.4-0.3-0.6-0.9-0.3-1.4
										c0.3-0.4,0.8-0.6,1.3-0.3C373.5,195.3,373.6,195.9,373.4,196.3z"/>
									<path id="XMLID_994_" class="st12" d="M369.9,194.3c-0.1,0.5-0.6,0.8-1.1,0.6c-0.5-0.2-0.8-0.7-0.7-1.3
										c0.1-0.5,0.6-0.8,1.1-0.6C369.7,193.2,370,193.8,369.9,194.3z"/>
								</g>
							</g>
						</g>
						<g id="XMLID_1158_" class="st30">
							<path id="XMLID_4_" class="st31" d="M385.5,202.6c0,13.9-15,23.9-33.3,22.2c-18-1.6-32.3-13.9-32.3-27.4
								c0-13.5,14.3-23.5,32.3-22.3C370.4,176.4,385.5,188.7,385.5,202.6z"/>
							<path class="st32" d="M384.5,201.5c0,13-14.3,22.3-31.8,20.7c-17.2-1.5-30.9-13-30.9-25.6c0-12.6,13.7-21.9,30.9-20.8
								C370.2,177,384.5,188.5,384.5,201.5z"/>
							<path class="st33" d="M383.6,200.4c0,12.1-13.7,20.7-30.3,19.2c-16.4-1.4-29.5-12.1-29.5-23.9c0-11.7,13.1-20.4,29.5-19.3
								C370,177.6,383.6,188.3,383.6,200.4z"/>
							<path class="st34" d="M382.7,199.3c0,11.2-13,19.1-28.8,17.7c-15.6-1.4-28-11.3-28-22.1c0-10.9,12.4-18.8,28-17.8
								C369.7,178.2,382.7,188.1,382.7,199.3z"/>
							<path class="st35" d="M381.8,198.2c0,10.3-12.3,17.5-27.3,16.2c-14.8-1.3-26.6-10.4-26.6-20.4c0-10,11.8-17.3,26.6-16.3
								C369.5,178.8,381.8,187.9,381.8,198.2z"/>
							<path class="st36" d="M380.9,197.1c0,9.3-11.6,15.9-25.8,14.7c-14-1.2-25.2-9.5-25.2-18.6c0-9.1,11.2-15.7,25.2-14.7
								C369.3,179.4,380.9,187.8,380.9,197.1z"/>
							<path class="st37" d="M380,196c0,8.4-11,14.3-24.3,13.2c-13.2-1.1-23.7-8.7-23.7-16.9c0-8.2,10.6-14.1,23.7-13.2
								C369,180,380,187.6,380,196z"/>
							<path class="st38" d="M379.1,194.9c0,7.5-10.3,12.7-22.8,11.7c-12.4-1-22.3-7.8-22.3-15.1c0-7.3,9.9-12.6,22.3-11.7
								C368.8,180.6,379.1,187.4,379.1,194.9z"/>
							<path class="st39" d="M378.2,193.8c0,6.6-9.6,11.1-21.3,10.2c-11.6-0.9-20.9-6.9-20.9-13.4c0-6.4,9.3-11,20.9-10.2
								C368.6,181.2,378.2,187.2,378.2,193.8z"/>
							<path class="st40" d="M377.3,192.7c0,5.7-8.9,9.5-19.8,8.7c-10.8-0.9-19.5-6.1-19.5-11.6c0-5.5,8.7-9.4,19.5-8.7
								C368.4,181.8,377.3,187,377.3,192.7z"/>
							<path class="st41" d="M376.4,191.6c0,4.8-8.3,8-18.3,7.2c-10-0.8-18-5.2-18-9.9c0-4.7,8-7.9,18-7.2
								C368.1,182.4,376.4,186.9,376.4,191.6z"/>
							<path id="XMLID_3_" class="st42" d="M375.5,190.5c0,3.8-7.6,6.4-16.9,5.7c-9.2-0.7-16.6-4.3-16.6-8.1c0-3.8,7.4-6.3,16.6-5.7
								C367.9,183,375.5,186.7,375.5,190.5z"/>
						</g>
					</g>
					<g id="XMLID_1805_">
						<g id="XMLID_1806_">
							<path id="XMLID_1807_" class="st0" d="M432.2,160.6l-43.4-2.5l0,0c-3.5-2.4-7.5-4.4-12-6.2c-7.5-2.9-16-4.6-24.6-5.1
								c-8.5-0.5-16.9,0.4-24.1,2.4c-4.3,1.2-8.1,2.8-11.4,4.7l0,0l-39.1-2.3l0-0.4l39,2.3c3.3-1.9,7.1-3.5,11.4-4.7
								c7.3-2,15.6-2.9,24.2-2.4c8.7,0.5,17.2,2.2,24.8,5.1c4.5,1.7,8.6,3.8,12,6.2l43.2,2.5V160.6z"/>
						</g>
						<g id="XMLID_977_">
							<path id="XMLID_978_" class="st43" d="M432.2,161.1l-43.4-2.5l0,0c-3.5-2.4-7.5-4.4-12-6.2c-7.5-2.9-16-4.6-24.6-5.1
								c-8.5-0.5-16.9,0.4-24.1,2.4c-4.3,1.2-8.1,2.8-11.4,4.7l0,0l-39.1-2.3l0-0.4l39,2.3c3.3-1.9,7.1-3.5,11.4-4.7
								c7.3-2,15.6-2.9,24.2-2.4c8.7,0.5,17.2,2.2,24.8,5.1c4.5,1.7,8.6,3.8,12,6.2l43.2,2.5V161.1z"/>
						</g>
						<g id="XMLID_975_">
							<path id="XMLID_976_" class="st43" d="M327.8,149.6l0-43.6l0.4,0l0,43c7.2-2,15.5-2.8,24-2.3c8.6,0.5,17,2.2,24.5,5l0-44
								l0.4,0l0,44.5l-0.3-0.1c-7.5-2.9-16-4.6-24.6-5.1c-8.5-0.5-16.9,0.4-24.1,2.4L327.8,149.6z"/>
						</g>
						<g id="XMLID_1808_">
							<polygon id="XMLID_1809_" class="st0" points="327.8,123.8 277.5,121.6 277.5,121.2 327.8,123.4 							"/>
						</g>
						<g id="XMLID_882_">
							<polygon id="XMLID_883_" class="st43" points="328,124.1 277.5,121.9 277.5,121.5 328,123.8 							"/>
						</g>
						<polygon id="XMLID_1820_" class="st43" points="432.2,115.2 432.2,115.7 277.5,109.6 277.5,109.2 						"/>
					</g>
					<g id="XMLID_1210_">
						<g id="XMLID_1804_">
							<g id="XMLID_229_">
								<g id="XMLID_1170_">
									<linearGradient id="XMLID_18_" gradientUnits="userSpaceOnUse" x1="297.7188" y1="148.4372" x2="297.7188" y2="141.071">
										<stop  offset="0" style="stop-color:#EBEBEC"/>
										<stop  offset="0.1912" style="stop-color:#E7E8E9"/>
										<stop  offset="0.3956" style="stop-color:#DCDDDF"/>
										<stop  offset="0.6062" style="stop-color:#CBCCCE"/>
										<stop  offset="0.8196" style="stop-color:#B2B4B6"/>
										<stop  offset="1" style="stop-color:#999B9E"/>
									</linearGradient>
									<polygon id="XMLID_2567_" class="st44" points="282.6,146.7 282.6,141.1 312.9,142.7 312.9,148.4 									"/>
									<path id="XMLID_1885_" class="st45" d="M312.7,142.9l0,5.4l-30-1.7l0-5.3L312.7,142.9L312.7,142.9z M313,142.5l-0.3,0
										l-30-1.6l-0.3,0l0,0.4l0,5.3l0,0.4l0.3,0l30,1.7l0.3,0l0-0.4l0-5.4L313,142.5L313,142.5z"/>
								</g>
							</g>
							<g id="XMLID_1803_">
								<g id="XMLID_1175_">
									<linearGradient id="XMLID_19_" gradientUnits="userSpaceOnUse" x1="290.9026" y1="127.5652" x2="290.9456" y2="126.3309">
										<stop  offset="0" style="stop-color:#EBEBEC"/>
										<stop  offset="0.1912" style="stop-color:#E7E8E9"/>
										<stop  offset="0.3956" style="stop-color:#DCDDDF"/>
										<stop  offset="0.6062" style="stop-color:#CBCCCE"/>
										<stop  offset="0.8196" style="stop-color:#B2B4B6"/>
										<stop  offset="1" style="stop-color:#999B9E"/>
									</linearGradient>
									<polygon id="XMLID_1176_" class="st46" points="298.9,127.8 283,127.1 283,126.1 298.9,126.8 									"/>
									<linearGradient id="XMLID_20_" gradientUnits="userSpaceOnUse" x1="290.9037" y1="131.1112" x2="290.9478" y2="129.8509">
										<stop  offset="0" style="stop-color:#EBEBEC"/>
										<stop  offset="0.1912" style="stop-color:#E7E8E9"/>
										<stop  offset="0.3956" style="stop-color:#DCDDDF"/>
										<stop  offset="0.6062" style="stop-color:#CBCCCE"/>
										<stop  offset="0.8196" style="stop-color:#B2B4B6"/>
										<stop  offset="1" style="stop-color:#999B9E"/>
									</linearGradient>
									<polygon id="XMLID_1177_" class="st47" points="298.9,131.4 283,130.6 283,129.6 298.9,130.3 									"/>
									<linearGradient id="XMLID_21_" gradientUnits="userSpaceOnUse" x1="290.9048" y1="134.657" x2="290.9498" y2="133.3707">
										<stop  offset="0" style="stop-color:#EBEBEC"/>
										<stop  offset="0.1912" style="stop-color:#E7E8E9"/>
										<stop  offset="0.3956" style="stop-color:#DCDDDF"/>
										<stop  offset="0.6062" style="stop-color:#CBCCCE"/>
										<stop  offset="0.8196" style="stop-color:#B2B4B6"/>
										<stop  offset="1" style="stop-color:#999B9E"/>
									</linearGradient>
									<polygon id="XMLID_1178_" class="st48" points="298.9,134.9 283,134.1 283,133.1 298.9,133.9 									"/>
								</g>
								<g id="XMLID_1180_">
									<linearGradient id="XMLID_22_" gradientUnits="userSpaceOnUse" x1="314.1448" y1="128.6619" x2="314.1884" y2="127.4122">
										<stop  offset="0" style="stop-color:#EBEBEC"/>
										<stop  offset="0.1912" style="stop-color:#E7E8E9"/>
										<stop  offset="0.3956" style="stop-color:#DCDDDF"/>
										<stop  offset="0.6062" style="stop-color:#CBCCCE"/>
										<stop  offset="0.8196" style="stop-color:#B2B4B6"/>
										<stop  offset="1" style="stop-color:#999B9E"/>
									</linearGradient>
									<polygon id="XMLID_1184_" class="st49" points="322.3,128.9 306.1,128.2 306.1,127.1 322.3,127.9 									"/>
									<linearGradient id="XMLID_23_" gradientUnits="userSpaceOnUse" x1="314.1456" y1="132.2462" x2="314.1902" y2="130.9699">
										<stop  offset="0" style="stop-color:#EBEBEC"/>
										<stop  offset="0.1912" style="stop-color:#E7E8E9"/>
										<stop  offset="0.3956" style="stop-color:#DCDDDF"/>
										<stop  offset="0.6062" style="stop-color:#CBCCCE"/>
										<stop  offset="0.8196" style="stop-color:#B2B4B6"/>
										<stop  offset="1" style="stop-color:#999B9E"/>
									</linearGradient>
									<polygon id="XMLID_1182_" class="st50" points="322.3,132.5 306.1,131.7 306.1,130.7 322.3,131.5 									"/>
									<linearGradient id="XMLID_24_" gradientUnits="userSpaceOnUse" x1="314.1466" y1="135.8303" x2="314.192" y2="134.5275">
										<stop  offset="0" style="stop-color:#EBEBEC"/>
										<stop  offset="0.1912" style="stop-color:#E7E8E9"/>
										<stop  offset="0.3956" style="stop-color:#DCDDDF"/>
										<stop  offset="0.6062" style="stop-color:#CBCCCE"/>
										<stop  offset="0.8196" style="stop-color:#B2B4B6"/>
										<stop  offset="1" style="stop-color:#999B9E"/>
									</linearGradient>
									<polygon id="XMLID_1181_" class="st51" points="322.3,136.1 306.1,135.3 306.1,134.2 322.3,135.1 									"/>
								</g>
							</g>
						</g>
						<g id="XMLID_1796_">
							<g id="XMLID_1183_">
								<g id="XMLID_916_">
									<path id="XMLID_228_" class="st52" d="M382.7,145.2c-0.6,0-1-0.5-1-1.1c0-0.6,0.4-1,1-1c0.6,0,1,0.5,1,1.1
										C383.7,144.8,383.3,145.2,382.7,145.2z"/>
									<path id="XMLID_920_" class="st53" d="M382.2,144.1c0,0.3,0.2,0.6,0.5,0.6c0.3,0,0.5-0.2,0.5-0.5c0-0.3-0.2-0.6-0.5-0.6
										C382.4,143.6,382.2,143.8,382.2,144.1z"/>
									<path id="XMLID_227_" class="st52" d="M389.8,138.4c-0.6,0-1-0.5-1-1.1c0-0.6,0.5-1,1-1c0.6,0,1,0.5,1,1.1
										C390.8,138,390.4,138.4,389.8,138.4z"/>
									<path id="XMLID_919_" class="st53" d="M389.2,137.4c0,0.3,0.2,0.6,0.5,0.6c0.3,0,0.6-0.2,0.6-0.5c0-0.3-0.2-0.6-0.6-0.6
										C389.5,136.8,389.2,137,389.2,137.4z"/>
									<path id="XMLID_226_" class="st52" d="M389.8,152.7c-0.6,0-1-0.5-1-1.1c0-0.6,0.5-1,1-1c0.6,0,1,0.5,1,1.1
										C390.8,152.3,390.4,152.8,389.8,152.7z"/>
									<path id="XMLID_918_" class="st53" d="M389.2,151.7c0,0.3,0.2,0.6,0.5,0.6c0.3,0,0.6-0.2,0.6-0.5c0-0.3-0.2-0.6-0.6-0.6
										C389.5,151.1,389.2,151.3,389.2,151.7z"/>
									<path id="XMLID_231_" class="st52" d="M397,146c-0.6,0-1-0.5-1-1.1c0-0.6,0.5-1,1-1c0.6,0,1,0.5,1,1.1
										C398,145.5,397.5,146,397,146z"/>
									<path id="XMLID_917_" class="st53" d="M396.4,144.9c0,0.3,0.2,0.6,0.6,0.6c0.3,0,0.6-0.2,0.6-0.5c0-0.3-0.2-0.6-0.6-0.6
										C396.7,144.3,396.4,144.6,396.4,144.9z"/>
								</g>
								<g id="XMLID_225_">
									<g id="XMLID_921_">
										<path id="XMLID_925_" class="st14" d="M385.2,144.3c0,2.6,2.1,4.9,4.6,5c2.6,0.1,4.6-1.9,4.6-4.5c0-2.6-2.1-4.9-4.6-5
											C387.2,139.6,385.2,141.7,385.2,144.3z"/>
										<path id="XMLID_922_" class="st43" d="M389.8,149.5c-2.7-0.1-4.8-2.5-4.8-5.2c0-2.7,2.2-4.9,4.8-4.7
											c2.7,0.1,4.8,2.5,4.8,5.2C394.6,147.5,392.5,149.7,389.8,149.5z M389.8,140c-2.4-0.1-4.4,1.8-4.4,4.3c0,2.5,2,4.7,4.4,4.8
											c2.4,0.1,4.4-1.8,4.4-4.3C394.2,142.3,392.2,140.1,389.8,140z"/>
										<path id="XMLID_236_" class="st54" d="M393.1,144.7c0,1.9-1.5,3.3-3.3,3.2c-1.8-0.1-3.3-1.7-3.3-3.6s1.5-3.3,3.3-3.2
											C391.6,141.2,393.1,142.8,393.1,144.7z"/>
										<path id="XMLID_237_" class="st55" d="M391.5,144.6c0,1-0.7,1.7-1.7,1.6c-0.9,0-1.7-0.9-1.7-1.8c0-0.9,0.7-1.7,1.7-1.6
											C390.7,142.9,391.5,143.7,391.5,144.6z"/>
									</g>
									<polygon id="XMLID_915_" class="st43" points="392.2,144.9 392.2,144.2 394.4,144.3 394.4,145 									"/>
								</g>
							</g>
							<g id="XMLID_224_">
								<g id="XMLID_1237_">
									<path id="XMLID_1228_" class="st56" d="M412,120c-0.6,0-1-0.5-1-1.1c0-0.6,0.5-1,1-1c0.6,0,1,0.5,1,1.1
										C413,119.6,412.5,120,412,120z"/>
									<path id="XMLID_1255_" class="st57" d="M412.6,119c0,0.4-0.3,0.6-0.6,0.6c-0.3,0-0.6-0.3-0.6-0.7c0-0.4,0.3-0.6,0.6-0.6
										C412.3,118.3,412.6,118.6,412.6,119z"/>
									<path id="XMLID_1227_" class="st56" d="M403.8,122.7c-0.3,0-0.6-0.2-0.8-0.4c-0.2-0.2-0.3-0.5-0.2-0.8
										c0-0.3,0.2-0.5,0.4-0.7c0.2-0.1,0.4-0.2,0.6-0.2c0.3,0,0.6,0.2,0.8,0.4c0.4,0.5,0.3,1.1-0.1,1.5
										C404.3,122.6,404.1,122.7,403.8,122.7z"/>
									<path id="XMLID_1253_" class="st57" d="M404.3,121.3c0.2,0.3,0.2,0.7-0.1,0.9c-0.3,0.2-0.7,0.2-0.9-0.1
										c-0.2-0.3-0.2-0.7,0.1-0.9S404.1,121,404.3,121.3z"/>
									<path id="XMLID_1226_" class="st56" d="M399.5,130.1c-0.1,0-0.1,0-0.2,0c-0.3-0.1-0.5-0.2-0.7-0.5
										c-0.2-0.2-0.2-0.5-0.2-0.8c0.1-0.5,0.5-0.8,1-0.8c0.1,0,0.1,0,0.2,0c0.3,0.1,0.5,0.2,0.7,0.5c0.2,0.2,0.2,0.5,0.2,0.8
										C400.4,129.8,400,130.2,399.5,130.1z"/>
									<path id="XMLID_1251_" class="st57" d="M399.6,128.5c0.3,0.1,0.6,0.4,0.5,0.8c-0.1,0.3-0.4,0.6-0.7,0.5
										c-0.3-0.1-0.6-0.4-0.5-0.8C399,128.6,399.3,128.4,399.6,128.5z"/>
									<path id="XMLID_1225_" class="st56" d="M401,138.9c-0.4,0-0.7-0.2-0.9-0.6c-0.3-0.5-0.1-1.1,0.4-1.4
										c0.2-0.1,0.3-0.1,0.5-0.1c0.4,0,0.7,0.2,0.9,0.6c0.3,0.5,0.1,1.1-0.4,1.4C401.4,138.9,401.2,138.9,401,138.9z"/>
									
										<ellipse id="XMLID_1249_" transform="matrix(0.877 -0.4805 0.4805 0.877 -16.9257 209.6389)" class="st57" cx="401" cy="137.9" rx="0.6" ry="0.6"/>
									<path id="XMLID_1224_" class="st56" d="M407.6,144.9c-0.1,0-0.2,0-0.3-0.1c-0.5-0.2-0.8-0.8-0.6-1.4c0.1-0.4,0.5-0.7,1-0.6
										c0.1,0,0.2,0,0.3,0.1c0.5,0.2,0.8,0.8,0.6,1.4C408.5,144.7,408.1,145,407.6,144.9z"/>
									<path id="XMLID_1247_" class="st57" d="M407.1,143.7c0.1-0.3,0.5-0.5,0.8-0.3c0.3,0.1,0.5,0.5,0.4,0.8
										c-0.1,0.3-0.5,0.5-0.8,0.3C407.1,144.4,406.9,144,407.1,143.7z"/>
									<path id="XMLID_1223_" class="st56" d="M416.3,145.4c-0.4,0-0.8-0.3-1-0.7c-0.2-0.5,0.1-1.1,0.6-1.3c0.1,0,0.2-0.1,0.3,0
										c0.4,0,0.8,0.3,1,0.7c0.2,0.6-0.1,1.1-0.6,1.3C416.6,145.4,416.5,145.4,416.3,145.4z"/>
									<path id="XMLID_1245_" class="st57" d="M415.7,144.5c-0.1-0.3,0-0.7,0.4-0.8c0.3-0.1,0.7,0.1,0.8,0.4
										c0.1,0.3,0,0.7-0.4,0.8C416.2,145.1,415.9,144.9,415.7,144.5z"/>
									<path id="XMLID_1222_" class="st56" d="M423,140c-0.2,0-0.4-0.1-0.5-0.2c-0.5-0.3-0.7-1-0.4-1.4c0.2-0.3,0.5-0.5,0.9-0.5
										c0.2,0,0.4,0.1,0.5,0.2c0.2,0.2,0.4,0.4,0.5,0.7c0.1,0.3,0,0.6-0.1,0.8C423.8,139.8,423.4,140,423,140z"/>
									<path id="XMLID_1243_" class="st57" d="M422.7,139.5c-0.3-0.2-0.4-0.6-0.2-0.9c0.2-0.3,0.6-0.4,0.9-0.2
										c0.3,0.2,0.4,0.6,0.2,0.9C423.4,139.6,423,139.7,422.7,139.5z"/>
									<path id="XMLID_1221_" class="st56" d="M424.6,131.3c-0.5,0-0.9-0.4-1-0.9c0-0.3,0-0.6,0.2-0.8c0.2-0.2,0.4-0.4,0.7-0.4
										c0.1,0,0.1,0,0.2,0c0.5,0,0.9,0.4,1,0.9c0,0.3,0,0.6-0.2,0.8c-0.2,0.2-0.4,0.4-0.7,0.4
										C424.7,131.3,424.6,131.3,424.6,131.3z"/>
									<path id="XMLID_1241_" class="st57" d="M424.7,130.9c-0.3,0-0.7-0.2-0.7-0.6c-0.1-0.4,0.2-0.7,0.5-0.7
										c0.3,0,0.7,0.2,0.7,0.6C425.3,130.5,425,130.9,424.7,130.9z"/>
									<path id="XMLID_1220_" class="st56" d="M420.2,123.4c-0.2,0-0.5-0.1-0.7-0.3c-0.2-0.2-0.3-0.4-0.4-0.7
										c0-0.3,0.1-0.5,0.2-0.8c0.2-0.2,0.5-0.4,0.8-0.3c0.2,0,0.5,0.1,0.7,0.3c0.4,0.4,0.5,1.1,0.1,1.5
										C420.8,123.3,420.5,123.4,420.2,123.4z"/>
									<path id="XMLID_1239_" class="st57" d="M420.7,122.8c-0.2,0.3-0.6,0.3-0.9,0c-0.3-0.2-0.3-0.6-0.1-0.9
										c0.2-0.3,0.6-0.3,0.9,0C420.9,122.1,420.9,122.5,420.7,122.8z"/>
								</g>
								<g id="XMLID_235_">
									<g id="XMLID_239_">
										<g id="XMLID_1198_">
											<path id="XMLID_1197_" class="st14" d="M412,142.3c-5.6-0.3-10-5.1-10-10.8c0-5.7,4.5-10.1,10-9.8
												c5.6,0.2,10.1,5.1,10.1,10.8C422.1,138.1,417.6,142.6,412,142.3z"/>
											<path id="XMLID_1196_" class="st13" d="M412,142.1c-5.5-0.3-9.9-5.1-9.9-10.6c0-5.6,4.4-9.9,9.9-9.7
												c5.5,0.2,10,5,10,10.6C422,138.1,417.5,142.4,412,142.1z"/>
											<path id="XMLID_1195_" class="st56" d="M412,142c-5.4-0.3-9.8-5-9.8-10.5c0-5.5,4.4-9.8,9.8-9.6
												c5.4,0.2,9.9,4.9,9.9,10.5C421.9,138,417.4,142.3,412,142z"/>
											<path id="XMLID_1194_" class="st58" d="M412,141.9c-5.3-0.3-9.7-4.9-9.7-10.4c0-5.4,4.3-9.7,9.7-9.5
												c5.4,0.2,9.8,4.9,9.8,10.4C421.7,137.9,417.4,142.2,412,141.9z"/>
											<path id="XMLID_1193_" class="st45" d="M412,141.8c-5.3-0.3-9.5-4.9-9.5-10.2c0-5.4,4.3-9.6,9.5-9.3
												c5.3,0.2,9.6,4.8,9.6,10.2C421.6,137.8,417.3,142,412,141.8z"/>
										</g>
										<path id="XMLID_1191_" class="st59" d="M421.5,132.4c0,5.4-4.3,9.5-9.5,9.2c-5.2-0.3-9.4-4.8-9.4-10.1
											c0-5.3,4.2-9.4,9.4-9.2C417.2,122.5,421.5,127.1,421.5,132.4z"/>
									</g>
									<g id="XMLID_249_">
										<g id="XMLID_1192_">
											<path id="XMLID_2750_" class="st60" d="M413.7,139.5l-3.5-0.2c-0.5,0-0.9-0.5-0.9-1l0-13c0-0.5,0.4-0.9,0.9-0.9l3.5,0.1
												c0.5,0,0.9,0.5,0.9,1l0,13C414.6,139.1,414.2,139.5,413.7,139.5z"/>
											<path id="XMLID_2815_" class="st61" d="M413.7,139.7l-3.5-0.2c-0.6,0-1.1-0.6-1.1-1.2l0-13c0-0.6,0.5-1.1,1.1-1.1
												l3.5,0.1c0.6,0,1.1,0.6,1.1,1.2l0,13C414.8,139.2,414.3,139.7,413.7,139.7z M410.3,124.7c-0.4,0-0.7,0.3-0.7,0.7l0,13
												c0,0.4,0.3,0.7,0.7,0.8l3.5,0.2c0.4,0,0.7-0.3,0.7-0.7l0-13c0-0.4-0.3-0.7-0.7-0.8L410.3,124.7z"/>
										</g>
										<g id="XMLID_1199_">
											<polygon id="XMLID_2_" class="st55" points="414.4,138.6 409.6,138.4 409.6,130.9 414.4,131.2 											"/>
											<polygon class="st62" points="414.4,138.4 409.6,138.2 409.6,131.1 414.4,131.4 											"/>
											<polygon class="st63" points="414.3,138.3 409.7,138 409.7,131.4 414.3,131.6 											"/>
											<polygon class="st64" points="414.2,138.1 409.7,137.9 409.7,131.6 414.2,131.8 											"/>
											<polygon class="st65" points="414.2,137.9 409.8,137.7 409.8,131.8 414.2,132 											"/>
											<polygon class="st66" points="414.1,137.7 409.9,137.5 409.9,132 414.1,132.2 											"/>
											<polygon class="st67" points="414,137.6 409.9,137.4 409.9,132.2 414,132.4 											"/>
											<polygon class="st68" points="414,137.4 410,137.2 410,132.4 414,132.6 											"/>
											<polygon class="st69" points="413.9,137.2 410,137.1 410,132.6 413.9,132.8 											"/>
											<polygon class="st70" points="413.9,137.1 410.1,136.9 410.1,132.8 413.9,133 											"/>
											<polygon class="st71" points="413.8,136.9 410.2,136.7 410.2,133 413.8,133.2 											"/>
											<polygon id="XMLID_1_" class="st54" points="413.7,136.7 410.2,136.6 410.2,133.2 413.7,133.4 											"/>
										</g>
										<polygon id="XMLID_1216_" class="st56" points="412.5,127.9 411.4,127.8 411.4,125 412.5,125.1 										"/>
									</g>
								</g>
							</g>
							<g id="XMLID_1795_">
								<g id="XMLID_1172_">
									<g id="XMLID_328_">
										<path id="XMLID_913_" class="st43" d="M407.9,153.6c-0.7,0-1.2-0.6-1.2-1.3l0-0.8c0-0.7,0.6-1.2,1.2-1.2l4.7,0.3
											c0.7,0,1.3,0.6,1.3,1.3v0.8c0,0.7-0.6,1.2-1.3,1.2L407.9,153.6z"/>
										<path id="XMLID_912_" class="st53" d="M413.5,152.6c0,0.5-0.4,0.9-0.9,0.9l-4.7-0.3c-0.5,0-0.9-0.5-0.9-1l0-0.8
											c0-0.5,0.4-0.9,0.9-0.9l4.7,0.3c0.5,0,0.9,0.5,0.9,1L413.5,152.6z"/>
									</g>
									<path id="XMLID_1171_" class="st72" d="M412.4,152.1l-4.3-0.2c-0.2,0-0.4-0.2-0.4-0.4v-0.1c0-0.2,0.2-0.4,0.4-0.4l4.3,0.2
										c0.2,0,0.4,0.2,0.4,0.4v0.1C412.8,152,412.6,152.2,412.4,152.1z"/>
								</g>
								<g id="XMLID_1174_">
									<g id="XMLID_329_">
										<path id="XMLID_337_" class="st43" d="M420.1,154.3c-0.7,0-1.3-0.6-1.3-1.4v-0.8c0-0.7,0.6-1.2,1.3-1.2l4.7,0.3
											c0.7,0,1.3,0.6,1.3,1.4v0.8c0,0.7-0.6,1.3-1.3,1.2L420.1,154.3z"/>
										<path id="XMLID_340_" class="st73" d="M425.8,153.3c0,0.5-0.4,0.9-0.9,0.9l-4.7-0.3c-0.5,0-0.9-0.5-0.9-1l0-0.8
											c0-0.5,0.4-0.9,0.9-0.9l4.7,0.3c0.5,0,0.9,0.5,0.9,1V153.3z"/>
									</g>
									<path id="XMLID_1173_" class="st74" d="M424.7,152.8l-4.4-0.2c-0.2,0-0.4-0.2-0.4-0.4V152c0-0.2,0.2-0.4,0.4-0.4l4.4,0.2
										c0.2,0,0.4,0.2,0.4,0.4v0.1C425.1,152.7,424.9,152.8,424.7,152.8z"/>
								</g>
							</g>
						</g>
						<g id="XMLID_1209_">
							<g id="XMLID_1187_">
								<g id="XMLID_938_">
									<g id="XMLID_959_">
										<path id="XMLID_963_" class="st75" d="M356.4,140.1c0,2.6-2,4.7-4.5,4.5c-2.5-0.1-4.5-2.4-4.5-5c0-2.6,2-4.6,4.5-4.5
											C354.4,135.2,356.4,137.4,356.4,140.1z"/>
										<path id="XMLID_960_" class="st43" d="M351.9,144.7c-2.6-0.1-4.6-2.4-4.6-5.1c0-2.7,2.1-4.8,4.6-4.6
											c2.6,0.1,4.7,2.4,4.7,5.1C356.5,142.8,354.5,144.8,351.9,144.7z M351.9,135.2c-2.4-0.1-4.4,1.9-4.4,4.4
											c0,2.6,2,4.7,4.4,4.9c2.4,0.1,4.4-1.8,4.4-4.4C356.3,137.5,354.3,135.3,351.9,135.2z"/>
									</g>
									<g id="XMLID_954_">
										<path id="XMLID_958_" class="st75" d="M346.3,140.5l-6.8-0.4l0,4.2l7.8,0.4l0-1.7C346.8,142.4,346.4,141.5,346.3,140.5z"
											/>
										<path id="XMLID_955_" class="st43" d="M347.4,144.9l-8-0.4l0-4.5l7,0.4l0,0.1c0.1,0.9,0.5,1.8,1,2.6l0,0L347.4,144.9z
											 M339.6,144.3l7.6,0.4l0-1.5c-0.5-0.8-0.9-1.6-1-2.5l-6.6-0.3L339.6,144.3z"/>
									</g>
									<g id="XMLID_949_">
										<path id="XMLID_953_" class="st75" d="M357.5,141.1c-0.1,0.9-0.5,1.8-1,2.5l0,1.7l7.9,0.4l0-4.3L357.5,141.1z"/>
										<path id="XMLID_950_" class="st43" d="M364.5,145.9l-8.2-0.4l0-1.9l0,0c0.5-0.7,0.9-1.6,1-2.5l0-0.1l7.1,0.4L364.5,145.9z
											 M356.6,145.2l7.7,0.4l0-4.1l-6.7-0.3c-0.2,0.9-0.5,1.7-1,2.5L356.6,145.2z"/>
									</g>
									<g id="XMLID_944_">
										<path id="XMLID_948_" class="st75" d="M356.5,134.8l0,1.7c0.5,0.8,0.9,1.7,1,2.6l6.9,0.4l0-4.3L356.5,134.8z"/>
										<path id="XMLID_945_" class="st43" d="M364.5,139.6l-7.1-0.4l0-0.1c-0.1-0.9-0.5-1.8-1-2.6l0,0l0-1.9l8.2,0.4L364.5,139.6
											z M357.6,139.1l6.7,0.3l0-4.1l-7.7-0.4l0,1.5C357.1,137.3,357.5,138.1,357.6,139.1z"/>
									</g>
									<g id="XMLID_939_">
										<path id="XMLID_943_" class="st75" d="M347.3,136.1l0-1.7l-7.8-0.4l0,4.3l6.8,0.3C346.4,137.6,346.8,136.8,347.3,136.1z"
											/>
										<path id="XMLID_940_" class="st43" d="M346.4,138.7l-7-0.4l0-4.5l8,0.4l0,1.8l0,0C346.9,136.9,346.5,137.7,346.4,138.7
											L346.4,138.7z M339.6,138.1l6.6,0.3c0.2-0.9,0.5-1.7,1-2.4l0-1.5l-7.6-0.4L339.6,138.1z"/>
									</g>
								</g>
								<g id="XMLID_1186_">
									<polygon id="XMLID_341_" class="st76" points="344.1,137.2 342.5,137.1 342.5,135.4 344.1,135.5 									"/>
									<polygon id="XMLID_380_" class="st76" points="361.3,138.1 359.6,138 359.6,136.2 361.3,136.3 									"/>
									<polygon id="XMLID_398_" class="st76" points="344.1,143.4 342.5,143.3 342.5,141.6 344.1,141.7 									"/>
									<polygon id="XMLID_400_" class="st76" points="361.3,144.3 359.6,144.2 359.6,142.5 361.3,142.6 									"/>
								</g>
							</g>
							<g id="XMLID_1208_">
								<g id="XMLID_964_">
									<polygon id="XMLID_968_" class="st77" points="368.7,131.3 335.3,129.7 335.3,115.7 368.7,117.1 									"/>
									<path id="XMLID_965_" class="st78" d="M369,131.6l-34-1.6l0-14.6l34,1.4L369,131.6z M335.6,129.4l32.8,1.5l0-13.5
										l-32.8-1.3L335.6,129.4z"/>
								</g>
								<g id="XMLID_1557_">
									<polygon id="XMLID_1562_" class="st79" points="342.4,122.4 341.9,122.9 341.4,122.4 341.4,119.5 341.9,119 342.4,119.5 
																			"/>
									<polygon id="XMLID_1561_" class="st79" points="342.4,126.7 341.9,127.2 341.4,126.6 341.4,123.7 341.9,123.2 342.4,123.7 
																			"/>
									<polygon id="XMLID_1776_" class="st79" points="338.4,122.3 337.9,122.8 337.4,122.2 337.4,119.3 337.9,118.8 338.4,119.3 
																			"/>
									<polygon id="XMLID_1775_" class="st79" points="338.4,126.5 337.9,127 337.4,126.5 337.4,123.5 337.9,123 338.4,123.6 
																			"/>
									<polygon id="XMLID_1560_" class="st79" points="341.3,118.3 341.8,118.8 341.3,119.3 338.5,119.2 338,118.7 338.5,118.1 
																			"/>
									<polygon id="XMLID_1559_" class="st79" points="341.3,122.5 341.8,123.1 341.3,123.6 338.5,123.4 338,122.9 338.5,122.4 
																			"/>
									<polygon id="XMLID_1558_" class="st79" points="341.3,126.8 341.8,127.3 341.3,127.8 338.5,127.7 338,127.2 338.5,126.6 
																			"/>
								</g>
								<g id="XMLID_1218_">
									<g id="XMLID_1553_">
										<polygon id="XMLID_1556_" class="st80" points="348.5,122.7 348,123.2 347.5,122.7 347.5,119.7 348,119.2 348.5,119.8 
																					"/>
										<polygon id="XMLID_1555_" class="st80" points="348.5,127 348,127.5 347.5,126.9 347.5,124 348,123.5 348.5,124 
																					"/>
										<polygon id="XMLID_1554_" class="st80" points="347.4,118.5 347.9,119.1 347.4,119.6 344.6,119.5 344.1,118.9 
											344.6,118.4 										"/>
									</g>
									<g id="XMLID_1564_">
										<g id="XMLID_1548_">
											<polygon id="XMLID_1552_" class="st80" points="355.9,123 355.4,123.5 354.9,123 354.9,120 355.4,119.5 355.9,120.1 
																							"/>
											<polygon id="XMLID_1551_" class="st80" points="360,123.2 359.5,123.7 359,123.2 359,120.2 359.5,119.7 360,120.2 
																							"/>
											<polygon id="XMLID_1550_" class="st80" points="360,127.5 359.5,128 359,127.4 359,124.5 359.5,124 360,124.5 
																							"/>
											<polygon id="XMLID_1549_" class="st80" points="358.9,123.3 359.4,123.8 358.9,124.3 356,124.2 355.5,123.7 356,123.1 
																							"/>
										</g>
										<g id="XMLID_1541_">
											<polygon id="XMLID_1547_" class="st80" points="362.5,123.3 362,123.8 361.5,123.3 361.5,120.3 362,119.8 362.5,120.3 
																							"/>
											<polygon id="XMLID_1546_" class="st80" points="362.5,127.6 362,128.1 361.5,127.6 361.5,124.6 362,124.1 362.5,124.6 
																							"/>
											<polygon id="XMLID_1545_" class="st80" points="366.6,127.8 366.1,128.3 365.6,127.7 365.6,124.8 366.1,124.3 
												366.6,124.8 											"/>
											<polygon id="XMLID_1544_" class="st80" points="365.4,119.3 366,119.8 365.4,120.4 362.6,120.2 362.1,119.7 362.6,119.2 
																							"/>
											<polygon id="XMLID_1543_" class="st80" points="365.5,123.6 366,124.1 365.5,124.6 362.6,124.5 362.1,124 362.6,123.4 
																							"/>
											<polygon id="XMLID_1542_" class="st80" points="365.5,127.9 366,128.4 365.5,129 362.6,128.8 362.1,128.3 362.6,127.7 
																							"/>
										</g>
									</g>
									<g id="XMLID_1217_">
										<path id="XMLID_1540_" class="st80" d="M352.9,121.4c0,0.6-0.4,1-1,1c-0.5,0-1-0.5-1-1.1c0-0.6,0.4-1,1-1
											C352.4,120.4,352.9,120.9,352.9,121.4z"/>
										<path id="XMLID_1539_" class="st80" d="M352.9,125.7c0,0.6-0.4,1-1,1c-0.5,0-1-0.5-1-1.1c0-0.6,0.4-1,1-1
											C352.4,124.7,352.9,125.1,352.9,125.7z"/>
									</g>
								</g>
								<g id="XMLID_1179_">
									<polygon id="XMLID_884_" class="st81" points="336.2,129.4 335.6,129.4 335.6,116.1 336.2,116.1 									"/>
									<polygon id="XMLID_1204_" class="st81" points="368.4,130.9 367.8,130.9 367.8,117.4 368.4,117.4 									"/>
									<polygon id="XMLID_1205_" class="st81" points="367.8,130.2 367.8,130.9 336.2,129.4 336.2,128.8 									"/>
								</g>
							</g>
						</g>
					</g>
				</g>
			</g>
			<path id="XMLID_220_" class="st82" d="M277.6,108.5c0,0,0-0.1,0-0.1c0,0.1,0,0.3-0.1,0.4C277.5,108.7,277.5,108.6,277.6,108.5z"
				/>
			<path id="XMLID_221_" class="st82" d="M432.2,115.2L432.2,115.2c0-0.1,0-0.3,0-0.4C432.2,114.9,432.2,115.1,432.2,115.2z"/>
			<path id="XMLID_1815_" class="st0" d="M432.2,115.2L432.2,115.2l-154.7-6l0-0.1l0,0c0-0.1,0-0.3,0-0.4l154.6,6
				C432.2,114.9,432.2,115,432.2,115.2z"/>
		</g>
		<g id="XMLID_1471_">
			<linearGradient id="XMLID_25_" gradientUnits="userSpaceOnUse" x1="432.1928" y1="229.1669" x2="482.3612" y2="229.1669">
				<stop  offset="0" style="stop-color:#D5D7D8"/>
				<stop  offset="0.2185" style="stop-color:#D2D3D5"/>
				<stop  offset="0.3871" style="stop-color:#CBCCCE"/>
				<stop  offset="0.5351" style="stop-color:#BEC0C3"/>
				<stop  offset="0.8176" style="stop-color:#9FA1A4"/>
				<stop  offset="1" style="stop-color:#8A8C8E"/>
			</linearGradient>
			<polygon id="XMLID_222_" class="st83" points="482.4,103.5 432.2,110.1 432.2,354.8 482.4,323.9 			"/>
			<polygon id="XMLID_223_" class="st55" points="482.4,103.5 327.7,98 277.5,104.4 432.2,110.1 			"/>
			<polygon id="XMLID_250_" class="st0" points="432.2,111 277.5,105.4 277.5,104.4 432.2,110.1 			"/>
			<polygon id="XMLID_327_" class="st0" points="482.4,104.5 432.2,111 432.2,110.1 482.4,103.5 			"/>
			<polygon id="XMLID_401_" class="st55" points="430.8,354.6 432.2,354.8 432.2,111 430.8,111 			"/>
		</g>
	</g>
</g>
</svg>
