<?xml version="1.0" encoding="UTF-8" standalone="no"?>
<svg
   xmlns:dc="http://purl.org/dc/elements/1.1/"
   xmlns:cc="http://creativecommons.org/ns#"
   xmlns:rdf="http://www.w3.org/1999/02/22-rdf-syntax-ns#"
   xmlns:svg="http://www.w3.org/2000/svg"
   xmlns="http://www.w3.org/2000/svg"
   xmlns:sodipodi="http://sodipodi.sourceforge.net/DTD/sodipodi-0.dtd"
   xmlns:inkscape="http://www.inkscape.org/namespaces/inkscape"
   width="400"
   height="400"
   viewBox="0 0 400 400"
   version="1.1"
   id="svg4403"
   inkscape:version="0.91 r13725"
   sodipodi:docname="square_catfat.svg">
  <metadata
     id="metadata4415">
    <rdf:RDF>
      <cc:Work
         rdf:about="">
        <dc:format>image/svg+xml</dc:format>
        <dc:type
           rdf:resource="http://purl.org/dc/dcmitype/StillImage" />
        <dc:title>Cat</dc:title>
      </cc:Work>
    </rdf:RDF>
  </metadata>
  <defs
     id="defs4413" />
  <sodipodi:namedview
     pagecolor="#ffffff"
     bordercolor="#666666"
     borderopacity="1"
     objecttolerance="10"
     gridtolerance="10"
     guidetolerance="10"
     inkscape:pageopacity="0"
     inkscape:pageshadow="2"
     inkscape:window-width="1126"
     inkscape:window-height="751"
     id="namedview4411"
     showgrid="false"
     inkscape:zoom="1"
     inkscape:cx="-35"
     inkscape:cy="169.35714"
     inkscape:window-x="80"
     inkscape:window-y="214"
     inkscape:window-maximized="0"
     inkscape:current-layer="svg4403" />
  <title
     id="title4405">Cat</title>
  <g
     transform="matrix(1,-0.02129611,0,1,0,4.259221)"
     id="g4442">
    <path
       d="m 246.58987,336.01247 76.30149,-0.78153 c 0,-16.06359 -0.77445,-19.24207 -18.73775,-19.05808 2.86974,-12.77939 14.53455,-43.74534 21.01667,-43.81174 5.73478,-0.0587 12.57624,0.33903 12.57624,19.71766 0,22 24.99898,57.21486 31.06078,42.68185 9.03372,-21.65811 -15.53039,-14.83033 -15.53039,-66.84092 0,-71.1532 28.03919,-61.31104 28.03919,-101.2872 0,-20 -3.73075,-22.6626 -3.73075,-36.96179 0,-18.8976 11.24139,-17.91612 9.05422,-33.562412 -1.5108,-10.807748 -2.69312,-19.475304 -3.57394,-32.554383 -0.62498,-9.280182 -0.82422,-19.176049 -7.33751,-18.711351 -7.65277,0.545995 -10.55598,20.52493 -22.45121,22.077129 -11.87098,1.549033 -21.99286,-14.741254 -26.58736,-12.352673 -4.55577,2.368449 -3.12296,20.656988 -0.42202,33.629323 4.24509,20.388737 13.50469,46.861677 -3.37617,51.034587 -16.88086,4.1729 -66.91594,-6.97692 -87.84821,34.23749 -20.93226,41.2144 0.84046,104.77035 -7.35984,119.7377 -27.52144,50.23263 -55.7238,30.01246 -55.7238,71.57076 0,18.60564 21.28685,31.78197 24.66302,25.74738 3.37617,-6.03458 -28.68752,-23.58484 7.18885,-45.07363 30.64998,-18.35835 33.38605,-22.06988 42.77849,-9.43817 z"
       id="path4444"
       inkscape:connector-curvature="0"
       sodipodi:nodetypes="cccssssssssssssssssssc" />
  </g>
  <g
     id="g4446"
     transform="matrix(-1,0,0,1,408.88135,0)">
    <path
       d="m 246.58987,336.01247 76.30149,-0.78153 c 0,-16.06359 -0.77445,-19.24207 -18.73775,-19.05808 2.86974,-12.77939 14.53455,-43.74534 21.01667,-43.81174 5.73478,-0.0587 12.57624,0.33903 12.57624,19.71766 0,22 24.99898,57.21486 31.06078,42.68185 9.03372,-21.65811 -15.53039,-14.83033 -15.53039,-66.84092 0,-71.1532 28.03919,-61.31104 28.03919,-101.2872 0,-20 -3.73075,-22.6626 -3.73075,-36.96179 0,-18.8976 11.24139,-17.91612 9.05422,-33.562412 -1.5108,-10.807748 -2.69312,-19.475304 -3.57394,-32.554383 -0.62498,-9.280182 -0.82422,-19.176049 -7.33751,-18.711351 -7.65277,0.545995 -10.55598,20.52493 -22.45121,22.077129 -11.87098,1.549033 -21.99286,-14.741254 -26.58736,-12.352673 -4.55577,2.368449 -3.12296,20.656988 -0.42202,33.629323 4.24509,20.388737 13.50469,46.861677 -3.37617,51.034587 -16.88086,4.1729 -71.91594,1.4703 -92.84821,42.68471 -20.93226,41.2144 5.84046,96.32313 -2.35984,111.29048 -27.52144,50.23263 -55.7238,30.01246 -55.7238,71.57076 0,18.60564 21.28685,31.78197 24.66302,25.74738 3.37617,-6.03458 -28.68752,-23.58484 7.18885,-45.07363 30.64998,-18.35835 33.38605,-22.06988 42.77849,-9.43817 z"
       style="fill:#ff0000"
       id="path4448"
       inkscape:connector-curvature="0"
       sodipodi:nodetypes="cccssssssssssssssssssc" />
  </g>
</svg>
