<svg
   xmlns:rdf="http://www.w3.org/1999/02/22-rdf-syntax-ns#"
   xmlns:svg="http://www.w3.org/2000/svg"
   xmlns="http://www.w3.org/2000/svg"
   xmlns:xlink="http://www.w3.org/1999/xlink"
   width="202.31"
   height="400"
   version="1.1">

  <style>
    #buttons rect {
      fill:#eaeaea;
    }
    #letters path {
      fill:#ffffff;
    }
    #rings rect {
      fill:#eaeaea;
      stroke:#424242;
      stroke-width:0.5;
    }
    #lines path {
      fill:none;
      stroke:#000000;
      stroke-width:1px;
    }
  </style>

  <g transform="translate(-303.47,-139.84)">
    <g>
      <path d="M 345.69,351.33 327.43,321.81 307.94,162.09 c 52.29,11.17 105.26,13.91 159.56,0 l -18.28,160.95 -23.86,28.90 c -30.81,6.77 -52.84,9.84 -79.66,-0.61 z" style="fill:#eeeeee;stroke:#000000;stroke-width:1px;" />
      <path d="m 308.05,158.89 159.36,0.20 -1.44,12.35 c -57.25,13.66 -112.29,11.80 -156.47,-1.44 l -1.44,-11.11 z" style="fill:#000000;" />
      <path d="m 460.47,518.32 -1.25,11.96 c -2.65,2.59 -5.31,1.85 -7.97,0 l -2.93,-6.29 12.17,-5.66 z" style="fill:#000000;stroke:#000000;stroke-width:1px;" />
      <path d="m 311.24,520.11 1.25,11.96 c 2.65,2.59 5.31,1.85 7.97,0 l 2.93,-6.29 -12.17,-5.66 z" style="fill:#000000;stroke:#000000;stroke-width:1px;" />
      <path d="m 314.06,480.64 141.28,0 c 5.86,0 10.59,4.76 10.59,10.68 l 0,17.11 c -10.36,43.49 -156.10,39.99 -162.46,0 l 0,-17.11 c 0,-5.91 4.72,-10.68 10.59,-10.68 z" style="fill:#333;" />
      <path d="m 345.32,373.41 c 25.60,7.68 51.65,10.43 78.89,0 4.96,0 9.84,-1.65 17.21,6.20 25.10,40.92 24.01,107.71 24.01,107.71 -16.21,40.46 -148.70,40.06 -161.35,0 0,0 6.48,-88.80 24.70,-107.02 5.16,-5.31 11.56,-6.89 16.52,-6.89 z" style="fill:#373741;" />
      <path id="base" d="m 345.32,373.41 c 25.60,7.68 51.65,10.43 78.89,0 4.96,0 9.84,-1.65 17.21,6.20 25.10,40.92 24.01,107.71 24.01,107.71 -16.21,40.46 -148.70,40.06 -161.35,0 0,0 6.48,-88.80 24.70,-107.02 5.16,-5.31 11.56,-6.89 16.52,-6.89 z" style="fill:#444;" />

    <g id="buttons">
      <rect id="redbutton" ry="6" y="456" x="335" height="25" width="14" style="fill:#ff3f3f;" />
      <rect ry="6" y="458" x="355" height="25" width="14" />
      <rect ry="6" y="460" x="375" height="25" width="14" />
      <rect ry="6" y="460" x="395" height="25" width="14" />
      <rect ry="6" y="458" x="415" height="25" width="14" />
    </g>



      <g id="letters">
        <path   d="m 361.87,487.13 -1.46,0.83 -0.12,-0.87 1.68,-1.03 0.83,0 0,6.39 1.53,0 0,0.83 -4.00,0 0,-0.83 1.53,0 0,-5.32" />
        <path   d="m 384.12,495.26 -4.68,0 0,-0.83 c 0.22,-0.15 0.45,-0.34 0.70,-0.55 0.25,-0.21 0.50,-0.43 0.75,-0.67 0.25,-0.24 0.48,-0.49 0.71,-0.75 0.23,-0.26 0.43,-0.52 0.61,-0.79 0.17,-0.26 0.31,-0.52 0.41,-0.77 0.10,-0.25 0.16,-0.49 0.16,-0.72 0,-0.22 -0.04,-0.42 -0.12,-0.58 -0.07,-0.16 -0.18,-0.29 -0.31,-0.39 -0.13,-0.10 -0.27,-0.17 -0.44,-0.22 -0.16,-0.04 -0.33,-0.06 -0.51,-0.06 -0.14,10e-6 -0.30,0.02 -0.46,0.06 -0.15,0.04 -0.31,0.10 -0.46,0.18 -0.14,0.08 -0.29,0.17 -0.43,0.28 -0.13,0.11 -0.25,0.23 -0.36,0.36 l -0.21,-0.83 c 0.09,-0.13 0.22,-0.26 0.38,-0.37 0.15,-0.11 0.32,-0.21 0.51,-0.30 0.19,-0.08 0.39,-0.15 0.60,-0.20 0.21,-0.04 0.41,-0.07 0.62,-0.07 0.29,0 0.57,0.04 0.83,0.14 0.26,0.09 0.50,0.23 0.70,0.41 0.20,0.17 0.36,0.39 0.47,0.64 0.12,0.25 0.18,0.53 0.18,0.84 -10e-6,0.27 -0.05,0.55 -0.15,0.83 -0.09,0.27 -0.22,0.55 -0.39,0.83 -0.16,0.27 -0.35,0.54 -0.56,0.80 -0.21,0.26 -0.42,0.50 -0.65,0.74 -0.22,0.23 -0.44,0.45 -0.66,0.65 -0.21,0.19 -0.41,0.37 -0.59,0.52 l 1.24,0 c 0.24,0 0.46,0 0.68,0 0.21,-0.00 0.41,-0.00 0.59,-0.01 0.18,-0.00 0.34,-0.01 0.48,-0.02 0.14,-0.01 0.26,-0.02 0.36,-0.03 l 0,0.87" />
        <path   d="m 401.97,495.39 c -0.43,0 -0.83,-0.07 -1.19,-0.21 -0.36,-0.14 -0.67,-0.34 -0.92,-0.58 l 0.12,-1.04 c 0.13,0.14 0.27,0.28 0.42,0.41 0.15,0.12 0.31,0.22 0.48,0.31 0.17,0.08 0.36,0.15 0.55,0.20 0.19,0.04 0.40,0.06 0.62,0.06 0.18,0 0.37,-0.02 0.56,-0.08 0.19,-0.05 0.36,-0.13 0.51,-0.24 0.15,-0.11 0.28,-0.25 0.38,-0.41 0.09,-0.16 0.14,-0.36 0.14,-0.59 0,-0.19 -0.05,-0.37 -0.15,-0.54 -0.10,-0.16 -0.24,-0.30 -0.42,-0.42 -0.18,-0.12 -0.39,-0.21 -0.64,-0.27 -0.24,-0.06 -0.51,-0.09 -0.80,-0.09 l -0.34,0 0,-0.83 0.34,0 c 0.24,1e-5 0.47,-0.03 0.69,-0.10 0.21,-0.06 0.40,-0.15 0.57,-0.26 0.16,-0.11 0.29,-0.23 0.39,-0.38 0.09,-0.14 0.14,-0.29 0.14,-0.44 0,-0.16 -0.03,-0.30 -0.11,-0.42 -0.07,-0.12 -0.17,-0.21 -0.29,-0.29 -0.12,-0.07 -0.25,-0.13 -0.41,-0.17 -0.14,-0.03 -0.29,-0.05 -0.44,-0.05 -0.18,0 -0.36,0.01 -0.52,0.03 -0.16,0.02 -0.31,0.06 -0.46,0.12 -0.14,0.05 -0.28,0.13 -0.42,0.23 -0.13,0.09 -0.27,0.21 -0.41,0.35 l -0.17,-0.83 c 0.09,-0.11 0.21,-0.21 0.35,-0.30 0.13,-0.09 0.29,-0.18 0.45,-0.24 0.16,-0.07 0.34,-0.12 0.54,-0.16 0.19,-0.03 0.39,-0.05 0.59,-0.05 0.30,1e-5 0.58,0.03 0.85,0.11 0.27,0.07 0.51,0.19 0.71,0.33 0.20,0.14 0.36,0.31 0.48,0.52 0.12,0.20 0.18,0.44 0.18,0.70 -10e-6,0.22 -0.04,0.43 -0.14,0.62 -0.09,0.18 -0.22,0.34 -0.37,0.49 -0.14,0.14 -0.31,0.26 -0.50,0.35 -0.18,0.09 -0.36,0.15 -0.53,0.19 0.11,0.01 0.23,0.05 0.37,0.09 0.13,0.04 0.27,0.09 0.40,0.17 0.13,0.06 0.26,0.15 0.38,0.25 0.12,0.10 0.23,0.21 0.32,0.35 0.09,0.13 0.17,0.29 0.22,0.46 0.05,0.17 0.08,0.36 0.08,0.58 -10e-6,0.28 -0.07,0.55 -0.21,0.81 -0.14,0.25 -0.33,0.47 -0.58,0.66 -0.24,0.18 -0.52,0.33 -0.84,0.44 -0.32,0.11 -0.65,0.16 -1.01,0.16" />
        <path   d="m 421.26,491.21 2.35,0 0,-3.32 -2.35,3.32 m 3.28,0.75 0,1.92 -0.92,0 0,-1.92 -3.19,0 0,-0.75 3.19,-4.54 0.92,0 0,4.54 0.92,0 0,0.75 -0.92,0" />
        <path   d="m 338.06,487.66 c 0,0.22 0.02,0.42 0.08,0.60 0.05,0.17 0.13,0.33 0.23,0.45 0.10,0.12 0.22,0.21 0.35,0.28 0.13,0.06 0.29,0.09 0.46,0.09 0.15,0 0.30,-0.03 0.44,-0.09 0.13,-0.06 0.25,-0.15 0.35,-0.28 0.10,-0.12 0.18,-0.27 0.24,-0.45 0.05,-0.17 0.08,-0.38 0.08,-0.60 0,-0.22 -0.02,-0.43 -0.08,-0.61 -0.05,-0.18 -0.13,-0.33 -0.23,-0.46 -0.09,-0.12 -0.21,-0.22 -0.35,-0.28 -0.13,-0.06 -0.29,-0.10 -0.45,-0.10 -0.15,0 -0.30,0.03 -0.44,0.10 -0.13,0.06 -0.25,0.16 -0.35,0.28 -0.10,0.12 -0.18,0.27 -0.24,0.46 -0.05,0.17 -0.08,0.38 -0.08,0.61 m -0.72,0 c 0,-0.33 0.05,-0.63 0.15,-0.89 0.10,-0.26 0.23,-0.47 0.41,-0.65 0.17,-0.17 0.37,-0.31 0.60,-0.40 0.22,-0.09 0.47,-0.13 0.73,-0.13 0.26,0 0.51,0.04 0.73,0.13 0.22,0.09 0.41,0.22 0.57,0.40 0.16,0.17 0.28,0.39 0.37,0.65 0.08,0.25 0.13,0.55 0.13,0.89 -10e-6,0.33 -0.05,0.63 -0.15,0.89 -0.10,0.25 -0.23,0.47 -0.41,0.64 -0.17,0.17 -0.37,0.30 -0.60,0.39 -0.22,0.08 -0.47,0.13 -0.73,0.13 -0.26,0 -0.51,-0.04 -0.73,-0.13 -0.22,-0.09 -0.41,-0.22 -0.57,-0.39 -0.15,-0.17 -0.28,-0.39 -0.37,-0.64 -0.08,-0.25 -0.13,-0.55 -0.13,-0.89"  />
        <path   d="m 341.58,485.75 0.78,0 0,-0.68 c 0,-0.58 0.11,-1.02 0.35,-1.31 0.23,-0.29 0.57,-0.44 0.99,-0.44 0.15,10e-6 0.30,0.02 0.45,0.07 0.14,0.04 0.28,0.11 0.40,0.19 l -0.17,0.58 c -0.09,-0.07 -0.20,-0.13 -0.32,-0.17 -0.11,-0.04 -0.23,-0.06 -0.35,-0.06 -0.10,10e-6 -0.19,0.01 -0.26,0.05 -0.07,0.03 -0.14,0.08 -0.19,0.16 -0.05,0.07 -0.09,0.17 -0.12,0.30 -0.02,0.12 -0.03,0.27 -0.03,0.44 l 0,0.83 1.05,0 0,0.56 -1.05,0 0,1.39 c -10e-6,0.19 0.00,0.37 0.00,0.56 0.00,0.18 0.01,0.36 0.01,0.53 0.01,0.16 0.02,0.32 0.03,0.46 0.01,0.14 0.03,0.26 0.05,0.36 l -0.83,0 0,-3.32 -0.78,0 0,-0.56"  />
        <path   d="m 344.52,485.75 0.78,0 0,-0.68 c 0,-0.58 0.11,-1.02 0.35,-1.31 0.23,-0.29 0.57,-0.44 0.99,-0.44 0.15,10e-6 0.30,0.02 0.45,0.07 0.14,0.04 0.28,0.11 0.40,0.19 l -0.17,0.58 c -0.09,-0.07 -0.20,-0.13 -0.32,-0.17 -0.11,-0.04 -0.23,-0.06 -0.35,-0.06 -0.10,10e-6 -0.19,0.01 -0.26,0.05 -0.07,0.03 -0.14,0.08 -0.19,0.16 -0.05,0.07 -0.09,0.17 -0.12,0.30 -0.02,0.12 -0.03,0.27 -0.03,0.44 l 0,0.83 1.05,0 0,0.56 -1.05,0 0,1.39 c -10e-6,0.19 0.00,0.37 0.00,0.56 0.00,0.18 0.01,0.36 0.01,0.53 0.01,0.16 0.02,0.32 0.03,0.46 0.01,0.14 0.03,0.26 0.05,0.36 l -0.83,0 0,-3.32 -0.78,0 0,-0.56" />
      </g>

    <g id="rings">
      <rect ry="3" y="461" x="338" height="13" width="7" 
        style="fill:none;stroke:#000000;" />
      <rect ry="3" y="463" x="358" height="13" width="7" />
      <rect ry="3" y="465" x="378" height="13" width="7" />
      <rect ry="3" y="465" x="398" height="13" width="7" />
      <rect ry="3" y="463" x="418" height="13" width="7" />
    </g>

      <path transform="matrix(0.97,0,0,1.18,17.66,-41.37)"
         d="m 463.96,168.83 c 0,8.60 -38.17,15.58 -85.26,15.58 -47.09,0 -85.26,-6.97 -85.26,-15.58 0,-8.60 38.17,-15.58 85.26,-15.58 47.09,0 85.26,6.97 85.26,15.58 z" style="fill:#0d0d0d;stroke:#424242;stroke-width:0.48;"
          />
      <path id="middle"
         d="m 339.75,342.78 c 31.92,9.15 60.62,12.87 92.55,1.32 1.87,1.70 9.36,26.54 9.70,34.51 -39.46,16.80 -77.46,15.39 -112.97,-1.13 -0.17,-6.45 7.99,-32.81 10.72,-34.70 z" style="fill:#226DAA;stroke:none;stroke-width:0.5;" />
      <path d="M 359.14,345.00 352.94,323.31 345.75,185.96" style="fill:none;stroke:#000000;stroke-width:1px;" />
      <path d="m 409.44,345.00 11.77,-21.69 11.04,-135.61" style="fill:none;stroke:#000000;stroke-width:1px;" />
      <path d="m 384.36,345.22 1.23,-23.15 4.33,-133.28" style="fill:none;stroke:#000000;stroke-width:1px;" />
      <path transform="matrix(0.97,0,0,1,17.66,-12.34)"
         d="m 463.96,168.83 c 0,8.60 -38.17,15.58 -85.26,15.58 -47.09,0 -85.26,-6.97 -85.26,-15.58 0,-8.60 38.17,-15.58 85.26,-15.58 47.09,0 85.26,6.97 85.26,15.58 z" style="fill:#1a1b1d;stroke:#424242;stroke-width:0.5;"
          />
      <path id="centerlid"
         transform="matrix(0.79,0,0,0.81,87.39,15.50)"
         d="m 463.96,168.83 c 0,8.60 -38.17,15.58 -85.26,15.58 -47.09,0 -85.26,-6.97 -85.26,-15.58 0,-8.60 38.17,-15.58 85.26,-15.58 47.09,0 85.26,6.97 85.26,15.58 z" style="fill:#666;stroke:none;stroke-width:0.5;"
          />
      <path d="m 362.26,146.76 49.46,0 0,3.79 -49.46,0 0,-3.79 z m 49.36,0.07 c 0,3.08 -11.05,5.58 -24.69,5.58 -13.64,0 -24.69,-2.50 -24.69,-5.58 0,-3.08 11.05,-5.58 24.69,-5.58 13.64,0 24.69,2.50 24.69,5.58 z m 0,4 c 0,3.08 -11.05,5.58 -24.69,5.58 -13.64,0 -24.69,-2.50 -24.69,-5.58 0,-3.08 11.05,-5.58 24.69,-5.58 13.64,0 24.69,2.50 24.69,5.58 z" style="fill:#eae9e8;stroke:none;stroke-width:0.5;"
          />
      <path d="m 362.75,147.00 c 8.31,5.53 36.82,6.07 48.23,0.12" style="fill:none;stroke:#000000;stroke-width:0.30;stroke-miterlimit:4;" />
      <path transform="matrix(0.86,0,0,0.86,50.65,20.96)"
         d="m 401.73,146.01 c 0,1.17 -6.51,2.12 -14.56,2.12 -8.04,0 -14.56,-0.95 -14.56,-2.12 0,-1.17 6.51,-2.12 14.56,-2.12 8.04,0 14.56,0.95 14.56,2.12 z" style="fill:#a4a5a4;stroke:#424242;stroke-width:0.34;"
          />
      <path transform="matrix(0.77,0,0,0.76,87.19,35.78)"
         d="m 401.73,146.01 c 0,1.17 -6.51,2.12 -14.56,2.12 -8.04,0 -14.56,-0.95 -14.56,-2.12 0,-1.17 6.51,-2.12 14.56,-2.12 8.04,0 14.56,0.95 14.56,2.12 z" style="fill:#eae9e8;stroke:#424242;stroke-width:0.39;"
          />
    <g id="lines">
      <path d="m 350.75,198.75 11.14,0" />
      <path d="m 353.04,221.04 11.14,0"  />
      <path d="m 354.35,242.02 11.14,0"  />
      <path d="m 355.83,262.35 11.14,0"  />
      <path d="m 358.12,284.64 11.14,0"  />
      <path d="m 359.43,305.62 11.14,0"  />
      <path d="m 354.55,206.64 4.17,0"  />
      <path d="m 355.09,213.68 4.17,0"  />
      <path d="m 356.37,228.06 4.17,0"  />
      <path d="m 356.91,235.10 4.17,0"  />
      <path d="m 358.04,249.53 4.17,0"  />
      <path d="m 358.58,256.57 4.17,0"  />
      <path d="m 359.59,270.29 4.17,0"  />
      <path d="m 360.13,277.33 4.17,0"  />
      <path d="m 361.38,292.00 4.17,0"  />
      <path d="m 361.92,299.04 4.17,0"  />
      <path d="m 363.05,314.07 4.17,0"  />
      <path d="m 363.59,321.11 4.17,0"  />
      <path d="m 346.08,186.53 c -9.03,-0.52 -18.80,-1.43 -27.84,-5.12"  />
      <path d="m 389.80,188.97 c 8.64,0.45 17.56,0.36 26.86,-0.48"  />
      <path d="m 431.81,187.99 c 7.73,-0.43 15.46,-0.48 23.20,-3.41"  />
      <path d="m 450.29,312.29 c 0,0 18.66,-11.24 32.23,-29.61 7.32,-8.28 29.09,-71.16 20.97,-88.50 -5.76,-9.57 -38.90,-5.40 -38.90,-5.40"  />
      <path d="m 452.19,294.08 c 0,0 13.31,-8.27 22.99,-21.78 5.22,-6.09 20.74,-52.35 14.96,-65.12 -4.11,-7.04 -27.74,-3.97 -27.74,-3.97"  />
      <path d="m 467.00,193.37 c 0,0 28.78,-2.29 33.17,4.07 6.91,19.99 -12.92,90.70 -42.69,104.14"  />
</g>

      <path d="m 451.68,308.58 c 0.27,-0.93 0.77,-4.50 1.11,-7.92 0.52,-5.19 0.99,-6.46 2.88,-7.70 3.64,-2.38 12.50,-10.66 16.80,-15.70 4.86,-5.70 8.21,-12.65 12.53,-26.04 7.00,-21.71 9.10,-41.10 4.94,-45.70 -2.21,-2.44 -8.96,-3.86 -18.39,-3.86 l -7.50,0 0.59,-5.71 c 0.32,-3.14 0.81,-5.94 1.09,-6.21 0.27,-0.27 6.00,-0.51 12.74,-0.53 13.72,-0.05 19.71,1.18 23.08,4.76 1.95,2.08 2.15,3.13 2.15,11.71 0,8.58 -2.80,28.25 -3.87,27.18 -0.24,-0.24 0.27,-4.67 1.13,-9.85 1.96,-11.75 1.55,-24.12 -0.89,-26.82 -0.90,-1.00 -3.71,-2.26 -6.23,-2.80 -5.90,-1.26 -27.67,-1.31 -27.67,-0.05 0,0.56 4.31,0.92 11.08,0.92 12.00,0 19.66,1.19 21.45,3.34 1.92,2.31 2.13,14.28 0.42,24.49 -4.09,24.46 -14.31,49.69 -26.17,64.60 -4.47,5.62 -7.21,8.16 -14.40,13.39 -4.00,2.90 -0.80,2.83 3.51,-0.07 6.58,-4.44 5.96,-2.71 -1.14,3.17 -7.98,6.62 -9.93,7.76 -9.25,5.42 l 0,3e-5 z" style="opacity:0.73;fill:#eeeeee;stroke:#ffffff;stroke-width:0.30;stroke-miterlimit:4;" />
    </g>
  </g>
</svg>
