
<svg xmlns="http://www.w3.org/2000/svg" width="529.218" height="486.771">
  <path d="M12.115 303.522c-.622 18.164-13.093 35.482 25.98 56.482 82.266 45.57 174.973 82.788 272.245 116.353 27.99 7.787 55.43 17.762 89.242 2.26 18.18-5.166 29.187-17.505 38.408-31.63-8.225 4.5 37.04-10.875 61-33.89 1.082 4.944 6.985 5.065 12.427 5.648 20.514-27.914 6.13-35.885 7.907-53.093l-507.21-62.13z"/>
  <path d="M.818 300.133l10.167 16.945c97.33 40.42 138.255 67.82 305.003 124.26 20.06 5.826 42.882.426 59.872 3.39 48.916 1.16 100.738-35.276 146.853-62.13l4.52-13.557c-6.844-1.756 33.374-213.887-86.984-302.743-89.09-48.415-142.85-50.9-203.336-62.13C187.192-3.733 151 1.823 88.93 27.89 42.133 57.74 32.977 74.975 15.504 146.5L.818 300.132z" opacity=".98" fill="#b0b0b0" stroke="#000" stroke-width="1.6145106900000004"/>
  <path d="M100.75 52.078c-23.075-2.793-11.773-9.36-1.562-15.99 18.903-12.68 48.33-22.024 92.23-26.775 13.24 5.045 27.93 7.334 45.332 4.462 63.71 15.468 131.46 19.4 187.583 56.524-19.372 18.818-55.14 33.737-107.86 44.623-82.445-25.59-149.788-45.11-215.722-62.845z" fill="none" stroke="#c3c3c3" stroke-width="1.5824608500000001"/>
  <path d="M99.352 52.045c-23.256-2.893-11.866-9.697-1.575-16.57 19.05-13.138 48.703-22.82 92.944-27.742 13.346 5.227 28.15 7.6 45.686 4.623 64.204 16.028 132.48 20.103 189.04 58.57-19.523 19.5-55.57 34.96-108.698 46.24-83.085-26.517-150.95-46.745-217.396-65.12z" fill="none" stroke="#000" stroke-width="1.6145106900000004"/>
  <path d="M173.43 45.675c9.456-6.842 23.214-11.1 37.943-14.778C275.836 47.14 329.867 63.38 385.107 79.623c-6.553 6.033-15.383 11.653-33.548 15.576-65.93-18.475-122.712-34.205-178.13-49.525zM135.49 58.056c5.052-3.27 10.795-5.507 17.972-5.592 60.148 17.6 123.903 31.593 179.325 53.918-5.16 3.23-10.62 7.364-14.777 7.588L135.49 58.056z"/>
  <path d="M90.625 45.4l40.667 12.425 12.426-5.084 28.806 3.955 16.38-6.778-19.204-5.083 38.973-15.25s69.472 17.51 87.547 22.028c18.074 4.518 85.853 24.852 90.37 24.852 4.52 0 34.455-6.213 34.455-6.213-23.665-18.973-80.688-37.318-184.13-54.787-15.628 2.113-31.255 2.54-46.882-2.824-52.044 3.078-76.935 16.372-99.408 32.76zM308.824 125.153c30.168 95.39 43.85 196.962 39.94 305.133 50.24 21.172 111.12-26.81 169.34-57.512C515.51 268.2 529.43 158.12 441.42 82.02c-46.073 31.253-90.77 50.11-132.596 43.133z" fill="#919191"/>
  <path d="M408.827 149.39c48.094 47.207 57.204 214.973 45.924 225.296" stroke="#050505" stroke-width="4.8475383"/>
  <path d="M72.386 59.653C10.188 103.86 19.174 208.3 8.483 296.09l313.12 129.403C223.328 312.755-97.516 334.81 72.387 59.653z" fill="#919191"/>
  <path opacity=".98" d="M379.935 175.35l70.05-31.52 16.688 37.084-70.05 31.523z"/>
  <path opacity=".98" fill="#241f1c" d="M378.804 168.572l70.05-31.522 16.688 37.085-70.05 31.522z"/>
</svg>