<svg height="715"  width="475" xmlns="http://www.w3.org/2000/svg"  xmlns:xlink="http://www.w3.org/1999/xlink">
  <title>Vaccuum Cleaner</title>
  <defs>
    <linearGradient id="a">
      <stop offset="0" stop-color="#ccc"/>
      <stop offset="1" stop-color="#ccc" stop-opacity="0"/>
    </linearGradient>
    <linearGradient gradientTransform="translate(-134 -127)" gradientUnits="userSpaceOnUse" id="x" x1="464" x2="466" xlink:href="#a" y1="137" y2="160"/>
  </defs>
  <path id="suckerbase" d="M185.534 671.335c4.425-7.83 16.042-9.886 32.722-9.546l203.17 1.375c13.217-.842 26.89 6.572 24.51 11.233 6.51 6.765 7.06 16.28 7.607 29.467.023 9.4-262.257 15.542-273.78.677-5.714-14.077.52-22.788 5.77-33.207z"  fill="#d4d4d4"/>
  <path id="mainbase" d="M91.112 598.823c4.84 14.238 4.556 28.475 23.065 31.607 59.797 10.25 64.068 20.502 132.407 1.71 24.204-9.398 46.7-17.086 58.09-40.15-2.85-41.574 30.182-68.625-29.9-32.462L91.112 598.823z"  fill="#a3a3a3"/>
  <path id="hose"
     d="M302.925 548.657c72.224-19.894 83.47-82.603 96.01-125.85 13.408-76.982 9.948-173.425-14.27-265.976-8.218-32.435-24.22-68.763-37.627-102.496L335.36 77.688c13.84 47.14 34.167 100.767 37.627 149.205 11.245 66.17 14.443 123.385 6.487 185.533-3.394 26.517-24.22 92.118-79.143 106.39l2.596 29.84z" fill="#bcc3d4"/>
  <path id="midPole" 
    d="M337.543 240.08l1.682-127.6c-7.358-2.508-11.217-2.386-17.86-.144l-3.99 127.58c6.516-2.09 14.096-1.876 20.168.163z"  fill="#373737"/>
  <path id="handle"
    d="M84.974 565.022c10.53 2.654 85.316 19.38 135.21 33.08 49.892 13.703 74.89 24.382 81.463-9.468 8.267-78.247 16.888-206.68-9.392-299.987-36.023-103.345-132.282-83.562-169.19-25.688-36.614 58.167-51.083 181-38.09 302.062z"  fill="#07050a" stroke="#000"/>
  <path id="handlehole" 
    d="M155.232 243.857l2.985 14.923c27.258-4.775 41.384-5.372 72.82 3.58l14.923-14.92c-17.31-23.877-68.046-23.877-90.728-3.583z"  fill="#151515" stroke="#000"/>
  <path id="v_body"
    d="M84.974 559.196c3.068 44.173 13.57 63.39 55.583 67.76 21.007 2.186 73.268 9.482 97.738.412 10.24-3.796 15.67-2.41 23.114-16.4 1.684-2.4 41.2 14.06 43.247-48.29 8.267-76.863 20.107-292.39-54.892-325.745-4.375 1.057-11.39 6.053-22.765 34.92-14.36-8.07-62.926-7.81-79.075-2.148-.48-8.197-1.044-14.5 1.425-33.35-64.108 36.79-78.894 205.957-64.376 322.84z"  fill="#226DAA"/>
  <path id="v_side"
    d="M250.14 237.77c18.14 35.602 12.886 192.766 12.208 296.015l-.51 42.724c19.498-4.24 32.892-14.072 44.25-32.044 1.188-21.7 3.9-43.91 4.07-65.612l-12.716 8.647 10.68-110.37-9.154-59.508c-10.172-45.945-34.586-76.632-48.827-79.853z"  opacity="0.5" fill="#1e5f95"/>
  <path id="v_frontLine" d="M88.72 362.89c65.952-21.702 152.186-2.714 174.395 9.663"  fill="none" stroke="#000"/>
  <path id="fronthole"
    d="M146.31 354.448c1.18 8.858 2.874 16.948 3.543 26.575 9.428-1.33 23.337-2.277 33.66 1.77 1.712-10.383 3.424-17.95 9.617-28.206-15.52-1.626-31.427-1.843-46.82-.14z"  fill="#080611" stroke="#000"/>
  <path id="hoseBase" 
    d="M144.774 322.567c9.636 13.383 20.898 23.446 37.494 18.718 16.595-4.73 29.89-32.205 17.04-40.592-8.793-15.558-23.473-26.354-43.292-25.44-30.513 1.153-13.205 24.65-11.242 47.314z" fill="#18191a" stroke="#000"/>

  <path id="hoseFront" 
    d="M103.552 361.726C63.044 422.4 51.98 494.314 51.088 527.684c-.536 47.11 10.17 41.222 21.95 43.364 3.568.178 12.69-.258 16.26-.08 4.103 12.313 1.584 19.352 5.688 29.524-38.01 4.818-49.252-.535-62.636-11.242-23.555-30.694-12.848-70.488-9.636-95.293 21.057-109.39 50.68-140.083 85.656-188.978 15.704-18.74 28.195-29.446 51.93-28.375 18.022 5.175 24.804 25.875-2.142 33.727-11.243-4.64-46.576 39.973-54.606 51.394z"  fill="#cad4e4"/>

  <path id="hose_FB_shadow"
    d="M64.815 570.36c-.886 13.58 1.77 22.735-7.087 28.345 10.63 5.906 25.69.295 38.09.886l-1.77-20.373c-9.155 1.476-24.51 2.953-29.233-8.858z"  fill="#b1b9c8"/>
  <path id="grill" 
    d="M88.63 506.035c52.36 35.295 105.884 13.575 160.57 8.145 1.94 5.042 2.716 15.902 4.655 20.944-78.734 41.888-127.215 20.944-166.388-4.654 0-7.757 1.163-16.678 1.163-24.435z"  fill="#1e5f95"/>
  <path id="frontdark" 
    d="M81.16 525.634c-.537 22.988 4.496 43.433 9.318 72.525 14.326 22.777 37.978 27.428 57.16 29.886 21.667 3.5 39.707 4.19 60.867 4.13 11.628-.78 52.25-9.736 54.312-45.91 2.574-14.558 4.153-28.193 6.39-51.858-4.48 1.44-9.418 1.513-13.444.217-56.464 23.617-129.89 24.884-174.604-8.99z"  fill="#0d0e12" stroke="#000"/>
  <path id="br_shadow" 
    d="M257.212 569.39c.19 47.51-36.75 49.656-36.876 51.36 45.3-6.562 38.835-36.69 36.876-51.36z"  fill="#444"/>
  <path id="hoseShadow" 
    d="M149.51 296.896c27.42-17.988 31.415 5.058 5.047 11.472-34.72 16.52-88.254 103.538-105.538 186.592 19.118-84.278 54.757-155.084 100.49-198.064z"  fill="#555964"/>
  <path id="tool_top" 
    d="M318.63 14.176c-1.118-7.063 32.447-6.914 30.138.897 4.768 25.116-3.595 50.232-4.662 75.348l-6.243.36.516 21.8-16.263.123.407-22.154-6.16-1.715c-2.893-24.886 1.51-49.773 2.265-74.66z"  fill="#0a0710" stroke="#000"/>
  <path id="tool_mid" 
    d="M336.767 321.085l1.977-127.597c-8.65-2.51-13.185-2.387-20.992-.146l-4.693 127.58c7.66-2.09 16.57-1.876 23.707.163z"  fill="#282828"/>
  <path id="tool_lower" 
    d="M337.258 560.795l2.736-264.313c-11.97-5.196-18.248-4.944-29.053-.3l-6.494 264.273c10.6-4.328 22.933-3.883 32.812.34z"  fill="#202029"/>
  <path id="tool_top_shadow" 
    d="M318.648 13.38l.383 20.04c9.32 1.958 4.815-.825 26.388-.783l-.09-19.13c-4.81-7.19-26.34-4.296-26.68-.127z"  fill="url(#x)"/>

  <path id="sucker"
    d="M189 666.555c4.426-7.83 16.043-9.886 32.722-9.546l203.172 1.375c13.216-.843 26.89 6.57 24.51 11.233 6.51 6.764 7.058 16.28 7.606 29.467.023 9.4-267.383 8.708-273.78.677 1.12-12.37.52-22.788 5.77-33.207z"  fill="#080610" stroke="#000"/>
  <path id="sucker_base" 
    d="M308.48 562.394c6.764-11.246 27.29-8.73 32.677 2.042l-.355 56.313c10.25-1.095 13.62 1.48 11.484 14.607l-.917 20.986c2.04 3.404 4.084 6.808 6.126 10.212-25.19 3.21-50.837 5.046-75.567 0 3.25-3.814 6.5-7.627 9.752-11.44l-.46-29.57c.25-4.742 4.166-4.894 17.257-5.965v-57.186z"  fill="#15141a" stroke="#000"/>
  <path id="onofftool" 
    d="M341.61 38.573c4.376.973 8.753-5.35 13.13 2.918l-3.648 26.263-13.86 10.943 4.377-40.123z"  fill="#0a0710" stroke="#000"/>

<g id="grill_stripes">
    <path d="M825.3 651.036c-9.284 2.838-17.74 4.452-29.092 5.76M825.42 657.188c-9.282 2.838-17.738 4.452-29.09 5.76M824.594 663.304c-9.284 2.838-17.74 4.452-29.092 5.76"  transform="matrix(1.06502 0 0 1.1018 -647.376 -193.562)" fill="none" stroke="#000" stroke-width="2.769" />
    <path d="M825.3 651.036c-9.284 2.838-17.74 4.452-29.092 5.76M825.42 657.188c-9.282 2.838-17.738 4.452-29.09 5.76M824.594 663.304c-9.284 2.838-17.74 4.452-29.092 5.76"  transform="matrix(-1.06502 0 0 1.1018 983.54 -195.244)" fill="none" stroke="#000" stroke-width="2.769"/>
    <path d="M181.812 532.945c-10.304 1.156-19.484 1.16-31.625.24M182.63 539.62c-10.305 1.157-19.485 1.162-31.626.24M182.463 546.06c-10.305 1.158-19.485 1.163-31.626.24"  fill="none" stroke="#000" stroke-width="3"/>
</g>

  <path id="sucker_base_shadow" 
    d="M304.186 622.27c-4.555.22-11.947-.725-11.416 7.233.27 4.025-.365 16.077.21 20.487.785 5.996 3.08 7.942 6.64 10.323 1.782 1.193 13.756-1.956 19.423-4.63 4.69-2.21 9.744 2.46 14.638 3.614 3.6.85 10.436.35 13.045.16 2.53-.184 4.626-7.18 4.477-8.785-.415-4.46 1.13-10.863.657-15.943-.543-5.824-.165-13.098-5.814-12.8-3.563.19-13.75-.174-16.898.055-3.955.287-7.183-.433-11.524-.52-3.11-.063-11.468.606-13.438.806z"  fill="#22222c" stroke="#282828"/>
  <path id="sucker_base_shadowline" 
    d="M334.963 567.044c1.772 12.992.886 27.756 0 38.976"  fill="none" stroke="#2e2e2e" stroke-width="3.75"/>
</svg>
