<svg xmlns="http://www.w3.org/2000/svg" width="1600" height="1200" viewBox="0 0 2300 1200" version="1.1"> <title>What is fast?</title> <style> .findings rect { stroke: #333; stroke-width: 1px; width: 15px; fill: #226DAA; } .findings text { } .grid rect{ stroke: #ccc; stroke-width:2px; stroke-linecap:butt; stroke-linejoin:miter; stroke-opacity:1; fill: #fff; } text { font-size: 40px; font-family:sans-serif; } .values text { font-size: 20px; } .rotate { transform: rotate(-90deg); } </style> <g class="grid" transform="translate(62,-185)"> <rect width="2100" height="900" y="300" x="50" /> <rect width="2100" height="700" y="400" x="50" /> <rect width="2100" height="500" y="500" x="50" /> <rect width="2100" height="300" y="600" x="50" /> <rect width="2100" height="100" y="700" x="50" /> </g> <g class="findings" transform="translate(80,-185)">  <rect height="15" y="490" x="240" /> <text x="180" y="440" class="temphidden">Hello World</text> <rect height="15" y="490" x="1820" class="temphidden" /> <text x="1700" y="440" class="temphidden">Lord of the Rings</text> </g> <g class="values"> <text x="100" y="1060">0 s</text> <text x="200" y="1060">1 s</text> <text x="300" y="1060">2 s</text> <text x="400" y="1060">3 s</text> <text x="500" y="1060">4 s</text> <text x="600" y="1060">5 s</text> <text x="700" y="1060">6 s</text> <text x="800" y="1060">7 s</text> <text x="900" y="1060">8 s</text> <text x="1000" y="1060">9 s</text> <text x="1100" y="1060">10 s</text> <text x="1200" y="1060">11 s</text> <text x="1300" y="1060">12 s</text> <text x="1400" y="1060">13 s</text> <text x="1500" y="1060">14 s</text> <text x="1600" y="1060">15 s</text> <text x="1700" y="1060">16 s</text> <text x="1800" y="1060">17 s</text> <text x="1900" y="1060">18 s</text> <text x="2000" y="1060">19 s</text> <text x="2100" y="1060">20 s</text> </g> <g class="axes"> <text x="600" y="1100">Time to Load</text> <text x="-700" y="60" class="rotate">Number of Visitors</text> </g> </svg> 