<svg
   xmlns:svg="http://www.w3.org/2000/svg"
   xmlns="http://www.w3.org/2000/svg"
   width="900"
   height="600"
   viewBox="0 0 900 600"
   version="1.1">
   <defs id="defs"><clipPath id="_ABSTRACT_RENDERER_ID_1"><rect x="172" y="115" width="556" height="371"></rect></clipPath></defs><rect x="0" y="0" width="900" height="600" stroke="none" stroke-width="0" fill="#ffffff"></rect><g><text text-anchor="start" x="172" y="89.9" font-family="Arial" font-size="14" font-weight="bold" stroke="none" stroke-width="0" fill="#000000">Timings (ms)</text><rect x="172" y="78" width="556" height="14" stroke="none" stroke-width="0" fill-opacity="0" fill="#ffffff"></rect></g><g><rect x="742" y="115" width="144" height="37" stroke="none" stroke-width="0" fill-opacity="0" fill="#ffffff"></rect><g><rect x="742" y="115" width="144" height="14" stroke="none" stroke-width="0" fill-opacity="0" fill="#ffffff"></rect><g><text text-anchor="start" x="775" y="126.9" font-family="Arial" font-size="14" stroke="none" stroke-width="0" fill="#222222">Staples</text></g><rect x="742" y="115" width="28" height="14" stroke="none" stroke-width="0" fill="#3366cc"></rect></g><g><rect x="742" y="138" width="144" height="14" stroke="none" stroke-width="0" fill-opacity="0" fill="#ffffff"></rect><g><text text-anchor="start" x="775" y="149.9" font-family="Arial" font-size="14" stroke="none" stroke-width="0" fill="#222222">Wolfermans</text></g><rect x="742" y="138" width="28" height="14" stroke="none" stroke-width="0" fill="#dc3912"></rect></g></g><g><rect x="172" y="115" width="556" height="371" stroke="none" stroke-width="0" fill-opacity="0" fill="#ffffff"></rect><g clip-path="url(https://www.webpagetest.org/video/compare.php?tests=170228_WQ_2NZ%2C170228_RN_2P0&amp;thumbSize=200&amp;ival=1000&amp;end=visual#_ABSTRACT_RENDERER_ID_1)"><g><rect x="172" y="485" width="556" height="1" stroke="none" stroke-width="0" fill="#cccccc"></rect><rect x="172" y="393" width="556" height="1" stroke="none" stroke-width="0" fill="#cccccc"></rect><rect x="172" y="300" width="556" height="1" stroke="none" stroke-width="0" fill="#cccccc"></rect><rect x="172" y="208" width="556" height="1" stroke="none" stroke-width="0" fill="#cccccc"></rect><rect x="172" y="115" width="556" height="1" stroke="none" stroke-width="0" fill="#cccccc"></rect></g><g><rect x="183" y="260" width="17" height="225" stroke="none" stroke-width="0" fill="#3366cc"></rect><rect x="239" y="259" width="16" height="226" stroke="none" stroke-width="0" fill="#3366cc"></rect><rect x="294" y="446" width="17" height="39" stroke="none" stroke-width="0" fill="#3366cc"></rect><rect x="350" y="292" width="16" height="193" stroke="none" stroke-width="0" fill="#3366cc"></rect><rect x="405" y="452" width="17" height="33" stroke="none" stroke-width="0" fill="#3366cc"></rect><rect x="461" y="398" width="16" height="87" stroke="none" stroke-width="0" fill="#3366cc"></rect><rect x="516" y="484.39493333333337" width="17" height="1.1050666666666302" stroke="none" stroke-width="0" fill="#3366cc"></rect><rect x="572" y="477" width="16" height="8" stroke="none" stroke-width="0" fill="#3366cc"></rect><rect x="627" y="464" width="17" height="21" stroke="none" stroke-width="0" fill="#3366cc"></rect><rect x="683" y="142" width="16" height="343" stroke="none" stroke-width="0" fill="#3366cc"></rect><rect x="201" y="370" width="16" height="115" stroke="none" stroke-width="0" fill="#dc3912"></rect><rect x="256" y="370" width="17" height="115" stroke="none" stroke-width="0" fill="#dc3912"></rect><rect x="312" y="430" width="16" height="55" stroke="none" stroke-width="0" fill="#dc3912"></rect><rect x="367" y="362" width="17" height="123" stroke="none" stroke-width="0" fill="#dc3912"></rect><rect x="423" y="455" width="16" height="30" stroke="none" stroke-width="0" fill="#dc3912"></rect><rect x="478" y="422" width="17" height="63" stroke="none" stroke-width="0" fill="#dc3912"></rect><rect x="534" y="477" width="16" height="8" stroke="none" stroke-width="0" fill="#dc3912"></rect><rect x="589" y="468" width="17" height="17" stroke="none" stroke-width="0" fill="#dc3912"></rect><rect x="645" y="461" width="16" height="24" stroke="none" stroke-width="0" fill="#dc3912"></rect><rect x="700" y="304" width="17" height="181" stroke="none" stroke-width="0" fill="#dc3912"></rect></g><g><rect x="172" y="485" width="556" height="1" stroke="none" stroke-width="0" fill="#333333"></rect></g></g><g></g><g><g><text text-anchor="end" x="202.7" y="506.24352447854375" font-family="Arial" font-size="14" transform="rotate(-30 202.7 506.24352447854375)" stroke="none" stroke-width="0" fill="#222222">Visually Complete</text></g><g><text text-anchor="end" x="258.2" y="506.24352447854375" font-family="Arial" font-size="14" transform="rotate(-30 258.2 506.24352447854375)" stroke="none" stroke-width="0" fill="#222222">Last Visual Change</text></g><g><text text-anchor="end" x="313.7" y="506.24352447854375" font-family="Arial" font-size="14" transform="rotate(-30 313.7 506.24352447854375)" stroke="none" stroke-width="0" fill="#222222">Load Time (onload)</text></g><g><text text-anchor="end" x="369.2" y="506.24352447854375" font-family="Arial" font-size="14" transform="rotate(-30 369.2 506.24352447854375)" stroke="none" stroke-width="0" fill="#222222">Load Time (Fully Loaded)</text></g><g><text text-anchor="end" x="424.7" y="506.24352447854375" font-family="Arial" font-size="14" transform="rotate(-30 424.7 506.24352447854375)" stroke="none" stroke-width="0" fill="#222222">DOM Content Loaded</text></g><g><text text-anchor="end" x="480.2" y="506.24352447854375" font-family="Arial" font-size="14" transform="rotate(-30 480.2 506.24352447854375)" stroke="none" stroke-width="0" fill="#222222">Speed Index</text></g><g><text text-anchor="end" x="535.7" y="506.24352447854375" font-family="Arial" font-size="14" transform="rotate(-30 535.7 506.24352447854375)" stroke="none" stroke-width="0" fill="#222222">Time to First Byte</text></g><g><text text-anchor="end" x="591.2" y="506.24352447854375" font-family="Arial" font-size="14" transform="rotate(-30 591.2 506.24352447854375)" stroke="none" stroke-width="0" fill="#222222">Time to Title</text></g><g><text text-anchor="end" x="646.7" y="506.24352447854375" font-family="Arial" font-size="14" transform="rotate(-30 646.7 506.24352447854375)" stroke="none" stroke-width="0" fill="#222222">Time to Start Render</text></g><g><text text-anchor="end" x="702.2" y="506.24352447854375" font-family="Arial" font-size="14" transform="rotate(-30 702.2 506.24352447854375)" stroke="none" stroke-width="0" fill="#222222">CPU Busy Time</text></g><g><text text-anchor="end" x="158" y="490.4" font-family="Arial" font-size="14" stroke="none" stroke-width="0" fill="#444444">0</text></g><g><text text-anchor="end" x="158" y="397.9" font-family="Arial" font-size="14" stroke="none" stroke-width="0" fill="#444444">7,500</text></g><g><text text-anchor="end" x="158" y="305.4" font-family="Arial" font-size="14" stroke="none" stroke-width="0" fill="#444444">15,000</text></g><g><text text-anchor="end" x="158" y="212.9" font-family="Arial" font-size="14" stroke="none" stroke-width="0" fill="#444444">22,500</text></g><g><text text-anchor="end" x="158" y="120.4" font-family="Arial" font-size="14" stroke="none" stroke-width="0" fill="#444444">30,000</text></g></g></g><g></g></svg>