<svg xmlns="http://www.w3.org/2000/svg" width="160" height="160">
  <title>AA Battery</title>
  <defs>
    <linearGradient id="b">
      <stop offset="0" style="stop-color:#000000;stop-opacity:1;"/>
      <stop offset="1" style="stop-color:#000000;stop-opacity:0;"/>
    </linearGradient>
    <linearGradient id="a">
      <stop offset="0" style="stop-color:#ffffff;stop-opacity:0;"/>
      <stop offset=".5" style="stop-color:#ffffff;stop-opacity:0.24719101;"/>
      <stop offset="1" style="stop-color:#ffffff;stop-opacity:0;"/>
    </linearGradient>
    <linearGradient id="c">
      <stop offset="0" style="stop-color:#ffffff;stop-opacity:1;"/>
      <stop offset="1" style="stop-color:#ffffff;stop-opacity:0;"/>
    </linearGradient>
  </defs>
  <path d="M74 6.2c-5.7 0-12.4 1-19.3 3-18.5 5.6-31.3 17-28.8 25.3l40 106c2.6 8.3 20 10 38.3 4.4 18.4-5.7 31.3-17 28.8-25.4L92.6 11.8C90.5 8 83 6.2 74 6.2z" style="fill:#000000;"/>
  <path d="M65.2 34.4c-18.4 5.6-35 5.8-38.5.6l9.6 26.2c2.5 8.4 19 10 37.4 4.5C92 60 105 48.7 102.4 40.4L92 12c-.6 8.3-7.3 15.3-26.8 22.4z" style="fill:#eca548;"/>
  <path d="M30.3 31.8c-6-16.2 50-28 56-20.3 7.2 15.6-46.6 29.7-56 20.3z" style="fill:#dcdcdc;"/>
  <path d="M72.2 6.7C66.2 7 60 8 54.8 9.7 33.8 16 24.2 28 26.3 34c4 10 28.4 4.8 40.5.7 18.5-6.2 26.8-16 25-22.6C91 8.3 82 6.4 72.2 6.8zm1 5c5-.3 9 .4 10 2.4 4.8 7.8-42.6 25.7-48 15-2.8-6.3 23-16.2 38-17.2z" style="fill:#eca548;"/>
  <path d="M93 12.8l-1.3-1.4c.6 2.2 0 6-1.2 8-1.2 2.3-3 4.4-5.7 6.4-5 4-12.5 7.6-20.4 10-7.8 2.5-16.2 4-23 3.7-7-.2-13-2.4-15.4-6l-.2 1.3c2.6 4.2 8.3 5.7 15.4 6 7.2.2 15.6-1.3 23.6-3.8 8-2.5 15.5-6 20.8-10.2 2.7-2 4.8-4.3 6-6.7 1.3-2.2 2-4.7 1.5-7.2z" style="fill:#000000;"/>
  <path d="M71.3 39.8l2.4 6.4 6.4-2.4 1 2.8L75 49l2.4 6.4-3 1-2.3-6.3-6.4 2.5-1-2.8 6.2-2.4-2.4-6.4 3-1.2"/>
  <path d="M111.3 123.5c2.2 2.5-.4 4.3-1.4 6.3 2 .5 5.4.5 5 3.6-2.6-.3-5.3-1.6-8-1.2-2 1-4.7 2-4.3-1.3 3.2-.6 5.4-2.8 7-5.4l1.6-2zm-6.5-3c1.6 4 4.5-3.3.7-1.4-1 .2-1.5.8-.7 1.6zm-2.3-.3c-2 1.4-6 1.8-4.4-1.4 3.4-.6 7.3-3.2 10-3 1 2.4 3.5 6.3.5 8-2 .6-4.2-1.4-5 1.6-1.2 1.3-2.6 3.7-3.2.6-.7-2 4.2-3.2 2.2-5.8zm1.6-14c.7 2.4 3 5.3 2.4 7-3 2-2-6-5-2.7.6 1.5 2.6 4.8-.6 4.2-.4-2-2.4-5.4-3.8-2.3.8 1.5 2.7 5-.5 4.2-.6-2.7-5-7-.2-7.5l7.8-2.7zm-4-10c.7 3 3.5 6.6 3 9-2.8 1.6-1.6-4.4-4.6-2-2.2.2-5.6 3.2-7 1.4-1.4-3 4.3-2.5 6-4 4.8-.4-2.5-3.5 2.5-4.5zm-4-9.5c.8 3 3.7 6.7 3.2 9.2-2.8 1.5-1.7-4.5-4.7-2.2-2.2.3-5.6 3.3-7 1.4-1.4-3 4.3-2.5 6-4 4.8-.4-2.5-3.5 2.5-4.5zm-9.4 1c-1-2-1-4.6-3.6-4.2-2-1.6-.3-3 1.8-2.3 3 .4 7.4-1.3 9.2.8 2.3 3.6-4.2 5-6 7.7-1.4 2-3 1.4-2.8-1 .3-.6 1-.7 1.4-1zm.6-4c.4 1.5 1.3 3.3 2.7 1.2 4.6-3-1.4-1-2.8-1.4zm-1-10c2 3.5 3-4-.2-1.5-.8.3 0 1.2 0 1.6zm-4.6 1.8c2.5 4.2 4.2-4.6 0-1.7-1 .3-.4 1.3 0 1.7zm4.7 1c-.6 5-7.6 2-7.2-2-2.6-3.7 4.4-3.4 6.5-5 2-1 3.5-1.4 4 1.3 2.3 2.5.7 8.5-3.2 5.7z" style="fill:#ffffff;"/>
  <path d="M76.4 11c-8 0-15.6 2.2-23 5-6 2.2-12 3.7-17 8.8-1.7 1.4-3 4-1 5.8 2.8 3 7.5 3 11.4 2.8 8.7-1 17-4 25-8 4-2 8.4-4.3 11.3-8 1.6-1.7 1-4.2-1-5-1.7-1-3.7-1.3-5.6-1.4zM73 12.3c3 0 6.5-.3 9 1.6 2 2-1.2 4-2.5 5.3-6 4.7-13.2 7.7-20.4 10-5.8 2-12 3.7-18.3 2.7-2-.4-5-1.6-5-3.8.2-2 2.7-4.2 4.5-5.5 7.8-4.6 16.6-7 25.3-9 2.5-.7 5-1 7.5-1.4z" style="fill:#000000;"/>
  <path d="M54 11.7c-5.2 1.8-9 5-8.2 7l2.4 5.2c.8 2 5.5 2 10.8.2 5.3-1.8 9-5 8.3-7.2L65 12.3c-.3-1-5-3-11-.6z" style="fill:#c8c8c8;stroke:#000000;stroke-width:1;"/>
  <path d="M64.5 12c-.3 1-1.3 2.2-2.7 3.2-1.5 1-3.4 2-5.4 2.6-2 .7-4 1-5.7 1.3-1.8.3-3.6.4-4.5-.6v1.3c1 .5 2.7.8 4.6.6 2-.2 4-.6 6-1.3 2-.7 4-1.7 5.7-2.8 1.6-1 3-2 3.2-3.8l-1.2-.5z" style="fill:#000000;"/>
  
  <path d="M74.2 5.4c-6 0-12.7 1-19.7 3-9.2 3-17 7-22.3 11.7-5.2 4.7-8 9.6-7 14v.2l40.3 106.3c1 3.2 4 5.4 8 6.7 3.8 1.2 8.8 1.6 14.4 1.3 3.6-.4 15-2.3 16.5-3 6-2 11.7-4.5 16.2-7.2 2.4-1.6 4-2.4 5.6-4.2 2.8-2.2 5-4.7 6.3-7 1.4-2.7 1.8-5.3 1-7.7L93.7 12c-1.3-2-4.3-4-7.6-5s-7.4-1.5-11.8-1.6zm0 1.3c4.3 0 8.3.5 11.5 1.4 3 1 5.3 2.4 6.2 4l40.5 107.7c.6 2 .2 4.2-1 6.6-1.3 2.4-3.5 4.8-6.3 7.2-1 .6-3.7 2.8-5.5 3.8-2 1.2-9.6 5-15.5 7-5 1.3-10 2.4-15.6 3-5.6.4-11 0-14.8-1.3-3.8-1.2-6.3-3.2-7-6L26.4 34c-1-3.8 1.4-8.4 6.5-13 5-4.4 12.8-8.5 22-11.3 6.7-2 13.4-3 19.2-3z" style="fill:#000000;"/>
</svg>
  