<svg xmlns="http://www.w3.org/2000/svg" width="493" height="510">
<path d="M26.7 2.8l-.8.7 89 103 .8-.7zM138.3 89c.3 0 .6-.3 1-.5l-30-46.2-.8.5zm82-29.6h1l-3.8-32h-1zm65 2.3c.3 0 .7 0 1 .2l5-24.4-1-.3zm1 .2l-.3 1c8.3 1.7 16.5 4 24.3 6.6l.4-1c-8-2.8-16-5-24.4-6.7zm24.4 6.5c.3 0 .7.3 1 .4l5.8-16.6h.8v-2l-1-.3zm1 .4l-.4 1c7.7 2.7 15.2 5.8 22.5 
  9.4l.5-1c-7.3-3.6-15-6.8-22.6-9.5zm22.6 9.3l.8.5 31.8-64-1-.5zm.8.5l-.4 1c7.4 3.7 14.5 7.8 21.3 12.4l.6-1c-7-4.6-14-8.7-21.5-12.4zm21.6 12.4l.8.6L378 61l-.8-.6zm52 50.5l.7.7 25-17.6-.4-1zm18 30.2l.4.8 39.7-18.7-.4-.8zm.4.8l-1 .5c9 19.5 15.3 40.8 17.7 63h1c-2.3-22.5-8.5-43.8-17.7-63.5zm17.8 63.5v1l46-4.4v-1zm0 1h-1c.6 6.8 1 13.7 1 20.6v6.4h1l.2-6.5c0-7-.4-14-1-20.7zm1 27v1l40 1v-1zm0 1h-1c-.8 17.4-3.6 34.2-8.5 50.2l1 .3c5-16 8-33 8.5-50.4zm-8.4 50.5c0 .3 0 .7-.2 1l13 4 .3-1zm-18.7 43l-.5 1 33 19.5.4-.8zm-79 76c-.3 0-.6.2-1 .4l38.5 73.2.8-.4zm-88 23.2h-1l1 33h1zm-1 0v-1.2h-5c-15.2 0-30-1.6-44.3-5l-.3 1.3c14.5 3.3 29.5 5 44.8 5h5zm-49.6-5c-.2 0-.5 0-.8-.2l-8 34 1 .3zm-.8-.2l.2-1c-20.6-5-40-13-57.5-23.5l-.7 1c17.7 10.7 37.2 18.7 58 23.5zm-58-23.5c0-.2-.4-.3-.7-.5l-20 32.7 1 .5zm-.7-.5l.6-1c-8.5-5.3-16.6-11.2-24.3-17.6l-.7.8c7.7 6.5 16 12.5 24.5 17.8zM117 411l-.8-.6L95.4 435l.7.8zm-49-61c0-.3-.3-.6-.4-1L44 361.4l.5 1zM56 320.8l-.4-1-18.4 6 .3 1zm-.4-1l1-.4c-3.8-12-6.6-24.6-8-37.6H47c1.7 13.2 4.5 25.8 8.4 38zm-8.3-38v-1l-44.2 5.7v1zm0-1h1c-.4-5-.8-9.8-1-14.8h-1.2c.2 5 .6 10 1.2 15zM45.8 266v-1l-32 1.3.2 1zm0-1h1v-7c0-7 .3-13.6 1-20.2l-1-.2c-.8 6.7-1 13.5-1 20.3v7zm1-27.4v-1L11 233l-.2 1zm0-1l1 .2c2.5-22.2 8.4-43.2 17.4-62.5l-1-.5c-9 19.4-15 40.6-17.4 62.8zm17.4-62.8c0-.3.3-.7.4-1l-36.3-16.6-.4 1zm.4-1l1 .5c8-17.2 18.6-33 31-47l-.8-.8c-12.5 14-23 30-31.2 47.3zm31.2-47.3l.6-.7-20.5-18-.8.7zm.6-.7l1 .7c5.6-6.4 11.8-12.5 18.4-18.2l-.8-1c-6.6 5.8-12.8 12-18.6 18.5zm19.4-17.5l5.7 6.6.8-.7-5.8-6.6-.7.6zm6.5 6l.8 1c6.8-5.8 14-11 21.3-15.8l-.6-1c-7.5 4.7-14.7 10-21.4 15.8zm21.4-16c.3 0 .6-.2 1-.4l-5-7.5-.8.6zm1-.4l.5 1C168 83.5 194 74 221.8 70.4l-.2-1.2c-28 3.5-54.2 13.2-77 27.6zm77-27.7c.3 0 .6 0 1-.2l-1-8.6h-1zm61.6 2c.3.2.7.3 1 .3L286 63c-.3 0-.6 0-1-.2zm1 .3l-.3 1.2c8 1.6 15.5 3.7 23 6.3l.4-1c-7.5-2.7-15.2-4.8-23-6.4zm23 6.3c.4 0 .8 0 1 .3l3-8.3c-.3 0-.6-.3-1-.4zm1 .3l-.3 1c7.3 2.7 14.4 5.6 21.3 9l.5-1c-7-3.5-14-6.5-21.4-9zm21.5 9c.3 0 .6.2 1 .4l3.8-8c-.3 0-.6-.2-.8-.3zm21.2 12l.8.7 5-7.3-1-.5zm.8.7l-.6 1c18.8 12.7 35.2 28.6 48.4 47l1-.6c-13.3-18.6-29.8-34.6-48.8-47.4zm48.8 47.4l.6.8 7.2-5-.6-1zm.6.8l-1 .7c6.2 8.6 11.6 18 16.3 27.7l1-.5c-4.6-9.8-10-19.2-16.3-28zm16.4 28c0 .3.3.6.4 1l8-4-.4-.8zm17.3 61v1l8.8-.8v-1zm1 27c0 .3 0 .7-.2 1l9 .2v-1zm-8 48.7l-.4.8 8.5 2.6c.2-.3.2-.6.3-1zm-.4.8l-1-.3c-4.4 14-10.3 27.2-17.5 39.6l1 .8c7.4-12.5 13.3-26 17.6-40zm-17.5 40l-.4.8 7.6 4.5.5-.7zm-.4.8l-1-.6c-17.7 30-43.4 54.5-74 70.8l.4 1c31-16.4 56.8-41 74.6-71.2zM335 426c-.3 0-.5.3-.8.4l4 7.8 1-.5zm-.8.4l-.6-1c-24.7 13-52.5 20.5-82 21.4v1.2c29.7-.8 57.7-8.6 82.6-21.6zM251.5 448h-1l.3 8.8h1zm-48-4.6c-.4 0-.8-.2-1-.3l-2 8.7 1 .2zm-56-22.6l-.8-.5-4.6 7.5 1 .5zm-24-17.4l-1-.6-5.5 6.7.7.7zm-1-.6l1-1C104.7 386 89.2 367 78 345l-1 .6c11.3 22 27 41.5 45.6 57.4zM77 345.4l-.6-1-7.8 4 .5 1zm-.6-1l1-.5c-4.3-8.6-8-17.5-11-26.7l-1.2.3c3 9.3 6.8 18.3 11.2 27zm-11.2-26.8l-.3-1-8.5 2.8c0 .4.2.7.3 1zm-8.2-37v-1l-9 1.2c.2.3.2.7.3 1zm0-1h1c-.5-4.7-.8-9.3-1-14h-1.2c.2 4.8.5 9.4 1 14zm-1.2-14v-1l-9 .4c.2.3.2.6.2 1zm.8-27v-1L48 237l-.2 1zm0-1l1.3.2c2-21 7.8-41 16.3-59.4l-1-.5c-8.7 18.4-14.4 38.5-16.6 59.7zM73.3 178l.5-1-8-3.7-.5 1zm30-46l.7-.7-6.7-5.8-.7.8zm38.6 4l1 1c5.6-5 11.5-9.3 17.8-13.3l-.8-1.2c-6.3 4-12.3 8.5-18 13.4zm18-13.5l1-.5L145 98c-.3 0-.6.3-1 .5zm65.5-23.7h1l-3.5-28.5c-.3 0-.7 0-1 .2zm52 1.8c.4 0 .7 0 1 .2l5.7-28c-.3 0-.6 0-1-.2zm1 .2l-.3 1.4c6.5 1.4 12.8 3 19 5.2l.4-1.4c-6.2-2-12.6-3.8-19-5.2zm20 5.6l-.4 1.3c6 2.2 12.2 4.7 18 7.6l.6-1.3c-5.8-3-12-5.5-18.2-7.6zm18.3 7.6c.3 0 .6.3 1 .4L330 88.8l-1-.5zm1 .4l-.7 1.3c5.7 3 11.3 6.2 16.6 9.7l.8-1c-5.4-3.7-11-7-17-10zm16.8 10c.3 0 .6.2 1 .4L351 101c-.3 0-.6-.3-1-.5zm1 .4l-1 1.2c15.8 10.6 29.6 24 40.6 39.4l1.2-1c-11-15.4-25-29-41-39.6zm40.8 39.7l.6.8 23.4-16.4-.6-1zm.6.8l-1.2 1c5.2 7.2 9.8 15 13.7 23.2l1.3-.6c-4-8.3-8.6-16.2-13.8-23.7zm13.8 23.6l.5.8 26-12.2-.5-1zm14.6 51v1l28.6-2.7v-1zm0 1l-1.3.2c.5 5.5.8 11 .8 16.7 0 1.8 0 3.7-.2 5.5h1.5l.2-5.6c0-5.8-.3-11.4-1-17zm1 22.6l-.2 1 28.6.6v-1zm-.2 1h-1.4c-.6 13.5-2.8 26.6-6.6 39l1.4.5c3.8-12.5 6-25.7 6.6-39.4zm-6.6 39.5c0 .4-.2.8-.3 1l27.5 8.5.3-1zm-.3 1l-1.2-.3c-3.6 11.6-8.5 22.7-14.5 33l1.2.8c6-10.5 11-21.6 14.6-33.4zm-14.5 33.5l-.5.8 24.6 14.7c0-.3.3-.6.5-1zm-63.3 61l-1 .5 13.4 25.3c.3 0 .6-.3 1-.5zm-1 .5l-.6-1.3c-20.7 11-44.2 17.3-69 18v1.5c25-.7 48.8-7.2 69.7-18.2zm-69.6 18.2h-1l1 28.6h1zm-1 0v-1.4h-3.8c-12 0-24-1.3-35.3-4l-.4 1.5c11.6 2.6 23.5 4 35.8 4h3.8zm-39.5-4h-.8l-6.5 27.8c.3 0 .6 0 1 .2zm-.8 0l.3-1.5c-16.4-3.8-31.7-10.2-45.7-18.6l-.8 1.3c14 8.5 29.7 15 46.2 18.8zM163 395l-.8-.4-15 24.4 1 .6zm-20.4-14.6l-.8-.6-18.4 22c.3 0 .5.3.8.5zm-.8-.6l1-1c-15.6-13.4-28.6-29.7-38-48l-1.4.7c9.6 18.5 22.7 35 38.4 48.3zm-38.4-48.3l-.5-1L77.4 344l.5.8zm-.5-1l1.2-.6c-3.7-7-6.8-14.4-9.3-22.2l-1.5.5c2.6 7.8 5.7 15.3 9.4 22.5zm-9.5-22.4l-.3-1-27.2 9 .3 1zm-7-31.3v-1L58 279.6l.2 1zm-1-13.5H87v-5.6c0-5.5 0-11 .7-16.2h-1.5c-.5 5.2-.8 10.6-.8 16 0 2 0 3.8.2 5.7zm.7-21.8v-1l-28.3-3c-.2.4-.2.8-.2 1zm0-1H88c2-17.5 6.7-34.3 14-49.8l-1.5-.7c-7.2 15.6-12 32.6-14 50.4zm14-50.4c.3-.3.4-.6.6-1l-26-11.8-.5 1zm25.5-38.6l.6-.7-21.5-19-.7.8zm.6-.7l1 1c4.7-5.2 9.5-10 14.7-14.4l-1-1c-5.2 4.4-10 9.2-14.7 14.4zm15.7-13.4l8.3 9.7.8-.7-8.3-9.7-.7.6zm25.5-3.2c.3 0 .6-.3 1-.5l-7-10.8-1 .5zm1-.5l.8 1.2c17.2-10.7 36.8-18 58-20.7l-.3-1.6c-21.3 2.7-41.2 10-58.6 21zm58.5-21c.4 0 .7 0 1-.2l-1.5-12.6h-1zm1-.2l.2 1.6c5.8-.7 11.7-1 17.6-1 9.7 0 19.2 1 28.4 2.7l.3-1.5c-9.3-1.8-19-2.8-28.7-2.8-6 0-12 .4-17.8 1zm46.5 1.7l1 .2 2.5-12.5c-.3 0-.6 0-1-.2zm1 .2l-.3 1.6c5.8 1.2 11.4 2.7 17 4.6l.5-1.6c-5.6-2-11.3-3.5-17.2-4.7zm17.6 6.6c5.8 2 11.3 4.2 16.7 6.8l.6-1.3c-5.3-2.6-11-5-16.6-7zm.7-1.5l4.2-12-1-.4-4.3 12c.3 0 .6.2 1 .4zm17.5 7.4l-.7 1.4c5.3 2.6 10.3 5.5 15 8.7l1-1.3c-5-3.2-10-6.2-15.3-8.8zm53.4 45.5l.6.8 10.4-7.3-.6-.8zm.6.8l-1.3 1c4.6 6.6 8.8 13.7 12.3 21.2l1.5-.7c-3.6-7.6-7.8-14.7-12.6-21.5zm12.6 21.5l.4 1 11.6-5.6-.5-1zm.4 1l-1.4.6c6.5 14 11 29 12.7 45l1.6-.2c-1.7-16-6.2-31.4-12.8-45.5zm13 45.4v1l12.7-1.2c-.2-.3-.2-.7-.2-1zm0 1l-1.6.2c.5 5 .8 10 .8 15.3v5.3h1.5V258c0-5.3-.3-10.5-.8-15.6zm.7 21c0 .2 0 .6-.2 1h12.8v-1zm-.2 1h-1.5c-.6 12-2.6 24-6 35l1.5.6c3.5-11.4 5.5-23.4 6-35.7zm-6 35.6c0 .3 0 .6-.2 1l12.2 3.7c0-.3 0-.7.2-1zm-13.5 31.2l-.5 1 11 6.4c0-.3.3-.6.5-.8zm-.5 1l-1.4-1c-13.5 23-33 41.8-56.6 54.3l.8 1.4c23.7-12.7 43.6-31.8 57.2-55zm-57.2 54.7c-.3 0-.6.2-1 .4l6 11.3 1-.5zm-1 .4l-.6-1.4c-19 10-40.2 15.8-63 16.4l.2 1.6c23-.7 44.4-6.6 63.5-16.6zM250.3 404h-1l.4 12.8h1zm-1 0v-1.5h-3.4c-11 0-21.8-1.2-32-3.6l-.5 1.5c10.5 2.3 21.4 3.6 32.5 3.6h3.4zm-36-3.5l-.8-.2-3 12.4c.4 0 .7 0 1 .2zm-61.5-30.7l-.7-.6-8.2 9.7c.2 0 .5.3.7.5zm-.7-.6l1-1.2c-14.2-12-26-27-34.7-43.6l-1.3.7c8.7 17 20.6 32 35 44.2zm-35-44l-.5-1-11.3 6c0 .2.3.5.5.8zm-.5-1l1.4-.7c-3.4-6.4-6.2-13.2-8.5-20.2l-1.5.5c2.3 7 5.2 14 8.5 20.5zm-15-50l1.6-.2-.7-10.2h-1.5c0 3.6.4 7 .7 10.5zm-.8-11.3l1.6-.2v-5c0-4.8 0-9.7.6-14.5h-1.6c-.5 4.7-.8 9.6-.8 14.6v5zm13.5-66.7l.5-1L102 190l-.3 1zm23-35.2c.4-.2.6-.4.8-.7l-9.6-8.4-.6.7zm.8-.7l1.2 1c4-4.5 8.5-9 13-13l-1-1c-4.6 4-9 8.4-13.2 13zm14.3-12l15.7 18.2.8-.6-15.7-18.2-.7.6zm16.5 17.6l1.2 1.3c4.2-3.6 8.7-7 13.4-9.8l-1-1.7c-4.8 3-9.4 6.4-13.6 10zm13.5-10.2c.3 0 .6-.3 1-.5l-13-20c-.3 0-.6.3-1 .5zm49-17.6h1l-3-23.8h-1zm39 1.3l1 .2 5-23.4c-.5 0-.8 0-1-.2zm29.8 10l1 .5 10.5-21.4-.8-.5zm1 .5l-1 1.7c4.3 2 8.3 4.5 12.3 7l1-1.5c-4-2.6-8-5-12.4-7.2zm13.2 7.8l-1 1.5c11.6 8 21.8 17.8 30 29.2l1.6-1c-8.4-11.7-18.8-21.7-30.6-29.7zm30.6 29.6c0 .3.4.5.5.8l19.6-13.8-.7-.8zm11 18.5l.4.8 21.6-10.2-.5-1zm.4.8l-1.8.8c5.3 11.3 9 23.5 10.4 36.4l2-.2c-1.6-13-5.3-25.5-10.6-37zm10.5 37v1l24-2.2-.2-1zm0 1l-1.8.2c.3 4.3.6 8.6.6 13v4.7h1.8V258c0-4.5-.2-9-.6-13.2zm.7 18v1l24 .5v-1zm0 1h-2c-.4 9.7-2 19-4.7 28l1.7.7c2.8-9.2 4.5-18.8 5-28.7zm-5 28.7c0 .3 0 .6-.2 1l22.8 7c0-.4.2-.7.3-1zm-.2 1l-2-.6c-2.5 8.4-6 16.6-10.4 24.2l1.6 1c4.5-7.8 8-16 10.8-24.7zM350.4 318l-.5 1 20.4 12.3.6-1zm-47.6 46.4c-.3 0-.6.3-1 .4L313 386l.8-.5zm-1 .4l-.8-1.7c-15.5 8.3-33 13-51.7 13.6v2c19-.6 36.8-5.5 52.6-13.8zm-52.4 13.8h-1l.7 24 1-.2zm-1 0v-2h-2.6c-9 0-17.8-1-26.3-2.8l-.4 2c8.7 1.8 17.6 2.8 26.8 2.8h2.6zm-29.3-3c-.2 0-.5 0-.8-.2l-5.4 23.3 1 .2zm-.8-.2l.4-1.8c-12-3-23.6-7.6-34-13.8l-1 1.6c10.6 6.4 22.2 11 34.6 14zm-34.5-14l-1-.5-12.3 20.3.8.5zm-15.6-11c0-.3-.4-.5-.6-.7L152 368l.7.6zm-29.8-38l1.7-.7c-2.8-5.3-5-10.8-7-16.4l-1.8.6c2 5.6 4.2 11.2 7 16.5zm-7-16.5c0-.4-.2-.8-.3-1l-22.8 7.4.3 1zm-5.3-24c0-.2 0-.6-.2-1l-23.7 3 .2 1zm-.2-1l2-.2c-.3-2.6-.6-5.3-.7-8h-1.8c0 3 .3 5.6.6 8.3zm-.6-8v-1l-24 .8v1zm0-1l2-.2-.2-4c0-4 .2-8 .6-11.8l-2-.2c-.3 4-.5 8-.5 12 0 1.4 0 2.8.2 4zm.5-16.2v-1l-23.7-2.5v1zm10.7-39c.2-.2.3-.5.4-1L115 196l-.3 1zm19-29l.8-.7-18-15.7-.7.8zm13-10l1.4 2 .7-.7-1.5-1.7-.7.6zm15.2-8.4l1-.5-1.3-2c-.3 0-.6.3-1 .5zm1-.5l1 1.6c13.5-8.4 28.8-14 45.3-16.2l-.3-2c-16.8 2.2-32.5 8-46.2 16.5zm46-16.6h1l-.2-2.4h-1zm1 0l.3 2c4.5-.7 9-1 13.8-1 7.7 0 15 .8 22.4 2.2l.4-2c-7.4-1.4-15-2.2-22.8-2.2-4.8 0-9.5.3-14 1zm37 1.3c.3 0 .6 0 1 .2l.4-2.4c-.3 0-.6 0-1-.2zm28.6 9.7c.3 0 .6.3 1 .4l1-2-1-.5zm12.8 7.3l.8.6 1.3-2-.7-.5zm30.3 29l.6 1 1.8-1.4-.6-.8zm.6 1l-1.7 1c3.7 5.4 7 11 9.8 16.8l2-.8c-3-6-6.3-11.7-10-17zm10 17l.3 1 2-1c0-.4-.2-.7-.3-1zm.3 1l-1.8.7c5 11 8.6 22.7 10 35h2c-1.5-12.8-5-24.8-10.2-35.8zm10.2 35.6v1l2.4-.3c-.2-.3-.2-.6-.2-1zm.7 18.4v1c2.7 0 3-1 0-1zm-4.8 28.6l-.3 1 2.3.6c0-.4.3-.7.4-1zM346.8 316l-.5.8 2 1.2c0-.3.3-.5.5-.8zm-.5.8l-1.7-1c-10.7 18.2-26.2 33-44.7 43l.8 1.8c19-10 34.6-25.3 45.5-43.8zm-45.5 43.8l-1 .5 1.2 2c.3 0 .6-.2.8-.3zm-1 .5l-.8-1.7c-15 8-32 12.5-49.8 13v2c18.3-.5 35.5-5.2 50.7-13.2zm-50.5 13.3h-1v2.4h1zm-29.2-2.8c-.2 0-.6 0-1-.2l-.4 2.3c.3 0 .6 0 1 .2zm-34-13.7l-1-.5-1.2 2c.3 0 .6.3 1 .5zm-1-.5l1-1.7c-4.8-3-9.5-6.4-13.8-10L171 347c4.3 3.8 9 7.2 14 10.3zM171 347c-.4 0-.6-.3-1-.6l-1.4 1.8.8.6zm-1-.6l1.4-1.5c-11-9.6-20.4-21.3-27.2-34.4l-1.8 1c7 13.3 16.4 25 27.7 34.8zm-35-52.8l1.8-.7c-2.2-7-3.8-14.2-4.7-21.7l-1.8.3c.8 7.5 2.5 15 4.7 22zm-4.8-22c0-.4 0-.7-.2-1l-2.2.2v1zm-.2-1l2-.3c-.3-2.5-.5-5-.6-7.6h-2c0 2.7.4 5.3.6 8zm-.6-7.8v-1H127v1zm0-1h2v-4c0-3.8 0-7.6.5-11.4l-2-.2c-.5 3.8-.7 7.8-.7 11.7v3.8zm.5-15.6v-1l-2.2-.2c0 .3 0 .6-.2 1zm0-1l2 .2c1.4-12.7 5-24.8 10-36l-1.7-.8c-5.3 11.3-9 23.7-10.3 36.6zm10.3-36.6c0-.3.2-.6.4-1l-2-.8-.5 1zm.4-1l1.8 1C147 199 153 190 160.2 182l-1.5-1.4c-7.2 8-13.3 17.2-18 27zm18-27l.6-.7-1.7-1.7-.7.8zm.6-.7l1.5 1.2c3.2-3.5 6.7-7 10.3-10l-1.2-1.5c-3.7 3.2-7.2 6.6-10.5 10.2zM171 171l21.8 25c.3 0 .5-.3.8-.5l-21.8-25c-.2 0-.5.3-.7.5zm22.6 24.5l1.8 2c2.8-2.2 5.8-4.3 9-6.3l-1.7-2.4c-3.2 2-6.3 4.3-9 6.7zm9-6.7c.4 0 .7-.4 1-.5l-18-28-1 .6zm33.4-11.7l.3 2.8c3-.2 6.3-.5 9.5-.5 5.2 0 10.3.5 15.2 1.5l.5-2.8c-5-1-10.3-1.5-15.7-1.5-3.3 0-6.6.2-9.8.6zm25.5 1h1l6.7-32.5c-.4 0-.7 0-1-.2zm8.5 5l-2.7 8c.3 0 .6 0 1 .2l2.7-7.8-1-.3zm1 .4c3.2 1 6.3 2.3 9.3 3.8l1.3-2.6c-3-1.6-6.3-3-9.7-4zm10.6 1.2c.3 0 .6.3 1 .4l14.6-29.8-1-.4zm30.5 26l-2.2 1.6c2.5 3.6 4.8 7.3 6.7 11.3l2.6-1.3c-2-4-4.3-8-7-11.8zm7 11.7l.5 1 30-14.3c0-.3-.2-.6-.4-1zm.5 1l-2.6 1.2c3.2 7 5.5 14.8 6.5 23l3-.4c-1-8.5-3.5-16.5-7-24zm7 24v1l33-3.3v-1zm.4 15.2l-3-.2c-.3 6-1.4 11.8-3 17.3l2.8 1c1.7-6 2.8-12 3-18zm-3.2 18l-.3 1 31.7 9.6.3-1zm-7.3 17c0 .2-.3.5-.5.8l28.6 17c0-.2.3-.5.5-.8zm-.5.8l-2.5-1.5c-7.2 12.5-17.7 22.7-30.4 29.6l1.5 2.4c13-7 24-17.7 31.5-30.6zm-31.5 30.6l-1 .5 15.5 29.3c.3 0 .6-.3 1-.5zm-1 .5l-1.3-2.7c-10.3 5.4-21.8 8.6-34 9v3c12.7-.5 24.7-3.8 35.3-9.4zm-35.3 9.2h-1l1 33h1zm-20.2-2c-.3 0-.6 0-1-.2l-7.4 32.3 1 .3zm-1-.2l.7-2.8c-7.8-2-15.3-5-22-9l-1.5 2.5c7 4.2 14.7 7.4 23 9.3zm-22.8-9.3c-.3 0-.5-.3-.8-.5L186 355.6l1 .5zm-10.6-7.5l-.8-.7-21.4 25.4c.3 0 .5.3.8.5zm-.8-.7l2-2.2c-7.7-6.5-14-14.4-18.6-23.3l-2.5 1.3c4.8 9.2 11.3 17.5 19 24.2zm-19-24.2c-.3-.3-.4-.6-.6-1l-29.5 15.4c0 .3.3.6.5 1zm-.6-1l2.6-1.2c-1.7-3.3-3.2-6.8-4.4-10.4l-2.7 1c1.2 3.7 2.8 7.3 4.5 10.8zm-5-11.8l3-1c-1.6-4.6-2.7-9.6-3.2-14.7l-3 .4c.7 5.3 1.8 10.4 3.3 15.3zm-3-15.3c-.2-.3-.2-.7-.3-1l-33 4v1zm-.3-1l2.8-.4-.3-4.5h-3l.4 5zm-.4-4.8v-1l-33.2 1.3v1zm0-1h3c-.2-1-.2-1.7-.2-2.5 0-2.7.2-5.3.4-8l-3-.2c0 2.7-.3 5.4-.3 8v2.6zm.3-10.6v-1l-33-3.4v1zm0-1l3 .3c1-8.6 3.3-17 7-24.5l-2.7-1.2c-3.7 8-6.3 16.5-7.3 25.5zm7.3-25.5c0-.3.3-.6.4-1l-30.2-13.7c0 .3-.3.6-.4 1zM186 203l2 2c2-2.3 4.3-4.5 6.7-6.5l-2-2.2c-2.3 2-4.6 4.4-6.8 6.8zm8.7-4.5l5.4 6.3 1-.7-5.6-6.2-.7.7zm14 0c.4-.3.6-.5 1-.6l-4.6-7-.7.4zm1-.6l1.7 2.7c7.6-4.6 16.2-7.6 25.4-9l-.5-3.2c-9.6 1.3-18.7 4.5-26.7 9.4zm26.6-9.5c.4 0 .7 0 1-.2l-1-8.2c-.3.2-.6.2-1 .3zm23 .6l1 .3 1.7-8c-.4 0-.7-.2-1-.3zm1 .3l-.7 3.3c2.2.5 4.4 1 6.5 1.7l1.3-3c-2.3-1-4.6-1.5-7-2zm5.8 5l-2.4 7.3 1 .3 2.5-7.3-1-.4zm1 .4c3 1 5.5 2 8 3.2l1.6-3c-2.7-1.4-5.5-2.5-8.4-3.5zm9.6.2c.3 0 .6.3 1 .4l3.6-7.4-1-.5zm1 .4l-1.6 3c2.2 1 4.3 2.3 6.3 3.6l1.8-2.8c-2-1.4-4.2-2.6-6.5-3.8zm7.4 4.4l-2 2.8c6.5 4.3 12 9.7 16.6 16l2.8-2c-4.8-6.6-10.7-12.3-17.4-16.8zm17.4 16.7l.6.8 6.8-4.7-.6-.8zm.6.8l-2.8 2c2.2 3 4 6.3 5.7 9.6l3-1.5c-1.7-3.6-3.8-7-6-10.2zm6.4 11l-3 1.5c2.7 6 4.6 12.4 5.5 19.2l3.3-.3c-1-7.2-3-14-6-20.3zm6 20.4v1l8.3-.8c0-.5 0-.8-.2-1zm0 1l-3.4.3c.3 2.6.5 5.2.5 8v3.6h3.3V258c0-3 0-5.6-.4-8.3zm.4 12v1h8.2v-1zm-2.7 16c0 .3 0 .6-.2 1l8 2.4c0-.3 0-.6.2-1zm-.2 1l-3.2-1c-1.4 4.5-3.3 8.8-5.6 12.8l3 1.7c2.3-4.3 4.3-8.8 5.8-13.6zm-6 13.5c0 .3-.2.6-.4 1l7 4c.3 0 .5-.4.6-.7zM278.4 320l-1.5-3c-8.7 4.6-18.6 7.3-29 7.6v3.4c11-.3 21.4-3.2 30.5-8zm-30.5 8h-1l.3 8.3h1zm-17.2-1.7c-.4 0-.7 0-1-.2l-2 8.2c.4 0 .8 0 1 .2zm-1-.2l.7-3.2c-6.6-1.5-12.8-4-18.5-7.5l-1.8 3c6 3.5 12.6 6.2 19.6 7.8zm-19.6-7.8l-.8-.5-4.4 7c.3.3.6.4 1 .6zm-.8-.5l1.7-3c-3-1.6-5.6-3.5-8-5.6l-2.2 2.6c2.6 2.2 5.4 4.3 8.4 6zM200 311l2.2-2.6c-6.4-5.5-11.7-12.2-15.6-19.8l-3 1.6c4 8 9.7 15 16.4 20.8zm-16.4-20.8l-.5-1-7.2 4 .4.8zm-4.3-10.2c0-.3-.3-.6-.4-1l-8 2.6.4 1zm-.4-1l3.2-1c-1.3-4-2.2-8.3-2.7-12.6l-3.3.4c.5 4.6 1.4 9 2.7 13.2zm-2.8-13.2c0-.3 0-.7-.2-1l-8.2 1c0 .4 0 .7.2 1zm-.2-1l3.4-.4-.2-3.6h-3.4c0 1.4 0 2.7.2 4zm-.2-4v-.8l-8.3.3v1zm.3-10c0-.2 0-.5.2-.8l-8.3-1-.2 1zm6.4-23l.4-.8-7.5-3.4c0 .3-.3.6-.4 1zm.4-.8l3 1.4c2.8-5.4 6.3-10.5 10.3-15l-2.4-2.2c-4.3 4.7-8 10-10.8 15.8zm10.8-15.8l.7-.8-6.3-5.5-.7.7zm.7-.8l2.5 2.2c1.7-2 3.6-3.6 5.5-5.3l-2.2-2.5c-2 1.8-4 3.6-5.7 5.6zm13.8 2l2.8 3c2-1.5 4-3 6-4.3l-2-3.3c-2.3 1.5-4.6 3-6.7 4.8zm29.7-13h1l-1-7.7h-1zm1 0l.5 4c2.2-.3 4.4-.5 6.6-.5 3.6 0 7 .3 10.5 1l.8-4c-3.6-.7-7.3-1-11.2-1-2.4 0-4.8 0-7 .3zm24.5 6.3c2.3.8 4.6 1.7 6.7 2.8l1.7-3.7-7.2-3zm8.5-1c.3.3.6.5 1 .6l3.3-7c-.3 0-.6-.2-1-.4zm1 .6l-2 3.6c1.8.8 3.5 1.8 5 2.8l2.3-3.4-5.4-3zm6 3.7l-2 3.3c5 3.5 9.7 8 13.4 13l3.3-2.4c-4-5.5-9-10.2-14.5-14zm14.6 14l.6.7 6.2-4.4-.6-.8zm.6.7l-3.4 2.3c1.8 2.5 3.4 5.2 4.7 8l3.7-1.8c-1.5-3-3.2-5.8-5-8.5zm5 8.5c0 .3.2.6.4 1l7-3.4-.5-1zm5.3 17.5v1l7.7-.7v-1zm0 1l-4 .4c.4 2.3.5 4.6.5 7v3.3h4V258c0-2.5 0-5-.4-7.3zm.5 10.7v1l7.5.2v-1zm0 1h-4.2c-.3 3.7-1 7.3-2 10.8l4 1.2c1-4 1.7-8 2-12zm-7.4 24.2l-.5.8 6.5 4 .5-1zm-.5.8l-3.5-2c-5 8.7-12.4 16-21.2 20.8l1.8 3.5c9.6-5.2 17.5-13 23-22.3zm-23 22.3l-.8.5 3.6 6.8c.3 0 .6-.3 1-.4zm-26.5 7.2h-1l.2 7.6h1zm-1 0v-4h-.7c-4 0-8-.5-11.8-1.4l-1 4c4.2 1 8.4 1.4 12.8 1.4h.7zm-13.4-1.4l-1-.3-1.7 7.5c.4 0 .7.2 1 .3zm-17.2-7c-.3 0-.6-.2-1-.4l-4 6.6 1 .5zm-1-.4l2.2-3.4c-2.3-1.4-4.4-3-6.5-4.7l-2.6 3.2c2 1.8 4.5 3.5 7 5zm-21.4-23c0-.4-.3-.7-.5-1l-7 3.5.6 1zm-.5-1l3.5-2c-1-2-2-4.5-3-7l-3.7 1.3 3 7.7zm-3.2-7.7l-.3-1-7.3 2.5.3 1zm-2.6-12v-1l-7.8 1v1zm0-1l3.8-.6v-2.7l-4.2.2.3 3zm-.4-4h4v-1.6c0-2 0-3.7.3-5.5l-4-.4-.2 6v1.5zm.4-8.4l4 .5c.7-6 2.4-12 5-17.2l-3.7-1.7c-2.8 5.7-4.6 12-5.3 18.5zm5.3-18.4c0-.3.3-.6.4-1l-7-3.2-.5 1zm.4-1l3.6 1.7c2.2-4.4 5-8.5 8.3-12.2l-3-2.5c-3.6 4-6.7 8.4-9 13.2zm9-13c0-.4.4-.6.6-1l-5.8-5-.7.8zm8-2.4l9.7 11.2.8-.6-9.7-11.3-.8.7zm10.5 10.6l4 4.7c1.2-1 2.5-2 3.8-2.7l-3.3-5.2c-1.6 1-3 2-4.5 3.2zm4.5-3.2l.8-.5-8-12.4c-.3 0-.6.3-1 .5zm.8-.5l3.4 5.3c3.5-2 7.4-3.3 11.6-4l-.8-6c-5 .6-10 2.3-14.2 4.8zm14.2-4.8h1l-1.8-15c-.3.2-.7.2-1 .2zm1 0l.8 6 4-.2c2.2 0 4.3.2 6.3.6l1.3-6c-2.4-.6-5-.8-7.5-.8-1.6 0-3.2 0-4.8.3zm12.3.3c.4 0 .7 0 1 .2l3-14.6h-1zm1 .2l-1.2 6 2.2.6 2-6c-1 0-2-.4-3-.6zm2 7c1.4.4 3 1 4.3 1.6l2.7-5.5c-1.6-.8-3.3-1.5-5-2zm7-4l1 .6 6.5-13.4-1-.5zm1 .6l-2.8 5.5 2.5 1.5 3.5-5.2c-1-.5-2-1.2-3.2-1.7zm3.2 1.8l.8.7 8.3-12.4-.8-.5zm.8.7l-3.4 5c3 2.2 5.6 4.7 7.8 7.6l5-3.5c-2.6-3.6-5.8-6.6-9.5-9zm9.6 9c0 .4.3.6.5 1l12-8.7-.4-.8zm.5 1l-5 3.5c1 1.5 2 3 2.8 4.7l5.6-2.7c-1-2-2.2-4-3.5-5.7zm3.4 5.6l.3 1 13.5-6.5-.5-1zm.3 1l-5.6 2.5c1.2 2.6 2 5.4 2.6 8.3l6-.5c-.4-3.6-1.5-7-3-10.3zm3 10.2c.2.3.3.7.3 1l14.8-1.4v-1zm.3 1l-6.2.6c.2 1.7.4 3.3.4 5 0 1 0 2-.2 3h6.2l.2-3c0-2-.2-3.7-.4-5.5zm.2 8.5v1l14.8.3v-1zm0 1h-6.3c-.2 1.7-.5 3.4-1 5l6 1.8c.6-2.2 1-4.4 1.3-6.8zm-1.4 6.8c0 .4 0 .7-.2 1l-6-1.8c-.6 2-1.4 4-2.3 5.7l5.2 3.2c1.2-2.4 2.2-4.7 3-7.2l14.2 4.4.3-1zm-3.2 8l-.5 1 12.8 7.6c0-.3.3-.6.5-1zm-.5 1l-5.3-3.2c-3 5.4-7.5 10-13 13l3 5.4c6.4-3.6 11.7-9 15.3-15.2zM265.4 293l-1 .5 7 13 1-.3zm-1 .5l-2.8-5.5c-4.5 2.3-9.5 3.7-15 3.8l.3 6.3c6.2 0 12.2-1.7 17.5-4.5zM247 298h-1l.4 15h1zm-1 0l-.3-6c-2.4 0-4.7-.4-7-1l-1.4 6.2c2.8.6 5.6 1 8.5 1zm-8.7-.8l-1-.2-3.3 14.4 1 .2zm-1-.2l1.5-6c-3.2-1-6.2-2-9-3.7l-3.2 5.3c3.3 2 7 3.4 10.8 4.4zm-11.5-5l3-5.2-3.8-2.8-4 4.7c1.5 1.3 3 2.4 4.8 3.4zm-4.7-3.3l-.7-.6-9.5 11.4.7.7zm-.7-.6l4-4.7c-3-2.7-5.7-6-7.6-9.7l-5.5 2.8c2.3 4.4 5.4 8.4 9 11.7zm-9-11.6c-.3-.3-.5-.6-.6-1l-13.2 7 .5.8zm-2.6-5.8l-.3-1-14 4.7c0 .3 0 .7.2 1zm-.3-1l6-2c-.7-2-1-4-1.4-6.3l-6.2.8c.3 2.7.8 5.2 1.6 7.7zm-1.6-7.5v-1l-14.8 2c0 .3 0 .6.2 1zm0-1l6-.7v-.8l-6 .3v1.3zm0-1.2v-1l-15 .6v1zm0-1l6-.2v-.7c0-1.2 0-2.3.2-3.4l-6.2-.6-.2 4v.8zm0-5.8l6.3.7c.6-3.8 1.7-7.4 3.3-10.7l-5.7-2.6c-2 4-3 8.2-3.7 12.6zm3.8-12.6l.5-1-13.4-6-.5 1zm.5-1l5.7 2.7c1.4-2.5 3-5 5-7l-4.6-4c-2.3 2.5-4.3 5.4-6 8.5zm6-8.5l.8-.8-11.2-10-.7 1zm.8-.8l4.6 4c.8-.7 1.5-1.4 2.4-2l-4-4.8-3 2.8z" style=" color:#000000;fill:#1f1f1f;fill-opacity:1;stroke:#b8b8b8;stroke-width:0.300;stroke-miterlimit:4;"/>
  <path d="M24.7.8l-.8.7 89 103 .8-.7zM136.3 87c.3 0 .6-.3 1-.5l-30-46.2-.8.5zm82-29.6h1l-3.8-32h-1zm65 2.3c.3 0 .7 0 1 .2l5-24.4-1-.3zm1 .2l-.3 1c8.3 1.7 16.5 4 24.3 6.6l.4-1c-8-2.8-16-5-24.4-6.7zm24.4 6.5c.3 0 .7.3 1 .4l5.8-16.6h.8v-2l-1-.3zm1 .4l-.4 1c7.7 2.7 15.2 5.8 22.5 9.4l.5-1c-7.3-3.6-15-6.8-22.6-9.5zm22.6 9.3l.8.5 31.8-64-1-.5zm.8.5l-.4 1c7.4 3.7 14.5 7.8 21.3 12.4l.6-1c-7-4.6-14-8.7-21.5-12.4zm21.6 12.4l.8.6L376 59l-.8-.6zm52 50.5l.7.7 25-17.6-.4-1zm18 30.2l.4.8 39.7-18.7-.4-.8zm.4.8l-1 .5c9 19.5 15.3 40.8 17.7 63h1c-2.3-22.5-8.5-43.8-17.7-63.5zm17.8 63.5v1l46-4.4v-1zm0 1h-1c.6 6.8 1 13.7 1 20.6v6.4h1l.2-6.5c0-7-.4-14-1-20.7zm1 27v1l40 1v-1zm0 1h-1c-.8 17.4-3.6 34.2-8.5 50.2l1 .3c5-16 8-33 8.5-50.4zm-8.4 50.5c0 .3 0 .7-.2 1l13 4 .3-1zm-18.7 43l-.5 1 33 19.5.4-.8zm-79 76c-.3 0-.6.2-1 .4l38.5 73.2.8-.4zm-88 23.2h-1l1 33h1zm-1 0v-1.2h-5c-15.2 0-30-1.6-44.3-5l-.3 1.3c14.5 3.3 29.5 5 44.8 5h5zm-49.6-5c-.2 0-.5 0-.8-.2l-8 34 1 .3zm-.8-.2l.2-1c-20.6-5-40-13-57.5-23.5l-.7 1c17.7 10.7 37.2 18.7 58 23.5zm-58-23.5c0-.2-.4-.3-.7-.5l-20 32.7 1 .5zm-.7-.5l.6-1c-8.5-5.3-16.6-11.2-24.3-17.6l-.7.8c7.7 6.5 16 12.5 24.5 17.8zM115 409l-.8-.6L93.4 433l.7.8zm-49-61c0-.3-.3-.6-.4-1L42 359.4l.5 1zM54 318.8l-.4-1-18.4 6 .3 1zm-.4-1l1-.4c-3.8-12-6.6-24.6-8-37.6H45c1.7 13.2 4.5 25.8 8.4 38zm-8.3-38v-1L.8 284.6v1zm0-1h1c-.4-5-.8-9.8-1-14.8h-1.2c.2 5 .6 10 1.2 15zM43.8 264v-1l-32 1.3.2 1zm0-1h1v-7c0-7 .3-13.6 1-20.2l-1-.2c-.8 6.7-1 13.5-1 20.3v7zm1-27.4v-1L9 231l-.2 1zm0-1l1 .2c2.5-22.2 8.4-43.2 17.4-62.5l-1-.5c-9 19.4-15 40.6-17.4 62.8zm17.4-62.8c0-.3.3-.7.4-1l-36.3-16.6-.4 1zm.4-1l1 .5c8-17.2 18.6-33 31-47l-.8-.8c-12.5 14-23 30-31.2 47.3zm31.2-47.3l.6-.7-20.5-18-.8.7zm.6-.7l1 .7c5.6-6.4 11.8-12.5 18.4-18.2l-.8-1c-6.6 5.8-12.8 12-18.6 18.5zm19.4-17.5l5.7 6.6.8-.7-5.8-6.6-.7.6zm6.5 6l.8 1c6.8-5.8 14-11 21.3-15.8l-.6-1c-7.5 4.7-14.7 10-21.4 15.8zm21.4-16c.3 0 .6-.2 1-.4l-5-7.5-.8.6zm1-.4l.5 1C166 81.5 192 72 219.8 68.4l-.2-1.2c-28 3.5-54.2 13.2-77 27.6zm77-27.7c.3 0 .6 0 1-.2l-1-8.6h-1zm61.6 2c.3.2.7.3 1 .3L284 61c-.3 0-.6 0-1-.2zm1 .3l-.3 1.2c8 1.6 15.5 3.7 23 6.3l.4-1c-7.5-2.7-15.2-4.8-23-6.4zm23 6.3c.4 0 .8 0 1 .3l3-8.3c-.3 0-.6-.3-1-.4zm1 .3l-.3 1c7.3 2.7 14.4 5.6 21.3 9l.5-1c-7-3.5-14-6.5-21.4-9zm21.5 9c.3 0 .6.2 1 .4l3.8-8c-.3 0-.6-.2-.8-.3zm21.2 12l.8.7 5-7.3-1-.5zm.8.7l-.6 1c18.8 12.7 35.2 28.6 48.4 47l1-.6c-13.3-18.6-29.8-34.6-48.8-47.4zm48.8 47.4l.6.8 7.2-5-.6-1zm.6.8l-1 .7c6.2 8.6 11.6 18 16.3 27.7l1-.5c-4.6-9.8-10-19.2-16.3-28zm16.4 28c0 .3.3.6.4 1l8-4-.4-.8zm17.3 61v1l8.8-.8v-1zm1 27c0 .3 0 .7-.2 1l9 .2v-1zm-8 48.7l-.4.8 8.5 2.6c.2-.3.2-.6.3-1zm-.4.8l-1-.3c-4.4 14-10.3 27.2-17.5 39.6l1 .8c7.4-12.5 13.3-26 17.6-40zm-17.5 40l-.4.8 7.6 4.5.5-.7zm-.4.8l-1-.6c-17.7 30-43.4 54.5-74 70.8l.4 1c31-16.4 56.8-41 74.6-71.2zM333 424c-.3 0-.5.3-.8.4l4 7.8 1-.5zm-.8.4l-.6-1c-24.7 13-52.5 20.5-82 21.4v1.2c29.7-.8 57.7-8.6 82.6-21.6zM249.5 446h-1l.3 8.8h1zm-48-4.6c-.4 0-.8-.2-1-.3l-2 8.7 1 .2zm-56-22.6l-.8-.5-4.6 7.5 1 .5zm-24-17.4l-1-.6-5.5 6.7.7.7zm-1-.6l1-1C102.7 384 87.2 365 76 343l-1 .6c11.3 22 27 41.5 45.6 57.4zM75 343.4l-.6-1-7.8 4 .5 1zm-.6-1l1-.5c-4.3-8.6-8-17.5-11-26.7l-1.2.3c3 9.3 6.8 18.3 11.2 27zm-11.2-26.8l-.3-1-8.5 2.8c0 .4.2.7.3 1zm-8.2-37v-1l-9 1.2c.2.3.2.7.3 1zm0-1h1c-.5-4.7-.8-9.3-1-14h-1.2c.2 4.8.5 9.4 1 14zm-1.2-14v-1l-9 .4c.2.3.2.6.2 1zm.8-27v-1L46 235l-.2 1zm0-1l1.3.2c2-21 7.8-41 16.3-59.4l-1-.5c-8.7 18.4-14.4 38.5-16.6 59.7zM71.3 176l.5-1-8-3.7-.5 1zm30-46l.7-.7-6.7-5.8-.7.8zm38.6 4l1 1c5.6-5 11.5-9.3 17.8-13.3l-.8-1.2c-6.3 4-12.3 8.5-18 13.4zm18-13.5l1-.5L143 96c-.3 0-.6.3-1 .5zm65.5-23.7h1l-3.5-28.5c-.3 0-.7 0-1 .2zm52 1.8c.4 0 .7 0 1 .2l5.7-28c-.3 0-.6 0-1-.2zm1 .2l-.3 1.4c6.5 1.4 12.8 3 19 5.2l.4-1.4c-6.2-2-12.6-3.8-19-5.2zm20 5.6l-.4 1.3c6 2.2 12.2 4.7 18 7.6l.6-1.3c-5.8-3-12-5.5-18.2-7.6zm18.3 7.6c.3 0 .6.3 1 .4L328 86.8l-1-.5zm1 .4l-.7 1.3c5.7 3 11.3 6.2 16.6 9.7l.8-1c-5.4-3.7-11-7-17-10zm16.8 10c.3 0 .6.2 1 .4L349 99c-.3 0-.6-.3-1-.5zm1 .4l-1 1.2c15.8 10.6 29.6 24 40.6 39.4l1.2-1c-11-15.4-25-29-41-39.6zm40.8 39.7l.6.8 23.4-16.4-.6-1zm.6.8l-1.2 1c5.2 7.2 9.8 15 13.7 23.2l1.3-.6c-4-8.3-8.6-16.2-13.8-23.7zm13.8 23.6l.5.8 26-12.2-.5-1zm14.6 51v1l28.6-2.7v-1zm0 1l-1.3.2c.5 5.5.8 11 .8 16.7 0 1.8 0 3.7-.2 5.5h1.5l.2-5.6c0-5.8-.3-11.4-1-17zm1 22.6l-.2 1 28.6.6v-1zm-.2 1h-1.4c-.6 13.5-2.8 26.6-6.6 39l1.4.5c3.8-12.5 6-25.7 6.6-39.4zm-6.6 39.5c0 .4-.2.8-.3 1l27.5 8.5.3-1zm-.3 1l-1.2-.3c-3.6 11.6-8.5 22.7-14.5 33l1.2.8c6-10.5 11-21.6 14.6-33.4zm-14.5 33.5l-.5.8 24.6 14.7c0-.3.3-.6.5-1zm-63.3 61l-1 .5 13.4 25.3c.3 0 .6-.3 1-.5zm-1 .5l-.6-1.3c-20.7 11-44.2 17.3-69 18v1.5c25-.7 48.8-7.2 69.7-18.2zm-69.6 18.2h-1l1 28.6h1zm-1 0v-1.4h-3.8c-12 0-24-1.3-35.3-4l-.4 1.5c11.6 2.6 23.5 4 35.8 4h3.8zm-39.5-4h-.8l-6.5 27.8c.3 0 .6 0 1 .2zm-.8 0l.3-1.5c-16.4-3.8-31.7-10.2-45.7-18.6l-.8 1.3c14 8.5 29.7 15 46.2 18.8zM161 393l-.8-.4-15 24.4 1 .6zm-20.4-14.6l-.8-.6-18.4 22c.3 0 .5.3.8.5zm-.8-.6l1-1c-15.6-13.4-28.6-29.7-38-48l-1.4.7c9.6 18.5 22.7 35 38.4 48.3zm-38.4-48.3l-.5-1L75.4 342l.5.8zm-.5-1l1.2-.6c-3.7-7-6.8-14.4-9.3-22.2l-1.5.5c2.6 7.8 5.7 15.3 9.4 22.5zm-9.5-22.4l-.3-1-27.2 9 .3 1zm-7-31.3v-1L56 277.6l.2 1zm-1-13.5H85v-5.6c0-5.5 0-11 .7-16.2h-1.5c-.5 5.2-.8 10.6-.8 16 0 2 0 3.8.2 5.7zm.7-21.8v-1l-28.3-3c-.2.4-.2.8-.2 1zm0-1H86c2-17.5 6.7-34.3 14-49.8l-1.5-.7c-7.2 15.6-12 32.6-14 50.4zm14-50.4c.3-.3.4-.6.6-1l-26-11.8-.5 1zm25.5-38.6l.6-.7-21.5-19-.7.8zm.6-.7l1 1c4.7-5.2 9.5-10 14.7-14.4l-1-1c-5.2 4.4-10 9.2-14.7 14.4zm15.7-13.4l8.3 9.7.8-.7-8.3-9.7-.7.6zm25.5-3.2c.3 0 .6-.3 1-.5l-7-10.8-1 .5zm1-.5l.8 1.2c17.2-10.7 36.8-18 58-20.7l-.3-1.6c-21.3 2.7-41.2 10-58.6 21zm58.5-21c.4 0 .7 0 1-.2l-1.5-12.6h-1zm1-.2l.2 1.6c5.8-.7 11.7-1 17.6-1 9.7 0 19.2 1 28.4 2.7l.3-1.5c-9.3-1.8-19-2.8-28.7-2.8-6 0-12 .4-17.8 1zm46.5 1.7l1 .2 2.5-12.5c-.3 0-.6 0-1-.2zm1 .2l-.3 1.6c5.8 1.2 11.4 2.7 17 4.6l.5-1.6c-5.6-2-11.3-3.5-17.2-4.7zm17.6 6.6c5.8 2 11.3 4.2 16.7 6.8l.6-1.3c-5.3-2.6-11-5-16.6-7zm.7-1.5l4.2-12-1-.4-4.3 12c.3 0 .6.2 1 .4zm17.5 7.4l-.7 1.4c5.3 2.6 10.3 5.5 15 8.7l1-1.3c-5-3.2-10-6.2-15.3-8.8zm53.4 45.5l.6.8 10.4-7.3-.6-.8zm.6.8l-1.3 1c4.6 6.6 8.8 13.7 12.3 21.2l1.5-.7c-3.6-7.6-7.8-14.7-12.6-21.5zm12.6 21.5l.4 1 11.6-5.6-.5-1zm.4 1l-1.4.6c6.5 14 11 29 12.7 45l1.6-.2c-1.7-16-6.2-31.4-12.8-45.5zm13 45.4v1l12.7-1.2c-.2-.3-.2-.7-.2-1zm0 1l-1.6.2c.5 5 .8 10 .8 15.3v5.3h1.5V256c0-5.3-.3-10.5-.8-15.6zm.7 21c0 .2 0 .6-.2 1h12.8v-1zm-.2 1h-1.5c-.6 12-2.6 24-6 35l1.5.6c3.5-11.4 5.5-23.4 6-35.7zm-6 35.6c0 .3 0 .6-.2 1l12.2 3.7c0-.3 0-.7.2-1zm-13.5 31.2l-.5 1 11 6.4c0-.3.3-.6.5-.8zm-.5 1l-1.4-1c-13.5 23-33 41.8-56.6 54.3l.8 1.4c23.7-12.7 43.6-31.8 57.2-55zm-57.2 54.7c-.3 0-.6.2-1 .4l6 11.3 1-.5zm-1 .4l-.6-1.4c-19 10-40.2 15.8-63 16.4l.2 1.6c23-.7 44.4-6.6 63.5-16.6zM248.3 402h-1l.4 12.8h1zm-1 0v-1.5h-3.4c-11 0-21.8-1.2-32-3.6l-.5 1.5c10.5 2.3 21.4 3.6 32.5 3.6h3.4zm-36-3.5l-.8-.2-3 12.4c.4 0 .7 0 1 .2zm-61.5-30.7l-.7-.6-8.2 9.7c.2 0 .5.3.7.5zm-.7-.6l1-1.2c-14.2-12-26-27-34.7-43.6l-1.3.7c8.7 17 20.6 32 35 44.2zm-35-44l-.5-1-11.3 6c0 .2.3.5.5.8zm-.5-1l1.4-.7c-3.4-6.4-6.2-13.2-8.5-20.2l-1.5.5c2.3 7 5.2 14 8.5 20.5zm-15-50l1.6-.2-.7-10.2h-1.5c0 3.6.4 7 .7 10.5zm-.8-11.3l1.6-.2v-5c0-4.8 0-9.7.6-14.5h-1.6c-.5 4.7-.8 9.6-.8 14.6v5zm13.5-66.7l.5-1L100 188l-.3 1zm23-35.2c.4-.2.6-.4.8-.7l-9.6-8.4-.6.7zm.8-.7l1.2 1c4-4.5 8.5-9 13-13l-1-1c-4.6 4-9 8.4-13.2 13zm14.3-12l15.7 18.2.8-.6-15.7-18.2-.7.6zm16.5 17.6l1.2 1.3c4.2-3.6 8.7-7 13.4-9.8l-1-1.7c-4.8 3-9.4 6.4-13.6 10zm13.5-10.2c.3 0 .6-.3 1-.5l-13-20c-.3 0-.6.3-1 .5zm49-17.6h1l-3-23.8h-1zm39 1.3l1 .2 5-23.4c-.5 0-.8 0-1-.2zm29.8 10l1 .5 10.5-21.4-.8-.5zm1 .5l-1 1.7c4.3 2 8.3 4.5 12.3 7l1-1.5c-4-2.6-8-5-12.4-7.2zm13.2 7.8l-1 1.5c11.6 8 21.8 17.8 30 29.2l1.6-1c-8.4-11.7-18.8-21.7-30.6-29.7zm30.6 29.6c0 .3.4.5.5.8l19.6-13.8-.7-.8zm11 18.5l.4.8 21.6-10.2-.5-1zm.4.8l-1.8.8c5.3 11.3 9 23.5 10.4 36.4l2-.2c-1.6-13-5.3-25.5-10.6-37zm10.5 37v1l24-2.2-.2-1zm0 1l-1.8.2c.3 4.3.6 8.6.6 13v4.7h1.8V256c0-4.5-.2-9-.6-13.2zm.7 18v1l24 .5v-1zm0 1h-2c-.4 9.7-2 19-4.7 28l1.7.7c2.8-9.2 4.5-18.8 5-28.7zm-5 28.7c0 .3 0 .6-.2 1l22.8 7c0-.4.2-.7.3-1zm-.2 1l-2-.6c-2.5 8.4-6 16.6-10.4 24.2l1.6 1c4.5-7.8 8-16 10.8-24.7zM348.4 316l-.5 1 20.4 12.3.6-1zm-47.6 46.4c-.3 0-.6.3-1 .4L311 384l.8-.5zm-1 .4l-.8-1.7c-15.5 8.3-33 13-51.7 13.6v2c19-.6 36.8-5.5 52.6-13.8zm-52.4 13.8h-1l.7 24 1-.2zm-1 0v-2h-2.6c-9 0-17.8-1-26.3-2.8l-.4 2c8.7 1.8 17.6 2.8 26.8 2.8h2.6zm-29.3-3c-.2 0-.5 0-.8-.2l-5.4 23.3 1 .2zm-.8-.2l.4-1.8c-12-3-23.6-7.6-34-13.8l-1 1.6c10.6 6.4 22.2 11 34.6 14zm-34.5-14l-1-.5-12.3 20.3.8.5zm-15.6-11c0-.3-.4-.5-.6-.7L150 366l.7.6zm-29.8-38l1.7-.7c-2.8-5.3-5-10.8-7-16.4l-1.8.6c2 5.6 4.2 11.2 7 16.5zm-7-16.5c0-.4-.2-.8-.3-1l-22.8 7.4.3 1zm-5.3-24c0-.2 0-.6-.2-1l-23.7 3 .2 1zm-.2-1l2-.2c-.3-2.6-.6-5.3-.7-8h-1.8c0 3 .3 5.6.6 8.3zm-.6-8v-1l-24 .8v1zm0-1l2-.2-.2-4c0-4 .2-8 .6-11.8l-2-.2c-.3 4-.5 8-.5 12 0 1.4 0 2.8.2 4zm.5-16.2v-1l-23.7-2.5v1zm10.7-39c.2-.2.3-.5.4-1L113 194l-.3 1zm19-29l.8-.7-18-15.7-.7.8zm13-10l1.4 2 .7-.7-1.5-1.7-.7.6zm15.2-8.4l1-.5-1.3-2c-.3 0-.6.3-1 .5zm1-.5l1 1.6c13.5-8.4 28.8-14 45.3-16.2l-.3-2c-16.8 2.2-32.5 8-46.2 16.5zm46-16.6h1l-.2-2.4h-1zm1 0l.3 2c4.5-.7 9-1 13.8-1 7.7 0 15 .8 22.4 2.2l.4-2c-7.4-1.4-15-2.2-22.8-2.2-4.8 0-9.5.3-14 1zm37 1.3c.3 0 .6 0 1 .2l.4-2.4c-.3 0-.6 0-1-.2zm28.6 9.7c.3 0 .6.3 1 .4l1-2-1-.5zm12.8 7.3l.8.6 1.3-2-.7-.5zm30.3 29l.6 1 1.8-1.4-.6-.8zm.6 1l-1.7 1c3.7 5.4 7 11 9.8 16.8l2-.8c-3-6-6.3-11.7-10-17zm10 17l.3 1 2-1c0-.4-.2-.7-.3-1zm.3 1l-1.8.7c5 11 8.6 22.7 10 35h2c-1.5-12.8-5-24.8-10.2-35.8zm10.2 35.6v1l2.4-.3c-.2-.3-.2-.6-.2-1zm.7 18.4v1c2.7 0 3-1 0-1zm-4.8 28.6l-.3 1 2.3.6c0-.4.3-.7.4-1zM344.8 314l-.5.8 2 1.2c0-.3.3-.5.5-.8zm-.5.8l-1.7-1c-10.7 18.2-26.2 33-44.7 43l.8 1.8c19-10 34.6-25.3 45.5-43.8zm-45.5 43.8l-1 .5 1.2 2c.3 0 .6-.2.8-.3zm-1 .5l-.8-1.7c-15 8-32 12.5-49.8 13v2c18.3-.5 35.5-5.2 50.7-13.2zm-50.5 13.3h-1v2.4h1zm-29.2-2.8c-.2 0-.6 0-1-.2l-.4 2.3c.3 0 .6 0 1 .2zm-34-13.7l-1-.5-1.2 2c.3 0 .6.3 1 .5zm-1-.5l1-1.7c-4.8-3-9.5-6.4-13.8-10L169 345c4.3 3.8 9 7.2 14 10.3zM169 345c-.4 0-.6-.3-1-.6l-1.4 1.8.8.6zm-1-.6l1.4-1.5c-11-9.6-20.4-21.3-27.2-34.4l-1.8 1c7 13.3 16.4 25 27.7 34.8zm-35-52.8l1.8-.7c-2.2-7-3.8-14.2-4.7-21.7l-1.8.3c.8 7.5 2.5 15 4.7 22zm-4.8-22c0-.4 0-.7-.2-1l-2.2.2v1zm-.2-1l2-.3c-.3-2.5-.5-5-.6-7.6h-2c0 2.7.4 5.3.6 8zm-.6-7.8v-1H125v1zm0-1h2v-4c0-3.8 0-7.6.5-11.4l-2-.2c-.5 3.8-.7 7.8-.7 11.7v3.8zm.5-15.6v-1l-2.2-.2c0 .3 0 .6-.2 1zm0-1l2 .2c1.4-12.7 5-24.8 10-36l-1.7-.8c-5.3 11.3-9 23.7-10.3 36.6zm10.3-36.6c0-.3.2-.6.4-1l-2-.8-.5 1zm.4-1l1.8 1C145 197 151 188 158.2 180l-1.5-1.4c-7.2 8-13.3 17.2-18 27zm18-27l.6-.7-1.7-1.7-.7.8zm.6-.7l1.5 1.2c3.2-3.5 6.7-7 10.3-10l-1.2-1.5c-3.7 3.2-7.2 6.6-10.5 10.2zM169 169l21.8 25c.3 0 .5-.3.8-.5l-21.8-25c-.2 0-.5.3-.7.5zm22.6 24.5l1.8 2c2.8-2.2 5.8-4.3 9-6.3l-1.7-2.4c-3.2 2-6.3 4.3-9 6.7zm9-6.7c.4 0 .7-.4 1-.5l-18-28-1 .6zm33.4-11.7l.3 2.8c3-.2 6.3-.5 9.5-.5 5.2 0 10.3.5 15.2 1.5l.5-2.8c-5-1-10.3-1.5-15.7-1.5-3.3 0-6.6.2-9.8.6zm25.5 1h1l6.7-32.5c-.4 0-.7 0-1-.2zm8.5 5l-2.7 8c.3 0 .6 0 1 .2l2.7-7.8-1-.3zm1 .4c3.2 1 6.3 2.3 9.3 3.8l1.3-2.6c-3-1.6-6.3-3-9.7-4zm10.6 1.2c.3 0 .6.3 1 .4l14.6-29.8-1-.4zm30.5 26l-2.2 1.6c2.5 3.6 4.8 7.3 6.7 11.3l2.6-1.3c-2-4-4.3-8-7-11.8zm7 11.7l.5 1 30-14.3c0-.3-.2-.6-.4-1zm.5 1l-2.6 1.2c3.2 7 5.5 14.8 6.5 23l3-.4c-1-8.5-3.5-16.5-7-24zm7 24v1l33-3.3v-1zm.4 15.2l-3-.2c-.3 6-1.4 11.8-3 17.3l2.8 1c1.7-6 2.8-12 3-18zm-3.2 18l-.3 1 31.7 9.6.3-1zm-7.3 17c0 .2-.3.5-.5.8l28.6 17c0-.2.3-.5.5-.8zm-.5.8l-2.5-1.5c-7.2 12.5-17.7 22.7-30.4 29.6l1.5 2.4c13-7 24-17.7 31.5-30.6zm-31.5 30.6l-1 .5 15.5 29.3c.3 0 .6-.3 1-.5zm-1 .5l-1.3-2.7c-10.3 5.4-21.8 8.6-34 9v3c12.7-.5 24.7-3.8 35.3-9.4zm-35.3 9.2h-1l1 33h1zm-20.2-2c-.3 0-.6 0-1-.2l-7.4 32.3 1 .3zm-1-.2l.7-2.8c-7.8-2-15.3-5-22-9l-1.5 2.5c7 4.2 14.7 7.4 23 9.3zm-22.8-9.3c-.3 0-.5-.3-.8-.5L184 353.6l1 .5zm-10.6-7.5l-.8-.7-21.4 25.4c.3 0 .5.3.8.5zm-.8-.7l2-2.2c-7.7-6.5-14-14.4-18.6-23.3l-2.5 1.3c4.8 9.2 11.3 17.5 19 24.2zm-19-24.2c-.3-.3-.4-.6-.6-1l-29.5 15.4c0 .3.3.6.5 1zm-.6-1l2.6-1.2c-1.7-3.3-3.2-6.8-4.4-10.4l-2.7 1c1.2 3.7 2.8 7.3 4.5 10.8zm-5-11.8l3-1c-1.6-4.6-2.7-9.6-3.2-14.7l-3 .4c.7 5.3 1.8 10.4 3.3 15.3zm-3-15.3c-.2-.3-.2-.7-.3-1l-33 4v1zm-.3-1l2.8-.4-.3-4.5h-3l.4 5zm-.4-4.8v-1l-33.2 1.3v1zm0-1h3c-.2-1-.2-1.7-.2-2.5 0-2.7.2-5.3.4-8l-3-.2c0 2.7-.3 5.4-.3 8v2.6zm.3-10.6v-1l-33-3.4v1zm0-1l3 .3c1-8.6 3.3-17 7-24.5l-2.7-1.2c-3.7 8-6.3 16.5-7.3 25.5zm7.3-25.5c0-.3.3-.6.4-1l-30.2-13.7c0 .3-.3.6-.4 1zM184 201l2 2c2-2.3 4.3-4.5 6.7-6.5l-2-2.2c-2.3 2-4.6 4.4-6.8 6.8zm8.7-4.5l5.4 6.3 1-.7-5.6-6.2-.7.7zm14 0c.4-.3.6-.5 1-.6l-4.6-7-.7.4zm1-.6l1.7 2.7c7.6-4.6 16.2-7.6 25.4-9l-.5-3.2c-9.6 1.3-18.7 4.5-26.7 9.4zm26.6-9.5c.4 0 .7 0 1-.2l-1-8.2c-.3.2-.6.2-1 .3zm23 .6l1 .3 1.7-8c-.4 0-.7-.2-1-.3zm1 .3l-.7 3.3c2.2.5 4.4 1 6.5 1.7l1.3-3c-2.3-1-4.6-1.5-7-2zm5.8 5l-2.4 7.3 1 .3 2.5-7.3-1-.4zm1 .4c3 1 5.5 2 8 3.2l1.6-3c-2.7-1.4-5.5-2.5-8.4-3.5zm9.6.2c.3 0 .6.3 1 .4l3.6-7.4-1-.5zm1 .4l-1.6 3c2.2 1 4.3 2.3 6.3 3.6l1.8-2.8c-2-1.4-4.2-2.6-6.5-3.8zm7.4 4.4l-2 2.8c6.5 4.3 12 9.7 16.6 16l2.8-2c-4.8-6.6-10.7-12.3-17.4-16.8zm17.4 16.7l.6.8 6.8-4.7-.6-.8zm.6.8l-2.8 2c2.2 3 4 6.3 5.7 9.6l3-1.5c-1.7-3.6-3.8-7-6-10.2zm6.4 11l-3 1.5c2.7 6 4.6 12.4 5.5 19.2l3.3-.3c-1-7.2-3-14-6-20.3zm6 20.4v1l8.3-.8c0-.5 0-.8-.2-1zm0 1l-3.4.3c.3 2.6.5 5.2.5 8v3.6h3.3V256c0-3 0-5.6-.4-8.3zm.4 12v1h8.2v-1zm-2.7 16c0 .3 0 .6-.2 1l8 2.4c0-.3 0-.6.2-1zm-.2 1l-3.2-1c-1.4 4.5-3.3 8.8-5.6 12.8l3 1.7c2.3-4.3 4.3-8.8 5.8-13.6zm-6 13.5c0 .3-.2.6-.4 1l7 4c.3 0 .5-.4.6-.7zM276.4 318l-1.5-3c-8.7 4.6-18.6 7.3-29 7.6v3.4c11-.3 21.4-3.2 30.5-8zm-30.5 8h-1l.3 8.3h1zm-17.2-1.7c-.4 0-.7 0-1-.2l-2 8.2c.4 0 .8 0 1 .2zm-1-.2l.7-3.2c-6.6-1.5-12.8-4-18.5-7.5l-1.8 3c6 3.5 12.6 6.2 19.6 7.8zm-19.6-7.8l-.8-.5-4.4 7c.3.3.6.4 1 .6zm-.8-.5l1.7-3c-3-1.6-5.6-3.5-8-5.6l-2.2 2.6c2.6 2.2 5.4 4.3 8.4 6zM198 309l2.2-2.6c-6.4-5.5-11.7-12.2-15.6-19.8l-3 1.6c4 8 9.7 15 16.4 20.8zm-16.4-20.8l-.5-1-7.2 4 .4.8zm-4.3-10.2c0-.3-.3-.6-.4-1l-8 2.6.4 1zm-.4-1l3.2-1c-1.3-4-2.2-8.3-2.7-12.6l-3.3.4c.5 4.6 1.4 9 2.7 13.2zm-2.8-13.2c0-.3 0-.7-.2-1l-8.2 1c0 .4 0 .7.2 1zm-.2-1l3.4-.4-.2-3.6h-3.4c0 1.4 0 2.7.2 4zm-.2-4v-.8l-8.3.3v1zm.3-10c0-.2 0-.5.2-.8l-8.3-1-.2 1zm6.4-23l.4-.8-7.5-3.4c0 .3-.3.6-.4 1zm.4-.8l3 1.4c2.8-5.4 6.3-10.5 10.3-15l-2.4-2.2c-4.3 4.7-8 10-10.8 15.8zm10.8-15.8l.7-.8-6.3-5.5-.7.7zm.7-.8l2.5 2.2c1.7-2 3.6-3.6 5.5-5.3l-2.2-2.5c-2 1.8-4 3.6-5.7 5.6zm13.8 2l2.8 3c2-1.5 4-3 6-4.3l-2-3.3c-2.3 1.5-4.6 3-6.7 4.8zm29.7-13h1l-1-7.7h-1zm1 0l.5 4c2.2-.3 4.4-.5 6.6-.5 3.6 0 7 .3 10.5 1l.8-4c-3.6-.7-7.3-1-11.2-1-2.4 0-4.8 0-7 .3zm24.5 6.3c2.3.8 4.6 1.7 6.7 2.8l1.7-3.7-7.2-3zm8.5-1c.3.3.6.5 1 .6l3.3-7c-.3 0-.6-.2-1-.4zm1 .6l-2 3.6c1.8.8 3.5 1.8 5 2.8l2.3-3.4-5.4-3zm6 3.7l-2 3.3c5 3.5 9.7 8 13.4 13l3.3-2.4c-4-5.5-9-10.2-14.5-14zm14.6 14l.6.7 6.2-4.4-.6-.8zm.6.7l-3.4 2.3c1.8 2.5 3.4 5.2 4.7 8l3.7-1.8c-1.5-3-3.2-5.8-5-8.5zm5 8.5c0 .3.2.6.4 1l7-3.4-.5-1zm5.3 17.5v1l7.7-.7v-1zm0 1l-4 .4c.4 2.3.5 4.6.5 7v3.3h4V256c0-2.5 0-5-.4-7.3zm.5 10.7v1l7.5.2v-1zm0 1h-4.2c-.3 3.7-1 7.3-2 10.8l4 1.2c1-4 1.7-8 2-12zm-7.4 24.2l-.5.8 6.5 4 .5-1zm-.5.8l-3.5-2c-5 8.7-12.4 16-21.2 20.8l1.8 3.5c9.6-5.2 17.5-13 23-22.3zm-23 22.3l-.8.5 3.6 6.8c.3 0 .6-.3 1-.4zm-26.5 7.2h-1l.2 7.6h1zm-1 0v-4h-.7c-4 0-8-.5-11.8-1.4l-1 4c4.2 1 8.4 1.4 12.8 1.4h.7zm-13.4-1.4l-1-.3-1.7 7.5c.4 0 .7.2 1 .3zm-17.2-7c-.3 0-.6-.2-1-.4l-4 6.6 1 .5zm-1-.4l2.2-3.4c-2.3-1.4-4.4-3-6.5-4.7l-2.6 3.2c2 1.8 4.5 3.5 7 5zm-21.4-23c0-.4-.3-.7-.5-1l-7 3.5.6 1zm-.5-1l3.5-2c-1-2-2-4.5-3-7l-3.7 1.3 3 7.7zm-3.2-7.7l-.3-1-7.3 2.5.3 1zm-2.6-12v-1l-7.8 1v1zm0-1l3.8-.6v-2.7l-4.2.2.3 3zm-.4-4h4v-1.6c0-2 0-3.7.3-5.5l-4-.4-.2 6v1.5zm.4-8.4l4 .5c.7-6 2.4-12 5-17.2l-3.7-1.7c-2.8 5.7-4.6 12-5.3 18.5zm5.3-18.4c0-.3.3-.6.4-1l-7-3.2-.5 1zm.4-1l3.6 1.7c2.2-4.4 5-8.5 8.3-12.2l-3-2.5c-3.6 4-6.7 8.4-9 13.2zm9-13c0-.4.4-.6.6-1l-5.8-5-.7.8zm8-2.4l9.7 11.2.8-.6-9.7-11.3-.8.7zm10.5 10.6l4 4.7c1.2-1 2.5-2 3.8-2.7l-3.3-5.2c-1.6 1-3 2-4.5 3.2zm4.5-3.2l.8-.5-8-12.4c-.3 0-.6.3-1 .5zm.8-.5l3.4 5.3c3.5-2 7.4-3.3 11.6-4l-.8-6c-5 .6-10 2.3-14.2 4.8zm14.2-4.8h1l-1.8-15c-.3.2-.7.2-1 .2zm1 0l.8 6 4-.2c2.2 0 4.3.2 6.3.6l1.3-6c-2.4-.6-5-.8-7.5-.8-1.6 0-3.2 0-4.8.3zm12.3.3c.4 0 .7 0 1 .2l3-14.6h-1zm1 .2l-1.2 6 2.2.6 2-6c-1 0-2-.4-3-.6zm2 7c1.4.4 3 1 4.3 1.6l2.7-5.5c-1.6-.8-3.3-1.5-5-2zm7-4l1 .6 6.5-13.4-1-.5zm1 .6l-2.8 5.5 2.5 1.5 3.5-5.2c-1-.5-2-1.2-3.2-1.7zm3.2 1.8l.8.7 8.3-12.4-.8-.5zm.8.7l-3.4 5c3 2.2 5.6 4.7 7.8 7.6l5-3.5c-2.6-3.6-5.8-6.6-9.5-9zm9.6 9c0 .4.3.6.5 1l12-8.7-.4-.8zm.5 1l-5 3.5c1 1.5 2 3 2.8 4.7l5.6-2.7c-1-2-2.2-4-3.5-5.7zm3.4 5.6l.3 1 13.5-6.5-.5-1zm.3 1l-5.6 2.5c1.2 2.6 2 5.4 2.6 8.3l6-.5c-.4-3.6-1.5-7-3-10.3zm3 10.2c.2.3.3.7.3 1l14.8-1.4v-1zm.3 1l-6.2.6c.2 1.7.4 3.3.4 5 0 1 0 2-.2 3h6.2l.2-3c0-2-.2-3.7-.4-5.5zm.2 8.5v1l14.8.3v-1zm0 1h-6.3c-.2 1.7-.5 3.4-1 5l6 1.8c.6-2.2 1-4.4 1.3-6.8zm-1.4 6.8c0 .4 0 .7-.2 1l-6-1.8c-.6 2-1.4 4-2.3 5.7l5.2 3.2c1.2-2.4 2.2-4.7 3-7.2l14.2 4.4.3-1zm-3.2 8l-.5 1 12.8 7.6c0-.3.3-.6.5-1zm-.5 1l-5.3-3.2c-3 5.4-7.5 10-13 13l3 5.4c6.4-3.6 11.7-9 15.3-15.2zM263.4 291l-1 .5 7 13 1-.3zm-1 .5l-2.8-5.5c-4.5 2.3-9.5 3.7-15 3.8l.3 6.3c6.2 0 12.2-1.7 17.5-4.5zM245 296h-1l.4 15h1zm-1 0l-.3-6c-2.4 0-4.7-.4-7-1l-1.4 6.2c2.8.6 5.6 1 8.5 1zm-8.7-.8l-1-.2-3.3 14.4 1 .2zm-1-.2l1.5-6c-3.2-1-6.2-2-9-3.7l-3.2 5.3c3.3 2 7 3.4 10.8 4.4zm-11.5-5l3-5.2-3.8-2.8-4 4.7c1.5 1.3 3 2.4 4.8 3.4zm-4.7-3.3l-.7-.6-9.5 11.4.7.7zm-.7-.6l4-4.7c-3-2.7-5.7-6-7.6-9.7l-5.5 2.8c2.3 4.4 5.4 8.4 9 11.7zm-9-11.6c-.3-.3-.5-.6-.6-1l-13.2 7 .5.8zm-2.6-5.8l-.3-1-14 4.7c0 .3 0 .7.2 1zm-.3-1l6-2c-.7-2-1-4-1.4-6.3l-6.2.8c.3 2.7.8 5.2 1.6 7.7zm-1.6-7.5v-1l-14.8 2c0 .3 0 .6.2 1zm0-1l6-.7v-.8l-6 .3v1.3zm0-1.2v-1l-15 .6v1zm0-1l6-.2v-.7c0-1.2 0-2.3.2-3.4l-6.2-.6-.2 4v.8zm0-5.8l6.3.7c.6-3.8 1.7-7.4 3.3-10.7l-5.7-2.6c-2 4-3 8.2-3.7 12.6zm3.8-12.6l.5-1-13.4-6-.5 1zm.5-1l5.7 2.7c1.4-2.5 3-5 5-7l-4.6-4c-2.3 2.5-4.3 5.4-6 8.5zm6-8.5l.8-.8-11.2-10-.7 1zm.8-.8l4.6 4c.8-.7 1.5-1.4 2.4-2l-4-4.8-3 2.8z" style="color:#000000;fill:#1f1f1f;fill-opacity:1;stroke:#b8b8b8;stroke-width:0.300;stroke-miterlimit:4;"/>
  <path d="M24.7.8c2.5 6.4 11 13.3 15.8 20l72.5 83.6c-2.4-6.4-11-13.2-15.8-19.8C73 56.6 49 28.6 24.7.8zM136.3 87c-1.5-6.6-9-14.6-13-21.8l-16-25c1.5 6.7 9 14.7 13 22l16 25zm82-29.6c1.7-6.7-1.7-17.2-2-25.3-2.5-15.4-.7 6 .4 11.6.6 4.6 1 9.2 1.7 13.8zm65 2.3c3.6-5.7 3.7-16.5 6-24-3.6 5.3-3.8 16.6-6 24zm1 .2c6.8 4.3 38.3 10.2 12.4 2.8l-12.4-3zm24.4 6.5c2.4-2.2 9-19 6-17l-6 17zm1 .4c6 5 35.4 14.6 11.4 4.3-3.6-1.6-7.4-3-11.3-4.4zm22.6 9.3c5-4.8 8-15.3 12-22.3 7-13.7 13.7-27.5 20.5-41.2-5 4.8-8 15.3-12.2 22.3l-20.3 41.3zm.8.5c5.5 6 33.8 19.3 11 6-3.5-2.2-7.2-4.2-11-6zm21.6 12.4c5.5-4 9.8-14.2 15-20.5 8.4-11.5 5-10.6-1.5.2L354.7 89zm52 50.5c6.8-2 14.4-9.7 21.5-14 10.3-8.3-8.6 4.8-12.3 7.6-3 2-6 4.2-9 6.4zm18 30.2c6.8-.7 15.7-7 23.3-10 4-1.7 24.3-11.5 11.2-6.4-11.5 5.4-23 11-34.6 16.3zm.4.8c6.4 13.2 17.4 61.5 17.3 59.3-2.6-20.4-8.5-40.5-17.3-59.2zm17.8 63.5c6.7 1.7 17.2-1.3 25.4-1.4 4.3-.6 27-2.3 16.3-2.7l-41.7 4zm0 1c-2 6.5 1.3 42.6 1 15.4 0-5-.4-10.3-1-15.4zm1 27c6.4 2.6 17.3.8 25.4 1.6 9.7 1 20.8-1 4.6-1l-30-.6zm0 1c-1 10.8-8.7 49-7.5 47.5 4.4-15.4 7-31.4 7.5-47.4zm-8.4 50.5c6.2 5.2 20 5 3.6 1-1.2-.2-2.4-.6-3.6-1zm-18.7 43c4.4 5.3 14.6 9.2 21.3 14 10 6.8 14.7 7 2 0l-23.3-14zm-79 76c.8 6.7 7.7 15.4 10.8 23 9 16.8 17.8 33.7 26.7 50.6-1-6.8-7.8-15.4-11-23l-26.5-50.7zm-88 23.2c-2 6.5.3 17.2 0 25.4.6 16.3 1.5-3 .6-9.3 0-5.3-.3-10.7-.5-16zm-1 0c-14-1.4-35.5-3.3-49.6-5 16.4 3.8 33.2 5.4 49.8 5zm-49.6-5c-3.6 5.8-4 16.8-6.6 24.5-4 16.2 1 3.5 2.3-5.5l4.4-19zm-.8-.2c-13.3-3-56.6-23-54.5-21.5 17 9.8 35.4 17 54.5 21.5zm-58-23.5c-5.2 4.4-9 14.5-14 21.2-7 10-7 14.5 0 1.8 4.8-7.6 9.5-15.3 14-23zm-.7-.5c-6.6-7.3-38.2-27.7-12.6-8.4 4 3 8.2 5.7 12.5 8.4zM115 409c-6 3.5-11.4 13-17 18.8-10 12.5 4.6-3.4 8-8l9-10.8zm-49-61c-6.8 1-15.4 7.6-23 10.7 2 1.5 14.7-7 20.8-9.5l1.2-.7 1-.5zM54 318.8c-2.7-1.6-25.4 7.5-14.5 4.7l14.5-4.7zm-.4-1c-1-8.3-11.6-58-6-23.4 1.5 8 3.6 15.7 6 23.4zm-8.3-38c-6.6-1.4-17 2-25.2 2.3-4.7.5-27.2 3.5-13.3 2.8 12.8-1.6 25.7-3.2 38.6-5zm0-1c2.4-12.6-3.5-22.7 0 0zM43.8 264c-6.5-2-17.2.3-25.4 0-15.2 1.2 6.6 1.2 12 .5 4.4 0 9-.3 13.4-.5zm0-1c3-10 1-43.5 0-12.2-.2 4-.2 8 0 12.2zm1-27.4c-6.3-3-17.3-2-25.3-3.6-15.6-2-7.5 1 3.4 1.4l21.7 2.2zm0-1c1.3-14.2 17-62 15.7-59.2-8.2 18.8-13.6 38.8-15.7 59.2zm17.4-62.8c-5-5-15.6-7.5-22.7-11.5-8.5-4.8-19.5-7.6-4.7-1 9.2 4 18.3 8.3 27.4 12.5zm.4-1C68.2 160 93 125 91.4 126.2c-11.5 13.5-21.2 28.6-28.8 44.6zm31.2-47.3c-3.4-6-12.8-11.6-18.5-17.5-3.3-.2 11 10.5 15 14.4 1 1 2.3 2 3.5 3zm.6-.7c7.5-4 29-28.8 9-9.5-3 3-6 6.2-9 9.5zm19.4-17.5c6.8 10 9.3 6 0 0zm6.5 6c8.2-3 33.4-25 10.4-8.3-3.6 2.7-7 5.4-10.4 8.3zm21.4-16c0-5.7-8.3-10.8-1-1.3l.8 1.2.2.2zm1-.4c21.7-12 52.4-23 77-27.7-27.4 3.4-54 13-77 27.6zm77-27.7c2.5-5.4-2.7-13.5-.3-1.8l.2 1.4v.3zm61.6 2c4-4 1.7-13.5.3-1.6l-.2 1.4v.4zm1 .3c6.2 4.5 36.4 9.7 11.7 2.8-4-1-7.8-2-11.7-2.8zm23 6.3c4.8-3.6 3.7-13.3.7-1.7l-.5 1.3v.3zm1 .3c5.4 5.2 34 14 11 4-3.6-1.4-7.2-2.8-11-4zm21.5 9c5-3.2 5.2-12.7.8-1.6L328 85l-.2.3zm21.2 12c5.4-2.3 6.8-11.7 1-1.3l-.8 1.2-.2.2zm.8.7c12.6 8.2 48 46 46.3 44-12.7-17.2-28.4-32-46.2-44zm48.8 47.4c6-.3 10.6-8.7 1.4-1l-1 .8-.4.2zm.6.8c2 6.4 24.5 43.2 10.8 17-3.3-5.8-7-11.5-10.8-17zm16.4 28c5.8.7 12-6.7 1.6-.8l-1.3.6-.4.2zm17.3 61c5.2 2.6 13.3-2.2 1.6 0H433zm1 27c4.7 3.2 13.6-.7 1.6 0H434zm-8 48.7c3.7 4.4 13.3 3 1.6.4l-1.3-.4h-.4zm-.4.8c-5 10.8-13 29-17.5 40 7.5-12.6 13.4-26 17.6-40zm-17.5 40c3 5.2 12.4 6 1.6.8l-1.2-.7-.3-.2zm-.4.8c-11 13.2-22.8 32.2-38 44.3-7.8 8.8-33.4 23-33.7 25.3 29.4-16.3 54.5-40.6 71.6-69.7zM333 424c-.4 6 7.3 11.5.8 1.5l-.6-1.3-.2-.3zm-.8.4c-24 10.7-56.6 19.4-82.7 21.6 28.7-.8 57.2-8.2 82.7-21.6zM249.5 446c-3 5 1.5 13.6 0 1.8V446zm-48-4.6c-4.3 4-2.3 13.5-.5 1.7l.3-1.3v-.3zm-56-22.6c-5.2 2.7-6.2 12-1 1.5l.8-1.2.2-.2zm-24-17.4c-5.7 2-8.2 11-1.3 1.4l1-1 .2-.4zm-1-.6c-15.6-15.5-34-38.6-45.6-57.4 11.2 21.8 27 41.5 45.6 57.4zM75 343.4c-6-.5-11.7 7.2-1.7.8l1.3-.7h.3zm-.6-1c-1.5-9.4-17.5-41.8-6-13 1.8 4.4 3.8 8.8 6 13zm-11.2-26.8c-5.6-1.5-12.7 5.3-1.7.6l1.4-.5h.2zm-8.2-37c-5.3-2.4-13.5 2.8-1.8.3l1.4-.3h.4zm0-1c2.6-11.6-3.6-21.7 0 0zm-1.2-14c-5-3-13.7 1.6-1.8 0H53.8zm.8-27c-4.6-3.6-13.7-.3-1.8 0H54.6zm0-1c1.5-13.4 16.4-58.4 15-56.2-7.8 17.8-13 37-15 56.3zM71.3 176c-3-5-13-5-1.6-.8l1.3.6h.2zm30-46c-1.7-5.6-11-8.2-1.3-1l1 .8.2.3zm38.6 4c6.3-.5 30.3-23 8.8-7l-4.5 3.3-4.2 3.6zm18-13.5c-1.4-6.6-9-14.7-13-21.8-5.4-5.8 6.8 11.8 9 15.5 1.4 2 2.7 4.2 4 6.3zm65.5-23.7c1.5-6.6-1.8-17-2-25.3-2.6-7.5.7 13.6 1 18l1 7.3zm52 1.8c3.6-6 3.8-16.8 6-24.6 0-8-3.5 13-4.5 17.3l-1.5 7.3zm1 .2c2.8 5 33 8 9.7 2.3l-4.8-1-5-1.2zm20 5.6c2.2 5.3 31.6 12.2 9.4 3.5l-4.6-2-4.6-1.6zm18.3 7.6c5-4.8 8-15.3 12.2-22.3 2-7.6-6.8 11.8-9 15.6l-3.2 6.7zm1 .4c1.5 5.6 28.5 16 8.5 4.7l-4-2.3-4.5-2.3zm16.8 10c5.6-4.3 10-14.3 15-20.7 3-7.3-8.3 10.8-10.8 14.3l-4.2 6.3zm1 .4c11.8 10.6 30 27.8 40.8 39.8-11-15.6-25-29-41-39.8zm40.8 39.7c6.6-1.8 14.3-9.6 21.3-13.8 5.5-5.7-11.6 7.2-15.2 9.5-2 1.5-4 3-6 4.3zm.6.8c1.2 8.3 22.6 38 7.4 11.5-2.3-4-4.8-7.7-7.4-11.5zm13.8 23.6c7-.8 15.8-7 23.4-10 6.3-4.7-12.7 5-16.6 6.8l-6.8 3zm14.6 51c6.7 1.8 17.2-1.2 25.4-1.3 7.5-2.3-13.7.4-18 .7l-7.4.7zm0 1c-3.4 4.4 1.8 36.8 1 12.7-.2-4.2-.4-8.5-1-12.6zm1 22.6c6.2 2.4 17 .7 25.2 1.5 7.8-1.3-13.5-1-18-1.3h-7.3zm-.2 1c-2.8 9.7-5.4 29.5-6.6 39.5 4-12.7 6-26 6.6-39.4zm-6.6 39.5c5.5 4.3 16.4 5.5 24 8.6 8 .7-12.7-5-17-6.3l-7-2.2zm-.3 1c-4 5.4-23.5 51.8-8.2 21.4 3.3-7 6-14 8.3-21.3zm-14.5 33.5c4.4 5.3 14.7 9 21.3 13.8 7.4 2.7-11.2-7.7-15-10l-6.3-3.8zm-63.3 61c1 6.8 7.7 15.4 11 23 5 6-5.6-12.5-7.5-16.4-1.2-2-2.4-4.3-3.5-6.5zm-1 .5c-19.4 8-48.5 16-69.6 18.2 24.2-.6 48.3-7 69.7-18.2zm-69.6 18.2c-2 6.5.2 17.2-.2 25.4 1.8 7.8.4-13.6.4-18 0-2.4 0-5-.2-7.4zm-1 0c-9.7-2.2-29.5-3.5-39.5-4 13 3 26.3 4.4 39.6 4zm-39.5-4c-3.6 6-4 16.8-6.6 24.6-.2 8 4-13 5-17.2l1.7-7.3zm-.8 0c-12.5-5.2-33.7-13.5-46.2-19 14.2 8.7 30 15 46.2 19zM161 393c-5.3 4.5-9.2 14.6-14 21.3-2.7 7.4 7.8-11.2 10-14.8 1.4-2 2.7-4.3 4-6.4zm-20.4-14.6c-6 3.5-11.4 13-17 18.8-4 7 9.3-9.8 12.2-13l4.8-5.8zm-.8-.6c-12-13-28.7-33.5-38.4-48.4 9.4 18.4 22.7 35 38.4 48.4zm-38.4-48.3c-7 1-15.5 7.6-23 10.8-6.2 5 12.4-5.5 16.3-7.4 2.3-1 4.5-2.2 6.7-3.3zm-.5-1c.6-7.3-15.8-36.2-5.2-11 1.6 3.8 3.3 7.5 5 11zm-9.5-22.4c-6.8-.3-16.5 5-24.4 7-7 4 13.3-3.4 17.4-4.7l7-2.3zm-7-31.3c-6.6-1.5-17 1.8-25.2 2.2-7.6 2.5 13.5-1 18-1.3l7.3-1zm-1-13.5c4-6.6.2-36.2 0-9.7v9.7zm.7-21.8c-6.2-3-17-2-25-3.6-8 1 13.3 2.4 17.6 3l7.4.7zm0-1c3.8-14 9.8-36.6 14.2-50.3-7.5 15.7-12.2 33-14 50.3zm14-50.4c-4.7-4.8-15.4-7.5-22.5-11.5-7.8-1.8 12 6.5 15.8 8.4l6.8 3zm25.5-38.6c-3.4-6-12.8-11.6-18.5-17.5-7-4 9.6 9.6 12.8 12.6 2 1.6 3.8 3.3 5.7 5zm.6-.7c6-.2 24.5-25.3 7-7.5l-3.5 3.7-3.5 3.8zm15.7-13.4c7.4 9.8 11.5 11 1.7.5-.6.4-1-2.5-1.7-.4zm25.5-3.2c-1.5-8-11-15.5-1.5-2.4l1.5 2.4zm1-.5c16-7.4 41-17 58.6-21-20.4 2.3-41 10-58.6 21zm58.5-21c2.2-8-3.3-19-.3-3l.3 3zm1-.2c7.5-.3 47.3 3.4 43 1-14.2-2.4-28.7-2.7-43-1zm46.5 1.7c4.6-6.8 2.8-19 .6-2.8 0 1-.3 2-.5 2.8zm1 .2c1.7 5.3 30 7.3 8.7 2l-4.3-1-4.5-1zm17.6 6.6c12.5 6 25.5 8 5 0-4-4.6-4.2-2-5 0zm.7-1.5c4.8-11.3 3.8-15.6-.5-1.8.6.4-1.7 2 .5 1.8zm17.5 7.4c.4 5.5 26.8 14.4 7.8 4.2l-3.8-2.2-4-2zm53.4 45.5c8-1.8 15-11.8 2.4-1.6l-2.4 1.7zm.6.8c0 7.6 21 34.6 6.7 10.5-2.2-3.6-4.4-7-6.8-10.5zm12.6 21.5c8.2-.5 17-9 2.6-1.2l-2.6 1.2zm.4 1c3 12 9.6 33 12.7 45.5-1.4-15.5-6.2-31.3-12.8-45.6zm13 45.4c8 2.3 18.8-2.7 2.8-.2-1 0-2 0-3 .2zm0 1c-4 3.2 1.6 35.3.8 11.6-.2-4-.4-7.7-.8-11.6zm.7 21c7.4 3.2 19-.7 2.8 0h-3zm-.2 1c-2.7 5.7-10.3 55.4-2.7 22.5 1.6-7.5 2.5-15 2.8-22.7zm-6 35.6c6.4 5.2 18.6 4.7 2.8.8l-2.8-.8zm-13.5 31.2c5 6.6 17 9 2.5 1.5l-2.5-1.5zm-.5 1c-13.8 18.8-37 42-57.3 54.6 23.5-12 43.8-31.8 57.3-54.7zm-57.2 54.7c1 8.2 9.7 16.4 1.3 2.5l-1.4-2.6zm-1 .4c-17.5 6.6-44.4 14.4-63.4 16.4 21.7-.2 44-6.2 63.5-16.4zM248.3 402c-3 7.7 1.5 19 0 3v-3zm-1 0c-5.2-2-54.8-6.6-24-1.3 8 1 16 1.6 24 1.3zm-36-3.5c-4.6 6.8-3.2 18.8-.5 2.8l.6-2.8zm-61.5-30.7c-7.3 4-11.6 15.2-1.8 2.2.5-.7 1-1.5 1.7-2.2zm-.7-.6c-10-11.8-26.2-31-35-44 8.3 16.5 20.7 31.7 35 44zm-35-44c-8.2.7-16.6 9.6-2.6 1.3l2.6-1.4zm-.5-1c2-6-15.2-34.5-4.6-10l2 5 2.5 5zm-15-50c5.2-6.2-4.3-18 0 0zm-.8-11.3c4.5-5.6 0-33.2 0-8.8v8.7zm13.5-66.7c-5.5-6-17.8-7-2.6-1.2l2.6 1.3zm23-35.2c-3.5-7.3-15-11.8-2-1.8.7.6 1.4 1.2 2 2zm.8-.7c5.6.8 22.3-23 6.5-6.7l-3.3 3.3-3.2 3.3zm14.3-12c4.8 4.8 14 17.8 15.5 16.5-5-5-10.2-13.7-15.5-16.4zm16.5 17.6c5.2 2.8 23.2-18.3 6.6-5.4l-3.4 2.6-3.2 2.7zm13.5-10.2c-1.5-5.5-8.5-16.3-13-20l13 20zm49-17.6c.8-5.8-.7-18.3-3-23.7l3 23.7zm39 1.3c3-5 5.4-17.6 5-23.4l-5 23.5zm29.8 10c4-4.3 9.6-15.5 10.7-21.4L297 147.7zm1 .5c4 9.6 23.6 10.2 0 0zm13.2 7.8c6.5 7.8 22.8 23 30.6 29.6-8.4-11.6-18.8-21.7-30.6-29.6zm30.6 29.6c5.6-2 16-9.2 19.5-13.8l-19.5 13.8zm11 18.5c5.7-1 17.2-6.4 21.5-10.3L352.7 204zm.4.8c1 8.8 7 29 10.5 37-1.5-12.8-5-25.3-10.5-37zm10.5 37c5.7 1.2 18.4 0 23.8-2.2l-23.8 2.2zm0 1c-5 6 2.7 30.5.6 6.5l-.2-3.2-.2-3.2zm.7 18c5.5 1.7 18.2 2 24 .5l-24-.5zm0 1c-5 7-8 46.4-1.7 14.6 1-4.8 1.4-9.7 1.6-14.6zm-5 28.7c5 3.3 17 7 23 7l-23-7zm-.2 1c-6.5 4.6-17.3 40.2-4.7 12.7 1.8-4.2 3.3-8.4 4.7-12.7zM348.4 316c4 4.5 14.8 11 20.6 12.4-7-4-13.7-8.2-20.6-12.3zm-47.6 46.4c1 5.7 7 17 11 21l-11-21zm-1 .4c-13.8 3.8-37.3 11.6-52.4 13.2 17.2 1 36.5-5 52.5-13.2zm-52.4 13.8c-1.5 5.6-1 18.3.7 23.8 0-8-.4-16-.6-23.8zm-1 0c-6-4.3-47-5-16.2-.7 5.4.5 10.8.7 16.2.6zm-29.3-3c-2.7 5.2-5.6 17.5-5.3 23.3l5.4-23.3zm-.8-.2c-7-4.6-26.4-12-34.5-14 10.6 6.4 22.3 11.2 34.5 14zm-34.5-14c-4.4 4-11 14.7-12.5 20.4l12.5-20.4zm-15.6-11c-4.8 3.3-12.8 12.8-15.3 18.2 5.2-6 10.3-12.2 15.4-18.3zm-29.8-38c4-4.6-13-28.5-3.8-8l1.8 4 2 4zm-7-16.5c-6 0-18 4-22.7 7.3 7.5-2.4 15-5 22.7-7.4zm-5.3-24c-6-1-18.4.7-23.8 3l23.7-3zm-.2-1c5.5-4.7-4.4-14.7 0 0zm-.6-8c-5.7-1.5-18.3-1-24 .8l24-1zm0-1c5.6-3.5-.3-28 0-7.2v7zm.5-16.2c-5.4-2.2-18-3.6-23.8-2.5l23.7 2.5zm10.7-39c-4.3-3.8-16-9-21.7-10 7.2 3.4 14.5 6.8 21.7 10zm19-29c-3-5-12.5-13.3-18-15.7l18 15.8zm13-10c3 5 2.3-1.7 0 0zm15.2-8.4c2.7-1.4-3.5-4.5 0 0zm1-.5c12-3.7 33-13.2 46-16-15.2.5-32.3 7.5-46 16zm46-16.6c3-.2-1.2-5.7 0 0zm1 0c4.7 1.4 39 3.2 34.2.7-11.3-1.8-22.8-2-34-.7zm37 1.3c2.8 1 .7-6 0 0zm28.6 9.7c2.5 1.4 2-5.5 0 0zm12.8 7.3c2.2 2 3-5.3 0 0zm30.3 29c1.5 2.6 4.6-3.7 0 0zm.6 1c-3 5.5 18 29 5.2 8.2l-2.6-4.3-2.7-4zm10 17c1 2.7 5-3 0 0zm.3 1c.5 8 6.8 28 10.2 35.6-1.5-12.4-5-24.5-10.2-35.7zm10.2 35.6c.3 3 5.5-1 0 0zm.7 18.4c-1.5 3 6-.8 0 0zm-4.8 28.6c-1 2.8 5.7 1.2 0 0zM344.8 314c-1.7 2.5 5.2 2.5 0 0zm-.5.8c-11.3 13.2-30 33.7-45.8 43.3 18.5-8 35-25.2 45.8-43.2zm-45.5 43.8c-2.7 1.2 3 5 0 0zm-1 .5c-13 3.4-36 11.2-50.6 12.7 16.5 1 35.4-4.8 50.7-12.6zm-50.5 13.3c-3 0 .6 5.8 0 0zm-29.2-2.8c-2.7-.8-.8 6 0 0zm-34-13.7c-2.4-2-3 5.4 0 0zm-1-.5c1.2-6-25-17.2-7.2-5l3.5 2.6 3.7 2.3zM169 345c-2.3-1.8-3.3 4.7 0 0zm-1-.6c-3.5-6.4-23.4-29.6-26.3-32.4 6.8 12.3 15.8 23.3 26.4 32.4zm-35-52.8c3.8-6.8-8.7-35.8-3-10.8l1.4 5.4 1.5 5.4zm-4.8-22c-.2-3-5.7 1.2 0 0zm-.2-1c6.4-4-4-14.4 0 0zm-.6-7.8c0-3-5.7.7 0 0zm0-1c5.8-3-.3-27 0-6.8v6.8zm.5-15.6c.4-3-6 0 0 0zm0-1c4-7.6 9.2-28.2 10.3-36.6-5.4 11.6-9 24-10.3 36.6zm10.3-36.6c1.4-2.6-5.5-2 0 0zm.4-1c5-2.5 29.3-42 10.4-17.4-4 5.5-7.4 11.4-10.3 17.5zm18-27c2-2-4.7-3.4 0 0zm.6-.7c10.7-1.3 16.4-20.6 0 0zM169 169l21.8 25c-2.5-6.3-11-13-15.8-19.7-2-1-4-6.7-6-5.3zm22.6 24.5c9 6.8 15.4-17.6 0 0zm9-6.7c-1.4-6.7-9-14.7-12.8-22-9-13.6 0 3 4 8.3l9 13.7zm33.4-11.7c3.2 7 43.3 1 13.8-.5-4.6-.3-9.2 0-13.8.5zm25.5 1c3.6-6 3.8-17 6-24.8 3.2-16.2-2 2-2.7 8.7l-3.3 16zm8.5 5c-5.3 10.8.5 8.4 0 0zm1 .4c13.8 10.3 14.4-5.5 0 0zm10.6 1.2c5-4.7 8-15.4 12-22.3 7.3-15-2.4 1.4-4.8 7.6l-7.2 14.6zm30.5 26c-6 7.3 16 20 2 2.7l-2-2.8zm7 11.7c7-.6 15.8-7 23.4-10 15-7-2.8-.4-8.6 3l-14.7 7zm.5 1C312 228 330 261.8 322 233c-1.3-4-2.7-7.8-4.5-11.6zm7 24c6.6 1.6 17.2-1.4 25.3-1.5 16.4-1.8-2.6-1.4-9-.2l-16.4 1.6zm.4 15.2c-8.6 0-4.3 32.4-1.2 9l.7-4.5.4-4.6zm-3.2 18c5.4 4 16.4 5.3 24 8.3 15.7 4.7-2-2.3-8.5-3.6l-15.5-4.8zm-7.3 17c4.3 5.3 14.7 9 21.3 13.8 14.3 8.3-1.2-2.6-7.3-5.5l-14-8.4zm-.5.8c-7.8 4.6-25.3 24-31.5 30.6 13-7 24-17.8 31.5-30.6zm-31.5 30.6c.7 6.7 7.7 15.5 10.8 23 7.8 14.5.4-3-3.3-8.5l-7.5-14.6zm-1 .5c-7-1.7-29.6 6-35.3 9.2 12.3-.4 24.5-3.6 35.3-9.3zm-35.3 9.2c-2.2 6.4.2 17.2-.2 25.3.6 16.5 1.5-2.5.7-9l-.5-16.3zm-20.2-2c-3.7 5.8-4.2 16.8-6.7 24.5-3.5 16 2.2-2 3-8.6l3.7-15.8zm-1-.2c-1.3-8-39-15-11.8-3.8 3.8 1.6 7.8 2.8 12 3.8zm-22.8-9.3c-5.3 4.3-9.3 14.6-14 21.2-8.5 14 2.6-1.3 5.5-7.4l8.5-14zm-10.6-7.5c-6 3.4-11.4 13-17 18.7-10.6 12.6 2.7-1 6.5-6.4 3.6-4 7-8.3 10.6-12.4zm-.8-.7c2-5.8-30.2-39.8-13-14.3 3.7 5.3 8 10 13 14.3zm-19-24.2c-7 1-15.6 7.6-23 10.8-14.7 7.8 2.8.4 8.4-3.2l14.5-7.5zm-.6-1c8-7-13.4-20 0 0zm-5-11.8c8.4-2.3-7.2-27.7-2-7.5l1 3.8 1 3.7zm-3-15.3c-6.8-1.5-17.3 1.8-25.4 2-16.3 2.4 2.6 1.5 9 0l16.3-2zm-.3-1c9.8.3-4-11.8 0 0zm-.4-4.8c-6.6-2-17.2.3-25.4 0-16.4.8 2.6 1.5 9 .6l16.4-.6zm0-1c9.3-.5-2.5-21.5 0-2.5v2.4zm.3-10.6c-6.3-3-17.2-2-25.2-3.6-16.4-1.5 2.3 2 9 2l16 1.6zm0-1c7.8-3 11.6-43 2.6-13.2-1.2 4.3-2 8.8-2.6 13.2zm7.3-25.5c-5-4.8-15.6-7.5-22.6-11.5-15-6.7 1.4 2.5 7.7 4.7l15 6.8zM184 201c8.3 5 11.3-16.5 0 0zm8.7-4.5c6.7 10 7.6 4 0 0zm14 0c0-6-7.6-10-.6-1l.8 1zm1-.6c4.6 5 43.8-14.4 16-7.3-5.6 1.7-11 4-16 7.2zm26.6-9.5c2.6-5.4-2.6-12.2 0-1.3v1.3zm23 .6c4-4 1.4-12.3.3-1l-.3 1zm1 .3c-2 10 16 .8 0 0zm5.8 5c-5.4 12 1 7.3 0 0zm1 .4c15.2 10 6.7-8.3.3-.5l-.2.5zm9.6.2c5-3 4.6-11.8.6-1.2l-.6 1zm1 .4c-4.4 9.3 15.8 5.3 0 0zm7.4 4.4c-2.7 8.4 30 28 9.4 7.6-3-2.8-6-5.4-9.4-7.6zm17.4 16.7c6-.3 9.5-8 1-.7l-1 .7zm.6.8c-8.8 9 16.6 17.8 0 0zm6.4 11c-8.2 4.5 11.6 36 3.7 10l-1.6-5-2-5zm6 20.4c5.3 2.6 12-2.3 1-.2l-1 .2zm0 1c-10 .6 3.2 23.6.4 4l-.4-4zm.4 12c4.8 3.2 12.6-1 1.2 0h-1.2zm-2.7 16c4 4.5 12.4 2.5 1.3.3l-1.2-.4zm-.2 1c-8.5-4-9.8 25.4-2.6 7l1.4-3.5 1.2-3.6zm-6 13.5c3 5.3 11.4 5.4 1.2.7l-1-.8zM276.4 318c-4.7-4.4-50 11.5-18.4 6.6 6.3-1.3 12.6-3.5 18.3-6.6zm-30.5 8c-3 5 1.6 12.4 0 1.2V326zm-17.2-1.7c-4.2 4.3-1.7 12.4-.3 1.2l.3-1.2zm-1-.2c1.6-9-35.3-13-10.2-3l5 1.7 5.2 1.4zm-19.6-7.8c-5.3 2.8-5.5 11.2-.6 1l.6-1zm-.8-.5c4-10.3-19.6-9 0 0zM198 309c4-5.8-26-34.7-11.2-12.3 3.3 4.5 7 8.6 11.2 12.3zm-16.4-20.8c-6-.5-10.5 6.7-1 .5l1-.5zm-4.3-10.2c-5.8-1.5-11.4 5-1.2.4l1.3-.4zm-.4-1c10.2-6.7-10.6-25 0 0zm-2.8-13.2c-5.4-2.5-12.2 2.7-1.2.2l1.2-.2zm-.2-1c10 .4-2.7-10 0 0zm-.2-4c-5.2-2.7-12.4 1.7-1.3.2h1.3zm.3-10c-4.7-3.4-12.4 0-1.2 0h1.3zm6.4-23c-3.2-4.8-11.8-4-1-.4l1 .5zm.4-.8c8.5 4 18.4-29 5-8.3l-2.7 4-2.2 4.3zm10.8-15.8c-1.7-5.7-10.2-7.4-1-1l1 1zm.7-.8c8 6.5 10-14.5 0 0zm13.8 2c8 9 12.3-13 0 0zm29.7-13c2.5-5.6-2.6-11 0-.6v.6zm1 0c-.4 10 33.2 1 10-.5-3.3-.2-6.7 0-10 .3zm24.5 6.3c17.5 10 2-12.4 0 0zm8.5-1c5.2-3 4-10.6.3-.4l-.3.5zm1 .6c-5.8 9.7 13.4 4.6 0 0zm6 3.7c-6 8.2 26.8 24.5 8 6.3L281 210l-4.2-3zm14.6 14c6.2-.6 8.6-7.6.6-.5l-.7.4zm.6.7c-9.6 8 14 15.6 0 0zm5 8.5c6 .6 9.7-6 .6-.3l-.6.2zm5.3 17.5c5.6 2.7 11-2.2.6 0h-.7zm0 1c-11.8 3.5 5.4 20.7 0 0zm.5 10.7c5 3.3 11.3-1 .6 0h-.6zm0 1c-12.3 0-1 23.2-.5 3l.4-3zm-7.4 24.2c3 5.4 10.3 4.8.6.3l-.6-.4zm-.5.8c-6.5-2.3-38.5 34.5-13 15.4 5.2-4.3 9.5-9.5 13-15.4zm-23 22.3c-.3 6.2 6.5 9.5.4.6l-.3-.6zm-26.5 7.2c-3 5.4 1.5 11 0 .6v-.7zm-1 0c0-11.8-26 .3-4 0h4zm-13.4-1.4c-4.2 4.4-1.4 11.3 0 .6v-.6zm-17.2-7c-5.5 3.2-5 10.3-.4.7l.4-.6zm-1-.4c6-10.4-17-7.6 0 0zm-21.4-23c-6.2-.4-9.5 6-.6.2l.6-.3zm-.5-1c10.5-5.5-10.2-15 0 0zm-3.2-7.7c-6-1.4-10.4 4.7-.6.2l.6-.2zm-2.6-12c-5.6-2.5-11.2 2.5-.7 0h.7zm0-1c10.6.4-2.2-8 0 0zm-.4-4c11.3.3-3-16 0 0zm.4-8.4c10.2 2 9-33.5 2-9.5l-1.2 4.7-.8 5zm5.3-18.4c-3.4-5-11-3.7-.6-.3l.5.3zm.4-1c8.7 6 15.8-24.6 4-7l-2 3.5-2 3.7zm9-13c-2-6-9.5-6.8-.6-.6l.5.5zm8-2.4c5.7 7.8 15 15.3 4 3-1.2-.4-2.6-5-4-3zm10.5 10.6c8.2 14.2 10.2-10.4 0 0zm4.5-3.2c-.3-6-13.2-19.5-3.5-5.4l3.5 5.4zm.8-.5c6.8 15.3 26.3-13.7 3.4-1.6l-3.4 1.7zm14.2-4.8c2.4-5.6-3.4-23.3-.8-6.4l.8 6.4zm1 0c1 17.8 26.6-5.6 0 0zm12.3.3c4-4.6 4.2-23 1.3-6.3l-1.3 6.3zm1 .2c-5.4 13.5 8 2 0 0zm2 7c12.4 6.3 4-17 0 0zm7-4c5-3.2 10-21.3 3-5.6l-3 5.8zm1 .6c-9 12 9 4 0 0zm3.2 1.8c5.4-2.6 12.6-19.7 3.5-5.2-1 1.8-2.3 3.6-3.5 5.3zm.8.7c-11.5 12 22 15.3 2.7 2l-2.7-2zm9.6 9c6-.5 18.8-14 5-3.6l-5 3.8zm.5 1c-16 7 12 12.4 0 0zm3.4 5.6c6 .5 21-10.6 5.7-2.7l-5.8 2.7zm.3 1c-16.6 5.8 12.7 20.5 0 0zm3 10.2c5.8 2.5 23.5-2.8 6.5-.6-2 0-4.2.3-6.4.5zm.3 1c-17.5-.3 5.2 19.8 0 0zm.2 8.5c5 3.2 23.6 0 6.5.2-2.2 0-4.3 0-6.5-.2zm0 1c-16.7-4 1 17.4 0 0zm-1.4 6.8c-12.2-5.3-5 18-.2 1 9 3.6 20.7 5 5 .5l-4.8-1.5zm-3.2 8c3 5.4 20.5 11.6 5.5 3.4l-5.5-3.3zm-.5 1c-10.8-11-27 28.5-6.6 8.6l3.7-4 3-4.6zM263.4 291c-.4 6 11.4 20.6 3 5.7l-3-5.7zm-1 .5c-3-15-32.4 9.4-8.3 3.3l4.4-1.4 4-2zM245 296c-3 5.4 1.2 23.5 0 6.4V296zm-1 0c2.4-15.6-20 2.5 0 0zm-8.7-.8c-4 4.4-4.7 23-1.4 6.2.4-2 1-4 1.3-6.2zm-1-.2c7.4-16.8-28-5 0 0zm-11.5-5c11.2-12.4-14-6 0 0zm-4.7-3.3c-5.6 2-14.6 18.3-4 5l4-5zm-.7-.6c12.5-11-21.5-20.4-2.7-2.5l2.7 2.6zm-9-11.6c-6.2-.2-20.7 11.3-5.8 3l5.7-3zm-2.6-5.8c-6-1.3-22 8-6 2l6-2zm-.3-1c16.5-2.8-7.5-16.7 0 0zm-1.6-7.5c-5.4-2.3-23.2 3.6-6.2 1l6.2-1zm0-1c8.2 0 8-3.4 0 0zm0-1.2c-5.6-2.7-23.5 1.4-6.5.2l6.4-.2zm0-1c16.2 2-2.3-12.4 0 0zm0-5.8c16.2 4.6 3.8-26.4.7-3.3l-.6 3.3zm3.8-12.6c-3.3-4.8-21.6-9.2-5.8-2.6l5.8 2.6zm.5-1c15.2 9 8.5-22 0 0zm6-8.5c-1.6-5.8-18-15.2-4.7-4.3l4.8 4.2zm.8-.8c9.4 12 7-8.2 0 0z" style="color:#000000;fill:#9ef9f0;fill-opacity:0.786;stroke:none;stroke-width:0.300;"/>
</svg>
