<?xml version="1.0" encoding="UTF-8"?>
<svg width="500" height="400" xmlns="http://www.w3.org/2000/svg" xmlns:svg="http://www.w3.org/2000/svg">

 <title>Car Battery</title>
 <defs>
  <style>
    polygon {
      stroke-width:1;
      stroke: black;
    }
  </style>
</defs>
 <g transform="translate(60, 60)">
  <polygon fill="#000000" points="392,214.425 409.5,33.422 345.5,116.922 330.5,327.925 392,214.425 "/>
  <polygon fill="#000000"  points="-3,245.425 -22,56.422 345.5,116.922 330.5,327.925 -3,245.425 "/>
  <polygon fill="#d8d9da"  points="-3,245.425 -6.5,244.425 -10.5,243.425 -11,237.925 -11.5,232.425 -8,229.925 -5,227.425 -3,245.425 "/>
  <line y2="-26.077" x2="92" y1="2.922" x1="34.5" fill="#0080c3"/>
  <polygon fill="#7f7f7f" points="330.5,327.925 335.5,328.925 340,329.925 340.5,323.925 341,317.425 336.5,312.925 332,307.925 330.5,327.925 "/>
  <path fill="#c5c6c7"/>
  <path fill="#c5c6c7"/>
  <polygon fill="#7f7f7f" points="332,307.925 393.5,196.925 397,200.925 401,204.925 341,317.425 332,307.925 "/>
  <polygon fill="#7f7f7f" points="330.5,327.925 329,330.425 327.5,332.925 328,326.925 328.5,320.425 330,314.425 332,307.925 330.5,327.925 "/>
  <polygon fill="#7f7f7f" points="332,307.925 -5,227.425 -7,232.425 -9,237.925 328.5,320.425 332,307.925 "/>
  <line y2="102.422" x2="354.5" y1="39.922" x1="-37.5" fill="#0080c3"/>
  <line y2="122.922" x2="353" y1="102.422" x1="354.5" fill="#0080c3"/>
  <polygon fill="#bfbfbf" points="118.5,14.922 34.5,2.922 33.5,-13.578 118,-2.578 118.5,14.922 "/>
  <polygon fill="#bfbfbf" points="392.5,53.422 288.5,38.922 289.5,20.422 394.5,34.422 392.5,53.422 "/>
  <polygon fill="#bfbfbf" points="394.5,34.422 392.5,53.422 354.5,102.422 353,122.922 420,31.922 423.5,-2.578 394.5,34.422 "/>
  <polygon fill="#ffffff" points="354.5,102.422 -37.5,39.922 34.5,2.922 392.5,53.422 354.5,102.422 "/>
  <polygon fill="#bfbfbf" points="353,122.922 -35.5,57.922 -37.5,39.922 354.5,102.422 353,122.922 "/>
  <g>
   <polygon fill="#7f7f7f" points="41.183,19.459 48.854,17.69 57.114,17.69 65.374,18.28 71.864,19.459 75.404,21.82 75.994,24.179 73.044,26.54 67.144,28.9 59.473,30.08 50.624,30.669 42.364,30.08 35.874,28.31 32.334,26.54 32.334,23.589 35.284,21.23 41.183,19.459 "/>

     <polygon fill="#7f7f7f" points="340.102,60.426 333.612,58.066 325.352,56.296 316.5,55.707 307.061,55.707 299.981,57.476 295.26,60.426 294.08,63.376 296.442,66.327 302.34,69.277 310.602,71.046 320.631,71.636 330.071,71.046 337.151,69.277 341.871,66.917 342.461,63.376 340.102,60.426 "/>

   <polygon fill="#7f7f7f" points="41.183,17.403 48.854,15.634 57.114,15.634 65.374,16.224 71.864,17.403 75.404,19.764 75.994,22.123 73.044,24.483 67.144,26.844 59.473,28.023 50.624,28.613 42.364,28.023 35.874,26.254 32.334,24.483 32.334,21.533 35.284,19.174 41.183,17.403 "/>

     <polygon fill="#7f7f7f" points="340.102,57.875 333.612,55.515 325.352,53.746 316.5,53.156 307.061,53.156 299.981,54.925 295.26,57.875 294.08,60.826 296.442,63.776 302.34,66.726 310.602,68.496 320.631,69.085 330.071,68.496 337.151,66.726 341.871,64.366 342.461,60.826 340.102,57.875 "/>

   <polygon fill="#7f7f7f" points="299,41.422 297.758,60.684 299.758,63.184 304.758,65.684 311.758,67.184 320.258,67.684 328.258,67.184 334.258,65.684 338.258,63.684 338.758,60.684 340,41.422 299,41.422 "/>
   <polygon fill="#7f7f7f" points="71.5,4.422 34.5,6.422 35.677,24.187 38.677,25.687 44.177,27.187 51.177,27.687 58.677,27.187 65.177,26.187 70.177,24.187 72.677,22.187 71.5,4.422 "/>
   <polygon fill="#7f7f7f" points="42,0.422 48.5,-1.078 55.5,-1.078 62.5,-0.578 68,0.422 71,2.422 71.5,4.422 69,6.422 64,8.422 57.5,9.422 50,9.922 43,9.422 37.5,7.922 34.5,6.422 34.5,3.922 37,1.922 42,0.422 "/>
   
     <polygon fill="#7f7f7f" points="338,38.922 332.5,36.922 325.5,35.422 318,34.922 310,34.922 304,36.422 300,38.922 299,41.422 301,43.922 306,46.422 313,47.922 321.5,48.422 329.5,47.922 335.5,46.422 339.5,44.422 340,41.422 338,38.922 "/>
  </g>
  <polygon fill="#bfbfbf" points="288.5,38.922 250,74.422 250.5,54.422 289.5,20.422 288.5,38.922 "/>
  <polygon fill="#bfbfbf" points="250,75.421 68,46.922 67,27.922 250.5,55.422 250,75.421 "/>
  <polygon fill="#ffffff" points="91.5,-41.578 33.5,-13.578 118,-2.578 67,26.922 250.5,54.422 289.5,20.422 394.5,34.422 423.5,-2.578 91.5,-41.578 "/>
  <polygon fill="#7f7f7f" points="341,317.425 401,204.925 400.5,210.425 400,215.925 340,329.925 341,317.425 "/>
  <polygon fill="#7f7f7f" points="328.5,320.425 -9,237.925 -8.5,243.925 -8,249.425 327.5,332.925 328.5,320.425 "/>
  <text  transform="rotate(10 156.573,192.337) matrix(1.943,0,0,2.794,-239.074,-285.823) " xml:space="preserve" text-anchor="middle" font-family="helvetica" font-size="24" y="180.786" x="203.598" stroke-linecap="null" stroke-linejoin="null" stroke-dasharray="null" stroke-width="0" fill="#ffffff">BATTERY</text>
  <rect transform="rotate(10 164.6,141)" height="43" width="177.5" y="119" x="75.8"  fill="#ffff00"/>
  <text  transform="rotate(10 163,143) matrix(1.23,0,0,1.22,-49,-29.48)" text-anchor="middle" font-size="24" y="151" x="172" fill="#333"  font-family="helvetica">CAR</text>
 </g>
</svg>