<svg xmlns="http://www.w3.org/2000/svg" width="760" height="410">
	<defs>
		<style>
			path {stroke: #226DAA; fill: transparent;}

			path:nth-of-type(8n-1) {stroke: #6d22aa; }
			path:nth-of-type(8n-2) {stroke: #22aa6d; }
			path:nth-of-type(8n-3) {stroke: grey; }
			path:nth-of-type(8n-4) {stroke: orange; }
			path:nth-of-type(8n-5) {stroke: purple; }
			path:nth-of-type(8n-6) {stroke: black; }
			path:nth-of-type(8n-7) {stroke: fushia; }
		</style>
	</defs>
<line x1="2" y1="410" x2="617" y2="5"
      stroke-width="2" stroke="red"/>
<g transform="translate(2, -50)">
<path d=" M 0 458.823  L 0 337.923 L 140.4 337.923 L 140.4 458.823 L 0 458.823"></path>
<path d=" M 0 458.823  L 0 334.023 L 124.8 334.023 L 124.8 458.823 L 0 458.823"></path>
<path d=" M 0 458.823  L 0 303.018 L 156 303.018 L 156 458.823 L 0 458.823"></path>
<path d=" M 0 458.823  L 0 334.023 L 166.40 334.023 L 166.40 458.823 L 0 458.823"></path>
<path d=" M 0 458.823  L 0 288.783 L 187.20 288.783 L 187.20 458.823 L 0 458.823"></path>
<path d=" M 0 458.823  L 0 326.406 L 176.946 326.406 L 176.946 458.823 L 0 458.823"></path>
<path d=" M 0 458.823  L 0 334.023 L 187.20 334.023 L 187.20 458.823 L 0 458.823"></path>
<path d=" M 0 458.823  L 0 271.623 L 302.952 271.623 L 302.952 458.823 L 0 458.823"></path>
<path d=" M 0 458.823  L 0 271.623 L 312 271.623 L 312 458.823 L 0 458.823"></path>
<path d=" M 0 458.823  L 0 309.063 L 187.980 309.063 L 187.980 458.823 L 0 458.823"></path>
<path d=" M 0 458.823  L 0 334.023 L 189.279 334.023 L 189.279 458.823 L 0 458.823"></path>
<path d=" M 0 458.823  L 0 334.023 L 190.839 334.023 L 190.839 458.823 L 0 458.823"></path>
<path d=" M 0 458.823  L 0 334.023 L 191.10 334.023 L 191.10 458.823 L 0 458.823"></path>
<path d=" M 0 458.823  L 0 334.023 L 193.440 334.023 L 193.440 458.823 L 0 458.823"></path>
<path d=" M 0 458.823  L 0 334.023 L 193.959 334.023 L 193.959 458.823 L 0 458.823"></path>
<path d=" M 0 458.823  L 0 334.023 L 194.220 334.023 L 194.220 458.823 L 0 458.823"></path>
<path d=" M 0 458.823  L 0 263.600 L 356.571 263.600 L 356.571 458.823 L 0 458.823"></path>
<path d=" M 0 458.823  L 0 334.023 L 195.519 334.023 L 195.519 458.823 L 0 458.823"></path>
<path d=" M 0 458.823  L 0 334.023 L 196.299 334.023 L 196.299 458.823 L 0 458.823"></path>
<path d=" M 0 458.823  L 0 334.023 L 197.079 334.023 L 197.079 458.823 L 0 458.823"></path>
<path d=" M 0 458.823  L 0 334.023 L 197.859 334.023 L 197.859 458.823 L 0 458.823"></path>
<path d=" M 0 458.823  L 0 334.023 L 198.12 334.023 L 198.12 458.823 L 0 458.823"></path>
<path d=" M 0 458.823  L 0 334.023 L 199.419 334.023 L 199.419 458.823 L 0 458.823"></path>
<path d=" M 0 458.823  L 0 309.063 L 199.680 309.063 L 199.680 458.823 L 0 458.823"></path>
<path d=" M 0 458.823  L 0 334.023 L 203.319 334.023 L 203.319 458.823 L 0 458.823"></path>
<path d=" M 0 458.823  L 0 334.023 L 204.36 334.023 L 204.36 458.823 L 0 458.823"></path>
<path d=" M 0 458.823  L 0 334.023 L 204.88 334.023 L 204.88 458.823 L 0 458.823"></path>
<path d=" M 0 458.823  L 0 334.023 L 205.66 334.023 L 205.66 458.823 L 0 458.823"></path>
<path d=" M 0 458.823  L 0 252.387 L 375.338 252.387 L 375.338 458.823 L 0 458.823"></path>
<path d=" M 0 458.823  L 0 334.023 L 207.22 334.023 L 207.22 458.823 L 0 458.823"></path>
<path d=" M 0 458.823  L 0 334.023 L 208 334.023 L 208 458.823 L 0 458.823"></path>
<path d=" M 0 458.823  L 0 302.823 L 208 302.823 L 208 458.823 L 0 458.823"></path>
<path d=" M 0 458.823  L 0 334.023 L 209.56 334.023 L 209.56 458.823 L 0 458.823"></path>
<path d=" M 0 458.823  L 0 247.143 L 383.999 247.143 L 383.999 458.823 L 0 458.823"></path>
<path d=" M 0 458.823  L 0 243.543 L 312 243.543 L 312 458.823 L 0 458.823"></path>
<path d=" M 0 458.823  L 0 243.543 L 399.360 243.543 L 399.360 458.823 L 0 458.823"></path>
<path d=" M 0 458.823  L 0 318.203 L 215.616 318.203 L 215.616 458.823 L 0 458.823"></path>
<path d=" M 0 458.823  L 0 243.206 L 374.985 243.206 L 374.985 458.823 L 0 458.823"></path>
<path d=" M 0 458.823  L 0 322.678 L 217.549 322.678 L 217.549 458.823 L 0 458.823"></path>
<path d=" M 0 458.823  L 0 318.203 L 221.769 318.203 L 221.769 458.823 L 0 458.823"></path>
<path d=" M 0 458.823  L 0 334.023 L 222.039 334.023 L 222.039 458.823 L 0 458.823"></path>
<path d=" M 0 458.823  L 0 323.904 L 224.864 323.904 L 224.864 458.823 L 0 458.823"></path>
<path d=" M 0 458.823  L 0 322.678 L 226.909 322.678 L 226.909 458.823 L 0 458.823"></path>
<path d=" M 0 458.823  L 0 314.823 L 227.040 314.823 L 227.040 458.823 L 0 458.823"></path>
<path d=" M 0 458.823  L 0 318.423 L 230.10 318.423 L 230.10 458.823 L 0 458.823"></path>
<path d=" M 0 458.823  L 0 309.063 L 230.10 309.063 L 230.10 458.823 L 0 458.823"></path>
<path d=" M 0 458.823  L 0 318.423 L 230.360 318.423 L 230.360 458.823 L 0 458.823"></path>
<path d=" M 0 458.823  L 0 318.423 L 230.880 318.423 L 230.880 458.823 L 0 458.823"></path>
<path d=" M 0 458.823  L 0 309.063 L 230.880 309.063 L 230.880 458.823 L 0 458.823"></path>
<path d=" M 0 458.823  L 0 227.943 L 416.0 227.943 L 416.0 458.823 L 0 458.823"></path>
<path d=" M 0 458.823  L 0 318.423 L 231.660 318.423 L 231.660 458.823 L 0 458.823"></path>
<path d=" M 0 458.823  L 0 318.423 L 232.440 318.423 L 232.440 458.823 L 0 458.823"></path>
<path d=" M 0 458.823  L 0 318.423 L 233.220 318.423 L 233.220 458.823 L 0 458.823"></path>
<path d=" M 0 458.823  L 0 318.423 L 234 318.423 L 234 458.823 L 0 458.823"></path>
<path d=" M 0 458.823  L 0 224.823 L 312 224.823 L 312 458.823 L 0 458.823"></path>
<path d=" M 0 458.823  L 0 224.823 L 399.360 224.823 L 399.360 458.823 L 0 458.823"></path>
<path d=" M 0 458.823  L 0 309.063 L 234.312 309.063 L 234.312 458.823 L 0 458.823"></path>
<path d=" M 0 458.823  L 0 318.203 L 234.366 318.203 L 234.366 458.823 L 0 458.823"></path>
<path d=" M 0 458.823  L 0 318.423 L 234.390 318.423 L 234.390 458.823 L 0 458.823"></path>
<path d=" M 0 458.823  L 0 309.063 L 234.624 309.063 L 234.624 458.823 L 0 458.823"></path>
<path d=" M 0 458.823  L 0 318.423 L 234.780 318.423 L 234.780 458.823 L 0 458.823"></path>
<path d=" M 0 458.823  L 0 326.682 L 234.917 326.682 L 234.917 458.823 L 0 458.823"></path>
<path d=" M 0 458.823  L 0 318.423 L 235.040 318.423 L 235.040 458.823 L 0 458.823"></path>
<path d=" M 0 458.823  L 0 318.423 L 235.56 318.423 L 235.56 458.823 L 0 458.823"></path>
<path d=" M 0 458.823  L 0 318.423 L 235.950 318.423 L 235.950 458.823 L 0 458.823"></path>
<path d=" M 0 458.823  L 0 318.423 L 237.12 318.423 L 237.12 458.823 L 0 458.823"></path>
<path d=" M 0 458.823  L 0 316.194 L 237.714 316.194 L 237.714 458.823 L 0 458.823"></path>
<path d=" M 0 458.823  L 0 318.423 L 237.90 318.423 L 237.90 458.823 L 0 458.823"></path>
<path d=" M 0 458.823  L 0 303.631 L 239.900 303.631 L 239.900 458.823 L 0 458.823"></path>
<path d=" M 0 458.823  L 0 318.423 L 240.24 318.423 L 240.24 458.823 L 0 458.823"></path>
<path d=" M 0 458.823  L 0 302.823 L 241.149 302.823 L 241.149 458.823 L 0 458.823"></path>
<path d=" M 0 458.823  L 0 302.006 L 242.739 302.006 L 242.739 458.823 L 0 458.823"></path>
<path d=" M 0 458.823  L 0 302.823 L 247.520 302.823 L 247.520 458.823 L 0 458.823"></path>
<path d=" M 0 458.823  L 0 318.423 L 249.6 318.423 L 249.6 458.823 L 0 458.823"></path>
<path d=" M 0 458.823  L 0 309.453 L 249.6 309.453 L 249.6 458.823 L 0 458.823"></path>
<path d=" M 0 458.823  L 0 309.063 L 249.6 309.063 L 249.6 458.823 L 0 458.823"></path>
<path d=" M 0 458.823  L 0 302.823 L 249.6 302.823 L 249.6 458.823 L 0 458.823"></path>
<path d=" M 0 458.823  L 0 292.423 L 249.6 292.423 L 249.6 458.823 L 0 458.823"></path>
<path d=" M 0 458.823  L 0 271.623 L 249.6 271.623 L 249.6 458.823 L 0 458.823"></path>
<path d=" M 0 458.823  L 0 209.223 L 416.0 209.223 L 416.0 458.823 L 0 458.823"></path>
<path d=" M 0 458.823  L 0 318.203 L 250.185 318.203 L 250.185 458.823 L 0 458.823"></path>
<path d=" M 0 458.823  L 0 302.823 L 250.249 302.823 L 250.249 458.823 L 0 458.823"></path>
<path d=" M 0 458.823  L 0 302.823 L 250.640 302.823 L 250.640 458.823 L 0 458.823"></path>
<path d=" M 0 458.823  L 0 259.143 L 250.640 259.143 L 250.640 458.823 L 0 458.823"></path>
<path d=" M 0 458.823  L 0 301.181 L 250.913 301.181 L 250.913 458.823 L 0 458.823"></path>
<path d=" M 0 458.823  L 0 302.823 L 251.420 302.823 L 251.420 458.823 L 0 458.823"></path>
<path d=" M 0 458.823  L 0 259.143 L 251.420 259.143 L 251.420 458.823 L 0 458.823"></path>
<path d=" M 0 458.823  L 0 302.823 L 252.20 302.823 L 252.20 458.823 L 0 458.823"></path>
<path d=" M 0 458.823  L 0 316.194 L 253.760 316.194 L 253.760 458.823 L 0 458.823"></path>
<path d=" M 0 458.823  L 0 302.823 L 253.760 302.823 L 253.760 458.823 L 0 458.823"></path>
<path d=" M 0 458.823  L 0 302.823 L 255.320 302.823 L 255.320 458.823 L 0 458.823"></path>
<path d=" M 0 458.823  L 0 302.823 L 256.10 302.823 L 256.10 458.823 L 0 458.823"></path>
<path d=" M 0 458.823  L 0 302.823 L 256.880 302.823 L 256.880 458.823 L 0 458.823"></path>
<path d=" M 0 458.823  L 0 296.920 L 259.044 296.920 L 259.044 458.823 L 0 458.823"></path>
<path d=" M 0 458.823  L 0 196.743 L 499.2 196.743 L 499.2 458.823 L 0 458.823"></path>
<path d=" M 0 458.823  L 0 300.626 L 262.490 300.626 L 262.490 458.823 L 0 458.823"></path>
<path d=" M 0 458.823  L 0 196.086 L 480.433 196.086 L 480.433 458.823 L 0 458.823"></path>
<path d=" M 0 458.823  L 0 195.642 L 375.868 195.642 L 375.868 458.823 L 0 458.823"></path>
<path d=" M 0 458.823  L 0 194.096 L 484.072 194.096 L 484.072 458.823 L 0 458.823"></path>
<path d=" M 0 458.823  L 0 291.680 L 265.200 291.680 L 265.200 458.823 L 0 458.823"></path>
<path d=" M 0 458.823  L 0 309.063 L 266.240 309.063 L 266.240 458.823 L 0 458.823"></path>
<path d=" M 0 458.823  L 0 302.823 L 266.240 302.823 L 266.240 458.823 L 0 458.823"></path>
<path d=" M 0 458.823  L 0 259.143 L 266.240 259.143 L 266.240 458.823 L 0 458.823"></path>
<path d=" M 0 458.823  L 0 309.063 L 266.448 309.063 L 266.448 458.823 L 0 458.823"></path>
<path d=" M 0 458.823  L 0 298.366 L 266.537 298.366 L 266.537 458.823 L 0 458.823"></path>
<path d=" M 0 458.823  L 0 189.543 L 383.999 189.543 L 383.999 458.823 L 0 458.823"></path>
<path d=" M 0 458.823  L 0 189.543 L 491.520 189.543 L 491.520 458.823 L 0 458.823"></path>
<path d=" M 0 458.823  L 0 296.040 L 270.490 296.040 L 270.490 458.823 L 0 458.823"></path>
<path d=" M 0 458.823  L 0 187.773 L 399.360 187.773 L 399.360 458.823 L 0 458.823"></path>
<path d=" M 0 458.823  L 0 186.603 L 533.520 186.603 L 533.520 458.823 L 0 458.823"></path>
<path d=" M 0 458.823  L 0 305.659 L 272.290 305.659 L 272.290 458.823 L 0 458.823"></path>
<path d=" M 0 458.823  L 0 183.574 L 392.009 183.574 L 392.009 458.823 L 0 458.823"></path>
<path d=" M 0 458.823  L 0 285.490 L 277.044 285.490 L 277.044 458.823 L 0 458.823"></path>
<path d=" M 0 458.823  L 0 302.823 L 277.333 302.823 L 277.333 458.823 L 0 458.823"></path>
<path d=" M 0 458.823  L 0 292.423 L 277.333 292.423 L 277.333 458.823 L 0 458.823"></path>
<path d=" M 0 458.823  L 0 250.823 L 277.333 250.823 L 277.333 458.823 L 0 458.823"></path>
<path d=" M 0 458.823  L 0 302.823 L 277.549 302.823 L 277.549 458.823 L 0 458.823"></path>
<path d=" M 0 458.823  L 0 290.343 L 280.8 290.343 L 280.8 458.823 L 0 458.823"></path>
<path d=" M 0 458.823  L 0 178.023 L 399.360 178.023 L 399.360 458.823 L 0 458.823"></path>
<path d=" M 0 458.823  L 0 178.023 L 499.2 178.023 L 499.2 458.823 L 0 458.823"></path>
<path d=" M 0 458.823  L 0 178.023 L 532.74 178.023 L 532.74 458.823 L 0 458.823"></path>
<path d=" M 0 458.823  L 0 178.023 L 533.520 178.023 L 533.520 458.823 L 0 458.823"></path>
<path d=" M 0 458.823  L 0 177.791 L 398.582 177.791 L 398.582 458.823 L 0 458.823"></path>
<path d=" M 0 458.823  L 0 300.626 L 281.239 300.626 L 281.239 458.823 L 0 458.823"></path>
<path d=" M 0 458.823  L 0 283.048 L 281.239 283.048 L 281.239 458.823 L 0 458.823"></path>
<path d=" M 0 458.823  L 0 177.243 L 399.360 177.243 L 399.360 458.823 L 0 458.823"></path>
<path d=" M 0 458.823  L 0 175.683 L 399.360 175.683 L 399.360 458.823 L 0 458.823"></path>
<path d=" M 0 458.823  L 0 271.623 L 284.544 271.623 L 284.544 458.823 L 0 458.823"></path>
<path d=" M 0 458.823  L 0 174.123 L 399.360 174.123 L 399.360 458.823 L 0 458.823"></path>
<path d=" M 0 458.823  L 0 171.003 L 399.360 171.003 L 399.360 458.823 L 0 458.823"></path>
<path d=" M 0 458.823  L 0 271.623 L 293.28 271.623 L 293.28 458.823 L 0 458.823"></path>
<path d=" M 0 458.823  L 0 224.823 L 293.28 224.823 L 293.28 458.823 L 0 458.823"></path>
<path d=" M 0 458.823  L 0 165.543 L 416.0 165.543 L 416.0 458.823 L 0 458.823"></path>
<path d=" M 0 458.823  L 0 165.543 L 499.2 165.543 L 499.2 458.823 L 0 458.823"></path>
<path d=" M 0 458.823  L 0 165.543 L 532.479 165.543 L 532.479 458.823 L 0 458.823"></path>
<path d=" M 0 458.823  L 0 271.500 L 293.472 271.500 L 293.472 458.823 L 0 458.823"></path>
<path d=" M 0 458.823  L 0 271.623 L 295.62 271.623 L 295.62 458.823 L 0 458.823"></path>
<path d=" M 0 458.823  L 0 271.623 L 296.4 271.623 L 296.4 458.823 L 0 458.823"></path>
<path d=" M 0 458.823  L 0 271.623 L 297.96 271.623 L 297.96 458.823 L 0 458.823"></path>
<path d=" M 0 458.823  L 0 290.343 L 299.52 290.343 L 299.52 458.823 L 0 458.823"></path>
<path d=" M 0 458.823  L 0 271.623 L 299.52 271.623 L 299.52 458.823 L 0 458.823"></path>
<path d=" M 0 458.823  L 0 159.303 L 399.360 159.303 L 399.360 458.823 L 0 458.823"></path>
<path d=" M 0 458.823  L 0 159.303 L 499.2 159.303 L 499.2 458.823 L 0 458.823"></path>
<path d=" M 0 458.823  L 0 271.623 L 302.25 271.623 L 302.25 458.823 L 0 458.823"></path>
<path d=" M 0 458.823  L 0 275.443 L 307.160 275.443 L 307.160 458.823 L 0 458.823"></path>
<path d=" M 0 458.823  L 0 147.863 L 499.2 147.863 L 499.2 458.823 L 0 458.823"></path>
<path d=" M 0 458.823  L 0 271.623 L 312 271.623 L 312 458.823 L 0 458.823"></path>
<path d=" M 0 458.823  L 0 146.823 L 499.2 146.823 L 499.2 458.823 L 0 458.823"></path>
<path d=" M 0 458.823  L 0 250.823 L 312.519 250.823 L 312.519 458.823 L 0 458.823"></path>
<path d=" M 0 458.823  L 0 271.623 L 314.079 271.623 L 314.079 458.823 L 0 458.823"></path>
<path d=" M 0 458.823  L 0 250.823 L 314.079 250.823 L 314.079 458.823 L 0 458.823"></path>
<path d=" M 0 458.823  L 0 144.743 L 499.2 144.743 L 499.2 458.823 L 0 458.823"></path>
<path d=" M 0 458.823  L 0 271.623 L 314.340 271.623 L 314.340 458.823 L 0 458.823"></path>
<path d=" M 0 458.823  L 0 250.823 L 316.419 250.823 L 316.419 458.823 L 0 458.823"></path>
<path d=" M 0 458.823  L 0 250.823 L 317.199 250.823 L 317.199 458.823 L 0 458.823"></path>
<path d=" M 0 458.823  L 0 135.234 L 456.411 135.234 L 456.411 458.823 L 0 458.823"></path>
<path d=" M 0 458.823  L 0 271.623 L 332.799 271.623 L 332.799 458.823 L 0 458.823"></path>
<path d=" M 0 458.823  L 0 259.143 L 332.799 259.143 L 332.799 458.823 L 0 458.823"></path>
<path d=" M 0 458.823  L 0 250.823 L 332.799 250.823 L 332.799 458.823 L 0 458.823"></path>
<path d=" M 0 458.823  L 0 271.623 L 333.060 271.623 L 333.060 458.823 L 0 458.823"></path>
<path d=" M 0 458.823  L 0 244.880 L 337.851 244.880 L 337.851 458.823 L 0 458.823"></path>
<path d=" M 0 458.823  L 0 114.441 L 484.072 114.441 L 484.072 458.823 L 0 458.823"></path>
<path d=" M 0 458.823  L 0 224.823 L 352.560 224.823 L 352.560 458.823 L 0 458.823"></path>
<path d=" M 0 458.823  L 0 224.457 L 353.014 224.457 L 353.014 458.823 L 0 458.823"></path>
<path d=" M 0 458.823  L 0 224.457 L 355.064 224.457 L 355.064 458.823 L 0 458.823"></path>
<path d=" M 0 458.823  L 0 248.223 L 355.680 248.223 L 355.680 458.823 L 0 458.823"></path>
<path d=" M 0 458.823  L 0 224.823 L 355.680 224.823 L 355.680 458.823 L 0 458.823"></path>
<path d=" M 0 458.823  L 0 247.893 L 356.236 247.893 L 356.236 458.823 L 0 458.823"></path>
<path d=" M 0 458.823  L 0 224.457 L 356.236 224.457 L 356.236 458.823 L 0 458.823"></path>
<path d=" M 0 458.823  L 0 224.457 L 356.529 224.457 L 356.529 458.823 L 0 458.823"></path>
<path d=" M 0 458.823  L 0 224.457 L 357.115 224.457 L 357.115 458.823 L 0 458.823"></path>
<path d=" M 0 458.823  L 0 224.823 L 357.63 224.823 L 357.63 458.823 L 0 458.823"></path>
<path d=" M 0 458.823  L 0 224.823 L 371.474 224.823 L 371.474 458.823 L 0 458.823"></path>
<path d=" M 0 458.823  L 0 248.223 L 374.40 248.223 L 374.40 458.823 L 0 458.823"></path>
<path d=" M 0 458.823  L 0 224.823 L 374.40 224.823 L 374.40 458.823 L 0 458.823"></path>
<path d=" M 0 458.823  L 0 224.457 L 374.985 224.457 L 374.985 458.823 L 0 458.823"></path>
<path d=" M 0 458.823  L 0 224.823 L 375.960 224.823 L 375.960 458.823 L 0 458.823"></path>
<path d=" M 0 458.823  L 0 219.207 L 380.390 219.207 L 380.390 458.823 L 0 458.823"></path>
<path d=" M 0 458.823  L 0 224.823 L 380.64 224.823 L 380.64 458.823 L 0 458.823"></path>
<path d=" M 0 458.823  L 0 159.303 L 380.64 159.303 L 380.64 458.823 L 0 458.823"></path>
<path d=" M 0 458.823  L 0 78.183 L 532.479 78.183 L 532.479 458.823 L 0 458.823"></path>
<path d=" M 0 458.823  L 0 224.190 L 381.670 224.190 L 381.670 458.823 L 0 458.823"></path>
<path d=" M 0 458.823  L 0 224.823 L 383.760 224.823 L 383.760 458.823 L 0 458.823"></path>
<path d=" M 0 458.823  L 0 224.823 L 384.150 224.823 L 384.150 458.823 L 0 458.823"></path>
<path d=" M 0 458.823  L 0 224.823 L 384.54 224.823 L 384.54 458.823 L 0 458.823"></path>
<path d=" M 0 458.823  L 0 224.823 L 385.320 224.823 L 385.320 458.823 L 0 458.823"></path>
<path d=" M 0 458.823  L 0 224.823 L 386.880 224.823 L 386.880 458.823 L 0 458.823"></path>
<path d=" M 0 458.823  L 0 209.223 L 394.160 209.223 L 394.160 458.823 L 0 458.823"></path>
<path d=" M 0 458.823  L 0 209.223 L 397.280 209.223 L 397.280 458.823 L 0 458.823"></path>
<path d=" M 0 458.823  L 0 146.823 L 397.280 146.823 L 397.280 458.823 L 0 458.823"></path>
<path d=" M 0 458.823  L 0 224.823 L 399.360 224.823 L 399.360 458.823 L 0 458.823"></path>
<path d=" M 0 458.823  L 0 196.086 L 401.658 196.086 L 401.658 458.823 L 0 458.823"></path>
<path d=" M 0 458.823  L 0 56.343 L 748.80 56.343 L 748.80 458.823 L 0 458.823"></path>
<path d=" M 0 458.823  L 0 55.563 L 748.80 55.563 L 748.80 458.823 L 0 458.823"></path>
<path d=" M 0 458.823  L 0 193.291 L 406.263 193.291 L 406.263 458.823 L 0 458.823"></path>
<path d=" M 0 458.823  L 0 187.519 L 415.434 187.519 L 415.434 458.823 L 0 458.823"></path>
<path d=" M 0 458.823  L 0 209.223 L 416.0 209.223 L 416.0 458.823 L 0 458.823"></path>
<path d=" M 0 458.823  L 0 191.394 L 437.691 191.394 L 437.691 458.823 L 0 458.823"></path>
</g>
</svg>