
<svg xmlns="http://www.w3.org/2000/svg" width="790" height="226" version="1">
  <title>
    drone
  </title>
  <defs>
    <linearGradient id="a">
      <stop offset="0" style="stop-color:#cccccc;stop-opacity:1;"/>
      <stop offset="1" style="stop-color:#f2f2f2;stop-opacity:1;"/>
    </linearGradient>
    <linearGradient id="b">
      <stop offset="0" style="stop-color:#cccccc;stop-opacity:1;"/>
      <stop offset="1" style="stop-color:#f2f2f2;stop-opacity:1;"/>
    </linearGradient>
<style>
  rect, path {
    fill:#226DAA;
    stroke: #000000;
    stroke-width:1;
  }
  .ball .ring {
      fill:rgba(0,0,0,0.3);
      stroke-width:10;
  }
</style>
  </defs>
  <g transform="matrix(1.831,0,0,1.831,-572.360,-283.667) matrix(0.212,0.012,-0.012,0.212,387.867,165.616)">
    <rect width="6.5" height="233.7" x="-535" y="240.1" style="fill:#cccccc;stroke-width:1.434;" transform="matrix(-0.998,0.059,0.059,0.998,0,0)" rx="1.5" ry="23.5"/>
    <path d="M614 332l-47 .8s7.8-13 7.4-16c-.5-3.3 33.7-1.8 33.7-1.8s-4 10 1.8 13.8c5.7 3.7 5 4.7 5 4.7" style="fill:#1a1a1a;stroke:none"/>
    <path d="M661.3 286c-15.8 1.4-29 7.2-45 12-1.4 3.7-2 10.3-2.2 17.7-24 2.5-43.3 5.7-49.8 9.2-9 12-6.6 81.5 6.3 104.7 24.2 2.7 180 0 198.3-12 6.8-22.6 8.6-89-6.3-104.7 0-3.7-34.8-4.2-75.5-2.5-2.4-10.2-5.4-19.4-9-23.8-6-.8-11.5-1-16.7-.6z" style="fill:#d65184;fill-rule:nonzero;stroke:#f9f9f9;stroke-width:4.196;stroke-linecap:square;stroke-opacity:0;"/>
    <path d="M763.3 312.6c1.3 19.8.6 49.7-4.6 73.8-24.5 13.5-49.2 18.3-74 18.3-7.5 6.3-16.8 10.4-27.2 11-16.4 1-31.4-7-40.2-19.5-18-3.8-36.4-8-55-11.7 2 12.6 5 37.7 9 44.7 24.2 2.7 180 0 198.2-12 6.8-22.6 8.6-89-6.2-104.6z" style="fill:#c94471;fill-rule:nonzero;stroke:#f9f9f9;stroke-width:4.196;stroke-linecap:square;stroke-opacity:0;"/>
    <path d="M704.3 321.8c11.5-5 29.7-5.6 40.2-2.4 6 2 3.3 14.8 1.2 19.4-10.3 1.2-27 1.5-40.3 2.4-2.3-4.3-7-16.8-1-19.4z" style="fill:none;stroke:#c94471;stroke-width:2.950;"/>
    <path d="M704 321.5c11.4-5.6 29.4-6 40-2.3 6 2 3.3 16.4 1.2 21.4-10.2 1.3-26.8 1.6-40 2.4-2.3-4.8-7-18.6-1.2-21.5z" style="fill:url(#linearGradient7139-1);fill-rule:nonzero;stroke:#666666;stroke-width:0.309;"/>
    <path d="M713 323.8l.8 14" style="fill:#cccccc;stroke:#cccccc;stroke-width:1.594;stroke-linejoin:miter;"/>
    <path d="M709.6 323.4l.8 13.5" style="fill:none;stroke:#ffffff;stroke-width:1.671;stroke-linejoin:miter;"/>
    <path d="M720.2 323l.8 14" style="fill:#cccccc;stroke:#b3b3b3;stroke-width:1.594;stroke-linejoin:miter;"/>
    <path d="M716.5 323.2l.8 13.5" style="fill:none;stroke:#ffffff;stroke-width:1.671;stroke-linejoin:miter;"/>
    <path d="M727.7 323l.8 14" style="fill:#cccccc;stroke:#b3b3b3;stroke-width:1.594;stroke-linejoin:miter;"/>
    <path d="M724.3 322.2l.8 13.5" style="fill:none;stroke:#ffffff;stroke-width:1.671;stroke-linejoin:miter;"/>
    <path d="M735 322.2l.7 14" style="fill:#cccccc;stroke:#808080;stroke-width:1.594;stroke-linejoin:miter;"/>
    <path d="M731.5 321.8l.8 13.5" style="fill:none;stroke:#ffffff;stroke-width:1.671;stroke-linejoin:miter;"/>
    <path d="M741 320.2c-1 0-2 1-2 2.3l1 14c1.8 4.8 6.5-3 5.7-12.3-.7-2.4-2-3.7-4.6-4z" style="fill:#808080;stroke:none"/>
    <path d="M737.8 322l.8 13.5" style="fill:none;stroke:#ffffff;stroke-width:1.671;stroke-linejoin:miter;"/>
    <path d="M626 303.2c18.7-4.3 38.4-4.7 40.7-4.5 4 3.6 6 16 2.3 20-13.2 1.3-26.5 1.2-42 2.4-4-3.5-4.7-13.8-1-17.8z" style="fill:#2b2b2d;fill-rule:nonzero;stroke:#c6c4c5;stroke-width:1.417;"/>
    <path d="M701 368.7c1.5 26.3-18.5 49-44.7 50.6-26.3 1.5-49-18.6-50.4-45-1.7-26.3 18.3-49 44.6-50.5 26.2-1.6 48.8 18.5 50.4 45z" style="fill:#c94471;fill-rule:nonzero;stroke:none"/>
    <path d="M686 368c1 18-12.6 33.4-30.5 34.4-17.8 1-33.2-12.6-34.2-30.5-1-18 12.5-33.4 30.3-34.5 18-1 33.2 12.6 34.3 30.5z" style="fill:#333333;fill-rule:nonzero;stroke:none"/>
    <path d="M651.3 330.6c-21.7 1.3-38.2 20-37 41.7 1.4 21.8 20 38.4 41.7 37 21.7-1.2 38-20 36.8-41.7-1.3-21.7-20-38.3-41.5-37zm.5 8c17.3-1.2 32.2 12 33.2 29.5s-12.2 32.5-29.5 33.5-32.2-12.3-33.2-29.7c-1-17.3 12-32.3 29.5-33.3z" style="fill:#c6c4c5;fill-rule:nonzero;stroke:#333333;stroke-width:0.415;stroke-linecap:square;"/>
    <path d="M681.5 354.6c1 2.7 1.6 5.7 1.7 8.7 1.2 18.6-13 34.6-31.5 35.7-8.4.5-16.3-2.2-22.5-7 6.4 6.8 15.6 11 25.7 10.3 17.7-1 31.3-16.5 30.3-34.4-.3-5-1.6-9.4-3.8-13.4z" style="fill:#666666;fill-rule:nonzero;stroke:none;filter:url(#filter9197-9)"/>
    <path d="M641.6 352s33-19 35 10c-18.6-9.7-33.8-9.6-35-10z" style="fill:#e6e6e6;stroke-width:0.436px;stroke-linecap:butt;stroke-linejoin:miter;stroke-opacity:1"/>
    <path d="M670 363c0 1-.8 2-2 2-1 .2-2-.7-2-1.8 0-1 .7-2 2-2.2 1 0 2 .8 2 2zM666.2 353.3c0 1.8-1.3 3.4-3 3.5-2 0-3.4-1.3-3.5-3 0-2 1.2-3.5 3-3.6 1.8 0 3.4 1.3 3.5 3z" style="fill:#ffffff;fill-rule:nonzero;stroke:none"/>
    <path d="M702.8 384.3s-12.3 37.3-26.2 31.4c-14-5.8 46.2 4.5 46.2 4.5s-24-31-20-36z" style="fill:#c94471;stroke:none"/>
    <path d="M629.4 332s21.3-16 46.8-.8c-22.6-9-47 1.7-46.8.8z" style="fill:#f877a7;stroke:none"/>
    <path d="M634.5 411s23 13.5 46.6-4.7c-21.2 11.7-47 4-46.5 4.8z" style="fill:#a24d6d;stroke:none"/>
    <path d="M568.5 328.2c-2 2-6.8 9.8-4 11.3 3 1.5 37.4-6 37.4-6s11.8-6 29.2-9c17.4-3.2-64.4 3-62.7 3.7zM675.7 323s15.8 3.2 17.6 13.3c1.8 10.2 0-19 0-19l-12.3-2.8s-1.6 8.7-5.3 8.5z" style="fill:#f877a7;stroke:none"/>
    <path d="M635.4 307.2c10-2.4 20.5-2.5 21.7-2.4 2.2 2 3.2 8.6 1.4 10.8-7 .8-14 .7-22.4 1.4-2-2-2.5-7.6-.6-9.8z" style="fill:#ffffff;fill-rule:nonzero;stroke:#c6c4c5;stroke-width:1.417;"/>
    <g class="camera">
      <path d="M572.3 302.8l34-2c3-.3 6 4.5 6 7.6l.3 3c0 3.2-2.4 3.6-5.5 3.8l-33.8 2c-3.2.2-5.7 0-6-3v-3c-.3-3.2 2-8.3 5-8.4z" style="fill:#4d4d4d;fill-rule:nonzero;stroke:none"/>
      <path d="M586.7 302.4s1.2 9.6.3 10M582.3 302.6s-2.2 8-.3 10" style="fill:none;stroke:#808080;"/>
      <path d="M576.7 303.7s-2.4 5.6 0 8.6" style="fill:none;stroke:#999999;"/>
      <path d="M571.5 304s-1.6 7.5-.2 8.4" style="fill:none;stroke:#e6e6e6;"/>
      <path d="M595.8 302.2s3 7.5 1.4 9.8M601.5 302.6s3 5.4 1 8.5" style="fill:none;stroke:#333333;"/>
      <path d="M606.7 302.5s2.4 7 1.2 8.2" style="fill:none;stroke:#1a1a1a;"/>
      <path d="M590.7 302.6s0 9.6 1 10" style="fill:none;stroke:#808080;"/>
    </g>
    <path d="M606.6 301.7c0 .3-8 1-18 1.7-9.8.5-18 .8-18 .4 0-.3 8-1 18-1.7 10-.5 18-.7 18-.3z" style="fill:#e6e6e6;fill-rule:nonzero;stroke:none"/>
    <path d="M627 320.5s6.8-3.7 8-2.8c1.2 1-4-4.2-.5-11-.6-2.3-8.3-2.7-8.3-2.7s-5.3 5.4.7 16.5zM668.6 318.4s-8.2-3.2-9.3-2c-1 1 3-6.5-1.2-12.8.4-2.4 8-4.3 8-4.3s7.2 7.4 2.6 19z" style="fill:#808080;stroke:none"/>
    <path d="M630.3 305.4c14.5-3 29.8-3.4 31.5-3.3 3 2.6 4.6 11.5 1.8 14.4-10.2 1-20.5 1-32.6 2-3-2.6-3.5-10-.7-13z" style="opacity:0.2;fill:#e6e6e6;fill-rule:nonzero;stroke:none"/>
    <rect width="6.5" height="233.7" x="-750.8" y="240.1" ry="23.5" rx="1.5" transform="matrix(-0.998,0.059,0.059,0.998,0,0)" style="fill:#cccccc;stroke-width:1.434;"/>
    <rect width="6.6" height="221.2" x="468.9" y="528.7" ry="22.3" rx="1.5" transform="matrix(0.06,0.99,0.99,-0.06,0,0)" style="fill:#cccccc;stroke-width:1.398;"/>
  </g>
  <path d="M350.3 113.5C394 93.3 481 49.8 483.3 55.7c1 2-5.8 6-7.6 7-43 20.8-75.2 41.5-104.2 63.5-12.7 2.8-29.6-5-21.2-12.7z" />
  <path d="M363 92.3C289.2 80 140.7 52 141.7 58.3c.4 2.4 12.3 5 15.4 5.8 73 13 131 28 186 45 19 .4 36.6-10.4 19.7-16.7z"/>
  <path d="M383.2 141c30.5 1 56.4-11.8 58-29 1.3-17-22.2-32-52.7-33-30.5-1.4-56.5 11.5-58 28.4-1.4 17.2 22.2 32.2 52.7 33.5z"/>

  <g class="ball" id="westball" transform="matrix(1.83,0,0,1.83,-572.36,-283.67) matrix(0.212,0.012,-0.012,0.21,311.013,134.57)">
    <rect width="62.1" height="70.3" x="367" y="173.7" transform="matrix(0.999,-0.05,0.05,0.999,0,0)" rx="3.5" ry="31.1"/>
    <path d="M752 141.6c1 19.8-150.5 44.2-338.7 54.5-188 10.3-341.6 2.6-342.6-17.3-1-20 150.5-44.3 338.7-54.5C597.6 114 751 121.7 752 141.6z" class="ring"/>
    <path d="M409.6 143c-29.3 1.6-55.6 10.6-76 24l154-8.3c-21.6-11.2-48.8-17.3-78-15.7z"/>
  </g>
  <g class="ball" id="northball" transform="matrix(1.83,0,0,1.83,-572.36,-283.67) matrix(0.212,0.013,-0.012,0.213,487.11,134.9)">
    <rect width="62.1" height="70.3" x="367" y="173.7" transform="matrix(0.99,-0.05,0.05,0.99,0,0)" rx="3.5" ry="31.1"  />
    <path d="M752 141.6c1 19.8-150.5 44.2-338.7 54.5-188 10.3-341.6 2.6-342.6-17.3-1-20 150.5-44.3 338.7-54.5C597.6 114 751 121.7 752 141.6z" class="ring"/>
    <path d="M409.6 143c-29.3 1.6-55.6 10.6-76 24l154-8.3c-21.6-11.2-48.8-17.3-78-15.7z"/>
  </g>

  <g class="ball" id="eastball" transform="matrix(1.83,0,0,1.83,-572.36,-283.67) matrix(0.21,0.013,-0.013,0.213,573.9,162.68)">
    <rect width="62.1" height="70.3" x="367" y="173.7" ry="31.1" rx="3.5" transform="matrix(0.99,-0.05,0.05,0.99,0,0)"/>
    <path d="M752 141.6c1 19.8-150.5 44.2-338.7 54.5-188 10.3-341.6 2.6-342.6-17.3-1-20 150.5-44.3 338.7-54.5C597.6 114 751 121.7 752 141.6z" class="ring"/>
    <path d="M409.6 143c-29.3 1.6-55.6 10.6-76 24l154-8.3c-21.6-11.2-48.8-17.3-78-15.7z"/>
  </g>

  <path id="eastbranch" d="M421.8 104.8c74.7.2 225.7-2 223.6 4-.7 2.2-13 2.8-16 3-74.3.5-134 5.4-191 12.8-19-2.8-34.3-16.4-16.6-19.8z" />
  <path id="southbranch" d="M371.4 109.4c-47 6.7-142.6 17.3-141.4 23.4.5 2.3 8.2 2 10.2 1.8 47-6 84.5-6 120.4-3.3 12-4.6 22-20 10.8-22z" />
  
  <g class="ball" id="southball" transform="matrix(1.83,0,0,1.83,-572.36,-283.67) matrix(0.213,0.012,-0.012,0.213,357.1,174.4)">
    <rect width="62.1" height="70.3" x="367" y="173.7" ry="31.1" rx="3.5" transform="matrix(0.99,-0.05,0.054,0.99,0,0)"/>
    <path d="M752 141.6c1 19.8-150.5 44.2-338.7 54.5-188 10.3-341.6 2.6-342.6-17.3-1-20 150.5-44.3 338.7-54.5C597.6 114 751 121.7 752 141.6z" class="ring"/>
    <path d="M409.6 143c-29.3 1.6-55.6 10.6-76 24l154-8.3c-21.6-11.2-48.8-17.3-78-15.7z"/>
  </g>
</svg>
