
<svg xmlns="http://www.w3.org/2000/svg" width="467.9" height="235.2">
  <g>
    <path d="M468 0c.3.6-7.7 7.4-22.8 19.3-15 11.8-37 29-64.7 50L282 143.5c-37.3 28-78.8 59-123 91.7l-50.5-51.7-29-29.7 152-62c46.5-18.7 88.2-35.5 123-49.3 35-13.8 63.3-24.8 82.8-32C456.8 3.2 467.7-.5 468 0c.2.7-10.2 5.5-29.3 13.7-19 8-46.7 19.5-81.2 33.5s-75.7 30.4-121.8 48.6L85 154.8l27 26.6 47.6 46.4c43.2-32.7 84-63.4 120.7-91 37-27.7 69.8-52.3 97.5-72.7 27.6-20.3 50-36.6 65.5-47.6S467.5-.4 468 0z" fill="#226DAA"/>
    <path d="M466.5 0c0 .7-11 4.2-31.5 10-20.5 6-50.3 14.2-87.6 24.3-37.2 10-81.8 22-131.8 35L51.6 112l-38-51.6C9 54.4 4.6 48 0 42c128-12.2 243.5-23 327.5-30.5 84-7.6 136.3-12 139-11.5-2.5 1-54.7 6.4-138 14.3-83 8-197.2 18.2-324 29.6l13 15.8L54.2 104c58-15.2 112.5-29.5 162-42.3 49.3-13 93.5-24.2 130.5-33.5s67-16.7 87.6-21.5c20.6-5 32-7.2 32.2-6.6z" fill="#226DAA"/>
    <path d="M55 105.8c.7.2.6 3-.2 7.8-.8 5-2.3 11.8-4.5 20.2-2 8.5-5 18.4-8.2 29.4-3.2 11-7 23-11 35.8l-4.6 15c7.2-8.7 14-16.8 20.5-24 6.2-7.4 12-13.7 17-19 5-5 9-9.2 12-11.8 3-2.6 5-3.8 5.5-3.4.4.4-.6 2.4-3 5.7-2.6 3.2-6.4 7.7-11.4 13-5 5.5-11.2 12-18.3 19-7 7-15 14.6-23.5 22.6 1-5 2.3-10.2 3.5-15.5 3-13.3 5.8-26 8.6-37.4 2.7-11.3 5.3-21.6 7.7-30.2 2.4-8.5 4.6-15.4 6.3-20 1.8-4.7 3-7.2 3.8-7z" fill="#226DAA"/>
    <path d="M25.6 215.6c-.6-1 18-9.6 41.2-19.4 23.4-9.7 42.8-16.8 43.4-16 .6 1-18 9.7-41.2 19.4-23.4 9.8-42.8 17-43.4 16z" fill="#226DAA"/>
  </g>
</svg>