<svg xmlns="http://www.w3.org/2000/svg" width="700" height="280" version="1" xmlns:xlink="http://www.w3.org/1999/xlink">
  <defs>
    <linearGradient id="a">
      <stop offset="0"/>
      <stop offset="1" stop-opacity="0"/>
    </linearGradient>
    <linearGradient id="b">
      <stop offset="0" stop-color="#0000d7"/>
      <stop offset="1" stop-color="#caceff"/>
      <stop offset="1" stop-color="#0000d7" stop-opacity="0"/>
    </linearGradient>
    <linearGradient id="c" x1="353.5" x2="372.1" y1="325.2" y2="328.4" gradientTransform="matrix(1.50727 0 0 1.9946 -104.177 -208.928)" gradientUnits="userSpaceOnUse" xlink:href="#a"/>
    <style>
      path[fill="#efefef"] {
      fill:#226DAA;
      }

    </style>
  </defs>
  <g  transform="translate(-18, -235)">
  <path fill="#efefef" stroke="#000" stroke-width="4" d="M197.7 342.4l3-15.4H190l-7.6 10.8 15.3 4.6z"/>
  <path fill="#7171af" stroke="#000" stroke-opacity=".3" stroke-width="2" d="M374 452.7s-12.3 6-9.3-1.5c3-7.7 12.3-9.2 1.6-7.7-10.8 1.5-1.6 9.2-10.8 1.5-9.2-7.6 7.7-12.2 7.7-12.2l21.5-1.6-10.8 21.5z"/>
  <path id="body" fill="#efefed" stroke="#000" stroke-width="4" d="M372.4 449.6c3 17 18.4 15.3 18.4 15.3s10.7 1.5 24.5 0c13.8-1.6 21.5 1.5 27.6-3 6-4.7 7.5-3.2 10.6-9.3 3-6 4.6-10.7 3-15.3-1.5-4.6-1.5-10.8-7.6-13.8-6-3-13.8-3-13.8-3l-50.5 4.5s-6.2-1.4-9.2 7.8c-3 9.2-3 16.8-3 16.8zM141 393c13.8 7.6 81.2 30.6 87.3 30.6 6.2 0 40 4.6 47.6 4.6 7.5 0 85.7-3 124-6.2 38.3-3 84.3-9.2 110.3-10.7s118-9.2 147-13.8C686.6 393 708 373 708 373s6-4.6 4.6-10.7C711 356 685 344 685 344s-4.6-6.2-23-10.8c-18.4-4.6-23-6.2-36.8-7.7-13.8-1.5-95 4.6-127.2 7.7l-199.2 18.3s-30.6 3-58.2 0-29-3-47.5-12.2C174.8 330 96.7 255 96.7 255l-20 4.6 64.4 115-7.7 1.5s1.6 7.7 7.7 17z"/>
  <path fill-opacity=".3" d="M374 413.2s88.8-21.4 113.3-20c24.5 1.7 6.2 12.4 6.2 12.4s-15.4 7.6-32.2 6c-20 7.8-87.4 1.6-87.4 1.6z"/>
  <path fill="#efefef" stroke="#000" stroke-width="4" d="M335.6 420.5c6-4.6 101.2-18.4 107.3-18.4 6 0 16.7 3.2 10.6 7.8-6 4.6-332.5 101-332.5 101s-24.4 3.2-29-4.5c-4.6-7.6-26-26-26-26l18.3-1.6 21.5 17 229.8-75.2zM495 331.6l23-64.3-23-30.7h-15.3l12.2 30.7-55.2 70.5 58.2-6.2zM173.2 390L41.4 422l-17-1.5s-9-3-1.4-6c7.7-3.2 105.7-27.7 105.7-27.7s17-6 27.6-3c10.8 3 17 6 17 6z"/>
  <path fill="none" stroke="#226DAA" stroke-width="9" d="M219.2 397.5l372.3-29" stroke-dasharray="9 9"/>
  <path stroke="#000" stroke-width="2.6" fill="#226DAA" d="M636 351.5l1.5 9.2 17-1.5s3 1.5 15.2-4.6c12.2-6 13.8-10.7 13.8-10.7l-9.2-6.2s1.5 6-7.7 7.6c-9.2 1.6-30.6 6-30.6 6z"/>
  <path fill="url(#c)" d="M436.8 459s-5.3-4.3-6.2-12.4c-3-9.2-1.4-10.2 3-17 6.2-6 6.2-7.6 10.8-4.5 4.6 3.2 8.3 4.7 7.7 12.4 1.6 7.6 2.2 12.8-4 15.8-3.4 5.3-11.2 5.8-11.2 5.8z"/>
  <path fill-opacity=".3" d="M105.8 497l7.6 7.8 199.2-70.5S130.3 491 121 494c-9 3-15.2 3-15.2 3zM493.5 268.8l20-1.5s-3.2-3-18.5 13.8c-15.3 17-33.7 35.3-33.7 35.3l32.2-47.5zM145.6 371.5l82.7-17s-35.2 9.3-49 17c-13.8 7.6-33.7 0-33.7 0zM196.2 353s1.5 3-18.4-12.2c-20-15.3-76.6-73.5-76.6-73.5l75 84.2s3 7.7 10.8 6.2c7.6-1.6 9.2-4.6 9.2-4.6zM377 442c0 9.2 0 12.2 3 15.3 3 3 43-7.7 43-7.7s-15.4-1.5-29.2-4.6c-13.7-3-16.8-3-16.8-3z"/></g>
</svg>
